M48
INCH,TZ
T1C0.0197
T2C0.0256
T3C0.1772
%
G90
G05
T1
X13157Y-18024
X13157Y-18614
X13453Y-18024
X13453Y-18614
X13748Y-18024
X13748Y-18614
X14043Y-18024
X14043Y-18614
X14339Y-18024
X14339Y-18614
X14634Y-18024
X14634Y-18614
X14929Y-18024
X14929Y-18614
X17598Y-11567
X17598Y-11862
X17598Y-12157
X17598Y-12453
X17598Y-12748
X17598Y-13043
X17598Y-13339
X17598Y-23354
X17598Y-23650
X17598Y-23945
X17598Y-24240
X17598Y-24535
X17598Y-24831
X17598Y-25126
X18189Y-11567
X18189Y-11862
X18189Y-12157
X18189Y-12453
X18189Y-12748
X18189Y-13043
X18189Y-13339
X18189Y-23354
X18189Y-23650
X18189Y-23945
X18189Y-24240
X18189Y-24535
X18189Y-24831
X18189Y-25126
X20945Y-18024
X20945Y-18614
X21240Y-18024
X21240Y-18614
X21535Y-18024
X21535Y-18614
X21831Y-18024
X21831Y-18614
X22126Y-18024
X22126Y-18614
X22421Y-18024
X22421Y-18614
X22717Y-18024
X22717Y-18614
X25386Y-11567
X25386Y-11862
X25386Y-12157
X25386Y-12453
X25386Y-12748
X25386Y-13043
X25386Y-13339
X25386Y-23354
X25386Y-23650
X25386Y-23945
X25386Y-24240
X25386Y-24535
X25386Y-24831
X25386Y-25126
X25976Y-11567
X25976Y-11862
X25976Y-12157
X25976Y-12453
X25976Y-12748
X25976Y-13043
X25976Y-13339
X25976Y-23354
X25976Y-23650
X25976Y-23945
X25976Y-24240
X25976Y-24535
X25976Y-24831
X25976Y-25126
X28732Y-18024
X28732Y-18614
X29028Y-18024
X29028Y-18614
X29323Y-18024
X29323Y-18614
X29618Y-18024
X29618Y-18614
X29913Y-18024
X29913Y-18614
X30209Y-18024
X30209Y-18614
X30504Y-18024
X30504Y-18614
X33173Y-11567
X33173Y-11862
X33173Y-12157
X33173Y-12453
X33173Y-12748
X33173Y-13043
X33173Y-13339
X33173Y-23354
X33173Y-23650
X33173Y-23945
X33173Y-24240
X33173Y-24535
X33173Y-24831
X33173Y-25126
X33764Y-11567
X33764Y-11862
X33764Y-12157
X33764Y-12453
X33764Y-12748
X33764Y-13043
X33764Y-13339
X33764Y-23354
X33764Y-23650
X33764Y-23945
X33764Y-24240
X33764Y-24535
X33764Y-24831
X33764Y-25126
X36520Y-18024
X36520Y-18614
X36815Y-18024
X36815Y-18614
X37110Y-18024
X37110Y-18614
X37406Y-18024
X37406Y-18614
X37701Y-18024
X37701Y-18614
X37996Y-18024
X37996Y-18614
X38291Y-18024
X38291Y-18614
X40961Y-11567
X40961Y-11862
X40961Y-12157
X40961Y-12453
X40961Y-12748
X40961Y-13043
X40961Y-13339
X40961Y-23354
X40961Y-23650
X40961Y-23945
X40961Y-24240
X40961Y-24535
X40961Y-24831
X40961Y-25126
X41551Y-11567
X41551Y-11862
X41551Y-12157
X41551Y-12453
X41551Y-12748
X41551Y-13043
X41551Y-13339
X41551Y-23354
X41551Y-23650
X41551Y-23945
X41551Y-24240
X41551Y-24535
X41551Y-24831
X41551Y-25126
X44307Y-18024
X44307Y-18614
X44602Y-18024
X44602Y-18614
X44898Y-18024
X44898Y-18614
X45193Y-18024
X45193Y-18614
X45488Y-18024
X45488Y-18614
X45783Y-18024
X45783Y-18614
X46079Y-18024
X46079Y-18614
X48748Y-11567
X48748Y-11862
X48748Y-12157
X48748Y-12453
X48748Y-12748
X48748Y-13043
X48748Y-13339
X48748Y-23299
X48748Y-23594
X48748Y-23890
X48748Y-24185
X48748Y-24480
X48748Y-24776
X48748Y-25071
X49339Y-11567
X49339Y-11862
X49339Y-12157
X49339Y-12453
X49339Y-12748
X49339Y-13043
X49339Y-13339
X49339Y-23299
X49339Y-23594
X49339Y-23890
X49339Y-24185
X49339Y-24480
X49339Y-24776
X49339Y-25071
X53051Y-17051
X53051Y-19587
X53346Y-17051
X53346Y-19587
X53642Y-17051
X53642Y-19587
X53937Y-17051
X53937Y-19587
X54232Y-17051
X54232Y-19587
X54528Y-17051
X54528Y-19587
X54823Y-17051
X54823Y-19587
T2
X52748Y-14856
X55024Y-14856
T3
X54091Y-21008
X54091Y-23134
X54091Y-25260
X54091Y-27386
T0
M30
