%TF.GenerationSoftware,KiCad,Pcbnew,(6.0.2)*%
%TF.CreationDate,2022-03-22T07:25:02-04:00*%
%TF.ProjectId,Panel_Design_1,50616e65-6c5f-4446-9573-69676e5f312e,rev?*%
%TF.SameCoordinates,Original*%
%TF.FileFunction,Copper,L2,Bot*%
%TF.FilePolarity,Positive*%
%FSLAX46Y46*%
G04 Gerber Fmt 4.6, Leading zero omitted, Abs format (unit mm)*
G04 Created by KiCad (PCBNEW (6.0.2)) date 2022-03-22 07:25:02*
%MOMM*%
%LPD*%
G01*
G04 APERTURE LIST*
%TA.AperFunction,ComponentPad*%
%ADD10R,1.700000X1.700000*%
%TD*%
%TA.AperFunction,ComponentPad*%
%ADD11O,1.700000X1.700000*%
%TD*%
%TA.AperFunction,ComponentPad*%
%ADD12O,1.000000X2.100000*%
%TD*%
%TA.AperFunction,ComponentPad*%
%ADD13O,1.000000X1.600000*%
%TD*%
%TA.AperFunction,SMDPad,CuDef*%
%ADD14R,1.400000X0.800000*%
%TD*%
%TA.AperFunction,Conductor*%
%ADD15C,0.250000*%
%TD*%
G04 APERTURE END LIST*
D10*
%TO.P,J40,1,Pin_1*%
%TO.N,Net-(G1-Pad2)*%
X117220000Y-23400000D03*
D11*
%TO.P,J40,2,Pin_2*%
%TO.N,Net-(G2-Pad2)*%
X117220000Y-25940000D03*
%TO.P,J40,3,Pin_3*%
%TO.N,Net-(G3-Pad2)*%
X117220000Y-28480000D03*
%TO.P,J40,4,Pin_4*%
%TO.N,Net-(G4-Pad2)*%
X117220000Y-31020000D03*
%TO.P,J40,5,Pin_5*%
%TO.N,Net-(G5-Pad2)*%
X117220000Y-33560000D03*
%TO.P,J40,6,Pin_6*%
%TO.N,Net-(G6-Pad2)*%
X117220000Y-36100000D03*
%TO.P,J40,7,Pin_7*%
%TO.N,Net-(G7-Pad2)*%
X117220000Y-38640000D03*
%TO.P,J40,8,Pin_8*%
%TO.N,Net-(G8-Pad2)*%
X117220000Y-41180000D03*
%TO.P,J40,9,Pin_9*%
%TO.N,Net-(G9-Pad2)*%
X117220000Y-43720000D03*
%TO.P,J40,10,Pin_10*%
%TO.N,Net-(G10-Pad2)*%
X117220000Y-46260000D03*
%TD*%
D10*
%TO.P,J4,1,Pin_1*%
%TO.N,Net-(G1-Pad2)*%
X38100000Y-23400000D03*
D11*
%TO.P,J4,2,Pin_2*%
%TO.N,Net-(G2-Pad2)*%
X38100000Y-25940000D03*
%TO.P,J4,3,Pin_3*%
%TO.N,Net-(G3-Pad2)*%
X38100000Y-28480000D03*
%TO.P,J4,4,Pin_4*%
%TO.N,Net-(G4-Pad2)*%
X38100000Y-31020000D03*
%TO.P,J4,5,Pin_5*%
%TO.N,Net-(G5-Pad2)*%
X38100000Y-33560000D03*
%TO.P,J4,6,Pin_6*%
%TO.N,Net-(G6-Pad2)*%
X38100000Y-36100000D03*
%TO.P,J4,7,Pin_7*%
%TO.N,Net-(G7-Pad2)*%
X38100000Y-38640000D03*
%TO.P,J4,8,Pin_8*%
%TO.N,Net-(G8-Pad2)*%
X38100000Y-41180000D03*
%TO.P,J4,9,Pin_9*%
%TO.N,Net-(G9-Pad2)*%
X38100000Y-43720000D03*
%TO.P,J4,10,Pin_10*%
%TO.N,Net-(G10-Pad2)*%
X38100000Y-46260000D03*
%TD*%
D10*
%TO.P,J48,1,Pin_1*%
%TO.N,Net-(G1-Pad2)*%
X97440000Y-53340000D03*
D11*
%TO.P,J48,2,Pin_2*%
%TO.N,Net-(G2-Pad2)*%
X97440000Y-55880000D03*
%TO.P,J48,3,Pin_3*%
%TO.N,Net-(G3-Pad2)*%
X97440000Y-58420000D03*
%TO.P,J48,4,Pin_4*%
%TO.N,Net-(G4-Pad2)*%
X97440000Y-60960000D03*
%TO.P,J48,5,Pin_5*%
%TO.N,Net-(G5-Pad2)*%
X97440000Y-63500000D03*
%TO.P,J48,6,Pin_6*%
%TO.N,Net-(G6-Pad2)*%
X97440000Y-66040000D03*
%TO.P,J48,7,Pin_7*%
%TO.N,Net-(G7-Pad2)*%
X97440000Y-68580000D03*
%TO.P,J48,8,Pin_8*%
%TO.N,Net-(G8-Pad2)*%
X97440000Y-71120000D03*
%TO.P,J48,9,Pin_9*%
%TO.N,Net-(G9-Pad2)*%
X97440000Y-73660000D03*
%TO.P,J48,10,Pin_10*%
%TO.N,Net-(G10-Pad2)*%
X97440000Y-76200000D03*
%TD*%
D10*
%TO.P,J2,1,Pin_1*%
%TO.N,Net-(G1-Pad1)*%
X25400000Y-23400000D03*
D11*
%TO.P,J2,2,Pin_2*%
%TO.N,Net-(G2-Pad1)*%
X25400000Y-25940000D03*
%TO.P,J2,3,Pin_3*%
%TO.N,Net-(G3-Pad1)*%
X25400000Y-28480000D03*
%TO.P,J2,4,Pin_4*%
%TO.N,Net-(G4-Pad1)*%
X25400000Y-31020000D03*
%TO.P,J2,5,Pin_5*%
%TO.N,Net-(G5-Pad1)*%
X25400000Y-33560000D03*
%TO.P,J2,6,Pin_6*%
%TO.N,Net-(G6-Pad1)*%
X25400000Y-36100000D03*
%TO.P,J2,7,Pin_7*%
%TO.N,Net-(G7-Pad1)*%
X25400000Y-38640000D03*
%TO.P,J2,8,Pin_8*%
%TO.N,Net-(G8-Pad1)*%
X25400000Y-41180000D03*
%TO.P,J2,9,Pin_9*%
%TO.N,Net-(G9-Pad1)*%
X25400000Y-43720000D03*
%TO.P,J2,10,Pin_10*%
%TO.N,Net-(G10-Pad1)*%
X25400000Y-46260000D03*
%TD*%
D10*
%TO.P,J37,1,Pin_1*%
%TO.N,Net-(G1-Pad1)*%
X84740000Y-23400000D03*
D11*
%TO.P,J37,2,Pin_2*%
%TO.N,Net-(G2-Pad1)*%
X84740000Y-25940000D03*
%TO.P,J37,3,Pin_3*%
%TO.N,Net-(G3-Pad1)*%
X84740000Y-28480000D03*
%TO.P,J37,4,Pin_4*%
%TO.N,Net-(G4-Pad1)*%
X84740000Y-31020000D03*
%TO.P,J37,5,Pin_5*%
%TO.N,Net-(G5-Pad1)*%
X84740000Y-33560000D03*
%TO.P,J37,6,Pin_6*%
%TO.N,Net-(G6-Pad1)*%
X84740000Y-36100000D03*
%TO.P,J37,7,Pin_7*%
%TO.N,Net-(G7-Pad1)*%
X84740000Y-38640000D03*
%TO.P,J37,8,Pin_8*%
%TO.N,Net-(G8-Pad1)*%
X84740000Y-41180000D03*
%TO.P,J37,9,Pin_9*%
%TO.N,Net-(G9-Pad1)*%
X84740000Y-43720000D03*
%TO.P,J37,10,Pin_10*%
%TO.N,Net-(G10-Pad1)*%
X84740000Y-46260000D03*
%TD*%
D10*
%TO.P,J34,1,Pin_1*%
%TO.N,Net-(G1-Pad2)*%
X57880000Y-23400000D03*
D11*
%TO.P,J34,2,Pin_2*%
%TO.N,Net-(G2-Pad2)*%
X57880000Y-25940000D03*
%TO.P,J34,3,Pin_3*%
%TO.N,Net-(G3-Pad2)*%
X57880000Y-28480000D03*
%TO.P,J34,4,Pin_4*%
%TO.N,Net-(G4-Pad2)*%
X57880000Y-31020000D03*
%TO.P,J34,5,Pin_5*%
%TO.N,Net-(G5-Pad2)*%
X57880000Y-33560000D03*
%TO.P,J34,6,Pin_6*%
%TO.N,Net-(G6-Pad2)*%
X57880000Y-36100000D03*
%TO.P,J34,7,Pin_7*%
%TO.N,Net-(G7-Pad2)*%
X57880000Y-38640000D03*
%TO.P,J34,8,Pin_8*%
%TO.N,Net-(G8-Pad2)*%
X57880000Y-41180000D03*
%TO.P,J34,9,Pin_9*%
%TO.N,Net-(G9-Pad2)*%
X57880000Y-43720000D03*
%TO.P,J34,10,Pin_10*%
%TO.N,Net-(G10-Pad2)*%
X57880000Y-46260000D03*
%TD*%
D12*
%TO.P,USB1,13,SHIELD*%
%TO.N,Net-(J25-Pad6)*%
X128740002Y-40474999D03*
D13*
X128740002Y-44654999D03*
X137380002Y-44654999D03*
D12*
X137380002Y-40474999D03*
%TD*%
D10*
%TO.P,J44,1,Pin_1*%
%TO.N,Net-(G1-Pad2)*%
X57880000Y-53340000D03*
D11*
%TO.P,J44,2,Pin_2*%
%TO.N,Net-(G2-Pad2)*%
X57880000Y-55880000D03*
%TO.P,J44,3,Pin_3*%
%TO.N,Net-(G3-Pad2)*%
X57880000Y-58420000D03*
%TO.P,J44,4,Pin_4*%
%TO.N,Net-(G4-Pad2)*%
X57880000Y-60960000D03*
%TO.P,J44,5,Pin_5*%
%TO.N,Net-(G5-Pad2)*%
X57880000Y-63500000D03*
%TO.P,J44,6,Pin_6*%
%TO.N,Net-(G6-Pad2)*%
X57880000Y-66040000D03*
%TO.P,J44,7,Pin_7*%
%TO.N,Net-(G7-Pad2)*%
X57880000Y-68580000D03*
%TO.P,J44,8,Pin_8*%
%TO.N,Net-(G8-Pad2)*%
X57880000Y-71120000D03*
%TO.P,J44,9,Pin_9*%
%TO.N,Net-(G9-Pad2)*%
X57880000Y-73660000D03*
%TO.P,J44,10,Pin_10*%
%TO.N,Net-(G10-Pad2)*%
X57880000Y-76200000D03*
%TD*%
D10*
%TO.P,J41,1,Pin_1*%
%TO.N,Net-(G1-Pad1)*%
X25400000Y-53340000D03*
D11*
%TO.P,J41,2,Pin_2*%
%TO.N,Net-(G2-Pad1)*%
X25400000Y-55880000D03*
%TO.P,J41,3,Pin_3*%
%TO.N,Net-(G3-Pad1)*%
X25400000Y-58420000D03*
%TO.P,J41,4,Pin_4*%
%TO.N,Net-(G4-Pad1)*%
X25400000Y-60960000D03*
%TO.P,J41,5,Pin_5*%
%TO.N,Net-(G5-Pad1)*%
X25400000Y-63500000D03*
%TO.P,J41,6,Pin_6*%
%TO.N,Net-(G6-Pad1)*%
X25400000Y-66040000D03*
%TO.P,J41,7,Pin_7*%
%TO.N,Net-(G7-Pad1)*%
X25400000Y-68580000D03*
%TO.P,J41,8,Pin_8*%
%TO.N,Net-(G8-Pad1)*%
X25400000Y-71120000D03*
%TO.P,J41,9,Pin_9*%
%TO.N,Net-(G9-Pad1)*%
X25400000Y-73660000D03*
%TO.P,J41,10,Pin_10*%
%TO.N,Net-(G10-Pad1)*%
X25400000Y-76200000D03*
%TD*%
D10*
%TO.P,J39,1,Pin_1*%
%TO.N,Net-(G1-Pad1)*%
X104520000Y-23400000D03*
D11*
%TO.P,J39,2,Pin_2*%
%TO.N,Net-(G2-Pad1)*%
X104520000Y-25940000D03*
%TO.P,J39,3,Pin_3*%
%TO.N,Net-(G3-Pad1)*%
X104520000Y-28480000D03*
%TO.P,J39,4,Pin_4*%
%TO.N,Net-(G4-Pad1)*%
X104520000Y-31020000D03*
%TO.P,J39,5,Pin_5*%
%TO.N,Net-(G5-Pad1)*%
X104520000Y-33560000D03*
%TO.P,J39,6,Pin_6*%
%TO.N,Net-(G6-Pad1)*%
X104520000Y-36100000D03*
%TO.P,J39,7,Pin_7*%
%TO.N,Net-(G7-Pad1)*%
X104520000Y-38640000D03*
%TO.P,J39,8,Pin_8*%
%TO.N,Net-(G8-Pad1)*%
X104520000Y-41180000D03*
%TO.P,J39,9,Pin_9*%
%TO.N,Net-(G9-Pad1)*%
X104520000Y-43720000D03*
%TO.P,J39,10,Pin_10*%
%TO.N,Net-(G10-Pad1)*%
X104520000Y-46260000D03*
%TD*%
D10*
%TO.P,J38,1,Pin_1*%
%TO.N,Net-(G1-Pad2)*%
X97440000Y-23400000D03*
D11*
%TO.P,J38,2,Pin_2*%
%TO.N,Net-(G2-Pad2)*%
X97440000Y-25940000D03*
%TO.P,J38,3,Pin_3*%
%TO.N,Net-(G3-Pad2)*%
X97440000Y-28480000D03*
%TO.P,J38,4,Pin_4*%
%TO.N,Net-(G4-Pad2)*%
X97440000Y-31020000D03*
%TO.P,J38,5,Pin_5*%
%TO.N,Net-(G5-Pad2)*%
X97440000Y-33560000D03*
%TO.P,J38,6,Pin_6*%
%TO.N,Net-(G6-Pad2)*%
X97440000Y-36100000D03*
%TO.P,J38,7,Pin_7*%
%TO.N,Net-(G7-Pad2)*%
X97440000Y-38640000D03*
%TO.P,J38,8,Pin_8*%
%TO.N,Net-(G8-Pad2)*%
X97440000Y-41180000D03*
%TO.P,J38,9,Pin_9*%
%TO.N,Net-(G9-Pad2)*%
X97440000Y-43720000D03*
%TO.P,J38,10,Pin_10*%
%TO.N,Net-(G10-Pad2)*%
X97440000Y-46260000D03*
%TD*%
D10*
%TO.P,J36,1,Pin_1*%
%TO.N,Net-(G1-Pad2)*%
X77660000Y-23400000D03*
D11*
%TO.P,J36,2,Pin_2*%
%TO.N,Net-(G2-Pad2)*%
X77660000Y-25940000D03*
%TO.P,J36,3,Pin_3*%
%TO.N,Net-(G3-Pad2)*%
X77660000Y-28480000D03*
%TO.P,J36,4,Pin_4*%
%TO.N,Net-(G4-Pad2)*%
X77660000Y-31020000D03*
%TO.P,J36,5,Pin_5*%
%TO.N,Net-(G5-Pad2)*%
X77660000Y-33560000D03*
%TO.P,J36,6,Pin_6*%
%TO.N,Net-(G6-Pad2)*%
X77660000Y-36100000D03*
%TO.P,J36,7,Pin_7*%
%TO.N,Net-(G7-Pad2)*%
X77660000Y-38640000D03*
%TO.P,J36,8,Pin_8*%
%TO.N,Net-(G8-Pad2)*%
X77660000Y-41180000D03*
%TO.P,J36,9,Pin_9*%
%TO.N,Net-(G9-Pad2)*%
X77660000Y-43720000D03*
%TO.P,J36,10,Pin_10*%
%TO.N,Net-(G10-Pad2)*%
X77660000Y-46260000D03*
%TD*%
D10*
%TO.P,J42,1,Pin_1*%
%TO.N,Net-(G1-Pad2)*%
X38100000Y-53340000D03*
D11*
%TO.P,J42,2,Pin_2*%
%TO.N,Net-(G2-Pad2)*%
X38100000Y-55880000D03*
%TO.P,J42,3,Pin_3*%
%TO.N,Net-(G3-Pad2)*%
X38100000Y-58420000D03*
%TO.P,J42,4,Pin_4*%
%TO.N,Net-(G4-Pad2)*%
X38100000Y-60960000D03*
%TO.P,J42,5,Pin_5*%
%TO.N,Net-(G5-Pad2)*%
X38100000Y-63500000D03*
%TO.P,J42,6,Pin_6*%
%TO.N,Net-(G6-Pad2)*%
X38100000Y-66040000D03*
%TO.P,J42,7,Pin_7*%
%TO.N,Net-(G7-Pad2)*%
X38100000Y-68580000D03*
%TO.P,J42,8,Pin_8*%
%TO.N,Net-(G8-Pad2)*%
X38100000Y-71120000D03*
%TO.P,J42,9,Pin_9*%
%TO.N,Net-(G9-Pad2)*%
X38100000Y-73660000D03*
%TO.P,J42,10,Pin_10*%
%TO.N,Net-(G10-Pad2)*%
X38100000Y-76200000D03*
%TD*%
D10*
%TO.P,J45,1,Pin_1*%
%TO.N,Net-(G1-Pad1)*%
X64960000Y-53340000D03*
D11*
%TO.P,J45,2,Pin_2*%
%TO.N,Net-(G2-Pad1)*%
X64960000Y-55880000D03*
%TO.P,J45,3,Pin_3*%
%TO.N,Net-(G3-Pad1)*%
X64960000Y-58420000D03*
%TO.P,J45,4,Pin_4*%
%TO.N,Net-(G4-Pad1)*%
X64960000Y-60960000D03*
%TO.P,J45,5,Pin_5*%
%TO.N,Net-(G5-Pad1)*%
X64960000Y-63500000D03*
%TO.P,J45,6,Pin_6*%
%TO.N,Net-(G6-Pad1)*%
X64960000Y-66040000D03*
%TO.P,J45,7,Pin_7*%
%TO.N,Net-(G7-Pad1)*%
X64960000Y-68580000D03*
%TO.P,J45,8,Pin_8*%
%TO.N,Net-(G8-Pad1)*%
X64960000Y-71120000D03*
%TO.P,J45,9,Pin_9*%
%TO.N,Net-(G9-Pad1)*%
X64960000Y-73660000D03*
%TO.P,J45,10,Pin_10*%
%TO.N,Net-(G10-Pad1)*%
X64960000Y-76200000D03*
%TD*%
D10*
%TO.P,J50,1,Pin_1*%
%TO.N,Net-(G1-Pad2)*%
X117220000Y-53340000D03*
D11*
%TO.P,J50,2,Pin_2*%
%TO.N,Net-(G2-Pad2)*%
X117220000Y-55880000D03*
%TO.P,J50,3,Pin_3*%
%TO.N,Net-(G3-Pad2)*%
X117220000Y-58420000D03*
%TO.P,J50,4,Pin_4*%
%TO.N,Net-(G4-Pad2)*%
X117220000Y-60960000D03*
%TO.P,J50,5,Pin_5*%
%TO.N,Net-(G5-Pad2)*%
X117220000Y-63500000D03*
%TO.P,J50,6,Pin_6*%
%TO.N,Net-(G6-Pad2)*%
X117220000Y-66040000D03*
%TO.P,J50,7,Pin_7*%
%TO.N,Net-(G7-Pad2)*%
X117220000Y-68580000D03*
%TO.P,J50,8,Pin_8*%
%TO.N,Net-(G8-Pad2)*%
X117220000Y-71120000D03*
%TO.P,J50,9,Pin_9*%
%TO.N,Net-(G9-Pad2)*%
X117220000Y-73660000D03*
%TO.P,J50,10,Pin_10*%
%TO.N,Net-(G10-Pad2)*%
X117220000Y-76200000D03*
%TD*%
D10*
%TO.P,J13,1,Pin_1*%
%TO.N,Net-(J13-Pad1)*%
X124300001Y-55810001D03*
D11*
%TO.P,J13,2,Pin_2*%
%TO.N,Net-(J13-Pad2)*%
X124300001Y-58350001D03*
%TO.P,J13,3,Pin_3*%
%TO.N,Net-(J13-Pad3)*%
X124300001Y-60890001D03*
%TO.P,J13,4,Pin_4*%
%TO.N,Net-(J13-Pad4)*%
X124300001Y-63430001D03*
%TO.P,J13,5,Pin_5*%
%TO.N,Net-(J13-Pad5)*%
X124300001Y-65970001D03*
%TO.P,J13,6,Pin_6*%
%TO.N,Net-(J13-Pad6)*%
X124300001Y-68510001D03*
%TO.P,J13,7,Pin_7*%
%TO.N,Net-(J13-Pad7)*%
X124300001Y-71050001D03*
%TO.P,J13,8,Pin_8*%
%TO.N,Net-(J13-Pad8)*%
X124300001Y-73590001D03*
%TD*%
D10*
%TO.P,J47,1,Pin_1*%
%TO.N,Net-(G1-Pad1)*%
X84740000Y-53340000D03*
D11*
%TO.P,J47,2,Pin_2*%
%TO.N,Net-(G2-Pad1)*%
X84740000Y-55880000D03*
%TO.P,J47,3,Pin_3*%
%TO.N,Net-(G3-Pad1)*%
X84740000Y-58420000D03*
%TO.P,J47,4,Pin_4*%
%TO.N,Net-(G4-Pad1)*%
X84740000Y-60960000D03*
%TO.P,J47,5,Pin_5*%
%TO.N,Net-(G5-Pad1)*%
X84740000Y-63500000D03*
%TO.P,J47,6,Pin_6*%
%TO.N,Net-(G6-Pad1)*%
X84740000Y-66040000D03*
%TO.P,J47,7,Pin_7*%
%TO.N,Net-(G7-Pad1)*%
X84740000Y-68580000D03*
%TO.P,J47,8,Pin_8*%
%TO.N,Net-(G8-Pad1)*%
X84740000Y-71120000D03*
%TO.P,J47,9,Pin_9*%
%TO.N,Net-(G9-Pad1)*%
X84740000Y-73660000D03*
%TO.P,J47,10,Pin_10*%
%TO.N,Net-(G10-Pad1)*%
X84740000Y-76200000D03*
%TD*%
D10*
%TO.P,J25,1,Pin_1*%
%TO.N,Net-(J25-Pad1)*%
X142080002Y-28549999D03*
D11*
%TO.P,J25,2,Pin_2*%
%TO.N,Net-(J25-Pad2)*%
X142080002Y-31089999D03*
%TO.P,J25,3,Pin_3*%
%TO.N,Net-(J25-Pad3)*%
X142080002Y-33629999D03*
%TO.P,J25,4,Pin_4*%
%TO.N,Net-(J25-Pad4)*%
X142080002Y-36169999D03*
%TO.P,J25,5,Pin_5*%
%TO.N,GND_2*%
X142080002Y-38709999D03*
%TO.P,J25,6,Pin_6*%
%TO.N,Net-(J25-Pad6)*%
X142080002Y-41249999D03*
%TO.P,J25,7,Pin_7*%
%TO.N,unconnected-(J25-Pad7)*%
X142080002Y-43789999D03*
%TD*%
D10*
%TO.P,J35,1,Pin_1*%
%TO.N,Net-(G1-Pad1)*%
X64960000Y-23400000D03*
D11*
%TO.P,J35,2,Pin_2*%
%TO.N,Net-(G2-Pad1)*%
X64960000Y-25940000D03*
%TO.P,J35,3,Pin_3*%
%TO.N,Net-(G3-Pad1)*%
X64960000Y-28480000D03*
%TO.P,J35,4,Pin_4*%
%TO.N,Net-(G4-Pad1)*%
X64960000Y-31020000D03*
%TO.P,J35,5,Pin_5*%
%TO.N,Net-(G5-Pad1)*%
X64960000Y-33560000D03*
%TO.P,J35,6,Pin_6*%
%TO.N,Net-(G6-Pad1)*%
X64960000Y-36100000D03*
%TO.P,J35,7,Pin_7*%
%TO.N,Net-(G7-Pad1)*%
X64960000Y-38640000D03*
%TO.P,J35,8,Pin_8*%
%TO.N,Net-(G8-Pad1)*%
X64960000Y-41180000D03*
%TO.P,J35,9,Pin_9*%
%TO.N,Net-(G9-Pad1)*%
X64960000Y-43720000D03*
%TO.P,J35,10,Pin_10*%
%TO.N,Net-(G10-Pad1)*%
X64960000Y-46260000D03*
%TD*%
D10*
%TO.P,J46,1,Pin_1*%
%TO.N,Net-(G1-Pad2)*%
X77660000Y-53340000D03*
D11*
%TO.P,J46,2,Pin_2*%
%TO.N,Net-(G2-Pad2)*%
X77660000Y-55880000D03*
%TO.P,J46,3,Pin_3*%
%TO.N,Net-(G3-Pad2)*%
X77660000Y-58420000D03*
%TO.P,J46,4,Pin_4*%
%TO.N,Net-(G4-Pad2)*%
X77660000Y-60960000D03*
%TO.P,J46,5,Pin_5*%
%TO.N,Net-(G5-Pad2)*%
X77660000Y-63500000D03*
%TO.P,J46,6,Pin_6*%
%TO.N,Net-(G6-Pad2)*%
X77660000Y-66040000D03*
%TO.P,J46,7,Pin_7*%
%TO.N,Net-(G7-Pad2)*%
X77660000Y-68580000D03*
%TO.P,J46,8,Pin_8*%
%TO.N,Net-(G8-Pad2)*%
X77660000Y-71120000D03*
%TO.P,J46,9,Pin_9*%
%TO.N,Net-(G9-Pad2)*%
X77660000Y-73660000D03*
%TO.P,J46,10,Pin_10*%
%TO.N,Net-(G10-Pad2)*%
X77660000Y-76200000D03*
%TD*%
D10*
%TO.P,J14,1,Pin_1*%
%TO.N,Net-(J14-Pad1)*%
X142080001Y-55810001D03*
D11*
%TO.P,J14,2,Pin_2*%
%TO.N,Net-(J14-Pad2)*%
X142080001Y-58350001D03*
%TO.P,J14,3,Pin_3*%
%TO.N,Net-(J14-Pad3)*%
X142080001Y-60890001D03*
%TO.P,J14,4,Pin_4*%
%TO.N,Net-(J14-Pad4)*%
X142080001Y-63430001D03*
%TO.P,J14,5,Pin_5*%
%TO.N,Net-(J14-Pad5)*%
X142080001Y-65970001D03*
%TO.P,J14,6,Pin_6*%
%TO.N,Net-(J14-Pad6)*%
X142080001Y-68510001D03*
%TO.P,J14,7,Pin_7*%
%TO.N,Net-(J14-Pad7)*%
X142080001Y-71050001D03*
%TO.P,J14,8,Pin_8*%
%TO.N,Net-(J14-Pad8)*%
X142080001Y-73590001D03*
%TD*%
D10*
%TO.P,J49,1,Pin_1*%
%TO.N,Net-(G1-Pad1)*%
X104520000Y-53340000D03*
D11*
%TO.P,J49,2,Pin_2*%
%TO.N,Net-(G2-Pad1)*%
X104520000Y-55880000D03*
%TO.P,J49,3,Pin_3*%
%TO.N,Net-(G3-Pad1)*%
X104520000Y-58420000D03*
%TO.P,J49,4,Pin_4*%
%TO.N,Net-(G4-Pad1)*%
X104520000Y-60960000D03*
%TO.P,J49,5,Pin_5*%
%TO.N,Net-(G5-Pad1)*%
X104520000Y-63500000D03*
%TO.P,J49,6,Pin_6*%
%TO.N,Net-(G6-Pad1)*%
X104520000Y-66040000D03*
%TO.P,J49,7,Pin_7*%
%TO.N,Net-(G7-Pad1)*%
X104520000Y-68580000D03*
%TO.P,J49,8,Pin_8*%
%TO.N,Net-(G8-Pad1)*%
X104520000Y-71120000D03*
%TO.P,J49,9,Pin_9*%
%TO.N,Net-(G9-Pad1)*%
X104520000Y-73660000D03*
%TO.P,J49,10,Pin_10*%
%TO.N,Net-(G10-Pad1)*%
X104520000Y-76200000D03*
%TD*%
D10*
%TO.P,J18,1,Pin_1*%
%TO.N,GND_2*%
X124300002Y-43789999D03*
D11*
%TO.P,J18,2,Pin_2*%
%TO.N,Net-(J18-Pad2)*%
X124300002Y-41249999D03*
%TO.P,J18,3,Pin_3*%
%TO.N,Net-(J18-Pad3)*%
X124300002Y-38709999D03*
%TO.P,J18,4,Pin_4*%
%TO.N,Net-(J18-Pad4)*%
X124300002Y-36169999D03*
%TO.P,J18,5,Pin_5*%
%TO.N,Net-(J18-Pad5)*%
X124300002Y-33629999D03*
%TO.P,J18,6,Pin_6*%
%TO.N,Net-(J18-Pad6)*%
X124300002Y-31089999D03*
%TO.P,J18,7,Pin_7*%
%TO.N,Net-(J18-Pad7)*%
X124300002Y-28549999D03*
%TD*%
D10*
%TO.P,J33,1,Pin_1*%
%TO.N,Net-(G1-Pad1)*%
X45180000Y-23400000D03*
D11*
%TO.P,J33,2,Pin_2*%
%TO.N,Net-(G2-Pad1)*%
X45180000Y-25940000D03*
%TO.P,J33,3,Pin_3*%
%TO.N,Net-(G3-Pad1)*%
X45180000Y-28480000D03*
%TO.P,J33,4,Pin_4*%
%TO.N,Net-(G4-Pad1)*%
X45180000Y-31020000D03*
%TO.P,J33,5,Pin_5*%
%TO.N,Net-(G5-Pad1)*%
X45180000Y-33560000D03*
%TO.P,J33,6,Pin_6*%
%TO.N,Net-(G6-Pad1)*%
X45180000Y-36100000D03*
%TO.P,J33,7,Pin_7*%
%TO.N,Net-(G7-Pad1)*%
X45180000Y-38640000D03*
%TO.P,J33,8,Pin_8*%
%TO.N,Net-(G8-Pad1)*%
X45180000Y-41180000D03*
%TO.P,J33,9,Pin_9*%
%TO.N,Net-(G9-Pad1)*%
X45180000Y-43720000D03*
%TO.P,J33,10,Pin_10*%
%TO.N,Net-(G10-Pad1)*%
X45180000Y-46260000D03*
%TD*%
D10*
%TO.P,J43,1,Pin_1*%
%TO.N,Net-(G1-Pad1)*%
X45180000Y-53340000D03*
D11*
%TO.P,J43,2,Pin_2*%
%TO.N,Net-(G2-Pad1)*%
X45180000Y-55880000D03*
%TO.P,J43,3,Pin_3*%
%TO.N,Net-(G3-Pad1)*%
X45180000Y-58420000D03*
%TO.P,J43,4,Pin_4*%
%TO.N,Net-(G4-Pad1)*%
X45180000Y-60960000D03*
%TO.P,J43,5,Pin_5*%
%TO.N,Net-(G5-Pad1)*%
X45180000Y-63500000D03*
%TO.P,J43,6,Pin_6*%
%TO.N,Net-(G6-Pad1)*%
X45180000Y-66040000D03*
%TO.P,J43,7,Pin_7*%
%TO.N,Net-(G7-Pad1)*%
X45180000Y-68580000D03*
%TO.P,J43,8,Pin_8*%
%TO.N,Net-(G8-Pad1)*%
X45180000Y-71120000D03*
%TO.P,J43,9,Pin_9*%
%TO.N,Net-(G9-Pad1)*%
X45180000Y-73660000D03*
%TO.P,J43,10,Pin_10*%
%TO.N,Net-(G10-Pad1)*%
X45180000Y-76200000D03*
%TD*%
D14*
%TO.P,RGB3,1,BK*%
%TO.N,Net-(J13-Pad5)*%
X130980001Y-66705001D03*
%TO.P,RGB3,2,GK*%
%TO.N,Net-(J14-Pad5)*%
X136180001Y-66705001D03*
%TO.P,RGB3,3,RK*%
%TO.N,Net-(J14-Pad6)*%
X136180001Y-68155001D03*
%TO.P,RGB3,4,A*%
%TO.N,Net-(J13-Pad6)*%
X130980001Y-68155001D03*
%TD*%
%TO.P,RGB4,1,BK*%
%TO.N,Net-(J13-Pad7)*%
X130980001Y-72105001D03*
%TO.P,RGB4,2,GK*%
%TO.N,Net-(J14-Pad7)*%
X136180001Y-72105001D03*
%TO.P,RGB4,3,RK*%
%TO.N,Net-(J14-Pad8)*%
X136180001Y-73555001D03*
%TO.P,RGB4,4,A*%
%TO.N,Net-(J13-Pad8)*%
X130980001Y-73555001D03*
%TD*%
%TO.P,RGB1,1,BK*%
%TO.N,Net-(J13-Pad1)*%
X130980001Y-55905001D03*
%TO.P,RGB1,2,GK*%
%TO.N,Net-(J14-Pad1)*%
X136180001Y-55905001D03*
%TO.P,RGB1,3,RK*%
%TO.N,Net-(J14-Pad2)*%
X136180001Y-57355001D03*
%TO.P,RGB1,4,A*%
%TO.N,Net-(J13-Pad2)*%
X130980001Y-57355001D03*
%TD*%
%TO.P,RGB2,1,BK*%
%TO.N,Net-(J13-Pad3)*%
X130980001Y-61305001D03*
%TO.P,RGB2,2,GK*%
%TO.N,Net-(J14-Pad3)*%
X136180001Y-61305001D03*
%TO.P,RGB2,3,RK*%
%TO.N,Net-(J14-Pad4)*%
X136180001Y-62755001D03*
%TO.P,RGB2,4,A*%
%TO.N,Net-(J13-Pad4)*%
X130980001Y-62755001D03*
%TD*%
D15*
%TO.N,Net-(J13-Pad1)*%
X124395001Y-55905001D02*
X124300001Y-55810001D01*
X130980001Y-55905001D02*
X124395001Y-55905001D01*
%TO.N,Net-(J13-Pad2)*%
X125295001Y-57355001D02*
X124300001Y-58350001D01*
X130980001Y-57355001D02*
X125295001Y-57355001D01*
%TO.N,Net-(J13-Pad3)*%
X124715001Y-61305001D02*
X124300001Y-60890001D01*
X130980001Y-61305001D02*
X124715001Y-61305001D01*
%TO.N,Net-(J13-Pad4)*%
X124975001Y-62755001D02*
X124300001Y-63430001D01*
X130980001Y-62755001D02*
X124975001Y-62755001D01*
%TO.N,Net-(J13-Pad5)*%
X125035001Y-66705001D02*
X124300001Y-65970001D01*
X130980001Y-66705001D02*
X125035001Y-66705001D01*
%TO.N,Net-(J13-Pad6)*%
X124655001Y-68155001D02*
X124300001Y-68510001D01*
X130980001Y-68155001D02*
X124655001Y-68155001D01*
%TO.N,Net-(J13-Pad7)*%
X125355001Y-72105001D02*
X124300001Y-71050001D01*
X130980001Y-72105001D02*
X125355001Y-72105001D01*
%TO.N,Net-(J13-Pad8)*%
X124335001Y-73555001D02*
X124300001Y-73590001D01*
X130980001Y-73555001D02*
X124335001Y-73555001D01*
%TO.N,Net-(J14-Pad1)*%
X136180001Y-55905001D02*
X141985001Y-55905001D01*
X141985001Y-55905001D02*
X142080001Y-55810001D01*
%TO.N,Net-(J14-Pad2)*%
X141085001Y-57355001D02*
X142080001Y-58350001D01*
X136180001Y-57355001D02*
X141085001Y-57355001D01*
%TO.N,Net-(J14-Pad3)*%
X141665001Y-61305001D02*
X142080001Y-60890001D01*
X136180001Y-61305001D02*
X141665001Y-61305001D01*
%TO.N,Net-(J14-Pad4)*%
X136180001Y-62755001D02*
X141405001Y-62755001D01*
X141405001Y-62755001D02*
X142080001Y-63430001D01*
%TO.N,Net-(J14-Pad5)*%
X136180001Y-66705001D02*
X141345001Y-66705001D01*
X141345001Y-66705001D02*
X142080001Y-65970001D01*
%TO.N,Net-(J14-Pad6)*%
X141725001Y-68155001D02*
X142080001Y-68510001D01*
X136180001Y-68155001D02*
X141725001Y-68155001D01*
%TO.N,Net-(J14-Pad7)*%
X136180001Y-72105001D02*
X141025001Y-72105001D01*
X141025001Y-72105001D02*
X142080001Y-71050001D01*
%TO.N,Net-(J14-Pad8)*%
X136180001Y-73555001D02*
X142045001Y-73555001D01*
X142045001Y-73555001D02*
X142080001Y-73590001D01*
%TD*%
%TA.AperFunction,Conductor*%
%TO.N,GND_2*%
G36*
X142050059Y-23979499D02*
G01*
X142064860Y-23981804D01*
X142064863Y-23981804D01*
X142073732Y-23983185D01*
X142090001Y-23981058D01*
X142114569Y-23980265D01*
X142336987Y-23994843D01*
X142353328Y-23996994D01*
X142597826Y-24045628D01*
X142613745Y-24049894D01*
X142849792Y-24130021D01*
X142865019Y-24136328D01*
X143088594Y-24246583D01*
X143102867Y-24254824D01*
X143310135Y-24393315D01*
X143323212Y-24403348D01*
X143510634Y-24567713D01*
X143522288Y-24579367D01*
X143686653Y-24766789D01*
X143696686Y-24779866D01*
X143835177Y-24987134D01*
X143843418Y-25001407D01*
X143953673Y-25224982D01*
X143959980Y-25240209D01*
X144040107Y-25476256D01*
X144044373Y-25492175D01*
X144093007Y-25736672D01*
X144095158Y-25753013D01*
X144109266Y-25968267D01*
X144108241Y-25991303D01*
X144108198Y-25994853D01*
X144106816Y-26003729D01*
X144108456Y-26016269D01*
X144110938Y-26035250D01*
X144112002Y-26051588D01*
X144112002Y-43740671D01*
X144110502Y-43760055D01*
X144106816Y-43783729D01*
X144108943Y-43799998D01*
X144109736Y-43824566D01*
X144095158Y-44046984D01*
X144093007Y-44063325D01*
X144044373Y-44307823D01*
X144040107Y-44323742D01*
X143959980Y-44559789D01*
X143953673Y-44575016D01*
X143843418Y-44798591D01*
X143835177Y-44812864D01*
X143696686Y-45020132D01*
X143686656Y-45033205D01*
X143585985Y-45147999D01*
X143522288Y-45220631D01*
X143510634Y-45232285D01*
X143323208Y-45396653D01*
X143310135Y-45406683D01*
X143102867Y-45545174D01*
X143088594Y-45553415D01*
X142865019Y-45663670D01*
X142849792Y-45669977D01*
X142613745Y-45750104D01*
X142597826Y-45754370D01*
X142353329Y-45803004D01*
X142336988Y-45805155D01*
X142121734Y-45819263D01*
X142098698Y-45818238D01*
X142095148Y-45818195D01*
X142086272Y-45816813D01*
X142056349Y-45820726D01*
X142054751Y-45820935D01*
X142038413Y-45821999D01*
X138239270Y-45821999D01*
X138171149Y-45801997D01*
X138124656Y-45748341D01*
X138114552Y-45678067D01*
X138142747Y-45615010D01*
X138216156Y-45527525D01*
X138219123Y-45522127D01*
X138219127Y-45522122D01*
X138308469Y-45359607D01*
X138311435Y-45354212D01*
X138313848Y-45346607D01*
X138369375Y-45171563D01*
X138369375Y-45171562D01*
X138371237Y-45165693D01*
X138388502Y-45011772D01*
X138388502Y-44305230D01*
X138387816Y-44298226D01*
X138382465Y-44243659D01*
X138374082Y-44158166D01*
X138316918Y-43968830D01*
X138224068Y-43794203D01*
X138193476Y-43756694D01*
X140717253Y-43756694D01*
X140717550Y-43761847D01*
X140717550Y-43761850D01*
X140723013Y-43856589D01*
X140730112Y-43979714D01*
X140731249Y-43984760D01*
X140731250Y-43984766D01*
X140745608Y-44048474D01*
X140779224Y-44197638D01*
X140863268Y-44404615D01*
X140865967Y-44409019D01*
X140967690Y-44575016D01*
X140979989Y-44595087D01*
X141126252Y-44763937D01*
X141298128Y-44906631D01*
X141491002Y-45019337D01*
X141495827Y-45021179D01*
X141495828Y-45021180D01*
X141568614Y-45048974D01*
X141699694Y-45099029D01*
X141704762Y-45100060D01*
X141704765Y-45100061D01*
X141812019Y-45121882D01*
X141918599Y-45143566D01*
X141923774Y-45143756D01*
X141923776Y-45143756D01*
X142136675Y-45151563D01*
X142136679Y-45151563D01*
X142141839Y-45151752D01*
X142146959Y-45151096D01*
X142146961Y-45151096D01*
X142358290Y-45124024D01*
X142358291Y-45124024D01*
X142363418Y-45123367D01*
X142368368Y-45121882D01*
X142572431Y-45060660D01*
X142572436Y-45060658D01*
X142577386Y-45059173D01*
X142777996Y-44960895D01*
X142959862Y-44831172D01*
X143118098Y-44673488D01*
X143177596Y-44590688D01*
X143245437Y-44496276D01*
X143248455Y-44492076D01*
X143281812Y-44424584D01*
X143345138Y-44296452D01*
X143345139Y-44296450D01*
X143347432Y-44291810D01*
X143389830Y-44152263D01*
X143410867Y-44083022D01*
X143410867Y-44083020D01*
X143412372Y-44078068D01*
X143441531Y-43856589D01*
X143441613Y-43853239D01*
X143443076Y-43793364D01*
X143443076Y-43793360D01*
X143443158Y-43789999D01*
X143424854Y-43567360D01*
X143370433Y-43350701D01*
X143281356Y-43145839D01*
X143160016Y-42958276D01*
X143009672Y-42793050D01*
X143005621Y-42789851D01*
X143005617Y-42789847D01*
X142838416Y-42657799D01*
X142838412Y-42657797D01*
X142834361Y-42654597D01*
X142793055Y-42631795D01*
X142743086Y-42581363D01*
X142728314Y-42511920D01*
X142753430Y-42445515D01*
X142780782Y-42418908D01*
X142824605Y-42387649D01*
X142959862Y-42291172D01*
X142984325Y-42266795D01*
X143114437Y-42137136D01*
X143118098Y-42133488D01*
X143177596Y-42050688D01*
X143245437Y-41956276D01*
X143248455Y-41952076D01*
X143293369Y-41861200D01*
X143345138Y-41756452D01*
X143345139Y-41756450D01*
X143347432Y-41751810D01*
X143397871Y-41585795D01*
X143410867Y-41543022D01*
X143410867Y-41543020D01*
X143412372Y-41538068D01*
X143441531Y-41316589D01*
X143443158Y-41249999D01*
X143424854Y-41027360D01*
X143370433Y-40810701D01*
X143281356Y-40605839D01*
X143232906Y-40530946D01*
X143162824Y-40422616D01*
X143162822Y-40422613D01*
X143160016Y-40418276D01*
X143009672Y-40253050D01*
X143005621Y-40249851D01*
X143005617Y-40249847D01*
X142838416Y-40117799D01*
X142838412Y-40117797D01*
X142834361Y-40114597D01*
X142792571Y-40091528D01*
X142742600Y-40041096D01*
X142727828Y-39971653D01*
X142752944Y-39905247D01*
X142780296Y-39878640D01*
X142955330Y-39753791D01*
X142963202Y-39747138D01*
X143114054Y-39596811D01*
X143120732Y-39588964D01*
X143245005Y-39416019D01*
X143250315Y-39407182D01*
X143344672Y-39216266D01*
X143348471Y-39206671D01*
X143410379Y-39002909D01*
X143412557Y-38992836D01*
X143413988Y-38981961D01*
X143411777Y-38967777D01*
X143398619Y-38963999D01*
X140763227Y-38963999D01*
X140749696Y-38967972D01*
X140748259Y-38977965D01*
X140778567Y-39112445D01*
X140781647Y-39122274D01*
X140861772Y-39319602D01*
X140866415Y-39328793D01*
X140977696Y-39510387D01*
X140983779Y-39518698D01*
X141123215Y-39679666D01*
X141130582Y-39686882D01*
X141294436Y-39822915D01*
X141302883Y-39828830D01*
X141371971Y-39869202D01*
X141420695Y-39920841D01*
X141433766Y-39990624D01*
X141407035Y-40056395D01*
X141366586Y-40089751D01*
X141353609Y-40096506D01*
X141349476Y-40099609D01*
X141349473Y-40099611D01*
X141200484Y-40211475D01*
X141174967Y-40230634D01*
X141020631Y-40392137D01*
X141017717Y-40396409D01*
X141017716Y-40396410D01*
X141005406Y-40414456D01*
X140894745Y-40576679D01*
X140800690Y-40779304D01*
X140740991Y-40994569D01*
X140717253Y-41216694D01*
X140717550Y-41221847D01*
X140717550Y-41221850D01*
X140722843Y-41313640D01*
X140730112Y-41439714D01*
X140731249Y-41444760D01*
X140731250Y-41444766D01*
X140738977Y-41479052D01*
X140779224Y-41657638D01*
X140816335Y-41749031D01*
X140852538Y-41838189D01*
X140863268Y-41864615D01*
X140865967Y-41869019D01*
X140958751Y-42020429D01*
X140979989Y-42055087D01*
X141126252Y-42223937D01*
X141298128Y-42366631D01*
X141359862Y-42402705D01*
X141371447Y-42409475D01*
X141420171Y-42461113D01*
X141433242Y-42530896D01*
X141406511Y-42596668D01*
X141366057Y-42630026D01*
X141353609Y-42636506D01*
X141349476Y-42639609D01*
X141349473Y-42639611D01*
X141266452Y-42701945D01*
X141174967Y-42770634D01*
X141020631Y-42932137D01*
X140894745Y-43116679D01*
X140800690Y-43319304D01*
X140740991Y-43534569D01*
X140717253Y-43756694D01*
X138193476Y-43756694D01*
X138153711Y-43707937D01*
X138102962Y-43645712D01*
X138102959Y-43645709D01*
X138099067Y-43640937D01*
X138092726Y-43635691D01*
X137951427Y-43518798D01*
X137951423Y-43518796D01*
X137946677Y-43514869D01*
X137772703Y-43420801D01*
X137583770Y-43362317D01*
X137577645Y-43361673D01*
X137577644Y-43361673D01*
X137393206Y-43342288D01*
X137393204Y-43342288D01*
X137387077Y-43341644D01*
X137304578Y-43349152D01*
X137196253Y-43359010D01*
X137196250Y-43359011D01*
X137190114Y-43359569D01*
X137184208Y-43361307D01*
X137184204Y-43361308D01*
X137079078Y-43392248D01*
X137000383Y-43415409D01*
X136994925Y-43418262D01*
X136994921Y-43418264D01*
X136904149Y-43465719D01*
X136825112Y-43507039D01*
X136670977Y-43630967D01*
X136543848Y-43782473D01*
X136540881Y-43787871D01*
X136540877Y-43787876D01*
X136462097Y-43931179D01*
X136448569Y-43955786D01*
X136446708Y-43961653D01*
X136446707Y-43961655D01*
X136414455Y-44063325D01*
X136388767Y-44144305D01*
X136371502Y-44298226D01*
X136371502Y-45004768D01*
X136371802Y-45007824D01*
X136371802Y-45007831D01*
X136374117Y-45031435D01*
X136385922Y-45151832D01*
X136443086Y-45341168D01*
X136535936Y-45515795D01*
X136591585Y-45584027D01*
X136624093Y-45623886D01*
X136651647Y-45689318D01*
X136639452Y-45759259D01*
X136591379Y-45811504D01*
X136535439Y-45829201D01*
X136479328Y-45833214D01*
X136479326Y-45833214D01*
X136474842Y-45833535D01*
X136341738Y-45862490D01*
X136268452Y-45878432D01*
X136268449Y-45878433D01*
X136264063Y-45879387D01*
X136259861Y-45880954D01*
X136259855Y-45880956D01*
X136089045Y-45944666D01*
X136061955Y-45954770D01*
X136051176Y-45960656D01*
X136024503Y-45975220D01*
X135955128Y-45990311D01*
X135888608Y-45965500D01*
X135882537Y-45960656D01*
X135878150Y-45956929D01*
X135863716Y-45944666D01*
X135734006Y-45878432D01*
X135712709Y-45867557D01*
X135712707Y-45867556D01*
X135706193Y-45864230D01*
X135699088Y-45862491D01*
X135699084Y-45862490D01*
X135594163Y-45836817D01*
X135534391Y-45822191D01*
X135528789Y-45821843D01*
X135528786Y-45821843D01*
X135525176Y-45821619D01*
X135525166Y-45821619D01*
X135523237Y-45821499D01*
X135395708Y-45821499D01*
X135329645Y-45829201D01*
X135271590Y-45835969D01*
X135271586Y-45835970D01*
X135264320Y-45836817D01*
X135257445Y-45839312D01*
X135257443Y-45839313D01*
X135104339Y-45894888D01*
X135033481Y-45899329D01*
X135004045Y-45888665D01*
X134962713Y-45867559D01*
X134962708Y-45867557D01*
X134956193Y-45864230D01*
X134784391Y-45822191D01*
X134778789Y-45821843D01*
X134778786Y-45821843D01*
X134775176Y-45821619D01*
X134775166Y-45821619D01*
X134773237Y-45821499D01*
X134645708Y-45821499D01*
X134579645Y-45829201D01*
X134521590Y-45835969D01*
X134521586Y-45835970D01*
X134514320Y-45836817D01*
X134507445Y-45839312D01*
X134507443Y-45839313D01*
X134354339Y-45894888D01*
X134283481Y-45899329D01*
X134254045Y-45888665D01*
X134212713Y-45867559D01*
X134212708Y-45867557D01*
X134206193Y-45864230D01*
X134034391Y-45822191D01*
X134028789Y-45821843D01*
X134028786Y-45821843D01*
X134025176Y-45821619D01*
X134025166Y-45821619D01*
X134023237Y-45821499D01*
X133895708Y-45821499D01*
X133829645Y-45829201D01*
X133771590Y-45835969D01*
X133771586Y-45835970D01*
X133764320Y-45836817D01*
X133757445Y-45839312D01*
X133757443Y-45839313D01*
X133604339Y-45894888D01*
X133533481Y-45899329D01*
X133504045Y-45888665D01*
X133462713Y-45867559D01*
X133462708Y-45867557D01*
X133456193Y-45864230D01*
X133284391Y-45822191D01*
X133278789Y-45821843D01*
X133278786Y-45821843D01*
X133275176Y-45821619D01*
X133275166Y-45821619D01*
X133273237Y-45821499D01*
X133145708Y-45821499D01*
X133079645Y-45829201D01*
X133021590Y-45835969D01*
X133021586Y-45835970D01*
X133014320Y-45836817D01*
X133007445Y-45839312D01*
X133007443Y-45839313D01*
X132854339Y-45894888D01*
X132783481Y-45899329D01*
X132754045Y-45888665D01*
X132712713Y-45867559D01*
X132712708Y-45867557D01*
X132706193Y-45864230D01*
X132534391Y-45822191D01*
X132528789Y-45821843D01*
X132528786Y-45821843D01*
X132525176Y-45821619D01*
X132525166Y-45821619D01*
X132523237Y-45821499D01*
X132395708Y-45821499D01*
X132329645Y-45829201D01*
X132271590Y-45835969D01*
X132271586Y-45835970D01*
X132264320Y-45836817D01*
X132257445Y-45839312D01*
X132257443Y-45839313D01*
X132104339Y-45894888D01*
X132033481Y-45899329D01*
X132004045Y-45888665D01*
X131962713Y-45867559D01*
X131962708Y-45867557D01*
X131956193Y-45864230D01*
X131784391Y-45822191D01*
X131778789Y-45821843D01*
X131778786Y-45821843D01*
X131775176Y-45821619D01*
X131775166Y-45821619D01*
X131773237Y-45821499D01*
X131645708Y-45821499D01*
X131579645Y-45829201D01*
X131521590Y-45835969D01*
X131521586Y-45835970D01*
X131514320Y-45836817D01*
X131507445Y-45839312D01*
X131507443Y-45839313D01*
X131354339Y-45894888D01*
X131283481Y-45899329D01*
X131254045Y-45888665D01*
X131212713Y-45867559D01*
X131212708Y-45867557D01*
X131206193Y-45864230D01*
X131034391Y-45822191D01*
X131028789Y-45821843D01*
X131028786Y-45821843D01*
X131025176Y-45821619D01*
X131025166Y-45821619D01*
X131023237Y-45821499D01*
X130895708Y-45821499D01*
X130829645Y-45829201D01*
X130771590Y-45835969D01*
X130771586Y-45835970D01*
X130764320Y-45836817D01*
X130757445Y-45839312D01*
X130757443Y-45839313D01*
X130642721Y-45880956D01*
X130598064Y-45897166D01*
X130591947Y-45901177D01*
X130591940Y-45901180D01*
X130486058Y-45970599D01*
X130418123Y-45991222D01*
X130356590Y-45975815D01*
X130322001Y-45956929D01*
X130318047Y-45954770D01*
X130290957Y-45944666D01*
X130120147Y-45880956D01*
X130120141Y-45880954D01*
X130115939Y-45879387D01*
X130111553Y-45878433D01*
X130111550Y-45878432D01*
X129920247Y-45836817D01*
X129905160Y-45833535D01*
X129900672Y-45833214D01*
X129730404Y-45821036D01*
X129718493Y-45819612D01*
X129702539Y-45816928D01*
X129696184Y-45816850D01*
X129694859Y-45816834D01*
X129694855Y-45816834D01*
X129690000Y-45816775D01*
X129663990Y-45820500D01*
X129662412Y-45820726D01*
X129644549Y-45821999D01*
X129599270Y-45821999D01*
X129531149Y-45801997D01*
X129484656Y-45748341D01*
X129474552Y-45678067D01*
X129502747Y-45615010D01*
X129576156Y-45527525D01*
X129579123Y-45522127D01*
X129579127Y-45522122D01*
X129668469Y-45359607D01*
X129671435Y-45354212D01*
X129673848Y-45346607D01*
X129729375Y-45171563D01*
X129729375Y-45171562D01*
X129731237Y-45165693D01*
X129748502Y-45011772D01*
X129748502Y-44305230D01*
X129747816Y-44298226D01*
X129742465Y-44243659D01*
X129734082Y-44158166D01*
X129676918Y-43968830D01*
X129584068Y-43794203D01*
X129513711Y-43707937D01*
X129462962Y-43645712D01*
X129462959Y-43645709D01*
X129459067Y-43640937D01*
X129452726Y-43635691D01*
X129311427Y-43518798D01*
X129311423Y-43518796D01*
X129306677Y-43514869D01*
X129132703Y-43420801D01*
X128943770Y-43362317D01*
X128937645Y-43361673D01*
X128937644Y-43361673D01*
X128753206Y-43342288D01*
X128753204Y-43342288D01*
X128747077Y-43341644D01*
X128664578Y-43349152D01*
X128556253Y-43359010D01*
X128556250Y-43359011D01*
X128550114Y-43359569D01*
X128544208Y-43361307D01*
X128544204Y-43361308D01*
X128439078Y-43392248D01*
X128360383Y-43415409D01*
X128354925Y-43418262D01*
X128354921Y-43418264D01*
X128264149Y-43465719D01*
X128185112Y-43507039D01*
X128030977Y-43630967D01*
X127903848Y-43782473D01*
X127900881Y-43787871D01*
X127900877Y-43787876D01*
X127822097Y-43931179D01*
X127808569Y-43955786D01*
X127806708Y-43961653D01*
X127806707Y-43961655D01*
X127774455Y-44063325D01*
X127748767Y-44144305D01*
X127731502Y-44298226D01*
X127731502Y-45004768D01*
X127731802Y-45007824D01*
X127731802Y-45007831D01*
X127734117Y-45031435D01*
X127745922Y-45151832D01*
X127803086Y-45341168D01*
X127895936Y-45515795D01*
X127977959Y-45616364D01*
X128005512Y-45681794D01*
X127993317Y-45751736D01*
X127945245Y-45803981D01*
X127880315Y-45821999D01*
X124447016Y-45822000D01*
X124349329Y-45822000D01*
X124329944Y-45820500D01*
X124315143Y-45818195D01*
X124315140Y-45818195D01*
X124306271Y-45816814D01*
X124290002Y-45818941D01*
X124265434Y-45819734D01*
X124043016Y-45805156D01*
X124026675Y-45803005D01*
X123782177Y-45754371D01*
X123766258Y-45750105D01*
X123530211Y-45669978D01*
X123514984Y-45663671D01*
X123291409Y-45553416D01*
X123277136Y-45545175D01*
X123069868Y-45406684D01*
X123056791Y-45396651D01*
X123014551Y-45359607D01*
X122869368Y-45232285D01*
X122857715Y-45220632D01*
X122797143Y-45151563D01*
X122693347Y-45033206D01*
X122683317Y-45020133D01*
X122544826Y-44812865D01*
X122536585Y-44798592D01*
X122480404Y-44684668D01*
X122942003Y-44684668D01*
X122942373Y-44691489D01*
X122947897Y-44742351D01*
X122951523Y-44757603D01*
X122996678Y-44878053D01*
X123005216Y-44893648D01*
X123081717Y-44995723D01*
X123094278Y-45008284D01*
X123196353Y-45084785D01*
X123211948Y-45093323D01*
X123332396Y-45138477D01*
X123347651Y-45142104D01*
X123398516Y-45147630D01*
X123405330Y-45147999D01*
X124027887Y-45147999D01*
X124043126Y-45143524D01*
X124044331Y-45142134D01*
X124046002Y-45134451D01*
X124046002Y-45129883D01*
X124554002Y-45129883D01*
X124558477Y-45145122D01*
X124559867Y-45146327D01*
X124567550Y-45147998D01*
X125194671Y-45147998D01*
X125201492Y-45147628D01*
X125252354Y-45142104D01*
X125267606Y-45138478D01*
X125388056Y-45093323D01*
X125403651Y-45084785D01*
X125505726Y-45008284D01*
X125518287Y-44995723D01*
X125594788Y-44893648D01*
X125603326Y-44878053D01*
X125648480Y-44757605D01*
X125652107Y-44742350D01*
X125657633Y-44691485D01*
X125658002Y-44684671D01*
X125658002Y-44062114D01*
X125653527Y-44046875D01*
X125652137Y-44045670D01*
X125644454Y-44043999D01*
X124572117Y-44043999D01*
X124556878Y-44048474D01*
X124555673Y-44049864D01*
X124554002Y-44057547D01*
X124554002Y-45129883D01*
X124046002Y-45129883D01*
X124046002Y-44062114D01*
X124041527Y-44046875D01*
X124040137Y-44045670D01*
X124032454Y-44043999D01*
X122960118Y-44043999D01*
X122944879Y-44048474D01*
X122943674Y-44049864D01*
X122942003Y-44057547D01*
X122942003Y-44684668D01*
X122480404Y-44684668D01*
X122426330Y-44575017D01*
X122420023Y-44559790D01*
X122339896Y-44323743D01*
X122335630Y-44307824D01*
X122286996Y-44063327D01*
X122284845Y-44046986D01*
X122270737Y-43831732D01*
X122271762Y-43808696D01*
X122271805Y-43805146D01*
X122273187Y-43796270D01*
X122269065Y-43764748D01*
X122268001Y-43748411D01*
X122268001Y-41216694D01*
X122937253Y-41216694D01*
X122937550Y-41221847D01*
X122937550Y-41221850D01*
X122942843Y-41313640D01*
X122950112Y-41439714D01*
X122951249Y-41444760D01*
X122951250Y-41444766D01*
X122958977Y-41479052D01*
X122999224Y-41657638D01*
X123036335Y-41749031D01*
X123072538Y-41838189D01*
X123083268Y-41864615D01*
X123085967Y-41869019D01*
X123178751Y-42020429D01*
X123199989Y-42055087D01*
X123346252Y-42223937D01*
X123350227Y-42227237D01*
X123350233Y-42227243D01*
X123355427Y-42231555D01*
X123395061Y-42290459D01*
X123396557Y-42361440D01*
X123359441Y-42421961D01*
X123319170Y-42446479D01*
X123211948Y-42486675D01*
X123196353Y-42495213D01*
X123094278Y-42571714D01*
X123081717Y-42584275D01*
X123005216Y-42686350D01*
X122996678Y-42701945D01*
X122951524Y-42822393D01*
X122947897Y-42837648D01*
X122942371Y-42888513D01*
X122942002Y-42895327D01*
X122942002Y-43517884D01*
X122946477Y-43533123D01*
X122947867Y-43534328D01*
X122955550Y-43535999D01*
X125639886Y-43535999D01*
X125655125Y-43531524D01*
X125656330Y-43530134D01*
X125658001Y-43522451D01*
X125658001Y-42895330D01*
X125657631Y-42888509D01*
X125652107Y-42837647D01*
X125648481Y-42822395D01*
X125603326Y-42701945D01*
X125594788Y-42686350D01*
X125518287Y-42584275D01*
X125505726Y-42571714D01*
X125403651Y-42495213D01*
X125388056Y-42486675D01*
X125277815Y-42445347D01*
X125221051Y-42402705D01*
X125196351Y-42336144D01*
X125211559Y-42266795D01*
X125233106Y-42238114D01*
X125334432Y-42137143D01*
X125334442Y-42137131D01*
X125338098Y-42133488D01*
X125397596Y-42050688D01*
X125465437Y-41956276D01*
X125468455Y-41952076D01*
X125513369Y-41861200D01*
X125565138Y-41756452D01*
X125565139Y-41756450D01*
X125567432Y-41751810D01*
X125617871Y-41585795D01*
X125630867Y-41543022D01*
X125630867Y-41543020D01*
X125632372Y-41538068D01*
X125661531Y-41316589D01*
X125663158Y-41249999D01*
X125648752Y-41074768D01*
X127731502Y-41074768D01*
X127731802Y-41077824D01*
X127731802Y-41077831D01*
X127732532Y-41085272D01*
X127745922Y-41221832D01*
X127803086Y-41411168D01*
X127895936Y-41585795D01*
X127950417Y-41652595D01*
X128017042Y-41734286D01*
X128017045Y-41734289D01*
X128020937Y-41739061D01*
X128025684Y-41742988D01*
X128025686Y-41742990D01*
X128168577Y-41861200D01*
X128168581Y-41861202D01*
X128173327Y-41865129D01*
X128347301Y-41959197D01*
X128536234Y-42017681D01*
X128542359Y-42018325D01*
X128542360Y-42018325D01*
X128726798Y-42037710D01*
X128726800Y-42037710D01*
X128732927Y-42038354D01*
X128815426Y-42030846D01*
X128923751Y-42020988D01*
X128923754Y-42020987D01*
X128929890Y-42020429D01*
X128935796Y-42018691D01*
X128935800Y-42018690D01*
X129040926Y-41987750D01*
X129119621Y-41964589D01*
X129125079Y-41961736D01*
X129125083Y-41961734D01*
X129215855Y-41914279D01*
X129294892Y-41872959D01*
X129449027Y-41749031D01*
X129497402Y-41691380D01*
X129556509Y-41652055D01*
X129627496Y-41650929D01*
X129670450Y-41672277D01*
X129730259Y-41718005D01*
X129730263Y-41718008D01*
X129735680Y-41722149D01*
X129822374Y-41762575D01*
X129893633Y-41795804D01*
X129893636Y-41795805D01*
X129899810Y-41798684D01*
X129906458Y-41800170D01*
X129906461Y-41800171D01*
X130012423Y-41823856D01*
X130076545Y-41838189D01*
X130082090Y-41838499D01*
X130215246Y-41838499D01*
X130350039Y-41823856D01*
X130468192Y-41784093D01*
X130515206Y-41768271D01*
X130515208Y-41768270D01*
X130521677Y-41766093D01*
X130676907Y-41672822D01*
X130681864Y-41668134D01*
X130681867Y-41668132D01*
X130803529Y-41553081D01*
X130803531Y-41553079D01*
X130808487Y-41548392D01*
X130812319Y-41542754D01*
X130812322Y-41542750D01*
X130906444Y-41404254D01*
X130910279Y-41398611D01*
X130977532Y-41230465D01*
X130978646Y-41223737D01*
X130978647Y-41223733D01*
X131005995Y-41058538D01*
X131005995Y-41058535D01*
X131007110Y-41051801D01*
X131005830Y-41027360D01*
X131002205Y-40958197D01*
X135112894Y-40958197D01*
X135113251Y-40965014D01*
X135113251Y-40965018D01*
X135118153Y-41058538D01*
X135122372Y-41139046D01*
X135124183Y-41145619D01*
X135124183Y-41145622D01*
X135152933Y-41249999D01*
X135170463Y-41313640D01*
X135254924Y-41473835D01*
X135259329Y-41479048D01*
X135259332Y-41479052D01*
X135367408Y-41606942D01*
X135367412Y-41606946D01*
X135371815Y-41612156D01*
X135377239Y-41616303D01*
X135377240Y-41616304D01*
X135510259Y-41718005D01*
X135510263Y-41718008D01*
X135515680Y-41722149D01*
X135602374Y-41762575D01*
X135673633Y-41795804D01*
X135673636Y-41795805D01*
X135679810Y-41798684D01*
X135686458Y-41800170D01*
X135686461Y-41800171D01*
X135792423Y-41823856D01*
X135856545Y-41838189D01*
X135862090Y-41838499D01*
X135995246Y-41838499D01*
X136130039Y-41823856D01*
X136248192Y-41784093D01*
X136295206Y-41768271D01*
X136295208Y-41768270D01*
X136301677Y-41766093D01*
X136456907Y-41672822D01*
X136457331Y-41673527D01*
X136518522Y-41650237D01*
X136587995Y-41664864D01*
X136625994Y-41696217D01*
X136660937Y-41739061D01*
X136665684Y-41742988D01*
X136665686Y-41742990D01*
X136808577Y-41861200D01*
X136808581Y-41861202D01*
X136813327Y-41865129D01*
X136987301Y-41959197D01*
X137176234Y-42017681D01*
X137182359Y-42018325D01*
X137182360Y-42018325D01*
X137366798Y-42037710D01*
X137366800Y-42037710D01*
X137372927Y-42038354D01*
X137455426Y-42030846D01*
X137563751Y-42020988D01*
X137563754Y-42020987D01*
X137569890Y-42020429D01*
X137575796Y-42018691D01*
X137575800Y-42018690D01*
X137680926Y-41987750D01*
X137759621Y-41964589D01*
X137765079Y-41961736D01*
X137765083Y-41961734D01*
X137855855Y-41914279D01*
X137934892Y-41872959D01*
X138089027Y-41749031D01*
X138216156Y-41597525D01*
X138219123Y-41592127D01*
X138219127Y-41592122D01*
X138308469Y-41429607D01*
X138311435Y-41424212D01*
X138313848Y-41416607D01*
X138369375Y-41241563D01*
X138369375Y-41241562D01*
X138371237Y-41235693D01*
X138388502Y-41081772D01*
X138388502Y-39875230D01*
X138387816Y-39868226D01*
X138382465Y-39813659D01*
X138374082Y-39728166D01*
X138361726Y-39687239D01*
X138350164Y-39648946D01*
X138316918Y-39538830D01*
X138224068Y-39364203D01*
X138153711Y-39277937D01*
X138102962Y-39215712D01*
X138102959Y-39215709D01*
X138099067Y-39210937D01*
X138094134Y-39206856D01*
X137951427Y-39088798D01*
X137951423Y-39088796D01*
X137946677Y-39084869D01*
X137772703Y-38990801D01*
X137583770Y-38932317D01*
X137577645Y-38931673D01*
X137577644Y-38931673D01*
X137393206Y-38912288D01*
X137393204Y-38912288D01*
X137387077Y-38911644D01*
X137304578Y-38919152D01*
X137196253Y-38929010D01*
X137196250Y-38929011D01*
X137190114Y-38929569D01*
X137184208Y-38931307D01*
X137184204Y-38931308D01*
X137079078Y-38962248D01*
X137000383Y-38985409D01*
X136994925Y-38988262D01*
X136994921Y-38988264D01*
X136904149Y-39035719D01*
X136825112Y-39077039D01*
X136670977Y-39200967D01*
X136667013Y-39205691D01*
X136651931Y-39223665D01*
X136543848Y-39352473D01*
X136540881Y-39357871D01*
X136540877Y-39357876D01*
X136508772Y-39416276D01*
X136448569Y-39525786D01*
X136446708Y-39531653D01*
X136446707Y-39531655D01*
X136426038Y-39596811D01*
X136388767Y-39714305D01*
X136371502Y-39868226D01*
X136371502Y-40087861D01*
X136351500Y-40155982D01*
X136297844Y-40202475D01*
X136227570Y-40212579D01*
X136218016Y-40210827D01*
X136048496Y-40172935D01*
X136048497Y-40172935D01*
X136043459Y-40171809D01*
X136037914Y-40171499D01*
X135904758Y-40171499D01*
X135769965Y-40186142D01*
X135651812Y-40225905D01*
X135604798Y-40241727D01*
X135604796Y-40241728D01*
X135598327Y-40243905D01*
X135443097Y-40337176D01*
X135438140Y-40341864D01*
X135438137Y-40341866D01*
X135352747Y-40422616D01*
X135311517Y-40461606D01*
X135307685Y-40467244D01*
X135307682Y-40467248D01*
X135256742Y-40542204D01*
X135209725Y-40611387D01*
X135142472Y-40779533D01*
X135141358Y-40786261D01*
X135141357Y-40786265D01*
X135114009Y-40951460D01*
X135112894Y-40958197D01*
X131002205Y-40958197D01*
X130997989Y-40877765D01*
X130997632Y-40870952D01*
X130982419Y-40815719D01*
X130951354Y-40702940D01*
X130949541Y-40696358D01*
X130865080Y-40536163D01*
X130860675Y-40530950D01*
X130860672Y-40530946D01*
X130752596Y-40403056D01*
X130752592Y-40403052D01*
X130748189Y-40397842D01*
X130742764Y-40393694D01*
X130609745Y-40291993D01*
X130609741Y-40291990D01*
X130604324Y-40287849D01*
X130481626Y-40230634D01*
X130446371Y-40214194D01*
X130446368Y-40214193D01*
X130440194Y-40211314D01*
X130433546Y-40209828D01*
X130433543Y-40209827D01*
X130268496Y-40172935D01*
X130268497Y-40172935D01*
X130263459Y-40171809D01*
X130257914Y-40171499D01*
X130124758Y-40171499D01*
X129989965Y-40186142D01*
X129914690Y-40211475D01*
X129843749Y-40214245D01*
X129782570Y-40178222D01*
X129750579Y-40114841D01*
X129748502Y-40092056D01*
X129748502Y-39875230D01*
X129747816Y-39868226D01*
X129742465Y-39813659D01*
X129734082Y-39728166D01*
X129721726Y-39687239D01*
X129710164Y-39648946D01*
X129676918Y-39538830D01*
X129584068Y-39364203D01*
X129513711Y-39277937D01*
X129462962Y-39215712D01*
X129462959Y-39215709D01*
X129459067Y-39210937D01*
X129454134Y-39206856D01*
X129311427Y-39088798D01*
X129311423Y-39088796D01*
X129306677Y-39084869D01*
X129132703Y-38990801D01*
X128943770Y-38932317D01*
X128937645Y-38931673D01*
X128937644Y-38931673D01*
X128753206Y-38912288D01*
X128753204Y-38912288D01*
X128747077Y-38911644D01*
X128664578Y-38919152D01*
X128556253Y-38929010D01*
X128556250Y-38929011D01*
X128550114Y-38929569D01*
X128544208Y-38931307D01*
X128544204Y-38931308D01*
X128439078Y-38962248D01*
X128360383Y-38985409D01*
X128354925Y-38988262D01*
X128354921Y-38988264D01*
X128264149Y-39035719D01*
X128185112Y-39077039D01*
X128030977Y-39200967D01*
X128027013Y-39205691D01*
X128011931Y-39223665D01*
X127903848Y-39352473D01*
X127900881Y-39357871D01*
X127900877Y-39357876D01*
X127868772Y-39416276D01*
X127808569Y-39525786D01*
X127806708Y-39531653D01*
X127806707Y-39531655D01*
X127786038Y-39596811D01*
X127748767Y-39714305D01*
X127731502Y-39868226D01*
X127731502Y-41074768D01*
X125648752Y-41074768D01*
X125644854Y-41027360D01*
X125590433Y-40810701D01*
X125501356Y-40605839D01*
X125452906Y-40530946D01*
X125382824Y-40422616D01*
X125382822Y-40422613D01*
X125380016Y-40418276D01*
X125229672Y-40253050D01*
X125225621Y-40249851D01*
X125225617Y-40249847D01*
X125058416Y-40117799D01*
X125058412Y-40117797D01*
X125054361Y-40114597D01*
X125013055Y-40091795D01*
X124963086Y-40041363D01*
X124948314Y-39971920D01*
X124973430Y-39905515D01*
X125000782Y-39878908D01*
X125044605Y-39847649D01*
X125179862Y-39751172D01*
X125338098Y-39593488D01*
X125397596Y-39510688D01*
X125465437Y-39416276D01*
X125468455Y-39412076D01*
X125497913Y-39352473D01*
X125565138Y-39216452D01*
X125565139Y-39216450D01*
X125567432Y-39211810D01*
X125632372Y-38998068D01*
X125661531Y-38776589D01*
X125663158Y-38709999D01*
X125644854Y-38487360D01*
X125590433Y-38270701D01*
X125501356Y-38065839D01*
X125380016Y-37878276D01*
X125229672Y-37713050D01*
X125225621Y-37709851D01*
X125225617Y-37709847D01*
X125058416Y-37577799D01*
X125058412Y-37577797D01*
X125054361Y-37574597D01*
X125013055Y-37551795D01*
X124963086Y-37501363D01*
X124948314Y-37431920D01*
X124973430Y-37365515D01*
X125000782Y-37338908D01*
X125066211Y-37292238D01*
X125179862Y-37211172D01*
X125338098Y-37053488D01*
X125397596Y-36970688D01*
X125465437Y-36876276D01*
X125468455Y-36872076D01*
X125490388Y-36827699D01*
X125565138Y-36676452D01*
X125565139Y-36676450D01*
X125567432Y-36671810D01*
X125632372Y-36458068D01*
X125661531Y-36236589D01*
X125663158Y-36169999D01*
X125660420Y-36136694D01*
X140717253Y-36136694D01*
X140717550Y-36141847D01*
X140717550Y-36141850D01*
X140723013Y-36236589D01*
X140730112Y-36359714D01*
X140731249Y-36364760D01*
X140731250Y-36364766D01*
X140731531Y-36366012D01*
X140779224Y-36577638D01*
X140817463Y-36671810D01*
X140857379Y-36770111D01*
X140863268Y-36784615D01*
X140979989Y-36975087D01*
X141126252Y-37143937D01*
X141298128Y-37286631D01*
X141371447Y-37329475D01*
X141371957Y-37329773D01*
X141420681Y-37381411D01*
X141433752Y-37451194D01*
X141407021Y-37516966D01*
X141366564Y-37550326D01*
X141358459Y-37554545D01*
X141349740Y-37560035D01*
X141179435Y-37687904D01*
X141171728Y-37694747D01*
X141024592Y-37848716D01*
X141018106Y-37856726D01*
X140898100Y-38032648D01*
X140893002Y-38041622D01*
X140803340Y-38234782D01*
X140799777Y-38244469D01*
X140744391Y-38444182D01*
X140745914Y-38452606D01*
X140758294Y-38455999D01*
X143398346Y-38455999D01*
X143411877Y-38452026D01*
X143413182Y-38442946D01*
X143371216Y-38275874D01*
X143367896Y-38266123D01*
X143282974Y-38070813D01*
X143278107Y-38061738D01*
X143162428Y-37882925D01*
X143156138Y-37874756D01*
X143012808Y-37717239D01*
X143005275Y-37710214D01*
X142838141Y-37578221D01*
X142829558Y-37572519D01*
X142792604Y-37552119D01*
X142742633Y-37501686D01*
X142727861Y-37432244D01*
X142752977Y-37365838D01*
X142780329Y-37339231D01*
X142846211Y-37292238D01*
X142959862Y-37211172D01*
X143118098Y-37053488D01*
X143177596Y-36970688D01*
X143245437Y-36876276D01*
X143248455Y-36872076D01*
X143270388Y-36827699D01*
X143345138Y-36676452D01*
X143345139Y-36676450D01*
X143347432Y-36671810D01*
X143412372Y-36458068D01*
X143441531Y-36236589D01*
X143443158Y-36169999D01*
X143424854Y-35947360D01*
X143370433Y-35730701D01*
X143281356Y-35525839D01*
X143217834Y-35427649D01*
X143162824Y-35342616D01*
X143162822Y-35342613D01*
X143160016Y-35338276D01*
X143009672Y-35173050D01*
X143005621Y-35169851D01*
X143005617Y-35169847D01*
X142838416Y-35037799D01*
X142838412Y-35037797D01*
X142834361Y-35034597D01*
X142793055Y-35011795D01*
X142743086Y-34961363D01*
X142728314Y-34891920D01*
X142753430Y-34825515D01*
X142780782Y-34798908D01*
X142828647Y-34764766D01*
X142959862Y-34671172D01*
X143118098Y-34513488D01*
X143160479Y-34454509D01*
X143245437Y-34336276D01*
X143248455Y-34332076D01*
X143347432Y-34131810D01*
X143405222Y-33941601D01*
X143410867Y-33923022D01*
X143410867Y-33923020D01*
X143412372Y-33918068D01*
X143441531Y-33696589D01*
X143443158Y-33629999D01*
X143424854Y-33407360D01*
X143370433Y-33190701D01*
X143281356Y-32985839D01*
X143160016Y-32798276D01*
X143009672Y-32633050D01*
X143005621Y-32629851D01*
X143005617Y-32629847D01*
X142838416Y-32497799D01*
X142838412Y-32497797D01*
X142834361Y-32494597D01*
X142793055Y-32471795D01*
X142743086Y-32421363D01*
X142728314Y-32351920D01*
X142753430Y-32285515D01*
X142780782Y-32258908D01*
X142824605Y-32227649D01*
X142959862Y-32131172D01*
X143118098Y-31973488D01*
X143176654Y-31891999D01*
X143245437Y-31796276D01*
X143248455Y-31792076D01*
X143320651Y-31645999D01*
X143345138Y-31596452D01*
X143345139Y-31596450D01*
X143347432Y-31591810D01*
X143412372Y-31378068D01*
X143441531Y-31156589D01*
X143443158Y-31089999D01*
X143424854Y-30867360D01*
X143370433Y-30650701D01*
X143281356Y-30445839D01*
X143160016Y-30258276D01*
X143156534Y-30254449D01*
X143012800Y-30096487D01*
X142981748Y-30032641D01*
X142990143Y-29962142D01*
X143035319Y-29907374D01*
X143061763Y-29893705D01*
X143168299Y-29853766D01*
X143176707Y-29850614D01*
X143293263Y-29763260D01*
X143380617Y-29646704D01*
X143431747Y-29510315D01*
X143438502Y-29448133D01*
X143438502Y-27651865D01*
X143431747Y-27589683D01*
X143380617Y-27453294D01*
X143293263Y-27336738D01*
X143176707Y-27249384D01*
X143040318Y-27198254D01*
X142978136Y-27191499D01*
X141181868Y-27191499D01*
X141119686Y-27198254D01*
X140983297Y-27249384D01*
X140866741Y-27336738D01*
X140779387Y-27453294D01*
X140728257Y-27589683D01*
X140721502Y-27651865D01*
X140721502Y-29448133D01*
X140728257Y-29510315D01*
X140779387Y-29646704D01*
X140866741Y-29763260D01*
X140983297Y-29850614D01*
X140991706Y-29853766D01*
X140991707Y-29853767D01*
X141100453Y-29894534D01*
X141157218Y-29937175D01*
X141181918Y-30003737D01*
X141166711Y-30073086D01*
X141147318Y-30099567D01*
X141020631Y-30232137D01*
X140894745Y-30416679D01*
X140800690Y-30619304D01*
X140740991Y-30834569D01*
X140717253Y-31056694D01*
X140717550Y-31061847D01*
X140717550Y-31061850D01*
X140723013Y-31156589D01*
X140730112Y-31279714D01*
X140731249Y-31284760D01*
X140731250Y-31284766D01*
X140746977Y-31354548D01*
X140779224Y-31497638D01*
X140863268Y-31704615D01*
X140865967Y-31709019D01*
X140967824Y-31875235D01*
X140979989Y-31895087D01*
X141126252Y-32063937D01*
X141298128Y-32206631D01*
X141368597Y-32247810D01*
X141371447Y-32249475D01*
X141420171Y-32301113D01*
X141433242Y-32370896D01*
X141406511Y-32436668D01*
X141366057Y-32470026D01*
X141353609Y-32476506D01*
X141349476Y-32479609D01*
X141349473Y-32479611D01*
X141325249Y-32497799D01*
X141174967Y-32610634D01*
X141020631Y-32772137D01*
X140894745Y-32956679D01*
X140800690Y-33159304D01*
X140740991Y-33374569D01*
X140717253Y-33596694D01*
X140717550Y-33601847D01*
X140717550Y-33601850D01*
X140723013Y-33696589D01*
X140730112Y-33819714D01*
X140731249Y-33824760D01*
X140731250Y-33824766D01*
X140751121Y-33912938D01*
X140779224Y-34037638D01*
X140863268Y-34244615D01*
X140979989Y-34435087D01*
X141126252Y-34603937D01*
X141298128Y-34746631D01*
X141368597Y-34787810D01*
X141371447Y-34789475D01*
X141420171Y-34841113D01*
X141433242Y-34910896D01*
X141406511Y-34976668D01*
X141366057Y-35010026D01*
X141353609Y-35016506D01*
X141349476Y-35019609D01*
X141349473Y-35019611D01*
X141179102Y-35147529D01*
X141174967Y-35150634D01*
X141020631Y-35312137D01*
X140894745Y-35496679D01*
X140879005Y-35530589D01*
X140804407Y-35691297D01*
X140800690Y-35699304D01*
X140740991Y-35914569D01*
X140717253Y-36136694D01*
X125660420Y-36136694D01*
X125644854Y-35947360D01*
X125590433Y-35730701D01*
X125501356Y-35525839D01*
X125437834Y-35427649D01*
X125382824Y-35342616D01*
X125382822Y-35342613D01*
X125380016Y-35338276D01*
X125229672Y-35173050D01*
X125225621Y-35169851D01*
X125225617Y-35169847D01*
X125058416Y-35037799D01*
X125058412Y-35037797D01*
X125054361Y-35034597D01*
X125013055Y-35011795D01*
X124963086Y-34961363D01*
X124948314Y-34891920D01*
X124973430Y-34825515D01*
X125000782Y-34798908D01*
X125048647Y-34764766D01*
X125179862Y-34671172D01*
X125338098Y-34513488D01*
X125380479Y-34454509D01*
X125465437Y-34336276D01*
X125468455Y-34332076D01*
X125567432Y-34131810D01*
X125625222Y-33941601D01*
X125630867Y-33923022D01*
X125630867Y-33923020D01*
X125632372Y-33918068D01*
X125661531Y-33696589D01*
X125663158Y-33629999D01*
X125644854Y-33407360D01*
X125590433Y-33190701D01*
X125501356Y-32985839D01*
X125380016Y-32798276D01*
X125229672Y-32633050D01*
X125225621Y-32629851D01*
X125225617Y-32629847D01*
X125058416Y-32497799D01*
X125058412Y-32497797D01*
X125054361Y-32494597D01*
X125013055Y-32471795D01*
X124963086Y-32421363D01*
X124948314Y-32351920D01*
X124973430Y-32285515D01*
X125000782Y-32258908D01*
X125044605Y-32227649D01*
X125179862Y-32131172D01*
X125338098Y-31973488D01*
X125396654Y-31891999D01*
X125465437Y-31796276D01*
X125468455Y-31792076D01*
X125540651Y-31645999D01*
X125565138Y-31596452D01*
X125565139Y-31596450D01*
X125567432Y-31591810D01*
X125632372Y-31378068D01*
X125661531Y-31156589D01*
X125663158Y-31089999D01*
X125644854Y-30867360D01*
X125590433Y-30650701D01*
X125501356Y-30445839D01*
X125380016Y-30258276D01*
X125229672Y-30093050D01*
X125225621Y-30089851D01*
X125225617Y-30089847D01*
X125058416Y-29957799D01*
X125058412Y-29957797D01*
X125054361Y-29954597D01*
X125013055Y-29931795D01*
X124963086Y-29881363D01*
X124948314Y-29811920D01*
X124973430Y-29745515D01*
X125000782Y-29718908D01*
X125044605Y-29687649D01*
X125179862Y-29591172D01*
X125338098Y-29433488D01*
X125397596Y-29350688D01*
X125465437Y-29256276D01*
X125468455Y-29252076D01*
X125567432Y-29051810D01*
X125632372Y-28838068D01*
X125661531Y-28616589D01*
X125663158Y-28549999D01*
X125644854Y-28327360D01*
X125590433Y-28110701D01*
X125501356Y-27905839D01*
X125380016Y-27718276D01*
X125229672Y-27553050D01*
X125225621Y-27549851D01*
X125225617Y-27549847D01*
X125058416Y-27417799D01*
X125058412Y-27417797D01*
X125054361Y-27414597D01*
X124858791Y-27306637D01*
X124853922Y-27304913D01*
X124853918Y-27304911D01*
X124653089Y-27233794D01*
X124653085Y-27233793D01*
X124648214Y-27232068D01*
X124643121Y-27231161D01*
X124643118Y-27231160D01*
X124433375Y-27193799D01*
X124433369Y-27193798D01*
X124428286Y-27192893D01*
X124354454Y-27191991D01*
X124210083Y-27190227D01*
X124210081Y-27190227D01*
X124204913Y-27190164D01*
X123984093Y-27223954D01*
X123771758Y-27293356D01*
X123573609Y-27396506D01*
X123569476Y-27399609D01*
X123569473Y-27399611D01*
X123399102Y-27527529D01*
X123394967Y-27530634D01*
X123240631Y-27692137D01*
X123114745Y-27876679D01*
X123020690Y-28079304D01*
X122960991Y-28294569D01*
X122937253Y-28516694D01*
X122937550Y-28521847D01*
X122937550Y-28521850D01*
X122943013Y-28616589D01*
X122950112Y-28739714D01*
X122951249Y-28744760D01*
X122951250Y-28744766D01*
X122971121Y-28832938D01*
X122999224Y-28957638D01*
X123083268Y-29164615D01*
X123199989Y-29355087D01*
X123346252Y-29523937D01*
X123518128Y-29666631D01*
X123588597Y-29707810D01*
X123591447Y-29709475D01*
X123640171Y-29761113D01*
X123653242Y-29830896D01*
X123626511Y-29896668D01*
X123586057Y-29930026D01*
X123573609Y-29936506D01*
X123569476Y-29939609D01*
X123569473Y-29939611D01*
X123445569Y-30032641D01*
X123394967Y-30070634D01*
X123240631Y-30232137D01*
X123114745Y-30416679D01*
X123020690Y-30619304D01*
X122960991Y-30834569D01*
X122937253Y-31056694D01*
X122937550Y-31061847D01*
X122937550Y-31061850D01*
X122943013Y-31156589D01*
X122950112Y-31279714D01*
X122951249Y-31284760D01*
X122951250Y-31284766D01*
X122966977Y-31354548D01*
X122999224Y-31497638D01*
X123083268Y-31704615D01*
X123085967Y-31709019D01*
X123187824Y-31875235D01*
X123199989Y-31895087D01*
X123346252Y-32063937D01*
X123518128Y-32206631D01*
X123588597Y-32247810D01*
X123591447Y-32249475D01*
X123640171Y-32301113D01*
X123653242Y-32370896D01*
X123626511Y-32436668D01*
X123586057Y-32470026D01*
X123573609Y-32476506D01*
X123569476Y-32479609D01*
X123569473Y-32479611D01*
X123545249Y-32497799D01*
X123394967Y-32610634D01*
X123240631Y-32772137D01*
X123114745Y-32956679D01*
X123020690Y-33159304D01*
X122960991Y-33374569D01*
X122937253Y-33596694D01*
X122937550Y-33601847D01*
X122937550Y-33601850D01*
X122943013Y-33696589D01*
X122950112Y-33819714D01*
X122951249Y-33824760D01*
X122951250Y-33824766D01*
X122971121Y-33912938D01*
X122999224Y-34037638D01*
X123083268Y-34244615D01*
X123199989Y-34435087D01*
X123346252Y-34603937D01*
X123518128Y-34746631D01*
X123588597Y-34787810D01*
X123591447Y-34789475D01*
X123640171Y-34841113D01*
X123653242Y-34910896D01*
X123626511Y-34976668D01*
X123586057Y-35010026D01*
X123573609Y-35016506D01*
X123569476Y-35019609D01*
X123569473Y-35019611D01*
X123399102Y-35147529D01*
X123394967Y-35150634D01*
X123240631Y-35312137D01*
X123114745Y-35496679D01*
X123099005Y-35530589D01*
X123024407Y-35691297D01*
X123020690Y-35699304D01*
X122960991Y-35914569D01*
X122937253Y-36136694D01*
X122937550Y-36141847D01*
X122937550Y-36141850D01*
X122943013Y-36236589D01*
X122950112Y-36359714D01*
X122951249Y-36364760D01*
X122951250Y-36364766D01*
X122951531Y-36366012D01*
X122999224Y-36577638D01*
X123037463Y-36671810D01*
X123077379Y-36770111D01*
X123083268Y-36784615D01*
X123199989Y-36975087D01*
X123346252Y-37143937D01*
X123518128Y-37286631D01*
X123588597Y-37327810D01*
X123591447Y-37329475D01*
X123640171Y-37381113D01*
X123653242Y-37450896D01*
X123626511Y-37516668D01*
X123586057Y-37550026D01*
X123573609Y-37556506D01*
X123569476Y-37559609D01*
X123569473Y-37559611D01*
X123399102Y-37687529D01*
X123394967Y-37690634D01*
X123240631Y-37852137D01*
X123237717Y-37856409D01*
X123237716Y-37856410D01*
X123191089Y-37924763D01*
X123114745Y-38036679D01*
X123020690Y-38239304D01*
X122960991Y-38454569D01*
X122937253Y-38676694D01*
X122937550Y-38681847D01*
X122937550Y-38681850D01*
X122943013Y-38776589D01*
X122950112Y-38899714D01*
X122951249Y-38904760D01*
X122951250Y-38904766D01*
X122957870Y-38934139D01*
X122999224Y-39117638D01*
X123083268Y-39324615D01*
X123199989Y-39515087D01*
X123346252Y-39683937D01*
X123518128Y-39826631D01*
X123583320Y-39864726D01*
X123591447Y-39869475D01*
X123640171Y-39921113D01*
X123653242Y-39990896D01*
X123626511Y-40056668D01*
X123586057Y-40090026D01*
X123573609Y-40096506D01*
X123569476Y-40099609D01*
X123569473Y-40099611D01*
X123420484Y-40211475D01*
X123394967Y-40230634D01*
X123240631Y-40392137D01*
X123237717Y-40396409D01*
X123237716Y-40396410D01*
X123225406Y-40414456D01*
X123114745Y-40576679D01*
X123020690Y-40779304D01*
X122960991Y-40994569D01*
X122937253Y-41216694D01*
X122268001Y-41216694D01*
X122268001Y-38453206D01*
X122269747Y-38432302D01*
X122272265Y-38417334D01*
X122273072Y-38412538D01*
X122273225Y-38399999D01*
X122272535Y-38395183D01*
X122272530Y-38395099D01*
X122271666Y-38387313D01*
X122270668Y-38374633D01*
X122254041Y-38163366D01*
X122252887Y-38158559D01*
X122252886Y-38158553D01*
X122218099Y-38013659D01*
X122198629Y-37932560D01*
X122196735Y-37927987D01*
X122111536Y-37722297D01*
X122103947Y-37651707D01*
X122122857Y-37608245D01*
X122121491Y-37607452D01*
X122154672Y-37550326D01*
X122210327Y-37454509D01*
X122214178Y-37441796D01*
X122259474Y-37292238D01*
X122261596Y-37285232D01*
X122272548Y-37108701D01*
X122262841Y-37052206D01*
X122243835Y-36941601D01*
X122243835Y-36941600D01*
X122242595Y-36934385D01*
X122223786Y-36890180D01*
X122197200Y-36827699D01*
X122188934Y-36757185D01*
X122204187Y-36715082D01*
X122206647Y-36710846D01*
X122206650Y-36710840D01*
X122210327Y-36704509D01*
X122248753Y-36577638D01*
X122259474Y-36542238D01*
X122261596Y-36535232D01*
X122272548Y-36358701D01*
X122252136Y-36239907D01*
X122243835Y-36191601D01*
X122243835Y-36191600D01*
X122242595Y-36184385D01*
X122224496Y-36141850D01*
X122197200Y-36077699D01*
X122188934Y-36007185D01*
X122204187Y-35965082D01*
X122206647Y-35960846D01*
X122206650Y-35960840D01*
X122210327Y-35954509D01*
X122212493Y-35947360D01*
X122259474Y-35792238D01*
X122261596Y-35785232D01*
X122272548Y-35608701D01*
X122242595Y-35434385D01*
X122239729Y-35427649D01*
X122197200Y-35327699D01*
X122188934Y-35257185D01*
X122204187Y-35215082D01*
X122206647Y-35210846D01*
X122206650Y-35210840D01*
X122210327Y-35204509D01*
X122218699Y-35176869D01*
X122259474Y-35042238D01*
X122261596Y-35035232D01*
X122272548Y-34858701D01*
X122242595Y-34684385D01*
X122239729Y-34677649D01*
X122197200Y-34577699D01*
X122188934Y-34507185D01*
X122204187Y-34465082D01*
X122206647Y-34460846D01*
X122206650Y-34460840D01*
X122210327Y-34454509D01*
X122216210Y-34435087D01*
X122259474Y-34292238D01*
X122261596Y-34285232D01*
X122272548Y-34108701D01*
X122242595Y-33934385D01*
X122233469Y-33912938D01*
X122197200Y-33827699D01*
X122188934Y-33757185D01*
X122204187Y-33715082D01*
X122206647Y-33710846D01*
X122206650Y-33710840D01*
X122210327Y-33704509D01*
X122213741Y-33693239D01*
X122259474Y-33542238D01*
X122261596Y-33535232D01*
X122272548Y-33358701D01*
X122242595Y-33184385D01*
X122229925Y-33154609D01*
X122197200Y-33077699D01*
X122188934Y-33007185D01*
X122204187Y-32965082D01*
X122206647Y-32960846D01*
X122206650Y-32960840D01*
X122210327Y-32954509D01*
X122223002Y-32912662D01*
X122259474Y-32792238D01*
X122261596Y-32785232D01*
X122272548Y-32608701D01*
X122242595Y-32434385D01*
X122173344Y-32271635D01*
X122169011Y-32265747D01*
X122169008Y-32265742D01*
X122124520Y-32205291D01*
X122100254Y-32138570D01*
X122109593Y-32082390D01*
X122117237Y-32063937D01*
X122185560Y-31898989D01*
X122196735Y-31872011D01*
X122196736Y-31872009D01*
X122198629Y-31867438D01*
X122227329Y-31747896D01*
X122252886Y-31641445D01*
X122252887Y-31641439D01*
X122254041Y-31636632D01*
X122270015Y-31433656D01*
X122271373Y-31422636D01*
X122272266Y-31417329D01*
X122272266Y-31417328D01*
X122273072Y-31412538D01*
X122273225Y-31399999D01*
X122269274Y-31372411D01*
X122268001Y-31354548D01*
X122268002Y-26059327D01*
X122269502Y-26039943D01*
X122271807Y-26025142D01*
X122271807Y-26025138D01*
X122273188Y-26016269D01*
X122271061Y-26000000D01*
X122270268Y-25975432D01*
X122284846Y-25753014D01*
X122286997Y-25736673D01*
X122335631Y-25492175D01*
X122339897Y-25476256D01*
X122420024Y-25240209D01*
X122426331Y-25224982D01*
X122536586Y-25001407D01*
X122544827Y-24987134D01*
X122683318Y-24779866D01*
X122693351Y-24766789D01*
X122857716Y-24579367D01*
X122869370Y-24567713D01*
X123056792Y-24403348D01*
X123069869Y-24393315D01*
X123277137Y-24254824D01*
X123291410Y-24246583D01*
X123514985Y-24136328D01*
X123530212Y-24130021D01*
X123766259Y-24049894D01*
X123782178Y-24045628D01*
X124026675Y-23996994D01*
X124043016Y-23994843D01*
X124258270Y-23980735D01*
X124281306Y-23981760D01*
X124284856Y-23981803D01*
X124293732Y-23983185D01*
X124325254Y-23979063D01*
X124341591Y-23977999D01*
X142030674Y-23977999D01*
X142050059Y-23979499D01*
G37*
%TD.AperFunction*%
%TD*%
M02*
