%TF.GenerationSoftware,KiCad,Pcbnew,(6.0.2)*%
%TF.CreationDate,2022-03-21T16:25:24-04:00*%
%TF.ProjectId,Panel_Design_1,50616e65-6c5f-4446-9573-69676e5f312e,rev?*%
%TF.SameCoordinates,Original*%
%TF.FileFunction,Paste,Top*%
%TF.FilePolarity,Positive*%
%FSLAX46Y46*%
G04 Gerber Fmt 4.6, Leading zero omitted, Abs format (unit mm)*
G04 Created by KiCad (PCBNEW (6.0.2)) date 2022-03-21 16:25:24*
%MOMM*%
%LPD*%
G01*
G04 APERTURE LIST*
G04 Aperture macros list*
%AMRoundRect*
0 Rectangle with rounded corners*
0 $1 Rounding radius*
0 $2 $3 $4 $5 $6 $7 $8 $9 X,Y pos of 4 corners*
0 Add a 4 corners polygon primitive as box body*
4,1,4,$2,$3,$4,$5,$6,$7,$8,$9,$2,$3,0*
0 Add four circle primitives for the rounded corners*
1,1,$1+$1,$2,$3*
1,1,$1+$1,$4,$5*
1,1,$1+$1,$6,$7*
1,1,$1+$1,$8,$9*
0 Add four rect primitives between the rounded corners*
20,1,$1+$1,$2,$3,$4,$5,0*
20,1,$1+$1,$4,$5,$6,$7,0*
20,1,$1+$1,$6,$7,$8,$9,0*
20,1,$1+$1,$8,$9,$2,$3,0*%
G04 Aperture macros list end*
%ADD10RoundRect,0.289474X-0.535526X-0.585526X0.535526X-0.585526X0.535526X0.585526X-0.535526X0.585526X0*%
%ADD11R,0.600000X1.450000*%
%ADD12R,0.300000X1.450000*%
G04 APERTURE END LIST*
D10*
%TO.C,G91*%
X113409099Y-50069999D03*
X116231399Y-50069999D03*
%TD*%
%TO.C,G98*%
X113409099Y-67849999D03*
X116231399Y-67849999D03*
%TD*%
%TO.C,G92*%
X113409099Y-52609999D03*
X116231399Y-52609999D03*
%TD*%
%TO.C,G99*%
X113409099Y-70389999D03*
X116231399Y-70389999D03*
%TD*%
%TO.C,G97*%
X113409099Y-65309999D03*
X116231399Y-65309999D03*
%TD*%
%TO.C,G100*%
X113409099Y-72929999D03*
X116231399Y-72929999D03*
%TD*%
%TO.C,G96*%
X113409099Y-62769999D03*
X116231399Y-62769999D03*
%TD*%
%TO.C,G94*%
X113409099Y-57689999D03*
X116231399Y-57689999D03*
%TD*%
%TO.C,G95*%
X113409099Y-60229999D03*
X116231399Y-60229999D03*
%TD*%
%TO.C,G93*%
X113409099Y-55149999D03*
X116231399Y-55149999D03*
%TD*%
%TO.C,G81*%
X93629099Y-50069999D03*
X96451399Y-50069999D03*
%TD*%
%TO.C,G88*%
X93629099Y-67849999D03*
X96451399Y-67849999D03*
%TD*%
%TO.C,G82*%
X93629099Y-52609999D03*
X96451399Y-52609999D03*
%TD*%
%TO.C,G89*%
X93629099Y-70389999D03*
X96451399Y-70389999D03*
%TD*%
%TO.C,G87*%
X93629099Y-65309999D03*
X96451399Y-65309999D03*
%TD*%
%TO.C,G90*%
X93629099Y-72929999D03*
X96451399Y-72929999D03*
%TD*%
%TO.C,G86*%
X93629099Y-62769999D03*
X96451399Y-62769999D03*
%TD*%
%TO.C,G84*%
X93629099Y-57689999D03*
X96451399Y-57689999D03*
%TD*%
%TO.C,G85*%
X93629099Y-60229999D03*
X96451399Y-60229999D03*
%TD*%
%TO.C,G83*%
X93629099Y-55149999D03*
X96451399Y-55149999D03*
%TD*%
%TO.C,G71*%
X73849099Y-50069999D03*
X76671399Y-50069999D03*
%TD*%
%TO.C,G78*%
X73849099Y-67849999D03*
X76671399Y-67849999D03*
%TD*%
%TO.C,G72*%
X73849099Y-52609999D03*
X76671399Y-52609999D03*
%TD*%
%TO.C,G79*%
X73849099Y-70389999D03*
X76671399Y-70389999D03*
%TD*%
%TO.C,G77*%
X73849099Y-65309999D03*
X76671399Y-65309999D03*
%TD*%
%TO.C,G80*%
X73849099Y-72929999D03*
X76671399Y-72929999D03*
%TD*%
%TO.C,G76*%
X73849099Y-62769999D03*
X76671399Y-62769999D03*
%TD*%
%TO.C,G74*%
X73849099Y-57689999D03*
X76671399Y-57689999D03*
%TD*%
%TO.C,G75*%
X73849099Y-60229999D03*
X76671399Y-60229999D03*
%TD*%
%TO.C,G73*%
X73849099Y-55149999D03*
X76671399Y-55149999D03*
%TD*%
%TO.C,G61*%
X54069099Y-50069999D03*
X56891399Y-50069999D03*
%TD*%
%TO.C,G68*%
X54069099Y-67849999D03*
X56891399Y-67849999D03*
%TD*%
%TO.C,G62*%
X54069099Y-52609999D03*
X56891399Y-52609999D03*
%TD*%
%TO.C,G69*%
X54069099Y-70389999D03*
X56891399Y-70389999D03*
%TD*%
%TO.C,G67*%
X54069099Y-65309999D03*
X56891399Y-65309999D03*
%TD*%
%TO.C,G70*%
X54069099Y-72929999D03*
X56891399Y-72929999D03*
%TD*%
%TO.C,G66*%
X54069099Y-62769999D03*
X56891399Y-62769999D03*
%TD*%
%TO.C,G64*%
X54069099Y-57689999D03*
X56891399Y-57689999D03*
%TD*%
%TO.C,G65*%
X54069099Y-60229999D03*
X56891399Y-60229999D03*
%TD*%
%TO.C,G63*%
X54069099Y-55149999D03*
X56891399Y-55149999D03*
%TD*%
%TO.C,G51*%
X34289099Y-50069999D03*
X37111399Y-50069999D03*
%TD*%
%TO.C,G58*%
X34289099Y-67849999D03*
X37111399Y-67849999D03*
%TD*%
%TO.C,G52*%
X34289099Y-52609999D03*
X37111399Y-52609999D03*
%TD*%
%TO.C,G59*%
X34289099Y-70389999D03*
X37111399Y-70389999D03*
%TD*%
%TO.C,G57*%
X34289099Y-65309999D03*
X37111399Y-65309999D03*
%TD*%
%TO.C,G60*%
X34289099Y-72929999D03*
X37111399Y-72929999D03*
%TD*%
%TO.C,G56*%
X34289099Y-62769999D03*
X37111399Y-62769999D03*
%TD*%
%TO.C,G54*%
X34289099Y-57689999D03*
X37111399Y-57689999D03*
%TD*%
%TO.C,G55*%
X34289099Y-60229999D03*
X37111399Y-60229999D03*
%TD*%
%TO.C,G53*%
X34289099Y-55149999D03*
X37111399Y-55149999D03*
%TD*%
%TO.C,G41*%
X113409099Y-20129999D03*
X116231399Y-20129999D03*
%TD*%
%TO.C,G48*%
X113409099Y-37909999D03*
X116231399Y-37909999D03*
%TD*%
%TO.C,G42*%
X113409099Y-22669999D03*
X116231399Y-22669999D03*
%TD*%
%TO.C,G49*%
X113409099Y-40449999D03*
X116231399Y-40449999D03*
%TD*%
%TO.C,G47*%
X113409099Y-35369999D03*
X116231399Y-35369999D03*
%TD*%
%TO.C,G50*%
X113409099Y-42989999D03*
X116231399Y-42989999D03*
%TD*%
%TO.C,G46*%
X113409099Y-32829999D03*
X116231399Y-32829999D03*
%TD*%
%TO.C,G44*%
X113409099Y-27749999D03*
X116231399Y-27749999D03*
%TD*%
%TO.C,G45*%
X113409099Y-30289999D03*
X116231399Y-30289999D03*
%TD*%
%TO.C,G43*%
X113409099Y-25209999D03*
X116231399Y-25209999D03*
%TD*%
%TO.C,G31*%
X93629099Y-20129999D03*
X96451399Y-20129999D03*
%TD*%
%TO.C,G38*%
X93629099Y-37909999D03*
X96451399Y-37909999D03*
%TD*%
%TO.C,G32*%
X93629099Y-22669999D03*
X96451399Y-22669999D03*
%TD*%
%TO.C,G39*%
X93629099Y-40449999D03*
X96451399Y-40449999D03*
%TD*%
%TO.C,G37*%
X93629099Y-35369999D03*
X96451399Y-35369999D03*
%TD*%
%TO.C,G40*%
X93629099Y-42989999D03*
X96451399Y-42989999D03*
%TD*%
%TO.C,G36*%
X93629099Y-32829999D03*
X96451399Y-32829999D03*
%TD*%
%TO.C,G34*%
X93629099Y-27749999D03*
X96451399Y-27749999D03*
%TD*%
%TO.C,G35*%
X93629099Y-30289999D03*
X96451399Y-30289999D03*
%TD*%
%TO.C,G33*%
X93629099Y-25209999D03*
X96451399Y-25209999D03*
%TD*%
%TO.C,G21*%
X73849099Y-20129999D03*
X76671399Y-20129999D03*
%TD*%
%TO.C,G28*%
X73849099Y-37909999D03*
X76671399Y-37909999D03*
%TD*%
%TO.C,G22*%
X73849099Y-22669999D03*
X76671399Y-22669999D03*
%TD*%
%TO.C,G29*%
X73849099Y-40449999D03*
X76671399Y-40449999D03*
%TD*%
%TO.C,G27*%
X73849099Y-35369999D03*
X76671399Y-35369999D03*
%TD*%
%TO.C,G30*%
X73849099Y-42989999D03*
X76671399Y-42989999D03*
%TD*%
%TO.C,G26*%
X73849099Y-32829999D03*
X76671399Y-32829999D03*
%TD*%
%TO.C,G24*%
X73849099Y-27749999D03*
X76671399Y-27749999D03*
%TD*%
%TO.C,G25*%
X73849099Y-30289999D03*
X76671399Y-30289999D03*
%TD*%
%TO.C,G23*%
X73849099Y-25209999D03*
X76671399Y-25209999D03*
%TD*%
%TO.C,G11*%
X54069099Y-20129999D03*
X56891399Y-20129999D03*
%TD*%
%TO.C,G18*%
X54069099Y-37909999D03*
X56891399Y-37909999D03*
%TD*%
%TO.C,G12*%
X54069099Y-22669999D03*
X56891399Y-22669999D03*
%TD*%
%TO.C,G19*%
X54069099Y-40449999D03*
X56891399Y-40449999D03*
%TD*%
%TO.C,G17*%
X54069099Y-35369999D03*
X56891399Y-35369999D03*
%TD*%
%TO.C,G20*%
X54069099Y-42989999D03*
X56891399Y-42989999D03*
%TD*%
%TO.C,G16*%
X54069099Y-32829999D03*
X56891399Y-32829999D03*
%TD*%
%TO.C,G14*%
X54069099Y-27749999D03*
X56891399Y-27749999D03*
%TD*%
%TO.C,G15*%
X54069099Y-30289999D03*
X56891399Y-30289999D03*
%TD*%
%TO.C,G13*%
X54069099Y-25209999D03*
X56891399Y-25209999D03*
%TD*%
%TO.C,G3*%
X34289099Y-25209999D03*
X37111399Y-25209999D03*
%TD*%
%TO.C,G6*%
X34289099Y-32829999D03*
X37111399Y-32829999D03*
%TD*%
%TO.C,G5*%
X34289099Y-30289999D03*
X37111399Y-30289999D03*
%TD*%
%TO.C,G10*%
X34289099Y-42989999D03*
X37111399Y-42989999D03*
%TD*%
%TO.C,G7*%
X34289099Y-35369999D03*
X37111399Y-35369999D03*
%TD*%
%TO.C,G4*%
X34289099Y-27749999D03*
X37111399Y-27749999D03*
%TD*%
%TO.C,G8*%
X34289099Y-37909999D03*
X37111399Y-37909999D03*
%TD*%
%TO.C,G2*%
X34289099Y-22669999D03*
X37111399Y-22669999D03*
%TD*%
%TO.C,G9*%
X34289099Y-40449999D03*
X37111399Y-40449999D03*
%TD*%
D11*
%TO.C,USB1*%
X140095001Y-36289998D03*
X139320001Y-36289998D03*
D12*
X138620001Y-36289998D03*
X138120001Y-36289998D03*
X137620001Y-36289998D03*
X137120001Y-36289998D03*
X136620001Y-36289998D03*
X136120001Y-36289998D03*
X135620001Y-36289998D03*
X135120001Y-36289998D03*
D11*
X134420001Y-36289998D03*
X133645001Y-36289998D03*
%TD*%
D10*
%TO.C,G1*%
X34289099Y-20129999D03*
X37111399Y-20129999D03*
%TD*%
M02*
