%TF.GenerationSoftware,KiCad,Pcbnew,(6.0.2)*%
%TF.CreationDate,2022-03-22T07:25:02-04:00*%
%TF.ProjectId,Panel_Design_1,50616e65-6c5f-4446-9573-69676e5f312e,rev?*%
%TF.SameCoordinates,Original*%
%TF.FileFunction,Profile,NP*%
%FSLAX46Y46*%
G04 Gerber Fmt 4.6, Leading zero omitted, Abs format (unit mm)*
G04 Created by KiCad (PCBNEW (6.0.2)) date 2022-03-22 07:25:02*
%MOMM*%
%LPD*%
G01*
G04 APERTURE LIST*
%TA.AperFunction,Profile*%
%ADD10C,0.100000*%
%TD*%
G04 APERTURE END LIST*
D10*
X99980001Y-46260001D02*
X99980000Y-38400000D01*
X42639999Y-46260001D02*
G75*
G03*
X45179999Y-48800001I2540001J1D01*
G01*
X42640000Y-38400000D02*
G75*
G03*
X40640000Y-38400000I-1000000J0D01*
G01*
X57880001Y-48800001D02*
G75*
G03*
X60420001Y-46260001I-1J2540001D01*
G01*
X121760001Y-38399999D02*
X121760001Y-43790000D01*
X45179999Y-48800001D02*
X48140000Y-48800000D01*
X82199999Y-46260001D02*
G75*
G03*
X84739999Y-48800001I2540001J1D01*
G01*
X136690001Y-46329999D02*
X142080002Y-46329999D01*
X42640000Y-61340000D02*
X42640000Y-53340000D01*
X99980001Y-53339999D02*
G75*
G03*
X97440001Y-50799999I-2540001J-1D01*
G01*
X62419999Y-76200001D02*
G75*
G03*
X64959999Y-78740001I2540001J1D01*
G01*
X64959999Y-78740001D02*
X77660001Y-78740001D01*
X80200000Y-61340000D02*
G75*
G03*
X82200000Y-61340000I1000000J0D01*
G01*
X94700000Y-48800000D02*
X97440001Y-48800001D01*
X119760001Y-61200001D02*
X119760001Y-53339999D01*
X25400000Y-50800000D02*
G75*
G03*
X22860000Y-53340000I1J-2540001D01*
G01*
X99980000Y-31400000D02*
X99980001Y-23399999D01*
X84740000Y-20860000D02*
X97440001Y-20859999D01*
X62420000Y-61340000D02*
X62420000Y-53340000D01*
X119760001Y-31399999D02*
G75*
G03*
X121760001Y-31399999I1000000J0D01*
G01*
X64960000Y-20860000D02*
G75*
G03*
X62420000Y-23400000I1J-2540001D01*
G01*
X62420000Y-68340000D02*
G75*
G03*
X60420000Y-68340000I-1000000J0D01*
G01*
X64960000Y-50800000D02*
G75*
G03*
X62420000Y-53340000I1J-2540001D01*
G01*
X94700000Y-50800000D02*
X97440001Y-50799999D01*
X135690001Y-52270001D02*
X135690001Y-47329999D01*
X80200000Y-31400000D02*
X80200001Y-23399999D01*
X130690001Y-47329999D02*
G75*
G03*
X129690001Y-46329999I-999999J1D01*
G01*
X67920000Y-50800000D02*
G75*
G03*
X67920000Y-48800000I0J1000000D01*
G01*
X142080001Y-76130001D02*
G75*
G03*
X144620001Y-73590001I-1J2540001D01*
G01*
X119760001Y-61200001D02*
G75*
G03*
X121760001Y-61200001I1000000J0D01*
G01*
X114480000Y-48800000D02*
X117220001Y-48800001D01*
X101980000Y-38400000D02*
X101980000Y-46260000D01*
X135690001Y-52270001D02*
G75*
G03*
X136690001Y-53270001I999999J-1D01*
G01*
X101980000Y-68340000D02*
G75*
G03*
X99980000Y-68340000I-1000000J0D01*
G01*
X119760001Y-76200001D02*
X119760001Y-68200001D01*
X62419999Y-46260001D02*
G75*
G03*
X64959999Y-48800001I2540001J1D01*
G01*
X60420001Y-53339999D02*
G75*
G03*
X57880001Y-50799999I-2540001J-1D01*
G01*
X82200000Y-38400000D02*
G75*
G03*
X80200000Y-38400000I-1000000J0D01*
G01*
X97440001Y-48800001D02*
G75*
G03*
X99980001Y-46260001I-1J2540001D01*
G01*
X64960000Y-20860000D02*
X77660001Y-20859999D01*
X82200000Y-68340000D02*
X82200000Y-76200000D01*
X124300001Y-76130001D02*
X142080001Y-76130001D01*
X121760001Y-68200001D02*
G75*
G03*
X119760001Y-68200001I-1000000J0D01*
G01*
X25400000Y-20860000D02*
X38100001Y-20859999D01*
X87700000Y-50800000D02*
G75*
G03*
X87700000Y-48800000I0J1000000D01*
G01*
X114480000Y-50800000D02*
X117220001Y-50799999D01*
X40640001Y-46260001D02*
X40640000Y-38400000D01*
X60420000Y-61340000D02*
X60420001Y-53339999D01*
X40640000Y-31400000D02*
G75*
G03*
X42640000Y-31400000I1000000J0D01*
G01*
X80200001Y-23399999D02*
G75*
G03*
X77660001Y-20859999I-2540001J-1D01*
G01*
X136690001Y-53270001D02*
X142080001Y-53270001D01*
X101980000Y-38400000D02*
G75*
G03*
X99980000Y-38400000I-1000000J0D01*
G01*
X99980001Y-23399999D02*
G75*
G03*
X97440001Y-20859999I-2540001J-1D01*
G01*
X80200000Y-31400000D02*
G75*
G03*
X82200000Y-31400000I1000000J0D01*
G01*
X28360000Y-50800000D02*
G75*
G03*
X28360000Y-48800000I0J1000000D01*
G01*
X40640000Y-31400000D02*
X40640001Y-23399999D01*
X25399999Y-48800001D02*
X28360000Y-48800000D01*
X42640000Y-68340000D02*
X42640000Y-76200000D01*
X60420001Y-46260001D02*
X60420000Y-38400000D01*
X82200000Y-31400000D02*
X82200000Y-23400000D01*
X40640000Y-68340000D02*
X40640001Y-76200001D01*
X144620001Y-73590001D02*
X144620001Y-55810001D01*
X124300002Y-23469999D02*
G75*
G03*
X121760002Y-26009999I1J-2540001D01*
G01*
X25400000Y-20860000D02*
G75*
G03*
X22860000Y-23400000I1J-2540001D01*
G01*
X117220001Y-78740001D02*
G75*
G03*
X119760001Y-76200001I-1J2540001D01*
G01*
X80200001Y-76200001D02*
X80200000Y-68340000D01*
X74920000Y-48800000D02*
G75*
G03*
X74920000Y-50800000I0J-1000000D01*
G01*
X144620002Y-26009999D02*
G75*
G03*
X142080002Y-23469999I-2540001J-1D01*
G01*
X40640000Y-61340000D02*
X40640001Y-53339999D01*
X136690001Y-46329999D02*
G75*
G03*
X135690001Y-47329999I-1J-999999D01*
G01*
X117220001Y-48800001D02*
G75*
G03*
X119760001Y-46260001I-1J2540001D01*
G01*
X142080002Y-23469999D02*
X124300002Y-23469999D01*
X104520000Y-20860000D02*
G75*
G03*
X101980000Y-23400000I1J-2540001D01*
G01*
X121760001Y-73590001D02*
G75*
G03*
X124300001Y-76130001I2540001J1D01*
G01*
X48140000Y-50800000D02*
G75*
G03*
X48140000Y-48800000I0J1000000D01*
G01*
X94700000Y-48800000D02*
G75*
G03*
X94700000Y-50800000I0J-1000000D01*
G01*
X129690001Y-53270001D02*
G75*
G03*
X130690001Y-52270001I1J999999D01*
G01*
X60420000Y-31400000D02*
G75*
G03*
X62420000Y-31400000I1000000J0D01*
G01*
X84739999Y-78740001D02*
X97440001Y-78740001D01*
X28360000Y-50800000D02*
X25400000Y-50800000D01*
X107480000Y-50800000D02*
G75*
G03*
X107480000Y-48800000I0J1000000D01*
G01*
X119760001Y-53339999D02*
G75*
G03*
X117220001Y-50799999I-2540001J-1D01*
G01*
X55140000Y-48800000D02*
G75*
G03*
X55140000Y-50800000I0J-1000000D01*
G01*
X104519999Y-48800001D02*
X107480000Y-48800000D01*
X104520000Y-50800000D02*
G75*
G03*
X101980000Y-53340000I1J-2540001D01*
G01*
X124300001Y-46330000D02*
X129690001Y-46329999D01*
X45180000Y-20860000D02*
X57880001Y-20859999D01*
X45180000Y-50800000D02*
G75*
G03*
X42640000Y-53340000I1J-2540001D01*
G01*
X119760001Y-23399999D02*
G75*
G03*
X117220001Y-20859999I-2540001J-1D01*
G01*
X35360000Y-48800000D02*
G75*
G03*
X35360000Y-50800000I0J-1000000D01*
G01*
X60420001Y-23399999D02*
G75*
G03*
X57880001Y-20859999I-2540001J-1D01*
G01*
X55140000Y-50800000D02*
X57880001Y-50799999D01*
X67920000Y-50800000D02*
X64960000Y-50800000D01*
X40640001Y-53339999D02*
G75*
G03*
X38100001Y-50799999I-2540001J-1D01*
G01*
X74920000Y-50800000D02*
X77660001Y-50799999D01*
X42639999Y-76200001D02*
G75*
G03*
X45179999Y-78740001I2540001J1D01*
G01*
X101979999Y-76200001D02*
G75*
G03*
X104519999Y-78740001I2540001J1D01*
G01*
X97440001Y-78740001D02*
G75*
G03*
X99980001Y-76200001I-1J2540001D01*
G01*
X64959999Y-48800001D02*
X67920000Y-48800000D01*
X99980000Y-61340000D02*
G75*
G03*
X101980000Y-61340000I1000000J0D01*
G01*
X104519999Y-78740001D02*
X117220001Y-78740001D01*
X84740000Y-20860000D02*
G75*
G03*
X82200000Y-23400000I1J-2540001D01*
G01*
X60420000Y-31400000D02*
X60420001Y-23399999D01*
X121760001Y-61200001D02*
X121760001Y-55810001D01*
X74920000Y-48800000D02*
X77660001Y-48800001D01*
X104520000Y-20860000D02*
X117220001Y-20859999D01*
X87700000Y-50800000D02*
X84740000Y-50800000D01*
X55140000Y-48800000D02*
X57880001Y-48800001D01*
X121760001Y-43790000D02*
G75*
G03*
X124300001Y-46330000I2540001J1D01*
G01*
X77660001Y-48800001D02*
G75*
G03*
X80200001Y-46260001I-1J2540001D01*
G01*
X40640000Y-61340000D02*
G75*
G03*
X42640000Y-61340000I1000000J0D01*
G01*
X80200001Y-53339999D02*
G75*
G03*
X77660001Y-50799999I-2540001J-1D01*
G01*
X45180000Y-20860000D02*
G75*
G03*
X42640000Y-23400000I1J-2540001D01*
G01*
X99980000Y-61340000D02*
X99980001Y-53339999D01*
X38100001Y-48800001D02*
G75*
G03*
X40640001Y-46260001I-1J2540001D01*
G01*
X130690001Y-52270001D02*
X130690001Y-47329999D01*
X101980000Y-68340000D02*
X101980000Y-76200000D01*
X22860000Y-53340000D02*
X22860000Y-76200000D01*
X62420000Y-68340000D02*
X62420000Y-76200000D01*
X62420000Y-31400000D02*
X62420000Y-23400000D01*
X82200000Y-61340000D02*
X82200000Y-53340000D01*
X35360000Y-48800000D02*
X38100001Y-48800001D01*
X119760001Y-31399999D02*
X119760001Y-23399999D01*
X129690001Y-53270001D02*
X124300001Y-53270001D01*
X107480000Y-50800000D02*
X104520000Y-50800000D01*
X121760001Y-68200001D02*
X121760001Y-73590001D01*
X22860000Y-23400000D02*
X22860000Y-46260000D01*
X82199999Y-76200001D02*
G75*
G03*
X84739999Y-78740001I2540001J1D01*
G01*
X57880001Y-78740001D02*
G75*
G03*
X60420001Y-76200001I-1J2540001D01*
G01*
X42640000Y-38400000D02*
X42640000Y-46260000D01*
X77660001Y-78740001D02*
G75*
G03*
X80200001Y-76200001I-1J2540001D01*
G01*
X144620001Y-55810001D02*
G75*
G03*
X142080001Y-53270001I-2540001J-1D01*
G01*
X121760001Y-31399999D02*
X121760002Y-26009999D01*
X35360000Y-50800000D02*
X38100001Y-50799999D01*
X42640000Y-68340000D02*
G75*
G03*
X40640000Y-68340000I-1000000J0D01*
G01*
X114480000Y-48800000D02*
G75*
G03*
X114480000Y-50800000I0J-1000000D01*
G01*
X45179999Y-78740001D02*
X57880001Y-78740001D01*
X38100001Y-78740001D02*
G75*
G03*
X40640001Y-76200001I-1J2540001D01*
G01*
X99980000Y-68340000D02*
X99980001Y-76200001D01*
X142080002Y-46329999D02*
G75*
G03*
X144620002Y-43789999I-1J2540001D01*
G01*
X80200001Y-46260001D02*
X80200000Y-38400000D01*
X84740000Y-50800000D02*
G75*
G03*
X82200000Y-53340000I1J-2540001D01*
G01*
X60420000Y-68340000D02*
X60420001Y-76200001D01*
X124300001Y-53270001D02*
G75*
G03*
X121760001Y-55810001I1J-2540001D01*
G01*
X101980000Y-31400000D02*
X101980000Y-23400000D01*
X80200000Y-61340000D02*
X80200001Y-53339999D01*
X48140000Y-50800000D02*
X45180000Y-50800000D01*
X101980000Y-61340000D02*
X101980000Y-53340000D01*
X99980000Y-31400000D02*
G75*
G03*
X101980000Y-31400000I1000000J0D01*
G01*
X121760001Y-38399999D02*
G75*
G03*
X119760001Y-38399999I-1000000J0D01*
G01*
X82200000Y-68340000D02*
G75*
G03*
X80200000Y-68340000I-1000000J0D01*
G01*
X82200000Y-38400000D02*
X82200000Y-46260000D01*
X22859999Y-76200001D02*
G75*
G03*
X25399999Y-78740001I2540001J1D01*
G01*
X62420000Y-38400000D02*
X62420000Y-46260000D01*
X62420000Y-38400000D02*
G75*
G03*
X60420000Y-38400000I-1000000J0D01*
G01*
X60420000Y-61340000D02*
G75*
G03*
X62420000Y-61340000I1000000J0D01*
G01*
X119760001Y-46260001D02*
X119760001Y-38399999D01*
X84739999Y-48800001D02*
X87700000Y-48800000D01*
X40640001Y-23399999D02*
G75*
G03*
X38100001Y-20859999I-2540001J-1D01*
G01*
X144620002Y-43789999D02*
X144620002Y-26009999D01*
X22859999Y-46260001D02*
G75*
G03*
X25399999Y-48800001I2540001J1D01*
G01*
X25399999Y-78740001D02*
X38100001Y-78740001D01*
X42640000Y-31400000D02*
X42640000Y-23400000D01*
X101979999Y-46260001D02*
G75*
G03*
X104519999Y-48800001I2540001J1D01*
G01*
M02*
