%TF.GenerationSoftware,KiCad,Pcbnew,(6.0.2)*%
%TF.CreationDate,2022-03-21T16:25:24-04:00*%
%TF.ProjectId,Panel_Design_1,50616e65-6c5f-4446-9573-69676e5f312e,rev?*%
%TF.SameCoordinates,Original*%
%TF.FileFunction,Legend,Bot*%
%TF.FilePolarity,Positive*%
%FSLAX46Y46*%
G04 Gerber Fmt 4.6, Leading zero omitted, Abs format (unit mm)*
G04 Created by KiCad (PCBNEW (6.0.2)) date 2022-03-21 16:25:24*
%MOMM*%
%LPD*%
G01*
G04 APERTURE LIST*
%ADD10C,0.150000*%
%ADD11C,0.200000*%
%ADD12C,0.100000*%
G04 APERTURE END LIST*
D10*
X143635714Y-52087619D02*
X143588095Y-52040000D01*
X143492857Y-51992380D01*
X143254761Y-51992380D01*
X143159523Y-52040000D01*
X143111904Y-52087619D01*
X143064285Y-52182857D01*
X143064285Y-52278095D01*
X143111904Y-52420952D01*
X143683333Y-52992380D01*
X143064285Y-52992380D01*
X143635714Y-62247619D02*
X143588095Y-62200000D01*
X143492857Y-62152380D01*
X143254761Y-62152380D01*
X143159523Y-62200000D01*
X143111904Y-62247619D01*
X143064285Y-62342857D01*
X143064285Y-62438095D01*
X143111904Y-62580952D01*
X143683333Y-63152380D01*
X143064285Y-63152380D01*
X130459523Y-54865714D02*
X130459523Y-55532380D01*
X130697619Y-54484761D02*
X130935714Y-55199047D01*
X130316666Y-55199047D01*
X130459523Y-59945714D02*
X130459523Y-60612380D01*
X130697619Y-59564761D02*
X130935714Y-60279047D01*
X130316666Y-60279047D01*
X143683333Y-69772380D02*
X143064285Y-69772380D01*
X143397619Y-70153333D01*
X143254761Y-70153333D01*
X143159523Y-70200952D01*
X143111904Y-70248571D01*
X143064285Y-70343809D01*
X143064285Y-70581904D01*
X143111904Y-70677142D01*
X143159523Y-70724761D01*
X143254761Y-70772380D01*
X143540476Y-70772380D01*
X143635714Y-70724761D01*
X143683333Y-70677142D01*
X130459523Y-65025714D02*
X130459523Y-65692380D01*
X130697619Y-64644761D02*
X130935714Y-65359047D01*
X130316666Y-65359047D01*
X143683333Y-64692380D02*
X143064285Y-64692380D01*
X143397619Y-65073333D01*
X143254761Y-65073333D01*
X143159523Y-65120952D01*
X143111904Y-65168571D01*
X143064285Y-65263809D01*
X143064285Y-65501904D01*
X143111904Y-65597142D01*
X143159523Y-65644761D01*
X143254761Y-65692380D01*
X143540476Y-65692380D01*
X143635714Y-65644761D01*
X143683333Y-65597142D01*
X130364285Y-58072380D02*
X130935714Y-58072380D01*
X130650000Y-58072380D02*
X130650000Y-57072380D01*
X130745238Y-57215238D01*
X130840476Y-57310476D01*
X130935714Y-57358095D01*
X130364285Y-68232380D02*
X130935714Y-68232380D01*
X130650000Y-68232380D02*
X130650000Y-67232380D01*
X130745238Y-67375238D01*
X130840476Y-67470476D01*
X130935714Y-67518095D01*
X143683333Y-54532380D02*
X143064285Y-54532380D01*
X143397619Y-54913333D01*
X143254761Y-54913333D01*
X143159523Y-54960952D01*
X143111904Y-55008571D01*
X143064285Y-55103809D01*
X143064285Y-55341904D01*
X143111904Y-55437142D01*
X143159523Y-55484761D01*
X143254761Y-55532380D01*
X143540476Y-55532380D01*
X143635714Y-55484761D01*
X143683333Y-55437142D01*
X143635714Y-67327619D02*
X143588095Y-67280000D01*
X143492857Y-67232380D01*
X143254761Y-67232380D01*
X143159523Y-67280000D01*
X143111904Y-67327619D01*
X143064285Y-67422857D01*
X143064285Y-67518095D01*
X143111904Y-67660952D01*
X143683333Y-68232380D01*
X143064285Y-68232380D01*
X130364285Y-63152380D02*
X130935714Y-63152380D01*
X130650000Y-63152380D02*
X130650000Y-62152380D01*
X130745238Y-62295238D01*
X130840476Y-62390476D01*
X130935714Y-62438095D01*
X130459523Y-70105714D02*
X130459523Y-70772380D01*
X130697619Y-69724761D02*
X130935714Y-70439047D01*
X130316666Y-70439047D01*
X130364285Y-52992380D02*
X130935714Y-52992380D01*
X130650000Y-52992380D02*
X130650000Y-51992380D01*
X130745238Y-52135238D01*
X130840476Y-52230476D01*
X130935714Y-52278095D01*
X143683333Y-59612380D02*
X143064285Y-59612380D01*
X143397619Y-59993333D01*
X143254761Y-59993333D01*
X143159523Y-60040952D01*
X143111904Y-60088571D01*
X143064285Y-60183809D01*
X143064285Y-60421904D01*
X143111904Y-60517142D01*
X143159523Y-60564761D01*
X143254761Y-60612380D01*
X143540476Y-60612380D01*
X143635714Y-60564761D01*
X143683333Y-60517142D01*
X143635714Y-57167619D02*
X143588095Y-57120000D01*
X143492857Y-57072380D01*
X143254761Y-57072380D01*
X143159523Y-57120000D01*
X143111904Y-57167619D01*
X143064285Y-57262857D01*
X143064285Y-57358095D01*
X143111904Y-57500952D01*
X143683333Y-58072380D01*
X143064285Y-58072380D01*
D11*
%TO.C,RGB4*%
X133700000Y-68780000D02*
G75*
G03*
X133700000Y-68980000I0J-100000D01*
G01*
X133700000Y-68980000D02*
G75*
G03*
X133700000Y-68780000I0J100000D01*
G01*
D12*
X135790000Y-68160000D02*
X135790000Y-68835000D01*
X138990000Y-70285000D02*
X138990000Y-70960000D01*
X136290000Y-70960000D02*
X135790000Y-70960000D01*
X135790000Y-70960000D02*
X135790000Y-70285000D01*
X138490000Y-68160000D02*
X138990000Y-68160000D01*
X138990000Y-68160000D02*
X138990000Y-68835000D01*
X138990000Y-70960000D02*
X138490000Y-70960000D01*
X136290000Y-68160000D02*
X135790000Y-68160000D01*
D11*
%TO.C,RGB1*%
X133700000Y-52780000D02*
G75*
G03*
X133700000Y-52580000I0J100000D01*
G01*
X133700000Y-52580000D02*
G75*
G03*
X133700000Y-52780000I0J-100000D01*
G01*
D12*
X138990000Y-51960000D02*
X138990000Y-52635000D01*
X138990000Y-54760000D02*
X138490000Y-54760000D01*
X138490000Y-51960000D02*
X138990000Y-51960000D01*
X135790000Y-51960000D02*
X135790000Y-52635000D01*
X136290000Y-54760000D02*
X135790000Y-54760000D01*
X138990000Y-54085000D02*
X138990000Y-54760000D01*
X136290000Y-51960000D02*
X135790000Y-51960000D01*
X135790000Y-54760000D02*
X135790000Y-54085000D01*
D11*
%TO.C,RGB3*%
X133700000Y-63380000D02*
G75*
G03*
X133700000Y-63580000I0J-100000D01*
G01*
X133700000Y-63580000D02*
G75*
G03*
X133700000Y-63380000I0J100000D01*
G01*
D12*
X136290000Y-62760000D02*
X135790000Y-62760000D01*
X138490000Y-62760000D02*
X138990000Y-62760000D01*
X138990000Y-62760000D02*
X138990000Y-63435000D01*
X138990000Y-65560000D02*
X138490000Y-65560000D01*
X136290000Y-65560000D02*
X135790000Y-65560000D01*
X138990000Y-64885000D02*
X138990000Y-65560000D01*
X135790000Y-65560000D02*
X135790000Y-64885000D01*
X135790000Y-62760000D02*
X135790000Y-63435000D01*
D11*
%TO.C,RGB2*%
X133700000Y-58180000D02*
G75*
G03*
X133700000Y-57980000I0J100000D01*
G01*
X133700000Y-57980000D02*
G75*
G03*
X133700000Y-58180000I0J-100000D01*
G01*
D12*
X136290000Y-57360000D02*
X135790000Y-57360000D01*
X138990000Y-59485000D02*
X138990000Y-60160000D01*
X136290000Y-60160000D02*
X135790000Y-60160000D01*
X135790000Y-60160000D02*
X135790000Y-59485000D01*
X138990000Y-57360000D02*
X138990000Y-58035000D01*
X135790000Y-57360000D02*
X135790000Y-58035000D01*
X138990000Y-60160000D02*
X138490000Y-60160000D01*
X138490000Y-57360000D02*
X138990000Y-57360000D01*
%TD*%
M02*
