M48
INCH,TZ
T1C0.0236
T2C0.0394
%
G90
G05
T2
X11500Y-7925
X11500Y-8925
X11500Y-9925
X11500Y-10925
X11500Y-11925
X11500Y-12925
X11500Y-13925
X11500Y-14925
X11500Y-15925
X11500Y-16925
X11500Y-19713
X11500Y-20713
X11500Y-21713
X11500Y-22713
X11500Y-23713
X11500Y-24713
X11500Y-25713
X11500Y-26713
X11500Y-27713
X11500Y-28713
X16500Y-7925
X16500Y-8925
X16500Y-9925
X16500Y-10925
X16500Y-11925
X16500Y-12925
X16500Y-13925
X16500Y-14925
X16500Y-15925
X16500Y-16925
X16500Y-19713
X16500Y-20713
X16500Y-21713
X16500Y-22713
X16500Y-23713
X16500Y-24713
X16500Y-25713
X16500Y-26713
X16500Y-27713
X16500Y-28713
X19287Y-7925
X19287Y-8925
X19287Y-9925
X19287Y-10925
X19287Y-11925
X19287Y-12925
X19287Y-13925
X19287Y-14925
X19287Y-15925
X19287Y-16925
X19287Y-19713
X19287Y-20713
X19287Y-21713
X19287Y-22713
X19287Y-23713
X19287Y-24713
X19287Y-25713
X19287Y-26713
X19287Y-27713
X19287Y-28713
X24287Y-7925
X24287Y-8925
X24287Y-9925
X24287Y-10925
X24287Y-11925
X24287Y-12925
X24287Y-13925
X24287Y-14925
X24287Y-15925
X24287Y-16925
X24287Y-19713
X24287Y-20713
X24287Y-21713
X24287Y-22713
X24287Y-23713
X24287Y-24713
X24287Y-25713
X24287Y-26713
X24287Y-27713
X24287Y-28713
X27075Y-7925
X27075Y-8925
X27075Y-9925
X27075Y-10925
X27075Y-11925
X27075Y-12925
X27075Y-13925
X27075Y-14925
X27075Y-15925
X27075Y-16925
X27075Y-19713
X27075Y-20713
X27075Y-21713
X27075Y-22713
X27075Y-23713
X27075Y-24713
X27075Y-25713
X27075Y-26713
X27075Y-27713
X27075Y-28713
X32075Y-7925
X32075Y-8925
X32075Y-9925
X32075Y-10925
X32075Y-11925
X32075Y-12925
X32075Y-13925
X32075Y-14925
X32075Y-15925
X32075Y-16925
X32075Y-19713
X32075Y-20713
X32075Y-21713
X32075Y-22713
X32075Y-23713
X32075Y-24713
X32075Y-25713
X32075Y-26713
X32075Y-27713
X32075Y-28713
X34862Y-7925
X34862Y-8925
X34862Y-9925
X34862Y-10925
X34862Y-11925
X34862Y-12925
X34862Y-13925
X34862Y-14925
X34862Y-15925
X34862Y-16925
X34862Y-19713
X34862Y-20713
X34862Y-21713
X34862Y-22713
X34862Y-23713
X34862Y-24713
X34862Y-25713
X34862Y-26713
X34862Y-27713
X34862Y-28713
X39862Y-7925
X39862Y-8925
X39862Y-9925
X39862Y-10925
X39862Y-11925
X39862Y-12925
X39862Y-13925
X39862Y-14925
X39862Y-15925
X39862Y-16925
X39862Y-19713
X39862Y-20713
X39862Y-21713
X39862Y-22713
X39862Y-23713
X39862Y-24713
X39862Y-25713
X39862Y-26713
X39862Y-27713
X39862Y-28713
X42650Y-7925
X42650Y-8925
X42650Y-9925
X42650Y-10925
X42650Y-11925
X42650Y-12925
X42650Y-13925
X42650Y-14925
X42650Y-15925
X42650Y-16925
X42650Y-19713
X42650Y-20713
X42650Y-21713
X42650Y-22713
X42650Y-23713
X42650Y-24713
X42650Y-25713
X42650Y-26713
X42650Y-27713
X42650Y-28713
X47650Y-7925
X47650Y-8925
X47650Y-9925
X47650Y-10925
X47650Y-11925
X47650Y-12925
X47650Y-13925
X47650Y-14925
X47650Y-15925
X47650Y-16925
X47650Y-19713
X47650Y-20713
X47650Y-21713
X47650Y-22713
X47650Y-23713
X47650Y-24713
X47650Y-25713
X47650Y-26713
X47650Y-27713
X47650Y-28713
X50437Y-20685
X50437Y-21685
X50437Y-22685
X50437Y-23685
X50437Y-24685
X50437Y-25685
X50437Y-26685
X50437Y-27685
X50437Y-9953
X50437Y-10953
X50437Y-11953
X50437Y-12953
X50437Y-13953
X50437Y-14953
X50437Y-15953
X57437Y-20685
X57437Y-21685
X57437Y-22685
X57437Y-23685
X57437Y-24685
X57437Y-25685
X57437Y-26685
X57437Y-27685
X57437Y-9953
X57437Y-10953
X57437Y-11953
X57437Y-12953
X57437Y-13953
X57437Y-14953
X57437Y-15953
T1
G00X52185Y-14431
M15
G01X52185Y-14864
M16
G05
G00X52185Y-16175
M15
G01X52185Y-16411
M16
G05
G00X55587Y-14431
M15
G01X55587Y-14864
M16
G05
G00X55587Y-16175
M15
G01X55587Y-16411
M16
G05
T0
M30
