%TF.GenerationSoftware,KiCad,Pcbnew,(6.0.2)*%
%TF.CreationDate,2022-03-21T16:25:24-04:00*%
%TF.ProjectId,Panel_Design_1,50616e65-6c5f-4446-9573-69676e5f312e,rev?*%
%TF.SameCoordinates,Original*%
%TF.FileFunction,Copper,L2,Bot*%
%TF.FilePolarity,Positive*%
%FSLAX46Y46*%
G04 Gerber Fmt 4.6, Leading zero omitted, Abs format (unit mm)*
G04 Created by KiCad (PCBNEW (6.0.2)) date 2022-03-21 16:25:24*
%MOMM*%
%LPD*%
G01*
G04 APERTURE LIST*
%TA.AperFunction,ComponentPad*%
%ADD10R,1.700000X1.700000*%
%TD*%
%TA.AperFunction,ComponentPad*%
%ADD11O,1.700000X1.700000*%
%TD*%
%TA.AperFunction,ComponentPad*%
%ADD12O,1.000000X2.100000*%
%TD*%
%TA.AperFunction,ComponentPad*%
%ADD13O,1.000000X1.600000*%
%TD*%
%TA.AperFunction,SMDPad,CuDef*%
%ADD14R,1.400000X0.800000*%
%TD*%
%TA.AperFunction,Conductor*%
%ADD15C,0.250000*%
%TD*%
G04 APERTURE END LIST*
D10*
%TO.P,J50,1,Pin_1*%
%TO.N,Net-(G1-Pad2)*%
X121029999Y-50069999D03*
D11*
%TO.P,J50,2,Pin_2*%
%TO.N,Net-(G2-Pad2)*%
X121029999Y-52609999D03*
%TO.P,J50,3,Pin_3*%
%TO.N,Net-(G3-Pad2)*%
X121029999Y-55149999D03*
%TO.P,J50,4,Pin_4*%
%TO.N,Net-(G4-Pad2)*%
X121029999Y-57689999D03*
%TO.P,J50,5,Pin_5*%
%TO.N,Net-(G5-Pad2)*%
X121029999Y-60229999D03*
%TO.P,J50,6,Pin_6*%
%TO.N,Net-(G6-Pad2)*%
X121029999Y-62769999D03*
%TO.P,J50,7,Pin_7*%
%TO.N,Net-(G7-Pad2)*%
X121029999Y-65309999D03*
%TO.P,J50,8,Pin_8*%
%TO.N,Net-(G8-Pad2)*%
X121029999Y-67849999D03*
%TO.P,J50,9,Pin_9*%
%TO.N,Net-(G9-Pad2)*%
X121029999Y-70389999D03*
%TO.P,J50,10,Pin_10*%
%TO.N,Net-(G10-Pad2)*%
X121029999Y-72929999D03*
%TD*%
D10*
%TO.P,J49,1,Pin_1*%
%TO.N,Net-(G1-Pad1)*%
X108329999Y-50069999D03*
D11*
%TO.P,J49,2,Pin_2*%
%TO.N,Net-(G2-Pad1)*%
X108329999Y-52609999D03*
%TO.P,J49,3,Pin_3*%
%TO.N,Net-(G3-Pad1)*%
X108329999Y-55149999D03*
%TO.P,J49,4,Pin_4*%
%TO.N,Net-(G4-Pad1)*%
X108329999Y-57689999D03*
%TO.P,J49,5,Pin_5*%
%TO.N,Net-(G5-Pad1)*%
X108329999Y-60229999D03*
%TO.P,J49,6,Pin_6*%
%TO.N,Net-(G6-Pad1)*%
X108329999Y-62769999D03*
%TO.P,J49,7,Pin_7*%
%TO.N,Net-(G7-Pad1)*%
X108329999Y-65309999D03*
%TO.P,J49,8,Pin_8*%
%TO.N,Net-(G8-Pad1)*%
X108329999Y-67849999D03*
%TO.P,J49,9,Pin_9*%
%TO.N,Net-(G9-Pad1)*%
X108329999Y-70389999D03*
%TO.P,J49,10,Pin_10*%
%TO.N,Net-(G10-Pad1)*%
X108329999Y-72929999D03*
%TD*%
D10*
%TO.P,J48,1,Pin_1*%
%TO.N,Net-(G1-Pad2)*%
X101249999Y-50069999D03*
D11*
%TO.P,J48,2,Pin_2*%
%TO.N,Net-(G2-Pad2)*%
X101249999Y-52609999D03*
%TO.P,J48,3,Pin_3*%
%TO.N,Net-(G3-Pad2)*%
X101249999Y-55149999D03*
%TO.P,J48,4,Pin_4*%
%TO.N,Net-(G4-Pad2)*%
X101249999Y-57689999D03*
%TO.P,J48,5,Pin_5*%
%TO.N,Net-(G5-Pad2)*%
X101249999Y-60229999D03*
%TO.P,J48,6,Pin_6*%
%TO.N,Net-(G6-Pad2)*%
X101249999Y-62769999D03*
%TO.P,J48,7,Pin_7*%
%TO.N,Net-(G7-Pad2)*%
X101249999Y-65309999D03*
%TO.P,J48,8,Pin_8*%
%TO.N,Net-(G8-Pad2)*%
X101249999Y-67849999D03*
%TO.P,J48,9,Pin_9*%
%TO.N,Net-(G9-Pad2)*%
X101249999Y-70389999D03*
%TO.P,J48,10,Pin_10*%
%TO.N,Net-(G10-Pad2)*%
X101249999Y-72929999D03*
%TD*%
D10*
%TO.P,J47,1,Pin_1*%
%TO.N,Net-(G1-Pad1)*%
X88549999Y-50069999D03*
D11*
%TO.P,J47,2,Pin_2*%
%TO.N,Net-(G2-Pad1)*%
X88549999Y-52609999D03*
%TO.P,J47,3,Pin_3*%
%TO.N,Net-(G3-Pad1)*%
X88549999Y-55149999D03*
%TO.P,J47,4,Pin_4*%
%TO.N,Net-(G4-Pad1)*%
X88549999Y-57689999D03*
%TO.P,J47,5,Pin_5*%
%TO.N,Net-(G5-Pad1)*%
X88549999Y-60229999D03*
%TO.P,J47,6,Pin_6*%
%TO.N,Net-(G6-Pad1)*%
X88549999Y-62769999D03*
%TO.P,J47,7,Pin_7*%
%TO.N,Net-(G7-Pad1)*%
X88549999Y-65309999D03*
%TO.P,J47,8,Pin_8*%
%TO.N,Net-(G8-Pad1)*%
X88549999Y-67849999D03*
%TO.P,J47,9,Pin_9*%
%TO.N,Net-(G9-Pad1)*%
X88549999Y-70389999D03*
%TO.P,J47,10,Pin_10*%
%TO.N,Net-(G10-Pad1)*%
X88549999Y-72929999D03*
%TD*%
D10*
%TO.P,J46,1,Pin_1*%
%TO.N,Net-(G1-Pad2)*%
X81469999Y-50069999D03*
D11*
%TO.P,J46,2,Pin_2*%
%TO.N,Net-(G2-Pad2)*%
X81469999Y-52609999D03*
%TO.P,J46,3,Pin_3*%
%TO.N,Net-(G3-Pad2)*%
X81469999Y-55149999D03*
%TO.P,J46,4,Pin_4*%
%TO.N,Net-(G4-Pad2)*%
X81469999Y-57689999D03*
%TO.P,J46,5,Pin_5*%
%TO.N,Net-(G5-Pad2)*%
X81469999Y-60229999D03*
%TO.P,J46,6,Pin_6*%
%TO.N,Net-(G6-Pad2)*%
X81469999Y-62769999D03*
%TO.P,J46,7,Pin_7*%
%TO.N,Net-(G7-Pad2)*%
X81469999Y-65309999D03*
%TO.P,J46,8,Pin_8*%
%TO.N,Net-(G8-Pad2)*%
X81469999Y-67849999D03*
%TO.P,J46,9,Pin_9*%
%TO.N,Net-(G9-Pad2)*%
X81469999Y-70389999D03*
%TO.P,J46,10,Pin_10*%
%TO.N,Net-(G10-Pad2)*%
X81469999Y-72929999D03*
%TD*%
D10*
%TO.P,J45,1,Pin_1*%
%TO.N,Net-(G1-Pad1)*%
X68769999Y-50069999D03*
D11*
%TO.P,J45,2,Pin_2*%
%TO.N,Net-(G2-Pad1)*%
X68769999Y-52609999D03*
%TO.P,J45,3,Pin_3*%
%TO.N,Net-(G3-Pad1)*%
X68769999Y-55149999D03*
%TO.P,J45,4,Pin_4*%
%TO.N,Net-(G4-Pad1)*%
X68769999Y-57689999D03*
%TO.P,J45,5,Pin_5*%
%TO.N,Net-(G5-Pad1)*%
X68769999Y-60229999D03*
%TO.P,J45,6,Pin_6*%
%TO.N,Net-(G6-Pad1)*%
X68769999Y-62769999D03*
%TO.P,J45,7,Pin_7*%
%TO.N,Net-(G7-Pad1)*%
X68769999Y-65309999D03*
%TO.P,J45,8,Pin_8*%
%TO.N,Net-(G8-Pad1)*%
X68769999Y-67849999D03*
%TO.P,J45,9,Pin_9*%
%TO.N,Net-(G9-Pad1)*%
X68769999Y-70389999D03*
%TO.P,J45,10,Pin_10*%
%TO.N,Net-(G10-Pad1)*%
X68769999Y-72929999D03*
%TD*%
D10*
%TO.P,J44,1,Pin_1*%
%TO.N,Net-(G1-Pad2)*%
X61689999Y-50069999D03*
D11*
%TO.P,J44,2,Pin_2*%
%TO.N,Net-(G2-Pad2)*%
X61689999Y-52609999D03*
%TO.P,J44,3,Pin_3*%
%TO.N,Net-(G3-Pad2)*%
X61689999Y-55149999D03*
%TO.P,J44,4,Pin_4*%
%TO.N,Net-(G4-Pad2)*%
X61689999Y-57689999D03*
%TO.P,J44,5,Pin_5*%
%TO.N,Net-(G5-Pad2)*%
X61689999Y-60229999D03*
%TO.P,J44,6,Pin_6*%
%TO.N,Net-(G6-Pad2)*%
X61689999Y-62769999D03*
%TO.P,J44,7,Pin_7*%
%TO.N,Net-(G7-Pad2)*%
X61689999Y-65309999D03*
%TO.P,J44,8,Pin_8*%
%TO.N,Net-(G8-Pad2)*%
X61689999Y-67849999D03*
%TO.P,J44,9,Pin_9*%
%TO.N,Net-(G9-Pad2)*%
X61689999Y-70389999D03*
%TO.P,J44,10,Pin_10*%
%TO.N,Net-(G10-Pad2)*%
X61689999Y-72929999D03*
%TD*%
D10*
%TO.P,J43,1,Pin_1*%
%TO.N,Net-(G1-Pad1)*%
X48989999Y-50069999D03*
D11*
%TO.P,J43,2,Pin_2*%
%TO.N,Net-(G2-Pad1)*%
X48989999Y-52609999D03*
%TO.P,J43,3,Pin_3*%
%TO.N,Net-(G3-Pad1)*%
X48989999Y-55149999D03*
%TO.P,J43,4,Pin_4*%
%TO.N,Net-(G4-Pad1)*%
X48989999Y-57689999D03*
%TO.P,J43,5,Pin_5*%
%TO.N,Net-(G5-Pad1)*%
X48989999Y-60229999D03*
%TO.P,J43,6,Pin_6*%
%TO.N,Net-(G6-Pad1)*%
X48989999Y-62769999D03*
%TO.P,J43,7,Pin_7*%
%TO.N,Net-(G7-Pad1)*%
X48989999Y-65309999D03*
%TO.P,J43,8,Pin_8*%
%TO.N,Net-(G8-Pad1)*%
X48989999Y-67849999D03*
%TO.P,J43,9,Pin_9*%
%TO.N,Net-(G9-Pad1)*%
X48989999Y-70389999D03*
%TO.P,J43,10,Pin_10*%
%TO.N,Net-(G10-Pad1)*%
X48989999Y-72929999D03*
%TD*%
D10*
%TO.P,J42,1,Pin_1*%
%TO.N,Net-(G1-Pad2)*%
X41909999Y-50069999D03*
D11*
%TO.P,J42,2,Pin_2*%
%TO.N,Net-(G2-Pad2)*%
X41909999Y-52609999D03*
%TO.P,J42,3,Pin_3*%
%TO.N,Net-(G3-Pad2)*%
X41909999Y-55149999D03*
%TO.P,J42,4,Pin_4*%
%TO.N,Net-(G4-Pad2)*%
X41909999Y-57689999D03*
%TO.P,J42,5,Pin_5*%
%TO.N,Net-(G5-Pad2)*%
X41909999Y-60229999D03*
%TO.P,J42,6,Pin_6*%
%TO.N,Net-(G6-Pad2)*%
X41909999Y-62769999D03*
%TO.P,J42,7,Pin_7*%
%TO.N,Net-(G7-Pad2)*%
X41909999Y-65309999D03*
%TO.P,J42,8,Pin_8*%
%TO.N,Net-(G8-Pad2)*%
X41909999Y-67849999D03*
%TO.P,J42,9,Pin_9*%
%TO.N,Net-(G9-Pad2)*%
X41909999Y-70389999D03*
%TO.P,J42,10,Pin_10*%
%TO.N,Net-(G10-Pad2)*%
X41909999Y-72929999D03*
%TD*%
D10*
%TO.P,J41,1,Pin_1*%
%TO.N,Net-(G1-Pad1)*%
X29209999Y-50069999D03*
D11*
%TO.P,J41,2,Pin_2*%
%TO.N,Net-(G2-Pad1)*%
X29209999Y-52609999D03*
%TO.P,J41,3,Pin_3*%
%TO.N,Net-(G3-Pad1)*%
X29209999Y-55149999D03*
%TO.P,J41,4,Pin_4*%
%TO.N,Net-(G4-Pad1)*%
X29209999Y-57689999D03*
%TO.P,J41,5,Pin_5*%
%TO.N,Net-(G5-Pad1)*%
X29209999Y-60229999D03*
%TO.P,J41,6,Pin_6*%
%TO.N,Net-(G6-Pad1)*%
X29209999Y-62769999D03*
%TO.P,J41,7,Pin_7*%
%TO.N,Net-(G7-Pad1)*%
X29209999Y-65309999D03*
%TO.P,J41,8,Pin_8*%
%TO.N,Net-(G8-Pad1)*%
X29209999Y-67849999D03*
%TO.P,J41,9,Pin_9*%
%TO.N,Net-(G9-Pad1)*%
X29209999Y-70389999D03*
%TO.P,J41,10,Pin_10*%
%TO.N,Net-(G10-Pad1)*%
X29209999Y-72929999D03*
%TD*%
D10*
%TO.P,J40,1,Pin_1*%
%TO.N,Net-(G1-Pad2)*%
X121029999Y-20129999D03*
D11*
%TO.P,J40,2,Pin_2*%
%TO.N,Net-(G2-Pad2)*%
X121029999Y-22669999D03*
%TO.P,J40,3,Pin_3*%
%TO.N,Net-(G3-Pad2)*%
X121029999Y-25209999D03*
%TO.P,J40,4,Pin_4*%
%TO.N,Net-(G4-Pad2)*%
X121029999Y-27749999D03*
%TO.P,J40,5,Pin_5*%
%TO.N,Net-(G5-Pad2)*%
X121029999Y-30289999D03*
%TO.P,J40,6,Pin_6*%
%TO.N,Net-(G6-Pad2)*%
X121029999Y-32829999D03*
%TO.P,J40,7,Pin_7*%
%TO.N,Net-(G7-Pad2)*%
X121029999Y-35369999D03*
%TO.P,J40,8,Pin_8*%
%TO.N,Net-(G8-Pad2)*%
X121029999Y-37909999D03*
%TO.P,J40,9,Pin_9*%
%TO.N,Net-(G9-Pad2)*%
X121029999Y-40449999D03*
%TO.P,J40,10,Pin_10*%
%TO.N,Net-(G10-Pad2)*%
X121029999Y-42989999D03*
%TD*%
D10*
%TO.P,J39,1,Pin_1*%
%TO.N,Net-(G1-Pad1)*%
X108329999Y-20129999D03*
D11*
%TO.P,J39,2,Pin_2*%
%TO.N,Net-(G2-Pad1)*%
X108329999Y-22669999D03*
%TO.P,J39,3,Pin_3*%
%TO.N,Net-(G3-Pad1)*%
X108329999Y-25209999D03*
%TO.P,J39,4,Pin_4*%
%TO.N,Net-(G4-Pad1)*%
X108329999Y-27749999D03*
%TO.P,J39,5,Pin_5*%
%TO.N,Net-(G5-Pad1)*%
X108329999Y-30289999D03*
%TO.P,J39,6,Pin_6*%
%TO.N,Net-(G6-Pad1)*%
X108329999Y-32829999D03*
%TO.P,J39,7,Pin_7*%
%TO.N,Net-(G7-Pad1)*%
X108329999Y-35369999D03*
%TO.P,J39,8,Pin_8*%
%TO.N,Net-(G8-Pad1)*%
X108329999Y-37909999D03*
%TO.P,J39,9,Pin_9*%
%TO.N,Net-(G9-Pad1)*%
X108329999Y-40449999D03*
%TO.P,J39,10,Pin_10*%
%TO.N,Net-(G10-Pad1)*%
X108329999Y-42989999D03*
%TD*%
D10*
%TO.P,J38,1,Pin_1*%
%TO.N,Net-(G1-Pad2)*%
X101249999Y-20129999D03*
D11*
%TO.P,J38,2,Pin_2*%
%TO.N,Net-(G2-Pad2)*%
X101249999Y-22669999D03*
%TO.P,J38,3,Pin_3*%
%TO.N,Net-(G3-Pad2)*%
X101249999Y-25209999D03*
%TO.P,J38,4,Pin_4*%
%TO.N,Net-(G4-Pad2)*%
X101249999Y-27749999D03*
%TO.P,J38,5,Pin_5*%
%TO.N,Net-(G5-Pad2)*%
X101249999Y-30289999D03*
%TO.P,J38,6,Pin_6*%
%TO.N,Net-(G6-Pad2)*%
X101249999Y-32829999D03*
%TO.P,J38,7,Pin_7*%
%TO.N,Net-(G7-Pad2)*%
X101249999Y-35369999D03*
%TO.P,J38,8,Pin_8*%
%TO.N,Net-(G8-Pad2)*%
X101249999Y-37909999D03*
%TO.P,J38,9,Pin_9*%
%TO.N,Net-(G9-Pad2)*%
X101249999Y-40449999D03*
%TO.P,J38,10,Pin_10*%
%TO.N,Net-(G10-Pad2)*%
X101249999Y-42989999D03*
%TD*%
D10*
%TO.P,J37,1,Pin_1*%
%TO.N,Net-(G1-Pad1)*%
X88549999Y-20129999D03*
D11*
%TO.P,J37,2,Pin_2*%
%TO.N,Net-(G2-Pad1)*%
X88549999Y-22669999D03*
%TO.P,J37,3,Pin_3*%
%TO.N,Net-(G3-Pad1)*%
X88549999Y-25209999D03*
%TO.P,J37,4,Pin_4*%
%TO.N,Net-(G4-Pad1)*%
X88549999Y-27749999D03*
%TO.P,J37,5,Pin_5*%
%TO.N,Net-(G5-Pad1)*%
X88549999Y-30289999D03*
%TO.P,J37,6,Pin_6*%
%TO.N,Net-(G6-Pad1)*%
X88549999Y-32829999D03*
%TO.P,J37,7,Pin_7*%
%TO.N,Net-(G7-Pad1)*%
X88549999Y-35369999D03*
%TO.P,J37,8,Pin_8*%
%TO.N,Net-(G8-Pad1)*%
X88549999Y-37909999D03*
%TO.P,J37,9,Pin_9*%
%TO.N,Net-(G9-Pad1)*%
X88549999Y-40449999D03*
%TO.P,J37,10,Pin_10*%
%TO.N,Net-(G10-Pad1)*%
X88549999Y-42989999D03*
%TD*%
D10*
%TO.P,J36,1,Pin_1*%
%TO.N,Net-(G1-Pad2)*%
X81469999Y-20129999D03*
D11*
%TO.P,J36,2,Pin_2*%
%TO.N,Net-(G2-Pad2)*%
X81469999Y-22669999D03*
%TO.P,J36,3,Pin_3*%
%TO.N,Net-(G3-Pad2)*%
X81469999Y-25209999D03*
%TO.P,J36,4,Pin_4*%
%TO.N,Net-(G4-Pad2)*%
X81469999Y-27749999D03*
%TO.P,J36,5,Pin_5*%
%TO.N,Net-(G5-Pad2)*%
X81469999Y-30289999D03*
%TO.P,J36,6,Pin_6*%
%TO.N,Net-(G6-Pad2)*%
X81469999Y-32829999D03*
%TO.P,J36,7,Pin_7*%
%TO.N,Net-(G7-Pad2)*%
X81469999Y-35369999D03*
%TO.P,J36,8,Pin_8*%
%TO.N,Net-(G8-Pad2)*%
X81469999Y-37909999D03*
%TO.P,J36,9,Pin_9*%
%TO.N,Net-(G9-Pad2)*%
X81469999Y-40449999D03*
%TO.P,J36,10,Pin_10*%
%TO.N,Net-(G10-Pad2)*%
X81469999Y-42989999D03*
%TD*%
D10*
%TO.P,J35,1,Pin_1*%
%TO.N,Net-(G1-Pad1)*%
X68769999Y-20129999D03*
D11*
%TO.P,J35,2,Pin_2*%
%TO.N,Net-(G2-Pad1)*%
X68769999Y-22669999D03*
%TO.P,J35,3,Pin_3*%
%TO.N,Net-(G3-Pad1)*%
X68769999Y-25209999D03*
%TO.P,J35,4,Pin_4*%
%TO.N,Net-(G4-Pad1)*%
X68769999Y-27749999D03*
%TO.P,J35,5,Pin_5*%
%TO.N,Net-(G5-Pad1)*%
X68769999Y-30289999D03*
%TO.P,J35,6,Pin_6*%
%TO.N,Net-(G6-Pad1)*%
X68769999Y-32829999D03*
%TO.P,J35,7,Pin_7*%
%TO.N,Net-(G7-Pad1)*%
X68769999Y-35369999D03*
%TO.P,J35,8,Pin_8*%
%TO.N,Net-(G8-Pad1)*%
X68769999Y-37909999D03*
%TO.P,J35,9,Pin_9*%
%TO.N,Net-(G9-Pad1)*%
X68769999Y-40449999D03*
%TO.P,J35,10,Pin_10*%
%TO.N,Net-(G10-Pad1)*%
X68769999Y-42989999D03*
%TD*%
D10*
%TO.P,J34,1,Pin_1*%
%TO.N,Net-(G1-Pad2)*%
X61689999Y-20129999D03*
D11*
%TO.P,J34,2,Pin_2*%
%TO.N,Net-(G2-Pad2)*%
X61689999Y-22669999D03*
%TO.P,J34,3,Pin_3*%
%TO.N,Net-(G3-Pad2)*%
X61689999Y-25209999D03*
%TO.P,J34,4,Pin_4*%
%TO.N,Net-(G4-Pad2)*%
X61689999Y-27749999D03*
%TO.P,J34,5,Pin_5*%
%TO.N,Net-(G5-Pad2)*%
X61689999Y-30289999D03*
%TO.P,J34,6,Pin_6*%
%TO.N,Net-(G6-Pad2)*%
X61689999Y-32829999D03*
%TO.P,J34,7,Pin_7*%
%TO.N,Net-(G7-Pad2)*%
X61689999Y-35369999D03*
%TO.P,J34,8,Pin_8*%
%TO.N,Net-(G8-Pad2)*%
X61689999Y-37909999D03*
%TO.P,J34,9,Pin_9*%
%TO.N,Net-(G9-Pad2)*%
X61689999Y-40449999D03*
%TO.P,J34,10,Pin_10*%
%TO.N,Net-(G10-Pad2)*%
X61689999Y-42989999D03*
%TD*%
D10*
%TO.P,J33,1,Pin_1*%
%TO.N,Net-(G1-Pad1)*%
X48989999Y-20129999D03*
D11*
%TO.P,J33,2,Pin_2*%
%TO.N,Net-(G2-Pad1)*%
X48989999Y-22669999D03*
%TO.P,J33,3,Pin_3*%
%TO.N,Net-(G3-Pad1)*%
X48989999Y-25209999D03*
%TO.P,J33,4,Pin_4*%
%TO.N,Net-(G4-Pad1)*%
X48989999Y-27749999D03*
%TO.P,J33,5,Pin_5*%
%TO.N,Net-(G5-Pad1)*%
X48989999Y-30289999D03*
%TO.P,J33,6,Pin_6*%
%TO.N,Net-(G6-Pad1)*%
X48989999Y-32829999D03*
%TO.P,J33,7,Pin_7*%
%TO.N,Net-(G7-Pad1)*%
X48989999Y-35369999D03*
%TO.P,J33,8,Pin_8*%
%TO.N,Net-(G8-Pad1)*%
X48989999Y-37909999D03*
%TO.P,J33,9,Pin_9*%
%TO.N,Net-(G9-Pad1)*%
X48989999Y-40449999D03*
%TO.P,J33,10,Pin_10*%
%TO.N,Net-(G10-Pad1)*%
X48989999Y-42989999D03*
%TD*%
D10*
%TO.P,J4,1,Pin_1*%
%TO.N,Net-(G1-Pad2)*%
X41909999Y-20129999D03*
D11*
%TO.P,J4,2,Pin_2*%
%TO.N,Net-(G2-Pad2)*%
X41909999Y-22669999D03*
%TO.P,J4,3,Pin_3*%
%TO.N,Net-(G3-Pad2)*%
X41909999Y-25209999D03*
%TO.P,J4,4,Pin_4*%
%TO.N,Net-(G4-Pad2)*%
X41909999Y-27749999D03*
%TO.P,J4,5,Pin_5*%
%TO.N,Net-(G5-Pad2)*%
X41909999Y-30289999D03*
%TO.P,J4,6,Pin_6*%
%TO.N,Net-(G6-Pad2)*%
X41909999Y-32829999D03*
%TO.P,J4,7,Pin_7*%
%TO.N,Net-(G7-Pad2)*%
X41909999Y-35369999D03*
%TO.P,J4,8,Pin_8*%
%TO.N,Net-(G8-Pad2)*%
X41909999Y-37909999D03*
%TO.P,J4,9,Pin_9*%
%TO.N,Net-(G9-Pad2)*%
X41909999Y-40449999D03*
%TO.P,J4,10,Pin_10*%
%TO.N,Net-(G10-Pad2)*%
X41909999Y-42989999D03*
%TD*%
%TO.P,J13,8,Pin_8*%
%TO.N,Net-(J13-Pad8)*%
X128110000Y-70320000D03*
%TO.P,J13,7,Pin_7*%
%TO.N,Net-(J13-Pad7)*%
X128110000Y-67780000D03*
%TO.P,J13,6,Pin_6*%
%TO.N,Net-(J13-Pad6)*%
X128110000Y-65240000D03*
%TO.P,J13,5,Pin_5*%
%TO.N,Net-(J13-Pad5)*%
X128110000Y-62700000D03*
%TO.P,J13,4,Pin_4*%
%TO.N,Net-(J13-Pad4)*%
X128110000Y-60160000D03*
%TO.P,J13,3,Pin_3*%
%TO.N,Net-(J13-Pad3)*%
X128110000Y-57620000D03*
%TO.P,J13,2,Pin_2*%
%TO.N,Net-(J13-Pad2)*%
X128110000Y-55080000D03*
D10*
%TO.P,J13,1,Pin_1*%
%TO.N,Net-(J13-Pad1)*%
X128110000Y-52540000D03*
%TD*%
%TO.P,J2,1,Pin_1*%
%TO.N,Net-(G1-Pad1)*%
X29209999Y-20129999D03*
D11*
%TO.P,J2,2,Pin_2*%
%TO.N,Net-(G2-Pad1)*%
X29209999Y-22669999D03*
%TO.P,J2,3,Pin_3*%
%TO.N,Net-(G3-Pad1)*%
X29209999Y-25209999D03*
%TO.P,J2,4,Pin_4*%
%TO.N,Net-(G4-Pad1)*%
X29209999Y-27749999D03*
%TO.P,J2,5,Pin_5*%
%TO.N,Net-(G5-Pad1)*%
X29209999Y-30289999D03*
%TO.P,J2,6,Pin_6*%
%TO.N,Net-(G6-Pad1)*%
X29209999Y-32829999D03*
%TO.P,J2,7,Pin_7*%
%TO.N,Net-(G7-Pad1)*%
X29209999Y-35369999D03*
%TO.P,J2,8,Pin_8*%
%TO.N,Net-(G8-Pad1)*%
X29209999Y-37909999D03*
%TO.P,J2,9,Pin_9*%
%TO.N,Net-(G9-Pad1)*%
X29209999Y-40449999D03*
%TO.P,J2,10,Pin_10*%
%TO.N,Net-(G10-Pad1)*%
X29209999Y-42989999D03*
%TD*%
%TO.P,J18,7,Pin_7*%
%TO.N,Net-(J18-Pad7)*%
X128110001Y-25279998D03*
%TO.P,J18,6,Pin_6*%
%TO.N,Net-(J18-Pad6)*%
X128110001Y-27819998D03*
%TO.P,J18,5,Pin_5*%
%TO.N,Net-(J18-Pad5)*%
X128110001Y-30359998D03*
%TO.P,J18,4,Pin_4*%
%TO.N,Net-(J18-Pad4)*%
X128110001Y-32899998D03*
%TO.P,J18,3,Pin_3*%
%TO.N,Net-(J18-Pad3)*%
X128110001Y-35439998D03*
%TO.P,J18,2,Pin_2*%
%TO.N,Net-(J18-Pad2)*%
X128110001Y-37979998D03*
D10*
%TO.P,J18,1,Pin_1*%
%TO.N,GND_2*%
X128110001Y-40519998D03*
%TD*%
D11*
%TO.P,J25,7,Pin_7*%
%TO.N,unconnected-(J25-Pad7)*%
X145890001Y-40519998D03*
%TO.P,J25,6,Pin_6*%
%TO.N,Net-(J25-Pad6)*%
X145890001Y-37979998D03*
%TO.P,J25,5,Pin_5*%
%TO.N,GND_2*%
X145890001Y-35439998D03*
%TO.P,J25,4,Pin_4*%
%TO.N,Net-(J25-Pad4)*%
X145890001Y-32899998D03*
%TO.P,J25,3,Pin_3*%
%TO.N,Net-(J25-Pad3)*%
X145890001Y-30359998D03*
%TO.P,J25,2,Pin_2*%
%TO.N,Net-(J25-Pad2)*%
X145890001Y-27819998D03*
D10*
%TO.P,J25,1,Pin_1*%
%TO.N,Net-(J25-Pad1)*%
X145890001Y-25279998D03*
%TD*%
D11*
%TO.P,J14,8,Pin_8*%
%TO.N,Net-(J14-Pad8)*%
X145890000Y-70320000D03*
%TO.P,J14,7,Pin_7*%
%TO.N,Net-(J14-Pad7)*%
X145890000Y-67780000D03*
%TO.P,J14,6,Pin_6*%
%TO.N,Net-(J14-Pad6)*%
X145890000Y-65240000D03*
%TO.P,J14,5,Pin_5*%
%TO.N,Net-(J14-Pad5)*%
X145890000Y-62700000D03*
%TO.P,J14,4,Pin_4*%
%TO.N,Net-(J14-Pad4)*%
X145890000Y-60160000D03*
%TO.P,J14,3,Pin_3*%
%TO.N,Net-(J14-Pad3)*%
X145890000Y-57620000D03*
%TO.P,J14,2,Pin_2*%
%TO.N,Net-(J14-Pad2)*%
X145890000Y-55080000D03*
D10*
%TO.P,J14,1,Pin_1*%
%TO.N,Net-(J14-Pad1)*%
X145890000Y-52540000D03*
%TD*%
D12*
%TO.P,USB1,13,SHIELD*%
%TO.N,Net-(J25-Pad6)*%
X132550001Y-37204998D03*
D13*
X132550001Y-41384998D03*
D12*
X141190001Y-37204998D03*
D13*
X141190001Y-41384998D03*
%TD*%
D14*
%TO.P,RGB4,4,A*%
%TO.N,Net-(J13-Pad8)*%
X134790000Y-70285000D03*
%TO.P,RGB4,3,RK*%
%TO.N,Net-(J14-Pad8)*%
X139990000Y-70285000D03*
%TO.P,RGB4,2,GK*%
%TO.N,Net-(J14-Pad7)*%
X139990000Y-68835000D03*
%TO.P,RGB4,1,BK*%
%TO.N,Net-(J13-Pad7)*%
X134790000Y-68835000D03*
%TD*%
%TO.P,RGB1,4,A*%
%TO.N,Net-(J13-Pad2)*%
X134790000Y-54085000D03*
%TO.P,RGB1,3,RK*%
%TO.N,Net-(J14-Pad2)*%
X139990000Y-54085000D03*
%TO.P,RGB1,2,GK*%
%TO.N,Net-(J14-Pad1)*%
X139990000Y-52635000D03*
%TO.P,RGB1,1,BK*%
%TO.N,Net-(J13-Pad1)*%
X134790000Y-52635000D03*
%TD*%
%TO.P,RGB3,4,A*%
%TO.N,Net-(J13-Pad6)*%
X134790000Y-64885000D03*
%TO.P,RGB3,3,RK*%
%TO.N,Net-(J14-Pad6)*%
X139990000Y-64885000D03*
%TO.P,RGB3,2,GK*%
%TO.N,Net-(J14-Pad5)*%
X139990000Y-63435000D03*
%TO.P,RGB3,1,BK*%
%TO.N,Net-(J13-Pad5)*%
X134790000Y-63435000D03*
%TD*%
%TO.P,RGB2,4,A*%
%TO.N,Net-(J13-Pad4)*%
X134790000Y-59485000D03*
%TO.P,RGB2,3,RK*%
%TO.N,Net-(J14-Pad4)*%
X139990000Y-59485000D03*
%TO.P,RGB2,2,GK*%
%TO.N,Net-(J14-Pad3)*%
X139990000Y-58035000D03*
%TO.P,RGB2,1,BK*%
%TO.N,Net-(J13-Pad3)*%
X134790000Y-58035000D03*
%TD*%
D15*
%TO.N,Net-(J13-Pad1)*%
X128205000Y-52635000D02*
X128110000Y-52540000D01*
X134790000Y-52635000D02*
X128205000Y-52635000D01*
%TO.N,Net-(J13-Pad2)*%
X129105000Y-54085000D02*
X128110000Y-55080000D01*
X134790000Y-54085000D02*
X129105000Y-54085000D01*
%TO.N,Net-(J13-Pad3)*%
X134790000Y-58035000D02*
X128525000Y-58035000D01*
X128525000Y-58035000D02*
X128110000Y-57620000D01*
%TO.N,Net-(J13-Pad4)*%
X128785000Y-59485000D02*
X128110000Y-60160000D01*
X134790000Y-59485000D02*
X128785000Y-59485000D01*
%TO.N,Net-(J13-Pad5)*%
X134790000Y-63435000D02*
X128845000Y-63435000D01*
X128845000Y-63435000D02*
X128110000Y-62700000D01*
%TO.N,Net-(J13-Pad6)*%
X134790000Y-64885000D02*
X128465000Y-64885000D01*
X128465000Y-64885000D02*
X128110000Y-65240000D01*
%TO.N,Net-(J13-Pad7)*%
X129165000Y-68835000D02*
X128110000Y-67780000D01*
X134790000Y-68835000D02*
X129165000Y-68835000D01*
%TO.N,Net-(J13-Pad8)*%
X134790000Y-70285000D02*
X128145000Y-70285000D01*
X128145000Y-70285000D02*
X128110000Y-70320000D01*
%TO.N,Net-(J14-Pad1)*%
X145795000Y-52635000D02*
X145890000Y-52540000D01*
X139990000Y-52635000D02*
X145795000Y-52635000D01*
%TO.N,Net-(J14-Pad2)*%
X139990000Y-54085000D02*
X144895000Y-54085000D01*
X144895000Y-54085000D02*
X145890000Y-55080000D01*
%TO.N,Net-(J14-Pad3)*%
X139990000Y-58035000D02*
X145475000Y-58035000D01*
X145475000Y-58035000D02*
X145890000Y-57620000D01*
%TO.N,Net-(J14-Pad4)*%
X139990000Y-59485000D02*
X145215000Y-59485000D01*
X145215000Y-59485000D02*
X145890000Y-60160000D01*
%TO.N,Net-(J14-Pad5)*%
X139990000Y-63435000D02*
X145155000Y-63435000D01*
X145155000Y-63435000D02*
X145890000Y-62700000D01*
%TO.N,Net-(J14-Pad6)*%
X145535000Y-64885000D02*
X145890000Y-65240000D01*
X139990000Y-64885000D02*
X145535000Y-64885000D01*
%TO.N,Net-(J14-Pad7)*%
X144835000Y-68835000D02*
X145890000Y-67780000D01*
X139990000Y-68835000D02*
X144835000Y-68835000D01*
%TO.N,Net-(J14-Pad8)*%
X139990000Y-70285000D02*
X145855000Y-70285000D01*
X145855000Y-70285000D02*
X145890000Y-70320000D01*
%TD*%
%TA.AperFunction,Conductor*%
%TO.N,GND_2*%
G36*
X145860058Y-20709498D02*
G01*
X145874859Y-20711803D01*
X145874862Y-20711803D01*
X145883731Y-20713184D01*
X145900000Y-20711057D01*
X145924568Y-20710264D01*
X146146986Y-20724842D01*
X146163327Y-20726993D01*
X146407825Y-20775627D01*
X146423744Y-20779893D01*
X146659791Y-20860020D01*
X146675018Y-20866327D01*
X146898593Y-20976582D01*
X146912866Y-20984823D01*
X147120134Y-21123314D01*
X147133211Y-21133347D01*
X147320633Y-21297712D01*
X147332287Y-21309366D01*
X147496652Y-21496788D01*
X147506685Y-21509865D01*
X147645176Y-21717133D01*
X147653417Y-21731406D01*
X147763672Y-21954981D01*
X147769979Y-21970208D01*
X147850106Y-22206255D01*
X147854372Y-22222174D01*
X147903006Y-22466671D01*
X147905157Y-22483012D01*
X147919265Y-22698266D01*
X147918240Y-22721302D01*
X147918197Y-22724852D01*
X147916815Y-22733728D01*
X147918455Y-22746268D01*
X147920937Y-22765249D01*
X147922001Y-22781587D01*
X147922001Y-40470670D01*
X147920501Y-40490054D01*
X147916815Y-40513728D01*
X147918942Y-40529997D01*
X147919735Y-40554565D01*
X147905157Y-40776983D01*
X147903006Y-40793324D01*
X147854372Y-41037822D01*
X147850106Y-41053741D01*
X147769979Y-41289788D01*
X147763672Y-41305015D01*
X147653417Y-41528590D01*
X147645176Y-41542863D01*
X147506685Y-41750131D01*
X147496655Y-41763204D01*
X147395984Y-41877998D01*
X147332287Y-41950630D01*
X147320633Y-41962284D01*
X147133207Y-42126652D01*
X147120134Y-42136682D01*
X146912866Y-42275173D01*
X146898593Y-42283414D01*
X146675018Y-42393669D01*
X146659791Y-42399976D01*
X146423744Y-42480103D01*
X146407825Y-42484369D01*
X146163328Y-42533003D01*
X146146987Y-42535154D01*
X145931733Y-42549262D01*
X145908697Y-42548237D01*
X145905147Y-42548194D01*
X145896271Y-42546812D01*
X145866348Y-42550725D01*
X145864750Y-42550934D01*
X145848412Y-42551998D01*
X142049269Y-42551998D01*
X141981148Y-42531996D01*
X141934655Y-42478340D01*
X141924551Y-42408066D01*
X141952746Y-42345009D01*
X142026155Y-42257524D01*
X142029122Y-42252126D01*
X142029126Y-42252121D01*
X142118468Y-42089606D01*
X142121434Y-42084211D01*
X142123847Y-42076606D01*
X142179374Y-41901562D01*
X142179374Y-41901561D01*
X142181236Y-41895692D01*
X142198501Y-41741771D01*
X142198501Y-41035229D01*
X142197815Y-41028225D01*
X142192464Y-40973658D01*
X142184081Y-40888165D01*
X142126917Y-40698829D01*
X142034067Y-40524202D01*
X142003475Y-40486693D01*
X144527252Y-40486693D01*
X144527549Y-40491846D01*
X144527549Y-40491849D01*
X144533012Y-40586588D01*
X144540111Y-40709713D01*
X144541248Y-40714759D01*
X144541249Y-40714765D01*
X144555607Y-40778473D01*
X144589223Y-40927637D01*
X144673267Y-41134614D01*
X144675966Y-41139018D01*
X144777689Y-41305015D01*
X144789988Y-41325086D01*
X144936251Y-41493936D01*
X145108127Y-41636630D01*
X145301001Y-41749336D01*
X145305826Y-41751178D01*
X145305827Y-41751179D01*
X145378613Y-41778973D01*
X145509693Y-41829028D01*
X145514761Y-41830059D01*
X145514764Y-41830060D01*
X145622018Y-41851881D01*
X145728598Y-41873565D01*
X145733773Y-41873755D01*
X145733775Y-41873755D01*
X145946674Y-41881562D01*
X145946678Y-41881562D01*
X145951838Y-41881751D01*
X145956958Y-41881095D01*
X145956960Y-41881095D01*
X146168289Y-41854023D01*
X146168290Y-41854023D01*
X146173417Y-41853366D01*
X146178367Y-41851881D01*
X146382430Y-41790659D01*
X146382435Y-41790657D01*
X146387385Y-41789172D01*
X146587995Y-41690894D01*
X146769861Y-41561171D01*
X146928097Y-41403487D01*
X146987595Y-41320687D01*
X147055436Y-41226275D01*
X147058454Y-41222075D01*
X147091811Y-41154583D01*
X147155137Y-41026451D01*
X147155138Y-41026449D01*
X147157431Y-41021809D01*
X147199829Y-40882262D01*
X147220866Y-40813021D01*
X147220866Y-40813019D01*
X147222371Y-40808067D01*
X147251530Y-40586588D01*
X147251612Y-40583238D01*
X147253075Y-40523363D01*
X147253075Y-40523359D01*
X147253157Y-40519998D01*
X147234853Y-40297359D01*
X147180432Y-40080700D01*
X147091355Y-39875838D01*
X146970015Y-39688275D01*
X146819671Y-39523049D01*
X146815620Y-39519850D01*
X146815616Y-39519846D01*
X146648415Y-39387798D01*
X146648411Y-39387796D01*
X146644360Y-39384596D01*
X146603054Y-39361794D01*
X146553085Y-39311362D01*
X146538313Y-39241919D01*
X146563429Y-39175514D01*
X146590781Y-39148907D01*
X146634604Y-39117648D01*
X146769861Y-39021171D01*
X146794324Y-38996794D01*
X146924436Y-38867135D01*
X146928097Y-38863487D01*
X146987595Y-38780687D01*
X147055436Y-38686275D01*
X147058454Y-38682075D01*
X147103368Y-38591199D01*
X147155137Y-38486451D01*
X147155138Y-38486449D01*
X147157431Y-38481809D01*
X147207870Y-38315794D01*
X147220866Y-38273021D01*
X147220866Y-38273019D01*
X147222371Y-38268067D01*
X147251530Y-38046588D01*
X147253157Y-37979998D01*
X147234853Y-37757359D01*
X147180432Y-37540700D01*
X147091355Y-37335838D01*
X147042905Y-37260945D01*
X146972823Y-37152615D01*
X146972821Y-37152612D01*
X146970015Y-37148275D01*
X146819671Y-36983049D01*
X146815620Y-36979850D01*
X146815616Y-36979846D01*
X146648415Y-36847798D01*
X146648411Y-36847796D01*
X146644360Y-36844596D01*
X146602570Y-36821527D01*
X146552599Y-36771095D01*
X146537827Y-36701652D01*
X146562943Y-36635246D01*
X146590295Y-36608639D01*
X146765329Y-36483790D01*
X146773201Y-36477137D01*
X146924053Y-36326810D01*
X146930731Y-36318963D01*
X147055004Y-36146018D01*
X147060314Y-36137181D01*
X147154671Y-35946265D01*
X147158470Y-35936670D01*
X147220378Y-35732908D01*
X147222556Y-35722835D01*
X147223987Y-35711960D01*
X147221776Y-35697776D01*
X147208618Y-35693998D01*
X144573226Y-35693998D01*
X144559695Y-35697971D01*
X144558258Y-35707964D01*
X144588566Y-35842444D01*
X144591646Y-35852273D01*
X144671771Y-36049601D01*
X144676414Y-36058792D01*
X144787695Y-36240386D01*
X144793778Y-36248697D01*
X144933214Y-36409665D01*
X144940581Y-36416881D01*
X145104435Y-36552914D01*
X145112882Y-36558829D01*
X145181970Y-36599201D01*
X145230694Y-36650840D01*
X145243765Y-36720623D01*
X145217034Y-36786394D01*
X145176585Y-36819750D01*
X145163608Y-36826505D01*
X145159475Y-36829608D01*
X145159472Y-36829610D01*
X145010483Y-36941474D01*
X144984966Y-36960633D01*
X144830630Y-37122136D01*
X144827716Y-37126408D01*
X144827715Y-37126409D01*
X144815405Y-37144455D01*
X144704744Y-37306678D01*
X144610689Y-37509303D01*
X144550990Y-37724568D01*
X144527252Y-37946693D01*
X144527549Y-37951846D01*
X144527549Y-37951849D01*
X144532842Y-38043639D01*
X144540111Y-38169713D01*
X144541248Y-38174759D01*
X144541249Y-38174765D01*
X144548976Y-38209051D01*
X144589223Y-38387637D01*
X144626334Y-38479030D01*
X144662537Y-38568188D01*
X144673267Y-38594614D01*
X144675966Y-38599018D01*
X144768750Y-38750428D01*
X144789988Y-38785086D01*
X144936251Y-38953936D01*
X145108127Y-39096630D01*
X145169861Y-39132704D01*
X145181446Y-39139474D01*
X145230170Y-39191112D01*
X145243241Y-39260895D01*
X145216510Y-39326667D01*
X145176056Y-39360025D01*
X145163608Y-39366505D01*
X145159475Y-39369608D01*
X145159472Y-39369610D01*
X145076451Y-39431944D01*
X144984966Y-39500633D01*
X144830630Y-39662136D01*
X144704744Y-39846678D01*
X144610689Y-40049303D01*
X144550990Y-40264568D01*
X144527252Y-40486693D01*
X142003475Y-40486693D01*
X141963710Y-40437936D01*
X141912961Y-40375711D01*
X141912958Y-40375708D01*
X141909066Y-40370936D01*
X141902725Y-40365690D01*
X141761426Y-40248797D01*
X141761422Y-40248795D01*
X141756676Y-40244868D01*
X141582702Y-40150800D01*
X141393769Y-40092316D01*
X141387644Y-40091672D01*
X141387643Y-40091672D01*
X141203205Y-40072287D01*
X141203203Y-40072287D01*
X141197076Y-40071643D01*
X141114577Y-40079151D01*
X141006252Y-40089009D01*
X141006249Y-40089010D01*
X141000113Y-40089568D01*
X140994207Y-40091306D01*
X140994203Y-40091307D01*
X140889077Y-40122247D01*
X140810382Y-40145408D01*
X140804924Y-40148261D01*
X140804920Y-40148263D01*
X140714148Y-40195718D01*
X140635111Y-40237038D01*
X140480976Y-40360966D01*
X140353847Y-40512472D01*
X140350880Y-40517870D01*
X140350876Y-40517875D01*
X140272096Y-40661178D01*
X140258568Y-40685785D01*
X140256707Y-40691652D01*
X140256706Y-40691654D01*
X140224454Y-40793324D01*
X140198766Y-40874304D01*
X140181501Y-41028225D01*
X140181501Y-41734767D01*
X140181801Y-41737823D01*
X140181801Y-41737830D01*
X140184116Y-41761434D01*
X140195921Y-41881831D01*
X140253085Y-42071167D01*
X140345935Y-42245794D01*
X140401584Y-42314026D01*
X140434092Y-42353885D01*
X140461646Y-42419317D01*
X140449451Y-42489258D01*
X140401378Y-42541503D01*
X140345438Y-42559200D01*
X140289327Y-42563213D01*
X140289325Y-42563213D01*
X140284841Y-42563534D01*
X140151737Y-42592489D01*
X140078451Y-42608431D01*
X140078448Y-42608432D01*
X140074062Y-42609386D01*
X140069860Y-42610953D01*
X140069854Y-42610955D01*
X139899044Y-42674665D01*
X139871954Y-42684769D01*
X139861175Y-42690655D01*
X139834502Y-42705219D01*
X139765127Y-42720310D01*
X139698607Y-42695499D01*
X139692536Y-42690655D01*
X139688149Y-42686928D01*
X139673715Y-42674665D01*
X139544005Y-42608431D01*
X139522708Y-42597556D01*
X139522706Y-42597555D01*
X139516192Y-42594229D01*
X139509087Y-42592490D01*
X139509083Y-42592489D01*
X139404162Y-42566816D01*
X139344390Y-42552190D01*
X139338788Y-42551842D01*
X139338785Y-42551842D01*
X139335175Y-42551618D01*
X139335165Y-42551618D01*
X139333236Y-42551498D01*
X139205707Y-42551498D01*
X139139644Y-42559200D01*
X139081589Y-42565968D01*
X139081585Y-42565969D01*
X139074319Y-42566816D01*
X139067444Y-42569311D01*
X139067442Y-42569312D01*
X138914338Y-42624887D01*
X138843480Y-42629328D01*
X138814044Y-42618664D01*
X138772712Y-42597558D01*
X138772707Y-42597556D01*
X138766192Y-42594229D01*
X138594390Y-42552190D01*
X138588788Y-42551842D01*
X138588785Y-42551842D01*
X138585175Y-42551618D01*
X138585165Y-42551618D01*
X138583236Y-42551498D01*
X138455707Y-42551498D01*
X138389644Y-42559200D01*
X138331589Y-42565968D01*
X138331585Y-42565969D01*
X138324319Y-42566816D01*
X138317444Y-42569311D01*
X138317442Y-42569312D01*
X138164338Y-42624887D01*
X138093480Y-42629328D01*
X138064044Y-42618664D01*
X138022712Y-42597558D01*
X138022707Y-42597556D01*
X138016192Y-42594229D01*
X137844390Y-42552190D01*
X137838788Y-42551842D01*
X137838785Y-42551842D01*
X137835175Y-42551618D01*
X137835165Y-42551618D01*
X137833236Y-42551498D01*
X137705707Y-42551498D01*
X137639644Y-42559200D01*
X137581589Y-42565968D01*
X137581585Y-42565969D01*
X137574319Y-42566816D01*
X137567444Y-42569311D01*
X137567442Y-42569312D01*
X137414338Y-42624887D01*
X137343480Y-42629328D01*
X137314044Y-42618664D01*
X137272712Y-42597558D01*
X137272707Y-42597556D01*
X137266192Y-42594229D01*
X137094390Y-42552190D01*
X137088788Y-42551842D01*
X137088785Y-42551842D01*
X137085175Y-42551618D01*
X137085165Y-42551618D01*
X137083236Y-42551498D01*
X136955707Y-42551498D01*
X136889644Y-42559200D01*
X136831589Y-42565968D01*
X136831585Y-42565969D01*
X136824319Y-42566816D01*
X136817444Y-42569311D01*
X136817442Y-42569312D01*
X136664338Y-42624887D01*
X136593480Y-42629328D01*
X136564044Y-42618664D01*
X136522712Y-42597558D01*
X136522707Y-42597556D01*
X136516192Y-42594229D01*
X136344390Y-42552190D01*
X136338788Y-42551842D01*
X136338785Y-42551842D01*
X136335175Y-42551618D01*
X136335165Y-42551618D01*
X136333236Y-42551498D01*
X136205707Y-42551498D01*
X136139644Y-42559200D01*
X136081589Y-42565968D01*
X136081585Y-42565969D01*
X136074319Y-42566816D01*
X136067444Y-42569311D01*
X136067442Y-42569312D01*
X135914338Y-42624887D01*
X135843480Y-42629328D01*
X135814044Y-42618664D01*
X135772712Y-42597558D01*
X135772707Y-42597556D01*
X135766192Y-42594229D01*
X135594390Y-42552190D01*
X135588788Y-42551842D01*
X135588785Y-42551842D01*
X135585175Y-42551618D01*
X135585165Y-42551618D01*
X135583236Y-42551498D01*
X135455707Y-42551498D01*
X135389644Y-42559200D01*
X135331589Y-42565968D01*
X135331585Y-42565969D01*
X135324319Y-42566816D01*
X135317444Y-42569311D01*
X135317442Y-42569312D01*
X135164338Y-42624887D01*
X135093480Y-42629328D01*
X135064044Y-42618664D01*
X135022712Y-42597558D01*
X135022707Y-42597556D01*
X135016192Y-42594229D01*
X134844390Y-42552190D01*
X134838788Y-42551842D01*
X134838785Y-42551842D01*
X134835175Y-42551618D01*
X134835165Y-42551618D01*
X134833236Y-42551498D01*
X134705707Y-42551498D01*
X134639644Y-42559200D01*
X134581589Y-42565968D01*
X134581585Y-42565969D01*
X134574319Y-42566816D01*
X134567444Y-42569311D01*
X134567442Y-42569312D01*
X134452720Y-42610955D01*
X134408063Y-42627165D01*
X134401946Y-42631176D01*
X134401939Y-42631179D01*
X134296057Y-42700598D01*
X134228122Y-42721221D01*
X134166589Y-42705814D01*
X134132000Y-42686928D01*
X134128046Y-42684769D01*
X134100956Y-42674665D01*
X133930146Y-42610955D01*
X133930140Y-42610953D01*
X133925938Y-42609386D01*
X133921552Y-42608432D01*
X133921549Y-42608431D01*
X133730246Y-42566816D01*
X133715159Y-42563534D01*
X133710671Y-42563213D01*
X133540403Y-42551035D01*
X133528492Y-42549611D01*
X133512538Y-42546927D01*
X133506183Y-42546849D01*
X133504858Y-42546833D01*
X133504854Y-42546833D01*
X133499999Y-42546774D01*
X133473989Y-42550499D01*
X133472411Y-42550725D01*
X133454548Y-42551998D01*
X133409269Y-42551998D01*
X133341148Y-42531996D01*
X133294655Y-42478340D01*
X133284551Y-42408066D01*
X133312746Y-42345009D01*
X133386155Y-42257524D01*
X133389122Y-42252126D01*
X133389126Y-42252121D01*
X133478468Y-42089606D01*
X133481434Y-42084211D01*
X133483847Y-42076606D01*
X133539374Y-41901562D01*
X133539374Y-41901561D01*
X133541236Y-41895692D01*
X133558501Y-41741771D01*
X133558501Y-41035229D01*
X133557815Y-41028225D01*
X133552464Y-40973658D01*
X133544081Y-40888165D01*
X133486917Y-40698829D01*
X133394067Y-40524202D01*
X133323710Y-40437936D01*
X133272961Y-40375711D01*
X133272958Y-40375708D01*
X133269066Y-40370936D01*
X133262725Y-40365690D01*
X133121426Y-40248797D01*
X133121422Y-40248795D01*
X133116676Y-40244868D01*
X132942702Y-40150800D01*
X132753769Y-40092316D01*
X132747644Y-40091672D01*
X132747643Y-40091672D01*
X132563205Y-40072287D01*
X132563203Y-40072287D01*
X132557076Y-40071643D01*
X132474577Y-40079151D01*
X132366252Y-40089009D01*
X132366249Y-40089010D01*
X132360113Y-40089568D01*
X132354207Y-40091306D01*
X132354203Y-40091307D01*
X132249077Y-40122247D01*
X132170382Y-40145408D01*
X132164924Y-40148261D01*
X132164920Y-40148263D01*
X132074148Y-40195718D01*
X131995111Y-40237038D01*
X131840976Y-40360966D01*
X131713847Y-40512472D01*
X131710880Y-40517870D01*
X131710876Y-40517875D01*
X131632096Y-40661178D01*
X131618568Y-40685785D01*
X131616707Y-40691652D01*
X131616706Y-40691654D01*
X131584454Y-40793324D01*
X131558766Y-40874304D01*
X131541501Y-41028225D01*
X131541501Y-41734767D01*
X131541801Y-41737823D01*
X131541801Y-41737830D01*
X131544116Y-41761434D01*
X131555921Y-41881831D01*
X131613085Y-42071167D01*
X131705935Y-42245794D01*
X131787958Y-42346363D01*
X131815511Y-42411793D01*
X131803316Y-42481735D01*
X131755244Y-42533980D01*
X131690314Y-42551998D01*
X128257015Y-42551999D01*
X128159328Y-42551999D01*
X128139943Y-42550499D01*
X128125142Y-42548194D01*
X128125139Y-42548194D01*
X128116270Y-42546813D01*
X128100001Y-42548940D01*
X128075433Y-42549733D01*
X127853015Y-42535155D01*
X127836674Y-42533004D01*
X127592176Y-42484370D01*
X127576257Y-42480104D01*
X127340210Y-42399977D01*
X127324983Y-42393670D01*
X127101408Y-42283415D01*
X127087135Y-42275174D01*
X126879867Y-42136683D01*
X126866790Y-42126650D01*
X126824550Y-42089606D01*
X126679367Y-41962284D01*
X126667714Y-41950631D01*
X126607142Y-41881562D01*
X126503346Y-41763205D01*
X126493316Y-41750132D01*
X126354825Y-41542864D01*
X126346584Y-41528591D01*
X126290403Y-41414667D01*
X126752002Y-41414667D01*
X126752372Y-41421488D01*
X126757896Y-41472350D01*
X126761522Y-41487602D01*
X126806677Y-41608052D01*
X126815215Y-41623647D01*
X126891716Y-41725722D01*
X126904277Y-41738283D01*
X127006352Y-41814784D01*
X127021947Y-41823322D01*
X127142395Y-41868476D01*
X127157650Y-41872103D01*
X127208515Y-41877629D01*
X127215329Y-41877998D01*
X127837886Y-41877998D01*
X127853125Y-41873523D01*
X127854330Y-41872133D01*
X127856001Y-41864450D01*
X127856001Y-41859882D01*
X128364001Y-41859882D01*
X128368476Y-41875121D01*
X128369866Y-41876326D01*
X128377549Y-41877997D01*
X129004670Y-41877997D01*
X129011491Y-41877627D01*
X129062353Y-41872103D01*
X129077605Y-41868477D01*
X129198055Y-41823322D01*
X129213650Y-41814784D01*
X129315725Y-41738283D01*
X129328286Y-41725722D01*
X129404787Y-41623647D01*
X129413325Y-41608052D01*
X129458479Y-41487604D01*
X129462106Y-41472349D01*
X129467632Y-41421484D01*
X129468001Y-41414670D01*
X129468001Y-40792113D01*
X129463526Y-40776874D01*
X129462136Y-40775669D01*
X129454453Y-40773998D01*
X128382116Y-40773998D01*
X128366877Y-40778473D01*
X128365672Y-40779863D01*
X128364001Y-40787546D01*
X128364001Y-41859882D01*
X127856001Y-41859882D01*
X127856001Y-40792113D01*
X127851526Y-40776874D01*
X127850136Y-40775669D01*
X127842453Y-40773998D01*
X126770117Y-40773998D01*
X126754878Y-40778473D01*
X126753673Y-40779863D01*
X126752002Y-40787546D01*
X126752002Y-41414667D01*
X126290403Y-41414667D01*
X126236329Y-41305016D01*
X126230022Y-41289789D01*
X126149895Y-41053742D01*
X126145629Y-41037823D01*
X126096995Y-40793326D01*
X126094844Y-40776985D01*
X126080736Y-40561731D01*
X126081761Y-40538695D01*
X126081804Y-40535145D01*
X126083186Y-40526269D01*
X126079064Y-40494747D01*
X126078000Y-40478410D01*
X126078000Y-37946693D01*
X126747252Y-37946693D01*
X126747549Y-37951846D01*
X126747549Y-37951849D01*
X126752842Y-38043639D01*
X126760111Y-38169713D01*
X126761248Y-38174759D01*
X126761249Y-38174765D01*
X126768976Y-38209051D01*
X126809223Y-38387637D01*
X126846334Y-38479030D01*
X126882537Y-38568188D01*
X126893267Y-38594614D01*
X126895966Y-38599018D01*
X126988750Y-38750428D01*
X127009988Y-38785086D01*
X127156251Y-38953936D01*
X127160226Y-38957236D01*
X127160232Y-38957242D01*
X127165426Y-38961554D01*
X127205060Y-39020458D01*
X127206556Y-39091439D01*
X127169440Y-39151960D01*
X127129169Y-39176478D01*
X127021947Y-39216674D01*
X127006352Y-39225212D01*
X126904277Y-39301713D01*
X126891716Y-39314274D01*
X126815215Y-39416349D01*
X126806677Y-39431944D01*
X126761523Y-39552392D01*
X126757896Y-39567647D01*
X126752370Y-39618512D01*
X126752001Y-39625326D01*
X126752001Y-40247883D01*
X126756476Y-40263122D01*
X126757866Y-40264327D01*
X126765549Y-40265998D01*
X129449885Y-40265998D01*
X129465124Y-40261523D01*
X129466329Y-40260133D01*
X129468000Y-40252450D01*
X129468000Y-39625329D01*
X129467630Y-39618508D01*
X129462106Y-39567646D01*
X129458480Y-39552394D01*
X129413325Y-39431944D01*
X129404787Y-39416349D01*
X129328286Y-39314274D01*
X129315725Y-39301713D01*
X129213650Y-39225212D01*
X129198055Y-39216674D01*
X129087814Y-39175346D01*
X129031050Y-39132704D01*
X129006350Y-39066143D01*
X129021558Y-38996794D01*
X129043105Y-38968113D01*
X129144431Y-38867142D01*
X129144441Y-38867130D01*
X129148097Y-38863487D01*
X129207595Y-38780687D01*
X129275436Y-38686275D01*
X129278454Y-38682075D01*
X129323368Y-38591199D01*
X129375137Y-38486451D01*
X129375138Y-38486449D01*
X129377431Y-38481809D01*
X129427870Y-38315794D01*
X129440866Y-38273021D01*
X129440866Y-38273019D01*
X129442371Y-38268067D01*
X129471530Y-38046588D01*
X129473157Y-37979998D01*
X129458751Y-37804767D01*
X131541501Y-37804767D01*
X131541801Y-37807823D01*
X131541801Y-37807830D01*
X131542531Y-37815271D01*
X131555921Y-37951831D01*
X131613085Y-38141167D01*
X131705935Y-38315794D01*
X131760416Y-38382594D01*
X131827041Y-38464285D01*
X131827044Y-38464288D01*
X131830936Y-38469060D01*
X131835683Y-38472987D01*
X131835685Y-38472989D01*
X131978576Y-38591199D01*
X131978580Y-38591201D01*
X131983326Y-38595128D01*
X132157300Y-38689196D01*
X132346233Y-38747680D01*
X132352358Y-38748324D01*
X132352359Y-38748324D01*
X132536797Y-38767709D01*
X132536799Y-38767709D01*
X132542926Y-38768353D01*
X132625425Y-38760845D01*
X132733750Y-38750987D01*
X132733753Y-38750986D01*
X132739889Y-38750428D01*
X132745795Y-38748690D01*
X132745799Y-38748689D01*
X132850925Y-38717749D01*
X132929620Y-38694588D01*
X132935078Y-38691735D01*
X132935082Y-38691733D01*
X133025854Y-38644278D01*
X133104891Y-38602958D01*
X133259026Y-38479030D01*
X133307401Y-38421379D01*
X133366508Y-38382054D01*
X133437495Y-38380928D01*
X133480449Y-38402276D01*
X133540258Y-38448004D01*
X133540262Y-38448007D01*
X133545679Y-38452148D01*
X133632373Y-38492574D01*
X133703632Y-38525803D01*
X133703635Y-38525804D01*
X133709809Y-38528683D01*
X133716457Y-38530169D01*
X133716460Y-38530170D01*
X133822422Y-38553855D01*
X133886544Y-38568188D01*
X133892089Y-38568498D01*
X134025245Y-38568498D01*
X134160038Y-38553855D01*
X134278191Y-38514092D01*
X134325205Y-38498270D01*
X134325207Y-38498269D01*
X134331676Y-38496092D01*
X134486906Y-38402821D01*
X134491863Y-38398133D01*
X134491866Y-38398131D01*
X134613528Y-38283080D01*
X134613530Y-38283078D01*
X134618486Y-38278391D01*
X134622318Y-38272753D01*
X134622321Y-38272749D01*
X134716443Y-38134253D01*
X134720278Y-38128610D01*
X134787531Y-37960464D01*
X134788645Y-37953736D01*
X134788646Y-37953732D01*
X134815994Y-37788537D01*
X134815994Y-37788534D01*
X134817109Y-37781800D01*
X134815829Y-37757359D01*
X134812204Y-37688196D01*
X138922893Y-37688196D01*
X138923250Y-37695013D01*
X138923250Y-37695017D01*
X138928152Y-37788537D01*
X138932371Y-37869045D01*
X138934182Y-37875618D01*
X138934182Y-37875621D01*
X138962932Y-37979998D01*
X138980462Y-38043639D01*
X139064923Y-38203834D01*
X139069328Y-38209047D01*
X139069331Y-38209051D01*
X139177407Y-38336941D01*
X139177411Y-38336945D01*
X139181814Y-38342155D01*
X139187238Y-38346302D01*
X139187239Y-38346303D01*
X139320258Y-38448004D01*
X139320262Y-38448007D01*
X139325679Y-38452148D01*
X139412373Y-38492574D01*
X139483632Y-38525803D01*
X139483635Y-38525804D01*
X139489809Y-38528683D01*
X139496457Y-38530169D01*
X139496460Y-38530170D01*
X139602422Y-38553855D01*
X139666544Y-38568188D01*
X139672089Y-38568498D01*
X139805245Y-38568498D01*
X139940038Y-38553855D01*
X140058191Y-38514092D01*
X140105205Y-38498270D01*
X140105207Y-38498269D01*
X140111676Y-38496092D01*
X140266906Y-38402821D01*
X140267330Y-38403526D01*
X140328521Y-38380236D01*
X140397994Y-38394863D01*
X140435993Y-38426216D01*
X140470936Y-38469060D01*
X140475683Y-38472987D01*
X140475685Y-38472989D01*
X140618576Y-38591199D01*
X140618580Y-38591201D01*
X140623326Y-38595128D01*
X140797300Y-38689196D01*
X140986233Y-38747680D01*
X140992358Y-38748324D01*
X140992359Y-38748324D01*
X141176797Y-38767709D01*
X141176799Y-38767709D01*
X141182926Y-38768353D01*
X141265425Y-38760845D01*
X141373750Y-38750987D01*
X141373753Y-38750986D01*
X141379889Y-38750428D01*
X141385795Y-38748690D01*
X141385799Y-38748689D01*
X141490925Y-38717749D01*
X141569620Y-38694588D01*
X141575078Y-38691735D01*
X141575082Y-38691733D01*
X141665854Y-38644278D01*
X141744891Y-38602958D01*
X141899026Y-38479030D01*
X142026155Y-38327524D01*
X142029122Y-38322126D01*
X142029126Y-38322121D01*
X142118468Y-38159606D01*
X142121434Y-38154211D01*
X142123847Y-38146606D01*
X142179374Y-37971562D01*
X142179374Y-37971561D01*
X142181236Y-37965692D01*
X142198501Y-37811771D01*
X142198501Y-36605229D01*
X142197815Y-36598225D01*
X142192464Y-36543658D01*
X142184081Y-36458165D01*
X142171725Y-36417238D01*
X142160163Y-36378945D01*
X142126917Y-36268829D01*
X142034067Y-36094202D01*
X141963710Y-36007936D01*
X141912961Y-35945711D01*
X141912958Y-35945708D01*
X141909066Y-35940936D01*
X141904133Y-35936855D01*
X141761426Y-35818797D01*
X141761422Y-35818795D01*
X141756676Y-35814868D01*
X141582702Y-35720800D01*
X141393769Y-35662316D01*
X141387644Y-35661672D01*
X141387643Y-35661672D01*
X141203205Y-35642287D01*
X141203203Y-35642287D01*
X141197076Y-35641643D01*
X141114577Y-35649151D01*
X141006252Y-35659009D01*
X141006249Y-35659010D01*
X141000113Y-35659568D01*
X140994207Y-35661306D01*
X140994203Y-35661307D01*
X140889077Y-35692247D01*
X140810382Y-35715408D01*
X140804924Y-35718261D01*
X140804920Y-35718263D01*
X140714148Y-35765718D01*
X140635111Y-35807038D01*
X140480976Y-35930966D01*
X140477012Y-35935690D01*
X140461930Y-35953664D01*
X140353847Y-36082472D01*
X140350880Y-36087870D01*
X140350876Y-36087875D01*
X140318771Y-36146275D01*
X140258568Y-36255785D01*
X140256707Y-36261652D01*
X140256706Y-36261654D01*
X140236037Y-36326810D01*
X140198766Y-36444304D01*
X140181501Y-36598225D01*
X140181501Y-36817860D01*
X140161499Y-36885981D01*
X140107843Y-36932474D01*
X140037569Y-36942578D01*
X140028015Y-36940826D01*
X139858495Y-36902934D01*
X139858496Y-36902934D01*
X139853458Y-36901808D01*
X139847913Y-36901498D01*
X139714757Y-36901498D01*
X139579964Y-36916141D01*
X139461811Y-36955904D01*
X139414797Y-36971726D01*
X139414795Y-36971727D01*
X139408326Y-36973904D01*
X139253096Y-37067175D01*
X139248139Y-37071863D01*
X139248136Y-37071865D01*
X139162746Y-37152615D01*
X139121516Y-37191605D01*
X139117684Y-37197243D01*
X139117681Y-37197247D01*
X139066741Y-37272203D01*
X139019724Y-37341386D01*
X138952471Y-37509532D01*
X138951357Y-37516260D01*
X138951356Y-37516264D01*
X138924008Y-37681459D01*
X138922893Y-37688196D01*
X134812204Y-37688196D01*
X134807988Y-37607764D01*
X134807631Y-37600951D01*
X134792418Y-37545718D01*
X134761353Y-37432939D01*
X134759540Y-37426357D01*
X134675079Y-37266162D01*
X134670674Y-37260949D01*
X134670671Y-37260945D01*
X134562595Y-37133055D01*
X134562591Y-37133051D01*
X134558188Y-37127841D01*
X134552763Y-37123693D01*
X134419744Y-37021992D01*
X134419740Y-37021989D01*
X134414323Y-37017848D01*
X134291625Y-36960633D01*
X134256370Y-36944193D01*
X134256367Y-36944192D01*
X134250193Y-36941313D01*
X134243545Y-36939827D01*
X134243542Y-36939826D01*
X134078495Y-36902934D01*
X134078496Y-36902934D01*
X134073458Y-36901808D01*
X134067913Y-36901498D01*
X133934757Y-36901498D01*
X133799964Y-36916141D01*
X133724689Y-36941474D01*
X133653748Y-36944244D01*
X133592569Y-36908221D01*
X133560578Y-36844840D01*
X133558501Y-36822055D01*
X133558501Y-36605229D01*
X133557815Y-36598225D01*
X133552464Y-36543658D01*
X133544081Y-36458165D01*
X133531725Y-36417238D01*
X133520163Y-36378945D01*
X133486917Y-36268829D01*
X133394067Y-36094202D01*
X133323710Y-36007936D01*
X133272961Y-35945711D01*
X133272958Y-35945708D01*
X133269066Y-35940936D01*
X133264133Y-35936855D01*
X133121426Y-35818797D01*
X133121422Y-35818795D01*
X133116676Y-35814868D01*
X132942702Y-35720800D01*
X132753769Y-35662316D01*
X132747644Y-35661672D01*
X132747643Y-35661672D01*
X132563205Y-35642287D01*
X132563203Y-35642287D01*
X132557076Y-35641643D01*
X132474577Y-35649151D01*
X132366252Y-35659009D01*
X132366249Y-35659010D01*
X132360113Y-35659568D01*
X132354207Y-35661306D01*
X132354203Y-35661307D01*
X132249077Y-35692247D01*
X132170382Y-35715408D01*
X132164924Y-35718261D01*
X132164920Y-35718263D01*
X132074148Y-35765718D01*
X131995111Y-35807038D01*
X131840976Y-35930966D01*
X131837012Y-35935690D01*
X131821930Y-35953664D01*
X131713847Y-36082472D01*
X131710880Y-36087870D01*
X131710876Y-36087875D01*
X131678771Y-36146275D01*
X131618568Y-36255785D01*
X131616707Y-36261652D01*
X131616706Y-36261654D01*
X131596037Y-36326810D01*
X131558766Y-36444304D01*
X131541501Y-36598225D01*
X131541501Y-37804767D01*
X129458751Y-37804767D01*
X129454853Y-37757359D01*
X129400432Y-37540700D01*
X129311355Y-37335838D01*
X129262905Y-37260945D01*
X129192823Y-37152615D01*
X129192821Y-37152612D01*
X129190015Y-37148275D01*
X129039671Y-36983049D01*
X129035620Y-36979850D01*
X129035616Y-36979846D01*
X128868415Y-36847798D01*
X128868411Y-36847796D01*
X128864360Y-36844596D01*
X128823054Y-36821794D01*
X128773085Y-36771362D01*
X128758313Y-36701919D01*
X128783429Y-36635514D01*
X128810781Y-36608907D01*
X128854604Y-36577648D01*
X128989861Y-36481171D01*
X129148097Y-36323487D01*
X129207595Y-36240687D01*
X129275436Y-36146275D01*
X129278454Y-36142075D01*
X129307912Y-36082472D01*
X129375137Y-35946451D01*
X129375138Y-35946449D01*
X129377431Y-35941809D01*
X129442371Y-35728067D01*
X129471530Y-35506588D01*
X129473157Y-35439998D01*
X129454853Y-35217359D01*
X129400432Y-35000700D01*
X129311355Y-34795838D01*
X129190015Y-34608275D01*
X129039671Y-34443049D01*
X129035620Y-34439850D01*
X129035616Y-34439846D01*
X128868415Y-34307798D01*
X128868411Y-34307796D01*
X128864360Y-34304596D01*
X128823054Y-34281794D01*
X128773085Y-34231362D01*
X128758313Y-34161919D01*
X128783429Y-34095514D01*
X128810781Y-34068907D01*
X128876210Y-34022237D01*
X128989861Y-33941171D01*
X129148097Y-33783487D01*
X129207595Y-33700687D01*
X129275436Y-33606275D01*
X129278454Y-33602075D01*
X129300387Y-33557698D01*
X129375137Y-33406451D01*
X129375138Y-33406449D01*
X129377431Y-33401809D01*
X129442371Y-33188067D01*
X129471530Y-32966588D01*
X129473157Y-32899998D01*
X129470419Y-32866693D01*
X144527252Y-32866693D01*
X144527549Y-32871846D01*
X144527549Y-32871849D01*
X144533012Y-32966588D01*
X144540111Y-33089713D01*
X144541248Y-33094759D01*
X144541249Y-33094765D01*
X144541530Y-33096011D01*
X144589223Y-33307637D01*
X144627462Y-33401809D01*
X144667378Y-33500110D01*
X144673267Y-33514614D01*
X144789988Y-33705086D01*
X144936251Y-33873936D01*
X145108127Y-34016630D01*
X145181446Y-34059474D01*
X145181956Y-34059772D01*
X145230680Y-34111410D01*
X145243751Y-34181193D01*
X145217020Y-34246965D01*
X145176563Y-34280325D01*
X145168458Y-34284544D01*
X145159739Y-34290034D01*
X144989434Y-34417903D01*
X144981727Y-34424746D01*
X144834591Y-34578715D01*
X144828105Y-34586725D01*
X144708099Y-34762647D01*
X144703001Y-34771621D01*
X144613339Y-34964781D01*
X144609776Y-34974468D01*
X144554390Y-35174181D01*
X144555913Y-35182605D01*
X144568293Y-35185998D01*
X147208345Y-35185998D01*
X147221876Y-35182025D01*
X147223181Y-35172945D01*
X147181215Y-35005873D01*
X147177895Y-34996122D01*
X147092973Y-34800812D01*
X147088106Y-34791737D01*
X146972427Y-34612924D01*
X146966137Y-34604755D01*
X146822807Y-34447238D01*
X146815274Y-34440213D01*
X146648140Y-34308220D01*
X146639557Y-34302518D01*
X146602603Y-34282118D01*
X146552632Y-34231685D01*
X146537860Y-34162243D01*
X146562976Y-34095837D01*
X146590328Y-34069230D01*
X146656210Y-34022237D01*
X146769861Y-33941171D01*
X146928097Y-33783487D01*
X146987595Y-33700687D01*
X147055436Y-33606275D01*
X147058454Y-33602075D01*
X147080387Y-33557698D01*
X147155137Y-33406451D01*
X147155138Y-33406449D01*
X147157431Y-33401809D01*
X147222371Y-33188067D01*
X147251530Y-32966588D01*
X147253157Y-32899998D01*
X147234853Y-32677359D01*
X147180432Y-32460700D01*
X147091355Y-32255838D01*
X147027833Y-32157648D01*
X146972823Y-32072615D01*
X146972821Y-32072612D01*
X146970015Y-32068275D01*
X146819671Y-31903049D01*
X146815620Y-31899850D01*
X146815616Y-31899846D01*
X146648415Y-31767798D01*
X146648411Y-31767796D01*
X146644360Y-31764596D01*
X146603054Y-31741794D01*
X146553085Y-31691362D01*
X146538313Y-31621919D01*
X146563429Y-31555514D01*
X146590781Y-31528907D01*
X146638646Y-31494765D01*
X146769861Y-31401171D01*
X146928097Y-31243487D01*
X146970478Y-31184508D01*
X147055436Y-31066275D01*
X147058454Y-31062075D01*
X147157431Y-30861809D01*
X147215221Y-30671600D01*
X147220866Y-30653021D01*
X147220866Y-30653019D01*
X147222371Y-30648067D01*
X147251530Y-30426588D01*
X147253157Y-30359998D01*
X147234853Y-30137359D01*
X147180432Y-29920700D01*
X147091355Y-29715838D01*
X146970015Y-29528275D01*
X146819671Y-29363049D01*
X146815620Y-29359850D01*
X146815616Y-29359846D01*
X146648415Y-29227798D01*
X146648411Y-29227796D01*
X146644360Y-29224596D01*
X146603054Y-29201794D01*
X146553085Y-29151362D01*
X146538313Y-29081919D01*
X146563429Y-29015514D01*
X146590781Y-28988907D01*
X146634604Y-28957648D01*
X146769861Y-28861171D01*
X146928097Y-28703487D01*
X146986653Y-28621998D01*
X147055436Y-28526275D01*
X147058454Y-28522075D01*
X147130650Y-28375998D01*
X147155137Y-28326451D01*
X147155138Y-28326449D01*
X147157431Y-28321809D01*
X147222371Y-28108067D01*
X147251530Y-27886588D01*
X147253157Y-27819998D01*
X147234853Y-27597359D01*
X147180432Y-27380700D01*
X147091355Y-27175838D01*
X146970015Y-26988275D01*
X146966533Y-26984448D01*
X146822799Y-26826486D01*
X146791747Y-26762640D01*
X146800142Y-26692141D01*
X146845318Y-26637373D01*
X146871762Y-26623704D01*
X146978298Y-26583765D01*
X146986706Y-26580613D01*
X147103262Y-26493259D01*
X147190616Y-26376703D01*
X147241746Y-26240314D01*
X147248501Y-26178132D01*
X147248501Y-24381864D01*
X147241746Y-24319682D01*
X147190616Y-24183293D01*
X147103262Y-24066737D01*
X146986706Y-23979383D01*
X146850317Y-23928253D01*
X146788135Y-23921498D01*
X144991867Y-23921498D01*
X144929685Y-23928253D01*
X144793296Y-23979383D01*
X144676740Y-24066737D01*
X144589386Y-24183293D01*
X144538256Y-24319682D01*
X144531501Y-24381864D01*
X144531501Y-26178132D01*
X144538256Y-26240314D01*
X144589386Y-26376703D01*
X144676740Y-26493259D01*
X144793296Y-26580613D01*
X144801705Y-26583765D01*
X144801706Y-26583766D01*
X144910452Y-26624533D01*
X144967217Y-26667174D01*
X144991917Y-26733736D01*
X144976710Y-26803085D01*
X144957317Y-26829566D01*
X144830630Y-26962136D01*
X144704744Y-27146678D01*
X144610689Y-27349303D01*
X144550990Y-27564568D01*
X144527252Y-27786693D01*
X144527549Y-27791846D01*
X144527549Y-27791849D01*
X144533012Y-27886588D01*
X144540111Y-28009713D01*
X144541248Y-28014759D01*
X144541249Y-28014765D01*
X144556976Y-28084547D01*
X144589223Y-28227637D01*
X144673267Y-28434614D01*
X144675966Y-28439018D01*
X144777823Y-28605234D01*
X144789988Y-28625086D01*
X144936251Y-28793936D01*
X145108127Y-28936630D01*
X145178596Y-28977809D01*
X145181446Y-28979474D01*
X145230170Y-29031112D01*
X145243241Y-29100895D01*
X145216510Y-29166667D01*
X145176056Y-29200025D01*
X145163608Y-29206505D01*
X145159475Y-29209608D01*
X145159472Y-29209610D01*
X145135248Y-29227798D01*
X144984966Y-29340633D01*
X144830630Y-29502136D01*
X144704744Y-29686678D01*
X144610689Y-29889303D01*
X144550990Y-30104568D01*
X144527252Y-30326693D01*
X144527549Y-30331846D01*
X144527549Y-30331849D01*
X144533012Y-30426588D01*
X144540111Y-30549713D01*
X144541248Y-30554759D01*
X144541249Y-30554765D01*
X144561120Y-30642937D01*
X144589223Y-30767637D01*
X144673267Y-30974614D01*
X144789988Y-31165086D01*
X144936251Y-31333936D01*
X145108127Y-31476630D01*
X145178596Y-31517809D01*
X145181446Y-31519474D01*
X145230170Y-31571112D01*
X145243241Y-31640895D01*
X145216510Y-31706667D01*
X145176056Y-31740025D01*
X145163608Y-31746505D01*
X145159475Y-31749608D01*
X145159472Y-31749610D01*
X144989101Y-31877528D01*
X144984966Y-31880633D01*
X144830630Y-32042136D01*
X144704744Y-32226678D01*
X144689004Y-32260588D01*
X144614406Y-32421296D01*
X144610689Y-32429303D01*
X144550990Y-32644568D01*
X144527252Y-32866693D01*
X129470419Y-32866693D01*
X129454853Y-32677359D01*
X129400432Y-32460700D01*
X129311355Y-32255838D01*
X129247833Y-32157648D01*
X129192823Y-32072615D01*
X129192821Y-32072612D01*
X129190015Y-32068275D01*
X129039671Y-31903049D01*
X129035620Y-31899850D01*
X129035616Y-31899846D01*
X128868415Y-31767798D01*
X128868411Y-31767796D01*
X128864360Y-31764596D01*
X128823054Y-31741794D01*
X128773085Y-31691362D01*
X128758313Y-31621919D01*
X128783429Y-31555514D01*
X128810781Y-31528907D01*
X128858646Y-31494765D01*
X128989861Y-31401171D01*
X129148097Y-31243487D01*
X129190478Y-31184508D01*
X129275436Y-31066275D01*
X129278454Y-31062075D01*
X129377431Y-30861809D01*
X129435221Y-30671600D01*
X129440866Y-30653021D01*
X129440866Y-30653019D01*
X129442371Y-30648067D01*
X129471530Y-30426588D01*
X129473157Y-30359998D01*
X129454853Y-30137359D01*
X129400432Y-29920700D01*
X129311355Y-29715838D01*
X129190015Y-29528275D01*
X129039671Y-29363049D01*
X129035620Y-29359850D01*
X129035616Y-29359846D01*
X128868415Y-29227798D01*
X128868411Y-29227796D01*
X128864360Y-29224596D01*
X128823054Y-29201794D01*
X128773085Y-29151362D01*
X128758313Y-29081919D01*
X128783429Y-29015514D01*
X128810781Y-28988907D01*
X128854604Y-28957648D01*
X128989861Y-28861171D01*
X129148097Y-28703487D01*
X129206653Y-28621998D01*
X129275436Y-28526275D01*
X129278454Y-28522075D01*
X129350650Y-28375998D01*
X129375137Y-28326451D01*
X129375138Y-28326449D01*
X129377431Y-28321809D01*
X129442371Y-28108067D01*
X129471530Y-27886588D01*
X129473157Y-27819998D01*
X129454853Y-27597359D01*
X129400432Y-27380700D01*
X129311355Y-27175838D01*
X129190015Y-26988275D01*
X129039671Y-26823049D01*
X129035620Y-26819850D01*
X129035616Y-26819846D01*
X128868415Y-26687798D01*
X128868411Y-26687796D01*
X128864360Y-26684596D01*
X128823054Y-26661794D01*
X128773085Y-26611362D01*
X128758313Y-26541919D01*
X128783429Y-26475514D01*
X128810781Y-26448907D01*
X128854604Y-26417648D01*
X128989861Y-26321171D01*
X129148097Y-26163487D01*
X129207595Y-26080687D01*
X129275436Y-25986275D01*
X129278454Y-25982075D01*
X129377431Y-25781809D01*
X129442371Y-25568067D01*
X129471530Y-25346588D01*
X129473157Y-25279998D01*
X129454853Y-25057359D01*
X129400432Y-24840700D01*
X129311355Y-24635838D01*
X129190015Y-24448275D01*
X129039671Y-24283049D01*
X129035620Y-24279850D01*
X129035616Y-24279846D01*
X128868415Y-24147798D01*
X128868411Y-24147796D01*
X128864360Y-24144596D01*
X128668790Y-24036636D01*
X128663921Y-24034912D01*
X128663917Y-24034910D01*
X128463088Y-23963793D01*
X128463084Y-23963792D01*
X128458213Y-23962067D01*
X128453120Y-23961160D01*
X128453117Y-23961159D01*
X128243374Y-23923798D01*
X128243368Y-23923797D01*
X128238285Y-23922892D01*
X128164453Y-23921990D01*
X128020082Y-23920226D01*
X128020080Y-23920226D01*
X128014912Y-23920163D01*
X127794092Y-23953953D01*
X127581757Y-24023355D01*
X127383608Y-24126505D01*
X127379475Y-24129608D01*
X127379472Y-24129610D01*
X127209101Y-24257528D01*
X127204966Y-24260633D01*
X127050630Y-24422136D01*
X126924744Y-24606678D01*
X126830689Y-24809303D01*
X126770990Y-25024568D01*
X126747252Y-25246693D01*
X126747549Y-25251846D01*
X126747549Y-25251849D01*
X126753012Y-25346588D01*
X126760111Y-25469713D01*
X126761248Y-25474759D01*
X126761249Y-25474765D01*
X126781120Y-25562937D01*
X126809223Y-25687637D01*
X126893267Y-25894614D01*
X127009988Y-26085086D01*
X127156251Y-26253936D01*
X127328127Y-26396630D01*
X127398596Y-26437809D01*
X127401446Y-26439474D01*
X127450170Y-26491112D01*
X127463241Y-26560895D01*
X127436510Y-26626667D01*
X127396056Y-26660025D01*
X127383608Y-26666505D01*
X127379475Y-26669608D01*
X127379472Y-26669610D01*
X127255568Y-26762640D01*
X127204966Y-26800633D01*
X127050630Y-26962136D01*
X126924744Y-27146678D01*
X126830689Y-27349303D01*
X126770990Y-27564568D01*
X126747252Y-27786693D01*
X126747549Y-27791846D01*
X126747549Y-27791849D01*
X126753012Y-27886588D01*
X126760111Y-28009713D01*
X126761248Y-28014759D01*
X126761249Y-28014765D01*
X126776976Y-28084547D01*
X126809223Y-28227637D01*
X126893267Y-28434614D01*
X126895966Y-28439018D01*
X126997823Y-28605234D01*
X127009988Y-28625086D01*
X127156251Y-28793936D01*
X127328127Y-28936630D01*
X127398596Y-28977809D01*
X127401446Y-28979474D01*
X127450170Y-29031112D01*
X127463241Y-29100895D01*
X127436510Y-29166667D01*
X127396056Y-29200025D01*
X127383608Y-29206505D01*
X127379475Y-29209608D01*
X127379472Y-29209610D01*
X127355248Y-29227798D01*
X127204966Y-29340633D01*
X127050630Y-29502136D01*
X126924744Y-29686678D01*
X126830689Y-29889303D01*
X126770990Y-30104568D01*
X126747252Y-30326693D01*
X126747549Y-30331846D01*
X126747549Y-30331849D01*
X126753012Y-30426588D01*
X126760111Y-30549713D01*
X126761248Y-30554759D01*
X126761249Y-30554765D01*
X126781120Y-30642937D01*
X126809223Y-30767637D01*
X126893267Y-30974614D01*
X127009988Y-31165086D01*
X127156251Y-31333936D01*
X127328127Y-31476630D01*
X127398596Y-31517809D01*
X127401446Y-31519474D01*
X127450170Y-31571112D01*
X127463241Y-31640895D01*
X127436510Y-31706667D01*
X127396056Y-31740025D01*
X127383608Y-31746505D01*
X127379475Y-31749608D01*
X127379472Y-31749610D01*
X127209101Y-31877528D01*
X127204966Y-31880633D01*
X127050630Y-32042136D01*
X126924744Y-32226678D01*
X126909004Y-32260588D01*
X126834406Y-32421296D01*
X126830689Y-32429303D01*
X126770990Y-32644568D01*
X126747252Y-32866693D01*
X126747549Y-32871846D01*
X126747549Y-32871849D01*
X126753012Y-32966588D01*
X126760111Y-33089713D01*
X126761248Y-33094759D01*
X126761249Y-33094765D01*
X126761530Y-33096011D01*
X126809223Y-33307637D01*
X126847462Y-33401809D01*
X126887378Y-33500110D01*
X126893267Y-33514614D01*
X127009988Y-33705086D01*
X127156251Y-33873936D01*
X127328127Y-34016630D01*
X127398596Y-34057809D01*
X127401446Y-34059474D01*
X127450170Y-34111112D01*
X127463241Y-34180895D01*
X127436510Y-34246667D01*
X127396056Y-34280025D01*
X127383608Y-34286505D01*
X127379475Y-34289608D01*
X127379472Y-34289610D01*
X127209101Y-34417528D01*
X127204966Y-34420633D01*
X127050630Y-34582136D01*
X127047716Y-34586408D01*
X127047715Y-34586409D01*
X127001088Y-34654762D01*
X126924744Y-34766678D01*
X126830689Y-34969303D01*
X126770990Y-35184568D01*
X126747252Y-35406693D01*
X126747549Y-35411846D01*
X126747549Y-35411849D01*
X126753012Y-35506588D01*
X126760111Y-35629713D01*
X126761248Y-35634759D01*
X126761249Y-35634765D01*
X126767869Y-35664138D01*
X126809223Y-35847637D01*
X126893267Y-36054614D01*
X127009988Y-36245086D01*
X127156251Y-36413936D01*
X127328127Y-36556630D01*
X127393319Y-36594725D01*
X127401446Y-36599474D01*
X127450170Y-36651112D01*
X127463241Y-36720895D01*
X127436510Y-36786667D01*
X127396056Y-36820025D01*
X127383608Y-36826505D01*
X127379475Y-36829608D01*
X127379472Y-36829610D01*
X127230483Y-36941474D01*
X127204966Y-36960633D01*
X127050630Y-37122136D01*
X127047716Y-37126408D01*
X127047715Y-37126409D01*
X127035405Y-37144455D01*
X126924744Y-37306678D01*
X126830689Y-37509303D01*
X126770990Y-37724568D01*
X126747252Y-37946693D01*
X126078000Y-37946693D01*
X126078000Y-35183205D01*
X126079746Y-35162301D01*
X126082264Y-35147333D01*
X126083071Y-35142537D01*
X126083224Y-35129998D01*
X126082534Y-35125182D01*
X126082529Y-35125098D01*
X126081665Y-35117312D01*
X126080667Y-35104632D01*
X126064040Y-34893365D01*
X126062886Y-34888558D01*
X126062885Y-34888552D01*
X126028098Y-34743658D01*
X126008628Y-34662559D01*
X126006734Y-34657986D01*
X125921535Y-34452296D01*
X125913946Y-34381706D01*
X125932856Y-34338244D01*
X125931490Y-34337451D01*
X125964671Y-34280325D01*
X126020326Y-34184508D01*
X126024177Y-34171795D01*
X126069473Y-34022237D01*
X126071595Y-34015231D01*
X126082547Y-33838700D01*
X126072840Y-33782205D01*
X126053834Y-33671600D01*
X126053834Y-33671599D01*
X126052594Y-33664384D01*
X126033785Y-33620179D01*
X126007199Y-33557698D01*
X125998933Y-33487184D01*
X126014186Y-33445081D01*
X126016646Y-33440845D01*
X126016649Y-33440839D01*
X126020326Y-33434508D01*
X126058752Y-33307637D01*
X126069473Y-33272237D01*
X126071595Y-33265231D01*
X126082547Y-33088700D01*
X126062135Y-32969906D01*
X126053834Y-32921600D01*
X126053834Y-32921599D01*
X126052594Y-32914384D01*
X126034495Y-32871849D01*
X126007199Y-32807698D01*
X125998933Y-32737184D01*
X126014186Y-32695081D01*
X126016646Y-32690845D01*
X126016649Y-32690839D01*
X126020326Y-32684508D01*
X126022492Y-32677359D01*
X126069473Y-32522237D01*
X126071595Y-32515231D01*
X126082547Y-32338700D01*
X126052594Y-32164384D01*
X126049728Y-32157648D01*
X126007199Y-32057698D01*
X125998933Y-31987184D01*
X126014186Y-31945081D01*
X126016646Y-31940845D01*
X126016649Y-31940839D01*
X126020326Y-31934508D01*
X126028698Y-31906868D01*
X126069473Y-31772237D01*
X126071595Y-31765231D01*
X126082547Y-31588700D01*
X126052594Y-31414384D01*
X126049728Y-31407648D01*
X126007199Y-31307698D01*
X125998933Y-31237184D01*
X126014186Y-31195081D01*
X126016646Y-31190845D01*
X126016649Y-31190839D01*
X126020326Y-31184508D01*
X126026209Y-31165086D01*
X126069473Y-31022237D01*
X126071595Y-31015231D01*
X126082547Y-30838700D01*
X126052594Y-30664384D01*
X126043468Y-30642937D01*
X126007199Y-30557698D01*
X125998933Y-30487184D01*
X126014186Y-30445081D01*
X126016646Y-30440845D01*
X126016649Y-30440839D01*
X126020326Y-30434508D01*
X126023740Y-30423238D01*
X126069473Y-30272237D01*
X126071595Y-30265231D01*
X126082547Y-30088700D01*
X126052594Y-29914384D01*
X126039924Y-29884608D01*
X126007199Y-29807698D01*
X125998933Y-29737184D01*
X126014186Y-29695081D01*
X126016646Y-29690845D01*
X126016649Y-29690839D01*
X126020326Y-29684508D01*
X126033001Y-29642661D01*
X126069473Y-29522237D01*
X126071595Y-29515231D01*
X126082547Y-29338700D01*
X126052594Y-29164384D01*
X125983343Y-29001634D01*
X125979010Y-28995746D01*
X125979007Y-28995741D01*
X125934519Y-28935290D01*
X125910253Y-28868569D01*
X125919592Y-28812389D01*
X125927236Y-28793936D01*
X125995559Y-28628988D01*
X126006734Y-28602010D01*
X126006735Y-28602008D01*
X126008628Y-28597437D01*
X126037328Y-28477895D01*
X126062885Y-28371444D01*
X126062886Y-28371438D01*
X126064040Y-28366631D01*
X126080014Y-28163655D01*
X126081372Y-28152635D01*
X126082265Y-28147328D01*
X126082265Y-28147327D01*
X126083071Y-28142537D01*
X126083224Y-28129998D01*
X126079273Y-28102410D01*
X126078000Y-28084547D01*
X126078001Y-22789326D01*
X126079501Y-22769942D01*
X126081806Y-22755141D01*
X126081806Y-22755137D01*
X126083187Y-22746268D01*
X126081060Y-22729999D01*
X126080267Y-22705431D01*
X126094845Y-22483013D01*
X126096996Y-22466672D01*
X126145630Y-22222174D01*
X126149896Y-22206255D01*
X126230023Y-21970208D01*
X126236330Y-21954981D01*
X126346585Y-21731406D01*
X126354826Y-21717133D01*
X126493317Y-21509865D01*
X126503350Y-21496788D01*
X126667715Y-21309366D01*
X126679369Y-21297712D01*
X126866791Y-21133347D01*
X126879868Y-21123314D01*
X127087136Y-20984823D01*
X127101409Y-20976582D01*
X127324984Y-20866327D01*
X127340211Y-20860020D01*
X127576258Y-20779893D01*
X127592177Y-20775627D01*
X127836674Y-20726993D01*
X127853015Y-20724842D01*
X128068269Y-20710734D01*
X128091305Y-20711759D01*
X128094855Y-20711802D01*
X128103731Y-20713184D01*
X128135253Y-20709062D01*
X128151590Y-20707998D01*
X145840673Y-20707998D01*
X145860058Y-20709498D01*
G37*
%TD.AperFunction*%
%TD*%
M02*
