%TF.GenerationSoftware,KiCad,Pcbnew,(6.0.2)*%
%TF.CreationDate,2022-03-22T07:25:02-04:00*%
%TF.ProjectId,Panel_Design_1,50616e65-6c5f-4446-9573-69676e5f312e,rev?*%
%TF.SameCoordinates,Original*%
%TF.FileFunction,Paste,Top*%
%TF.FilePolarity,Positive*%
%FSLAX46Y46*%
G04 Gerber Fmt 4.6, Leading zero omitted, Abs format (unit mm)*
G04 Created by KiCad (PCBNEW (6.0.2)) date 2022-03-22 07:25:02*
%MOMM*%
%LPD*%
G01*
G04 APERTURE LIST*
G04 Aperture macros list*
%AMRoundRect*
0 Rectangle with rounded corners*
0 $1 Rounding radius*
0 $2 $3 $4 $5 $6 $7 $8 $9 X,Y pos of 4 corners*
0 Add a 4 corners polygon primitive as box body*
4,1,4,$2,$3,$4,$5,$6,$7,$8,$9,$2,$3,0*
0 Add four circle primitives for the rounded corners*
1,1,$1+$1,$2,$3*
1,1,$1+$1,$4,$5*
1,1,$1+$1,$6,$7*
1,1,$1+$1,$8,$9*
0 Add four rect primitives between the rounded corners*
20,1,$1+$1,$2,$3,$4,$5,0*
20,1,$1+$1,$4,$5,$6,$7,0*
20,1,$1+$1,$6,$7,$8,$9,0*
20,1,$1+$1,$8,$9,$2,$3,0*%
G04 Aperture macros list end*
%ADD10RoundRect,0.289474X-0.535526X-0.585526X0.535526X-0.585526X0.535526X0.585526X-0.535526X0.585526X0*%
%ADD11R,0.600000X1.450000*%
%ADD12R,0.300000X1.450000*%
G04 APERTURE END LIST*
D10*
%TO.C,G47*%
X109599100Y-38640000D03*
X112421400Y-38640000D03*
%TD*%
%TO.C,G27*%
X70039100Y-38640000D03*
X72861400Y-38640000D03*
%TD*%
%TO.C,G76*%
X70039100Y-66040000D03*
X72861400Y-66040000D03*
%TD*%
%TO.C,G78*%
X70039100Y-71120000D03*
X72861400Y-71120000D03*
%TD*%
%TO.C,G30*%
X70039100Y-46260000D03*
X72861400Y-46260000D03*
%TD*%
%TO.C,G87*%
X89819100Y-68580000D03*
X92641400Y-68580000D03*
%TD*%
%TO.C,G84*%
X89819100Y-60960000D03*
X92641400Y-60960000D03*
%TD*%
%TO.C,G14*%
X50259100Y-31020000D03*
X53081400Y-31020000D03*
%TD*%
%TO.C,G13*%
X50259100Y-28480000D03*
X53081400Y-28480000D03*
%TD*%
%TO.C,G19*%
X50259100Y-43720000D03*
X53081400Y-43720000D03*
%TD*%
%TO.C,G4*%
X30479100Y-31020000D03*
X33301400Y-31020000D03*
%TD*%
%TO.C,G10*%
X30479100Y-46260000D03*
X33301400Y-46260000D03*
%TD*%
%TO.C,G3*%
X30479100Y-28480000D03*
X33301400Y-28480000D03*
%TD*%
%TO.C,G46*%
X109599100Y-36100000D03*
X112421400Y-36100000D03*
%TD*%
%TO.C,G90*%
X89819100Y-76200000D03*
X92641400Y-76200000D03*
%TD*%
%TO.C,G1*%
X30479100Y-23400000D03*
X33301400Y-23400000D03*
%TD*%
%TO.C,G64*%
X50259100Y-60960000D03*
X53081400Y-60960000D03*
%TD*%
%TO.C,G57*%
X30479100Y-68580000D03*
X33301400Y-68580000D03*
%TD*%
%TO.C,G34*%
X89819100Y-31020000D03*
X92641400Y-31020000D03*
%TD*%
%TO.C,G66*%
X50259100Y-66040000D03*
X53081400Y-66040000D03*
%TD*%
%TO.C,G41*%
X109599100Y-23400000D03*
X112421400Y-23400000D03*
%TD*%
%TO.C,G8*%
X30479100Y-41180000D03*
X33301400Y-41180000D03*
%TD*%
%TO.C,G82*%
X89819100Y-55880000D03*
X92641400Y-55880000D03*
%TD*%
%TO.C,G17*%
X50259100Y-38640000D03*
X53081400Y-38640000D03*
%TD*%
%TO.C,G65*%
X50259100Y-63500000D03*
X53081400Y-63500000D03*
%TD*%
%TO.C,G95*%
X109599100Y-63500000D03*
X112421400Y-63500000D03*
%TD*%
D11*
%TO.C,USB1*%
X129835002Y-39559999D03*
X130610002Y-39559999D03*
D12*
X131310002Y-39559999D03*
X131810002Y-39559999D03*
X132310002Y-39559999D03*
X132810002Y-39559999D03*
X133310002Y-39559999D03*
X133810002Y-39559999D03*
X134310002Y-39559999D03*
X134810002Y-39559999D03*
D11*
X135510002Y-39559999D03*
X136285002Y-39559999D03*
%TD*%
D10*
%TO.C,G70*%
X50259100Y-76200000D03*
X53081400Y-76200000D03*
%TD*%
%TO.C,G59*%
X30479100Y-73660000D03*
X33301400Y-73660000D03*
%TD*%
%TO.C,G85*%
X89819100Y-63500000D03*
X92641400Y-63500000D03*
%TD*%
%TO.C,G98*%
X109599100Y-71120000D03*
X112421400Y-71120000D03*
%TD*%
%TO.C,G24*%
X70039100Y-31020000D03*
X72861400Y-31020000D03*
%TD*%
%TO.C,G2*%
X30479100Y-25940000D03*
X33301400Y-25940000D03*
%TD*%
%TO.C,G18*%
X50259100Y-41180000D03*
X53081400Y-41180000D03*
%TD*%
%TO.C,G31*%
X89819100Y-23400000D03*
X92641400Y-23400000D03*
%TD*%
%TO.C,G80*%
X70039100Y-76200000D03*
X72861400Y-76200000D03*
%TD*%
%TO.C,G67*%
X50259100Y-68580000D03*
X53081400Y-68580000D03*
%TD*%
%TO.C,G60*%
X30479100Y-76200000D03*
X33301400Y-76200000D03*
%TD*%
%TO.C,G25*%
X70039100Y-33560000D03*
X72861400Y-33560000D03*
%TD*%
%TO.C,G73*%
X70039100Y-58420000D03*
X72861400Y-58420000D03*
%TD*%
%TO.C,G38*%
X89819100Y-41180000D03*
X92641400Y-41180000D03*
%TD*%
%TO.C,G53*%
X30479100Y-58420000D03*
X33301400Y-58420000D03*
%TD*%
%TO.C,G23*%
X70039100Y-28480000D03*
X72861400Y-28480000D03*
%TD*%
%TO.C,G26*%
X70039100Y-36100000D03*
X72861400Y-36100000D03*
%TD*%
%TO.C,G21*%
X70039100Y-23400000D03*
X72861400Y-23400000D03*
%TD*%
%TO.C,G56*%
X30479100Y-66040000D03*
X33301400Y-66040000D03*
%TD*%
%TO.C,G7*%
X30479100Y-38640000D03*
X33301400Y-38640000D03*
%TD*%
%TO.C,G39*%
X89819100Y-43720000D03*
X92641400Y-43720000D03*
%TD*%
%TO.C,G83*%
X89819100Y-58420000D03*
X92641400Y-58420000D03*
%TD*%
%TO.C,G79*%
X70039100Y-73660000D03*
X72861400Y-73660000D03*
%TD*%
%TO.C,G86*%
X89819100Y-66040000D03*
X92641400Y-66040000D03*
%TD*%
%TO.C,G89*%
X89819100Y-73660000D03*
X92641400Y-73660000D03*
%TD*%
%TO.C,G68*%
X50259100Y-71120000D03*
X53081400Y-71120000D03*
%TD*%
%TO.C,G12*%
X50259100Y-25940000D03*
X53081400Y-25940000D03*
%TD*%
%TO.C,G55*%
X30479100Y-63500000D03*
X33301400Y-63500000D03*
%TD*%
%TO.C,G96*%
X109599100Y-66040000D03*
X112421400Y-66040000D03*
%TD*%
%TO.C,G99*%
X109599100Y-73660000D03*
X112421400Y-73660000D03*
%TD*%
%TO.C,G43*%
X109599100Y-28480000D03*
X112421400Y-28480000D03*
%TD*%
%TO.C,G29*%
X70039100Y-43720000D03*
X72861400Y-43720000D03*
%TD*%
%TO.C,G48*%
X109599100Y-41180000D03*
X112421400Y-41180000D03*
%TD*%
%TO.C,G42*%
X109599100Y-25940000D03*
X112421400Y-25940000D03*
%TD*%
%TO.C,G6*%
X30479100Y-36100000D03*
X33301400Y-36100000D03*
%TD*%
%TO.C,G49*%
X109599100Y-43720000D03*
X112421400Y-43720000D03*
%TD*%
%TO.C,G93*%
X109599100Y-58420000D03*
X112421400Y-58420000D03*
%TD*%
%TO.C,G72*%
X70039100Y-55880000D03*
X72861400Y-55880000D03*
%TD*%
%TO.C,G75*%
X70039100Y-63500000D03*
X72861400Y-63500000D03*
%TD*%
%TO.C,G9*%
X30479100Y-43720000D03*
X33301400Y-43720000D03*
%TD*%
%TO.C,G16*%
X50259100Y-36100000D03*
X53081400Y-36100000D03*
%TD*%
%TO.C,G63*%
X50259100Y-58420000D03*
X53081400Y-58420000D03*
%TD*%
%TO.C,G88*%
X89819100Y-71120000D03*
X92641400Y-71120000D03*
%TD*%
%TO.C,G62*%
X50259100Y-55880000D03*
X53081400Y-55880000D03*
%TD*%
%TO.C,G97*%
X109599100Y-68580000D03*
X112421400Y-68580000D03*
%TD*%
%TO.C,G37*%
X89819100Y-38640000D03*
X92641400Y-38640000D03*
%TD*%
%TO.C,G5*%
X30479100Y-33560000D03*
X33301400Y-33560000D03*
%TD*%
%TO.C,G94*%
X109599100Y-60960000D03*
X112421400Y-60960000D03*
%TD*%
%TO.C,G28*%
X70039100Y-41180000D03*
X72861400Y-41180000D03*
%TD*%
%TO.C,G69*%
X50259100Y-73660000D03*
X53081400Y-73660000D03*
%TD*%
%TO.C,G15*%
X50259100Y-33560000D03*
X53081400Y-33560000D03*
%TD*%
%TO.C,G45*%
X109599100Y-33560000D03*
X112421400Y-33560000D03*
%TD*%
%TO.C,G92*%
X109599100Y-55880000D03*
X112421400Y-55880000D03*
%TD*%
%TO.C,G61*%
X50259100Y-53340000D03*
X53081400Y-53340000D03*
%TD*%
%TO.C,G36*%
X89819100Y-36100000D03*
X92641400Y-36100000D03*
%TD*%
%TO.C,G71*%
X70039100Y-53340000D03*
X72861400Y-53340000D03*
%TD*%
%TO.C,G52*%
X30479100Y-55880000D03*
X33301400Y-55880000D03*
%TD*%
%TO.C,G77*%
X70039100Y-68580000D03*
X72861400Y-68580000D03*
%TD*%
%TO.C,G33*%
X89819100Y-28480000D03*
X92641400Y-28480000D03*
%TD*%
%TO.C,G40*%
X89819100Y-46260000D03*
X92641400Y-46260000D03*
%TD*%
%TO.C,G100*%
X109599100Y-76200000D03*
X112421400Y-76200000D03*
%TD*%
%TO.C,G54*%
X30479100Y-60960000D03*
X33301400Y-60960000D03*
%TD*%
%TO.C,G11*%
X50259100Y-23400000D03*
X53081400Y-23400000D03*
%TD*%
%TO.C,G91*%
X109599100Y-53340000D03*
X112421400Y-53340000D03*
%TD*%
%TO.C,G81*%
X89819100Y-53340000D03*
X92641400Y-53340000D03*
%TD*%
%TO.C,G51*%
X30479100Y-53340000D03*
X33301400Y-53340000D03*
%TD*%
%TO.C,G20*%
X50259100Y-46260000D03*
X53081400Y-46260000D03*
%TD*%
%TO.C,G58*%
X30479100Y-71120000D03*
X33301400Y-71120000D03*
%TD*%
%TO.C,G50*%
X109599100Y-46260000D03*
X112421400Y-46260000D03*
%TD*%
%TO.C,G35*%
X89819100Y-33560000D03*
X92641400Y-33560000D03*
%TD*%
%TO.C,G44*%
X109599100Y-31020000D03*
X112421400Y-31020000D03*
%TD*%
%TO.C,G22*%
X70039100Y-25940000D03*
X72861400Y-25940000D03*
%TD*%
%TO.C,G32*%
X89819100Y-25940000D03*
X92641400Y-25940000D03*
%TD*%
%TO.C,G74*%
X70039100Y-60960000D03*
X72861400Y-60960000D03*
%TD*%
M02*
