%TF.GenerationSoftware,KiCad,Pcbnew,(6.0.2)*%
%TF.CreationDate,2022-03-22T07:25:02-04:00*%
%TF.ProjectId,Panel_Design_1,50616e65-6c5f-4446-9573-69676e5f312e,rev?*%
%TF.SameCoordinates,Original*%
%TF.FileFunction,Legend,Top*%
%TF.FilePolarity,Positive*%
%FSLAX46Y46*%
G04 Gerber Fmt 4.6, Leading zero omitted, Abs format (unit mm)*
G04 Created by KiCad (PCBNEW (6.0.2)) date 2022-03-22 07:25:02*
%MOMM*%
%LPD*%
G01*
G04 APERTURE LIST*
%ADD10C,0.150000*%
%ADD11C,0.120000*%
%ADD12C,0.100000*%
G04 APERTURE END LIST*
D10*
X114489523Y-39092380D02*
X113918095Y-39092380D01*
X114203809Y-39092380D02*
X114203809Y-38092380D01*
X114108571Y-38235238D01*
X114013333Y-38330476D01*
X113918095Y-38378095D01*
X115346666Y-38425714D02*
X115346666Y-39092380D01*
X115108571Y-38044761D02*
X114870476Y-38759047D01*
X115489523Y-38759047D01*
X27606666Y-30472380D02*
X28273333Y-30472380D01*
X27844761Y-31472380D01*
X86946666Y-25392380D02*
X87565714Y-25392380D01*
X87232380Y-25773333D01*
X87375238Y-25773333D01*
X87470476Y-25820952D01*
X87518095Y-25868571D01*
X87565714Y-25963809D01*
X87565714Y-26201904D01*
X87518095Y-26297142D01*
X87470476Y-26344761D01*
X87375238Y-26392380D01*
X87089523Y-26392380D01*
X86994285Y-26344761D01*
X86946666Y-26297142D01*
X106869523Y-66492380D02*
X106298095Y-66492380D01*
X106583809Y-66492380D02*
X106583809Y-65492380D01*
X106488571Y-65635238D01*
X106393333Y-65730476D01*
X106298095Y-65778095D01*
X107821904Y-66492380D02*
X107250476Y-66492380D01*
X107536190Y-66492380D02*
X107536190Y-65492380D01*
X107440952Y-65635238D01*
X107345714Y-65730476D01*
X107250476Y-65778095D01*
X67309523Y-63952380D02*
X67500000Y-63952380D01*
X67595238Y-63904761D01*
X67642857Y-63857142D01*
X67738095Y-63714285D01*
X67785714Y-63523809D01*
X67785714Y-63142857D01*
X67738095Y-63047619D01*
X67690476Y-63000000D01*
X67595238Y-62952380D01*
X67404761Y-62952380D01*
X67309523Y-63000000D01*
X67261904Y-63047619D01*
X67214285Y-63142857D01*
X67214285Y-63380952D01*
X67261904Y-63476190D01*
X67309523Y-63523809D01*
X67404761Y-63571428D01*
X67595238Y-63571428D01*
X67690476Y-63523809D01*
X67738095Y-63476190D01*
X67785714Y-63380952D01*
X47529523Y-44172380D02*
X46958095Y-44172380D01*
X47243809Y-44172380D02*
X47243809Y-43172380D01*
X47148571Y-43315238D01*
X47053333Y-43410476D01*
X46958095Y-43458095D01*
X47862857Y-43172380D02*
X48529523Y-43172380D01*
X48100952Y-44172380D01*
X95090476Y-25725714D02*
X95090476Y-26392380D01*
X94852380Y-25344761D02*
X94614285Y-26059047D01*
X95233333Y-26059047D01*
X35464761Y-60840952D02*
X35369523Y-60793333D01*
X35321904Y-60745714D01*
X35274285Y-60650476D01*
X35274285Y-60602857D01*
X35321904Y-60507619D01*
X35369523Y-60460000D01*
X35464761Y-60412380D01*
X35655238Y-60412380D01*
X35750476Y-60460000D01*
X35798095Y-60507619D01*
X35845714Y-60602857D01*
X35845714Y-60650476D01*
X35798095Y-60745714D01*
X35750476Y-60793333D01*
X35655238Y-60840952D01*
X35464761Y-60840952D01*
X35369523Y-60888571D01*
X35321904Y-60936190D01*
X35274285Y-61031428D01*
X35274285Y-61221904D01*
X35321904Y-61317142D01*
X35369523Y-61364761D01*
X35464761Y-61412380D01*
X35655238Y-61412380D01*
X35750476Y-61364761D01*
X35798095Y-61317142D01*
X35845714Y-61221904D01*
X35845714Y-61031428D01*
X35798095Y-60936190D01*
X35750476Y-60888571D01*
X35655238Y-60840952D01*
X106869523Y-36552380D02*
X106298095Y-36552380D01*
X106583809Y-36552380D02*
X106583809Y-35552380D01*
X106488571Y-35695238D01*
X106393333Y-35790476D01*
X106298095Y-35838095D01*
X107821904Y-36552380D02*
X107250476Y-36552380D01*
X107536190Y-36552380D02*
X107536190Y-35552380D01*
X107440952Y-35695238D01*
X107345714Y-35790476D01*
X107250476Y-35838095D01*
X139206667Y-67962381D02*
X139825715Y-67962381D01*
X139492381Y-68343334D01*
X139635239Y-68343334D01*
X139730477Y-68390953D01*
X139778096Y-68438572D01*
X139825715Y-68533810D01*
X139825715Y-68771905D01*
X139778096Y-68867143D01*
X139730477Y-68914762D01*
X139635239Y-68962381D01*
X139349524Y-68962381D01*
X139254286Y-68914762D01*
X139206667Y-68867143D01*
X47958095Y-27932380D02*
X47481904Y-27932380D01*
X47434285Y-28408571D01*
X47481904Y-28360952D01*
X47577142Y-28313333D01*
X47815238Y-28313333D01*
X47910476Y-28360952D01*
X47958095Y-28408571D01*
X48005714Y-28503809D01*
X48005714Y-28741904D01*
X47958095Y-28837142D01*
X47910476Y-28884761D01*
X47815238Y-28932380D01*
X47577142Y-28932380D01*
X47481904Y-28884761D01*
X47434285Y-28837142D01*
X27749523Y-76652380D02*
X27178095Y-76652380D01*
X27463809Y-76652380D02*
X27463809Y-75652380D01*
X27368571Y-75795238D01*
X27273333Y-75890476D01*
X27178095Y-75938095D01*
X28225714Y-76652380D02*
X28416190Y-76652380D01*
X28511428Y-76604761D01*
X28559047Y-76557142D01*
X28654285Y-76414285D01*
X28701904Y-76223809D01*
X28701904Y-75842857D01*
X28654285Y-75747619D01*
X28606666Y-75700000D01*
X28511428Y-75652380D01*
X28320952Y-75652380D01*
X28225714Y-75700000D01*
X28178095Y-75747619D01*
X28130476Y-75842857D01*
X28130476Y-76080952D01*
X28178095Y-76176190D01*
X28225714Y-76223809D01*
X28320952Y-76271428D01*
X28511428Y-76271428D01*
X28606666Y-76223809D01*
X28654285Y-76176190D01*
X28701904Y-76080952D01*
X114489523Y-36552380D02*
X113918095Y-36552380D01*
X114203809Y-36552380D02*
X114203809Y-35552380D01*
X114108571Y-35695238D01*
X114013333Y-35790476D01*
X113918095Y-35838095D01*
X114870476Y-35647619D02*
X114918095Y-35600000D01*
X115013333Y-35552380D01*
X115251428Y-35552380D01*
X115346666Y-35600000D01*
X115394285Y-35647619D01*
X115441904Y-35742857D01*
X115441904Y-35838095D01*
X115394285Y-35980952D01*
X114822857Y-36552380D01*
X115441904Y-36552380D01*
X127030478Y-30542379D02*
X126840002Y-30542379D01*
X126744763Y-30589999D01*
X126697144Y-30637618D01*
X126601906Y-30780475D01*
X126554287Y-30970951D01*
X126554287Y-31351903D01*
X126601906Y-31447141D01*
X126649525Y-31494760D01*
X126744763Y-31542379D01*
X126935240Y-31542379D01*
X127030478Y-31494760D01*
X127078097Y-31447141D01*
X127125716Y-31351903D01*
X127125716Y-31113808D01*
X127078097Y-31018570D01*
X127030478Y-30970951D01*
X126935240Y-30923332D01*
X126744763Y-30923332D01*
X126649525Y-30970951D01*
X126601906Y-31018570D01*
X126554287Y-31113808D01*
X35369523Y-71572380D02*
X34798095Y-71572380D01*
X35083809Y-71572380D02*
X35083809Y-70572380D01*
X34988571Y-70715238D01*
X34893333Y-70810476D01*
X34798095Y-70858095D01*
X36226666Y-70572380D02*
X36036190Y-70572380D01*
X35940952Y-70620000D01*
X35893333Y-70667619D01*
X35798095Y-70810476D01*
X35750476Y-71000952D01*
X35750476Y-71381904D01*
X35798095Y-71477142D01*
X35845714Y-71524761D01*
X35940952Y-71572380D01*
X36131428Y-71572380D01*
X36226666Y-71524761D01*
X36274285Y-71477142D01*
X36321904Y-71381904D01*
X36321904Y-71143809D01*
X36274285Y-71048571D01*
X36226666Y-71000952D01*
X36131428Y-70953333D01*
X35940952Y-70953333D01*
X35845714Y-71000952D01*
X35798095Y-71048571D01*
X35750476Y-71143809D01*
X35750476Y-25725714D02*
X35750476Y-26392380D01*
X35512380Y-25344761D02*
X35274285Y-26059047D01*
X35893333Y-26059047D01*
X139349525Y-31542379D02*
X139540002Y-31542379D01*
X139635240Y-31494760D01*
X139682859Y-31447141D01*
X139778097Y-31304284D01*
X139825716Y-31113808D01*
X139825716Y-30732856D01*
X139778097Y-30637618D01*
X139730478Y-30589999D01*
X139635240Y-30542379D01*
X139444763Y-30542379D01*
X139349525Y-30589999D01*
X139301906Y-30637618D01*
X139254287Y-30732856D01*
X139254287Y-30970951D01*
X139301906Y-31066189D01*
X139349525Y-31113808D01*
X139444763Y-31161427D01*
X139635240Y-31161427D01*
X139730478Y-31113808D01*
X139778097Y-31066189D01*
X139825716Y-30970951D01*
X55149523Y-44172380D02*
X54578095Y-44172380D01*
X54863809Y-44172380D02*
X54863809Y-43172380D01*
X54768571Y-43315238D01*
X54673333Y-43410476D01*
X54578095Y-43458095D01*
X55720952Y-43600952D02*
X55625714Y-43553333D01*
X55578095Y-43505714D01*
X55530476Y-43410476D01*
X55530476Y-43362857D01*
X55578095Y-43267619D01*
X55625714Y-43220000D01*
X55720952Y-43172380D01*
X55911428Y-43172380D01*
X56006666Y-43220000D01*
X56054285Y-43267619D01*
X56101904Y-43362857D01*
X56101904Y-43410476D01*
X56054285Y-43505714D01*
X56006666Y-43553333D01*
X55911428Y-43600952D01*
X55720952Y-43600952D01*
X55625714Y-43648571D01*
X55578095Y-43696190D01*
X55530476Y-43791428D01*
X55530476Y-43981904D01*
X55578095Y-44077142D01*
X55625714Y-44124761D01*
X55720952Y-44172380D01*
X55911428Y-44172380D01*
X56006666Y-44124761D01*
X56054285Y-44077142D01*
X56101904Y-43981904D01*
X56101904Y-43791428D01*
X56054285Y-43696190D01*
X56006666Y-43648571D01*
X55911428Y-43600952D01*
X127030478Y-35955713D02*
X127030478Y-36622379D01*
X126792382Y-35574760D02*
X126554287Y-36289046D01*
X127173335Y-36289046D01*
X47386666Y-55332380D02*
X48005714Y-55332380D01*
X47672380Y-55713333D01*
X47815238Y-55713333D01*
X47910476Y-55760952D01*
X47958095Y-55808571D01*
X48005714Y-55903809D01*
X48005714Y-56141904D01*
X47958095Y-56237142D01*
X47910476Y-56284761D01*
X47815238Y-56332380D01*
X47529523Y-56332380D01*
X47434285Y-56284761D01*
X47386666Y-56237142D01*
X27749523Y-74112380D02*
X27178095Y-74112380D01*
X27463809Y-74112380D02*
X27463809Y-73112380D01*
X27368571Y-73255238D01*
X27273333Y-73350476D01*
X27178095Y-73398095D01*
X28082857Y-73112380D02*
X28749523Y-73112380D01*
X28320952Y-74112380D01*
X94709523Y-71572380D02*
X94138095Y-71572380D01*
X94423809Y-71572380D02*
X94423809Y-70572380D01*
X94328571Y-70715238D01*
X94233333Y-70810476D01*
X94138095Y-70858095D01*
X95566666Y-70572380D02*
X95376190Y-70572380D01*
X95280952Y-70620000D01*
X95233333Y-70667619D01*
X95138095Y-70810476D01*
X95090476Y-71000952D01*
X95090476Y-71381904D01*
X95138095Y-71477142D01*
X95185714Y-71524761D01*
X95280952Y-71572380D01*
X95471428Y-71572380D01*
X95566666Y-71524761D01*
X95614285Y-71477142D01*
X95661904Y-71381904D01*
X95661904Y-71143809D01*
X95614285Y-71048571D01*
X95566666Y-71000952D01*
X95471428Y-70953333D01*
X95280952Y-70953333D01*
X95185714Y-71000952D01*
X95138095Y-71048571D01*
X95090476Y-71143809D01*
X74834285Y-52887619D02*
X74881904Y-52840000D01*
X74977142Y-52792380D01*
X75215238Y-52792380D01*
X75310476Y-52840000D01*
X75358095Y-52887619D01*
X75405714Y-52982857D01*
X75405714Y-53078095D01*
X75358095Y-53220952D01*
X74786666Y-53792380D01*
X75405714Y-53792380D01*
X35369523Y-69032380D02*
X34798095Y-69032380D01*
X35083809Y-69032380D02*
X35083809Y-68032380D01*
X34988571Y-68175238D01*
X34893333Y-68270476D01*
X34798095Y-68318095D01*
X36226666Y-68365714D02*
X36226666Y-69032380D01*
X35988571Y-67984761D02*
X35750476Y-68699047D01*
X36369523Y-68699047D01*
X67166666Y-25392380D02*
X67785714Y-25392380D01*
X67452380Y-25773333D01*
X67595238Y-25773333D01*
X67690476Y-25820952D01*
X67738095Y-25868571D01*
X67785714Y-25963809D01*
X67785714Y-26201904D01*
X67738095Y-26297142D01*
X67690476Y-26344761D01*
X67595238Y-26392380D01*
X67309523Y-26392380D01*
X67214285Y-26344761D01*
X67166666Y-26297142D01*
X87089523Y-71572380D02*
X86518095Y-71572380D01*
X86803809Y-71572380D02*
X86803809Y-70572380D01*
X86708571Y-70715238D01*
X86613333Y-70810476D01*
X86518095Y-70858095D01*
X87994285Y-70572380D02*
X87518095Y-70572380D01*
X87470476Y-71048571D01*
X87518095Y-71000952D01*
X87613333Y-70953333D01*
X87851428Y-70953333D01*
X87946666Y-71000952D01*
X87994285Y-71048571D01*
X88041904Y-71143809D01*
X88041904Y-71381904D01*
X87994285Y-71477142D01*
X87946666Y-71524761D01*
X87851428Y-71572380D01*
X87613333Y-71572380D01*
X87518095Y-71524761D01*
X87470476Y-71477142D01*
X139254286Y-60437620D02*
X139301905Y-60390001D01*
X139397143Y-60342381D01*
X139635239Y-60342381D01*
X139730477Y-60390001D01*
X139778096Y-60437620D01*
X139825715Y-60532858D01*
X139825715Y-60628096D01*
X139778096Y-60770953D01*
X139206667Y-61342381D01*
X139825715Y-61342381D01*
X55149523Y-63952380D02*
X54578095Y-63952380D01*
X54863809Y-63952380D02*
X54863809Y-62952380D01*
X54768571Y-63095238D01*
X54673333Y-63190476D01*
X54578095Y-63238095D01*
X55768571Y-62952380D02*
X55863809Y-62952380D01*
X55959047Y-63000000D01*
X56006666Y-63047619D01*
X56054285Y-63142857D01*
X56101904Y-63333333D01*
X56101904Y-63571428D01*
X56054285Y-63761904D01*
X56006666Y-63857142D01*
X55959047Y-63904761D01*
X55863809Y-63952380D01*
X55768571Y-63952380D01*
X55673333Y-63904761D01*
X55625714Y-63857142D01*
X55578095Y-63761904D01*
X55530476Y-63571428D01*
X55530476Y-63333333D01*
X55578095Y-63142857D01*
X55625714Y-63047619D01*
X55673333Y-63000000D01*
X55768571Y-62952380D01*
X86946666Y-30472380D02*
X87613333Y-30472380D01*
X87184761Y-31472380D01*
X94138095Y-45807619D02*
X94185714Y-45760000D01*
X94280952Y-45712380D01*
X94519047Y-45712380D01*
X94614285Y-45760000D01*
X94661904Y-45807619D01*
X94709523Y-45902857D01*
X94709523Y-45998095D01*
X94661904Y-46140952D01*
X94090476Y-46712380D01*
X94709523Y-46712380D01*
X95328571Y-45712380D02*
X95423809Y-45712380D01*
X95519047Y-45760000D01*
X95566666Y-45807619D01*
X95614285Y-45902857D01*
X95661904Y-46093333D01*
X95661904Y-46331428D01*
X95614285Y-46521904D01*
X95566666Y-46617142D01*
X95519047Y-46664761D01*
X95423809Y-46712380D01*
X95328571Y-46712380D01*
X95233333Y-46664761D01*
X95185714Y-46617142D01*
X95138095Y-46521904D01*
X95090476Y-46331428D01*
X95090476Y-46093333D01*
X95138095Y-45902857D01*
X95185714Y-45807619D01*
X95233333Y-45760000D01*
X95328571Y-45712380D01*
X139206667Y-62882381D02*
X139825715Y-62882381D01*
X139492381Y-63263334D01*
X139635239Y-63263334D01*
X139730477Y-63310953D01*
X139778096Y-63358572D01*
X139825715Y-63453810D01*
X139825715Y-63691905D01*
X139778096Y-63787143D01*
X139730477Y-63834762D01*
X139635239Y-63882381D01*
X139349524Y-63882381D01*
X139254286Y-63834762D01*
X139206667Y-63787143D01*
X139349525Y-36622379D02*
X138778097Y-36622379D01*
X139063811Y-36622379D02*
X139063811Y-35622379D01*
X138968573Y-35765237D01*
X138873335Y-35860475D01*
X138778097Y-35908094D01*
X140301906Y-36622379D02*
X139730478Y-36622379D01*
X140016192Y-36622379D02*
X140016192Y-35622379D01*
X139920954Y-35765237D01*
X139825716Y-35860475D01*
X139730478Y-35908094D01*
X35369523Y-41632380D02*
X34798095Y-41632380D01*
X35083809Y-41632380D02*
X35083809Y-40632380D01*
X34988571Y-40775238D01*
X34893333Y-40870476D01*
X34798095Y-40918095D01*
X36226666Y-40632380D02*
X36036190Y-40632380D01*
X35940952Y-40680000D01*
X35893333Y-40727619D01*
X35798095Y-40870476D01*
X35750476Y-41060952D01*
X35750476Y-41441904D01*
X35798095Y-41537142D01*
X35845714Y-41584761D01*
X35940952Y-41632380D01*
X36131428Y-41632380D01*
X36226666Y-41584761D01*
X36274285Y-41537142D01*
X36321904Y-41441904D01*
X36321904Y-41203809D01*
X36274285Y-41108571D01*
X36226666Y-41060952D01*
X36131428Y-41013333D01*
X35940952Y-41013333D01*
X35845714Y-41060952D01*
X35798095Y-41108571D01*
X35750476Y-41203809D01*
X27749523Y-39092380D02*
X27178095Y-39092380D01*
X27463809Y-39092380D02*
X27463809Y-38092380D01*
X27368571Y-38235238D01*
X27273333Y-38330476D01*
X27178095Y-38378095D01*
X28082857Y-38092380D02*
X28701904Y-38092380D01*
X28368571Y-38473333D01*
X28511428Y-38473333D01*
X28606666Y-38520952D01*
X28654285Y-38568571D01*
X28701904Y-38663809D01*
X28701904Y-38901904D01*
X28654285Y-38997142D01*
X28606666Y-39044761D01*
X28511428Y-39092380D01*
X28225714Y-39092380D01*
X28130476Y-39044761D01*
X28082857Y-38997142D01*
X74358095Y-45807619D02*
X74405714Y-45760000D01*
X74500952Y-45712380D01*
X74739047Y-45712380D01*
X74834285Y-45760000D01*
X74881904Y-45807619D01*
X74929523Y-45902857D01*
X74929523Y-45998095D01*
X74881904Y-46140952D01*
X74310476Y-46712380D01*
X74929523Y-46712380D01*
X75548571Y-45712380D02*
X75643809Y-45712380D01*
X75739047Y-45760000D01*
X75786666Y-45807619D01*
X75834285Y-45902857D01*
X75881904Y-46093333D01*
X75881904Y-46331428D01*
X75834285Y-46521904D01*
X75786666Y-46617142D01*
X75739047Y-46664761D01*
X75643809Y-46712380D01*
X75548571Y-46712380D01*
X75453333Y-46664761D01*
X75405714Y-46617142D01*
X75358095Y-46521904D01*
X75310476Y-46331428D01*
X75310476Y-46093333D01*
X75358095Y-45902857D01*
X75405714Y-45807619D01*
X75453333Y-45760000D01*
X75548571Y-45712380D01*
X67309523Y-34012380D02*
X67500000Y-34012380D01*
X67595238Y-33964761D01*
X67642857Y-33917142D01*
X67738095Y-33774285D01*
X67785714Y-33583809D01*
X67785714Y-33202857D01*
X67738095Y-33107619D01*
X67690476Y-33060000D01*
X67595238Y-33012380D01*
X67404761Y-33012380D01*
X67309523Y-33060000D01*
X67261904Y-33107619D01*
X67214285Y-33202857D01*
X67214285Y-33440952D01*
X67261904Y-33536190D01*
X67309523Y-33583809D01*
X67404761Y-33631428D01*
X67595238Y-33631428D01*
X67690476Y-33583809D01*
X67738095Y-33536190D01*
X67785714Y-33440952D01*
X47529523Y-63952380D02*
X47720000Y-63952380D01*
X47815238Y-63904761D01*
X47862857Y-63857142D01*
X47958095Y-63714285D01*
X48005714Y-63523809D01*
X48005714Y-63142857D01*
X47958095Y-63047619D01*
X47910476Y-63000000D01*
X47815238Y-62952380D01*
X47624761Y-62952380D01*
X47529523Y-63000000D01*
X47481904Y-63047619D01*
X47434285Y-63142857D01*
X47434285Y-63380952D01*
X47481904Y-63476190D01*
X47529523Y-63523809D01*
X47624761Y-63571428D01*
X47815238Y-63571428D01*
X47910476Y-63523809D01*
X47958095Y-63476190D01*
X48005714Y-63380952D01*
X55244761Y-60840952D02*
X55149523Y-60793333D01*
X55101904Y-60745714D01*
X55054285Y-60650476D01*
X55054285Y-60602857D01*
X55101904Y-60507619D01*
X55149523Y-60460000D01*
X55244761Y-60412380D01*
X55435238Y-60412380D01*
X55530476Y-60460000D01*
X55578095Y-60507619D01*
X55625714Y-60602857D01*
X55625714Y-60650476D01*
X55578095Y-60745714D01*
X55530476Y-60793333D01*
X55435238Y-60840952D01*
X55244761Y-60840952D01*
X55149523Y-60888571D01*
X55101904Y-60936190D01*
X55054285Y-61031428D01*
X55054285Y-61221904D01*
X55101904Y-61317142D01*
X55149523Y-61364761D01*
X55244761Y-61412380D01*
X55435238Y-61412380D01*
X55530476Y-61364761D01*
X55578095Y-61317142D01*
X55625714Y-61221904D01*
X55625714Y-61031428D01*
X55578095Y-60936190D01*
X55530476Y-60888571D01*
X55435238Y-60840952D01*
X106869523Y-71572380D02*
X106298095Y-71572380D01*
X106583809Y-71572380D02*
X106583809Y-70572380D01*
X106488571Y-70715238D01*
X106393333Y-70810476D01*
X106298095Y-70858095D01*
X107774285Y-70572380D02*
X107298095Y-70572380D01*
X107250476Y-71048571D01*
X107298095Y-71000952D01*
X107393333Y-70953333D01*
X107631428Y-70953333D01*
X107726666Y-71000952D01*
X107774285Y-71048571D01*
X107821904Y-71143809D01*
X107821904Y-71381904D01*
X107774285Y-71477142D01*
X107726666Y-71524761D01*
X107631428Y-71572380D01*
X107393333Y-71572380D01*
X107298095Y-71524761D01*
X107250476Y-71477142D01*
X87565714Y-53792380D02*
X86994285Y-53792380D01*
X87280000Y-53792380D02*
X87280000Y-52792380D01*
X87184761Y-52935238D01*
X87089523Y-53030476D01*
X86994285Y-53078095D01*
X27749523Y-34012380D02*
X27940000Y-34012380D01*
X28035238Y-33964761D01*
X28082857Y-33917142D01*
X28178095Y-33774285D01*
X28225714Y-33583809D01*
X28225714Y-33202857D01*
X28178095Y-33107619D01*
X28130476Y-33060000D01*
X28035238Y-33012380D01*
X27844761Y-33012380D01*
X27749523Y-33060000D01*
X27701904Y-33107619D01*
X27654285Y-33202857D01*
X27654285Y-33440952D01*
X27701904Y-33536190D01*
X27749523Y-33583809D01*
X27844761Y-33631428D01*
X28035238Y-33631428D01*
X28130476Y-33583809D01*
X28178095Y-33536190D01*
X28225714Y-33440952D01*
X106726666Y-30472380D02*
X107393333Y-30472380D01*
X106964761Y-31472380D01*
X35369523Y-39092380D02*
X34798095Y-39092380D01*
X35083809Y-39092380D02*
X35083809Y-38092380D01*
X34988571Y-38235238D01*
X34893333Y-38330476D01*
X34798095Y-38378095D01*
X36226666Y-38425714D02*
X36226666Y-39092380D01*
X35988571Y-38044761D02*
X35750476Y-38759047D01*
X36369523Y-38759047D01*
X139349525Y-34082379D02*
X138778097Y-34082379D01*
X139063811Y-34082379D02*
X139063811Y-33082379D01*
X138968573Y-33225237D01*
X138873335Y-33320475D01*
X138778097Y-33368094D01*
X139968573Y-33082379D02*
X140063811Y-33082379D01*
X140159049Y-33129999D01*
X140206668Y-33177618D01*
X140254287Y-33272856D01*
X140301906Y-33463332D01*
X140301906Y-33701427D01*
X140254287Y-33891903D01*
X140206668Y-33987141D01*
X140159049Y-34034760D01*
X140063811Y-34082379D01*
X139968573Y-34082379D01*
X139873335Y-34034760D01*
X139825716Y-33987141D01*
X139778097Y-33891903D01*
X139730478Y-33701427D01*
X139730478Y-33463332D01*
X139778097Y-33272856D01*
X139825716Y-33177618D01*
X139873335Y-33129999D01*
X139968573Y-33082379D01*
X94614285Y-22947619D02*
X94661904Y-22900000D01*
X94757142Y-22852380D01*
X94995238Y-22852380D01*
X95090476Y-22900000D01*
X95138095Y-22947619D01*
X95185714Y-23042857D01*
X95185714Y-23138095D01*
X95138095Y-23280952D01*
X94566666Y-23852380D01*
X95185714Y-23852380D01*
X74929523Y-36552380D02*
X74358095Y-36552380D01*
X74643809Y-36552380D02*
X74643809Y-35552380D01*
X74548571Y-35695238D01*
X74453333Y-35790476D01*
X74358095Y-35838095D01*
X75310476Y-35647619D02*
X75358095Y-35600000D01*
X75453333Y-35552380D01*
X75691428Y-35552380D01*
X75786666Y-35600000D01*
X75834285Y-35647619D01*
X75881904Y-35742857D01*
X75881904Y-35838095D01*
X75834285Y-35980952D01*
X75262857Y-36552380D01*
X75881904Y-36552380D01*
X28225714Y-53792380D02*
X27654285Y-53792380D01*
X27940000Y-53792380D02*
X27940000Y-52792380D01*
X27844761Y-52935238D01*
X27749523Y-53030476D01*
X27654285Y-53078095D01*
X35750476Y-57872380D02*
X35560000Y-57872380D01*
X35464761Y-57920000D01*
X35417142Y-57967619D01*
X35321904Y-58110476D01*
X35274285Y-58300952D01*
X35274285Y-58681904D01*
X35321904Y-58777142D01*
X35369523Y-58824761D01*
X35464761Y-58872380D01*
X35655238Y-58872380D01*
X35750476Y-58824761D01*
X35798095Y-58777142D01*
X35845714Y-58681904D01*
X35845714Y-58443809D01*
X35798095Y-58348571D01*
X35750476Y-58300952D01*
X35655238Y-58253333D01*
X35464761Y-58253333D01*
X35369523Y-58300952D01*
X35321904Y-58348571D01*
X35274285Y-58443809D01*
X35369523Y-63952380D02*
X34798095Y-63952380D01*
X35083809Y-63952380D02*
X35083809Y-62952380D01*
X34988571Y-63095238D01*
X34893333Y-63190476D01*
X34798095Y-63238095D01*
X35988571Y-62952380D02*
X36083809Y-62952380D01*
X36179047Y-63000000D01*
X36226666Y-63047619D01*
X36274285Y-63142857D01*
X36321904Y-63333333D01*
X36321904Y-63571428D01*
X36274285Y-63761904D01*
X36226666Y-63857142D01*
X36179047Y-63904761D01*
X36083809Y-63952380D01*
X35988571Y-63952380D01*
X35893333Y-63904761D01*
X35845714Y-63857142D01*
X35798095Y-63761904D01*
X35750476Y-63571428D01*
X35750476Y-63333333D01*
X35798095Y-63142857D01*
X35845714Y-63047619D01*
X35893333Y-63000000D01*
X35988571Y-62952380D01*
X55149523Y-39092380D02*
X54578095Y-39092380D01*
X54863809Y-39092380D02*
X54863809Y-38092380D01*
X54768571Y-38235238D01*
X54673333Y-38330476D01*
X54578095Y-38378095D01*
X56006666Y-38425714D02*
X56006666Y-39092380D01*
X55768571Y-38044761D02*
X55530476Y-38759047D01*
X56149523Y-38759047D01*
X67166666Y-55332380D02*
X67785714Y-55332380D01*
X67452380Y-55713333D01*
X67595238Y-55713333D01*
X67690476Y-55760952D01*
X67738095Y-55808571D01*
X67785714Y-55903809D01*
X67785714Y-56141904D01*
X67738095Y-56237142D01*
X67690476Y-56284761D01*
X67595238Y-56332380D01*
X67309523Y-56332380D01*
X67214285Y-56284761D01*
X67166666Y-56237142D01*
X126506668Y-38162379D02*
X127125716Y-38162379D01*
X126792382Y-38543332D01*
X126935240Y-38543332D01*
X127030478Y-38590951D01*
X127078097Y-38638570D01*
X127125716Y-38733808D01*
X127125716Y-38971903D01*
X127078097Y-39067141D01*
X127030478Y-39114760D01*
X126935240Y-39162379D01*
X126649525Y-39162379D01*
X126554287Y-39114760D01*
X126506668Y-39067141D01*
X139444763Y-28430951D02*
X139349525Y-28383332D01*
X139301906Y-28335713D01*
X139254287Y-28240475D01*
X139254287Y-28192856D01*
X139301906Y-28097618D01*
X139349525Y-28049999D01*
X139444763Y-28002379D01*
X139635240Y-28002379D01*
X139730478Y-28049999D01*
X139778097Y-28097618D01*
X139825716Y-28192856D01*
X139825716Y-28240475D01*
X139778097Y-28335713D01*
X139730478Y-28383332D01*
X139635240Y-28430951D01*
X139444763Y-28430951D01*
X139349525Y-28478570D01*
X139301906Y-28526189D01*
X139254287Y-28621427D01*
X139254287Y-28811903D01*
X139301906Y-28907141D01*
X139349525Y-28954760D01*
X139444763Y-29002379D01*
X139635240Y-29002379D01*
X139730478Y-28954760D01*
X139778097Y-28907141D01*
X139825716Y-28811903D01*
X139825716Y-28621427D01*
X139778097Y-28526189D01*
X139730478Y-28478570D01*
X139635240Y-28430951D01*
X94709523Y-69032380D02*
X94138095Y-69032380D01*
X94423809Y-69032380D02*
X94423809Y-68032380D01*
X94328571Y-68175238D01*
X94233333Y-68270476D01*
X94138095Y-68318095D01*
X95566666Y-68365714D02*
X95566666Y-69032380D01*
X95328571Y-67984761D02*
X95090476Y-68699047D01*
X95709523Y-68699047D01*
X67309523Y-71572380D02*
X66738095Y-71572380D01*
X67023809Y-71572380D02*
X67023809Y-70572380D01*
X66928571Y-70715238D01*
X66833333Y-70810476D01*
X66738095Y-70858095D01*
X68214285Y-70572380D02*
X67738095Y-70572380D01*
X67690476Y-71048571D01*
X67738095Y-71000952D01*
X67833333Y-70953333D01*
X68071428Y-70953333D01*
X68166666Y-71000952D01*
X68214285Y-71048571D01*
X68261904Y-71143809D01*
X68261904Y-71381904D01*
X68214285Y-71477142D01*
X68166666Y-71524761D01*
X68071428Y-71572380D01*
X67833333Y-71572380D01*
X67738095Y-71524761D01*
X67690476Y-71477142D01*
X47529523Y-41632380D02*
X46958095Y-41632380D01*
X47243809Y-41632380D02*
X47243809Y-40632380D01*
X47148571Y-40775238D01*
X47053333Y-40870476D01*
X46958095Y-40918095D01*
X48434285Y-40632380D02*
X47958095Y-40632380D01*
X47910476Y-41108571D01*
X47958095Y-41060952D01*
X48053333Y-41013333D01*
X48291428Y-41013333D01*
X48386666Y-41060952D01*
X48434285Y-41108571D01*
X48481904Y-41203809D01*
X48481904Y-41441904D01*
X48434285Y-41537142D01*
X48386666Y-41584761D01*
X48291428Y-41632380D01*
X48053333Y-41632380D01*
X47958095Y-41584761D01*
X47910476Y-41537142D01*
X127030477Y-68295715D02*
X127030477Y-68962381D01*
X126792381Y-67914762D02*
X126554286Y-68629048D01*
X127173334Y-68629048D01*
X55054285Y-52887619D02*
X55101904Y-52840000D01*
X55197142Y-52792380D01*
X55435238Y-52792380D01*
X55530476Y-52840000D01*
X55578095Y-52887619D01*
X55625714Y-52982857D01*
X55625714Y-53078095D01*
X55578095Y-53220952D01*
X55006666Y-53792380D01*
X55625714Y-53792380D01*
X67309523Y-39092380D02*
X66738095Y-39092380D01*
X67023809Y-39092380D02*
X67023809Y-38092380D01*
X66928571Y-38235238D01*
X66833333Y-38330476D01*
X66738095Y-38378095D01*
X67642857Y-38092380D02*
X68261904Y-38092380D01*
X67928571Y-38473333D01*
X68071428Y-38473333D01*
X68166666Y-38520952D01*
X68214285Y-38568571D01*
X68261904Y-38663809D01*
X68261904Y-38901904D01*
X68214285Y-38997142D01*
X68166666Y-39044761D01*
X68071428Y-39092380D01*
X67785714Y-39092380D01*
X67690476Y-39044761D01*
X67642857Y-38997142D01*
X27749523Y-41632380D02*
X27178095Y-41632380D01*
X27463809Y-41632380D02*
X27463809Y-40632380D01*
X27368571Y-40775238D01*
X27273333Y-40870476D01*
X27178095Y-40918095D01*
X28654285Y-40632380D02*
X28178095Y-40632380D01*
X28130476Y-41108571D01*
X28178095Y-41060952D01*
X28273333Y-41013333D01*
X28511428Y-41013333D01*
X28606666Y-41060952D01*
X28654285Y-41108571D01*
X28701904Y-41203809D01*
X28701904Y-41441904D01*
X28654285Y-41537142D01*
X28606666Y-41584761D01*
X28511428Y-41632380D01*
X28273333Y-41632380D01*
X28178095Y-41584761D01*
X28130476Y-41537142D01*
X55149523Y-69032380D02*
X54578095Y-69032380D01*
X54863809Y-69032380D02*
X54863809Y-68032380D01*
X54768571Y-68175238D01*
X54673333Y-68270476D01*
X54578095Y-68318095D01*
X56006666Y-68365714D02*
X56006666Y-69032380D01*
X55768571Y-67984761D02*
X55530476Y-68699047D01*
X56149523Y-68699047D01*
X74358095Y-75747619D02*
X74405714Y-75700000D01*
X74500952Y-75652380D01*
X74739047Y-75652380D01*
X74834285Y-75700000D01*
X74881904Y-75747619D01*
X74929523Y-75842857D01*
X74929523Y-75938095D01*
X74881904Y-76080952D01*
X74310476Y-76652380D01*
X74929523Y-76652380D01*
X75548571Y-75652380D02*
X75643809Y-75652380D01*
X75739047Y-75700000D01*
X75786666Y-75747619D01*
X75834285Y-75842857D01*
X75881904Y-76033333D01*
X75881904Y-76271428D01*
X75834285Y-76461904D01*
X75786666Y-76557142D01*
X75739047Y-76604761D01*
X75643809Y-76652380D01*
X75548571Y-76652380D01*
X75453333Y-76604761D01*
X75405714Y-76557142D01*
X75358095Y-76461904D01*
X75310476Y-76271428D01*
X75310476Y-76033333D01*
X75358095Y-75842857D01*
X75405714Y-75747619D01*
X75453333Y-75700000D01*
X75548571Y-75652380D01*
X55530476Y-57872380D02*
X55340000Y-57872380D01*
X55244761Y-57920000D01*
X55197142Y-57967619D01*
X55101904Y-58110476D01*
X55054285Y-58300952D01*
X55054285Y-58681904D01*
X55101904Y-58777142D01*
X55149523Y-58824761D01*
X55244761Y-58872380D01*
X55435238Y-58872380D01*
X55530476Y-58824761D01*
X55578095Y-58777142D01*
X55625714Y-58681904D01*
X55625714Y-58443809D01*
X55578095Y-58348571D01*
X55530476Y-58300952D01*
X55435238Y-58253333D01*
X55244761Y-58253333D01*
X55149523Y-58300952D01*
X55101904Y-58348571D01*
X55054285Y-58443809D01*
X87089523Y-69032380D02*
X86518095Y-69032380D01*
X86803809Y-69032380D02*
X86803809Y-68032380D01*
X86708571Y-68175238D01*
X86613333Y-68270476D01*
X86518095Y-68318095D01*
X87422857Y-68032380D02*
X88041904Y-68032380D01*
X87708571Y-68413333D01*
X87851428Y-68413333D01*
X87946666Y-68460952D01*
X87994285Y-68508571D01*
X88041904Y-68603809D01*
X88041904Y-68841904D01*
X87994285Y-68937142D01*
X87946666Y-68984761D01*
X87851428Y-69032380D01*
X87565714Y-69032380D01*
X87470476Y-68984761D01*
X87422857Y-68937142D01*
X106869523Y-74112380D02*
X106298095Y-74112380D01*
X106583809Y-74112380D02*
X106583809Y-73112380D01*
X106488571Y-73255238D01*
X106393333Y-73350476D01*
X106298095Y-73398095D01*
X107202857Y-73112380D02*
X107869523Y-73112380D01*
X107440952Y-74112380D01*
X139254286Y-55357620D02*
X139301905Y-55310001D01*
X139397143Y-55262381D01*
X139635239Y-55262381D01*
X139730477Y-55310001D01*
X139778096Y-55357620D01*
X139825715Y-55452858D01*
X139825715Y-55548096D01*
X139778096Y-55690953D01*
X139206667Y-56262381D01*
X139825715Y-56262381D01*
X27749523Y-66492380D02*
X27178095Y-66492380D01*
X27463809Y-66492380D02*
X27463809Y-65492380D01*
X27368571Y-65635238D01*
X27273333Y-65730476D01*
X27178095Y-65778095D01*
X28701904Y-66492380D02*
X28130476Y-66492380D01*
X28416190Y-66492380D02*
X28416190Y-65492380D01*
X28320952Y-65635238D01*
X28225714Y-65730476D01*
X28130476Y-65778095D01*
X87518095Y-27932380D02*
X87041904Y-27932380D01*
X86994285Y-28408571D01*
X87041904Y-28360952D01*
X87137142Y-28313333D01*
X87375238Y-28313333D01*
X87470476Y-28360952D01*
X87518095Y-28408571D01*
X87565714Y-28503809D01*
X87565714Y-28741904D01*
X87518095Y-28837142D01*
X87470476Y-28884761D01*
X87375238Y-28932380D01*
X87137142Y-28932380D01*
X87041904Y-28884761D01*
X86994285Y-28837142D01*
X67309523Y-76652380D02*
X66738095Y-76652380D01*
X67023809Y-76652380D02*
X67023809Y-75652380D01*
X66928571Y-75795238D01*
X66833333Y-75890476D01*
X66738095Y-75938095D01*
X67785714Y-76652380D02*
X67976190Y-76652380D01*
X68071428Y-76604761D01*
X68119047Y-76557142D01*
X68214285Y-76414285D01*
X68261904Y-76223809D01*
X68261904Y-75842857D01*
X68214285Y-75747619D01*
X68166666Y-75700000D01*
X68071428Y-75652380D01*
X67880952Y-75652380D01*
X67785714Y-75700000D01*
X67738095Y-75747619D01*
X67690476Y-75842857D01*
X67690476Y-76080952D01*
X67738095Y-76176190D01*
X67785714Y-76223809D01*
X67880952Y-76271428D01*
X68071428Y-76271428D01*
X68166666Y-76223809D01*
X68214285Y-76176190D01*
X68261904Y-76080952D01*
X114489523Y-71572380D02*
X113918095Y-71572380D01*
X114203809Y-71572380D02*
X114203809Y-70572380D01*
X114108571Y-70715238D01*
X114013333Y-70810476D01*
X113918095Y-70858095D01*
X115346666Y-70572380D02*
X115156190Y-70572380D01*
X115060952Y-70620000D01*
X115013333Y-70667619D01*
X114918095Y-70810476D01*
X114870476Y-71000952D01*
X114870476Y-71381904D01*
X114918095Y-71477142D01*
X114965714Y-71524761D01*
X115060952Y-71572380D01*
X115251428Y-71572380D01*
X115346666Y-71524761D01*
X115394285Y-71477142D01*
X115441904Y-71381904D01*
X115441904Y-71143809D01*
X115394285Y-71048571D01*
X115346666Y-71000952D01*
X115251428Y-70953333D01*
X115060952Y-70953333D01*
X114965714Y-71000952D01*
X114918095Y-71048571D01*
X114870476Y-71143809D01*
X94709523Y-44172380D02*
X94138095Y-44172380D01*
X94423809Y-44172380D02*
X94423809Y-43172380D01*
X94328571Y-43315238D01*
X94233333Y-43410476D01*
X94138095Y-43458095D01*
X95280952Y-43600952D02*
X95185714Y-43553333D01*
X95138095Y-43505714D01*
X95090476Y-43410476D01*
X95090476Y-43362857D01*
X95138095Y-43267619D01*
X95185714Y-43220000D01*
X95280952Y-43172380D01*
X95471428Y-43172380D01*
X95566666Y-43220000D01*
X95614285Y-43267619D01*
X95661904Y-43362857D01*
X95661904Y-43410476D01*
X95614285Y-43505714D01*
X95566666Y-43553333D01*
X95471428Y-43600952D01*
X95280952Y-43600952D01*
X95185714Y-43648571D01*
X95138095Y-43696190D01*
X95090476Y-43791428D01*
X95090476Y-43981904D01*
X95138095Y-44077142D01*
X95185714Y-44124761D01*
X95280952Y-44172380D01*
X95471428Y-44172380D01*
X95566666Y-44124761D01*
X95614285Y-44077142D01*
X95661904Y-43981904D01*
X95661904Y-43791428D01*
X95614285Y-43696190D01*
X95566666Y-43648571D01*
X95471428Y-43600952D01*
X94804761Y-60840952D02*
X94709523Y-60793333D01*
X94661904Y-60745714D01*
X94614285Y-60650476D01*
X94614285Y-60602857D01*
X94661904Y-60507619D01*
X94709523Y-60460000D01*
X94804761Y-60412380D01*
X94995238Y-60412380D01*
X95090476Y-60460000D01*
X95138095Y-60507619D01*
X95185714Y-60602857D01*
X95185714Y-60650476D01*
X95138095Y-60745714D01*
X95090476Y-60793333D01*
X94995238Y-60840952D01*
X94804761Y-60840952D01*
X94709523Y-60888571D01*
X94661904Y-60936190D01*
X94614285Y-61031428D01*
X94614285Y-61221904D01*
X94661904Y-61317142D01*
X94709523Y-61364761D01*
X94804761Y-61412380D01*
X94995238Y-61412380D01*
X95090476Y-61364761D01*
X95138095Y-61317142D01*
X95185714Y-61221904D01*
X95185714Y-61031428D01*
X95138095Y-60936190D01*
X95090476Y-60888571D01*
X94995238Y-60840952D01*
X34798095Y-45807619D02*
X34845714Y-45760000D01*
X34940952Y-45712380D01*
X35179047Y-45712380D01*
X35274285Y-45760000D01*
X35321904Y-45807619D01*
X35369523Y-45902857D01*
X35369523Y-45998095D01*
X35321904Y-46140952D01*
X34750476Y-46712380D01*
X35369523Y-46712380D01*
X35988571Y-45712380D02*
X36083809Y-45712380D01*
X36179047Y-45760000D01*
X36226666Y-45807619D01*
X36274285Y-45902857D01*
X36321904Y-46093333D01*
X36321904Y-46331428D01*
X36274285Y-46521904D01*
X36226666Y-46617142D01*
X36179047Y-46664761D01*
X36083809Y-46712380D01*
X35988571Y-46712380D01*
X35893333Y-46664761D01*
X35845714Y-46617142D01*
X35798095Y-46521904D01*
X35750476Y-46331428D01*
X35750476Y-46093333D01*
X35798095Y-45902857D01*
X35845714Y-45807619D01*
X35893333Y-45760000D01*
X35988571Y-45712380D01*
X27606666Y-55332380D02*
X28225714Y-55332380D01*
X27892380Y-55713333D01*
X28035238Y-55713333D01*
X28130476Y-55760952D01*
X28178095Y-55808571D01*
X28225714Y-55903809D01*
X28225714Y-56141904D01*
X28178095Y-56237142D01*
X28130476Y-56284761D01*
X28035238Y-56332380D01*
X27749523Y-56332380D01*
X27654285Y-56284761D01*
X27606666Y-56237142D01*
X55149523Y-71572380D02*
X54578095Y-71572380D01*
X54863809Y-71572380D02*
X54863809Y-70572380D01*
X54768571Y-70715238D01*
X54673333Y-70810476D01*
X54578095Y-70858095D01*
X56006666Y-70572380D02*
X55816190Y-70572380D01*
X55720952Y-70620000D01*
X55673333Y-70667619D01*
X55578095Y-70810476D01*
X55530476Y-71000952D01*
X55530476Y-71381904D01*
X55578095Y-71477142D01*
X55625714Y-71524761D01*
X55720952Y-71572380D01*
X55911428Y-71572380D01*
X56006666Y-71524761D01*
X56054285Y-71477142D01*
X56101904Y-71381904D01*
X56101904Y-71143809D01*
X56054285Y-71048571D01*
X56006666Y-71000952D01*
X55911428Y-70953333D01*
X55720952Y-70953333D01*
X55625714Y-71000952D01*
X55578095Y-71048571D01*
X55530476Y-71143809D01*
X114584761Y-30900952D02*
X114489523Y-30853333D01*
X114441904Y-30805714D01*
X114394285Y-30710476D01*
X114394285Y-30662857D01*
X114441904Y-30567619D01*
X114489523Y-30520000D01*
X114584761Y-30472380D01*
X114775238Y-30472380D01*
X114870476Y-30520000D01*
X114918095Y-30567619D01*
X114965714Y-30662857D01*
X114965714Y-30710476D01*
X114918095Y-30805714D01*
X114870476Y-30853333D01*
X114775238Y-30900952D01*
X114584761Y-30900952D01*
X114489523Y-30948571D01*
X114441904Y-30996190D01*
X114394285Y-31091428D01*
X114394285Y-31281904D01*
X114441904Y-31377142D01*
X114489523Y-31424761D01*
X114584761Y-31472380D01*
X114775238Y-31472380D01*
X114870476Y-31424761D01*
X114918095Y-31377142D01*
X114965714Y-31281904D01*
X114965714Y-31091428D01*
X114918095Y-30996190D01*
X114870476Y-30948571D01*
X114775238Y-30900952D01*
X139206667Y-57802381D02*
X139825715Y-57802381D01*
X139492381Y-58183334D01*
X139635239Y-58183334D01*
X139730477Y-58230953D01*
X139778096Y-58278572D01*
X139825715Y-58373810D01*
X139825715Y-58611905D01*
X139778096Y-58707143D01*
X139730477Y-58754762D01*
X139635239Y-58802381D01*
X139349524Y-58802381D01*
X139254286Y-58754762D01*
X139206667Y-58707143D01*
X114489523Y-34012380D02*
X113918095Y-34012380D01*
X114203809Y-34012380D02*
X114203809Y-33012380D01*
X114108571Y-33155238D01*
X114013333Y-33250476D01*
X113918095Y-33298095D01*
X115108571Y-33012380D02*
X115203809Y-33012380D01*
X115299047Y-33060000D01*
X115346666Y-33107619D01*
X115394285Y-33202857D01*
X115441904Y-33393333D01*
X115441904Y-33631428D01*
X115394285Y-33821904D01*
X115346666Y-33917142D01*
X115299047Y-33964761D01*
X115203809Y-34012380D01*
X115108571Y-34012380D01*
X115013333Y-33964761D01*
X114965714Y-33917142D01*
X114918095Y-33821904D01*
X114870476Y-33631428D01*
X114870476Y-33393333D01*
X114918095Y-33202857D01*
X114965714Y-33107619D01*
X115013333Y-33060000D01*
X115108571Y-33012380D01*
X47529523Y-36552380D02*
X46958095Y-36552380D01*
X47243809Y-36552380D02*
X47243809Y-35552380D01*
X47148571Y-35695238D01*
X47053333Y-35790476D01*
X46958095Y-35838095D01*
X48481904Y-36552380D02*
X47910476Y-36552380D01*
X48196190Y-36552380D02*
X48196190Y-35552380D01*
X48100952Y-35695238D01*
X48005714Y-35790476D01*
X47910476Y-35838095D01*
X114584761Y-60840952D02*
X114489523Y-60793333D01*
X114441904Y-60745714D01*
X114394285Y-60650476D01*
X114394285Y-60602857D01*
X114441904Y-60507619D01*
X114489523Y-60460000D01*
X114584761Y-60412380D01*
X114775238Y-60412380D01*
X114870476Y-60460000D01*
X114918095Y-60507619D01*
X114965714Y-60602857D01*
X114965714Y-60650476D01*
X114918095Y-60745714D01*
X114870476Y-60793333D01*
X114775238Y-60840952D01*
X114584761Y-60840952D01*
X114489523Y-60888571D01*
X114441904Y-60936190D01*
X114394285Y-61031428D01*
X114394285Y-61221904D01*
X114441904Y-61317142D01*
X114489523Y-61364761D01*
X114584761Y-61412380D01*
X114775238Y-61412380D01*
X114870476Y-61364761D01*
X114918095Y-61317142D01*
X114965714Y-61221904D01*
X114965714Y-61031428D01*
X114918095Y-60936190D01*
X114870476Y-60888571D01*
X114775238Y-60840952D01*
X67309523Y-44172380D02*
X66738095Y-44172380D01*
X67023809Y-44172380D02*
X67023809Y-43172380D01*
X66928571Y-43315238D01*
X66833333Y-43410476D01*
X66738095Y-43458095D01*
X67642857Y-43172380D02*
X68309523Y-43172380D01*
X67880952Y-44172380D01*
X47386666Y-30472380D02*
X48053333Y-30472380D01*
X47624761Y-31472380D01*
X94709523Y-74112380D02*
X94138095Y-74112380D01*
X94423809Y-74112380D02*
X94423809Y-73112380D01*
X94328571Y-73255238D01*
X94233333Y-73350476D01*
X94138095Y-73398095D01*
X95280952Y-73540952D02*
X95185714Y-73493333D01*
X95138095Y-73445714D01*
X95090476Y-73350476D01*
X95090476Y-73302857D01*
X95138095Y-73207619D01*
X95185714Y-73160000D01*
X95280952Y-73112380D01*
X95471428Y-73112380D01*
X95566666Y-73160000D01*
X95614285Y-73207619D01*
X95661904Y-73302857D01*
X95661904Y-73350476D01*
X95614285Y-73445714D01*
X95566666Y-73493333D01*
X95471428Y-73540952D01*
X95280952Y-73540952D01*
X95185714Y-73588571D01*
X95138095Y-73636190D01*
X95090476Y-73731428D01*
X95090476Y-73921904D01*
X95138095Y-74017142D01*
X95185714Y-74064761D01*
X95280952Y-74112380D01*
X95471428Y-74112380D01*
X95566666Y-74064761D01*
X95614285Y-74017142D01*
X95661904Y-73921904D01*
X95661904Y-73731428D01*
X95614285Y-73636190D01*
X95566666Y-73588571D01*
X95471428Y-73540952D01*
X113918095Y-75747619D02*
X113965714Y-75700000D01*
X114060952Y-75652380D01*
X114299047Y-75652380D01*
X114394285Y-75700000D01*
X114441904Y-75747619D01*
X114489523Y-75842857D01*
X114489523Y-75938095D01*
X114441904Y-76080952D01*
X113870476Y-76652380D01*
X114489523Y-76652380D01*
X115108571Y-75652380D02*
X115203809Y-75652380D01*
X115299047Y-75700000D01*
X115346666Y-75747619D01*
X115394285Y-75842857D01*
X115441904Y-76033333D01*
X115441904Y-76271428D01*
X115394285Y-76461904D01*
X115346666Y-76557142D01*
X115299047Y-76604761D01*
X115203809Y-76652380D01*
X115108571Y-76652380D01*
X115013333Y-76604761D01*
X114965714Y-76557142D01*
X114918095Y-76461904D01*
X114870476Y-76271428D01*
X114870476Y-76033333D01*
X114918095Y-75842857D01*
X114965714Y-75747619D01*
X115013333Y-75700000D01*
X115108571Y-75652380D01*
X27606666Y-60412380D02*
X28273333Y-60412380D01*
X27844761Y-61412380D01*
X35369523Y-36552380D02*
X34798095Y-36552380D01*
X35083809Y-36552380D02*
X35083809Y-35552380D01*
X34988571Y-35695238D01*
X34893333Y-35790476D01*
X34798095Y-35838095D01*
X35750476Y-35647619D02*
X35798095Y-35600000D01*
X35893333Y-35552380D01*
X36131428Y-35552380D01*
X36226666Y-35600000D01*
X36274285Y-35647619D01*
X36321904Y-35742857D01*
X36321904Y-35838095D01*
X36274285Y-35980952D01*
X35702857Y-36552380D01*
X36321904Y-36552380D01*
X74929523Y-39092380D02*
X74358095Y-39092380D01*
X74643809Y-39092380D02*
X74643809Y-38092380D01*
X74548571Y-38235238D01*
X74453333Y-38330476D01*
X74358095Y-38378095D01*
X75786666Y-38425714D02*
X75786666Y-39092380D01*
X75548571Y-38044761D02*
X75310476Y-38759047D01*
X75929523Y-38759047D01*
X47529523Y-66492380D02*
X46958095Y-66492380D01*
X47243809Y-66492380D02*
X47243809Y-65492380D01*
X47148571Y-65635238D01*
X47053333Y-65730476D01*
X46958095Y-65778095D01*
X48481904Y-66492380D02*
X47910476Y-66492380D01*
X48196190Y-66492380D02*
X48196190Y-65492380D01*
X48100952Y-65635238D01*
X48005714Y-65730476D01*
X47910476Y-65778095D01*
X74929523Y-44172380D02*
X74358095Y-44172380D01*
X74643809Y-44172380D02*
X74643809Y-43172380D01*
X74548571Y-43315238D01*
X74453333Y-43410476D01*
X74358095Y-43458095D01*
X75500952Y-43600952D02*
X75405714Y-43553333D01*
X75358095Y-43505714D01*
X75310476Y-43410476D01*
X75310476Y-43362857D01*
X75358095Y-43267619D01*
X75405714Y-43220000D01*
X75500952Y-43172380D01*
X75691428Y-43172380D01*
X75786666Y-43220000D01*
X75834285Y-43267619D01*
X75881904Y-43362857D01*
X75881904Y-43410476D01*
X75834285Y-43505714D01*
X75786666Y-43553333D01*
X75691428Y-43600952D01*
X75500952Y-43600952D01*
X75405714Y-43648571D01*
X75358095Y-43696190D01*
X75310476Y-43791428D01*
X75310476Y-43981904D01*
X75358095Y-44077142D01*
X75405714Y-44124761D01*
X75500952Y-44172380D01*
X75691428Y-44172380D01*
X75786666Y-44124761D01*
X75834285Y-44077142D01*
X75881904Y-43981904D01*
X75881904Y-43791428D01*
X75834285Y-43696190D01*
X75786666Y-43648571D01*
X75691428Y-43600952D01*
X106726666Y-60412380D02*
X107393333Y-60412380D01*
X106964761Y-61412380D01*
X67309523Y-46712380D02*
X66738095Y-46712380D01*
X67023809Y-46712380D02*
X67023809Y-45712380D01*
X66928571Y-45855238D01*
X66833333Y-45950476D01*
X66738095Y-45998095D01*
X67785714Y-46712380D02*
X67976190Y-46712380D01*
X68071428Y-46664761D01*
X68119047Y-46617142D01*
X68214285Y-46474285D01*
X68261904Y-46283809D01*
X68261904Y-45902857D01*
X68214285Y-45807619D01*
X68166666Y-45760000D01*
X68071428Y-45712380D01*
X67880952Y-45712380D01*
X67785714Y-45760000D01*
X67738095Y-45807619D01*
X67690476Y-45902857D01*
X67690476Y-46140952D01*
X67738095Y-46236190D01*
X67785714Y-46283809D01*
X67880952Y-46331428D01*
X68071428Y-46331428D01*
X68166666Y-46283809D01*
X68214285Y-46236190D01*
X68261904Y-46140952D01*
X127030477Y-58135715D02*
X127030477Y-58802381D01*
X126792381Y-57754762D02*
X126554286Y-58469048D01*
X127173334Y-58469048D01*
X27749523Y-69032380D02*
X27178095Y-69032380D01*
X27463809Y-69032380D02*
X27463809Y-68032380D01*
X27368571Y-68175238D01*
X27273333Y-68270476D01*
X27178095Y-68318095D01*
X28082857Y-68032380D02*
X28701904Y-68032380D01*
X28368571Y-68413333D01*
X28511428Y-68413333D01*
X28606666Y-68460952D01*
X28654285Y-68508571D01*
X28701904Y-68603809D01*
X28701904Y-68841904D01*
X28654285Y-68937142D01*
X28606666Y-68984761D01*
X28511428Y-69032380D01*
X28225714Y-69032380D01*
X28130476Y-68984761D01*
X28082857Y-68937142D01*
X47386666Y-60412380D02*
X48053333Y-60412380D01*
X47624761Y-61412380D01*
X106869523Y-41632380D02*
X106298095Y-41632380D01*
X106583809Y-41632380D02*
X106583809Y-40632380D01*
X106488571Y-40775238D01*
X106393333Y-40870476D01*
X106298095Y-40918095D01*
X107774285Y-40632380D02*
X107298095Y-40632380D01*
X107250476Y-41108571D01*
X107298095Y-41060952D01*
X107393333Y-41013333D01*
X107631428Y-41013333D01*
X107726666Y-41060952D01*
X107774285Y-41108571D01*
X107821904Y-41203809D01*
X107821904Y-41441904D01*
X107774285Y-41537142D01*
X107726666Y-41584761D01*
X107631428Y-41632380D01*
X107393333Y-41632380D01*
X107298095Y-41584761D01*
X107250476Y-41537142D01*
X28178095Y-27932380D02*
X27701904Y-27932380D01*
X27654285Y-28408571D01*
X27701904Y-28360952D01*
X27797142Y-28313333D01*
X28035238Y-28313333D01*
X28130476Y-28360952D01*
X28178095Y-28408571D01*
X28225714Y-28503809D01*
X28225714Y-28741904D01*
X28178095Y-28837142D01*
X28130476Y-28884761D01*
X28035238Y-28932380D01*
X27797142Y-28932380D01*
X27701904Y-28884761D01*
X27654285Y-28837142D01*
X35369523Y-44172380D02*
X34798095Y-44172380D01*
X35083809Y-44172380D02*
X35083809Y-43172380D01*
X34988571Y-43315238D01*
X34893333Y-43410476D01*
X34798095Y-43458095D01*
X35940952Y-43600952D02*
X35845714Y-43553333D01*
X35798095Y-43505714D01*
X35750476Y-43410476D01*
X35750476Y-43362857D01*
X35798095Y-43267619D01*
X35845714Y-43220000D01*
X35940952Y-43172380D01*
X36131428Y-43172380D01*
X36226666Y-43220000D01*
X36274285Y-43267619D01*
X36321904Y-43362857D01*
X36321904Y-43410476D01*
X36274285Y-43505714D01*
X36226666Y-43553333D01*
X36131428Y-43600952D01*
X35940952Y-43600952D01*
X35845714Y-43648571D01*
X35798095Y-43696190D01*
X35750476Y-43791428D01*
X35750476Y-43981904D01*
X35798095Y-44077142D01*
X35845714Y-44124761D01*
X35940952Y-44172380D01*
X36131428Y-44172380D01*
X36226666Y-44124761D01*
X36274285Y-44077142D01*
X36321904Y-43981904D01*
X36321904Y-43791428D01*
X36274285Y-43696190D01*
X36226666Y-43648571D01*
X36131428Y-43600952D01*
X127125715Y-66422381D02*
X126554286Y-66422381D01*
X126840001Y-66422381D02*
X126840001Y-65422381D01*
X126744762Y-65565239D01*
X126649524Y-65660477D01*
X126554286Y-65708096D01*
X94709523Y-63952380D02*
X94138095Y-63952380D01*
X94423809Y-63952380D02*
X94423809Y-62952380D01*
X94328571Y-63095238D01*
X94233333Y-63190476D01*
X94138095Y-63238095D01*
X95328571Y-62952380D02*
X95423809Y-62952380D01*
X95519047Y-63000000D01*
X95566666Y-63047619D01*
X95614285Y-63142857D01*
X95661904Y-63333333D01*
X95661904Y-63571428D01*
X95614285Y-63761904D01*
X95566666Y-63857142D01*
X95519047Y-63904761D01*
X95423809Y-63952380D01*
X95328571Y-63952380D01*
X95233333Y-63904761D01*
X95185714Y-63857142D01*
X95138095Y-63761904D01*
X95090476Y-63571428D01*
X95090476Y-63333333D01*
X95138095Y-63142857D01*
X95185714Y-63047619D01*
X95233333Y-63000000D01*
X95328571Y-62952380D01*
X75310476Y-25725714D02*
X75310476Y-26392380D01*
X75072380Y-25344761D02*
X74834285Y-26059047D01*
X75453333Y-26059047D01*
X27606666Y-25392380D02*
X28225714Y-25392380D01*
X27892380Y-25773333D01*
X28035238Y-25773333D01*
X28130476Y-25820952D01*
X28178095Y-25868571D01*
X28225714Y-25963809D01*
X28225714Y-26201904D01*
X28178095Y-26297142D01*
X28130476Y-26344761D01*
X28035238Y-26392380D01*
X27749523Y-26392380D01*
X27654285Y-26344761D01*
X27606666Y-26297142D01*
X55054285Y-22947619D02*
X55101904Y-22900000D01*
X55197142Y-22852380D01*
X55435238Y-22852380D01*
X55530476Y-22900000D01*
X55578095Y-22947619D01*
X55625714Y-23042857D01*
X55625714Y-23138095D01*
X55578095Y-23280952D01*
X55006666Y-23852380D01*
X55625714Y-23852380D01*
X106869523Y-63952380D02*
X107060000Y-63952380D01*
X107155238Y-63904761D01*
X107202857Y-63857142D01*
X107298095Y-63714285D01*
X107345714Y-63523809D01*
X107345714Y-63142857D01*
X107298095Y-63047619D01*
X107250476Y-63000000D01*
X107155238Y-62952380D01*
X106964761Y-62952380D01*
X106869523Y-63000000D01*
X106821904Y-63047619D01*
X106774285Y-63142857D01*
X106774285Y-63380952D01*
X106821904Y-63476190D01*
X106869523Y-63523809D01*
X106964761Y-63571428D01*
X107155238Y-63571428D01*
X107250476Y-63523809D01*
X107298095Y-63476190D01*
X107345714Y-63380952D01*
X55149523Y-34012380D02*
X54578095Y-34012380D01*
X54863809Y-34012380D02*
X54863809Y-33012380D01*
X54768571Y-33155238D01*
X54673333Y-33250476D01*
X54578095Y-33298095D01*
X55768571Y-33012380D02*
X55863809Y-33012380D01*
X55959047Y-33060000D01*
X56006666Y-33107619D01*
X56054285Y-33202857D01*
X56101904Y-33393333D01*
X56101904Y-33631428D01*
X56054285Y-33821904D01*
X56006666Y-33917142D01*
X55959047Y-33964761D01*
X55863809Y-34012380D01*
X55768571Y-34012380D01*
X55673333Y-33964761D01*
X55625714Y-33917142D01*
X55578095Y-33821904D01*
X55530476Y-33631428D01*
X55530476Y-33393333D01*
X55578095Y-33202857D01*
X55625714Y-33107619D01*
X55673333Y-33060000D01*
X55768571Y-33012380D01*
X47529523Y-74112380D02*
X46958095Y-74112380D01*
X47243809Y-74112380D02*
X47243809Y-73112380D01*
X47148571Y-73255238D01*
X47053333Y-73350476D01*
X46958095Y-73398095D01*
X47862857Y-73112380D02*
X48529523Y-73112380D01*
X48100952Y-74112380D01*
X48005714Y-23852380D02*
X47434285Y-23852380D01*
X47720000Y-23852380D02*
X47720000Y-22852380D01*
X47624761Y-22995238D01*
X47529523Y-23090476D01*
X47434285Y-23138095D01*
X55149523Y-36552380D02*
X54578095Y-36552380D01*
X54863809Y-36552380D02*
X54863809Y-35552380D01*
X54768571Y-35695238D01*
X54673333Y-35790476D01*
X54578095Y-35838095D01*
X55530476Y-35647619D02*
X55578095Y-35600000D01*
X55673333Y-35552380D01*
X55911428Y-35552380D01*
X56006666Y-35600000D01*
X56054285Y-35647619D01*
X56101904Y-35742857D01*
X56101904Y-35838095D01*
X56054285Y-35980952D01*
X55482857Y-36552380D01*
X56101904Y-36552380D01*
X75024761Y-60840952D02*
X74929523Y-60793333D01*
X74881904Y-60745714D01*
X74834285Y-60650476D01*
X74834285Y-60602857D01*
X74881904Y-60507619D01*
X74929523Y-60460000D01*
X75024761Y-60412380D01*
X75215238Y-60412380D01*
X75310476Y-60460000D01*
X75358095Y-60507619D01*
X75405714Y-60602857D01*
X75405714Y-60650476D01*
X75358095Y-60745714D01*
X75310476Y-60793333D01*
X75215238Y-60840952D01*
X75024761Y-60840952D01*
X74929523Y-60888571D01*
X74881904Y-60936190D01*
X74834285Y-61031428D01*
X74834285Y-61221904D01*
X74881904Y-61317142D01*
X74929523Y-61364761D01*
X75024761Y-61412380D01*
X75215238Y-61412380D01*
X75310476Y-61364761D01*
X75358095Y-61317142D01*
X75405714Y-61221904D01*
X75405714Y-61031428D01*
X75358095Y-60936190D01*
X75310476Y-60888571D01*
X75215238Y-60840952D01*
X114489523Y-44172380D02*
X113918095Y-44172380D01*
X114203809Y-44172380D02*
X114203809Y-43172380D01*
X114108571Y-43315238D01*
X114013333Y-43410476D01*
X113918095Y-43458095D01*
X115060952Y-43600952D02*
X114965714Y-43553333D01*
X114918095Y-43505714D01*
X114870476Y-43410476D01*
X114870476Y-43362857D01*
X114918095Y-43267619D01*
X114965714Y-43220000D01*
X115060952Y-43172380D01*
X115251428Y-43172380D01*
X115346666Y-43220000D01*
X115394285Y-43267619D01*
X115441904Y-43362857D01*
X115441904Y-43410476D01*
X115394285Y-43505714D01*
X115346666Y-43553333D01*
X115251428Y-43600952D01*
X115060952Y-43600952D01*
X114965714Y-43648571D01*
X114918095Y-43696190D01*
X114870476Y-43791428D01*
X114870476Y-43981904D01*
X114918095Y-44077142D01*
X114965714Y-44124761D01*
X115060952Y-44172380D01*
X115251428Y-44172380D01*
X115346666Y-44124761D01*
X115394285Y-44077142D01*
X115441904Y-43981904D01*
X115441904Y-43791428D01*
X115394285Y-43696190D01*
X115346666Y-43648571D01*
X115251428Y-43600952D01*
X106869523Y-76652380D02*
X106298095Y-76652380D01*
X106583809Y-76652380D02*
X106583809Y-75652380D01*
X106488571Y-75795238D01*
X106393333Y-75890476D01*
X106298095Y-75938095D01*
X107345714Y-76652380D02*
X107536190Y-76652380D01*
X107631428Y-76604761D01*
X107679047Y-76557142D01*
X107774285Y-76414285D01*
X107821904Y-76223809D01*
X107821904Y-75842857D01*
X107774285Y-75747619D01*
X107726666Y-75700000D01*
X107631428Y-75652380D01*
X107440952Y-75652380D01*
X107345714Y-75700000D01*
X107298095Y-75747619D01*
X107250476Y-75842857D01*
X107250476Y-76080952D01*
X107298095Y-76176190D01*
X107345714Y-76223809D01*
X107440952Y-76271428D01*
X107631428Y-76271428D01*
X107726666Y-76223809D01*
X107774285Y-76176190D01*
X107821904Y-76080952D01*
X87089523Y-41632380D02*
X86518095Y-41632380D01*
X86803809Y-41632380D02*
X86803809Y-40632380D01*
X86708571Y-40775238D01*
X86613333Y-40870476D01*
X86518095Y-40918095D01*
X87994285Y-40632380D02*
X87518095Y-40632380D01*
X87470476Y-41108571D01*
X87518095Y-41060952D01*
X87613333Y-41013333D01*
X87851428Y-41013333D01*
X87946666Y-41060952D01*
X87994285Y-41108571D01*
X88041904Y-41203809D01*
X88041904Y-41441904D01*
X87994285Y-41537142D01*
X87946666Y-41584761D01*
X87851428Y-41632380D01*
X87613333Y-41632380D01*
X87518095Y-41584761D01*
X87470476Y-41537142D01*
X28178095Y-57872380D02*
X27701904Y-57872380D01*
X27654285Y-58348571D01*
X27701904Y-58300952D01*
X27797142Y-58253333D01*
X28035238Y-58253333D01*
X28130476Y-58300952D01*
X28178095Y-58348571D01*
X28225714Y-58443809D01*
X28225714Y-58681904D01*
X28178095Y-58777142D01*
X28130476Y-58824761D01*
X28035238Y-58872380D01*
X27797142Y-58872380D01*
X27701904Y-58824761D01*
X27654285Y-58777142D01*
X34798095Y-75747619D02*
X34845714Y-75700000D01*
X34940952Y-75652380D01*
X35179047Y-75652380D01*
X35274285Y-75700000D01*
X35321904Y-75747619D01*
X35369523Y-75842857D01*
X35369523Y-75938095D01*
X35321904Y-76080952D01*
X34750476Y-76652380D01*
X35369523Y-76652380D01*
X35988571Y-75652380D02*
X36083809Y-75652380D01*
X36179047Y-75700000D01*
X36226666Y-75747619D01*
X36274285Y-75842857D01*
X36321904Y-76033333D01*
X36321904Y-76271428D01*
X36274285Y-76461904D01*
X36226666Y-76557142D01*
X36179047Y-76604761D01*
X36083809Y-76652380D01*
X35988571Y-76652380D01*
X35893333Y-76604761D01*
X35845714Y-76557142D01*
X35798095Y-76461904D01*
X35750476Y-76271428D01*
X35750476Y-76033333D01*
X35798095Y-75842857D01*
X35845714Y-75747619D01*
X35893333Y-75700000D01*
X35988571Y-75652380D01*
X106869523Y-39092380D02*
X106298095Y-39092380D01*
X106583809Y-39092380D02*
X106583809Y-38092380D01*
X106488571Y-38235238D01*
X106393333Y-38330476D01*
X106298095Y-38378095D01*
X107202857Y-38092380D02*
X107821904Y-38092380D01*
X107488571Y-38473333D01*
X107631428Y-38473333D01*
X107726666Y-38520952D01*
X107774285Y-38568571D01*
X107821904Y-38663809D01*
X107821904Y-38901904D01*
X107774285Y-38997142D01*
X107726666Y-39044761D01*
X107631428Y-39092380D01*
X107345714Y-39092380D01*
X107250476Y-39044761D01*
X107202857Y-38997142D01*
X35369523Y-34012380D02*
X34798095Y-34012380D01*
X35083809Y-34012380D02*
X35083809Y-33012380D01*
X34988571Y-33155238D01*
X34893333Y-33250476D01*
X34798095Y-33298095D01*
X35988571Y-33012380D02*
X36083809Y-33012380D01*
X36179047Y-33060000D01*
X36226666Y-33107619D01*
X36274285Y-33202857D01*
X36321904Y-33393333D01*
X36321904Y-33631428D01*
X36274285Y-33821904D01*
X36226666Y-33917142D01*
X36179047Y-33964761D01*
X36083809Y-34012380D01*
X35988571Y-34012380D01*
X35893333Y-33964761D01*
X35845714Y-33917142D01*
X35798095Y-33821904D01*
X35750476Y-33631428D01*
X35750476Y-33393333D01*
X35798095Y-33202857D01*
X35845714Y-33107619D01*
X35893333Y-33060000D01*
X35988571Y-33012380D01*
X139206667Y-73042381D02*
X139825715Y-73042381D01*
X139492381Y-73423334D01*
X139635239Y-73423334D01*
X139730477Y-73470953D01*
X139778096Y-73518572D01*
X139825715Y-73613810D01*
X139825715Y-73851905D01*
X139778096Y-73947143D01*
X139730477Y-73994762D01*
X139635239Y-74042381D01*
X139349524Y-74042381D01*
X139254286Y-73994762D01*
X139206667Y-73947143D01*
X47529523Y-46712380D02*
X46958095Y-46712380D01*
X47243809Y-46712380D02*
X47243809Y-45712380D01*
X47148571Y-45855238D01*
X47053333Y-45950476D01*
X46958095Y-45998095D01*
X48005714Y-46712380D02*
X48196190Y-46712380D01*
X48291428Y-46664761D01*
X48339047Y-46617142D01*
X48434285Y-46474285D01*
X48481904Y-46283809D01*
X48481904Y-45902857D01*
X48434285Y-45807619D01*
X48386666Y-45760000D01*
X48291428Y-45712380D01*
X48100952Y-45712380D01*
X48005714Y-45760000D01*
X47958095Y-45807619D01*
X47910476Y-45902857D01*
X47910476Y-46140952D01*
X47958095Y-46236190D01*
X48005714Y-46283809D01*
X48100952Y-46331428D01*
X48291428Y-46331428D01*
X48386666Y-46283809D01*
X48434285Y-46236190D01*
X48481904Y-46140952D01*
X95090476Y-27932380D02*
X94900000Y-27932380D01*
X94804761Y-27980000D01*
X94757142Y-28027619D01*
X94661904Y-28170476D01*
X94614285Y-28360952D01*
X94614285Y-28741904D01*
X94661904Y-28837142D01*
X94709523Y-28884761D01*
X94804761Y-28932380D01*
X94995238Y-28932380D01*
X95090476Y-28884761D01*
X95138095Y-28837142D01*
X95185714Y-28741904D01*
X95185714Y-28503809D01*
X95138095Y-28408571D01*
X95090476Y-28360952D01*
X94995238Y-28313333D01*
X94804761Y-28313333D01*
X94709523Y-28360952D01*
X94661904Y-28408571D01*
X94614285Y-28503809D01*
X126554287Y-40797618D02*
X126601906Y-40749999D01*
X126697144Y-40702379D01*
X126935240Y-40702379D01*
X127030478Y-40749999D01*
X127078097Y-40797618D01*
X127125716Y-40892856D01*
X127125716Y-40988094D01*
X127078097Y-41130951D01*
X126506668Y-41702379D01*
X127125716Y-41702379D01*
X94709523Y-66492380D02*
X94138095Y-66492380D01*
X94423809Y-66492380D02*
X94423809Y-65492380D01*
X94328571Y-65635238D01*
X94233333Y-65730476D01*
X94138095Y-65778095D01*
X95090476Y-65587619D02*
X95138095Y-65540000D01*
X95233333Y-65492380D01*
X95471428Y-65492380D01*
X95566666Y-65540000D01*
X95614285Y-65587619D01*
X95661904Y-65682857D01*
X95661904Y-65778095D01*
X95614285Y-65920952D01*
X95042857Y-66492380D01*
X95661904Y-66492380D01*
X75310476Y-55665714D02*
X75310476Y-56332380D01*
X75072380Y-55284761D02*
X74834285Y-55999047D01*
X75453333Y-55999047D01*
X74929523Y-74112380D02*
X74358095Y-74112380D01*
X74643809Y-74112380D02*
X74643809Y-73112380D01*
X74548571Y-73255238D01*
X74453333Y-73350476D01*
X74358095Y-73398095D01*
X75500952Y-73540952D02*
X75405714Y-73493333D01*
X75358095Y-73445714D01*
X75310476Y-73350476D01*
X75310476Y-73302857D01*
X75358095Y-73207619D01*
X75405714Y-73160000D01*
X75500952Y-73112380D01*
X75691428Y-73112380D01*
X75786666Y-73160000D01*
X75834285Y-73207619D01*
X75881904Y-73302857D01*
X75881904Y-73350476D01*
X75834285Y-73445714D01*
X75786666Y-73493333D01*
X75691428Y-73540952D01*
X75500952Y-73540952D01*
X75405714Y-73588571D01*
X75358095Y-73636190D01*
X75310476Y-73731428D01*
X75310476Y-73921904D01*
X75358095Y-74017142D01*
X75405714Y-74064761D01*
X75500952Y-74112380D01*
X75691428Y-74112380D01*
X75786666Y-74064761D01*
X75834285Y-74017142D01*
X75881904Y-73921904D01*
X75881904Y-73731428D01*
X75834285Y-73636190D01*
X75786666Y-73588571D01*
X75691428Y-73540952D01*
X74929523Y-69032380D02*
X74358095Y-69032380D01*
X74643809Y-69032380D02*
X74643809Y-68032380D01*
X74548571Y-68175238D01*
X74453333Y-68270476D01*
X74358095Y-68318095D01*
X75786666Y-68365714D02*
X75786666Y-69032380D01*
X75548571Y-67984761D02*
X75310476Y-68699047D01*
X75929523Y-68699047D01*
X107345714Y-23852380D02*
X106774285Y-23852380D01*
X107060000Y-23852380D02*
X107060000Y-22852380D01*
X106964761Y-22995238D01*
X106869523Y-23090476D01*
X106774285Y-23138095D01*
X139254286Y-65517620D02*
X139301905Y-65470001D01*
X139397143Y-65422381D01*
X139635239Y-65422381D01*
X139730477Y-65470001D01*
X139778096Y-65517620D01*
X139825715Y-65612858D01*
X139825715Y-65708096D01*
X139778096Y-65850953D01*
X139206667Y-66422381D01*
X139825715Y-66422381D01*
X86946666Y-55332380D02*
X87565714Y-55332380D01*
X87232380Y-55713333D01*
X87375238Y-55713333D01*
X87470476Y-55760952D01*
X87518095Y-55808571D01*
X87565714Y-55903809D01*
X87565714Y-56141904D01*
X87518095Y-56237142D01*
X87470476Y-56284761D01*
X87375238Y-56332380D01*
X87089523Y-56332380D01*
X86994285Y-56284761D01*
X86946666Y-56237142D01*
X138849525Y-39162379D02*
X138278097Y-39162379D01*
X138563811Y-39162379D02*
X138563811Y-38162379D01*
X138468573Y-38305237D01*
X138373335Y-38400475D01*
X138278097Y-38448094D01*
X139230478Y-38257618D02*
X139278097Y-38209999D01*
X139373335Y-38162379D01*
X139611430Y-38162379D01*
X139706668Y-38209999D01*
X139754287Y-38257618D01*
X139801906Y-38352856D01*
X139801906Y-38448094D01*
X139754287Y-38590951D01*
X139182859Y-39162379D01*
X139801906Y-39162379D01*
X140754287Y-38209999D02*
X140659049Y-38162379D01*
X140516192Y-38162379D01*
X140373335Y-38209999D01*
X140278097Y-38305237D01*
X140230478Y-38400475D01*
X140182859Y-38590951D01*
X140182859Y-38733808D01*
X140230478Y-38924284D01*
X140278097Y-39019522D01*
X140373335Y-39114760D01*
X140516192Y-39162379D01*
X140611430Y-39162379D01*
X140754287Y-39114760D01*
X140801906Y-39067141D01*
X140801906Y-38733808D01*
X140611430Y-38733808D01*
X127125715Y-61342381D02*
X126554286Y-61342381D01*
X126840001Y-61342381D02*
X126840001Y-60342381D01*
X126744762Y-60485239D01*
X126649524Y-60580477D01*
X126554286Y-60628096D01*
X139254286Y-70597620D02*
X139301905Y-70550001D01*
X139397143Y-70502381D01*
X139635239Y-70502381D01*
X139730477Y-70550001D01*
X139778096Y-70597620D01*
X139825715Y-70692858D01*
X139825715Y-70788096D01*
X139778096Y-70930953D01*
X139206667Y-71502381D01*
X139825715Y-71502381D01*
X95090476Y-55665714D02*
X95090476Y-56332380D01*
X94852380Y-55284761D02*
X94614285Y-55999047D01*
X95233333Y-55999047D01*
X67738095Y-57872380D02*
X67261904Y-57872380D01*
X67214285Y-58348571D01*
X67261904Y-58300952D01*
X67357142Y-58253333D01*
X67595238Y-58253333D01*
X67690476Y-58300952D01*
X67738095Y-58348571D01*
X67785714Y-58443809D01*
X67785714Y-58681904D01*
X67738095Y-58777142D01*
X67690476Y-58824761D01*
X67595238Y-58872380D01*
X67357142Y-58872380D01*
X67261904Y-58824761D01*
X67214285Y-58777142D01*
X87089523Y-63952380D02*
X87280000Y-63952380D01*
X87375238Y-63904761D01*
X87422857Y-63857142D01*
X87518095Y-63714285D01*
X87565714Y-63523809D01*
X87565714Y-63142857D01*
X87518095Y-63047619D01*
X87470476Y-63000000D01*
X87375238Y-62952380D01*
X87184761Y-62952380D01*
X87089523Y-63000000D01*
X87041904Y-63047619D01*
X86994285Y-63142857D01*
X86994285Y-63380952D01*
X87041904Y-63476190D01*
X87089523Y-63523809D01*
X87184761Y-63571428D01*
X87375238Y-63571428D01*
X87470476Y-63523809D01*
X87518095Y-63476190D01*
X87565714Y-63380952D01*
X75310476Y-27932380D02*
X75120000Y-27932380D01*
X75024761Y-27980000D01*
X74977142Y-28027619D01*
X74881904Y-28170476D01*
X74834285Y-28360952D01*
X74834285Y-28741904D01*
X74881904Y-28837142D01*
X74929523Y-28884761D01*
X75024761Y-28932380D01*
X75215238Y-28932380D01*
X75310476Y-28884761D01*
X75358095Y-28837142D01*
X75405714Y-28741904D01*
X75405714Y-28503809D01*
X75358095Y-28408571D01*
X75310476Y-28360952D01*
X75215238Y-28313333D01*
X75024761Y-28313333D01*
X74929523Y-28360952D01*
X74881904Y-28408571D01*
X74834285Y-28503809D01*
X114870476Y-25725714D02*
X114870476Y-26392380D01*
X114632380Y-25344761D02*
X114394285Y-26059047D01*
X115013333Y-26059047D01*
X106869523Y-69032380D02*
X106298095Y-69032380D01*
X106583809Y-69032380D02*
X106583809Y-68032380D01*
X106488571Y-68175238D01*
X106393333Y-68270476D01*
X106298095Y-68318095D01*
X107202857Y-68032380D02*
X107821904Y-68032380D01*
X107488571Y-68413333D01*
X107631428Y-68413333D01*
X107726666Y-68460952D01*
X107774285Y-68508571D01*
X107821904Y-68603809D01*
X107821904Y-68841904D01*
X107774285Y-68937142D01*
X107726666Y-68984761D01*
X107631428Y-69032380D01*
X107345714Y-69032380D01*
X107250476Y-68984761D01*
X107202857Y-68937142D01*
X74929523Y-66492380D02*
X74358095Y-66492380D01*
X74643809Y-66492380D02*
X74643809Y-65492380D01*
X74548571Y-65635238D01*
X74453333Y-65730476D01*
X74358095Y-65778095D01*
X75310476Y-65587619D02*
X75358095Y-65540000D01*
X75453333Y-65492380D01*
X75691428Y-65492380D01*
X75786666Y-65540000D01*
X75834285Y-65587619D01*
X75881904Y-65682857D01*
X75881904Y-65778095D01*
X75834285Y-65920952D01*
X75262857Y-66492380D01*
X75881904Y-66492380D01*
X95090476Y-57872380D02*
X94900000Y-57872380D01*
X94804761Y-57920000D01*
X94757142Y-57967619D01*
X94661904Y-58110476D01*
X94614285Y-58300952D01*
X94614285Y-58681904D01*
X94661904Y-58777142D01*
X94709523Y-58824761D01*
X94804761Y-58872380D01*
X94995238Y-58872380D01*
X95090476Y-58824761D01*
X95138095Y-58777142D01*
X95185714Y-58681904D01*
X95185714Y-58443809D01*
X95138095Y-58348571D01*
X95090476Y-58300952D01*
X94995238Y-58253333D01*
X94804761Y-58253333D01*
X94709523Y-58300952D01*
X94661904Y-58348571D01*
X94614285Y-58443809D01*
X106869523Y-34012380D02*
X107060000Y-34012380D01*
X107155238Y-33964761D01*
X107202857Y-33917142D01*
X107298095Y-33774285D01*
X107345714Y-33583809D01*
X107345714Y-33202857D01*
X107298095Y-33107619D01*
X107250476Y-33060000D01*
X107155238Y-33012380D01*
X106964761Y-33012380D01*
X106869523Y-33060000D01*
X106821904Y-33107619D01*
X106774285Y-33202857D01*
X106774285Y-33440952D01*
X106821904Y-33536190D01*
X106869523Y-33583809D01*
X106964761Y-33631428D01*
X107155238Y-33631428D01*
X107250476Y-33583809D01*
X107298095Y-33536190D01*
X107345714Y-33440952D01*
X67738095Y-27932380D02*
X67261904Y-27932380D01*
X67214285Y-28408571D01*
X67261904Y-28360952D01*
X67357142Y-28313333D01*
X67595238Y-28313333D01*
X67690476Y-28360952D01*
X67738095Y-28408571D01*
X67785714Y-28503809D01*
X67785714Y-28741904D01*
X67738095Y-28837142D01*
X67690476Y-28884761D01*
X67595238Y-28932380D01*
X67357142Y-28932380D01*
X67261904Y-28884761D01*
X67214285Y-28837142D01*
X114870476Y-27932380D02*
X114680000Y-27932380D01*
X114584761Y-27980000D01*
X114537142Y-28027619D01*
X114441904Y-28170476D01*
X114394285Y-28360952D01*
X114394285Y-28741904D01*
X114441904Y-28837142D01*
X114489523Y-28884761D01*
X114584761Y-28932380D01*
X114775238Y-28932380D01*
X114870476Y-28884761D01*
X114918095Y-28837142D01*
X114965714Y-28741904D01*
X114965714Y-28503809D01*
X114918095Y-28408571D01*
X114870476Y-28360952D01*
X114775238Y-28313333D01*
X114584761Y-28313333D01*
X114489523Y-28360952D01*
X114441904Y-28408571D01*
X114394285Y-28503809D01*
X94804761Y-30900952D02*
X94709523Y-30853333D01*
X94661904Y-30805714D01*
X94614285Y-30710476D01*
X94614285Y-30662857D01*
X94661904Y-30567619D01*
X94709523Y-30520000D01*
X94804761Y-30472380D01*
X94995238Y-30472380D01*
X95090476Y-30520000D01*
X95138095Y-30567619D01*
X95185714Y-30662857D01*
X95185714Y-30710476D01*
X95138095Y-30805714D01*
X95090476Y-30853333D01*
X94995238Y-30900952D01*
X94804761Y-30900952D01*
X94709523Y-30948571D01*
X94661904Y-30996190D01*
X94614285Y-31091428D01*
X94614285Y-31281904D01*
X94661904Y-31377142D01*
X94709523Y-31424761D01*
X94804761Y-31472380D01*
X94995238Y-31472380D01*
X95090476Y-31424761D01*
X95138095Y-31377142D01*
X95185714Y-31281904D01*
X95185714Y-31091428D01*
X95138095Y-30996190D01*
X95090476Y-30948571D01*
X94995238Y-30900952D01*
X106869523Y-44172380D02*
X106298095Y-44172380D01*
X106583809Y-44172380D02*
X106583809Y-43172380D01*
X106488571Y-43315238D01*
X106393333Y-43410476D01*
X106298095Y-43458095D01*
X107202857Y-43172380D02*
X107869523Y-43172380D01*
X107440952Y-44172380D01*
X114870476Y-57872380D02*
X114680000Y-57872380D01*
X114584761Y-57920000D01*
X114537142Y-57967619D01*
X114441904Y-58110476D01*
X114394285Y-58300952D01*
X114394285Y-58681904D01*
X114441904Y-58777142D01*
X114489523Y-58824761D01*
X114584761Y-58872380D01*
X114775238Y-58872380D01*
X114870476Y-58824761D01*
X114918095Y-58777142D01*
X114965714Y-58681904D01*
X114965714Y-58443809D01*
X114918095Y-58348571D01*
X114870476Y-58300952D01*
X114775238Y-58253333D01*
X114584761Y-58253333D01*
X114489523Y-58300952D01*
X114441904Y-58348571D01*
X114394285Y-58443809D01*
X54578095Y-75747619D02*
X54625714Y-75700000D01*
X54720952Y-75652380D01*
X54959047Y-75652380D01*
X55054285Y-75700000D01*
X55101904Y-75747619D01*
X55149523Y-75842857D01*
X55149523Y-75938095D01*
X55101904Y-76080952D01*
X54530476Y-76652380D01*
X55149523Y-76652380D01*
X55768571Y-75652380D02*
X55863809Y-75652380D01*
X55959047Y-75700000D01*
X56006666Y-75747619D01*
X56054285Y-75842857D01*
X56101904Y-76033333D01*
X56101904Y-76271428D01*
X56054285Y-76461904D01*
X56006666Y-76557142D01*
X55959047Y-76604761D01*
X55863809Y-76652380D01*
X55768571Y-76652380D01*
X55673333Y-76604761D01*
X55625714Y-76557142D01*
X55578095Y-76461904D01*
X55530476Y-76271428D01*
X55530476Y-76033333D01*
X55578095Y-75842857D01*
X55625714Y-75747619D01*
X55673333Y-75700000D01*
X55768571Y-75652380D01*
X35369523Y-66492380D02*
X34798095Y-66492380D01*
X35083809Y-66492380D02*
X35083809Y-65492380D01*
X34988571Y-65635238D01*
X34893333Y-65730476D01*
X34798095Y-65778095D01*
X35750476Y-65587619D02*
X35798095Y-65540000D01*
X35893333Y-65492380D01*
X36131428Y-65492380D01*
X36226666Y-65540000D01*
X36274285Y-65587619D01*
X36321904Y-65682857D01*
X36321904Y-65778095D01*
X36274285Y-65920952D01*
X35702857Y-66492380D01*
X36321904Y-66492380D01*
X35750476Y-27932380D02*
X35560000Y-27932380D01*
X35464761Y-27980000D01*
X35417142Y-28027619D01*
X35321904Y-28170476D01*
X35274285Y-28360952D01*
X35274285Y-28741904D01*
X35321904Y-28837142D01*
X35369523Y-28884761D01*
X35464761Y-28932380D01*
X35655238Y-28932380D01*
X35750476Y-28884761D01*
X35798095Y-28837142D01*
X35845714Y-28741904D01*
X35845714Y-28503809D01*
X35798095Y-28408571D01*
X35750476Y-28360952D01*
X35655238Y-28313333D01*
X35464761Y-28313333D01*
X35369523Y-28360952D01*
X35321904Y-28408571D01*
X35274285Y-28503809D01*
X67166666Y-60412380D02*
X67833333Y-60412380D01*
X67404761Y-61412380D01*
X94709523Y-34012380D02*
X94138095Y-34012380D01*
X94423809Y-34012380D02*
X94423809Y-33012380D01*
X94328571Y-33155238D01*
X94233333Y-33250476D01*
X94138095Y-33298095D01*
X95328571Y-33012380D02*
X95423809Y-33012380D01*
X95519047Y-33060000D01*
X95566666Y-33107619D01*
X95614285Y-33202857D01*
X95661904Y-33393333D01*
X95661904Y-33631428D01*
X95614285Y-33821904D01*
X95566666Y-33917142D01*
X95519047Y-33964761D01*
X95423809Y-34012380D01*
X95328571Y-34012380D01*
X95233333Y-33964761D01*
X95185714Y-33917142D01*
X95138095Y-33821904D01*
X95090476Y-33631428D01*
X95090476Y-33393333D01*
X95138095Y-33202857D01*
X95185714Y-33107619D01*
X95233333Y-33060000D01*
X95328571Y-33012380D01*
X27749523Y-36552380D02*
X27178095Y-36552380D01*
X27463809Y-36552380D02*
X27463809Y-35552380D01*
X27368571Y-35695238D01*
X27273333Y-35790476D01*
X27178095Y-35838095D01*
X28701904Y-36552380D02*
X28130476Y-36552380D01*
X28416190Y-36552380D02*
X28416190Y-35552380D01*
X28320952Y-35695238D01*
X28225714Y-35790476D01*
X28130476Y-35838095D01*
X67785714Y-53792380D02*
X67214285Y-53792380D01*
X67500000Y-53792380D02*
X67500000Y-52792380D01*
X67404761Y-52935238D01*
X67309523Y-53030476D01*
X67214285Y-53078095D01*
X94709523Y-39092380D02*
X94138095Y-39092380D01*
X94423809Y-39092380D02*
X94423809Y-38092380D01*
X94328571Y-38235238D01*
X94233333Y-38330476D01*
X94138095Y-38378095D01*
X95566666Y-38425714D02*
X95566666Y-39092380D01*
X95328571Y-38044761D02*
X95090476Y-38759047D01*
X95709523Y-38759047D01*
X55530476Y-27932380D02*
X55340000Y-27932380D01*
X55244761Y-27980000D01*
X55197142Y-28027619D01*
X55101904Y-28170476D01*
X55054285Y-28360952D01*
X55054285Y-28741904D01*
X55101904Y-28837142D01*
X55149523Y-28884761D01*
X55244761Y-28932380D01*
X55435238Y-28932380D01*
X55530476Y-28884761D01*
X55578095Y-28837142D01*
X55625714Y-28741904D01*
X55625714Y-28503809D01*
X55578095Y-28408571D01*
X55530476Y-28360952D01*
X55435238Y-28313333D01*
X55244761Y-28313333D01*
X55149523Y-28360952D01*
X55101904Y-28408571D01*
X55054285Y-28503809D01*
X87089523Y-46712380D02*
X86518095Y-46712380D01*
X86803809Y-46712380D02*
X86803809Y-45712380D01*
X86708571Y-45855238D01*
X86613333Y-45950476D01*
X86518095Y-45998095D01*
X87565714Y-46712380D02*
X87756190Y-46712380D01*
X87851428Y-46664761D01*
X87899047Y-46617142D01*
X87994285Y-46474285D01*
X88041904Y-46283809D01*
X88041904Y-45902857D01*
X87994285Y-45807619D01*
X87946666Y-45760000D01*
X87851428Y-45712380D01*
X87660952Y-45712380D01*
X87565714Y-45760000D01*
X87518095Y-45807619D01*
X87470476Y-45902857D01*
X87470476Y-46140952D01*
X87518095Y-46236190D01*
X87565714Y-46283809D01*
X87660952Y-46331428D01*
X87851428Y-46331428D01*
X87946666Y-46283809D01*
X87994285Y-46236190D01*
X88041904Y-46140952D01*
X47529523Y-76652380D02*
X46958095Y-76652380D01*
X47243809Y-76652380D02*
X47243809Y-75652380D01*
X47148571Y-75795238D01*
X47053333Y-75890476D01*
X46958095Y-75938095D01*
X48005714Y-76652380D02*
X48196190Y-76652380D01*
X48291428Y-76604761D01*
X48339047Y-76557142D01*
X48434285Y-76414285D01*
X48481904Y-76223809D01*
X48481904Y-75842857D01*
X48434285Y-75747619D01*
X48386666Y-75700000D01*
X48291428Y-75652380D01*
X48100952Y-75652380D01*
X48005714Y-75700000D01*
X47958095Y-75747619D01*
X47910476Y-75842857D01*
X47910476Y-76080952D01*
X47958095Y-76176190D01*
X48005714Y-76223809D01*
X48100952Y-76271428D01*
X48291428Y-76271428D01*
X48386666Y-76223809D01*
X48434285Y-76176190D01*
X48481904Y-76080952D01*
X107298095Y-27932380D02*
X106821904Y-27932380D01*
X106774285Y-28408571D01*
X106821904Y-28360952D01*
X106917142Y-28313333D01*
X107155238Y-28313333D01*
X107250476Y-28360952D01*
X107298095Y-28408571D01*
X107345714Y-28503809D01*
X107345714Y-28741904D01*
X107298095Y-28837142D01*
X107250476Y-28884761D01*
X107155238Y-28932380D01*
X106917142Y-28932380D01*
X106821904Y-28884761D01*
X106774285Y-28837142D01*
X87089523Y-66492380D02*
X86518095Y-66492380D01*
X86803809Y-66492380D02*
X86803809Y-65492380D01*
X86708571Y-65635238D01*
X86613333Y-65730476D01*
X86518095Y-65778095D01*
X88041904Y-66492380D02*
X87470476Y-66492380D01*
X87756190Y-66492380D02*
X87756190Y-65492380D01*
X87660952Y-65635238D01*
X87565714Y-65730476D01*
X87470476Y-65778095D01*
X114870476Y-55665714D02*
X114870476Y-56332380D01*
X114632380Y-55284761D02*
X114394285Y-55999047D01*
X115013333Y-55999047D01*
X114394285Y-52887619D02*
X114441904Y-52840000D01*
X114537142Y-52792380D01*
X114775238Y-52792380D01*
X114870476Y-52840000D01*
X114918095Y-52887619D01*
X114965714Y-52982857D01*
X114965714Y-53078095D01*
X114918095Y-53220952D01*
X114346666Y-53792380D01*
X114965714Y-53792380D01*
X67309523Y-41632380D02*
X66738095Y-41632380D01*
X67023809Y-41632380D02*
X67023809Y-40632380D01*
X66928571Y-40775238D01*
X66833333Y-40870476D01*
X66738095Y-40918095D01*
X68214285Y-40632380D02*
X67738095Y-40632380D01*
X67690476Y-41108571D01*
X67738095Y-41060952D01*
X67833333Y-41013333D01*
X68071428Y-41013333D01*
X68166666Y-41060952D01*
X68214285Y-41108571D01*
X68261904Y-41203809D01*
X68261904Y-41441904D01*
X68214285Y-41537142D01*
X68166666Y-41584761D01*
X68071428Y-41632380D01*
X67833333Y-41632380D01*
X67738095Y-41584761D01*
X67690476Y-41537142D01*
X139349525Y-41702379D02*
X138778097Y-41702379D01*
X139063811Y-41702379D02*
X139063811Y-40702379D01*
X138968573Y-40845237D01*
X138873335Y-40940475D01*
X138778097Y-40988094D01*
X139682859Y-40702379D02*
X140301906Y-40702379D01*
X139968573Y-41083332D01*
X140111430Y-41083332D01*
X140206668Y-41130951D01*
X140254287Y-41178570D01*
X140301906Y-41273808D01*
X140301906Y-41511903D01*
X140254287Y-41607141D01*
X140206668Y-41654760D01*
X140111430Y-41702379D01*
X139825716Y-41702379D01*
X139730478Y-41654760D01*
X139682859Y-41607141D01*
X55149523Y-66492380D02*
X54578095Y-66492380D01*
X54863809Y-66492380D02*
X54863809Y-65492380D01*
X54768571Y-65635238D01*
X54673333Y-65730476D01*
X54578095Y-65778095D01*
X55530476Y-65587619D02*
X55578095Y-65540000D01*
X55673333Y-65492380D01*
X55911428Y-65492380D01*
X56006666Y-65540000D01*
X56054285Y-65587619D01*
X56101904Y-65682857D01*
X56101904Y-65778095D01*
X56054285Y-65920952D01*
X55482857Y-66492380D01*
X56101904Y-66492380D01*
X67785714Y-23852380D02*
X67214285Y-23852380D01*
X67500000Y-23852380D02*
X67500000Y-22852380D01*
X67404761Y-22995238D01*
X67309523Y-23090476D01*
X67214285Y-23138095D01*
X127125715Y-71502381D02*
X126554286Y-71502381D01*
X126840001Y-71502381D02*
X126840001Y-70502381D01*
X126744762Y-70645239D01*
X126649524Y-70740477D01*
X126554286Y-70788096D01*
X87089523Y-39092380D02*
X86518095Y-39092380D01*
X86803809Y-39092380D02*
X86803809Y-38092380D01*
X86708571Y-38235238D01*
X86613333Y-38330476D01*
X86518095Y-38378095D01*
X87422857Y-38092380D02*
X88041904Y-38092380D01*
X87708571Y-38473333D01*
X87851428Y-38473333D01*
X87946666Y-38520952D01*
X87994285Y-38568571D01*
X88041904Y-38663809D01*
X88041904Y-38901904D01*
X87994285Y-38997142D01*
X87946666Y-39044761D01*
X87851428Y-39092380D01*
X87565714Y-39092380D01*
X87470476Y-39044761D01*
X87422857Y-38997142D01*
X114489523Y-63952380D02*
X113918095Y-63952380D01*
X114203809Y-63952380D02*
X114203809Y-62952380D01*
X114108571Y-63095238D01*
X114013333Y-63190476D01*
X113918095Y-63238095D01*
X115108571Y-62952380D02*
X115203809Y-62952380D01*
X115299047Y-63000000D01*
X115346666Y-63047619D01*
X115394285Y-63142857D01*
X115441904Y-63333333D01*
X115441904Y-63571428D01*
X115394285Y-63761904D01*
X115346666Y-63857142D01*
X115299047Y-63904761D01*
X115203809Y-63952380D01*
X115108571Y-63952380D01*
X115013333Y-63904761D01*
X114965714Y-63857142D01*
X114918095Y-63761904D01*
X114870476Y-63571428D01*
X114870476Y-63333333D01*
X114918095Y-63142857D01*
X114965714Y-63047619D01*
X115013333Y-63000000D01*
X115108571Y-62952380D01*
X107345714Y-53792380D02*
X106774285Y-53792380D01*
X107060000Y-53792380D02*
X107060000Y-52792380D01*
X106964761Y-52935238D01*
X106869523Y-53030476D01*
X106774285Y-53078095D01*
X27749523Y-44172380D02*
X27178095Y-44172380D01*
X27463809Y-44172380D02*
X27463809Y-43172380D01*
X27368571Y-43315238D01*
X27273333Y-43410476D01*
X27178095Y-43458095D01*
X28082857Y-43172380D02*
X28749523Y-43172380D01*
X28320952Y-44172380D01*
X47958095Y-57872380D02*
X47481904Y-57872380D01*
X47434285Y-58348571D01*
X47481904Y-58300952D01*
X47577142Y-58253333D01*
X47815238Y-58253333D01*
X47910476Y-58300952D01*
X47958095Y-58348571D01*
X48005714Y-58443809D01*
X48005714Y-58681904D01*
X47958095Y-58777142D01*
X47910476Y-58824761D01*
X47815238Y-58872380D01*
X47577142Y-58872380D01*
X47481904Y-58824761D01*
X47434285Y-58777142D01*
X127078097Y-33082379D02*
X126601906Y-33082379D01*
X126554287Y-33558570D01*
X126601906Y-33510951D01*
X126697144Y-33463332D01*
X126935240Y-33463332D01*
X127030478Y-33510951D01*
X127078097Y-33558570D01*
X127125716Y-33653808D01*
X127125716Y-33891903D01*
X127078097Y-33987141D01*
X127030478Y-34034760D01*
X126935240Y-34082379D01*
X126697144Y-34082379D01*
X126601906Y-34034760D01*
X126554287Y-33987141D01*
X114394285Y-22947619D02*
X114441904Y-22900000D01*
X114537142Y-22852380D01*
X114775238Y-22852380D01*
X114870476Y-22900000D01*
X114918095Y-22947619D01*
X114965714Y-23042857D01*
X114965714Y-23138095D01*
X114918095Y-23280952D01*
X114346666Y-23852380D01*
X114965714Y-23852380D01*
X35369523Y-74112380D02*
X34798095Y-74112380D01*
X35083809Y-74112380D02*
X35083809Y-73112380D01*
X34988571Y-73255238D01*
X34893333Y-73350476D01*
X34798095Y-73398095D01*
X35940952Y-73540952D02*
X35845714Y-73493333D01*
X35798095Y-73445714D01*
X35750476Y-73350476D01*
X35750476Y-73302857D01*
X35798095Y-73207619D01*
X35845714Y-73160000D01*
X35940952Y-73112380D01*
X36131428Y-73112380D01*
X36226666Y-73160000D01*
X36274285Y-73207619D01*
X36321904Y-73302857D01*
X36321904Y-73350476D01*
X36274285Y-73445714D01*
X36226666Y-73493333D01*
X36131428Y-73540952D01*
X35940952Y-73540952D01*
X35845714Y-73588571D01*
X35798095Y-73636190D01*
X35750476Y-73731428D01*
X35750476Y-73921904D01*
X35798095Y-74017142D01*
X35845714Y-74064761D01*
X35940952Y-74112380D01*
X36131428Y-74112380D01*
X36226666Y-74064761D01*
X36274285Y-74017142D01*
X36321904Y-73921904D01*
X36321904Y-73731428D01*
X36274285Y-73636190D01*
X36226666Y-73588571D01*
X36131428Y-73540952D01*
X86946666Y-60412380D02*
X87613333Y-60412380D01*
X87184761Y-61412380D01*
X94138095Y-75747619D02*
X94185714Y-75700000D01*
X94280952Y-75652380D01*
X94519047Y-75652380D01*
X94614285Y-75700000D01*
X94661904Y-75747619D01*
X94709523Y-75842857D01*
X94709523Y-75938095D01*
X94661904Y-76080952D01*
X94090476Y-76652380D01*
X94709523Y-76652380D01*
X95328571Y-75652380D02*
X95423809Y-75652380D01*
X95519047Y-75700000D01*
X95566666Y-75747619D01*
X95614285Y-75842857D01*
X95661904Y-76033333D01*
X95661904Y-76271428D01*
X95614285Y-76461904D01*
X95566666Y-76557142D01*
X95519047Y-76604761D01*
X95423809Y-76652380D01*
X95328571Y-76652380D01*
X95233333Y-76604761D01*
X95185714Y-76557142D01*
X95138095Y-76461904D01*
X95090476Y-76271428D01*
X95090476Y-76033333D01*
X95138095Y-75842857D01*
X95185714Y-75747619D01*
X95233333Y-75700000D01*
X95328571Y-75652380D01*
X94709523Y-41632380D02*
X94138095Y-41632380D01*
X94423809Y-41632380D02*
X94423809Y-40632380D01*
X94328571Y-40775238D01*
X94233333Y-40870476D01*
X94138095Y-40918095D01*
X95566666Y-40632380D02*
X95376190Y-40632380D01*
X95280952Y-40680000D01*
X95233333Y-40727619D01*
X95138095Y-40870476D01*
X95090476Y-41060952D01*
X95090476Y-41441904D01*
X95138095Y-41537142D01*
X95185714Y-41584761D01*
X95280952Y-41632380D01*
X95471428Y-41632380D01*
X95566666Y-41584761D01*
X95614285Y-41537142D01*
X95661904Y-41441904D01*
X95661904Y-41203809D01*
X95614285Y-41108571D01*
X95566666Y-41060952D01*
X95471428Y-41013333D01*
X95280952Y-41013333D01*
X95185714Y-41060952D01*
X95138095Y-41108571D01*
X95090476Y-41203809D01*
X74929523Y-63952380D02*
X74358095Y-63952380D01*
X74643809Y-63952380D02*
X74643809Y-62952380D01*
X74548571Y-63095238D01*
X74453333Y-63190476D01*
X74358095Y-63238095D01*
X75548571Y-62952380D02*
X75643809Y-62952380D01*
X75739047Y-63000000D01*
X75786666Y-63047619D01*
X75834285Y-63142857D01*
X75881904Y-63333333D01*
X75881904Y-63571428D01*
X75834285Y-63761904D01*
X75786666Y-63857142D01*
X75739047Y-63904761D01*
X75643809Y-63952380D01*
X75548571Y-63952380D01*
X75453333Y-63904761D01*
X75405714Y-63857142D01*
X75358095Y-63761904D01*
X75310476Y-63571428D01*
X75310476Y-63333333D01*
X75358095Y-63142857D01*
X75405714Y-63047619D01*
X75453333Y-63000000D01*
X75548571Y-62952380D01*
X67309523Y-66492380D02*
X66738095Y-66492380D01*
X67023809Y-66492380D02*
X67023809Y-65492380D01*
X66928571Y-65635238D01*
X66833333Y-65730476D01*
X66738095Y-65778095D01*
X68261904Y-66492380D02*
X67690476Y-66492380D01*
X67976190Y-66492380D02*
X67976190Y-65492380D01*
X67880952Y-65635238D01*
X67785714Y-65730476D01*
X67690476Y-65778095D01*
X114489523Y-41632380D02*
X113918095Y-41632380D01*
X114203809Y-41632380D02*
X114203809Y-40632380D01*
X114108571Y-40775238D01*
X114013333Y-40870476D01*
X113918095Y-40918095D01*
X115346666Y-40632380D02*
X115156190Y-40632380D01*
X115060952Y-40680000D01*
X115013333Y-40727619D01*
X114918095Y-40870476D01*
X114870476Y-41060952D01*
X114870476Y-41441904D01*
X114918095Y-41537142D01*
X114965714Y-41584761D01*
X115060952Y-41632380D01*
X115251428Y-41632380D01*
X115346666Y-41584761D01*
X115394285Y-41537142D01*
X115441904Y-41441904D01*
X115441904Y-41203809D01*
X115394285Y-41108571D01*
X115346666Y-41060952D01*
X115251428Y-41013333D01*
X115060952Y-41013333D01*
X114965714Y-41060952D01*
X114918095Y-41108571D01*
X114870476Y-41203809D01*
X47529523Y-39092380D02*
X46958095Y-39092380D01*
X47243809Y-39092380D02*
X47243809Y-38092380D01*
X47148571Y-38235238D01*
X47053333Y-38330476D01*
X46958095Y-38378095D01*
X47862857Y-38092380D02*
X48481904Y-38092380D01*
X48148571Y-38473333D01*
X48291428Y-38473333D01*
X48386666Y-38520952D01*
X48434285Y-38568571D01*
X48481904Y-38663809D01*
X48481904Y-38901904D01*
X48434285Y-38997142D01*
X48386666Y-39044761D01*
X48291428Y-39092380D01*
X48005714Y-39092380D01*
X47910476Y-39044761D01*
X47862857Y-38997142D01*
X107298095Y-57872380D02*
X106821904Y-57872380D01*
X106774285Y-58348571D01*
X106821904Y-58300952D01*
X106917142Y-58253333D01*
X107155238Y-58253333D01*
X107250476Y-58300952D01*
X107298095Y-58348571D01*
X107345714Y-58443809D01*
X107345714Y-58681904D01*
X107298095Y-58777142D01*
X107250476Y-58824761D01*
X107155238Y-58872380D01*
X106917142Y-58872380D01*
X106821904Y-58824761D01*
X106774285Y-58777142D01*
X35274285Y-52887619D02*
X35321904Y-52840000D01*
X35417142Y-52792380D01*
X35655238Y-52792380D01*
X35750476Y-52840000D01*
X35798095Y-52887619D01*
X35845714Y-52982857D01*
X35845714Y-53078095D01*
X35798095Y-53220952D01*
X35226666Y-53792380D01*
X35845714Y-53792380D01*
X74929523Y-34012380D02*
X74358095Y-34012380D01*
X74643809Y-34012380D02*
X74643809Y-33012380D01*
X74548571Y-33155238D01*
X74453333Y-33250476D01*
X74358095Y-33298095D01*
X75548571Y-33012380D02*
X75643809Y-33012380D01*
X75739047Y-33060000D01*
X75786666Y-33107619D01*
X75834285Y-33202857D01*
X75881904Y-33393333D01*
X75881904Y-33631428D01*
X75834285Y-33821904D01*
X75786666Y-33917142D01*
X75739047Y-33964761D01*
X75643809Y-34012380D01*
X75548571Y-34012380D01*
X75453333Y-33964761D01*
X75405714Y-33917142D01*
X75358095Y-33821904D01*
X75310476Y-33631428D01*
X75310476Y-33393333D01*
X75358095Y-33202857D01*
X75405714Y-33107619D01*
X75453333Y-33060000D01*
X75548571Y-33012380D01*
X67309523Y-74112380D02*
X66738095Y-74112380D01*
X67023809Y-74112380D02*
X67023809Y-73112380D01*
X66928571Y-73255238D01*
X66833333Y-73350476D01*
X66738095Y-73398095D01*
X67642857Y-73112380D02*
X68309523Y-73112380D01*
X67880952Y-74112380D01*
X127125716Y-26462379D02*
X126554287Y-26462379D01*
X126840002Y-26462379D02*
X126840002Y-25462379D01*
X126744763Y-25605237D01*
X126649525Y-25700475D01*
X126554287Y-25748094D01*
X75310476Y-57872380D02*
X75120000Y-57872380D01*
X75024761Y-57920000D01*
X74977142Y-57967619D01*
X74881904Y-58110476D01*
X74834285Y-58300952D01*
X74834285Y-58681904D01*
X74881904Y-58777142D01*
X74929523Y-58824761D01*
X75024761Y-58872380D01*
X75215238Y-58872380D01*
X75310476Y-58824761D01*
X75358095Y-58777142D01*
X75405714Y-58681904D01*
X75405714Y-58443809D01*
X75358095Y-58348571D01*
X75310476Y-58300952D01*
X75215238Y-58253333D01*
X75024761Y-58253333D01*
X74929523Y-58300952D01*
X74881904Y-58348571D01*
X74834285Y-58443809D01*
X27749523Y-46712380D02*
X27178095Y-46712380D01*
X27463809Y-46712380D02*
X27463809Y-45712380D01*
X27368571Y-45855238D01*
X27273333Y-45950476D01*
X27178095Y-45998095D01*
X28225714Y-46712380D02*
X28416190Y-46712380D01*
X28511428Y-46664761D01*
X28559047Y-46617142D01*
X28654285Y-46474285D01*
X28701904Y-46283809D01*
X28701904Y-45902857D01*
X28654285Y-45807619D01*
X28606666Y-45760000D01*
X28511428Y-45712380D01*
X28320952Y-45712380D01*
X28225714Y-45760000D01*
X28178095Y-45807619D01*
X28130476Y-45902857D01*
X28130476Y-46140952D01*
X28178095Y-46236190D01*
X28225714Y-46283809D01*
X28320952Y-46331428D01*
X28511428Y-46331428D01*
X28606666Y-46283809D01*
X28654285Y-46236190D01*
X28701904Y-46140952D01*
X87565714Y-23852380D02*
X86994285Y-23852380D01*
X87280000Y-23852380D02*
X87280000Y-22852380D01*
X87184761Y-22995238D01*
X87089523Y-23090476D01*
X86994285Y-23138095D01*
X127125715Y-56262381D02*
X126554286Y-56262381D01*
X126840001Y-56262381D02*
X126840001Y-55262381D01*
X126744762Y-55405239D01*
X126649524Y-55500477D01*
X126554286Y-55548096D01*
X35274285Y-22947619D02*
X35321904Y-22900000D01*
X35417142Y-22852380D01*
X35655238Y-22852380D01*
X35750476Y-22900000D01*
X35798095Y-22947619D01*
X35845714Y-23042857D01*
X35845714Y-23138095D01*
X35798095Y-23280952D01*
X35226666Y-23852380D01*
X35845714Y-23852380D01*
X106869523Y-46712380D02*
X106298095Y-46712380D01*
X106583809Y-46712380D02*
X106583809Y-45712380D01*
X106488571Y-45855238D01*
X106393333Y-45950476D01*
X106298095Y-45998095D01*
X107345714Y-46712380D02*
X107536190Y-46712380D01*
X107631428Y-46664761D01*
X107679047Y-46617142D01*
X107774285Y-46474285D01*
X107821904Y-46283809D01*
X107821904Y-45902857D01*
X107774285Y-45807619D01*
X107726666Y-45760000D01*
X107631428Y-45712380D01*
X107440952Y-45712380D01*
X107345714Y-45760000D01*
X107298095Y-45807619D01*
X107250476Y-45902857D01*
X107250476Y-46140952D01*
X107298095Y-46236190D01*
X107345714Y-46283809D01*
X107440952Y-46331428D01*
X107631428Y-46331428D01*
X107726666Y-46283809D01*
X107774285Y-46236190D01*
X107821904Y-46140952D01*
X106726666Y-25392380D02*
X107345714Y-25392380D01*
X107012380Y-25773333D01*
X107155238Y-25773333D01*
X107250476Y-25820952D01*
X107298095Y-25868571D01*
X107345714Y-25963809D01*
X107345714Y-26201904D01*
X107298095Y-26297142D01*
X107250476Y-26344761D01*
X107155238Y-26392380D01*
X106869523Y-26392380D01*
X106774285Y-26344761D01*
X106726666Y-26297142D01*
X28225714Y-23852380D02*
X27654285Y-23852380D01*
X27940000Y-23852380D02*
X27940000Y-22852380D01*
X27844761Y-22995238D01*
X27749523Y-23090476D01*
X27654285Y-23138095D01*
X126625716Y-44242379D02*
X126054287Y-44242379D01*
X126340002Y-44242379D02*
X126340002Y-43242379D01*
X126244763Y-43385237D01*
X126149525Y-43480475D01*
X126054287Y-43528094D01*
X127578097Y-43289999D02*
X127482859Y-43242379D01*
X127340002Y-43242379D01*
X127197144Y-43289999D01*
X127101906Y-43385237D01*
X127054287Y-43480475D01*
X127006668Y-43670951D01*
X127006668Y-43813808D01*
X127054287Y-44004284D01*
X127101906Y-44099522D01*
X127197144Y-44194760D01*
X127340002Y-44242379D01*
X127435240Y-44242379D01*
X127578097Y-44194760D01*
X127625716Y-44147141D01*
X127625716Y-43813808D01*
X127435240Y-43813808D01*
X75024761Y-30900952D02*
X74929523Y-30853333D01*
X74881904Y-30805714D01*
X74834285Y-30710476D01*
X74834285Y-30662857D01*
X74881904Y-30567619D01*
X74929523Y-30520000D01*
X75024761Y-30472380D01*
X75215238Y-30472380D01*
X75310476Y-30520000D01*
X75358095Y-30567619D01*
X75405714Y-30662857D01*
X75405714Y-30710476D01*
X75358095Y-30805714D01*
X75310476Y-30853333D01*
X75215238Y-30900952D01*
X75024761Y-30900952D01*
X74929523Y-30948571D01*
X74881904Y-30996190D01*
X74834285Y-31091428D01*
X74834285Y-31281904D01*
X74881904Y-31377142D01*
X74929523Y-31424761D01*
X75024761Y-31472380D01*
X75215238Y-31472380D01*
X75310476Y-31424761D01*
X75358095Y-31377142D01*
X75405714Y-31281904D01*
X75405714Y-31091428D01*
X75358095Y-30996190D01*
X75310476Y-30948571D01*
X75215238Y-30900952D01*
X94709523Y-36552380D02*
X94138095Y-36552380D01*
X94423809Y-36552380D02*
X94423809Y-35552380D01*
X94328571Y-35695238D01*
X94233333Y-35790476D01*
X94138095Y-35838095D01*
X95090476Y-35647619D02*
X95138095Y-35600000D01*
X95233333Y-35552380D01*
X95471428Y-35552380D01*
X95566666Y-35600000D01*
X95614285Y-35647619D01*
X95661904Y-35742857D01*
X95661904Y-35838095D01*
X95614285Y-35980952D01*
X95042857Y-36552380D01*
X95661904Y-36552380D01*
X55149523Y-74112380D02*
X54578095Y-74112380D01*
X54863809Y-74112380D02*
X54863809Y-73112380D01*
X54768571Y-73255238D01*
X54673333Y-73350476D01*
X54578095Y-73398095D01*
X55720952Y-73540952D02*
X55625714Y-73493333D01*
X55578095Y-73445714D01*
X55530476Y-73350476D01*
X55530476Y-73302857D01*
X55578095Y-73207619D01*
X55625714Y-73160000D01*
X55720952Y-73112380D01*
X55911428Y-73112380D01*
X56006666Y-73160000D01*
X56054285Y-73207619D01*
X56101904Y-73302857D01*
X56101904Y-73350476D01*
X56054285Y-73445714D01*
X56006666Y-73493333D01*
X55911428Y-73540952D01*
X55720952Y-73540952D01*
X55625714Y-73588571D01*
X55578095Y-73636190D01*
X55530476Y-73731428D01*
X55530476Y-73921904D01*
X55578095Y-74017142D01*
X55625714Y-74064761D01*
X55720952Y-74112380D01*
X55911428Y-74112380D01*
X56006666Y-74064761D01*
X56054285Y-74017142D01*
X56101904Y-73921904D01*
X56101904Y-73731428D01*
X56054285Y-73636190D01*
X56006666Y-73588571D01*
X55911428Y-73540952D01*
X139825716Y-26462379D02*
X139254287Y-26462379D01*
X139540002Y-26462379D02*
X139540002Y-25462379D01*
X139444763Y-25605237D01*
X139349525Y-25700475D01*
X139254287Y-25748094D01*
X74929523Y-41632380D02*
X74358095Y-41632380D01*
X74643809Y-41632380D02*
X74643809Y-40632380D01*
X74548571Y-40775238D01*
X74453333Y-40870476D01*
X74358095Y-40918095D01*
X75786666Y-40632380D02*
X75596190Y-40632380D01*
X75500952Y-40680000D01*
X75453333Y-40727619D01*
X75358095Y-40870476D01*
X75310476Y-41060952D01*
X75310476Y-41441904D01*
X75358095Y-41537142D01*
X75405714Y-41584761D01*
X75500952Y-41632380D01*
X75691428Y-41632380D01*
X75786666Y-41584761D01*
X75834285Y-41537142D01*
X75881904Y-41441904D01*
X75881904Y-41203809D01*
X75834285Y-41108571D01*
X75786666Y-41060952D01*
X75691428Y-41013333D01*
X75500952Y-41013333D01*
X75405714Y-41060952D01*
X75358095Y-41108571D01*
X75310476Y-41203809D01*
X67309523Y-36552380D02*
X66738095Y-36552380D01*
X67023809Y-36552380D02*
X67023809Y-35552380D01*
X66928571Y-35695238D01*
X66833333Y-35790476D01*
X66738095Y-35838095D01*
X68261904Y-36552380D02*
X67690476Y-36552380D01*
X67976190Y-36552380D02*
X67976190Y-35552380D01*
X67880952Y-35695238D01*
X67785714Y-35790476D01*
X67690476Y-35838095D01*
X74834285Y-22947619D02*
X74881904Y-22900000D01*
X74977142Y-22852380D01*
X75215238Y-22852380D01*
X75310476Y-22900000D01*
X75358095Y-22947619D01*
X75405714Y-23042857D01*
X75405714Y-23138095D01*
X75358095Y-23280952D01*
X74786666Y-23852380D01*
X75405714Y-23852380D01*
X27749523Y-63952380D02*
X27940000Y-63952380D01*
X28035238Y-63904761D01*
X28082857Y-63857142D01*
X28178095Y-63714285D01*
X28225714Y-63523809D01*
X28225714Y-63142857D01*
X28178095Y-63047619D01*
X28130476Y-63000000D01*
X28035238Y-62952380D01*
X27844761Y-62952380D01*
X27749523Y-63000000D01*
X27701904Y-63047619D01*
X27654285Y-63142857D01*
X27654285Y-63380952D01*
X27701904Y-63476190D01*
X27749523Y-63523809D01*
X27844761Y-63571428D01*
X28035238Y-63571428D01*
X28130476Y-63523809D01*
X28178095Y-63476190D01*
X28225714Y-63380952D01*
X106726666Y-55332380D02*
X107345714Y-55332380D01*
X107012380Y-55713333D01*
X107155238Y-55713333D01*
X107250476Y-55760952D01*
X107298095Y-55808571D01*
X107345714Y-55903809D01*
X107345714Y-56141904D01*
X107298095Y-56237142D01*
X107250476Y-56284761D01*
X107155238Y-56332380D01*
X106869523Y-56332380D01*
X106774285Y-56284761D01*
X106726666Y-56237142D01*
X114489523Y-66492380D02*
X113918095Y-66492380D01*
X114203809Y-66492380D02*
X114203809Y-65492380D01*
X114108571Y-65635238D01*
X114013333Y-65730476D01*
X113918095Y-65778095D01*
X114870476Y-65587619D02*
X114918095Y-65540000D01*
X115013333Y-65492380D01*
X115251428Y-65492380D01*
X115346666Y-65540000D01*
X115394285Y-65587619D01*
X115441904Y-65682857D01*
X115441904Y-65778095D01*
X115394285Y-65920952D01*
X114822857Y-66492380D01*
X115441904Y-66492380D01*
X47529523Y-71572380D02*
X46958095Y-71572380D01*
X47243809Y-71572380D02*
X47243809Y-70572380D01*
X47148571Y-70715238D01*
X47053333Y-70810476D01*
X46958095Y-70858095D01*
X48434285Y-70572380D02*
X47958095Y-70572380D01*
X47910476Y-71048571D01*
X47958095Y-71000952D01*
X48053333Y-70953333D01*
X48291428Y-70953333D01*
X48386666Y-71000952D01*
X48434285Y-71048571D01*
X48481904Y-71143809D01*
X48481904Y-71381904D01*
X48434285Y-71477142D01*
X48386666Y-71524761D01*
X48291428Y-71572380D01*
X48053333Y-71572380D01*
X47958095Y-71524761D01*
X47910476Y-71477142D01*
X54578095Y-45807619D02*
X54625714Y-45760000D01*
X54720952Y-45712380D01*
X54959047Y-45712380D01*
X55054285Y-45760000D01*
X55101904Y-45807619D01*
X55149523Y-45902857D01*
X55149523Y-45998095D01*
X55101904Y-46140952D01*
X54530476Y-46712380D01*
X55149523Y-46712380D01*
X55768571Y-45712380D02*
X55863809Y-45712380D01*
X55959047Y-45760000D01*
X56006666Y-45807619D01*
X56054285Y-45902857D01*
X56101904Y-46093333D01*
X56101904Y-46331428D01*
X56054285Y-46521904D01*
X56006666Y-46617142D01*
X55959047Y-46664761D01*
X55863809Y-46712380D01*
X55768571Y-46712380D01*
X55673333Y-46664761D01*
X55625714Y-46617142D01*
X55578095Y-46521904D01*
X55530476Y-46331428D01*
X55530476Y-46093333D01*
X55578095Y-45902857D01*
X55625714Y-45807619D01*
X55673333Y-45760000D01*
X55768571Y-45712380D01*
X114489523Y-69032380D02*
X113918095Y-69032380D01*
X114203809Y-69032380D02*
X114203809Y-68032380D01*
X114108571Y-68175238D01*
X114013333Y-68270476D01*
X113918095Y-68318095D01*
X115346666Y-68365714D02*
X115346666Y-69032380D01*
X115108571Y-67984761D02*
X114870476Y-68699047D01*
X115489523Y-68699047D01*
X47529523Y-69032380D02*
X46958095Y-69032380D01*
X47243809Y-69032380D02*
X47243809Y-68032380D01*
X47148571Y-68175238D01*
X47053333Y-68270476D01*
X46958095Y-68318095D01*
X47862857Y-68032380D02*
X48481904Y-68032380D01*
X48148571Y-68413333D01*
X48291428Y-68413333D01*
X48386666Y-68460952D01*
X48434285Y-68508571D01*
X48481904Y-68603809D01*
X48481904Y-68841904D01*
X48434285Y-68937142D01*
X48386666Y-68984761D01*
X48291428Y-69032380D01*
X48005714Y-69032380D01*
X47910476Y-68984761D01*
X47862857Y-68937142D01*
X47529523Y-34012380D02*
X47720000Y-34012380D01*
X47815238Y-33964761D01*
X47862857Y-33917142D01*
X47958095Y-33774285D01*
X48005714Y-33583809D01*
X48005714Y-33202857D01*
X47958095Y-33107619D01*
X47910476Y-33060000D01*
X47815238Y-33012380D01*
X47624761Y-33012380D01*
X47529523Y-33060000D01*
X47481904Y-33107619D01*
X47434285Y-33202857D01*
X47434285Y-33440952D01*
X47481904Y-33536190D01*
X47529523Y-33583809D01*
X47624761Y-33631428D01*
X47815238Y-33631428D01*
X47910476Y-33583809D01*
X47958095Y-33536190D01*
X48005714Y-33440952D01*
X113918095Y-45807619D02*
X113965714Y-45760000D01*
X114060952Y-45712380D01*
X114299047Y-45712380D01*
X114394285Y-45760000D01*
X114441904Y-45807619D01*
X114489523Y-45902857D01*
X114489523Y-45998095D01*
X114441904Y-46140952D01*
X113870476Y-46712380D01*
X114489523Y-46712380D01*
X115108571Y-45712380D02*
X115203809Y-45712380D01*
X115299047Y-45760000D01*
X115346666Y-45807619D01*
X115394285Y-45902857D01*
X115441904Y-46093333D01*
X115441904Y-46331428D01*
X115394285Y-46521904D01*
X115346666Y-46617142D01*
X115299047Y-46664761D01*
X115203809Y-46712380D01*
X115108571Y-46712380D01*
X115013333Y-46664761D01*
X114965714Y-46617142D01*
X114918095Y-46521904D01*
X114870476Y-46331428D01*
X114870476Y-46093333D01*
X114918095Y-45902857D01*
X114965714Y-45807619D01*
X115013333Y-45760000D01*
X115108571Y-45712380D01*
X87089523Y-74112380D02*
X86518095Y-74112380D01*
X86803809Y-74112380D02*
X86803809Y-73112380D01*
X86708571Y-73255238D01*
X86613333Y-73350476D01*
X86518095Y-73398095D01*
X87422857Y-73112380D02*
X88089523Y-73112380D01*
X87660952Y-74112380D01*
X35464761Y-30900952D02*
X35369523Y-30853333D01*
X35321904Y-30805714D01*
X35274285Y-30710476D01*
X35274285Y-30662857D01*
X35321904Y-30567619D01*
X35369523Y-30520000D01*
X35464761Y-30472380D01*
X35655238Y-30472380D01*
X35750476Y-30520000D01*
X35798095Y-30567619D01*
X35845714Y-30662857D01*
X35845714Y-30710476D01*
X35798095Y-30805714D01*
X35750476Y-30853333D01*
X35655238Y-30900952D01*
X35464761Y-30900952D01*
X35369523Y-30948571D01*
X35321904Y-30996190D01*
X35274285Y-31091428D01*
X35274285Y-31281904D01*
X35321904Y-31377142D01*
X35369523Y-31424761D01*
X35464761Y-31472380D01*
X35655238Y-31472380D01*
X35750476Y-31424761D01*
X35798095Y-31377142D01*
X35845714Y-31281904D01*
X35845714Y-31091428D01*
X35798095Y-30996190D01*
X35750476Y-30948571D01*
X35655238Y-30900952D01*
X48005714Y-53792380D02*
X47434285Y-53792380D01*
X47720000Y-53792380D02*
X47720000Y-52792380D01*
X47624761Y-52935238D01*
X47529523Y-53030476D01*
X47434285Y-53078095D01*
X127030477Y-73375715D02*
X127030477Y-74042381D01*
X126792381Y-72994762D02*
X126554286Y-73709048D01*
X127173334Y-73709048D01*
X87089523Y-36552380D02*
X86518095Y-36552380D01*
X86803809Y-36552380D02*
X86803809Y-35552380D01*
X86708571Y-35695238D01*
X86613333Y-35790476D01*
X86518095Y-35838095D01*
X88041904Y-36552380D02*
X87470476Y-36552380D01*
X87756190Y-36552380D02*
X87756190Y-35552380D01*
X87660952Y-35695238D01*
X87565714Y-35790476D01*
X87470476Y-35838095D01*
X94614285Y-52887619D02*
X94661904Y-52840000D01*
X94757142Y-52792380D01*
X94995238Y-52792380D01*
X95090476Y-52840000D01*
X95138095Y-52887619D01*
X95185714Y-52982857D01*
X95185714Y-53078095D01*
X95138095Y-53220952D01*
X94566666Y-53792380D01*
X95185714Y-53792380D01*
X55530476Y-55665714D02*
X55530476Y-56332380D01*
X55292380Y-55284761D02*
X55054285Y-55999047D01*
X55673333Y-55999047D01*
X87089523Y-44172380D02*
X86518095Y-44172380D01*
X86803809Y-44172380D02*
X86803809Y-43172380D01*
X86708571Y-43315238D01*
X86613333Y-43410476D01*
X86518095Y-43458095D01*
X87422857Y-43172380D02*
X88089523Y-43172380D01*
X87660952Y-44172380D01*
X55244761Y-30900952D02*
X55149523Y-30853333D01*
X55101904Y-30805714D01*
X55054285Y-30710476D01*
X55054285Y-30662857D01*
X55101904Y-30567619D01*
X55149523Y-30520000D01*
X55244761Y-30472380D01*
X55435238Y-30472380D01*
X55530476Y-30520000D01*
X55578095Y-30567619D01*
X55625714Y-30662857D01*
X55625714Y-30710476D01*
X55578095Y-30805714D01*
X55530476Y-30853333D01*
X55435238Y-30900952D01*
X55244761Y-30900952D01*
X55149523Y-30948571D01*
X55101904Y-30996190D01*
X55054285Y-31091428D01*
X55054285Y-31281904D01*
X55101904Y-31377142D01*
X55149523Y-31424761D01*
X55244761Y-31472380D01*
X55435238Y-31472380D01*
X55530476Y-31424761D01*
X55578095Y-31377142D01*
X55625714Y-31281904D01*
X55625714Y-31091428D01*
X55578095Y-30996190D01*
X55530476Y-30948571D01*
X55435238Y-30900952D01*
X47386666Y-25392380D02*
X48005714Y-25392380D01*
X47672380Y-25773333D01*
X47815238Y-25773333D01*
X47910476Y-25820952D01*
X47958095Y-25868571D01*
X48005714Y-25963809D01*
X48005714Y-26201904D01*
X47958095Y-26297142D01*
X47910476Y-26344761D01*
X47815238Y-26392380D01*
X47529523Y-26392380D01*
X47434285Y-26344761D01*
X47386666Y-26297142D01*
X55149523Y-41632380D02*
X54578095Y-41632380D01*
X54863809Y-41632380D02*
X54863809Y-40632380D01*
X54768571Y-40775238D01*
X54673333Y-40870476D01*
X54578095Y-40918095D01*
X56006666Y-40632380D02*
X55816190Y-40632380D01*
X55720952Y-40680000D01*
X55673333Y-40727619D01*
X55578095Y-40870476D01*
X55530476Y-41060952D01*
X55530476Y-41441904D01*
X55578095Y-41537142D01*
X55625714Y-41584761D01*
X55720952Y-41632380D01*
X55911428Y-41632380D01*
X56006666Y-41584761D01*
X56054285Y-41537142D01*
X56101904Y-41441904D01*
X56101904Y-41203809D01*
X56054285Y-41108571D01*
X56006666Y-41060952D01*
X55911428Y-41013333D01*
X55720952Y-41013333D01*
X55625714Y-41060952D01*
X55578095Y-41108571D01*
X55530476Y-41203809D01*
X87518095Y-57872380D02*
X87041904Y-57872380D01*
X86994285Y-58348571D01*
X87041904Y-58300952D01*
X87137142Y-58253333D01*
X87375238Y-58253333D01*
X87470476Y-58300952D01*
X87518095Y-58348571D01*
X87565714Y-58443809D01*
X87565714Y-58681904D01*
X87518095Y-58777142D01*
X87470476Y-58824761D01*
X87375238Y-58872380D01*
X87137142Y-58872380D01*
X87041904Y-58824761D01*
X86994285Y-58777142D01*
X126506668Y-28002379D02*
X127173335Y-28002379D01*
X126744763Y-29002379D01*
X87089523Y-76652380D02*
X86518095Y-76652380D01*
X86803809Y-76652380D02*
X86803809Y-75652380D01*
X86708571Y-75795238D01*
X86613333Y-75890476D01*
X86518095Y-75938095D01*
X87565714Y-76652380D02*
X87756190Y-76652380D01*
X87851428Y-76604761D01*
X87899047Y-76557142D01*
X87994285Y-76414285D01*
X88041904Y-76223809D01*
X88041904Y-75842857D01*
X87994285Y-75747619D01*
X87946666Y-75700000D01*
X87851428Y-75652380D01*
X87660952Y-75652380D01*
X87565714Y-75700000D01*
X87518095Y-75747619D01*
X87470476Y-75842857D01*
X87470476Y-76080952D01*
X87518095Y-76176190D01*
X87565714Y-76223809D01*
X87660952Y-76271428D01*
X87851428Y-76271428D01*
X87946666Y-76223809D01*
X87994285Y-76176190D01*
X88041904Y-76080952D01*
X67166666Y-30472380D02*
X67833333Y-30472380D01*
X67404761Y-31472380D01*
X114489523Y-74112380D02*
X113918095Y-74112380D01*
X114203809Y-74112380D02*
X114203809Y-73112380D01*
X114108571Y-73255238D01*
X114013333Y-73350476D01*
X113918095Y-73398095D01*
X115060952Y-73540952D02*
X114965714Y-73493333D01*
X114918095Y-73445714D01*
X114870476Y-73350476D01*
X114870476Y-73302857D01*
X114918095Y-73207619D01*
X114965714Y-73160000D01*
X115060952Y-73112380D01*
X115251428Y-73112380D01*
X115346666Y-73160000D01*
X115394285Y-73207619D01*
X115441904Y-73302857D01*
X115441904Y-73350476D01*
X115394285Y-73445714D01*
X115346666Y-73493333D01*
X115251428Y-73540952D01*
X115060952Y-73540952D01*
X114965714Y-73588571D01*
X114918095Y-73636190D01*
X114870476Y-73731428D01*
X114870476Y-73921904D01*
X114918095Y-74017142D01*
X114965714Y-74064761D01*
X115060952Y-74112380D01*
X115251428Y-74112380D01*
X115346666Y-74064761D01*
X115394285Y-74017142D01*
X115441904Y-73921904D01*
X115441904Y-73731428D01*
X115394285Y-73636190D01*
X115346666Y-73588571D01*
X115251428Y-73540952D01*
X87089523Y-34012380D02*
X87280000Y-34012380D01*
X87375238Y-33964761D01*
X87422857Y-33917142D01*
X87518095Y-33774285D01*
X87565714Y-33583809D01*
X87565714Y-33202857D01*
X87518095Y-33107619D01*
X87470476Y-33060000D01*
X87375238Y-33012380D01*
X87184761Y-33012380D01*
X87089523Y-33060000D01*
X87041904Y-33107619D01*
X86994285Y-33202857D01*
X86994285Y-33440952D01*
X87041904Y-33536190D01*
X87089523Y-33583809D01*
X87184761Y-33631428D01*
X87375238Y-33631428D01*
X87470476Y-33583809D01*
X87518095Y-33536190D01*
X87565714Y-33440952D01*
X138754287Y-44242379D02*
X138754287Y-43242379D01*
X139325716Y-44242379D01*
X139325716Y-43242379D01*
X140373335Y-44147141D02*
X140325716Y-44194760D01*
X140182859Y-44242379D01*
X140087621Y-44242379D01*
X139944763Y-44194760D01*
X139849525Y-44099522D01*
X139801906Y-44004284D01*
X139754287Y-43813808D01*
X139754287Y-43670951D01*
X139801906Y-43480475D01*
X139849525Y-43385237D01*
X139944763Y-43289999D01*
X140087621Y-43242379D01*
X140182859Y-43242379D01*
X140325716Y-43289999D01*
X140373335Y-43337618D01*
X67309523Y-69032380D02*
X66738095Y-69032380D01*
X67023809Y-69032380D02*
X67023809Y-68032380D01*
X66928571Y-68175238D01*
X66833333Y-68270476D01*
X66738095Y-68318095D01*
X67642857Y-68032380D02*
X68261904Y-68032380D01*
X67928571Y-68413333D01*
X68071428Y-68413333D01*
X68166666Y-68460952D01*
X68214285Y-68508571D01*
X68261904Y-68603809D01*
X68261904Y-68841904D01*
X68214285Y-68937142D01*
X68166666Y-68984761D01*
X68071428Y-69032380D01*
X67785714Y-69032380D01*
X67690476Y-68984761D01*
X67642857Y-68937142D01*
X127030477Y-63215715D02*
X127030477Y-63882381D01*
X126792381Y-62834762D02*
X126554286Y-63549048D01*
X127173334Y-63549048D01*
X74929523Y-71572380D02*
X74358095Y-71572380D01*
X74643809Y-71572380D02*
X74643809Y-70572380D01*
X74548571Y-70715238D01*
X74453333Y-70810476D01*
X74358095Y-70858095D01*
X75786666Y-70572380D02*
X75596190Y-70572380D01*
X75500952Y-70620000D01*
X75453333Y-70667619D01*
X75358095Y-70810476D01*
X75310476Y-71000952D01*
X75310476Y-71381904D01*
X75358095Y-71477142D01*
X75405714Y-71524761D01*
X75500952Y-71572380D01*
X75691428Y-71572380D01*
X75786666Y-71524761D01*
X75834285Y-71477142D01*
X75881904Y-71381904D01*
X75881904Y-71143809D01*
X75834285Y-71048571D01*
X75786666Y-71000952D01*
X75691428Y-70953333D01*
X75500952Y-70953333D01*
X75405714Y-71000952D01*
X75358095Y-71048571D01*
X75310476Y-71143809D01*
X27749523Y-71572380D02*
X27178095Y-71572380D01*
X27463809Y-71572380D02*
X27463809Y-70572380D01*
X27368571Y-70715238D01*
X27273333Y-70810476D01*
X27178095Y-70858095D01*
X28654285Y-70572380D02*
X28178095Y-70572380D01*
X28130476Y-71048571D01*
X28178095Y-71000952D01*
X28273333Y-70953333D01*
X28511428Y-70953333D01*
X28606666Y-71000952D01*
X28654285Y-71048571D01*
X28701904Y-71143809D01*
X28701904Y-71381904D01*
X28654285Y-71477142D01*
X28606666Y-71524761D01*
X28511428Y-71572380D01*
X28273333Y-71572380D01*
X28178095Y-71524761D01*
X28130476Y-71477142D01*
X55530476Y-25725714D02*
X55530476Y-26392380D01*
X55292380Y-25344761D02*
X55054285Y-26059047D01*
X55673333Y-26059047D01*
X35750476Y-55665714D02*
X35750476Y-56332380D01*
X35512380Y-55284761D02*
X35274285Y-55999047D01*
X35893333Y-55999047D01*
%TO.C,USB1*%
X131321906Y-37457379D02*
X131321906Y-38266903D01*
X131369525Y-38362141D01*
X131417144Y-38409760D01*
X131512382Y-38457379D01*
X131702859Y-38457379D01*
X131798097Y-38409760D01*
X131845716Y-38362141D01*
X131893335Y-38266903D01*
X131893335Y-37457379D01*
X132321906Y-38409760D02*
X132464763Y-38457379D01*
X132702859Y-38457379D01*
X132798097Y-38409760D01*
X132845716Y-38362141D01*
X132893335Y-38266903D01*
X132893335Y-38171665D01*
X132845716Y-38076427D01*
X132798097Y-38028808D01*
X132702859Y-37981189D01*
X132512382Y-37933570D01*
X132417144Y-37885951D01*
X132369525Y-37838332D01*
X132321906Y-37743094D01*
X132321906Y-37647856D01*
X132369525Y-37552618D01*
X132417144Y-37504999D01*
X132512382Y-37457379D01*
X132750478Y-37457379D01*
X132893335Y-37504999D01*
X133655240Y-37933570D02*
X133798097Y-37981189D01*
X133845716Y-38028808D01*
X133893335Y-38124046D01*
X133893335Y-38266903D01*
X133845716Y-38362141D01*
X133798097Y-38409760D01*
X133702859Y-38457379D01*
X133321906Y-38457379D01*
X133321906Y-37457379D01*
X133655240Y-37457379D01*
X133750478Y-37504999D01*
X133798097Y-37552618D01*
X133845716Y-37647856D01*
X133845716Y-37743094D01*
X133798097Y-37838332D01*
X133750478Y-37885951D01*
X133655240Y-37933570D01*
X133321906Y-37933570D01*
X134845716Y-38457379D02*
X134274287Y-38457379D01*
X134560002Y-38457379D02*
X134560002Y-37457379D01*
X134464763Y-37600237D01*
X134369525Y-37695475D01*
X134274287Y-37743094D01*
X123917144Y-26462379D02*
X123917144Y-25462379D01*
X123917144Y-25938570D02*
X124488573Y-25938570D01*
X124488573Y-26462379D02*
X124488573Y-25462379D01*
X125536192Y-26462379D02*
X125202859Y-25986189D01*
X124964763Y-26462379D02*
X124964763Y-25462379D01*
X125345716Y-25462379D01*
X125440954Y-25509999D01*
X125488573Y-25557618D01*
X125536192Y-25652856D01*
X125536192Y-25795713D01*
X125488573Y-25890951D01*
X125440954Y-25938570D01*
X125345716Y-25986189D01*
X124964763Y-25986189D01*
X126155240Y-25462379D02*
X126345716Y-25462379D01*
X126440954Y-25509999D01*
X126536192Y-25605237D01*
X126583811Y-25795713D01*
X126583811Y-26129046D01*
X126536192Y-26319522D01*
X126440954Y-26414760D01*
X126345716Y-26462379D01*
X126155240Y-26462379D01*
X126060002Y-26414760D01*
X125964763Y-26319522D01*
X125917144Y-26129046D01*
X125917144Y-25795713D01*
X125964763Y-25605237D01*
X126060002Y-25509999D01*
X126155240Y-25462379D01*
X127012382Y-26081427D02*
X127774287Y-26081427D01*
X128107621Y-25462379D02*
X128679049Y-25462379D01*
X128393335Y-26462379D02*
X128393335Y-25462379D01*
X129202859Y-25986189D02*
X129202859Y-26462379D01*
X128869525Y-25462379D02*
X129202859Y-25986189D01*
X129536192Y-25462379D01*
X129869525Y-26462379D02*
X129869525Y-25462379D01*
X130250478Y-25462379D01*
X130345716Y-25509999D01*
X130393335Y-25557618D01*
X130440954Y-25652856D01*
X130440954Y-25795713D01*
X130393335Y-25890951D01*
X130345716Y-25938570D01*
X130250478Y-25986189D01*
X129869525Y-25986189D01*
X130869525Y-25938570D02*
X131202859Y-25938570D01*
X131345716Y-26462379D02*
X130869525Y-26462379D01*
X130869525Y-25462379D01*
X131345716Y-25462379D01*
X131774287Y-26081427D02*
X132536192Y-26081427D01*
X133583811Y-26367141D02*
X133536192Y-26414760D01*
X133393335Y-26462379D01*
X133298097Y-26462379D01*
X133155240Y-26414760D01*
X133060002Y-26319522D01*
X133012382Y-26224284D01*
X132964763Y-26033808D01*
X132964763Y-25890951D01*
X133012382Y-25700475D01*
X133060002Y-25605237D01*
X133155240Y-25509999D01*
X133298097Y-25462379D01*
X133393335Y-25462379D01*
X133536192Y-25509999D01*
X133583811Y-25557618D01*
X134012382Y-26081427D02*
X134774287Y-26081427D01*
X135155240Y-25462379D02*
X135774287Y-25462379D01*
X135440954Y-25843332D01*
X135583811Y-25843332D01*
X135679049Y-25890951D01*
X135726668Y-25938570D01*
X135774287Y-26033808D01*
X135774287Y-26271903D01*
X135726668Y-26367141D01*
X135679049Y-26414760D01*
X135583811Y-26462379D01*
X135298097Y-26462379D01*
X135202859Y-26414760D01*
X135155240Y-26367141D01*
X136726668Y-26462379D02*
X136155240Y-26462379D01*
X136440954Y-26462379D02*
X136440954Y-25462379D01*
X136345716Y-25605237D01*
X136250478Y-25700475D01*
X136155240Y-25748094D01*
X137155240Y-26081427D02*
X137917144Y-26081427D01*
X138393335Y-26462379D02*
X138393335Y-25462379D01*
X138726668Y-26176665D01*
X139060002Y-25462379D01*
X139060002Y-26462379D01*
X139536192Y-26081427D02*
X140298097Y-26081427D01*
X141298097Y-26462379D02*
X140726668Y-26462379D01*
X141012382Y-26462379D02*
X141012382Y-25462379D01*
X140917144Y-25605237D01*
X140821906Y-25700475D01*
X140726668Y-25748094D01*
X141679049Y-25557618D02*
X141726668Y-25509999D01*
X141821906Y-25462379D01*
X142060002Y-25462379D01*
X142155240Y-25509999D01*
X142202859Y-25557618D01*
X142250478Y-25652856D01*
X142250478Y-25748094D01*
X142202859Y-25890951D01*
X141631430Y-26462379D01*
X142250478Y-26462379D01*
%TO.C,RGB3*%
X128732381Y-68596667D02*
X128256191Y-68930001D01*
X128732381Y-69168096D02*
X127732381Y-69168096D01*
X127732381Y-68787143D01*
X127780001Y-68691905D01*
X127827620Y-68644286D01*
X127922858Y-68596667D01*
X128065715Y-68596667D01*
X128160953Y-68644286D01*
X128208572Y-68691905D01*
X128256191Y-68787143D01*
X128256191Y-69168096D01*
X127780001Y-67644286D02*
X127732381Y-67739524D01*
X127732381Y-67882381D01*
X127780001Y-68025239D01*
X127875239Y-68120477D01*
X127970477Y-68168096D01*
X128160953Y-68215715D01*
X128303810Y-68215715D01*
X128494286Y-68168096D01*
X128589524Y-68120477D01*
X128684762Y-68025239D01*
X128732381Y-67882381D01*
X128732381Y-67787143D01*
X128684762Y-67644286D01*
X128637143Y-67596667D01*
X128303810Y-67596667D01*
X128303810Y-67787143D01*
X128208572Y-66834762D02*
X128256191Y-66691905D01*
X128303810Y-66644286D01*
X128399048Y-66596667D01*
X128541905Y-66596667D01*
X128637143Y-66644286D01*
X128684762Y-66691905D01*
X128732381Y-66787143D01*
X128732381Y-67168096D01*
X127732381Y-67168096D01*
X127732381Y-66834762D01*
X127780001Y-66739524D01*
X127827620Y-66691905D01*
X127922858Y-66644286D01*
X128018096Y-66644286D01*
X128113334Y-66691905D01*
X128160953Y-66739524D01*
X128208572Y-66834762D01*
X128208572Y-67168096D01*
X127732381Y-66263334D02*
X127732381Y-65644286D01*
X128113334Y-65977620D01*
X128113334Y-65834762D01*
X128160953Y-65739524D01*
X128208572Y-65691905D01*
X128303810Y-65644286D01*
X128541905Y-65644286D01*
X128637143Y-65691905D01*
X128684762Y-65739524D01*
X128732381Y-65834762D01*
X128732381Y-66120477D01*
X128684762Y-66215715D01*
X128637143Y-66263334D01*
%TO.C,RGB4*%
X128732381Y-73996667D02*
X128256191Y-74330001D01*
X128732381Y-74568096D02*
X127732381Y-74568096D01*
X127732381Y-74187143D01*
X127780001Y-74091905D01*
X127827620Y-74044286D01*
X127922858Y-73996667D01*
X128065715Y-73996667D01*
X128160953Y-74044286D01*
X128208572Y-74091905D01*
X128256191Y-74187143D01*
X128256191Y-74568096D01*
X127780001Y-73044286D02*
X127732381Y-73139524D01*
X127732381Y-73282381D01*
X127780001Y-73425239D01*
X127875239Y-73520477D01*
X127970477Y-73568096D01*
X128160953Y-73615715D01*
X128303810Y-73615715D01*
X128494286Y-73568096D01*
X128589524Y-73520477D01*
X128684762Y-73425239D01*
X128732381Y-73282381D01*
X128732381Y-73187143D01*
X128684762Y-73044286D01*
X128637143Y-72996667D01*
X128303810Y-72996667D01*
X128303810Y-73187143D01*
X128208572Y-72234762D02*
X128256191Y-72091905D01*
X128303810Y-72044286D01*
X128399048Y-71996667D01*
X128541905Y-71996667D01*
X128637143Y-72044286D01*
X128684762Y-72091905D01*
X128732381Y-72187143D01*
X128732381Y-72568096D01*
X127732381Y-72568096D01*
X127732381Y-72234762D01*
X127780001Y-72139524D01*
X127827620Y-72091905D01*
X127922858Y-72044286D01*
X128018096Y-72044286D01*
X128113334Y-72091905D01*
X128160953Y-72139524D01*
X128208572Y-72234762D01*
X128208572Y-72568096D01*
X128065715Y-71139524D02*
X128732381Y-71139524D01*
X127684762Y-71377620D02*
X128399048Y-71615715D01*
X128399048Y-70996667D01*
%TO.C,RGB1*%
X128732381Y-57796667D02*
X128256191Y-58130001D01*
X128732381Y-58368096D02*
X127732381Y-58368096D01*
X127732381Y-57987143D01*
X127780001Y-57891905D01*
X127827620Y-57844286D01*
X127922858Y-57796667D01*
X128065715Y-57796667D01*
X128160953Y-57844286D01*
X128208572Y-57891905D01*
X128256191Y-57987143D01*
X128256191Y-58368096D01*
X127780001Y-56844286D02*
X127732381Y-56939524D01*
X127732381Y-57082381D01*
X127780001Y-57225239D01*
X127875239Y-57320477D01*
X127970477Y-57368096D01*
X128160953Y-57415715D01*
X128303810Y-57415715D01*
X128494286Y-57368096D01*
X128589524Y-57320477D01*
X128684762Y-57225239D01*
X128732381Y-57082381D01*
X128732381Y-56987143D01*
X128684762Y-56844286D01*
X128637143Y-56796667D01*
X128303810Y-56796667D01*
X128303810Y-56987143D01*
X128208572Y-56034762D02*
X128256191Y-55891905D01*
X128303810Y-55844286D01*
X128399048Y-55796667D01*
X128541905Y-55796667D01*
X128637143Y-55844286D01*
X128684762Y-55891905D01*
X128732381Y-55987143D01*
X128732381Y-56368096D01*
X127732381Y-56368096D01*
X127732381Y-56034762D01*
X127780001Y-55939524D01*
X127827620Y-55891905D01*
X127922858Y-55844286D01*
X128018096Y-55844286D01*
X128113334Y-55891905D01*
X128160953Y-55939524D01*
X128208572Y-56034762D01*
X128208572Y-56368096D01*
X128732381Y-54844286D02*
X128732381Y-55415715D01*
X128732381Y-55130001D02*
X127732381Y-55130001D01*
X127875239Y-55225239D01*
X127970477Y-55320477D01*
X128018096Y-55415715D01*
%TO.C,RGB2*%
X128732381Y-63196667D02*
X128256191Y-63530001D01*
X128732381Y-63768096D02*
X127732381Y-63768096D01*
X127732381Y-63387143D01*
X127780001Y-63291905D01*
X127827620Y-63244286D01*
X127922858Y-63196667D01*
X128065715Y-63196667D01*
X128160953Y-63244286D01*
X128208572Y-63291905D01*
X128256191Y-63387143D01*
X128256191Y-63768096D01*
X127780001Y-62244286D02*
X127732381Y-62339524D01*
X127732381Y-62482381D01*
X127780001Y-62625239D01*
X127875239Y-62720477D01*
X127970477Y-62768096D01*
X128160953Y-62815715D01*
X128303810Y-62815715D01*
X128494286Y-62768096D01*
X128589524Y-62720477D01*
X128684762Y-62625239D01*
X128732381Y-62482381D01*
X128732381Y-62387143D01*
X128684762Y-62244286D01*
X128637143Y-62196667D01*
X128303810Y-62196667D01*
X128303810Y-62387143D01*
X128208572Y-61434762D02*
X128256191Y-61291905D01*
X128303810Y-61244286D01*
X128399048Y-61196667D01*
X128541905Y-61196667D01*
X128637143Y-61244286D01*
X128684762Y-61291905D01*
X128732381Y-61387143D01*
X128732381Y-61768096D01*
X127732381Y-61768096D01*
X127732381Y-61434762D01*
X127780001Y-61339524D01*
X127827620Y-61291905D01*
X127922858Y-61244286D01*
X128018096Y-61244286D01*
X128113334Y-61291905D01*
X128160953Y-61339524D01*
X128208572Y-61434762D01*
X128208572Y-61768096D01*
X127827620Y-60815715D02*
X127780001Y-60768096D01*
X127732381Y-60672858D01*
X127732381Y-60434762D01*
X127780001Y-60339524D01*
X127827620Y-60291905D01*
X127922858Y-60244286D01*
X128018096Y-60244286D01*
X128160953Y-60291905D01*
X128732381Y-60863334D01*
X128732381Y-60244286D01*
D11*
%TO.C,J40*%
X115890000Y-47590000D02*
X118550000Y-47590000D01*
X115890000Y-24670000D02*
X118550000Y-24670000D01*
X115890000Y-23400000D02*
X115890000Y-22070000D01*
X118550000Y-24670000D02*
X118550000Y-47590000D01*
X115890000Y-22070000D02*
X117220000Y-22070000D01*
X115890000Y-24670000D02*
X115890000Y-47590000D01*
%TO.C,G47*%
X110394936Y-39550000D02*
X111599064Y-39550000D01*
X110394936Y-37730000D02*
X111599064Y-37730000D01*
%TO.C,G27*%
X70834936Y-37730000D02*
X72039064Y-37730000D01*
X70834936Y-39550000D02*
X72039064Y-39550000D01*
%TO.C,G76*%
X70834936Y-65130000D02*
X72039064Y-65130000D01*
X70834936Y-66950000D02*
X72039064Y-66950000D01*
%TO.C,G78*%
X70834936Y-70210000D02*
X72039064Y-70210000D01*
X70834936Y-72030000D02*
X72039064Y-72030000D01*
%TO.C,G30*%
X70834936Y-47170000D02*
X72039064Y-47170000D01*
X70834936Y-45350000D02*
X72039064Y-45350000D01*
%TO.C,G87*%
X90614936Y-69490000D02*
X91819064Y-69490000D01*
X90614936Y-67670000D02*
X91819064Y-67670000D01*
%TO.C,G84*%
X90614936Y-61870000D02*
X91819064Y-61870000D01*
X90614936Y-60050000D02*
X91819064Y-60050000D01*
%TO.C,G14*%
X51054936Y-31930000D02*
X52259064Y-31930000D01*
X51054936Y-30110000D02*
X52259064Y-30110000D01*
%TO.C,G13*%
X51054936Y-29390000D02*
X52259064Y-29390000D01*
X51054936Y-27570000D02*
X52259064Y-27570000D01*
%TO.C,J4*%
X36770000Y-24670000D02*
X36770000Y-47590000D01*
X36770000Y-23400000D02*
X36770000Y-22070000D01*
X39430000Y-24670000D02*
X39430000Y-47590000D01*
X36770000Y-47590000D02*
X39430000Y-47590000D01*
X36770000Y-24670000D02*
X39430000Y-24670000D01*
X36770000Y-22070000D02*
X38100000Y-22070000D01*
D12*
%TO.C,mouse-bite-2mm-slot13*%
X62420000Y-68340000D02*
G75*
G03*
X60420000Y-68340000I-1000000J0D01*
G01*
X60420000Y-61340000D02*
G75*
G03*
X62420000Y-61340000I1000000J0D01*
G01*
D11*
%TO.C,G19*%
X51054936Y-42810000D02*
X52259064Y-42810000D01*
X51054936Y-44630000D02*
X52259064Y-44630000D01*
%TO.C,G4*%
X31274936Y-30110000D02*
X32479064Y-30110000D01*
X31274936Y-31930000D02*
X32479064Y-31930000D01*
%TO.C,G10*%
X31274936Y-45350000D02*
X32479064Y-45350000D01*
X31274936Y-47170000D02*
X32479064Y-47170000D01*
%TO.C,G3*%
X31274936Y-29390000D02*
X32479064Y-29390000D01*
X31274936Y-27570000D02*
X32479064Y-27570000D01*
D12*
%TO.C,mouse-bite-2mm-slot15*%
X80200000Y-61340000D02*
G75*
G03*
X82200000Y-61340000I1000000J0D01*
G01*
X82200000Y-68340000D02*
G75*
G03*
X80200000Y-68340000I-1000000J0D01*
G01*
D11*
%TO.C,J48*%
X96110000Y-52010000D02*
X97440000Y-52010000D01*
X96110000Y-54610000D02*
X96110000Y-77530000D01*
X96110000Y-77530000D02*
X98770000Y-77530000D01*
X96110000Y-53340000D02*
X96110000Y-52010000D01*
X96110000Y-54610000D02*
X98770000Y-54610000D01*
X98770000Y-54610000D02*
X98770000Y-77530000D01*
%TO.C,G46*%
X110394936Y-37010000D02*
X111599064Y-37010000D01*
X110394936Y-35190000D02*
X111599064Y-35190000D01*
%TO.C,G90*%
X90614936Y-75290000D02*
X91819064Y-75290000D01*
X90614936Y-77110000D02*
X91819064Y-77110000D01*
%TO.C,J2*%
X24070000Y-24670000D02*
X26730000Y-24670000D01*
X24070000Y-23400000D02*
X24070000Y-22070000D01*
X26730000Y-24670000D02*
X26730000Y-47590000D01*
X24070000Y-47590000D02*
X26730000Y-47590000D01*
X24070000Y-22070000D02*
X25400000Y-22070000D01*
X24070000Y-24670000D02*
X24070000Y-47590000D01*
D12*
%TO.C,mouse-bite-2mm-slot10*%
X28360000Y-50800000D02*
G75*
G03*
X28360000Y-48800000I0J1000000D01*
G01*
X35360000Y-48800000D02*
G75*
G03*
X35360000Y-50800000I0J-1000000D01*
G01*
D11*
%TO.C,G1*%
X31274936Y-22490000D02*
X32479064Y-22490000D01*
X31274936Y-24310000D02*
X32479064Y-24310000D01*
%TO.C,G64*%
X51054936Y-60050000D02*
X52259064Y-60050000D01*
X51054936Y-61870000D02*
X52259064Y-61870000D01*
D12*
%TO.C,mouse-bite-2mm-slot*%
X136690001Y-46329999D02*
G75*
G03*
X135690001Y-47329999I-1J-999999D01*
G01*
X130690001Y-47329999D02*
G75*
G03*
X129690001Y-46329999I-999999J1D01*
G01*
D11*
%TO.C,G57*%
X31274936Y-69490000D02*
X32479064Y-69490000D01*
X31274936Y-67670000D02*
X32479064Y-67670000D01*
%TO.C,G34*%
X90614936Y-30110000D02*
X91819064Y-30110000D01*
X90614936Y-31930000D02*
X91819064Y-31930000D01*
%TO.C,G66*%
X51054936Y-65130000D02*
X52259064Y-65130000D01*
X51054936Y-66950000D02*
X52259064Y-66950000D01*
%TO.C,G41*%
X110394936Y-22490000D02*
X111599064Y-22490000D01*
X110394936Y-24310000D02*
X111599064Y-24310000D01*
%TO.C,G8*%
X31274936Y-40270000D02*
X32479064Y-40270000D01*
X31274936Y-42090000D02*
X32479064Y-42090000D01*
D12*
%TO.C,mouse-bite-2mm-slot16*%
X94700000Y-48800000D02*
G75*
G03*
X94700000Y-50800000I0J-1000000D01*
G01*
X87700000Y-50800000D02*
G75*
G03*
X87700000Y-48800000I0J1000000D01*
G01*
%TO.C,mouse-bite-2mm-slot*%
X129690001Y-53270001D02*
G75*
G03*
X130690001Y-52270001I1J999999D01*
G01*
X135690001Y-52270001D02*
G75*
G03*
X136690001Y-53270001I999999J-1D01*
G01*
D11*
%TO.C,J37*%
X83410000Y-47590000D02*
X86070000Y-47590000D01*
X83410000Y-22070000D02*
X84740000Y-22070000D01*
X83410000Y-23400000D02*
X83410000Y-22070000D01*
X83410000Y-24670000D02*
X86070000Y-24670000D01*
X83410000Y-24670000D02*
X83410000Y-47590000D01*
X86070000Y-24670000D02*
X86070000Y-47590000D01*
D12*
%TO.C,mouse-bite-2mm-slot18*%
X107480000Y-50800000D02*
G75*
G03*
X107480000Y-48800000I0J1000000D01*
G01*
X114480000Y-48800000D02*
G75*
G03*
X114480000Y-50800000I0J-1000000D01*
G01*
D11*
%TO.C,J34*%
X56550000Y-23400000D02*
X56550000Y-22070000D01*
X56550000Y-22070000D02*
X57880000Y-22070000D01*
X56550000Y-47590000D02*
X59210000Y-47590000D01*
X56550000Y-24670000D02*
X59210000Y-24670000D01*
X59210000Y-24670000D02*
X59210000Y-47590000D01*
X56550000Y-24670000D02*
X56550000Y-47590000D01*
%TO.C,G82*%
X90614936Y-56790000D02*
X91819064Y-56790000D01*
X90614936Y-54970000D02*
X91819064Y-54970000D01*
%TO.C,G17*%
X51054936Y-37730000D02*
X52259064Y-37730000D01*
X51054936Y-39550000D02*
X52259064Y-39550000D01*
%TO.C,G65*%
X51054936Y-64410000D02*
X52259064Y-64410000D01*
X51054936Y-62590000D02*
X52259064Y-62590000D01*
%TO.C,G95*%
X110394936Y-64410000D02*
X111599064Y-64410000D01*
X110394936Y-62590000D02*
X111599064Y-62590000D01*
%TO.C,G70*%
X51054936Y-77110000D02*
X52259064Y-77110000D01*
X51054936Y-75290000D02*
X52259064Y-75290000D01*
%TO.C,J44*%
X56550000Y-53340000D02*
X56550000Y-52010000D01*
X59210000Y-54610000D02*
X59210000Y-77530000D01*
X56550000Y-54610000D02*
X56550000Y-77530000D01*
X56550000Y-54610000D02*
X59210000Y-54610000D01*
X56550000Y-77530000D02*
X59210000Y-77530000D01*
X56550000Y-52010000D02*
X57880000Y-52010000D01*
%TO.C,G59*%
X31274936Y-72750000D02*
X32479064Y-72750000D01*
X31274936Y-74570000D02*
X32479064Y-74570000D01*
%TO.C,G85*%
X90614936Y-62590000D02*
X91819064Y-62590000D01*
X90614936Y-64410000D02*
X91819064Y-64410000D01*
%TO.C,G98*%
X110394936Y-72030000D02*
X111599064Y-72030000D01*
X110394936Y-70210000D02*
X111599064Y-70210000D01*
%TO.C,G24*%
X70834936Y-31930000D02*
X72039064Y-31930000D01*
X70834936Y-30110000D02*
X72039064Y-30110000D01*
%TO.C,G2*%
X31274936Y-26850000D02*
X32479064Y-26850000D01*
X31274936Y-25030000D02*
X32479064Y-25030000D01*
%TO.C,G18*%
X51054936Y-42090000D02*
X52259064Y-42090000D01*
X51054936Y-40270000D02*
X52259064Y-40270000D01*
%TO.C,J41*%
X24070000Y-53340000D02*
X24070000Y-52010000D01*
X24070000Y-54610000D02*
X24070000Y-77530000D01*
X26730000Y-54610000D02*
X26730000Y-77530000D01*
X24070000Y-52010000D02*
X25400000Y-52010000D01*
X24070000Y-77530000D02*
X26730000Y-77530000D01*
X24070000Y-54610000D02*
X26730000Y-54610000D01*
%TO.C,G31*%
X90614936Y-22490000D02*
X91819064Y-22490000D01*
X90614936Y-24310000D02*
X91819064Y-24310000D01*
%TO.C,G80*%
X70834936Y-77110000D02*
X72039064Y-77110000D01*
X70834936Y-75290000D02*
X72039064Y-75290000D01*
%TO.C,G67*%
X51054936Y-69490000D02*
X52259064Y-69490000D01*
X51054936Y-67670000D02*
X52259064Y-67670000D01*
%TO.C,G60*%
X31274936Y-75290000D02*
X32479064Y-75290000D01*
X31274936Y-77110000D02*
X32479064Y-77110000D01*
%TO.C,G25*%
X70834936Y-32650000D02*
X72039064Y-32650000D01*
X70834936Y-34470000D02*
X72039064Y-34470000D01*
%TO.C,J39*%
X103190000Y-22070000D02*
X104520000Y-22070000D01*
X103190000Y-24670000D02*
X105850000Y-24670000D01*
X105850000Y-24670000D02*
X105850000Y-47590000D01*
X103190000Y-47590000D02*
X105850000Y-47590000D01*
X103190000Y-23400000D02*
X103190000Y-22070000D01*
X103190000Y-24670000D02*
X103190000Y-47590000D01*
%TO.C,G73*%
X70834936Y-57510000D02*
X72039064Y-57510000D01*
X70834936Y-59330000D02*
X72039064Y-59330000D01*
%TO.C,J38*%
X96110000Y-47590000D02*
X98770000Y-47590000D01*
X96110000Y-22070000D02*
X97440000Y-22070000D01*
X96110000Y-23400000D02*
X96110000Y-22070000D01*
X96110000Y-24670000D02*
X98770000Y-24670000D01*
X96110000Y-24670000D02*
X96110000Y-47590000D01*
X98770000Y-24670000D02*
X98770000Y-47590000D01*
%TO.C,G38*%
X90614936Y-42090000D02*
X91819064Y-42090000D01*
X90614936Y-40270000D02*
X91819064Y-40270000D01*
%TO.C,G53*%
X31274936Y-57510000D02*
X32479064Y-57510000D01*
X31274936Y-59330000D02*
X32479064Y-59330000D01*
%TO.C,J36*%
X76330000Y-24670000D02*
X78990000Y-24670000D01*
X76330000Y-24670000D02*
X76330000Y-47590000D01*
X76330000Y-23400000D02*
X76330000Y-22070000D01*
X76330000Y-22070000D02*
X77660000Y-22070000D01*
X76330000Y-47590000D02*
X78990000Y-47590000D01*
X78990000Y-24670000D02*
X78990000Y-47590000D01*
%TO.C,G23*%
X70834936Y-27570000D02*
X72039064Y-27570000D01*
X70834936Y-29390000D02*
X72039064Y-29390000D01*
%TO.C,J42*%
X36770000Y-52010000D02*
X38100000Y-52010000D01*
X39430000Y-54610000D02*
X39430000Y-77530000D01*
X36770000Y-54610000D02*
X39430000Y-54610000D01*
X36770000Y-53340000D02*
X36770000Y-52010000D01*
X36770000Y-77530000D02*
X39430000Y-77530000D01*
X36770000Y-54610000D02*
X36770000Y-77530000D01*
%TO.C,G26*%
X70834936Y-37010000D02*
X72039064Y-37010000D01*
X70834936Y-35190000D02*
X72039064Y-35190000D01*
%TO.C,G21*%
X70834936Y-22490000D02*
X72039064Y-22490000D01*
X70834936Y-24310000D02*
X72039064Y-24310000D01*
%TO.C,G56*%
X31274936Y-66950000D02*
X32479064Y-66950000D01*
X31274936Y-65130000D02*
X32479064Y-65130000D01*
%TO.C,G7*%
X31274936Y-37730000D02*
X32479064Y-37730000D01*
X31274936Y-39550000D02*
X32479064Y-39550000D01*
%TO.C,J45*%
X63630000Y-54610000D02*
X66290000Y-54610000D01*
X63630000Y-54610000D02*
X63630000Y-77530000D01*
X63630000Y-53340000D02*
X63630000Y-52010000D01*
X63630000Y-77530000D02*
X66290000Y-77530000D01*
X66290000Y-54610000D02*
X66290000Y-77530000D01*
X63630000Y-52010000D02*
X64960000Y-52010000D01*
%TO.C,G39*%
X90614936Y-42810000D02*
X91819064Y-42810000D01*
X90614936Y-44630000D02*
X91819064Y-44630000D01*
%TO.C,G83*%
X90614936Y-59330000D02*
X91819064Y-59330000D01*
X90614936Y-57510000D02*
X91819064Y-57510000D01*
%TO.C,G79*%
X70834936Y-74570000D02*
X72039064Y-74570000D01*
X70834936Y-72750000D02*
X72039064Y-72750000D01*
%TO.C,G86*%
X90614936Y-65130000D02*
X91819064Y-65130000D01*
X90614936Y-66950000D02*
X91819064Y-66950000D01*
%TO.C,G89*%
X90614936Y-74570000D02*
X91819064Y-74570000D01*
X90614936Y-72750000D02*
X91819064Y-72750000D01*
%TO.C,G68*%
X51054936Y-70210000D02*
X52259064Y-70210000D01*
X51054936Y-72030000D02*
X52259064Y-72030000D01*
%TO.C,G12*%
X51054936Y-25030000D02*
X52259064Y-25030000D01*
X51054936Y-26850000D02*
X52259064Y-26850000D01*
D12*
%TO.C,mouse-bite-2mm-slot*%
X119760001Y-61200001D02*
G75*
G03*
X121760001Y-61200001I1000000J0D01*
G01*
X121760001Y-68200001D02*
G75*
G03*
X119760001Y-68200001I-1000000J0D01*
G01*
D11*
%TO.C,G55*%
X31274936Y-62590000D02*
X32479064Y-62590000D01*
X31274936Y-64410000D02*
X32479064Y-64410000D01*
%TO.C,G96*%
X110394936Y-66950000D02*
X111599064Y-66950000D01*
X110394936Y-65130000D02*
X111599064Y-65130000D01*
%TO.C,G99*%
X110394936Y-74570000D02*
X111599064Y-74570000D01*
X110394936Y-72750000D02*
X111599064Y-72750000D01*
%TO.C,G43*%
X110394936Y-29390000D02*
X111599064Y-29390000D01*
X110394936Y-27570000D02*
X111599064Y-27570000D01*
%TO.C,J50*%
X115890000Y-54610000D02*
X115890000Y-77530000D01*
X118550000Y-54610000D02*
X118550000Y-77530000D01*
X115890000Y-54610000D02*
X118550000Y-54610000D01*
X115890000Y-53340000D02*
X115890000Y-52010000D01*
X115890000Y-52010000D02*
X117220000Y-52010000D01*
X115890000Y-77530000D02*
X118550000Y-77530000D01*
%TO.C,J13*%
X122970001Y-54480001D02*
X124300001Y-54480001D01*
X122970001Y-74920001D02*
X125630001Y-74920001D01*
X122970001Y-55810001D02*
X122970001Y-54480001D01*
X122970001Y-57080001D02*
X122970001Y-74920001D01*
X122970001Y-57080001D02*
X125630001Y-57080001D01*
X125630001Y-57080001D02*
X125630001Y-74920001D01*
%TO.C,G29*%
X70834936Y-44630000D02*
X72039064Y-44630000D01*
X70834936Y-42810000D02*
X72039064Y-42810000D01*
%TO.C,G48*%
X110394936Y-42090000D02*
X111599064Y-42090000D01*
X110394936Y-40270000D02*
X111599064Y-40270000D01*
D12*
%TO.C,mouse-bite-2mm-slot14*%
X74920000Y-48800000D02*
G75*
G03*
X74920000Y-50800000I0J-1000000D01*
G01*
X67920000Y-50800000D02*
G75*
G03*
X67920000Y-48800000I0J1000000D01*
G01*
D11*
%TO.C,G42*%
X110394936Y-25030000D02*
X111599064Y-25030000D01*
X110394936Y-26850000D02*
X111599064Y-26850000D01*
%TO.C,G6*%
X31274936Y-35190000D02*
X32479064Y-35190000D01*
X31274936Y-37010000D02*
X32479064Y-37010000D01*
%TO.C,G49*%
X110394936Y-44630000D02*
X111599064Y-44630000D01*
X110394936Y-42810000D02*
X111599064Y-42810000D01*
D12*
%TO.C,mouse-bite-2mm-slot17*%
X101980000Y-68340000D02*
G75*
G03*
X99980000Y-68340000I-1000000J0D01*
G01*
X99980000Y-61340000D02*
G75*
G03*
X101980000Y-61340000I1000000J0D01*
G01*
D11*
%TO.C,J47*%
X83410000Y-77530000D02*
X86070000Y-77530000D01*
X86070000Y-54610000D02*
X86070000Y-77530000D01*
X83410000Y-54610000D02*
X86070000Y-54610000D01*
X83410000Y-54610000D02*
X83410000Y-77530000D01*
X83410000Y-52010000D02*
X84740000Y-52010000D01*
X83410000Y-53340000D02*
X83410000Y-52010000D01*
%TO.C,G93*%
X110394936Y-59330000D02*
X111599064Y-59330000D01*
X110394936Y-57510000D02*
X111599064Y-57510000D01*
D12*
%TO.C,mouse-bite-2mm-slot1*%
X40640000Y-31400000D02*
G75*
G03*
X42640000Y-31400000I1000000J0D01*
G01*
X42640000Y-38400000D02*
G75*
G03*
X40640000Y-38400000I-1000000J0D01*
G01*
D11*
%TO.C,J25*%
X140750002Y-27219999D02*
X142080002Y-27219999D01*
X140750002Y-45119999D02*
X143410002Y-45119999D01*
X140750002Y-29819999D02*
X140750002Y-45119999D01*
X140750002Y-29819999D02*
X143410002Y-29819999D01*
X143410002Y-29819999D02*
X143410002Y-45119999D01*
X140750002Y-28549999D02*
X140750002Y-27219999D01*
%TO.C,G72*%
X70834936Y-54970000D02*
X72039064Y-54970000D01*
X70834936Y-56790000D02*
X72039064Y-56790000D01*
%TO.C,G75*%
X70834936Y-64410000D02*
X72039064Y-64410000D01*
X70834936Y-62590000D02*
X72039064Y-62590000D01*
%TO.C,J35*%
X63630000Y-47590000D02*
X66290000Y-47590000D01*
X63630000Y-23400000D02*
X63630000Y-22070000D01*
X63630000Y-22070000D02*
X64960000Y-22070000D01*
X63630000Y-24670000D02*
X63630000Y-47590000D01*
X63630000Y-24670000D02*
X66290000Y-24670000D01*
X66290000Y-24670000D02*
X66290000Y-47590000D01*
%TO.C,G9*%
X31274936Y-42810000D02*
X32479064Y-42810000D01*
X31274936Y-44630000D02*
X32479064Y-44630000D01*
%TO.C,G16*%
X51054936Y-37010000D02*
X52259064Y-37010000D01*
X51054936Y-35190000D02*
X52259064Y-35190000D01*
%TO.C,J46*%
X76330000Y-54610000D02*
X78990000Y-54610000D01*
X76330000Y-52010000D02*
X77660000Y-52010000D01*
X78990000Y-54610000D02*
X78990000Y-77530000D01*
X76330000Y-77530000D02*
X78990000Y-77530000D01*
X76330000Y-54610000D02*
X76330000Y-77530000D01*
X76330000Y-53340000D02*
X76330000Y-52010000D01*
%TO.C,J14*%
X140750001Y-57080001D02*
X143410001Y-57080001D01*
X140750001Y-55810001D02*
X140750001Y-54480001D01*
X143410001Y-57080001D02*
X143410001Y-74920001D01*
X140750001Y-74920001D02*
X143410001Y-74920001D01*
X140750001Y-54480001D02*
X142080001Y-54480001D01*
X140750001Y-57080001D02*
X140750001Y-74920001D01*
D12*
%TO.C,mouse-bite-2mm-slot*%
X119760001Y-31399999D02*
G75*
G03*
X121760001Y-31399999I1000000J0D01*
G01*
X121760001Y-38399999D02*
G75*
G03*
X119760001Y-38399999I-1000000J0D01*
G01*
D11*
%TO.C,G63*%
X51054936Y-57510000D02*
X52259064Y-57510000D01*
X51054936Y-59330000D02*
X52259064Y-59330000D01*
D12*
%TO.C,mouse-bite-2mm-slot12*%
X48140000Y-50800000D02*
G75*
G03*
X48140000Y-48800000I0J1000000D01*
G01*
X55140000Y-48800000D02*
G75*
G03*
X55140000Y-50800000I0J-1000000D01*
G01*
D11*
%TO.C,G88*%
X90614936Y-70210000D02*
X91819064Y-70210000D01*
X90614936Y-72030000D02*
X91819064Y-72030000D01*
%TO.C,J49*%
X103190000Y-54610000D02*
X103190000Y-77530000D01*
X103190000Y-53340000D02*
X103190000Y-52010000D01*
X103190000Y-52010000D02*
X104520000Y-52010000D01*
X105850000Y-54610000D02*
X105850000Y-77530000D01*
X103190000Y-54610000D02*
X105850000Y-54610000D01*
X103190000Y-77530000D02*
X105850000Y-77530000D01*
%TO.C,G62*%
X51054936Y-56790000D02*
X52259064Y-56790000D01*
X51054936Y-54970000D02*
X52259064Y-54970000D01*
%TO.C,G97*%
X110394936Y-69490000D02*
X111599064Y-69490000D01*
X110394936Y-67670000D02*
X111599064Y-67670000D01*
%TO.C,G37*%
X90614936Y-39550000D02*
X91819064Y-39550000D01*
X90614936Y-37730000D02*
X91819064Y-37730000D01*
%TO.C,G5*%
X31274936Y-32650000D02*
X32479064Y-32650000D01*
X31274936Y-34470000D02*
X32479064Y-34470000D01*
%TO.C,G94*%
X110394936Y-61870000D02*
X111599064Y-61870000D01*
X110394936Y-60050000D02*
X111599064Y-60050000D01*
%TO.C,G28*%
X70834936Y-42090000D02*
X72039064Y-42090000D01*
X70834936Y-40270000D02*
X72039064Y-40270000D01*
%TO.C,G69*%
X51054936Y-72750000D02*
X52259064Y-72750000D01*
X51054936Y-74570000D02*
X52259064Y-74570000D01*
%TO.C,G15*%
X51054936Y-32650000D02*
X52259064Y-32650000D01*
X51054936Y-34470000D02*
X52259064Y-34470000D01*
D12*
%TO.C,mouse-bite-2mm-slot11*%
X40640000Y-61340000D02*
G75*
G03*
X42640000Y-61340000I1000000J0D01*
G01*
X42640000Y-68340000D02*
G75*
G03*
X40640000Y-68340000I-1000000J0D01*
G01*
D11*
%TO.C,J18*%
X122970002Y-42519999D02*
X122970002Y-27219999D01*
X125630002Y-42519999D02*
X125630002Y-27219999D01*
X125630002Y-42519999D02*
X122970002Y-42519999D01*
X125630002Y-45119999D02*
X124300002Y-45119999D01*
X125630002Y-43789999D02*
X125630002Y-45119999D01*
X125630002Y-27219999D02*
X122970002Y-27219999D01*
%TO.C,G45*%
X110394936Y-34470000D02*
X111599064Y-34470000D01*
X110394936Y-32650000D02*
X111599064Y-32650000D01*
%TO.C,G92*%
X110394936Y-56790000D02*
X111599064Y-56790000D01*
X110394936Y-54970000D02*
X111599064Y-54970000D01*
%TO.C,G61*%
X51054936Y-52430000D02*
X52259064Y-52430000D01*
X51054936Y-54250000D02*
X52259064Y-54250000D01*
%TO.C,G36*%
X90614936Y-37010000D02*
X91819064Y-37010000D01*
X90614936Y-35190000D02*
X91819064Y-35190000D01*
%TO.C,G71*%
X70834936Y-54250000D02*
X72039064Y-54250000D01*
X70834936Y-52430000D02*
X72039064Y-52430000D01*
%TO.C,G52*%
X31274936Y-54970000D02*
X32479064Y-54970000D01*
X31274936Y-56790000D02*
X32479064Y-56790000D01*
%TO.C,G77*%
X70834936Y-67670000D02*
X72039064Y-67670000D01*
X70834936Y-69490000D02*
X72039064Y-69490000D01*
%TO.C,G33*%
X90614936Y-27570000D02*
X91819064Y-27570000D01*
X90614936Y-29390000D02*
X91819064Y-29390000D01*
%TO.C,G40*%
X90614936Y-45350000D02*
X91819064Y-45350000D01*
X90614936Y-47170000D02*
X91819064Y-47170000D01*
%TO.C,G100*%
X110394936Y-75290000D02*
X111599064Y-75290000D01*
X110394936Y-77110000D02*
X111599064Y-77110000D01*
%TO.C,G54*%
X31274936Y-61870000D02*
X32479064Y-61870000D01*
X31274936Y-60050000D02*
X32479064Y-60050000D01*
%TO.C,J33*%
X43850000Y-24670000D02*
X43850000Y-47590000D01*
X43850000Y-47590000D02*
X46510000Y-47590000D01*
X43850000Y-22070000D02*
X45180000Y-22070000D01*
X43850000Y-23400000D02*
X43850000Y-22070000D01*
X46510000Y-24670000D02*
X46510000Y-47590000D01*
X43850000Y-24670000D02*
X46510000Y-24670000D01*
%TO.C,G11*%
X51054936Y-24310000D02*
X52259064Y-24310000D01*
X51054936Y-22490000D02*
X52259064Y-22490000D01*
%TO.C,G91*%
X110394936Y-54250000D02*
X111599064Y-54250000D01*
X110394936Y-52430000D02*
X111599064Y-52430000D01*
%TO.C,G81*%
X90614936Y-52430000D02*
X91819064Y-52430000D01*
X90614936Y-54250000D02*
X91819064Y-54250000D01*
D12*
%TO.C,mouse-bite-2mm-slot5*%
X82200000Y-38400000D02*
G75*
G03*
X80200000Y-38400000I-1000000J0D01*
G01*
X80200000Y-31400000D02*
G75*
G03*
X82200000Y-31400000I1000000J0D01*
G01*
D11*
%TO.C,G51*%
X31274936Y-54250000D02*
X32479064Y-54250000D01*
X31274936Y-52430000D02*
X32479064Y-52430000D01*
%TO.C,G20*%
X51054936Y-45350000D02*
X52259064Y-45350000D01*
X51054936Y-47170000D02*
X52259064Y-47170000D01*
%TO.C,G58*%
X31274936Y-72030000D02*
X32479064Y-72030000D01*
X31274936Y-70210000D02*
X32479064Y-70210000D01*
%TO.C,G50*%
X110394936Y-47170000D02*
X111599064Y-47170000D01*
X110394936Y-45350000D02*
X111599064Y-45350000D01*
%TO.C,G35*%
X90614936Y-32650000D02*
X91819064Y-32650000D01*
X90614936Y-34470000D02*
X91819064Y-34470000D01*
%TO.C,G44*%
X110394936Y-31930000D02*
X111599064Y-31930000D01*
X110394936Y-30110000D02*
X111599064Y-30110000D01*
%TO.C,G22*%
X70834936Y-25030000D02*
X72039064Y-25030000D01*
X70834936Y-26850000D02*
X72039064Y-26850000D01*
%TO.C,G32*%
X90614936Y-26850000D02*
X91819064Y-26850000D01*
X90614936Y-25030000D02*
X91819064Y-25030000D01*
D12*
%TO.C,mouse-bite-2mm-slot3*%
X62420000Y-38400000D02*
G75*
G03*
X60420000Y-38400000I-1000000J0D01*
G01*
X60420000Y-31400000D02*
G75*
G03*
X62420000Y-31400000I1000000J0D01*
G01*
%TO.C,mouse-bite-2mm-slot7*%
X99980000Y-31400000D02*
G75*
G03*
X101980000Y-31400000I1000000J0D01*
G01*
X101980000Y-38400000D02*
G75*
G03*
X99980000Y-38400000I-1000000J0D01*
G01*
D11*
%TO.C,G74*%
X70834936Y-61870000D02*
X72039064Y-61870000D01*
X70834936Y-60050000D02*
X72039064Y-60050000D01*
%TO.C,J43*%
X43850000Y-77530000D02*
X46510000Y-77530000D01*
X46510000Y-54610000D02*
X46510000Y-77530000D01*
X43850000Y-54610000D02*
X46510000Y-54610000D01*
X43850000Y-53340000D02*
X43850000Y-52010000D01*
X43850000Y-52010000D02*
X45180000Y-52010000D01*
X43850000Y-54610000D02*
X43850000Y-77530000D01*
%TD*%
M02*
