%TF.GenerationSoftware,KiCad,Pcbnew,(6.0.2)*%
%TF.CreationDate,2022-03-21T16:25:24-04:00*%
%TF.ProjectId,Panel_Design_1,50616e65-6c5f-4446-9573-69676e5f312e,rev?*%
%TF.SameCoordinates,Original*%
%TF.FileFunction,Soldermask,Bot*%
%TF.FilePolarity,Negative*%
%FSLAX46Y46*%
G04 Gerber Fmt 4.6, Leading zero omitted, Abs format (unit mm)*
G04 Created by KiCad (PCBNEW (6.0.2)) date 2022-03-21 16:25:24*
%MOMM*%
%LPD*%
G01*
G04 APERTURE LIST*
%ADD10C,0.500000*%
%ADD11R,1.700000X1.700000*%
%ADD12O,1.700000X1.700000*%
%ADD13O,1.000000X2.100000*%
%ADD14O,1.000000X1.600000*%
%ADD15C,0.650000*%
%ADD16R,1.400000X0.800000*%
%ADD17C,4.500000*%
G04 APERTURE END LIST*
D10*
%TO.C,mouse-bite-2mm-slot*%
X134750000Y-49750000D03*
X136250000Y-49750000D03*
X139250000Y-49750000D03*
X138500000Y-49750000D03*
X135500000Y-49750000D03*
X137000000Y-49750000D03*
X137750000Y-49750000D03*
%TD*%
%TO.C,mouse-bite-2mm-slot*%
X139250000Y-43309998D03*
X137750000Y-43309998D03*
X134750000Y-43309998D03*
X135500000Y-43309998D03*
X138500000Y-43309998D03*
X137000000Y-43309998D03*
X136250000Y-43309998D03*
%TD*%
%TO.C,mouse-bite-2mm-slot*%
X123820000Y-59180000D03*
X123820000Y-59930000D03*
X123820000Y-62930000D03*
X125320000Y-59180000D03*
X123820000Y-60680000D03*
X125320000Y-61430000D03*
X123820000Y-61430000D03*
X125320000Y-59930000D03*
X123820000Y-62180000D03*
X125320000Y-60680000D03*
X125320000Y-62180000D03*
X125320000Y-62930000D03*
X125320000Y-63680000D03*
X123820000Y-63680000D03*
%TD*%
%TO.C,mouse-bite-2mm-slot*%
X123820000Y-29379998D03*
X125320000Y-29379998D03*
X123820000Y-30879998D03*
X123820000Y-33879998D03*
X125320000Y-33879998D03*
X125320000Y-31629998D03*
X125320000Y-30879998D03*
X123820000Y-33129998D03*
X123820000Y-30129998D03*
X125320000Y-30129998D03*
X123820000Y-31629998D03*
X125320000Y-33129998D03*
X123820000Y-32379998D03*
X125320000Y-32379998D03*
%TD*%
D11*
%TO.C,J50*%
X121029999Y-50069999D03*
D12*
X121029999Y-52609999D03*
X121029999Y-55149999D03*
X121029999Y-57689999D03*
X121029999Y-60229999D03*
X121029999Y-62769999D03*
X121029999Y-65309999D03*
X121029999Y-67849999D03*
X121029999Y-70389999D03*
X121029999Y-72929999D03*
%TD*%
D11*
%TO.C,J49*%
X108329999Y-50069999D03*
D12*
X108329999Y-52609999D03*
X108329999Y-55149999D03*
X108329999Y-57689999D03*
X108329999Y-60229999D03*
X108329999Y-62769999D03*
X108329999Y-65309999D03*
X108329999Y-67849999D03*
X108329999Y-70389999D03*
X108329999Y-72929999D03*
%TD*%
D10*
%TO.C,mouse-bite-2mm-slot17*%
X105539999Y-63819999D03*
X105539999Y-60819999D03*
X105539999Y-60069999D03*
X105539999Y-59319999D03*
X104039999Y-61569999D03*
X104039999Y-60069999D03*
X104039999Y-59319999D03*
X105539999Y-61569999D03*
X104039999Y-63819999D03*
X104039999Y-63069999D03*
X105539999Y-63069999D03*
X105539999Y-62319999D03*
X104039999Y-60819999D03*
X104039999Y-62319999D03*
%TD*%
%TO.C,mouse-bite-2mm-slot18*%
X112539999Y-47279999D03*
X112539999Y-45779999D03*
X114039999Y-47279999D03*
X117039999Y-47279999D03*
X117039999Y-45779999D03*
X114789999Y-45779999D03*
X114039999Y-45779999D03*
X116289999Y-47279999D03*
X113289999Y-47279999D03*
X113289999Y-45779999D03*
X114789999Y-47279999D03*
X116289999Y-45779999D03*
X115539999Y-47279999D03*
X115539999Y-45779999D03*
%TD*%
D11*
%TO.C,J48*%
X101249999Y-50069999D03*
D12*
X101249999Y-52609999D03*
X101249999Y-55149999D03*
X101249999Y-57689999D03*
X101249999Y-60229999D03*
X101249999Y-62769999D03*
X101249999Y-65309999D03*
X101249999Y-67849999D03*
X101249999Y-70389999D03*
X101249999Y-72929999D03*
%TD*%
D11*
%TO.C,J47*%
X88549999Y-50069999D03*
D12*
X88549999Y-52609999D03*
X88549999Y-55149999D03*
X88549999Y-57689999D03*
X88549999Y-60229999D03*
X88549999Y-62769999D03*
X88549999Y-65309999D03*
X88549999Y-67849999D03*
X88549999Y-70389999D03*
X88549999Y-72929999D03*
%TD*%
D10*
%TO.C,mouse-bite-2mm-slot15*%
X85759999Y-63819999D03*
X85759999Y-60819999D03*
X85759999Y-60069999D03*
X85759999Y-59319999D03*
X84259999Y-61569999D03*
X84259999Y-60069999D03*
X84259999Y-59319999D03*
X85759999Y-61569999D03*
X84259999Y-63819999D03*
X84259999Y-63069999D03*
X85759999Y-63069999D03*
X85759999Y-62319999D03*
X84259999Y-60819999D03*
X84259999Y-62319999D03*
%TD*%
%TO.C,mouse-bite-2mm-slot16*%
X92759999Y-47279999D03*
X92759999Y-45779999D03*
X94259999Y-47279999D03*
X97259999Y-47279999D03*
X97259999Y-45779999D03*
X95009999Y-45779999D03*
X94259999Y-45779999D03*
X96509999Y-47279999D03*
X93509999Y-47279999D03*
X93509999Y-45779999D03*
X95009999Y-47279999D03*
X96509999Y-45779999D03*
X95759999Y-47279999D03*
X95759999Y-45779999D03*
%TD*%
D11*
%TO.C,J46*%
X81469999Y-50069999D03*
D12*
X81469999Y-52609999D03*
X81469999Y-55149999D03*
X81469999Y-57689999D03*
X81469999Y-60229999D03*
X81469999Y-62769999D03*
X81469999Y-65309999D03*
X81469999Y-67849999D03*
X81469999Y-70389999D03*
X81469999Y-72929999D03*
%TD*%
D11*
%TO.C,J45*%
X68769999Y-50069999D03*
D12*
X68769999Y-52609999D03*
X68769999Y-55149999D03*
X68769999Y-57689999D03*
X68769999Y-60229999D03*
X68769999Y-62769999D03*
X68769999Y-65309999D03*
X68769999Y-67849999D03*
X68769999Y-70389999D03*
X68769999Y-72929999D03*
%TD*%
D10*
%TO.C,mouse-bite-2mm-slot13*%
X65979999Y-63819999D03*
X65979999Y-60819999D03*
X65979999Y-60069999D03*
X65979999Y-59319999D03*
X64479999Y-61569999D03*
X64479999Y-60069999D03*
X64479999Y-59319999D03*
X65979999Y-61569999D03*
X64479999Y-63819999D03*
X64479999Y-63069999D03*
X65979999Y-63069999D03*
X65979999Y-62319999D03*
X64479999Y-60819999D03*
X64479999Y-62319999D03*
%TD*%
%TO.C,mouse-bite-2mm-slot14*%
X72979999Y-47279999D03*
X72979999Y-45779999D03*
X74479999Y-47279999D03*
X77479999Y-47279999D03*
X77479999Y-45779999D03*
X75229999Y-45779999D03*
X74479999Y-45779999D03*
X76729999Y-47279999D03*
X73729999Y-47279999D03*
X73729999Y-45779999D03*
X75229999Y-47279999D03*
X76729999Y-45779999D03*
X75979999Y-47279999D03*
X75979999Y-45779999D03*
%TD*%
D11*
%TO.C,J44*%
X61689999Y-50069999D03*
D12*
X61689999Y-52609999D03*
X61689999Y-55149999D03*
X61689999Y-57689999D03*
X61689999Y-60229999D03*
X61689999Y-62769999D03*
X61689999Y-65309999D03*
X61689999Y-67849999D03*
X61689999Y-70389999D03*
X61689999Y-72929999D03*
%TD*%
D11*
%TO.C,J43*%
X48989999Y-50069999D03*
D12*
X48989999Y-52609999D03*
X48989999Y-55149999D03*
X48989999Y-57689999D03*
X48989999Y-60229999D03*
X48989999Y-62769999D03*
X48989999Y-65309999D03*
X48989999Y-67849999D03*
X48989999Y-70389999D03*
X48989999Y-72929999D03*
%TD*%
D10*
%TO.C,mouse-bite-2mm-slot11*%
X46199999Y-63819999D03*
X46199999Y-60819999D03*
X46199999Y-60069999D03*
X46199999Y-59319999D03*
X44699999Y-61569999D03*
X44699999Y-60069999D03*
X44699999Y-59319999D03*
X46199999Y-61569999D03*
X44699999Y-63819999D03*
X44699999Y-63069999D03*
X46199999Y-63069999D03*
X46199999Y-62319999D03*
X44699999Y-60819999D03*
X44699999Y-62319999D03*
%TD*%
%TO.C,mouse-bite-2mm-slot12*%
X53199999Y-47279999D03*
X53199999Y-45779999D03*
X54699999Y-47279999D03*
X57699999Y-47279999D03*
X57699999Y-45779999D03*
X55449999Y-45779999D03*
X54699999Y-45779999D03*
X56949999Y-47279999D03*
X53949999Y-47279999D03*
X53949999Y-45779999D03*
X55449999Y-47279999D03*
X56949999Y-45779999D03*
X56199999Y-47279999D03*
X56199999Y-45779999D03*
%TD*%
D11*
%TO.C,J42*%
X41909999Y-50069999D03*
D12*
X41909999Y-52609999D03*
X41909999Y-55149999D03*
X41909999Y-57689999D03*
X41909999Y-60229999D03*
X41909999Y-62769999D03*
X41909999Y-65309999D03*
X41909999Y-67849999D03*
X41909999Y-70389999D03*
X41909999Y-72929999D03*
%TD*%
D11*
%TO.C,J41*%
X29209999Y-50069999D03*
D12*
X29209999Y-52609999D03*
X29209999Y-55149999D03*
X29209999Y-57689999D03*
X29209999Y-60229999D03*
X29209999Y-62769999D03*
X29209999Y-65309999D03*
X29209999Y-67849999D03*
X29209999Y-70389999D03*
X29209999Y-72929999D03*
%TD*%
D10*
%TO.C,mouse-bite-2mm-slot10*%
X33419999Y-47279999D03*
X33419999Y-45779999D03*
X34919999Y-47279999D03*
X37919999Y-47279999D03*
X37919999Y-45779999D03*
X35669999Y-45779999D03*
X34919999Y-45779999D03*
X37169999Y-47279999D03*
X34169999Y-47279999D03*
X34169999Y-45779999D03*
X35669999Y-47279999D03*
X37169999Y-45779999D03*
X36419999Y-47279999D03*
X36419999Y-45779999D03*
%TD*%
D11*
%TO.C,J40*%
X121029999Y-20129999D03*
D12*
X121029999Y-22669999D03*
X121029999Y-25209999D03*
X121029999Y-27749999D03*
X121029999Y-30289999D03*
X121029999Y-32829999D03*
X121029999Y-35369999D03*
X121029999Y-37909999D03*
X121029999Y-40449999D03*
X121029999Y-42989999D03*
%TD*%
D11*
%TO.C,J39*%
X108329999Y-20129999D03*
D12*
X108329999Y-22669999D03*
X108329999Y-25209999D03*
X108329999Y-27749999D03*
X108329999Y-30289999D03*
X108329999Y-32829999D03*
X108329999Y-35369999D03*
X108329999Y-37909999D03*
X108329999Y-40449999D03*
X108329999Y-42989999D03*
%TD*%
D10*
%TO.C,mouse-bite-2mm-slot7*%
X105539999Y-33879999D03*
X105539999Y-30879999D03*
X105539999Y-30129999D03*
X105539999Y-29379999D03*
X104039999Y-31629999D03*
X104039999Y-30129999D03*
X104039999Y-29379999D03*
X105539999Y-31629999D03*
X104039999Y-33879999D03*
X104039999Y-33129999D03*
X105539999Y-33129999D03*
X105539999Y-32379999D03*
X104039999Y-30879999D03*
X104039999Y-32379999D03*
%TD*%
D11*
%TO.C,J38*%
X101249999Y-20129999D03*
D12*
X101249999Y-22669999D03*
X101249999Y-25209999D03*
X101249999Y-27749999D03*
X101249999Y-30289999D03*
X101249999Y-32829999D03*
X101249999Y-35369999D03*
X101249999Y-37909999D03*
X101249999Y-40449999D03*
X101249999Y-42989999D03*
%TD*%
D11*
%TO.C,J37*%
X88549999Y-20129999D03*
D12*
X88549999Y-22669999D03*
X88549999Y-25209999D03*
X88549999Y-27749999D03*
X88549999Y-30289999D03*
X88549999Y-32829999D03*
X88549999Y-35369999D03*
X88549999Y-37909999D03*
X88549999Y-40449999D03*
X88549999Y-42989999D03*
%TD*%
D10*
%TO.C,mouse-bite-2mm-slot5*%
X85759999Y-33879999D03*
X85759999Y-30879999D03*
X85759999Y-30129999D03*
X85759999Y-29379999D03*
X84259999Y-31629999D03*
X84259999Y-30129999D03*
X84259999Y-29379999D03*
X85759999Y-31629999D03*
X84259999Y-33879999D03*
X84259999Y-33129999D03*
X85759999Y-33129999D03*
X85759999Y-32379999D03*
X84259999Y-30879999D03*
X84259999Y-32379999D03*
%TD*%
D11*
%TO.C,J36*%
X81469999Y-20129999D03*
D12*
X81469999Y-22669999D03*
X81469999Y-25209999D03*
X81469999Y-27749999D03*
X81469999Y-30289999D03*
X81469999Y-32829999D03*
X81469999Y-35369999D03*
X81469999Y-37909999D03*
X81469999Y-40449999D03*
X81469999Y-42989999D03*
%TD*%
D11*
%TO.C,J35*%
X68769999Y-20129999D03*
D12*
X68769999Y-22669999D03*
X68769999Y-25209999D03*
X68769999Y-27749999D03*
X68769999Y-30289999D03*
X68769999Y-32829999D03*
X68769999Y-35369999D03*
X68769999Y-37909999D03*
X68769999Y-40449999D03*
X68769999Y-42989999D03*
%TD*%
D10*
%TO.C,mouse-bite-2mm-slot3*%
X65979999Y-33879999D03*
X65979999Y-30879999D03*
X65979999Y-30129999D03*
X65979999Y-29379999D03*
X64479999Y-31629999D03*
X64479999Y-30129999D03*
X64479999Y-29379999D03*
X65979999Y-31629999D03*
X64479999Y-33879999D03*
X64479999Y-33129999D03*
X65979999Y-33129999D03*
X65979999Y-32379999D03*
X64479999Y-30879999D03*
X64479999Y-32379999D03*
%TD*%
D11*
%TO.C,J34*%
X61689999Y-20129999D03*
D12*
X61689999Y-22669999D03*
X61689999Y-25209999D03*
X61689999Y-27749999D03*
X61689999Y-30289999D03*
X61689999Y-32829999D03*
X61689999Y-35369999D03*
X61689999Y-37909999D03*
X61689999Y-40449999D03*
X61689999Y-42989999D03*
%TD*%
D11*
%TO.C,J33*%
X48989999Y-20129999D03*
D12*
X48989999Y-22669999D03*
X48989999Y-25209999D03*
X48989999Y-27749999D03*
X48989999Y-30289999D03*
X48989999Y-32829999D03*
X48989999Y-35369999D03*
X48989999Y-37909999D03*
X48989999Y-40449999D03*
X48989999Y-42989999D03*
%TD*%
D10*
%TO.C,mouse-bite-2mm-slot1*%
X46199999Y-33879999D03*
X46199999Y-30879999D03*
X46199999Y-30129999D03*
X46199999Y-29379999D03*
X44699999Y-31629999D03*
X44699999Y-30129999D03*
X44699999Y-29379999D03*
X46199999Y-31629999D03*
X44699999Y-33879999D03*
X44699999Y-33129999D03*
X46199999Y-33129999D03*
X46199999Y-32379999D03*
X44699999Y-30879999D03*
X44699999Y-32379999D03*
%TD*%
D11*
%TO.C,J4*%
X41909999Y-20129999D03*
D12*
X41909999Y-22669999D03*
X41909999Y-25209999D03*
X41909999Y-27749999D03*
X41909999Y-30289999D03*
X41909999Y-32829999D03*
X41909999Y-35369999D03*
X41909999Y-37909999D03*
X41909999Y-40449999D03*
X41909999Y-42989999D03*
%TD*%
%TO.C,J13*%
X128110000Y-70320000D03*
X128110000Y-67780000D03*
X128110000Y-65240000D03*
X128110000Y-62700000D03*
X128110000Y-60160000D03*
X128110000Y-57620000D03*
X128110000Y-55080000D03*
D11*
X128110000Y-52540000D03*
%TD*%
%TO.C,J2*%
X29209999Y-20129999D03*
D12*
X29209999Y-22669999D03*
X29209999Y-25209999D03*
X29209999Y-27749999D03*
X29209999Y-30289999D03*
X29209999Y-32829999D03*
X29209999Y-35369999D03*
X29209999Y-37909999D03*
X29209999Y-40449999D03*
X29209999Y-42989999D03*
%TD*%
%TO.C,J18*%
X128110001Y-25279998D03*
X128110001Y-27819998D03*
X128110001Y-30359998D03*
X128110001Y-32899998D03*
X128110001Y-35439998D03*
X128110001Y-37979998D03*
D11*
X128110001Y-40519998D03*
%TD*%
D12*
%TO.C,J25*%
X145890001Y-40519998D03*
X145890001Y-37979998D03*
X145890001Y-35439998D03*
X145890001Y-32899998D03*
X145890001Y-30359998D03*
X145890001Y-27819998D03*
D11*
X145890001Y-25279998D03*
%TD*%
D12*
%TO.C,J14*%
X145890000Y-70320000D03*
X145890000Y-67780000D03*
X145890000Y-65240000D03*
X145890000Y-62700000D03*
X145890000Y-60160000D03*
X145890000Y-57620000D03*
X145890000Y-55080000D03*
D11*
X145890000Y-52540000D03*
%TD*%
D13*
%TO.C,USB1*%
X132550001Y-37204998D03*
D14*
X132550001Y-41384998D03*
D13*
X141190001Y-37204998D03*
D14*
X141190001Y-41384998D03*
D15*
X139760001Y-37734998D03*
X133980001Y-37734998D03*
%TD*%
D16*
%TO.C,RGB4*%
X134790000Y-70285000D03*
X139990000Y-70285000D03*
X139990000Y-68835000D03*
X134790000Y-68835000D03*
D17*
X137390000Y-69560000D03*
%TD*%
D16*
%TO.C,RGB1*%
X134790000Y-54085000D03*
X139990000Y-54085000D03*
X139990000Y-52635000D03*
X134790000Y-52635000D03*
D17*
X137390000Y-53360000D03*
%TD*%
D16*
%TO.C,RGB3*%
X134790000Y-64885000D03*
X139990000Y-64885000D03*
X139990000Y-63435000D03*
X134790000Y-63435000D03*
D17*
X137390000Y-64160000D03*
%TD*%
D16*
%TO.C,RGB2*%
X134790000Y-59485000D03*
X139990000Y-59485000D03*
X139990000Y-58035000D03*
X134790000Y-58035000D03*
D17*
X137390000Y-58760000D03*
%TD*%
M02*
