M48
INCH,TZ
T1C0.0236
T2C0.0394
%
G90
G05
T2
X10000Y-9213
X10000Y-10213
X10000Y-11213
X10000Y-12213
X10000Y-13213
X10000Y-14213
X10000Y-15213
X10000Y-16213
X10000Y-17213
X10000Y-18213
X10000Y-21000
X10000Y-22000
X10000Y-23000
X10000Y-24000
X10000Y-25000
X10000Y-26000
X10000Y-27000
X10000Y-28000
X10000Y-29000
X10000Y-30000
X15000Y-9213
X15000Y-10213
X15000Y-11213
X15000Y-12213
X15000Y-13213
X15000Y-14213
X15000Y-15213
X15000Y-16213
X15000Y-17213
X15000Y-18213
X15000Y-21000
X15000Y-22000
X15000Y-23000
X15000Y-24000
X15000Y-25000
X15000Y-26000
X15000Y-27000
X15000Y-28000
X15000Y-29000
X15000Y-30000
X17787Y-9213
X17787Y-10213
X17787Y-11213
X17787Y-12213
X17787Y-13213
X17787Y-14213
X17787Y-15213
X17787Y-16213
X17787Y-17213
X17787Y-18213
X17787Y-21000
X17787Y-22000
X17787Y-23000
X17787Y-24000
X17787Y-25000
X17787Y-26000
X17787Y-27000
X17787Y-28000
X17787Y-29000
X17787Y-30000
X22787Y-9213
X22787Y-10213
X22787Y-11213
X22787Y-12213
X22787Y-13213
X22787Y-14213
X22787Y-15213
X22787Y-16213
X22787Y-17213
X22787Y-18213
X22787Y-21000
X22787Y-22000
X22787Y-23000
X22787Y-24000
X22787Y-25000
X22787Y-26000
X22787Y-27000
X22787Y-28000
X22787Y-29000
X22787Y-30000
X25575Y-9213
X25575Y-10213
X25575Y-11213
X25575Y-12213
X25575Y-13213
X25575Y-14213
X25575Y-15213
X25575Y-16213
X25575Y-17213
X25575Y-18213
X25575Y-21000
X25575Y-22000
X25575Y-23000
X25575Y-24000
X25575Y-25000
X25575Y-26000
X25575Y-27000
X25575Y-28000
X25575Y-29000
X25575Y-30000
X30575Y-9213
X30575Y-10213
X30575Y-11213
X30575Y-12213
X30575Y-13213
X30575Y-14213
X30575Y-15213
X30575Y-16213
X30575Y-17213
X30575Y-18213
X30575Y-21000
X30575Y-22000
X30575Y-23000
X30575Y-24000
X30575Y-25000
X30575Y-26000
X30575Y-27000
X30575Y-28000
X30575Y-29000
X30575Y-30000
X33362Y-9213
X33362Y-10213
X33362Y-11213
X33362Y-12213
X33362Y-13213
X33362Y-14213
X33362Y-15213
X33362Y-16213
X33362Y-17213
X33362Y-18213
X33362Y-21000
X33362Y-22000
X33362Y-23000
X33362Y-24000
X33362Y-25000
X33362Y-26000
X33362Y-27000
X33362Y-28000
X33362Y-29000
X33362Y-30000
X38362Y-9213
X38362Y-10213
X38362Y-11213
X38362Y-12213
X38362Y-13213
X38362Y-14213
X38362Y-15213
X38362Y-16213
X38362Y-17213
X38362Y-18213
X38362Y-21000
X38362Y-22000
X38362Y-23000
X38362Y-24000
X38362Y-25000
X38362Y-26000
X38362Y-27000
X38362Y-28000
X38362Y-29000
X38362Y-30000
X41150Y-9213
X41150Y-10213
X41150Y-11213
X41150Y-12213
X41150Y-13213
X41150Y-14213
X41150Y-15213
X41150Y-16213
X41150Y-17213
X41150Y-18213
X41150Y-21000
X41150Y-22000
X41150Y-23000
X41150Y-24000
X41150Y-25000
X41150Y-26000
X41150Y-27000
X41150Y-28000
X41150Y-29000
X41150Y-30000
X46150Y-9213
X46150Y-10213
X46150Y-11213
X46150Y-12213
X46150Y-13213
X46150Y-14213
X46150Y-15213
X46150Y-16213
X46150Y-17213
X46150Y-18213
X46150Y-21000
X46150Y-22000
X46150Y-23000
X46150Y-24000
X46150Y-25000
X46150Y-26000
X46150Y-27000
X46150Y-28000
X46150Y-29000
X46150Y-30000
X48937Y-21972
X48937Y-22972
X48937Y-23972
X48937Y-24972
X48937Y-25972
X48937Y-26972
X48937Y-27972
X48937Y-28972
X48937Y-11240
X48937Y-12240
X48937Y-13240
X48937Y-14240
X48937Y-15240
X48937Y-16240
X48937Y-17240
X55937Y-21972
X55937Y-22972
X55937Y-23972
X55937Y-24972
X55937Y-25972
X55937Y-26972
X55937Y-27972
X55937Y-28972
X55937Y-11240
X55937Y-12240
X55937Y-13240
X55937Y-14240
X55937Y-15240
X55937Y-16240
X55937Y-17240
T1
G00X50685Y-15719
M15
G01X50685Y-16152
M16
G05
G00X50685Y-17463
M15
G01X50685Y-17699
M16
G05
G00X54087Y-15719
M15
G01X54087Y-16152
M16
G05
G00X54087Y-17463
M15
G01X54087Y-17699
M16
G05
T0
M30
