M48
INCH,TZ
T1C0.0197
T2C0.0256
T3C0.1772
%
G90
G05
T1
X11657Y-19311
X11657Y-19902
X11953Y-19311
X11953Y-19902
X12248Y-19311
X12248Y-19902
X12543Y-19311
X12543Y-19902
X12839Y-19311
X12839Y-19902
X13134Y-19311
X13134Y-19902
X13429Y-19311
X13429Y-19902
X16098Y-12854
X16098Y-13150
X16098Y-13445
X16098Y-13740
X16098Y-14035
X16098Y-14331
X16098Y-14626
X16098Y-24642
X16098Y-24937
X16098Y-25232
X16098Y-25528
X16098Y-25823
X16098Y-26118
X16098Y-26413
X16689Y-12854
X16689Y-13150
X16689Y-13445
X16689Y-13740
X16689Y-14035
X16689Y-14331
X16689Y-14626
X16689Y-24642
X16689Y-24937
X16689Y-25232
X16689Y-25528
X16689Y-25823
X16689Y-26118
X16689Y-26413
X19445Y-19311
X19445Y-19902
X19740Y-19311
X19740Y-19902
X20035Y-19311
X20035Y-19902
X20331Y-19311
X20331Y-19902
X20626Y-19311
X20626Y-19902
X20921Y-19311
X20921Y-19902
X21217Y-19311
X21217Y-19902
X23886Y-12854
X23886Y-13150
X23886Y-13445
X23886Y-13740
X23886Y-14035
X23886Y-14331
X23886Y-14626
X23886Y-24642
X23886Y-24937
X23886Y-25232
X23886Y-25528
X23886Y-25823
X23886Y-26118
X23886Y-26413
X24476Y-12854
X24476Y-13150
X24476Y-13445
X24476Y-13740
X24476Y-14035
X24476Y-14331
X24476Y-14626
X24476Y-24642
X24476Y-24937
X24476Y-25232
X24476Y-25528
X24476Y-25823
X24476Y-26118
X24476Y-26413
X27232Y-19311
X27232Y-19902
X27528Y-19311
X27528Y-19902
X27823Y-19311
X27823Y-19902
X28118Y-19311
X28118Y-19902
X28413Y-19311
X28413Y-19902
X28709Y-19311
X28709Y-19902
X29004Y-19311
X29004Y-19902
X31673Y-12854
X31673Y-13150
X31673Y-13445
X31673Y-13740
X31673Y-14035
X31673Y-14331
X31673Y-14626
X31673Y-24642
X31673Y-24937
X31673Y-25232
X31673Y-25528
X31673Y-25823
X31673Y-26118
X31673Y-26413
X32264Y-12854
X32264Y-13150
X32264Y-13445
X32264Y-13740
X32264Y-14035
X32264Y-14331
X32264Y-14626
X32264Y-24642
X32264Y-24937
X32264Y-25232
X32264Y-25528
X32264Y-25823
X32264Y-26118
X32264Y-26413
X35020Y-19311
X35020Y-19902
X35315Y-19311
X35315Y-19902
X35610Y-19311
X35610Y-19902
X35906Y-19311
X35906Y-19902
X36201Y-19311
X36201Y-19902
X36496Y-19311
X36496Y-19902
X36791Y-19311
X36791Y-19902
X39461Y-12854
X39461Y-13150
X39461Y-13445
X39461Y-13740
X39461Y-14035
X39461Y-14331
X39461Y-14626
X39461Y-24642
X39461Y-24937
X39461Y-25232
X39461Y-25528
X39461Y-25823
X39461Y-26118
X39461Y-26413
X40051Y-12854
X40051Y-13150
X40051Y-13445
X40051Y-13740
X40051Y-14035
X40051Y-14331
X40051Y-14626
X40051Y-24642
X40051Y-24937
X40051Y-25232
X40051Y-25528
X40051Y-25823
X40051Y-26118
X40051Y-26413
X42807Y-19311
X42807Y-19902
X43102Y-19311
X43102Y-19902
X43398Y-19311
X43398Y-19902
X43693Y-19311
X43693Y-19902
X43988Y-19311
X43988Y-19902
X44283Y-19311
X44283Y-19902
X44579Y-19311
X44579Y-19902
X47248Y-12854
X47248Y-13150
X47248Y-13445
X47248Y-13740
X47248Y-14035
X47248Y-14331
X47248Y-14626
X47248Y-24587
X47248Y-24882
X47248Y-25177
X47248Y-25472
X47248Y-25768
X47248Y-26063
X47248Y-26358
X47839Y-12854
X47839Y-13150
X47839Y-13445
X47839Y-13740
X47839Y-14035
X47839Y-14331
X47839Y-14626
X47839Y-24587
X47839Y-24882
X47839Y-25177
X47839Y-25472
X47839Y-25768
X47839Y-26063
X47839Y-26358
X51551Y-18339
X51551Y-20874
X51846Y-18339
X51846Y-20874
X52142Y-18339
X52142Y-20874
X52437Y-18339
X52437Y-20874
X52732Y-18339
X52732Y-20874
X53028Y-18339
X53028Y-20874
X53323Y-18339
X53323Y-20874
T2
X51248Y-16144
X53524Y-16144
T3
X52591Y-22295
X52591Y-24421
X52591Y-26547
X52591Y-28673
T0
M30
