%TF.GenerationSoftware,KiCad,Pcbnew,(6.0.2)*%
%TF.CreationDate,2022-03-20T20:43:40-04:00*%
%TF.ProjectId,Panel,50616e65-6c2e-46b6-9963-61645f706362,rev?*%
%TF.SameCoordinates,Original*%
%TF.FileFunction,Paste,Top*%
%TF.FilePolarity,Positive*%
%FSLAX46Y46*%
G04 Gerber Fmt 4.6, Leading zero omitted, Abs format (unit mm)*
G04 Created by KiCad (PCBNEW (6.0.2)) date 2022-03-20 20:43:40*
%MOMM*%
%LPD*%
G01*
G04 APERTURE LIST*
G04 Aperture macros list*
%AMRoundRect*
0 Rectangle with rounded corners*
0 $1 Rounding radius*
0 $2 $3 $4 $5 $6 $7 $8 $9 X,Y pos of 4 corners*
0 Add a 4 corners polygon primitive as box body*
4,1,4,$2,$3,$4,$5,$6,$7,$8,$9,$2,$3,0*
0 Add four circle primitives for the rounded corners*
1,1,$1+$1,$2,$3*
1,1,$1+$1,$4,$5*
1,1,$1+$1,$6,$7*
1,1,$1+$1,$8,$9*
0 Add four rect primitives between the rounded corners*
20,1,$1+$1,$2,$3,$4,$5,0*
20,1,$1+$1,$4,$5,$6,$7,0*
20,1,$1+$1,$6,$7,$8,$9,0*
20,1,$1+$1,$8,$9,$2,$3,0*%
%AMRotRect*
0 Rectangle, with rotation*
0 The origin of the aperture is its center*
0 $1 length*
0 $2 width*
0 $3 Rotation angle, in degrees counterclockwise*
0 Add horizontal line*
21,1,$1,$2,0,0,$3*%
G04 Aperture macros list end*
%ADD10RoundRect,0.289474X-0.535526X-0.585526X0.535526X-0.585526X0.535526X0.585526X-0.535526X0.585526X0*%
%ADD11R,1.200000X1.400000*%
%ADD12RotRect,0.600000X1.475000X45.000000*%
%ADD13RotRect,0.600000X1.475000X135.000000*%
%ADD14R,0.700000X0.600000*%
%ADD15R,0.700000X1.000000*%
%ADD16R,1.050000X0.700000*%
%ADD17R,2.000000X1.300000*%
%ADD18R,0.300000X1.000000*%
%ADD19RoundRect,0.150000X-0.512500X-0.150000X0.512500X-0.150000X0.512500X0.150000X-0.512500X0.150000X0*%
%ADD20R,0.600000X0.700000*%
%ADD21R,1.000000X0.700000*%
%ADD22R,0.600000X1.450000*%
%ADD23R,0.300000X1.450000*%
%ADD24RotRect,5.550000X5.550000X45.000000*%
%ADD25RotRect,0.200000X0.850000X45.000000*%
%ADD26RotRect,0.200000X0.850000X135.000000*%
G04 APERTURE END LIST*
D10*
%TO.C,G70*%
X92633999Y-88519999D03*
X89811699Y-88519999D03*
%TD*%
%TO.C,G23*%
X112433999Y-40799999D03*
X109611699Y-40799999D03*
%TD*%
%TO.C,G91*%
X152033999Y-65659999D03*
X149211699Y-65659999D03*
%TD*%
%TO.C,G16*%
X92633999Y-48419999D03*
X89811699Y-48419999D03*
%TD*%
%TO.C,G75*%
X112433999Y-75819999D03*
X109611699Y-75819999D03*
%TD*%
%TO.C,G50*%
X152033999Y-58579999D03*
X149211699Y-58579999D03*
%TD*%
D11*
%TO.C,Y2*%
X92069999Y-195640000D03*
X92069999Y-197840000D03*
X90369999Y-197840000D03*
X90369999Y-195640000D03*
%TD*%
D12*
%TO.C,IC1*%
X95858366Y-109611048D03*
X96424051Y-109045363D03*
X96989737Y-108479678D03*
X97555422Y-107913992D03*
X98121108Y-107348307D03*
X98686793Y-106782621D03*
X99252479Y-106216936D03*
X99818164Y-105651250D03*
X100383849Y-105085565D03*
X100949535Y-104519880D03*
X101515220Y-103954194D03*
X102080906Y-103388509D03*
X102646591Y-102822823D03*
X103212277Y-102257138D03*
X103777962Y-101691452D03*
X104343647Y-101125767D03*
D13*
X106801551Y-101125767D03*
X107367236Y-101691452D03*
X107932921Y-102257138D03*
X108498607Y-102822823D03*
X109064292Y-103388509D03*
X109629978Y-103954194D03*
X110195663Y-104519880D03*
X110761349Y-105085565D03*
X111327034Y-105651250D03*
X111892719Y-106216936D03*
X112458405Y-106782621D03*
X113024090Y-107348307D03*
X113589776Y-107913992D03*
X114155461Y-108479678D03*
X114721147Y-109045363D03*
X115286832Y-109611048D03*
D12*
X115286832Y-112068952D03*
X114721147Y-112634637D03*
X114155461Y-113200322D03*
X113589776Y-113766008D03*
X113024090Y-114331693D03*
X112458405Y-114897379D03*
X111892719Y-115463064D03*
X111327034Y-116028750D03*
X110761349Y-116594435D03*
X110195663Y-117160120D03*
X109629978Y-117725806D03*
X109064292Y-118291491D03*
X108498607Y-118857177D03*
X107932921Y-119422862D03*
X107367236Y-119988548D03*
X106801551Y-120554233D03*
D13*
X104343647Y-120554233D03*
X103777962Y-119988548D03*
X103212277Y-119422862D03*
X102646591Y-118857177D03*
X102080906Y-118291491D03*
X101515220Y-117725806D03*
X100949535Y-117160120D03*
X100383849Y-116594435D03*
X99818164Y-116028750D03*
X99252479Y-115463064D03*
X98686793Y-114897379D03*
X98121108Y-114331693D03*
X97555422Y-113766008D03*
X96989737Y-113200322D03*
X96424051Y-112634637D03*
X95858366Y-112068952D03*
%TD*%
D10*
%TO.C,G53*%
X72833999Y-70739999D03*
X70011699Y-70739999D03*
%TD*%
%TO.C,G90*%
X132233999Y-88519999D03*
X129411699Y-88519999D03*
%TD*%
%TO.C,G13*%
X92633999Y-40799999D03*
X89811699Y-40799999D03*
%TD*%
%TO.C,G40*%
X132233999Y-58579999D03*
X129411699Y-58579999D03*
%TD*%
D14*
%TO.C,U3*%
X129940000Y-198320000D03*
X129940000Y-196420000D03*
X131940000Y-196420000D03*
D15*
X131940000Y-198120000D03*
%TD*%
D10*
%TO.C,G66*%
X92633999Y-78359999D03*
X89811699Y-78359999D03*
%TD*%
%TO.C,G86*%
X132233999Y-78359999D03*
X129411699Y-78359999D03*
%TD*%
%TO.C,G33*%
X132233999Y-40799999D03*
X129411699Y-40799999D03*
%TD*%
%TO.C,G73*%
X112433999Y-70739999D03*
X109611699Y-70739999D03*
%TD*%
%TO.C,G57*%
X72833999Y-80899999D03*
X70011699Y-80899999D03*
%TD*%
D16*
%TO.C,IC2*%
X154669998Y-197940002D03*
X152369998Y-198890002D03*
X152369998Y-196990002D03*
%TD*%
D17*
%TO.C,UOLED1*%
X175542599Y-101715000D03*
X156442599Y-101715000D03*
D18*
X173242599Y-99015000D03*
X172742599Y-99015000D03*
X172242599Y-99015000D03*
X171742599Y-99015000D03*
X171242599Y-99015000D03*
X170742599Y-99015000D03*
X170242599Y-99015000D03*
X169742599Y-99015000D03*
X169242599Y-99015000D03*
X168742599Y-99015000D03*
X168242599Y-99015000D03*
X167742599Y-99015000D03*
X167242599Y-99015000D03*
X166742599Y-99015000D03*
X166242599Y-99015000D03*
X165742599Y-99015000D03*
X165242599Y-99015000D03*
X164742599Y-99015000D03*
X164242599Y-99015000D03*
X163742599Y-99015000D03*
X163242599Y-99015000D03*
X162742599Y-99015000D03*
X162242599Y-99015000D03*
X161742599Y-99015000D03*
X161242599Y-99015000D03*
X160742599Y-99015000D03*
X160242599Y-99015000D03*
X159742599Y-99015000D03*
X159242599Y-99015000D03*
X158742599Y-99015000D03*
%TD*%
D10*
%TO.C,G39*%
X132233999Y-56039999D03*
X129411699Y-56039999D03*
%TD*%
%TO.C,G24*%
X112433999Y-43339999D03*
X109611699Y-43339999D03*
%TD*%
%TO.C,G5*%
X72833999Y-45879999D03*
X70011699Y-45879999D03*
%TD*%
%TO.C,G12*%
X92633999Y-38259999D03*
X89811699Y-38259999D03*
%TD*%
%TO.C,G76*%
X112433999Y-78359999D03*
X109611699Y-78359999D03*
%TD*%
%TO.C,G71*%
X112433999Y-65659999D03*
X109611699Y-65659999D03*
%TD*%
%TO.C,G88*%
X132233999Y-83439999D03*
X129411699Y-83439999D03*
%TD*%
%TO.C,G94*%
X152033999Y-73279999D03*
X149211699Y-73279999D03*
%TD*%
%TO.C,G58*%
X72833999Y-83439999D03*
X70011699Y-83439999D03*
%TD*%
%TO.C,G69*%
X92633999Y-85979999D03*
X89811699Y-85979999D03*
%TD*%
%TO.C,G98*%
X152033999Y-83439999D03*
X149211699Y-83439999D03*
%TD*%
%TO.C,G11*%
X92633999Y-35719999D03*
X89811699Y-35719999D03*
%TD*%
%TO.C,G25*%
X112433999Y-45879999D03*
X109611699Y-45879999D03*
%TD*%
%TO.C,G17*%
X92633999Y-50959999D03*
X89811699Y-50959999D03*
%TD*%
%TO.C,G6*%
X72833999Y-48419999D03*
X70011699Y-48419999D03*
%TD*%
%TO.C,G78*%
X112433999Y-83439999D03*
X109611699Y-83439999D03*
%TD*%
%TO.C,G100*%
X152033999Y-88519999D03*
X149211699Y-88519999D03*
%TD*%
%TO.C,G95*%
X152033999Y-75819999D03*
X149211699Y-75819999D03*
%TD*%
%TO.C,G93*%
X152033999Y-70739999D03*
X149211699Y-70739999D03*
%TD*%
%TO.C,G41*%
X152033999Y-35719999D03*
X149211699Y-35719999D03*
%TD*%
%TO.C,G84*%
X132233999Y-73279999D03*
X129411699Y-73279999D03*
%TD*%
%TO.C,G47*%
X152033999Y-50959999D03*
X149211699Y-50959999D03*
%TD*%
%TO.C,G64*%
X92633999Y-73279999D03*
X89811699Y-73279999D03*
%TD*%
%TO.C,G51*%
X72833999Y-65659999D03*
X70011699Y-65659999D03*
%TD*%
D19*
%TO.C,U4*%
X175537499Y-184870001D03*
X175537499Y-186770001D03*
X173262499Y-186770001D03*
X173262499Y-185820001D03*
X173262499Y-184870001D03*
%TD*%
D10*
%TO.C,G63*%
X92633999Y-70739999D03*
X89811699Y-70739999D03*
%TD*%
D11*
%TO.C,Y1*%
X72289999Y-195640000D03*
X72289999Y-197840000D03*
X70589999Y-197840000D03*
X70589999Y-195640000D03*
%TD*%
D10*
%TO.C,G21*%
X112433999Y-35719999D03*
X109611699Y-35719999D03*
%TD*%
%TO.C,G85*%
X132233999Y-75819999D03*
X129411699Y-75819999D03*
%TD*%
%TO.C,G74*%
X112433999Y-73279999D03*
X109611699Y-73279999D03*
%TD*%
%TO.C,G62*%
X92633999Y-68199999D03*
X89811699Y-68199999D03*
%TD*%
%TO.C,G68*%
X92633999Y-83439999D03*
X89811699Y-83439999D03*
%TD*%
D16*
%TO.C,IC4*%
X174449998Y-197940002D03*
X172149998Y-198890002D03*
X172149998Y-196990002D03*
%TD*%
D10*
%TO.C,G79*%
X112433999Y-85979999D03*
X109611699Y-85979999D03*
%TD*%
%TO.C,G42*%
X152033999Y-38259999D03*
X149211699Y-38259999D03*
%TD*%
D20*
%TO.C,U3*%
X178369998Y-144080001D03*
X180269998Y-144080001D03*
X180269998Y-146080001D03*
D21*
X178569998Y-146080001D03*
%TD*%
D10*
%TO.C,G19*%
X92633999Y-56039999D03*
X89811699Y-56039999D03*
%TD*%
%TO.C,G14*%
X92633999Y-43339999D03*
X89811699Y-43339999D03*
%TD*%
%TO.C,G89*%
X132233999Y-85979999D03*
X129411699Y-85979999D03*
%TD*%
%TO.C,G27*%
X112433999Y-50959999D03*
X109611699Y-50959999D03*
%TD*%
%TO.C,G35*%
X132233999Y-45879999D03*
X129411699Y-45879999D03*
%TD*%
D16*
%TO.C,IC5*%
X176989998Y-203020002D03*
X174689998Y-203970002D03*
X174689998Y-202070002D03*
%TD*%
D10*
%TO.C,G80*%
X112433999Y-88519999D03*
X109611699Y-88519999D03*
%TD*%
%TO.C,G43*%
X152033999Y-40799999D03*
X149211699Y-40799999D03*
%TD*%
%TO.C,G36*%
X132233999Y-48419999D03*
X129411699Y-48419999D03*
%TD*%
%TO.C,G46*%
X152033999Y-48419999D03*
X149211699Y-48419999D03*
%TD*%
%TO.C,G7*%
X72833999Y-50959999D03*
X70011699Y-50959999D03*
%TD*%
%TO.C,G82*%
X132233999Y-68199999D03*
X129411699Y-68199999D03*
%TD*%
%TO.C,G32*%
X132233999Y-38259999D03*
X129411699Y-38259999D03*
%TD*%
%TO.C,G34*%
X132233999Y-43339999D03*
X129411699Y-43339999D03*
%TD*%
%TO.C,G72*%
X112433999Y-68199999D03*
X109611699Y-68199999D03*
%TD*%
%TO.C,G18*%
X92633999Y-53499999D03*
X89811699Y-53499999D03*
%TD*%
%TO.C,G97*%
X152033999Y-80899999D03*
X149211699Y-80899999D03*
%TD*%
%TO.C,G31*%
X132233999Y-35719999D03*
X129411699Y-35719999D03*
%TD*%
%TO.C,G59*%
X72833999Y-85979999D03*
X70011699Y-85979999D03*
%TD*%
%TO.C,G30*%
X112433999Y-58579999D03*
X109611699Y-58579999D03*
%TD*%
%TO.C,G15*%
X92633999Y-45879999D03*
X89811699Y-45879999D03*
%TD*%
%TO.C,G92*%
X152033999Y-68199999D03*
X149211699Y-68199999D03*
%TD*%
%TO.C,G77*%
X112433999Y-80899999D03*
X109611699Y-80899999D03*
%TD*%
%TO.C,G9*%
X72833999Y-56039999D03*
X70011699Y-56039999D03*
%TD*%
%TO.C,G8*%
X72833999Y-53499999D03*
X70011699Y-53499999D03*
%TD*%
%TO.C,G81*%
X132233999Y-65659999D03*
X129411699Y-65659999D03*
%TD*%
%TO.C,G1*%
X72833999Y-35719999D03*
X70011699Y-35719999D03*
%TD*%
D16*
%TO.C,IC3*%
X157209998Y-203020002D03*
X154909998Y-203970002D03*
X154909998Y-202070002D03*
%TD*%
D10*
%TO.C,G55*%
X72833999Y-75819999D03*
X70011699Y-75819999D03*
%TD*%
%TO.C,G49*%
X152033999Y-56039999D03*
X149211699Y-56039999D03*
%TD*%
%TO.C,G52*%
X72833999Y-68199999D03*
X70011699Y-68199999D03*
%TD*%
%TO.C,G4*%
X72833999Y-43339999D03*
X70011699Y-43339999D03*
%TD*%
%TO.C,G38*%
X132233999Y-53499999D03*
X129411699Y-53499999D03*
%TD*%
%TO.C,G65*%
X92633999Y-75819999D03*
X89811699Y-75819999D03*
%TD*%
%TO.C,G61*%
X92633999Y-65659999D03*
X89811699Y-65659999D03*
%TD*%
D11*
%TO.C,Y3*%
X111849999Y-195640000D03*
X111849999Y-197840000D03*
X110149999Y-197840000D03*
X110149999Y-195640000D03*
%TD*%
D10*
%TO.C,G10*%
X72833999Y-58579999D03*
X70011699Y-58579999D03*
%TD*%
%TO.C,G26*%
X112433999Y-48419999D03*
X109611699Y-48419999D03*
%TD*%
%TO.C,G99*%
X152033999Y-85979999D03*
X149211699Y-85979999D03*
%TD*%
%TO.C,G56*%
X72833999Y-78359999D03*
X70011699Y-78359999D03*
%TD*%
%TO.C,G2*%
X72833999Y-38259999D03*
X70011699Y-38259999D03*
%TD*%
%TO.C,G22*%
X112433999Y-38259999D03*
X109611699Y-38259999D03*
%TD*%
%TO.C,G87*%
X132233999Y-80899999D03*
X129411699Y-80899999D03*
%TD*%
%TO.C,G44*%
X152033999Y-43339999D03*
X149211699Y-43339999D03*
%TD*%
%TO.C,G83*%
X132233999Y-70739999D03*
X129411699Y-70739999D03*
%TD*%
%TO.C,G67*%
X92633999Y-80899999D03*
X89811699Y-80899999D03*
%TD*%
%TO.C,G37*%
X132233999Y-50959999D03*
X129411699Y-50959999D03*
%TD*%
%TO.C,G28*%
X112433999Y-53499999D03*
X109611699Y-53499999D03*
%TD*%
%TO.C,G3*%
X72833999Y-40799999D03*
X70011699Y-40799999D03*
%TD*%
%TO.C,G54*%
X72833999Y-73279999D03*
X70011699Y-73279999D03*
%TD*%
%TO.C,G29*%
X112433999Y-56039999D03*
X109611699Y-56039999D03*
%TD*%
D19*
%TO.C,U2*%
X155757499Y-184870001D03*
X155757499Y-186770001D03*
X153482499Y-186770001D03*
X153482499Y-185820001D03*
X153482499Y-184870001D03*
%TD*%
D10*
%TO.C,G60*%
X72833999Y-88519999D03*
X70011699Y-88519999D03*
%TD*%
%TO.C,G20*%
X92633999Y-58579999D03*
X89811699Y-58579999D03*
%TD*%
D22*
%TO.C,USB1*%
X175897600Y-49310002D03*
X175122600Y-49310002D03*
D23*
X174422600Y-49310002D03*
X173922600Y-49310002D03*
X173422600Y-49310002D03*
X172922600Y-49310002D03*
X172422600Y-49310002D03*
X171922600Y-49310002D03*
X171422600Y-49310002D03*
X170922600Y-49310002D03*
D22*
X170222600Y-49310002D03*
X169447600Y-49310002D03*
%TD*%
D10*
%TO.C,G96*%
X152033999Y-78359999D03*
X149211699Y-78359999D03*
%TD*%
%TO.C,G45*%
X152033999Y-45879999D03*
X149211699Y-45879999D03*
%TD*%
D24*
%TO.C,U1*%
X103039999Y-143320000D03*
D25*
X98620582Y-142860381D03*
X98903424Y-142577538D03*
X99186267Y-142294695D03*
X99469110Y-142011852D03*
X99751952Y-141729010D03*
X100034795Y-141446167D03*
X100317638Y-141163324D03*
X100600481Y-140880482D03*
X100883323Y-140597639D03*
X101166166Y-140314796D03*
X101449009Y-140031953D03*
X101731851Y-139749111D03*
X102014694Y-139466268D03*
X102297537Y-139183425D03*
X102580380Y-138900583D03*
D26*
X103499618Y-138900583D03*
X103782461Y-139183425D03*
X104065304Y-139466268D03*
X104348147Y-139749111D03*
X104630989Y-140031953D03*
X104913832Y-140314796D03*
X105196675Y-140597639D03*
X105479517Y-140880482D03*
X105762360Y-141163324D03*
X106045203Y-141446167D03*
X106328046Y-141729010D03*
X106610888Y-142011852D03*
X106893731Y-142294695D03*
X107176574Y-142577538D03*
X107459416Y-142860381D03*
D25*
X107459416Y-143779619D03*
X107176574Y-144062462D03*
X106893731Y-144345305D03*
X106610888Y-144628148D03*
X106328046Y-144910990D03*
X106045203Y-145193833D03*
X105762360Y-145476676D03*
X105479517Y-145759518D03*
X105196675Y-146042361D03*
X104913832Y-146325204D03*
X104630989Y-146608047D03*
X104348147Y-146890889D03*
X104065304Y-147173732D03*
X103782461Y-147456575D03*
X103499618Y-147739417D03*
D26*
X102580380Y-147739417D03*
X102297537Y-147456575D03*
X102014694Y-147173732D03*
X101731851Y-146890889D03*
X101449009Y-146608047D03*
X101166166Y-146325204D03*
X100883323Y-146042361D03*
X100600481Y-145759518D03*
X100317638Y-145476676D03*
X100034795Y-145193833D03*
X99751952Y-144910990D03*
X99469110Y-144628148D03*
X99186267Y-144345305D03*
X98903424Y-144062462D03*
X98620582Y-143779619D03*
%TD*%
D10*
%TO.C,G48*%
X152033999Y-53499999D03*
X149211699Y-53499999D03*
%TD*%
M02*
