%TF.GenerationSoftware,KiCad,Pcbnew,(6.0.2)*%
%TF.CreationDate,2022-03-17T14:33:33-04:00*%
%TF.ProjectId,Panel,50616e65-6c2e-46b6-9963-61645f706362,rev?*%
%TF.SameCoordinates,Original*%
%TF.FileFunction,Paste,Top*%
%TF.FilePolarity,Positive*%
%FSLAX46Y46*%
G04 Gerber Fmt 4.6, Leading zero omitted, Abs format (unit mm)*
G04 Created by KiCad (PCBNEW (6.0.2)) date 2022-03-17 14:33:33*
%MOMM*%
%LPD*%
G01*
G04 APERTURE LIST*
G04 Aperture macros list*
%AMRoundRect*
0 Rectangle with rounded corners*
0 $1 Rounding radius*
0 $2 $3 $4 $5 $6 $7 $8 $9 X,Y pos of 4 corners*
0 Add a 4 corners polygon primitive as box body*
4,1,4,$2,$3,$4,$5,$6,$7,$8,$9,$2,$3,0*
0 Add four circle primitives for the rounded corners*
1,1,$1+$1,$2,$3*
1,1,$1+$1,$4,$5*
1,1,$1+$1,$6,$7*
1,1,$1+$1,$8,$9*
0 Add four rect primitives between the rounded corners*
20,1,$1+$1,$2,$3,$4,$5,0*
20,1,$1+$1,$4,$5,$6,$7,0*
20,1,$1+$1,$6,$7,$8,$9,0*
20,1,$1+$1,$8,$9,$2,$3,0*%
%AMRotRect*
0 Rectangle, with rotation*
0 The origin of the aperture is its center*
0 $1 length*
0 $2 width*
0 $3 Rotation angle, in degrees counterclockwise*
0 Add horizontal line*
21,1,$1,$2,0,0,$3*%
G04 Aperture macros list end*
%ADD10RoundRect,0.289474X-0.535526X-0.585526X0.535526X-0.585526X0.535526X0.585526X-0.535526X0.585526X0*%
%ADD11R,1.200000X1.400000*%
%ADD12RotRect,0.600000X1.475000X135.000000*%
%ADD13RotRect,0.600000X1.475000X45.000000*%
%ADD14R,0.700000X1.000000*%
%ADD15R,0.700000X0.600000*%
%ADD16R,1.050000X0.700000*%
%ADD17R,0.300000X1.000000*%
%ADD18R,2.000000X1.300000*%
%ADD19RoundRect,0.150000X-0.512500X-0.150000X0.512500X-0.150000X0.512500X0.150000X-0.512500X0.150000X0*%
%ADD20R,1.000000X0.700000*%
%ADD21R,0.600000X0.700000*%
%ADD22R,0.600000X1.450000*%
%ADD23R,0.300000X1.450000*%
%ADD24RotRect,0.200000X0.850000X135.000000*%
%ADD25RotRect,0.200000X0.850000X45.000000*%
%ADD26RotRect,5.550000X5.550000X45.000000*%
G04 APERTURE END LIST*
D10*
%TO.C,G70*%
X67891700Y-81669999D03*
X70714000Y-81669999D03*
%TD*%
%TO.C,G23*%
X87691700Y-33949999D03*
X90514000Y-33949999D03*
%TD*%
%TO.C,G91*%
X127291700Y-58809999D03*
X130114000Y-58809999D03*
%TD*%
%TO.C,G16*%
X67891700Y-41569999D03*
X70714000Y-41569999D03*
%TD*%
%TO.C,G75*%
X87691700Y-68969999D03*
X90514000Y-68969999D03*
%TD*%
%TO.C,G50*%
X127291700Y-51729999D03*
X130114000Y-51729999D03*
%TD*%
D11*
%TO.C,Y2*%
X68450000Y-188790000D03*
X68450000Y-190990000D03*
X70150000Y-190990000D03*
X70150000Y-188790000D03*
%TD*%
D12*
%TO.C,IC1*%
X73938367Y-105218952D03*
X74504052Y-105784637D03*
X75069738Y-106350322D03*
X75635423Y-106916008D03*
X76201109Y-107481693D03*
X76766794Y-108047379D03*
X77332480Y-108613064D03*
X77898165Y-109178750D03*
X78463850Y-109744435D03*
X79029536Y-110310120D03*
X79595221Y-110875806D03*
X80160907Y-111441491D03*
X80726592Y-112007177D03*
X81292278Y-112572862D03*
X81857963Y-113138548D03*
X82423648Y-113704233D03*
D13*
X84881552Y-113704233D03*
X85447237Y-113138548D03*
X86012922Y-112572862D03*
X86578608Y-112007177D03*
X87144293Y-111441491D03*
X87709979Y-110875806D03*
X88275664Y-110310120D03*
X88841350Y-109744435D03*
X89407035Y-109178750D03*
X89972720Y-108613064D03*
X90538406Y-108047379D03*
X91104091Y-107481693D03*
X91669777Y-106916008D03*
X92235462Y-106350322D03*
X92801148Y-105784637D03*
X93366833Y-105218952D03*
D12*
X93366833Y-102761048D03*
X92801148Y-102195363D03*
X92235462Y-101629678D03*
X91669777Y-101063992D03*
X91104091Y-100498307D03*
X90538406Y-99932621D03*
X89972720Y-99366936D03*
X89407035Y-98801250D03*
X88841350Y-98235565D03*
X88275664Y-97669880D03*
X87709979Y-97104194D03*
X87144293Y-96538509D03*
X86578608Y-95972823D03*
X86012922Y-95407138D03*
X85447237Y-94841452D03*
X84881552Y-94275767D03*
D13*
X82423648Y-94275767D03*
X81857963Y-94841452D03*
X81292278Y-95407138D03*
X80726592Y-95972823D03*
X80160907Y-96538509D03*
X79595221Y-97104194D03*
X79029536Y-97669880D03*
X78463850Y-98235565D03*
X77898165Y-98801250D03*
X77332480Y-99366936D03*
X76766794Y-99932621D03*
X76201109Y-100498307D03*
X75635423Y-101063992D03*
X75069738Y-101629678D03*
X74504052Y-102195363D03*
X73938367Y-102761048D03*
%TD*%
D10*
%TO.C,G53*%
X48091700Y-63889999D03*
X50914000Y-63889999D03*
%TD*%
%TO.C,G90*%
X107491700Y-81669999D03*
X110314000Y-81669999D03*
%TD*%
%TO.C,G13*%
X67891700Y-33949999D03*
X70714000Y-33949999D03*
%TD*%
%TO.C,G40*%
X107491700Y-51729999D03*
X110314000Y-51729999D03*
%TD*%
D14*
%TO.C,U3*%
X110020001Y-191270000D03*
D15*
X110020001Y-189570000D03*
X108020001Y-189570000D03*
X108020001Y-191470000D03*
%TD*%
D10*
%TO.C,G66*%
X67891700Y-71509999D03*
X70714000Y-71509999D03*
%TD*%
%TO.C,G86*%
X107491700Y-71509999D03*
X110314000Y-71509999D03*
%TD*%
%TO.C,G33*%
X107491700Y-33949999D03*
X110314000Y-33949999D03*
%TD*%
%TO.C,G73*%
X87691700Y-63889999D03*
X90514000Y-63889999D03*
%TD*%
%TO.C,G57*%
X48091700Y-74049999D03*
X50914000Y-74049999D03*
%TD*%
D16*
%TO.C,IC2*%
X130449999Y-190140002D03*
X130449999Y-192040002D03*
X132749999Y-191090002D03*
%TD*%
D17*
%TO.C,UOLED1*%
X136822600Y-92165000D03*
X137322600Y-92165000D03*
X137822600Y-92165000D03*
X138322600Y-92165000D03*
X138822600Y-92165000D03*
X139322600Y-92165000D03*
X139822600Y-92165000D03*
X140322600Y-92165000D03*
X140822600Y-92165000D03*
X141322600Y-92165000D03*
X141822600Y-92165000D03*
X142322600Y-92165000D03*
X142822600Y-92165000D03*
X143322600Y-92165000D03*
X143822600Y-92165000D03*
X144322600Y-92165000D03*
X144822600Y-92165000D03*
X145322600Y-92165000D03*
X145822600Y-92165000D03*
X146322600Y-92165000D03*
X146822600Y-92165000D03*
X147322600Y-92165000D03*
X147822600Y-92165000D03*
X148322600Y-92165000D03*
X148822600Y-92165000D03*
X149322600Y-92165000D03*
X149822600Y-92165000D03*
X150322600Y-92165000D03*
X150822600Y-92165000D03*
X151322600Y-92165000D03*
D18*
X134522600Y-94865000D03*
X153622600Y-94865000D03*
%TD*%
D10*
%TO.C,G39*%
X107491700Y-49189999D03*
X110314000Y-49189999D03*
%TD*%
%TO.C,G24*%
X87691700Y-36489999D03*
X90514000Y-36489999D03*
%TD*%
%TO.C,G5*%
X48091700Y-39029999D03*
X50914000Y-39029999D03*
%TD*%
%TO.C,G12*%
X67891700Y-31409999D03*
X70714000Y-31409999D03*
%TD*%
%TO.C,G76*%
X87691700Y-71509999D03*
X90514000Y-71509999D03*
%TD*%
%TO.C,G71*%
X87691700Y-58809999D03*
X90514000Y-58809999D03*
%TD*%
%TO.C,G88*%
X107491700Y-76589999D03*
X110314000Y-76589999D03*
%TD*%
%TO.C,G94*%
X127291700Y-66429999D03*
X130114000Y-66429999D03*
%TD*%
%TO.C,G58*%
X48091700Y-76589999D03*
X50914000Y-76589999D03*
%TD*%
%TO.C,G69*%
X67891700Y-79129999D03*
X70714000Y-79129999D03*
%TD*%
%TO.C,G98*%
X127291700Y-76589999D03*
X130114000Y-76589999D03*
%TD*%
%TO.C,G11*%
X67891700Y-28869999D03*
X70714000Y-28869999D03*
%TD*%
%TO.C,G25*%
X87691700Y-39029999D03*
X90514000Y-39029999D03*
%TD*%
%TO.C,G17*%
X67891700Y-44109999D03*
X70714000Y-44109999D03*
%TD*%
%TO.C,G6*%
X48091700Y-41569999D03*
X50914000Y-41569999D03*
%TD*%
%TO.C,G78*%
X87691700Y-76589999D03*
X90514000Y-76589999D03*
%TD*%
%TO.C,G100*%
X127291700Y-81669999D03*
X130114000Y-81669999D03*
%TD*%
%TO.C,G95*%
X127291700Y-68969999D03*
X130114000Y-68969999D03*
%TD*%
%TO.C,G93*%
X127291700Y-63889999D03*
X130114000Y-63889999D03*
%TD*%
%TO.C,G41*%
X127291700Y-28869999D03*
X130114000Y-28869999D03*
%TD*%
%TO.C,G84*%
X107491700Y-66429999D03*
X110314000Y-66429999D03*
%TD*%
%TO.C,G47*%
X127291700Y-44109999D03*
X130114000Y-44109999D03*
%TD*%
%TO.C,G64*%
X67891700Y-66429999D03*
X70714000Y-66429999D03*
%TD*%
%TO.C,G51*%
X48091700Y-58809999D03*
X50914000Y-58809999D03*
%TD*%
D19*
%TO.C,U4*%
X151342500Y-178020001D03*
X151342500Y-178970001D03*
X151342500Y-179920001D03*
X153617500Y-179920001D03*
X153617500Y-178020001D03*
%TD*%
D10*
%TO.C,G63*%
X67891700Y-63889999D03*
X70714000Y-63889999D03*
%TD*%
D11*
%TO.C,Y1*%
X48670000Y-188790000D03*
X48670000Y-190990000D03*
X50370000Y-190990000D03*
X50370000Y-188790000D03*
%TD*%
D10*
%TO.C,G21*%
X87691700Y-28869999D03*
X90514000Y-28869999D03*
%TD*%
%TO.C,G85*%
X107491700Y-68969999D03*
X110314000Y-68969999D03*
%TD*%
%TO.C,G74*%
X87691700Y-66429999D03*
X90514000Y-66429999D03*
%TD*%
%TO.C,G62*%
X67891700Y-61349999D03*
X70714000Y-61349999D03*
%TD*%
%TO.C,G68*%
X67891700Y-76589999D03*
X70714000Y-76589999D03*
%TD*%
D16*
%TO.C,IC4*%
X150229999Y-190140002D03*
X150229999Y-192040002D03*
X152529999Y-191090002D03*
%TD*%
D10*
%TO.C,G79*%
X87691700Y-79129999D03*
X90514000Y-79129999D03*
%TD*%
%TO.C,G42*%
X127291700Y-31409999D03*
X130114000Y-31409999D03*
%TD*%
D20*
%TO.C,U3*%
X156649999Y-139230001D03*
D21*
X158349999Y-139230001D03*
X158349999Y-137230001D03*
X156449999Y-137230001D03*
%TD*%
D10*
%TO.C,G19*%
X67891700Y-49189999D03*
X70714000Y-49189999D03*
%TD*%
%TO.C,G14*%
X67891700Y-36489999D03*
X70714000Y-36489999D03*
%TD*%
%TO.C,G89*%
X107491700Y-79129999D03*
X110314000Y-79129999D03*
%TD*%
%TO.C,G27*%
X87691700Y-44109999D03*
X90514000Y-44109999D03*
%TD*%
%TO.C,G35*%
X107491700Y-39029999D03*
X110314000Y-39029999D03*
%TD*%
D16*
%TO.C,IC5*%
X152769999Y-195220002D03*
X152769999Y-197120002D03*
X155069999Y-196170002D03*
%TD*%
D10*
%TO.C,G80*%
X87691700Y-81669999D03*
X90514000Y-81669999D03*
%TD*%
%TO.C,G43*%
X127291700Y-33949999D03*
X130114000Y-33949999D03*
%TD*%
%TO.C,G36*%
X107491700Y-41569999D03*
X110314000Y-41569999D03*
%TD*%
%TO.C,G46*%
X127291700Y-41569999D03*
X130114000Y-41569999D03*
%TD*%
%TO.C,G7*%
X48091700Y-44109999D03*
X50914000Y-44109999D03*
%TD*%
%TO.C,G82*%
X107491700Y-61349999D03*
X110314000Y-61349999D03*
%TD*%
%TO.C,G32*%
X107491700Y-31409999D03*
X110314000Y-31409999D03*
%TD*%
%TO.C,G34*%
X107491700Y-36489999D03*
X110314000Y-36489999D03*
%TD*%
%TO.C,G72*%
X87691700Y-61349999D03*
X90514000Y-61349999D03*
%TD*%
%TO.C,G18*%
X67891700Y-46649999D03*
X70714000Y-46649999D03*
%TD*%
%TO.C,G97*%
X127291700Y-74049999D03*
X130114000Y-74049999D03*
%TD*%
%TO.C,G31*%
X107491700Y-28869999D03*
X110314000Y-28869999D03*
%TD*%
%TO.C,G59*%
X48091700Y-79129999D03*
X50914000Y-79129999D03*
%TD*%
%TO.C,G30*%
X87691700Y-51729999D03*
X90514000Y-51729999D03*
%TD*%
%TO.C,G15*%
X67891700Y-39029999D03*
X70714000Y-39029999D03*
%TD*%
%TO.C,G92*%
X127291700Y-61349999D03*
X130114000Y-61349999D03*
%TD*%
%TO.C,G77*%
X87691700Y-74049999D03*
X90514000Y-74049999D03*
%TD*%
%TO.C,G9*%
X48091700Y-49189999D03*
X50914000Y-49189999D03*
%TD*%
%TO.C,G8*%
X48091700Y-46649999D03*
X50914000Y-46649999D03*
%TD*%
%TO.C,G81*%
X107491700Y-58809999D03*
X110314000Y-58809999D03*
%TD*%
%TO.C,G1*%
X48091700Y-28869999D03*
X50914000Y-28869999D03*
%TD*%
D16*
%TO.C,IC3*%
X132989999Y-195220002D03*
X132989999Y-197120002D03*
X135289999Y-196170002D03*
%TD*%
D10*
%TO.C,G55*%
X48091700Y-68969999D03*
X50914000Y-68969999D03*
%TD*%
%TO.C,G49*%
X127291700Y-49189999D03*
X130114000Y-49189999D03*
%TD*%
%TO.C,G52*%
X48091700Y-61349999D03*
X50914000Y-61349999D03*
%TD*%
%TO.C,G4*%
X48091700Y-36489999D03*
X50914000Y-36489999D03*
%TD*%
%TO.C,G38*%
X107491700Y-46649999D03*
X110314000Y-46649999D03*
%TD*%
%TO.C,G65*%
X67891700Y-68969999D03*
X70714000Y-68969999D03*
%TD*%
%TO.C,G61*%
X67891700Y-58809999D03*
X70714000Y-58809999D03*
%TD*%
D11*
%TO.C,Y3*%
X88230000Y-188790000D03*
X88230000Y-190990000D03*
X89930000Y-190990000D03*
X89930000Y-188790000D03*
%TD*%
D10*
%TO.C,G10*%
X48091700Y-51729999D03*
X50914000Y-51729999D03*
%TD*%
%TO.C,G26*%
X87691700Y-41569999D03*
X90514000Y-41569999D03*
%TD*%
%TO.C,G99*%
X127291700Y-79129999D03*
X130114000Y-79129999D03*
%TD*%
%TO.C,G56*%
X48091700Y-71509999D03*
X50914000Y-71509999D03*
%TD*%
%TO.C,G2*%
X48091700Y-31409999D03*
X50914000Y-31409999D03*
%TD*%
%TO.C,G22*%
X87691700Y-31409999D03*
X90514000Y-31409999D03*
%TD*%
%TO.C,G87*%
X107491700Y-74049999D03*
X110314000Y-74049999D03*
%TD*%
%TO.C,G44*%
X127291700Y-36489999D03*
X130114000Y-36489999D03*
%TD*%
%TO.C,G83*%
X107491700Y-63889999D03*
X110314000Y-63889999D03*
%TD*%
%TO.C,G67*%
X67891700Y-74049999D03*
X70714000Y-74049999D03*
%TD*%
%TO.C,G37*%
X107491700Y-44109999D03*
X110314000Y-44109999D03*
%TD*%
%TO.C,G28*%
X87691700Y-46649999D03*
X90514000Y-46649999D03*
%TD*%
%TO.C,G3*%
X48091700Y-33949999D03*
X50914000Y-33949999D03*
%TD*%
%TO.C,G54*%
X48091700Y-66429999D03*
X50914000Y-66429999D03*
%TD*%
%TO.C,G29*%
X87691700Y-49189999D03*
X90514000Y-49189999D03*
%TD*%
D19*
%TO.C,U2*%
X131562500Y-178020001D03*
X131562500Y-178970001D03*
X131562500Y-179920001D03*
X133837500Y-179920001D03*
X133837500Y-178020001D03*
%TD*%
D10*
%TO.C,G60*%
X48091700Y-81669999D03*
X50914000Y-81669999D03*
%TD*%
%TO.C,G20*%
X67891700Y-51729999D03*
X70714000Y-51729999D03*
%TD*%
D22*
%TO.C,USB1*%
X147527601Y-42460002D03*
X148302601Y-42460002D03*
D23*
X149002601Y-42460002D03*
X149502601Y-42460002D03*
X150002601Y-42460002D03*
X150502601Y-42460002D03*
X151002601Y-42460002D03*
X151502601Y-42460002D03*
X152002601Y-42460002D03*
X152502601Y-42460002D03*
D22*
X153202601Y-42460002D03*
X153977601Y-42460002D03*
%TD*%
D10*
%TO.C,G96*%
X127291700Y-71509999D03*
X130114000Y-71509999D03*
%TD*%
%TO.C,G45*%
X127291700Y-39029999D03*
X130114000Y-39029999D03*
%TD*%
D24*
%TO.C,U1*%
X76700583Y-136929619D03*
X76983425Y-137212462D03*
X77266268Y-137495305D03*
X77549111Y-137778148D03*
X77831953Y-138060990D03*
X78114796Y-138343833D03*
X78397639Y-138626676D03*
X78680482Y-138909518D03*
X78963324Y-139192361D03*
X79246167Y-139475204D03*
X79529010Y-139758047D03*
X79811852Y-140040889D03*
X80094695Y-140323732D03*
X80377538Y-140606575D03*
X80660381Y-140889417D03*
D25*
X81579619Y-140889417D03*
X81862462Y-140606575D03*
X82145305Y-140323732D03*
X82428148Y-140040889D03*
X82710990Y-139758047D03*
X82993833Y-139475204D03*
X83276676Y-139192361D03*
X83559518Y-138909518D03*
X83842361Y-138626676D03*
X84125204Y-138343833D03*
X84408047Y-138060990D03*
X84690889Y-137778148D03*
X84973732Y-137495305D03*
X85256575Y-137212462D03*
X85539417Y-136929619D03*
D24*
X85539417Y-136010381D03*
X85256575Y-135727538D03*
X84973732Y-135444695D03*
X84690889Y-135161852D03*
X84408047Y-134879010D03*
X84125204Y-134596167D03*
X83842361Y-134313324D03*
X83559518Y-134030482D03*
X83276676Y-133747639D03*
X82993833Y-133464796D03*
X82710990Y-133181953D03*
X82428148Y-132899111D03*
X82145305Y-132616268D03*
X81862462Y-132333425D03*
X81579619Y-132050583D03*
D25*
X80660381Y-132050583D03*
X80377538Y-132333425D03*
X80094695Y-132616268D03*
X79811852Y-132899111D03*
X79529010Y-133181953D03*
X79246167Y-133464796D03*
X78963324Y-133747639D03*
X78680482Y-134030482D03*
X78397639Y-134313324D03*
X78114796Y-134596167D03*
X77831953Y-134879010D03*
X77549111Y-135161852D03*
X77266268Y-135444695D03*
X76983425Y-135727538D03*
X76700583Y-136010381D03*
D26*
X81120000Y-136470000D03*
%TD*%
D10*
%TO.C,G48*%
X127291700Y-46649999D03*
X130114000Y-46649999D03*
%TD*%
M02*
