%TF.GenerationSoftware,KiCad,Pcbnew,(6.0.2)*%
%TF.CreationDate,2022-03-20T20:43:40-04:00*%
%TF.ProjectId,Panel,50616e65-6c2e-46b6-9963-61645f706362,rev?*%
%TF.SameCoordinates,Original*%
%TF.FileFunction,Soldermask,Top*%
%TF.FilePolarity,Negative*%
%FSLAX46Y46*%
G04 Gerber Fmt 4.6, Leading zero omitted, Abs format (unit mm)*
G04 Created by KiCad (PCBNEW (6.0.2)) date 2022-03-20 20:43:40*
%MOMM*%
%LPD*%
G01*
G04 APERTURE LIST*
G04 Aperture macros list*
%AMRoundRect*
0 Rectangle with rounded corners*
0 $1 Rounding radius*
0 $2 $3 $4 $5 $6 $7 $8 $9 X,Y pos of 4 corners*
0 Add a 4 corners polygon primitive as box body*
4,1,4,$2,$3,$4,$5,$6,$7,$8,$9,$2,$3,0*
0 Add four circle primitives for the rounded corners*
1,1,$1+$1,$2,$3*
1,1,$1+$1,$4,$5*
1,1,$1+$1,$6,$7*
1,1,$1+$1,$8,$9*
0 Add four rect primitives between the rounded corners*
20,1,$1+$1,$2,$3,$4,$5,0*
20,1,$1+$1,$4,$5,$6,$7,0*
20,1,$1+$1,$6,$7,$8,$9,0*
20,1,$1+$1,$8,$9,$2,$3,0*%
%AMRotRect*
0 Rectangle, with rotation*
0 The origin of the aperture is its center*
0 $1 length*
0 $2 width*
0 $3 Rotation angle, in degrees counterclockwise*
0 Add horizontal line*
21,1,$1,$2,0,0,$3*%
G04 Aperture macros list end*
%ADD10RoundRect,0.289474X-0.535526X-0.585526X0.535526X-0.585526X0.535526X0.585526X-0.535526X0.585526X0*%
%ADD11C,0.500000*%
%ADD12O,1.700000X1.700000*%
%ADD13R,1.700000X1.700000*%
%ADD14R,1.200000X1.400000*%
%ADD15RotRect,0.600000X1.475000X45.000000*%
%ADD16RotRect,0.600000X1.475000X135.000000*%
%ADD17R,0.700000X0.600000*%
%ADD18R,0.700000X1.000000*%
%ADD19R,1.050000X0.700000*%
%ADD20R,2.000000X1.300000*%
%ADD21R,0.300000X1.000000*%
%ADD22C,3.987800*%
%ADD23RoundRect,0.150000X-0.512500X-0.150000X0.512500X-0.150000X0.512500X0.150000X-0.512500X0.150000X0*%
%ADD24R,0.600000X0.700000*%
%ADD25R,1.000000X0.700000*%
%ADD26C,2.000000*%
%ADD27R,3.000000X2.500000*%
%ADD28R,2.000000X2.000000*%
%ADD29R,0.600000X1.450000*%
%ADD30R,0.300000X1.450000*%
%ADD31C,0.650000*%
%ADD32RotRect,5.550000X5.550000X45.000000*%
%ADD33RotRect,0.200000X0.850000X45.000000*%
%ADD34RotRect,0.200000X0.850000X135.000000*%
%ADD35C,4.500000*%
G04 APERTURE END LIST*
D10*
%TO.C,G70*%
X92633999Y-88519999D03*
X89811699Y-88519999D03*
%TD*%
D11*
%TO.C,mouse-bite-2mm-slot20*%
X70532599Y-62869998D03*
X71282599Y-61369998D03*
X72032599Y-61369998D03*
X72032599Y-62869998D03*
X71282599Y-62869998D03*
X70532599Y-61369998D03*
%TD*%
%TO.C,mouse-bite-2mm-slot*%
X70462599Y-130370000D03*
X71962599Y-130370000D03*
X71212599Y-128870000D03*
X71212599Y-130370000D03*
X71962599Y-128870000D03*
X70462599Y-128870000D03*
%TD*%
D12*
%TO.C,J36*%
X117232599Y-58579999D03*
X117232599Y-56039999D03*
X117232599Y-53499999D03*
X117232599Y-50959999D03*
X117232599Y-48419999D03*
X117232599Y-45879999D03*
X117232599Y-43339999D03*
X117232599Y-40799999D03*
X117232599Y-38259999D03*
D13*
X117232599Y-35719999D03*
%TD*%
D10*
%TO.C,G23*%
X112433999Y-40799999D03*
X109611699Y-40799999D03*
%TD*%
%TO.C,G91*%
X152033999Y-65659999D03*
X149211699Y-65659999D03*
%TD*%
%TO.C,G16*%
X92633999Y-48419999D03*
X89811699Y-48419999D03*
%TD*%
%TO.C,G75*%
X112433999Y-75819999D03*
X109611699Y-75819999D03*
%TD*%
D11*
%TO.C,mouse-bite-2mm-slot*%
X104462599Y-128870000D03*
X105212599Y-130370000D03*
X105212599Y-128870000D03*
X105962599Y-130370000D03*
X104462599Y-130370000D03*
X105962599Y-128870000D03*
%TD*%
%TO.C,mouse-bite-2mm-slot*%
X173212599Y-93170000D03*
X173962599Y-93170000D03*
X172462599Y-93170000D03*
%TD*%
D12*
%TO.C,J52*%
X180879999Y-183240001D03*
D13*
X180879999Y-185780001D03*
%TD*%
D12*
%TO.C,J50*%
X156832599Y-88519999D03*
X156832599Y-85979999D03*
X156832599Y-83439999D03*
X156832599Y-80899999D03*
X156832599Y-78359999D03*
X156832599Y-75819999D03*
X156832599Y-73279999D03*
X156832599Y-70739999D03*
X156832599Y-68199999D03*
D13*
X156832599Y-65659999D03*
%TD*%
D10*
%TO.C,G50*%
X152033999Y-58579999D03*
X149211699Y-58579999D03*
%TD*%
D14*
%TO.C,Y2*%
X92069999Y-195640000D03*
X92069999Y-197840000D03*
X90369999Y-197840000D03*
X90369999Y-195640000D03*
%TD*%
D15*
%TO.C,IC1*%
X95858366Y-109611048D03*
X96424051Y-109045363D03*
X96989737Y-108479678D03*
X97555422Y-107913992D03*
X98121108Y-107348307D03*
X98686793Y-106782621D03*
X99252479Y-106216936D03*
X99818164Y-105651250D03*
X100383849Y-105085565D03*
X100949535Y-104519880D03*
X101515220Y-103954194D03*
X102080906Y-103388509D03*
X102646591Y-102822823D03*
X103212277Y-102257138D03*
X103777962Y-101691452D03*
X104343647Y-101125767D03*
D16*
X106801551Y-101125767D03*
X107367236Y-101691452D03*
X107932921Y-102257138D03*
X108498607Y-102822823D03*
X109064292Y-103388509D03*
X109629978Y-103954194D03*
X110195663Y-104519880D03*
X110761349Y-105085565D03*
X111327034Y-105651250D03*
X111892719Y-106216936D03*
X112458405Y-106782621D03*
X113024090Y-107348307D03*
X113589776Y-107913992D03*
X114155461Y-108479678D03*
X114721147Y-109045363D03*
X115286832Y-109611048D03*
D15*
X115286832Y-112068952D03*
X114721147Y-112634637D03*
X114155461Y-113200322D03*
X113589776Y-113766008D03*
X113024090Y-114331693D03*
X112458405Y-114897379D03*
X111892719Y-115463064D03*
X111327034Y-116028750D03*
X110761349Y-116594435D03*
X110195663Y-117160120D03*
X109629978Y-117725806D03*
X109064292Y-118291491D03*
X108498607Y-118857177D03*
X107932921Y-119422862D03*
X107367236Y-119988548D03*
X106801551Y-120554233D03*
D16*
X104343647Y-120554233D03*
X103777962Y-119988548D03*
X103212277Y-119422862D03*
X102646591Y-118857177D03*
X102080906Y-118291491D03*
X101515220Y-117725806D03*
X100949535Y-117160120D03*
X100383849Y-116594435D03*
X99818164Y-116028750D03*
X99252479Y-115463064D03*
X98686793Y-114897379D03*
X98121108Y-114331693D03*
X97555422Y-113766008D03*
X96989737Y-113200322D03*
X96424051Y-112634637D03*
X95858366Y-112068952D03*
%TD*%
D10*
%TO.C,G53*%
X72833999Y-70739999D03*
X70011699Y-70739999D03*
%TD*%
D11*
%TO.C,mouse-bite-2mm-slot*%
X163889999Y-185110001D03*
X165389999Y-185110001D03*
X163889999Y-185860001D03*
X165389999Y-186610001D03*
X165389999Y-185860001D03*
X163889999Y-186610001D03*
%TD*%
D10*
%TO.C,G90*%
X132233999Y-88519999D03*
X129411699Y-88519999D03*
%TD*%
D12*
%TO.C,J19*%
X137160000Y-195580000D03*
D13*
X137160000Y-198120000D03*
%TD*%
D12*
%TO.C,JOLED1*%
X150752599Y-131520000D03*
X150752599Y-128980000D03*
X150752599Y-126440000D03*
X150752599Y-123900000D03*
X150752599Y-121360000D03*
X150752599Y-118820000D03*
X150752599Y-116280000D03*
X150752599Y-113740000D03*
X150752599Y-111200000D03*
X150752599Y-108660000D03*
X150752599Y-106120000D03*
X150752599Y-103580000D03*
X150752599Y-101040000D03*
X150752599Y-98500000D03*
D13*
X150752599Y-95960000D03*
%TD*%
D12*
%TO.C,J11*%
X64932599Y-95600000D03*
X67472599Y-95600000D03*
X70012599Y-95600000D03*
X72552599Y-95600000D03*
X75092599Y-95600000D03*
X77632599Y-95600000D03*
X80172599Y-95600000D03*
X82712599Y-95600000D03*
X85252599Y-95600000D03*
X87792599Y-95600000D03*
X90332599Y-95600000D03*
X92872599Y-95600000D03*
X95412599Y-95600000D03*
X97952599Y-95600000D03*
X100492599Y-95600000D03*
X103032599Y-95600000D03*
X105572599Y-95600000D03*
X108112599Y-95600000D03*
X110652599Y-95600000D03*
X113192599Y-95600000D03*
X115732599Y-95600000D03*
X118272599Y-95600000D03*
X120812599Y-95600000D03*
X123352599Y-95600000D03*
X125892599Y-95600000D03*
X128432599Y-95600000D03*
X130972599Y-95600000D03*
X133512599Y-95600000D03*
X136052599Y-95600000D03*
X138592599Y-95600000D03*
X141132599Y-95600000D03*
D13*
X143672599Y-95600000D03*
%TD*%
D11*
%TO.C,mouse-bite-2mm-slot10*%
X121542599Y-47969999D03*
X121542599Y-47219999D03*
X120042599Y-47219999D03*
X121542599Y-46469999D03*
X120042599Y-46469999D03*
X120042599Y-47969999D03*
%TD*%
D10*
%TO.C,G13*%
X92633999Y-40799999D03*
X89811699Y-40799999D03*
%TD*%
%TO.C,G40*%
X132233999Y-58579999D03*
X129411699Y-58579999D03*
%TD*%
D17*
%TO.C,U3*%
X129940000Y-198320000D03*
X129940000Y-196420000D03*
X131940000Y-196420000D03*
D18*
X131940000Y-198120000D03*
%TD*%
D10*
%TO.C,G66*%
X92633999Y-78359999D03*
X89811699Y-78359999D03*
%TD*%
D11*
%TO.C,mouse-bite-2mm-slot36*%
X151232599Y-62869998D03*
X150482599Y-62869998D03*
X151232599Y-61369998D03*
X149732599Y-62869998D03*
X150482599Y-61369998D03*
X149732599Y-61369998D03*
%TD*%
D12*
%TO.C,J43*%
X84732599Y-88519999D03*
X84732599Y-85979999D03*
X84732599Y-83439999D03*
X84732599Y-80899999D03*
X84732599Y-78359999D03*
X84732599Y-75819999D03*
X84732599Y-73279999D03*
X84732599Y-70739999D03*
X84732599Y-68199999D03*
D13*
X84732599Y-65659999D03*
%TD*%
D11*
%TO.C,mouse-bite-2mm-slot22*%
X80442599Y-77159999D03*
X80442599Y-76409999D03*
X81942599Y-76409999D03*
X81942599Y-77159999D03*
X80442599Y-77909999D03*
X81942599Y-77909999D03*
%TD*%
%TO.C,mouse-bite-2mm-slot*%
X82109999Y-196100000D03*
X82109999Y-196850000D03*
X80609999Y-197600000D03*
X80609999Y-196100000D03*
X82109999Y-197600000D03*
X80609999Y-196850000D03*
%TD*%
D10*
%TO.C,G86*%
X132233999Y-78359999D03*
X129411699Y-78359999D03*
%TD*%
%TO.C,G33*%
X132233999Y-40799999D03*
X129411699Y-40799999D03*
%TD*%
%TO.C,G73*%
X112433999Y-70739999D03*
X109611699Y-70739999D03*
%TD*%
%TO.C,G57*%
X72833999Y-80899999D03*
X70011699Y-80899999D03*
%TD*%
D11*
%TO.C,mouse-bite-2mm-slot*%
X111629999Y-191290000D03*
X111629999Y-192790000D03*
X110129999Y-191290000D03*
X110129999Y-192790000D03*
X110879999Y-192790000D03*
X110879999Y-191290000D03*
%TD*%
D12*
%TO.C,J32*%
X65119999Y-188500000D03*
D13*
X67659999Y-188500000D03*
%TD*%
D12*
%TO.C,J45*%
X104532599Y-88519999D03*
X104532599Y-85979999D03*
X104532599Y-83439999D03*
X104532599Y-80899999D03*
X104532599Y-78359999D03*
X104532599Y-75819999D03*
X104532599Y-73279999D03*
X104532599Y-70739999D03*
X104532599Y-68199999D03*
D13*
X104532599Y-65659999D03*
%TD*%
D19*
%TO.C,IC2*%
X154669998Y-197940002D03*
X152369998Y-198890002D03*
X152369998Y-196990002D03*
%TD*%
D12*
%TO.C,J26*%
X168180000Y-176160001D03*
X168180000Y-173620001D03*
D13*
X168180000Y-171080001D03*
%TD*%
D11*
%TO.C,mouse-bite-2mm-slot6*%
X100242599Y-47969999D03*
X100242599Y-47219999D03*
X101742599Y-47969999D03*
X101742599Y-46469999D03*
X100242599Y-46469999D03*
X101742599Y-47219999D03*
%TD*%
D20*
%TO.C,UOLED1*%
X175542599Y-101715000D03*
X156442599Y-101715000D03*
D21*
X173242599Y-99015000D03*
X172742599Y-99015000D03*
X172242599Y-99015000D03*
X171742599Y-99015000D03*
X171242599Y-99015000D03*
X170742599Y-99015000D03*
X170242599Y-99015000D03*
X169742599Y-99015000D03*
X169242599Y-99015000D03*
X168742599Y-99015000D03*
X168242599Y-99015000D03*
X167742599Y-99015000D03*
X167242599Y-99015000D03*
X166742599Y-99015000D03*
X166242599Y-99015000D03*
X165742599Y-99015000D03*
X165242599Y-99015000D03*
X164742599Y-99015000D03*
X164242599Y-99015000D03*
X163742599Y-99015000D03*
X163242599Y-99015000D03*
X162742599Y-99015000D03*
X162242599Y-99015000D03*
X161742599Y-99015000D03*
X161242599Y-99015000D03*
X160742599Y-99015000D03*
X160242599Y-99015000D03*
X159742599Y-99015000D03*
X159242599Y-99015000D03*
X158742599Y-99015000D03*
%TD*%
D11*
%TO.C,mouse-bite-2mm-slot2*%
X81942599Y-47219999D03*
X81942599Y-46469999D03*
X80442599Y-46469999D03*
X80442599Y-47219999D03*
X81942599Y-47969999D03*
X80442599Y-47969999D03*
%TD*%
%TO.C,mouse-bite-2mm-slot*%
X80422600Y-47969999D03*
X81922600Y-47219999D03*
X81922600Y-47969999D03*
X81922600Y-46469999D03*
X80422600Y-47219999D03*
X80422600Y-46469999D03*
%TD*%
D10*
%TO.C,G39*%
X132233999Y-56039999D03*
X129411699Y-56039999D03*
%TD*%
D22*
%TO.C,MX1*%
X132519999Y-174340000D03*
%TD*%
D12*
%TO.C,J34*%
X97432599Y-58579999D03*
X97432599Y-56039999D03*
X97432599Y-53499999D03*
X97432599Y-50959999D03*
X97432599Y-48419999D03*
X97432599Y-45879999D03*
X97432599Y-43339999D03*
X97432599Y-40799999D03*
X97432599Y-38259999D03*
D13*
X97432599Y-35719999D03*
%TD*%
D10*
%TO.C,G24*%
X112433999Y-43339999D03*
X109611699Y-43339999D03*
%TD*%
D11*
%TO.C,mouse-bite-2mm-slot*%
X173942600Y-88329999D03*
X172442600Y-88329999D03*
X173192600Y-88329999D03*
%TD*%
D12*
%TO.C,J30*%
X138779999Y-188559708D03*
D13*
X141319999Y-188559708D03*
%TD*%
D12*
%TO.C,J31*%
X65119999Y-160560000D03*
D13*
X67659999Y-160560000D03*
%TD*%
D12*
%TO.C,J53*%
X168219998Y-203020002D03*
X168219998Y-200480002D03*
X168219998Y-197940002D03*
D13*
X168219998Y-195400002D03*
%TD*%
D12*
%TO.C,J4*%
X77632599Y-58579999D03*
X77632599Y-56039999D03*
X77632599Y-53499999D03*
X77632599Y-50959999D03*
X77632599Y-48419999D03*
X77632599Y-45879999D03*
X77632599Y-43339999D03*
X77632599Y-40799999D03*
X77632599Y-38259999D03*
D13*
X77632599Y-35719999D03*
%TD*%
D10*
%TO.C,G5*%
X72833999Y-45879999D03*
X70011699Y-45879999D03*
%TD*%
D11*
%TO.C,mouse-bite-2mm-slot*%
X174889999Y-192610001D03*
X176389999Y-191110001D03*
X175639999Y-191110001D03*
X175639999Y-192610001D03*
X174889999Y-191110001D03*
X176389999Y-192610001D03*
%TD*%
%TO.C,mouse-bite-2mm-slot*%
X170363947Y-166790001D03*
X168863947Y-166790001D03*
X168863947Y-168290001D03*
X169613947Y-168290001D03*
X169613947Y-166790001D03*
X170363947Y-168290001D03*
%TD*%
%TO.C,mouse-bite-2mm-slot*%
X145609999Y-184950001D03*
X144109999Y-185700001D03*
X145609999Y-186450001D03*
X144109999Y-184950001D03*
X144109999Y-186450001D03*
X145609999Y-185700001D03*
%TD*%
D10*
%TO.C,G12*%
X92633999Y-38259999D03*
X89811699Y-38259999D03*
%TD*%
D11*
%TO.C,mouse-bite-2mm-slot5*%
X110882599Y-61370000D03*
X111632599Y-61370000D03*
X110132599Y-62870000D03*
X110132599Y-61370000D03*
X110882599Y-62870000D03*
X111632599Y-62870000D03*
%TD*%
%TO.C,mouse-bite-2mm-slot31*%
X139822600Y-77909999D03*
X141322600Y-77909999D03*
X141322600Y-76409999D03*
X139822600Y-76409999D03*
X141322600Y-77159999D03*
X139822600Y-77159999D03*
%TD*%
D10*
%TO.C,G76*%
X112433999Y-78359999D03*
X109611699Y-78359999D03*
%TD*%
D11*
%TO.C,mouse-bite-2mm-slot*%
X173422600Y-64969999D03*
X171922600Y-64969999D03*
X172672600Y-64969999D03*
%TD*%
D10*
%TO.C,G71*%
X112433999Y-65659999D03*
X109611699Y-65659999D03*
%TD*%
D11*
%TO.C,mouse-bite-2mm-slot24*%
X91832599Y-61369998D03*
X91832599Y-62869998D03*
X91082599Y-61369998D03*
X90332599Y-62869998D03*
X90332599Y-61369998D03*
X91082599Y-62869998D03*
%TD*%
D10*
%TO.C,G88*%
X132233999Y-83439999D03*
X129411699Y-83439999D03*
%TD*%
D13*
%TO.C,J23*%
X124460000Y-195580000D03*
D12*
X124460000Y-198120000D03*
%TD*%
D10*
%TO.C,G94*%
X152033999Y-73279999D03*
X149211699Y-73279999D03*
%TD*%
%TO.C,G58*%
X72833999Y-83439999D03*
X70011699Y-83439999D03*
%TD*%
D12*
%TO.C,J5*%
X64939999Y-133160000D03*
X67479999Y-133160000D03*
X70019999Y-133160000D03*
X72559999Y-133160000D03*
X75099999Y-133160000D03*
X77639999Y-133160000D03*
X80179999Y-133160000D03*
X82719999Y-133160000D03*
X85259999Y-133160000D03*
X87799999Y-133160000D03*
X90339999Y-133160000D03*
X92879999Y-133160000D03*
X95419999Y-133160000D03*
X97959999Y-133160000D03*
X100499999Y-133160000D03*
X103039999Y-133160000D03*
X105579999Y-133160000D03*
X108119999Y-133160000D03*
X110659999Y-133160000D03*
X113199999Y-133160000D03*
X115739999Y-133160000D03*
X118279999Y-133160000D03*
X120819999Y-133160000D03*
X123359999Y-133160000D03*
X125899999Y-133160000D03*
X128439999Y-133160000D03*
X130979999Y-133160000D03*
X133519999Y-133160000D03*
X136059999Y-133160000D03*
D13*
X138599999Y-133160000D03*
%TD*%
D10*
%TO.C,G69*%
X92633999Y-85979999D03*
X89811699Y-85979999D03*
%TD*%
D12*
%TO.C,J18*%
X163912600Y-38300002D03*
X163912600Y-40840002D03*
X163912600Y-43380002D03*
X163912600Y-45920002D03*
X163912600Y-48460002D03*
X163912600Y-51000002D03*
D13*
X163912600Y-53540002D03*
%TD*%
D10*
%TO.C,G98*%
X152033999Y-83439999D03*
X149211699Y-83439999D03*
%TD*%
D12*
%TO.C,J6*%
X65119999Y-198120000D03*
D13*
X65119999Y-195580000D03*
%TD*%
D22*
%TO.C,MX3*%
X113379999Y-174340000D03*
%TD*%
D10*
%TO.C,G11*%
X92633999Y-35719999D03*
X89811699Y-35719999D03*
%TD*%
D12*
%TO.C,J40*%
X156832599Y-58579999D03*
X156832599Y-56039999D03*
X156832599Y-53499999D03*
X156832599Y-50959999D03*
X156832599Y-48419999D03*
X156832599Y-45879999D03*
X156832599Y-43339999D03*
X156832599Y-40799999D03*
X156832599Y-38259999D03*
D13*
X156832599Y-35719999D03*
%TD*%
D10*
%TO.C,G25*%
X112433999Y-45879999D03*
X109611699Y-45879999D03*
%TD*%
%TO.C,G17*%
X92633999Y-50959999D03*
X89811699Y-50959999D03*
%TD*%
D12*
%TO.C,J8*%
X148629998Y-158920001D03*
X148629998Y-156380001D03*
X148629998Y-153840001D03*
X148629998Y-151300001D03*
X148629998Y-148760001D03*
D13*
X148629998Y-146220001D03*
%TD*%
D11*
%TO.C,mouse-bite-2mm-slot*%
X165242599Y-135810000D03*
X166742599Y-134310000D03*
X165992599Y-134310000D03*
X165992599Y-135810000D03*
X166742599Y-135810000D03*
X165242599Y-134310000D03*
%TD*%
D10*
%TO.C,G6*%
X72833999Y-48419999D03*
X70011699Y-48419999D03*
%TD*%
%TO.C,G78*%
X112433999Y-83439999D03*
X109611699Y-83439999D03*
%TD*%
%TO.C,G100*%
X152033999Y-88519999D03*
X149211699Y-88519999D03*
%TD*%
D11*
%TO.C,mouse-bite-2mm-slot*%
X71379999Y-192790000D03*
X72129999Y-192790000D03*
X70629999Y-191290000D03*
X71379999Y-191290000D03*
X72129999Y-191290000D03*
X70629999Y-192790000D03*
%TD*%
D10*
%TO.C,G95*%
X152033999Y-75819999D03*
X149211699Y-75819999D03*
%TD*%
%TO.C,G93*%
X152033999Y-70739999D03*
X149211699Y-70739999D03*
%TD*%
D11*
%TO.C,mouse-bite-2mm-slot*%
X144109999Y-173600001D03*
X145609999Y-172850001D03*
X145609999Y-173600001D03*
X145609999Y-174350001D03*
X144109999Y-174350001D03*
X144109999Y-172850001D03*
%TD*%
D12*
%TO.C,J16*%
X148399999Y-188320001D03*
X148399999Y-185780001D03*
D13*
X148399999Y-183240001D03*
%TD*%
D10*
%TO.C,G41*%
X152033999Y-35719999D03*
X149211699Y-35719999D03*
%TD*%
%TO.C,G84*%
X132233999Y-73279999D03*
X129411699Y-73279999D03*
%TD*%
D11*
%TO.C,mouse-bite-2mm-slot*%
X71889999Y-157770000D03*
X70389999Y-156270000D03*
X71889999Y-156270000D03*
X71139999Y-157770000D03*
X71139999Y-156270000D03*
X70389999Y-157770000D03*
%TD*%
D12*
%TO.C,J28*%
X180880000Y-176160001D03*
X180880000Y-173620001D03*
D13*
X180880000Y-171080001D03*
%TD*%
D11*
%TO.C,mouse-bite-2mm-slot21*%
X90332599Y-91310000D03*
X91832599Y-91310000D03*
X91082599Y-91310000D03*
X91832599Y-92810000D03*
X91082599Y-92810000D03*
X90332599Y-92810000D03*
%TD*%
D10*
%TO.C,G47*%
X152033999Y-50959999D03*
X149211699Y-50959999D03*
%TD*%
%TO.C,G64*%
X92633999Y-73279999D03*
X89811699Y-73279999D03*
%TD*%
%TO.C,G51*%
X72833999Y-65659999D03*
X70011699Y-65659999D03*
%TD*%
D23*
%TO.C,U4*%
X175537499Y-184870001D03*
X175537499Y-186770001D03*
X173262499Y-186770001D03*
X173262499Y-185820001D03*
X173262499Y-184870001D03*
%TD*%
D11*
%TO.C,mouse-bite-2mm-slot*%
X145839998Y-144060000D03*
X145839998Y-143310000D03*
X145839998Y-144810000D03*
%TD*%
%TO.C,mouse-bite-2mm-slot*%
X139950000Y-197600000D03*
X139950000Y-196850000D03*
X139950000Y-196100000D03*
%TD*%
D10*
%TO.C,G63*%
X92633999Y-70739999D03*
X89811699Y-70739999D03*
%TD*%
D14*
%TO.C,Y1*%
X72289999Y-195640000D03*
X72289999Y-197840000D03*
X70589999Y-197840000D03*
X70589999Y-195640000D03*
%TD*%
D13*
%TO.C,J58*%
X117379999Y-198120000D03*
D12*
X117379999Y-195580000D03*
%TD*%
%TO.C,J47*%
X124332599Y-88519999D03*
X124332599Y-85979999D03*
X124332599Y-83439999D03*
X124332599Y-80899999D03*
X124332599Y-78359999D03*
X124332599Y-75819999D03*
X124332599Y-73279999D03*
X124332599Y-70739999D03*
X124332599Y-68199999D03*
D13*
X124332599Y-65659999D03*
%TD*%
D12*
%TO.C,J35*%
X104532599Y-58579999D03*
X104532599Y-56039999D03*
X104532599Y-53499999D03*
X104532599Y-50959999D03*
X104532599Y-48419999D03*
X104532599Y-45879999D03*
X104532599Y-43339999D03*
X104532599Y-40799999D03*
X104532599Y-38259999D03*
D13*
X104532599Y-35719999D03*
%TD*%
%TO.C,J57*%
X104679999Y-195580000D03*
D12*
X104679999Y-198120000D03*
%TD*%
D10*
%TO.C,G21*%
X112433999Y-35719999D03*
X109611699Y-35719999D03*
%TD*%
D12*
%TO.C,J38*%
X137032599Y-58579999D03*
X137032599Y-56039999D03*
X137032599Y-53499999D03*
X137032599Y-50959999D03*
X137032599Y-48419999D03*
X137032599Y-45879999D03*
X137032599Y-43339999D03*
X137032599Y-40799999D03*
X137032599Y-38259999D03*
D13*
X137032599Y-35719999D03*
%TD*%
D11*
%TO.C,mouse-bite-2mm-slot14*%
X161122600Y-76969999D03*
X159622600Y-76219999D03*
X161122600Y-75469999D03*
X159622600Y-76969999D03*
X161122600Y-76219999D03*
X159622600Y-75469999D03*
%TD*%
D10*
%TO.C,G85*%
X132233999Y-75819999D03*
X129411699Y-75819999D03*
%TD*%
%TO.C,G74*%
X112433999Y-73279999D03*
X109611699Y-73279999D03*
%TD*%
%TO.C,G62*%
X92633999Y-68199999D03*
X89811699Y-68199999D03*
%TD*%
%TO.C,G68*%
X92633999Y-83439999D03*
X89811699Y-83439999D03*
%TD*%
D12*
%TO.C,J41*%
X64932599Y-88519999D03*
X64932599Y-85979999D03*
X64932599Y-83439999D03*
X64932599Y-80899999D03*
X64932599Y-78359999D03*
X64932599Y-75819999D03*
X64932599Y-73279999D03*
X64932599Y-70739999D03*
X64932599Y-68199999D03*
D13*
X64932599Y-65659999D03*
%TD*%
D19*
%TO.C,IC4*%
X174449998Y-197940002D03*
X172149998Y-198890002D03*
X172149998Y-196990002D03*
%TD*%
D12*
%TO.C,J54*%
X180919998Y-200480002D03*
D13*
X180919998Y-197940002D03*
%TD*%
D11*
%TO.C,mouse-bite-2mm-slot*%
X130919999Y-192790000D03*
X130169999Y-191290000D03*
X130919999Y-191290000D03*
X131669999Y-192790000D03*
X130169999Y-192790000D03*
X131669999Y-191290000D03*
%TD*%
D10*
%TO.C,G79*%
X112433999Y-85979999D03*
X109611699Y-85979999D03*
%TD*%
D11*
%TO.C,mouse-bite-2mm-slot*%
X132212599Y-130370000D03*
X131462599Y-130370000D03*
X132962599Y-130370000D03*
X131462599Y-128870000D03*
X132962599Y-128870000D03*
X132212599Y-128870000D03*
%TD*%
D12*
%TO.C,J22*%
X156019999Y-176160001D03*
X153479999Y-176160001D03*
X156019999Y-173620001D03*
X153479999Y-173620001D03*
X156019999Y-171080001D03*
D13*
X153479999Y-171080001D03*
%TD*%
D11*
%TO.C,mouse-bite-2mm-slot*%
X174083947Y-180450001D03*
X174833947Y-178950001D03*
X174833947Y-180450001D03*
X175583947Y-180450001D03*
X175583947Y-178950001D03*
X174083947Y-178950001D03*
%TD*%
%TO.C,mouse-bite-2mm-slot*%
X132889999Y-156270000D03*
X132139999Y-156270000D03*
X131389999Y-156270000D03*
X132139999Y-157770000D03*
X131389999Y-157770000D03*
X132889999Y-157770000D03*
%TD*%
D12*
%TO.C,J29*%
X138779999Y-160619708D03*
D13*
X141319999Y-160619708D03*
%TD*%
D10*
%TO.C,G42*%
X152033999Y-38259999D03*
X149211699Y-38259999D03*
%TD*%
D11*
%TO.C,mouse-bite-2mm-slot28*%
X110132599Y-62869998D03*
X110882599Y-61369998D03*
X111632599Y-61369998D03*
X111632599Y-62869998D03*
X110882599Y-62869998D03*
X110132599Y-61369998D03*
%TD*%
D24*
%TO.C,U3*%
X178369998Y-144080001D03*
X180269998Y-144080001D03*
X180269998Y-146080001D03*
D25*
X178569998Y-146080001D03*
%TD*%
D10*
%TO.C,G19*%
X92633999Y-56039999D03*
X89811699Y-56039999D03*
%TD*%
%TO.C,G14*%
X92633999Y-43339999D03*
X89811699Y-43339999D03*
%TD*%
D12*
%TO.C,J1*%
X138599999Y-153480000D03*
X136059999Y-153480000D03*
X133519999Y-153480000D03*
X130979999Y-153480000D03*
X128439999Y-153480000D03*
X125899999Y-153480000D03*
X123359999Y-153480000D03*
X120819999Y-153480000D03*
X118279999Y-153480000D03*
X115739999Y-153480000D03*
X113199999Y-153480000D03*
X110659999Y-153480000D03*
X108119999Y-153480000D03*
X105579999Y-153480000D03*
X103039999Y-153480000D03*
X100499999Y-153480000D03*
X97959999Y-153480000D03*
X95419999Y-153480000D03*
X92879999Y-153480000D03*
X90339999Y-153480000D03*
X87799999Y-153480000D03*
X85259999Y-153480000D03*
X82719999Y-153480000D03*
X80179999Y-153480000D03*
X77639999Y-153480000D03*
X75099999Y-153480000D03*
X72559999Y-153480000D03*
X70019999Y-153480000D03*
X67479999Y-153480000D03*
D13*
X64939999Y-153480000D03*
%TD*%
D12*
%TO.C,J3*%
X143672599Y-126080000D03*
X141132599Y-126080000D03*
X138592599Y-126080000D03*
X136052599Y-126080000D03*
X133512599Y-126080000D03*
X130972599Y-126080000D03*
X128432599Y-126080000D03*
X125892599Y-126080000D03*
X123352599Y-126080000D03*
X120812599Y-126080000D03*
X118272599Y-126080000D03*
X115732599Y-126080000D03*
X113192599Y-126080000D03*
X110652599Y-126080000D03*
X108112599Y-126080000D03*
X105572599Y-126080000D03*
X103032599Y-126080000D03*
X100492599Y-126080000D03*
X97952599Y-126080000D03*
X95412599Y-126080000D03*
X92872599Y-126080000D03*
X90332599Y-126080000D03*
X87792599Y-126080000D03*
X85252599Y-126080000D03*
X82712599Y-126080000D03*
X80172599Y-126080000D03*
X77632599Y-126080000D03*
X75092599Y-126080000D03*
X72552599Y-126080000D03*
X70012599Y-126080000D03*
X67472599Y-126080000D03*
D13*
X64932599Y-126080000D03*
%TD*%
D12*
%TO.C,J24*%
X161099999Y-176160001D03*
X161099999Y-173620001D03*
D13*
X161099999Y-171080001D03*
%TD*%
D12*
%TO.C,J19*%
X181109998Y-151300001D03*
D13*
X178569998Y-151300001D03*
%TD*%
D10*
%TO.C,G89*%
X132233999Y-85979999D03*
X129411699Y-85979999D03*
%TD*%
%TO.C,G27*%
X112433999Y-50959999D03*
X109611699Y-50959999D03*
%TD*%
%TO.C,G35*%
X132233999Y-45879999D03*
X129411699Y-45879999D03*
%TD*%
D19*
%TO.C,IC5*%
X176989998Y-203020002D03*
X174689998Y-203970002D03*
X174689998Y-202070002D03*
%TD*%
D10*
%TO.C,G80*%
X112433999Y-88519999D03*
X109611699Y-88519999D03*
%TD*%
D11*
%TO.C,mouse-bite-2mm-slot29*%
X129932599Y-91310000D03*
X131432599Y-91310000D03*
X130682599Y-92810000D03*
X129932599Y-92810000D03*
X131432599Y-92810000D03*
X130682599Y-91310000D03*
%TD*%
D12*
%TO.C,J15*%
X148439998Y-203020002D03*
X148439998Y-200480002D03*
X148439998Y-197940002D03*
D13*
X148439998Y-195400002D03*
%TD*%
D10*
%TO.C,G43*%
X152033999Y-40799999D03*
X149211699Y-40799999D03*
%TD*%
D12*
%TO.C,J51*%
X168179999Y-188320001D03*
X168179999Y-185780001D03*
D13*
X168179999Y-183240001D03*
%TD*%
D11*
%TO.C,mouse-bite-2mm-slot*%
X145649998Y-197020002D03*
X145649998Y-197770002D03*
X145649998Y-196270002D03*
%TD*%
D10*
%TO.C,G36*%
X132233999Y-48419999D03*
X129411699Y-48419999D03*
%TD*%
%TO.C,G46*%
X152033999Y-48419999D03*
X149211699Y-48419999D03*
%TD*%
D11*
%TO.C,mouse-bite-2mm-slot*%
X154833947Y-178950001D03*
X154833947Y-180450001D03*
X154083947Y-180450001D03*
X155583947Y-180450001D03*
X155583947Y-178950001D03*
X154083947Y-178950001D03*
%TD*%
D10*
%TO.C,G7*%
X72833999Y-50959999D03*
X70011699Y-50959999D03*
%TD*%
%TO.C,G82*%
X132233999Y-68199999D03*
X129411699Y-68199999D03*
%TD*%
D12*
%TO.C,J20*%
X161099999Y-183240001D03*
D13*
X161099999Y-185780001D03*
%TD*%
D12*
%TO.C,J23*%
X178569998Y-138600001D03*
D13*
X181109998Y-138600001D03*
%TD*%
D11*
%TO.C,mouse-bite-2mm-slot14*%
X159622600Y-47969999D03*
X159622600Y-46469999D03*
X161122600Y-47969999D03*
X159622600Y-47219999D03*
X161122600Y-46469999D03*
X161122600Y-47219999D03*
%TD*%
D10*
%TO.C,G32*%
X132233999Y-38259999D03*
X129411699Y-38259999D03*
%TD*%
D12*
%TO.C,JOLED2*%
X181232599Y-131525000D03*
X181232599Y-128985000D03*
X181232599Y-126445000D03*
X181232599Y-123905000D03*
X181232599Y-121365000D03*
X181232599Y-118825000D03*
X181232599Y-116285000D03*
X181232599Y-113745000D03*
X181232599Y-111205000D03*
X181232599Y-108665000D03*
X181232599Y-106125000D03*
X181232599Y-103585000D03*
X181232599Y-101045000D03*
X181232599Y-98505000D03*
D13*
X181232599Y-95965000D03*
%TD*%
D12*
%TO.C,J10*%
X100679999Y-160560000D03*
X103219999Y-160560000D03*
X105759999Y-160560000D03*
D13*
X108299999Y-160560000D03*
%TD*%
D11*
%TO.C,mouse-bite-2mm-slot7*%
X120022600Y-46469999D03*
X121522600Y-47969999D03*
X121522600Y-47219999D03*
X120022600Y-47219999D03*
X121522600Y-46469999D03*
X120022600Y-47969999D03*
%TD*%
%TO.C,mouse-bite-2mm-slot13*%
X150482599Y-61370000D03*
X150482599Y-62870000D03*
X149732599Y-61370000D03*
X149732599Y-62870000D03*
X151232599Y-61370000D03*
X151232599Y-62870000D03*
%TD*%
D12*
%TO.C,J13*%
X163912600Y-85539999D03*
X163912600Y-82999999D03*
X163912600Y-80459999D03*
X163912600Y-77919999D03*
X163912600Y-75379999D03*
X163912600Y-72839999D03*
X163912600Y-70299999D03*
D13*
X163912600Y-67759999D03*
%TD*%
D12*
%TO.C,J42*%
X77632599Y-88519999D03*
X77632599Y-85979999D03*
X77632599Y-83439999D03*
X77632599Y-80899999D03*
X77632599Y-78359999D03*
X77632599Y-75819999D03*
X77632599Y-73279999D03*
X77632599Y-70739999D03*
X77632599Y-68199999D03*
D13*
X77632599Y-65659999D03*
%TD*%
D12*
%TO.C,J14*%
X181692600Y-85539999D03*
X181692600Y-82999999D03*
X181692600Y-80459999D03*
X181692600Y-77919999D03*
X181692600Y-75379999D03*
X181692600Y-72839999D03*
X181692600Y-70299999D03*
D13*
X181692600Y-67759999D03*
%TD*%
D10*
%TO.C,G34*%
X132233999Y-43339999D03*
X129411699Y-43339999D03*
%TD*%
%TO.C,G72*%
X112433999Y-68199999D03*
X109611699Y-68199999D03*
%TD*%
%TO.C,G18*%
X92633999Y-53499999D03*
X89811699Y-53499999D03*
%TD*%
D11*
%TO.C,mouse-bite-2mm-slot34*%
X141342599Y-77909999D03*
X141342599Y-76409999D03*
X139842599Y-77159999D03*
X139842599Y-77909999D03*
X141342599Y-77159999D03*
X139842599Y-76409999D03*
%TD*%
%TO.C,mouse-bite-2mm-slot1*%
X91082599Y-61370000D03*
X90332599Y-62870000D03*
X91082599Y-62870000D03*
X91832599Y-62870000D03*
X90332599Y-61370000D03*
X91832599Y-61370000D03*
%TD*%
D10*
%TO.C,G97*%
X152033999Y-80899999D03*
X149211699Y-80899999D03*
%TD*%
D11*
%TO.C,mouse-bite-2mm-slot3*%
X100222600Y-47219999D03*
X101722600Y-47969999D03*
X100222600Y-47969999D03*
X101722600Y-46469999D03*
X100222600Y-46469999D03*
X101722600Y-47219999D03*
%TD*%
D12*
%TO.C,J21*%
X161139998Y-200480002D03*
D13*
X161139998Y-197940002D03*
%TD*%
D10*
%TO.C,G31*%
X132233999Y-35719999D03*
X129411699Y-35719999D03*
%TD*%
D11*
%TO.C,mouse-bite-2mm-slot*%
X90429999Y-191290000D03*
X90429999Y-192790000D03*
X91929999Y-191290000D03*
X91179999Y-192790000D03*
X91179999Y-191290000D03*
X91929999Y-192790000D03*
%TD*%
D10*
%TO.C,G59*%
X72833999Y-85979999D03*
X70011699Y-85979999D03*
%TD*%
D11*
%TO.C,mouse-bite-2mm-slot*%
X175779998Y-145810000D03*
X174279998Y-145810000D03*
X174279998Y-144310000D03*
X174279998Y-145060000D03*
X175779998Y-145060000D03*
X175779998Y-144310000D03*
%TD*%
%TO.C,mouse-bite-2mm-slot30*%
X120042599Y-77909999D03*
X121542599Y-77159999D03*
X120042599Y-77159999D03*
X121542599Y-76409999D03*
X121542599Y-77909999D03*
X120042599Y-76409999D03*
%TD*%
D10*
%TO.C,G30*%
X112433999Y-58579999D03*
X109611699Y-58579999D03*
%TD*%
%TO.C,G15*%
X92633999Y-45879999D03*
X89811699Y-45879999D03*
%TD*%
%TO.C,G92*%
X152033999Y-68199999D03*
X149211699Y-68199999D03*
%TD*%
D12*
%TO.C,J33*%
X84732599Y-58579999D03*
X84732599Y-56039999D03*
X84732599Y-53499999D03*
X84732599Y-50959999D03*
X84732599Y-48419999D03*
X84732599Y-45879999D03*
X84732599Y-43339999D03*
X84732599Y-40799999D03*
X84732599Y-38259999D03*
D13*
X84732599Y-35719999D03*
%TD*%
D11*
%TO.C,mouse-bite-2mm-slot32*%
X131432599Y-61369998D03*
X129932599Y-62869998D03*
X131432599Y-62869998D03*
X129932599Y-61369998D03*
X130682599Y-62869998D03*
X130682599Y-61369998D03*
%TD*%
D10*
%TO.C,G77*%
X112433999Y-80899999D03*
X109611699Y-80899999D03*
%TD*%
D11*
%TO.C,mouse-bite-2mm-slot27*%
X120022600Y-77159999D03*
X121522600Y-77909999D03*
X120022600Y-76409999D03*
X120022600Y-77909999D03*
X121522600Y-76409999D03*
X121522600Y-77159999D03*
%TD*%
D10*
%TO.C,G9*%
X72833999Y-56039999D03*
X70011699Y-56039999D03*
%TD*%
%TO.C,G8*%
X72833999Y-53499999D03*
X70011699Y-53499999D03*
%TD*%
D12*
%TO.C,J55*%
X84899999Y-198120000D03*
D13*
X84899999Y-195580000D03*
%TD*%
D10*
%TO.C,G81*%
X132233999Y-65659999D03*
X129411699Y-65659999D03*
%TD*%
D11*
%TO.C,mouse-bite-2mm-slot17*%
X72032599Y-92810000D03*
X70532599Y-91310000D03*
X70532599Y-92810000D03*
X71282599Y-92810000D03*
X71282599Y-91310000D03*
X72032599Y-91310000D03*
%TD*%
%TO.C,mouse-bite-2mm-slot*%
X101889999Y-196850000D03*
X101889999Y-197600000D03*
X100389999Y-196100000D03*
X100389999Y-197600000D03*
X101889999Y-196100000D03*
X100389999Y-196850000D03*
%TD*%
D10*
%TO.C,G1*%
X72833999Y-35719999D03*
X70011699Y-35719999D03*
%TD*%
D19*
%TO.C,IC3*%
X157209998Y-203020002D03*
X154909998Y-203970002D03*
X154909998Y-202070002D03*
%TD*%
D10*
%TO.C,G55*%
X72833999Y-75819999D03*
X70011699Y-75819999D03*
%TD*%
%TO.C,G49*%
X152033999Y-56039999D03*
X149211699Y-56039999D03*
%TD*%
D11*
%TO.C,mouse-bite-2mm-slot*%
X154889999Y-192610001D03*
X154889999Y-191110001D03*
X155639999Y-191110001D03*
X156389999Y-191110001D03*
X155639999Y-192610001D03*
X156389999Y-192610001D03*
%TD*%
%TO.C,mouse-bite-2mm-slot*%
X155613947Y-166790001D03*
X154863947Y-166790001D03*
X154863947Y-168290001D03*
X156363947Y-168290001D03*
X155613947Y-168290001D03*
X156363947Y-166790001D03*
%TD*%
%TO.C,mouse-bite-2mm-slot11*%
X141322600Y-47219999D03*
X139822600Y-46469999D03*
X141322600Y-46469999D03*
X141322600Y-47969999D03*
X139822600Y-47969999D03*
X139822600Y-47219999D03*
%TD*%
%TO.C,mouse-bite-2mm-slot*%
X70532599Y-61370000D03*
X71282599Y-62870000D03*
X71282599Y-61370000D03*
X70532599Y-62870000D03*
X72032599Y-61370000D03*
X72032599Y-62870000D03*
%TD*%
%TO.C,mouse-bite-2mm-slot*%
X121669999Y-196100000D03*
X120169999Y-196850000D03*
X120169999Y-197600000D03*
X120169999Y-196100000D03*
X121669999Y-197600000D03*
X121669999Y-196850000D03*
%TD*%
D10*
%TO.C,G52*%
X72833999Y-68199999D03*
X70011699Y-68199999D03*
%TD*%
%TO.C,G4*%
X72833999Y-43339999D03*
X70011699Y-43339999D03*
%TD*%
%TO.C,G38*%
X132233999Y-53499999D03*
X129411699Y-53499999D03*
%TD*%
%TO.C,G65*%
X92633999Y-75819999D03*
X89811699Y-75819999D03*
%TD*%
%TO.C,G61*%
X92633999Y-65659999D03*
X89811699Y-65659999D03*
%TD*%
D11*
%TO.C,mouse-bite-2mm-slot*%
X171922600Y-56330002D03*
X173422600Y-56330002D03*
X172672600Y-56330002D03*
%TD*%
D14*
%TO.C,Y3*%
X111849999Y-195640000D03*
X111849999Y-197840000D03*
X110149999Y-197840000D03*
X110149999Y-195640000D03*
%TD*%
D12*
%TO.C,J12*%
X171489998Y-158920001D03*
X171489998Y-156380001D03*
X171489998Y-153840001D03*
X171489998Y-151300001D03*
X171489998Y-148760001D03*
D13*
X171489998Y-146220001D03*
%TD*%
D11*
%TO.C,mouse-bite-2mm-slot25*%
X110882599Y-91310000D03*
X110132599Y-91310000D03*
X111632599Y-92810000D03*
X110882599Y-92810000D03*
X110132599Y-92810000D03*
X111632599Y-91310000D03*
%TD*%
D10*
%TO.C,G10*%
X72833999Y-58579999D03*
X70011699Y-58579999D03*
%TD*%
D11*
%TO.C,mouse-bite-2mm-slot*%
X146462599Y-110310000D03*
X147962599Y-111810000D03*
X146462599Y-111810000D03*
X147962599Y-110310000D03*
X146462599Y-111060000D03*
X147962599Y-111060000D03*
%TD*%
D12*
%TO.C,J46*%
X117232599Y-88519999D03*
X117232599Y-85979999D03*
X117232599Y-83439999D03*
X117232599Y-80899999D03*
X117232599Y-78359999D03*
X117232599Y-75819999D03*
X117232599Y-73279999D03*
X117232599Y-70739999D03*
X117232599Y-68199999D03*
D13*
X117232599Y-65659999D03*
%TD*%
D10*
%TO.C,G26*%
X112433999Y-48419999D03*
X109611699Y-48419999D03*
%TD*%
%TO.C,G99*%
X152033999Y-85979999D03*
X149211699Y-85979999D03*
%TD*%
D11*
%TO.C,mouse-bite-2mm-slot9*%
X130682599Y-62870000D03*
X129932599Y-61370000D03*
X130682599Y-61370000D03*
X129932599Y-62870000D03*
X131432599Y-62870000D03*
X131432599Y-61370000D03*
%TD*%
D10*
%TO.C,G56*%
X72833999Y-78359999D03*
X70011699Y-78359999D03*
%TD*%
%TO.C,G2*%
X72833999Y-38259999D03*
X70011699Y-38259999D03*
%TD*%
D12*
%TO.C,J27*%
X175800000Y-176160001D03*
X173260000Y-176160001D03*
X175800000Y-173620001D03*
X173260000Y-173620001D03*
X175800000Y-171080001D03*
D13*
X173260000Y-171080001D03*
%TD*%
D10*
%TO.C,G22*%
X112433999Y-38259999D03*
X109611699Y-38259999D03*
%TD*%
D11*
%TO.C,mouse-bite-2mm-slot*%
X165389999Y-173540001D03*
X165389999Y-172790001D03*
X163889999Y-174290001D03*
X165389999Y-174290001D03*
X163889999Y-172790001D03*
X163889999Y-173540001D03*
%TD*%
D10*
%TO.C,G87*%
X132233999Y-80899999D03*
X129411699Y-80899999D03*
%TD*%
D11*
%TO.C,mouse-bite-2mm-slot23*%
X101722600Y-77159999D03*
X100222600Y-77159999D03*
X100222600Y-77909999D03*
X101722600Y-76409999D03*
X101722600Y-77909999D03*
X100222600Y-76409999D03*
%TD*%
%TO.C,mouse-bite-2mm-slot*%
X141389999Y-143310000D03*
X141389999Y-144810000D03*
X141389999Y-144060000D03*
%TD*%
D12*
%TO.C,J39*%
X144132599Y-58579999D03*
X144132599Y-56039999D03*
X144132599Y-53499999D03*
X144132599Y-50959999D03*
X144132599Y-48419999D03*
X144132599Y-45879999D03*
X144132599Y-43339999D03*
X144132599Y-40799999D03*
X144132599Y-38259999D03*
D13*
X144132599Y-35719999D03*
%TD*%
D12*
%TO.C,J56*%
X97599999Y-195580000D03*
D13*
X97599999Y-198120000D03*
%TD*%
D12*
%TO.C,J7*%
X77819999Y-195580000D03*
D13*
X77819999Y-198120000D03*
%TD*%
D10*
%TO.C,G44*%
X152033999Y-43339999D03*
X149211699Y-43339999D03*
%TD*%
%TO.C,G83*%
X132233999Y-70739999D03*
X129411699Y-70739999D03*
%TD*%
%TO.C,G67*%
X92633999Y-80899999D03*
X89811699Y-80899999D03*
%TD*%
%TO.C,G37*%
X132233999Y-50959999D03*
X129411699Y-50959999D03*
%TD*%
D12*
%TO.C,J49*%
X144132599Y-88519999D03*
X144132599Y-85979999D03*
X144132599Y-83439999D03*
X144132599Y-80899999D03*
X144132599Y-78359999D03*
X144132599Y-75819999D03*
X144132599Y-73279999D03*
X144132599Y-70739999D03*
X144132599Y-68199999D03*
D13*
X144132599Y-65659999D03*
%TD*%
D10*
%TO.C,G28*%
X112433999Y-53499999D03*
X109611699Y-53499999D03*
%TD*%
D11*
%TO.C,mouse-bite-2mm-slot19*%
X81922600Y-76409999D03*
X81922600Y-77159999D03*
X81922600Y-77909999D03*
X80422600Y-76409999D03*
X80422600Y-77159999D03*
X80422600Y-77909999D03*
%TD*%
%TO.C,mouse-bite-2mm-slot*%
X104389999Y-157770000D03*
X105889999Y-156270000D03*
X105889999Y-157770000D03*
X105139999Y-157770000D03*
X105139999Y-156270000D03*
X104389999Y-156270000D03*
%TD*%
%TO.C,mouse-bite-2mm-slot*%
X165429999Y-199260001D03*
X165429999Y-198510001D03*
X163929999Y-200010001D03*
X165429999Y-200010001D03*
X163929999Y-199260001D03*
X163929999Y-198510001D03*
%TD*%
D10*
%TO.C,G3*%
X72833999Y-40799999D03*
X70011699Y-40799999D03*
%TD*%
D22*
%TO.C,MX2*%
X93919999Y-174340000D03*
%TD*%
D10*
%TO.C,G54*%
X72833999Y-73279999D03*
X70011699Y-73279999D03*
%TD*%
D12*
%TO.C,J17*%
X148399999Y-176160001D03*
X148399999Y-173620001D03*
D13*
X148399999Y-171080001D03*
%TD*%
D10*
%TO.C,G29*%
X112433999Y-56039999D03*
X109611699Y-56039999D03*
%TD*%
D11*
%TO.C,mouse-bite-2mm-slot26*%
X101742599Y-76409999D03*
X101742599Y-77159999D03*
X100242599Y-76409999D03*
X100242599Y-77159999D03*
X101742599Y-77909999D03*
X100242599Y-77909999D03*
%TD*%
D23*
%TO.C,U2*%
X155757499Y-184870001D03*
X155757499Y-186770001D03*
X153482499Y-186770001D03*
X153482499Y-185820001D03*
X153482499Y-184870001D03*
%TD*%
D12*
%TO.C,J2*%
X64932599Y-58579999D03*
X64932599Y-56039999D03*
X64932599Y-53499999D03*
X64932599Y-50959999D03*
X64932599Y-48419999D03*
X64932599Y-45879999D03*
X64932599Y-43339999D03*
X64932599Y-40799999D03*
X64932599Y-38259999D03*
D13*
X64932599Y-35719999D03*
%TD*%
D10*
%TO.C,G60*%
X72833999Y-88519999D03*
X70011699Y-88519999D03*
%TD*%
%TO.C,G20*%
X92633999Y-58579999D03*
X89811699Y-58579999D03*
%TD*%
D22*
%TO.C,MX4*%
X74619999Y-174340000D03*
%TD*%
D11*
%TO.C,mouse-bite-2mm-slot*%
X179889999Y-135810000D03*
X179889999Y-134310000D03*
X179139999Y-135810000D03*
X178389999Y-134310000D03*
X179139999Y-134310000D03*
X178389999Y-135810000D03*
%TD*%
D26*
%TO.C,SW1*%
X167429998Y-146520001D03*
X167429998Y-141520001D03*
D27*
X160429998Y-149620001D03*
X160429998Y-138420001D03*
D26*
X152929998Y-144020001D03*
X152929998Y-146520001D03*
D28*
X152929998Y-141520001D03*
%TD*%
D12*
%TO.C,J37*%
X124332599Y-58579999D03*
X124332599Y-56039999D03*
X124332599Y-53499999D03*
X124332599Y-50959999D03*
X124332599Y-48419999D03*
X124332599Y-45879999D03*
X124332599Y-43339999D03*
X124332599Y-40799999D03*
X124332599Y-38259999D03*
D13*
X124332599Y-35719999D03*
%TD*%
D29*
%TO.C,USB1*%
X175897600Y-49310002D03*
X175122600Y-49310002D03*
D30*
X174422600Y-49310002D03*
X173922600Y-49310002D03*
X173422600Y-49310002D03*
X172922600Y-49310002D03*
X172422600Y-49310002D03*
X171922600Y-49310002D03*
X171422600Y-49310002D03*
X170922600Y-49310002D03*
D29*
X170222600Y-49310002D03*
X169447600Y-49310002D03*
D31*
X175562600Y-50755002D03*
X169782600Y-50755002D03*
%TD*%
D10*
%TO.C,G96*%
X152033999Y-78359999D03*
X149211699Y-78359999D03*
%TD*%
D12*
%TO.C,J9*%
X100679999Y-188500000D03*
X103219999Y-188500000D03*
X105759999Y-188500000D03*
D13*
X108299999Y-188500000D03*
%TD*%
D10*
%TO.C,G45*%
X152033999Y-45879999D03*
X149211699Y-45879999D03*
%TD*%
D32*
%TO.C,U1*%
X103039999Y-143320000D03*
D33*
X98620582Y-142860381D03*
X98903424Y-142577538D03*
X99186267Y-142294695D03*
X99469110Y-142011852D03*
X99751952Y-141729010D03*
X100034795Y-141446167D03*
X100317638Y-141163324D03*
X100600481Y-140880482D03*
X100883323Y-140597639D03*
X101166166Y-140314796D03*
X101449009Y-140031953D03*
X101731851Y-139749111D03*
X102014694Y-139466268D03*
X102297537Y-139183425D03*
X102580380Y-138900583D03*
D34*
X103499618Y-138900583D03*
X103782461Y-139183425D03*
X104065304Y-139466268D03*
X104348147Y-139749111D03*
X104630989Y-140031953D03*
X104913832Y-140314796D03*
X105196675Y-140597639D03*
X105479517Y-140880482D03*
X105762360Y-141163324D03*
X106045203Y-141446167D03*
X106328046Y-141729010D03*
X106610888Y-142011852D03*
X106893731Y-142294695D03*
X107176574Y-142577538D03*
X107459416Y-142860381D03*
D33*
X107459416Y-143779619D03*
X107176574Y-144062462D03*
X106893731Y-144345305D03*
X106610888Y-144628148D03*
X106328046Y-144910990D03*
X106045203Y-145193833D03*
X105762360Y-145476676D03*
X105479517Y-145759518D03*
X105196675Y-146042361D03*
X104913832Y-146325204D03*
X104630989Y-146608047D03*
X104348147Y-146890889D03*
X104065304Y-147173732D03*
X103782461Y-147456575D03*
X103499618Y-147739417D03*
D34*
X102580380Y-147739417D03*
X102297537Y-147456575D03*
X102014694Y-147173732D03*
X101731851Y-146890889D03*
X101449009Y-146608047D03*
X101166166Y-146325204D03*
X100883323Y-146042361D03*
X100600481Y-145759518D03*
X100317638Y-145476676D03*
X100034795Y-145193833D03*
X99751952Y-144910990D03*
X99469110Y-144628148D03*
X99186267Y-144345305D03*
X98903424Y-144062462D03*
X98620582Y-143779619D03*
%TD*%
D11*
%TO.C,mouse-bite-2mm-slot14*%
X139842599Y-47219999D03*
X141342599Y-47219999D03*
X141342599Y-47969999D03*
X139842599Y-46469999D03*
X139842599Y-47969999D03*
X141342599Y-46469999D03*
%TD*%
D12*
%TO.C,J44*%
X97432599Y-88519999D03*
X97432599Y-85979999D03*
X97432599Y-83439999D03*
X97432599Y-80899999D03*
X97432599Y-78359999D03*
X97432599Y-75819999D03*
X97432599Y-73279999D03*
X97432599Y-70739999D03*
X97432599Y-68199999D03*
D13*
X97432599Y-65659999D03*
%TD*%
D12*
%TO.C,J48*%
X137032599Y-88519999D03*
X137032599Y-85979999D03*
X137032599Y-83439999D03*
X137032599Y-80899999D03*
X137032599Y-78359999D03*
X137032599Y-75819999D03*
X137032599Y-73279999D03*
X137032599Y-70739999D03*
X137032599Y-68199999D03*
D13*
X137032599Y-65659999D03*
%TD*%
D12*
%TO.C,J25*%
X181692600Y-53540002D03*
X181692600Y-51000002D03*
X181692600Y-48460002D03*
X181692600Y-45920002D03*
X181692600Y-43380002D03*
X181692600Y-40840002D03*
D13*
X181692600Y-38300002D03*
%TD*%
D26*
%TO.C,SW2*%
X167419998Y-161420001D03*
X167419998Y-156420001D03*
D27*
X160419998Y-153320001D03*
X160419998Y-164520001D03*
D26*
X152919998Y-158920001D03*
X152919998Y-161420001D03*
D28*
X152919998Y-156420001D03*
%TD*%
D10*
%TO.C,G48*%
X152033999Y-53499999D03*
X149211699Y-53499999D03*
%TD*%
D35*
%TO.C,RGB2*%
X173192600Y-73979999D03*
%TD*%
%TO.C,RGB1*%
X173192600Y-68579999D03*
%TD*%
%TO.C,RGB3*%
X173192600Y-79379999D03*
%TD*%
%TO.C,RGB4*%
X173192600Y-84779999D03*
%TD*%
M02*
