%TF.GenerationSoftware,KiCad,Pcbnew,(6.0.2)*%
%TF.CreationDate,2022-03-22T08:03:31-04:00*%
%TF.ProjectId,Panel,50616e65-6c2e-46b6-9963-61645f706362,rev?*%
%TF.SameCoordinates,Original*%
%TF.FileFunction,Legend,Bot*%
%TF.FilePolarity,Positive*%
%FSLAX46Y46*%
G04 Gerber Fmt 4.6, Leading zero omitted, Abs format (unit mm)*
G04 Created by KiCad (PCBNEW (6.0.2)) date 2022-03-22 08:03:31*
%MOMM*%
%LPD*%
G01*
G04 APERTURE LIST*
%ADD10C,0.150000*%
%ADD11C,0.100000*%
%ADD12C,0.200000*%
G04 APERTURE END LIST*
D10*
X164642123Y-77705712D02*
X164642123Y-78372378D01*
X164880219Y-77324759D02*
X165118314Y-78039045D01*
X164499266Y-78039045D01*
X164642123Y-87865712D02*
X164642123Y-88532378D01*
X164880219Y-87484759D02*
X165118314Y-88199045D01*
X164499266Y-88199045D01*
X164546885Y-85992378D02*
X165118314Y-85992378D01*
X164832600Y-85992378D02*
X164832600Y-84992378D01*
X164927838Y-85135236D01*
X165023076Y-85230474D01*
X165118314Y-85278093D01*
X177865933Y-87532378D02*
X177246885Y-87532378D01*
X177580219Y-87913331D01*
X177437361Y-87913331D01*
X177342123Y-87960950D01*
X177294504Y-88008569D01*
X177246885Y-88103807D01*
X177246885Y-88341902D01*
X177294504Y-88437140D01*
X177342123Y-88484759D01*
X177437361Y-88532378D01*
X177723076Y-88532378D01*
X177818314Y-88484759D01*
X177865933Y-88437140D01*
X177865933Y-72292378D02*
X177246885Y-72292378D01*
X177580219Y-72673331D01*
X177437361Y-72673331D01*
X177342123Y-72720950D01*
X177294504Y-72768569D01*
X177246885Y-72863807D01*
X177246885Y-73101902D01*
X177294504Y-73197140D01*
X177342123Y-73244759D01*
X177437361Y-73292378D01*
X177723076Y-73292378D01*
X177818314Y-73244759D01*
X177865933Y-73197140D01*
X177818314Y-85087617D02*
X177770695Y-85039998D01*
X177675457Y-84992378D01*
X177437361Y-84992378D01*
X177342123Y-85039998D01*
X177294504Y-85087617D01*
X177246885Y-85182855D01*
X177246885Y-85278093D01*
X177294504Y-85420950D01*
X177865933Y-85992378D01*
X177246885Y-85992378D01*
X164546885Y-70752378D02*
X165118314Y-70752378D01*
X164832600Y-70752378D02*
X164832600Y-69752378D01*
X164927838Y-69895236D01*
X165023076Y-69990474D01*
X165118314Y-70038093D01*
X164546885Y-75832378D02*
X165118314Y-75832378D01*
X164832600Y-75832378D02*
X164832600Y-74832378D01*
X164927838Y-74975236D01*
X165023076Y-75070474D01*
X165118314Y-75118093D01*
X164546885Y-80912378D02*
X165118314Y-80912378D01*
X164832600Y-80912378D02*
X164832600Y-79912378D01*
X164927838Y-80055236D01*
X165023076Y-80150474D01*
X165118314Y-80198093D01*
X177818314Y-80007617D02*
X177770695Y-79959998D01*
X177675457Y-79912378D01*
X177437361Y-79912378D01*
X177342123Y-79959998D01*
X177294504Y-80007617D01*
X177246885Y-80102855D01*
X177246885Y-80198093D01*
X177294504Y-80340950D01*
X177865933Y-80912378D01*
X177246885Y-80912378D01*
X164642123Y-82785712D02*
X164642123Y-83452378D01*
X164880219Y-82404759D02*
X165118314Y-83119045D01*
X164499266Y-83119045D01*
X164642123Y-72625712D02*
X164642123Y-73292378D01*
X164880219Y-72244759D02*
X165118314Y-72959045D01*
X164499266Y-72959045D01*
X177818314Y-74927617D02*
X177770695Y-74879998D01*
X177675457Y-74832378D01*
X177437361Y-74832378D01*
X177342123Y-74879998D01*
X177294504Y-74927617D01*
X177246885Y-75022855D01*
X177246885Y-75118093D01*
X177294504Y-75260950D01*
X177865933Y-75832378D01*
X177246885Y-75832378D01*
X177865933Y-82452378D02*
X177246885Y-82452378D01*
X177580219Y-82833331D01*
X177437361Y-82833331D01*
X177342123Y-82880950D01*
X177294504Y-82928569D01*
X177246885Y-83023807D01*
X177246885Y-83261902D01*
X177294504Y-83357140D01*
X177342123Y-83404759D01*
X177437361Y-83452378D01*
X177723076Y-83452378D01*
X177818314Y-83404759D01*
X177865933Y-83357140D01*
X177865933Y-77372378D02*
X177246885Y-77372378D01*
X177580219Y-77753331D01*
X177437361Y-77753331D01*
X177342123Y-77800950D01*
X177294504Y-77848569D01*
X177246885Y-77943807D01*
X177246885Y-78181902D01*
X177294504Y-78277140D01*
X177342123Y-78324759D01*
X177437361Y-78372378D01*
X177723076Y-78372378D01*
X177818314Y-78324759D01*
X177865933Y-78277140D01*
X177818314Y-69847617D02*
X177770695Y-69799998D01*
X177675457Y-69752378D01*
X177437361Y-69752378D01*
X177342123Y-69799998D01*
X177294504Y-69847617D01*
X177246885Y-69942855D01*
X177246885Y-70038093D01*
X177294504Y-70180950D01*
X177865933Y-70752378D01*
X177246885Y-70752378D01*
D11*
%TO.C,RGB2*%
X170472600Y-75119998D02*
X169972600Y-75119998D01*
X173172600Y-77244998D02*
X173172600Y-77919998D01*
X172672600Y-75119998D02*
X173172600Y-75119998D01*
X173172600Y-77919998D02*
X172672600Y-77919998D01*
X173172600Y-75119998D02*
X173172600Y-75794998D01*
X170472600Y-77919998D02*
X169972600Y-77919998D01*
X169972600Y-75119998D02*
X169972600Y-75794998D01*
X169972600Y-77919998D02*
X169972600Y-77244998D01*
D12*
X167882600Y-75939998D02*
G75*
G03*
X167882600Y-75739998I0J100000D01*
G01*
X167882600Y-75739998D02*
G75*
G03*
X167882600Y-75939998I0J-100000D01*
G01*
D11*
%TO.C,RGB1*%
X170472600Y-69719998D02*
X169972600Y-69719998D01*
X173172600Y-69719998D02*
X173172600Y-70394998D01*
X172672600Y-69719998D02*
X173172600Y-69719998D01*
X170472600Y-72519998D02*
X169972600Y-72519998D01*
X173172600Y-71844998D02*
X173172600Y-72519998D01*
X173172600Y-72519998D02*
X172672600Y-72519998D01*
X169972600Y-72519998D02*
X169972600Y-71844998D01*
X169972600Y-69719998D02*
X169972600Y-70394998D01*
D12*
X167882600Y-70339998D02*
G75*
G03*
X167882600Y-70539998I0J-100000D01*
G01*
X167882600Y-70539998D02*
G75*
G03*
X167882600Y-70339998I0J100000D01*
G01*
D11*
%TO.C,RGB3*%
X172672600Y-80519998D02*
X173172600Y-80519998D01*
X169972600Y-83319998D02*
X169972600Y-82644998D01*
X170472600Y-83319998D02*
X169972600Y-83319998D01*
X169972600Y-80519998D02*
X169972600Y-81194998D01*
X173172600Y-82644998D02*
X173172600Y-83319998D01*
X170472600Y-80519998D02*
X169972600Y-80519998D01*
X173172600Y-80519998D02*
X173172600Y-81194998D01*
X173172600Y-83319998D02*
X172672600Y-83319998D01*
D12*
X167882600Y-81139998D02*
G75*
G03*
X167882600Y-81339998I0J-100000D01*
G01*
X167882600Y-81339998D02*
G75*
G03*
X167882600Y-81139998I0J100000D01*
G01*
D11*
%TO.C,RGB4*%
X170472600Y-88719998D02*
X169972600Y-88719998D01*
X172672600Y-85919998D02*
X173172600Y-85919998D01*
X173172600Y-85919998D02*
X173172600Y-86594998D01*
X173172600Y-88044998D02*
X173172600Y-88719998D01*
X169972600Y-85919998D02*
X169972600Y-86594998D01*
X170472600Y-85919998D02*
X169972600Y-85919998D01*
X169972600Y-88719998D02*
X169972600Y-88044998D01*
X173172600Y-88719998D02*
X172672600Y-88719998D01*
D12*
X167882600Y-86739998D02*
G75*
G03*
X167882600Y-86539998I0J100000D01*
G01*
X167882600Y-86539998D02*
G75*
G03*
X167882600Y-86739998I0J-100000D01*
G01*
%TD*%
M02*
