M48
INCH,TZ
T1C0.0197
T2C0.0256
T3C0.1570
T4C0.1772
%
G90
G05
T1
X27713Y-61524
X27713Y-62114
X27741Y-50736
X27741Y-51327
X27769Y-24161
X27769Y-24161
X27769Y-24752
X27769Y-24752
X27769Y-35949
X27769Y-36539
X27807Y-75311
X27807Y-75902
X28008Y-61524
X28008Y-62114
X28036Y-50736
X28036Y-51327
X28064Y-24161
X28064Y-24161
X28064Y-24752
X28064Y-24752
X28064Y-35949
X28064Y-36539
X28102Y-75311
X28102Y-75902
X28303Y-61524
X28303Y-62114
X28332Y-50736
X28332Y-51327
X28359Y-24161
X28359Y-24161
X28359Y-24752
X28359Y-24752
X28359Y-35949
X28359Y-36539
X28398Y-75311
X28398Y-75902
X31662Y-18295
X31662Y-18591
X31662Y-18886
X31662Y-30083
X31662Y-30378
X31662Y-30673
X31670Y-18295
X31670Y-18591
X31670Y-18886
X31670Y-30083
X31670Y-30378
X31670Y-30673
X31736Y-77205
X31736Y-77500
X31736Y-77795
X32253Y-18295
X32253Y-18591
X32253Y-18886
X32253Y-30083
X32253Y-30378
X32253Y-30673
X32261Y-18295
X32261Y-18591
X32261Y-18886
X32261Y-30083
X32261Y-30378
X32261Y-30673
X32327Y-77205
X32327Y-77500
X32327Y-77795
X35564Y-24161
X35564Y-24161
X35564Y-24752
X35564Y-24752
X35564Y-35949
X35564Y-36539
X35602Y-75311
X35602Y-75902
X35859Y-24161
X35859Y-24161
X35859Y-24752
X35859Y-24752
X35859Y-35949
X35859Y-36539
X35898Y-75311
X35898Y-75902
X36155Y-24161
X36155Y-24161
X36155Y-24752
X36155Y-24752
X36155Y-35949
X36155Y-36539
X36193Y-75311
X36193Y-75902
X39458Y-18295
X39458Y-18591
X39458Y-18886
X39458Y-30083
X39458Y-30378
X39458Y-30673
X39466Y-18295
X39466Y-18591
X39466Y-18886
X39466Y-30083
X39466Y-30378
X39466Y-30673
X39524Y-77205
X39524Y-77500
X39524Y-77795
X40048Y-18295
X40048Y-18591
X40048Y-18886
X40048Y-30083
X40048Y-30378
X40048Y-30673
X40056Y-18295
X40056Y-18591
X40056Y-18886
X40056Y-30083
X40056Y-30378
X40056Y-30673
X40114Y-77205
X40114Y-77500
X40114Y-77795
X41098Y-61524
X41098Y-62114
X41127Y-50736
X41127Y-51327
X41394Y-61524
X41394Y-62114
X41422Y-50736
X41422Y-51327
X41689Y-61524
X41689Y-62114
X41718Y-50736
X41718Y-51327
X43358Y-75311
X43358Y-75902
X43359Y-24161
X43359Y-24161
X43359Y-24752
X43359Y-24752
X43359Y-35949
X43359Y-36539
X43654Y-75311
X43654Y-75902
X43655Y-24161
X43655Y-24161
X43655Y-24752
X43655Y-24752
X43655Y-35949
X43655Y-36539
X43949Y-75311
X43949Y-75902
X43950Y-24161
X43950Y-24161
X43950Y-24752
X43950Y-24752
X43950Y-35949
X43950Y-36539
X47253Y-18295
X47253Y-18591
X47253Y-18886
X47253Y-30083
X47253Y-30378
X47253Y-30673
X47261Y-18295
X47261Y-18591
X47261Y-18886
X47261Y-30083
X47261Y-30378
X47261Y-30673
X47311Y-77205
X47311Y-77500
X47311Y-77795
X47844Y-18295
X47844Y-18591
X47844Y-18886
X47844Y-30083
X47844Y-30378
X47844Y-30673
X47851Y-18295
X47851Y-18591
X47851Y-18886
X47851Y-30083
X47851Y-30378
X47851Y-30673
X47902Y-77205
X47902Y-77500
X47902Y-77795
X51155Y-24161
X51155Y-24161
X51155Y-24752
X51155Y-24752
X51155Y-35949
X51155Y-36539
X51248Y-75311
X51248Y-75902
X51450Y-24161
X51450Y-24161
X51450Y-24752
X51450Y-24752
X51450Y-35949
X51450Y-36539
X51543Y-75311
X51543Y-75902
X51728Y-61524
X51728Y-62114
X51745Y-24161
X51745Y-24161
X51745Y-24752
X51745Y-24752
X51745Y-35949
X51745Y-36539
X51757Y-50736
X51757Y-51327
X51839Y-75311
X51839Y-75902
X52024Y-61524
X52024Y-62114
X52052Y-50736
X52052Y-51327
X52319Y-61524
X52319Y-62114
X52347Y-50736
X52347Y-51327
X55048Y-18295
X55048Y-18591
X55048Y-18886
X55048Y-30083
X55048Y-30378
X55048Y-30673
X55056Y-18295
X55056Y-18591
X55056Y-18886
X55056Y-30083
X55056Y-30378
X55056Y-30673
X55098Y-77205
X55098Y-77500
X55098Y-77795
X55639Y-18295
X55639Y-18591
X55639Y-18886
X55639Y-30083
X55639Y-30378
X55639Y-30673
X55647Y-18295
X55647Y-18591
X55647Y-18886
X55647Y-30083
X55647Y-30378
X55647Y-30673
X55665Y-56421
X55665Y-56717
X55665Y-57012
X56736Y-68051
X56736Y-68346
X56736Y-68642
X56736Y-72815
X56736Y-73110
X56736Y-73406
X57327Y-68051
X57327Y-68346
X57327Y-68642
X57327Y-72815
X57327Y-73110
X57327Y-73406
X57343Y-77272
X57343Y-77567
X57343Y-77862
X57417Y-56421
X57417Y-56717
X57417Y-57012
X57662Y-43429
X57662Y-43724
X57662Y-44020
X58253Y-43429
X58253Y-43724
X58253Y-44020
X58950Y-24161
X58950Y-24161
X58950Y-24752
X58950Y-24752
X59245Y-24161
X59245Y-24161
X59245Y-24752
X59245Y-24752
X59540Y-24161
X59540Y-24161
X59540Y-24752
X59540Y-24752
X60663Y-70453
X60663Y-71043
X60958Y-70453
X60958Y-71043
X60970Y-65665
X60970Y-66256
X60980Y-75240
X60980Y-75831
X61254Y-70453
X61254Y-71043
X61265Y-65665
X61265Y-66256
X61276Y-75240
X61276Y-75831
X61561Y-65665
X61561Y-66256
X61571Y-75240
X61571Y-75831
X62844Y-18295
X62844Y-18591
X62844Y-18886
X62844Y-29713
X62844Y-30008
X62844Y-30303
X63434Y-18295
X63434Y-18591
X63434Y-18886
X63434Y-29713
X63434Y-30008
X63434Y-30303
X64524Y-68028
X64524Y-68323
X64524Y-68618
X64524Y-72878
X64524Y-73173
X64524Y-73469
X64539Y-78154
X64539Y-78449
X64539Y-78744
X65056Y-52878
X65056Y-53469
X65114Y-68028
X65114Y-68323
X65114Y-68618
X65114Y-72878
X65114Y-73173
X65114Y-73469
X65130Y-78154
X65130Y-78449
X65130Y-78744
X65351Y-52878
X65351Y-53469
X65647Y-52878
X65647Y-53469
X66482Y-65665
X66482Y-66256
X66777Y-65665
X66777Y-66256
X67072Y-65665
X67072Y-66256
X67686Y-22177
X67686Y-25579
X67891Y-34776
X67899Y-36681
X67981Y-22177
X67981Y-25579
X68186Y-34776
X68194Y-36681
X68277Y-22177
X68277Y-25579
X68481Y-34776
X68489Y-36681
X68537Y-70453
X68537Y-71043
X68614Y-56815
X68614Y-57110
X68614Y-57406
X68832Y-70453
X68832Y-71043
X68854Y-75240
X68854Y-75831
X69128Y-70453
X69128Y-71043
X69150Y-75240
X69150Y-75831
X69205Y-56815
X69205Y-57110
X69205Y-57406
X69445Y-75240
X69445Y-75831
X70232Y-52878
X70232Y-53469
X70528Y-52878
X70528Y-53469
X70823Y-52878
X70823Y-53469
T2
X66844Y-19982
X69119Y-19982
T3
X29378Y-68638
X36976Y-68638
X44638Y-68638
X52173Y-68638
T4
X68186Y-27000
X68186Y-29126
X68186Y-31252
X68186Y-33378
T0
M30
