M48
INCH,TZ
T1C0.0197
T2C0.0256
T3C0.1570
T4C0.1772
%
G90
G05
T1
X19083Y-58827
X19083Y-59417
X19111Y-48039
X19111Y-48630
X19139Y-21465
X19139Y-21465
X19139Y-22055
X19139Y-22055
X19139Y-33252
X19139Y-33843
X19177Y-72614
X19177Y-73205
X19378Y-58827
X19378Y-59417
X19407Y-48039
X19407Y-48630
X19434Y-21465
X19434Y-21465
X19434Y-22055
X19434Y-22055
X19434Y-33252
X19434Y-33843
X19472Y-72614
X19472Y-73205
X19673Y-58827
X19673Y-59417
X19702Y-48039
X19702Y-48630
X19729Y-21465
X19729Y-21465
X19729Y-22055
X19729Y-22055
X19729Y-33252
X19729Y-33843
X19768Y-72614
X19768Y-73205
X23033Y-15598
X23033Y-15894
X23033Y-16189
X23033Y-27386
X23033Y-27681
X23033Y-27976
X23040Y-15598
X23040Y-15894
X23040Y-16189
X23040Y-27386
X23040Y-27681
X23040Y-27976
X23106Y-74508
X23106Y-74803
X23106Y-75098
X23623Y-15598
X23623Y-15894
X23623Y-16189
X23623Y-27386
X23623Y-27681
X23623Y-27976
X23631Y-15598
X23631Y-15894
X23631Y-16189
X23631Y-27386
X23631Y-27681
X23631Y-27976
X23697Y-74508
X23697Y-74803
X23697Y-75098
X26934Y-21465
X26934Y-21465
X26934Y-22055
X26934Y-22055
X26934Y-33252
X26934Y-33843
X26972Y-72614
X26972Y-73205
X27229Y-21465
X27229Y-21465
X27229Y-22055
X27229Y-22055
X27229Y-33252
X27229Y-33843
X27268Y-72614
X27268Y-73205
X27525Y-21465
X27525Y-21465
X27525Y-22055
X27525Y-22055
X27525Y-33252
X27525Y-33843
X27563Y-72614
X27563Y-73205
X30828Y-15598
X30828Y-15894
X30828Y-16189
X30828Y-27386
X30828Y-27681
X30828Y-27976
X30836Y-15598
X30836Y-15894
X30836Y-16189
X30836Y-27386
X30836Y-27681
X30836Y-27976
X30894Y-74508
X30894Y-74803
X30894Y-75098
X31418Y-15598
X31418Y-15894
X31418Y-16189
X31418Y-27386
X31418Y-27681
X31418Y-27976
X31426Y-15598
X31426Y-15894
X31426Y-16189
X31426Y-27386
X31426Y-27681
X31426Y-27976
X31484Y-74508
X31484Y-74803
X31484Y-75098
X32469Y-58827
X32469Y-59417
X32497Y-48039
X32497Y-48630
X32764Y-58827
X32764Y-59417
X32792Y-48039
X32792Y-48630
X33059Y-58827
X33059Y-59417
X33088Y-48039
X33088Y-48630
X34728Y-72614
X34728Y-73205
X34729Y-21465
X34729Y-21465
X34729Y-22055
X34729Y-22055
X34729Y-33252
X34729Y-33843
X35024Y-72614
X35024Y-73205
X35025Y-21465
X35025Y-21465
X35025Y-22055
X35025Y-22055
X35025Y-33252
X35025Y-33843
X35319Y-72614
X35319Y-73205
X35320Y-21465
X35320Y-21465
X35320Y-22055
X35320Y-22055
X35320Y-33252
X35320Y-33843
X38623Y-15598
X38623Y-15894
X38623Y-16189
X38623Y-27386
X38623Y-27681
X38623Y-27976
X38631Y-15598
X38631Y-15894
X38631Y-16189
X38631Y-27386
X38631Y-27681
X38631Y-27976
X38681Y-74508
X38681Y-74803
X38681Y-75098
X39214Y-15598
X39214Y-15894
X39214Y-16189
X39214Y-27386
X39214Y-27681
X39214Y-27976
X39221Y-15598
X39221Y-15894
X39221Y-16189
X39221Y-27386
X39221Y-27681
X39221Y-27976
X39272Y-74508
X39272Y-74803
X39272Y-75098
X42525Y-21465
X42525Y-21465
X42525Y-22055
X42525Y-22055
X42525Y-33252
X42525Y-33843
X42618Y-72614
X42618Y-73205
X42820Y-21465
X42820Y-21465
X42820Y-22055
X42820Y-22055
X42820Y-33252
X42820Y-33843
X42913Y-72614
X42913Y-73205
X43098Y-58827
X43098Y-59417
X43115Y-21465
X43115Y-21465
X43115Y-22055
X43115Y-22055
X43115Y-33252
X43115Y-33843
X43127Y-48039
X43127Y-48630
X43209Y-72614
X43209Y-73205
X43394Y-58827
X43394Y-59417
X43422Y-48039
X43422Y-48630
X43689Y-58827
X43689Y-59417
X43718Y-48039
X43718Y-48630
X46418Y-15598
X46418Y-15894
X46418Y-16189
X46418Y-27386
X46418Y-27681
X46418Y-27976
X46426Y-15598
X46426Y-15894
X46426Y-16189
X46426Y-27386
X46426Y-27681
X46426Y-27976
X46469Y-74508
X46469Y-74803
X46469Y-75098
X47009Y-15598
X47009Y-15894
X47009Y-16189
X47009Y-27386
X47009Y-27681
X47009Y-27976
X47017Y-15598
X47017Y-15894
X47017Y-16189
X47017Y-27386
X47017Y-27681
X47017Y-27976
X47035Y-53724
X47035Y-54020
X47035Y-54315
X48106Y-65354
X48106Y-65650
X48106Y-65945
X48106Y-70118
X48106Y-70413
X48106Y-70709
X48697Y-65354
X48697Y-65650
X48697Y-65945
X48697Y-70118
X48697Y-70413
X48697Y-70709
X48713Y-74575
X48713Y-74870
X48713Y-75165
X48787Y-53724
X48787Y-54020
X48787Y-54315
X49033Y-40732
X49033Y-41028
X49033Y-41323
X49623Y-40732
X49623Y-41028
X49623Y-41323
X50320Y-21465
X50320Y-21465
X50320Y-22055
X50320Y-22055
X50615Y-21465
X50615Y-21465
X50615Y-22055
X50615Y-22055
X50910Y-21465
X50910Y-21465
X50910Y-22055
X50910Y-22055
X52033Y-67756
X52033Y-68346
X52328Y-67756
X52328Y-68346
X52340Y-62969
X52340Y-63559
X52350Y-72543
X52350Y-73134
X52624Y-67756
X52624Y-68346
X52635Y-62969
X52635Y-63559
X52646Y-72543
X52646Y-73134
X52931Y-62969
X52931Y-63559
X52941Y-72543
X52941Y-73134
X54214Y-15598
X54214Y-15894
X54214Y-16189
X54214Y-27016
X54214Y-27311
X54214Y-27606
X54804Y-15598
X54804Y-15894
X54804Y-16189
X54804Y-27016
X54804Y-27311
X54804Y-27606
X55894Y-65331
X55894Y-65626
X55894Y-65921
X55894Y-70181
X55894Y-70476
X55894Y-70772
X55909Y-75457
X55909Y-75752
X55909Y-76047
X56426Y-50181
X56426Y-50772
X56484Y-65331
X56484Y-65626
X56484Y-65921
X56484Y-70181
X56484Y-70476
X56484Y-70772
X56500Y-75457
X56500Y-75752
X56500Y-76047
X56721Y-50181
X56721Y-50772
X57017Y-50181
X57017Y-50772
X57852Y-62969
X57852Y-63559
X58147Y-62969
X58147Y-63559
X58442Y-62969
X58442Y-63559
X59056Y-19480
X59056Y-22882
X59261Y-32079
X59269Y-33984
X59351Y-19480
X59351Y-22882
X59556Y-32079
X59564Y-33984
X59647Y-19480
X59647Y-22882
X59851Y-32079
X59859Y-33984
X59907Y-67756
X59907Y-68346
X59984Y-54118
X59984Y-54413
X59984Y-54709
X60202Y-67756
X60202Y-68346
X60224Y-72543
X60224Y-73134
X60498Y-67756
X60498Y-68346
X60520Y-72543
X60520Y-73134
X60575Y-54118
X60575Y-54413
X60575Y-54709
X60815Y-72543
X60815Y-73134
X61602Y-50181
X61602Y-50772
X61898Y-50181
X61898Y-50772
X62193Y-50181
X62193Y-50772
T2
X58214Y-17285
X60489Y-17285
T3
X20748Y-65941
X28346Y-65941
X36008Y-65941
X43543Y-65941
T4
X59556Y-24303
X59556Y-26429
X59556Y-28555
X59556Y-30681
T0
M30
