%TF.GenerationSoftware,KiCad,Pcbnew,(6.0.2)*%
%TF.CreationDate,2022-03-20T20:43:40-04:00*%
%TF.ProjectId,Panel,50616e65-6c2e-46b6-9963-61645f706362,rev?*%
%TF.SameCoordinates,Original*%
%TF.FileFunction,Legend,Bot*%
%TF.FilePolarity,Positive*%
%FSLAX46Y46*%
G04 Gerber Fmt 4.6, Leading zero omitted, Abs format (unit mm)*
G04 Created by KiCad (PCBNEW (6.0.2)) date 2022-03-20 20:43:40*
%MOMM*%
%LPD*%
G01*
G04 APERTURE LIST*
%ADD10C,0.150000*%
%ADD11C,0.200000*%
%ADD12C,0.100000*%
G04 APERTURE END LIST*
D10*
X166262123Y-75165713D02*
X166262123Y-75832379D01*
X166500219Y-74784760D02*
X166738314Y-75499046D01*
X166119266Y-75499046D01*
X166262123Y-85325713D02*
X166262123Y-85992379D01*
X166500219Y-84944760D02*
X166738314Y-85659046D01*
X166119266Y-85659046D01*
X166166885Y-83452379D02*
X166738314Y-83452379D01*
X166452600Y-83452379D02*
X166452600Y-82452379D01*
X166547838Y-82595237D01*
X166643076Y-82690475D01*
X166738314Y-82738094D01*
X179485933Y-84992379D02*
X178866885Y-84992379D01*
X179200219Y-85373332D01*
X179057361Y-85373332D01*
X178962123Y-85420951D01*
X178914504Y-85468570D01*
X178866885Y-85563808D01*
X178866885Y-85801903D01*
X178914504Y-85897141D01*
X178962123Y-85944760D01*
X179057361Y-85992379D01*
X179343076Y-85992379D01*
X179438314Y-85944760D01*
X179485933Y-85897141D01*
X179485933Y-69752379D02*
X178866885Y-69752379D01*
X179200219Y-70133332D01*
X179057361Y-70133332D01*
X178962123Y-70180951D01*
X178914504Y-70228570D01*
X178866885Y-70323808D01*
X178866885Y-70561903D01*
X178914504Y-70657141D01*
X178962123Y-70704760D01*
X179057361Y-70752379D01*
X179343076Y-70752379D01*
X179438314Y-70704760D01*
X179485933Y-70657141D01*
X179438314Y-82547618D02*
X179390695Y-82499999D01*
X179295457Y-82452379D01*
X179057361Y-82452379D01*
X178962123Y-82499999D01*
X178914504Y-82547618D01*
X178866885Y-82642856D01*
X178866885Y-82738094D01*
X178914504Y-82880951D01*
X179485933Y-83452379D01*
X178866885Y-83452379D01*
X166166885Y-68212379D02*
X166738314Y-68212379D01*
X166452600Y-68212379D02*
X166452600Y-67212379D01*
X166547838Y-67355237D01*
X166643076Y-67450475D01*
X166738314Y-67498094D01*
X166166885Y-73292379D02*
X166738314Y-73292379D01*
X166452600Y-73292379D02*
X166452600Y-72292379D01*
X166547838Y-72435237D01*
X166643076Y-72530475D01*
X166738314Y-72578094D01*
X166166885Y-78372379D02*
X166738314Y-78372379D01*
X166452600Y-78372379D02*
X166452600Y-77372379D01*
X166547838Y-77515237D01*
X166643076Y-77610475D01*
X166738314Y-77658094D01*
X179438314Y-77467618D02*
X179390695Y-77419999D01*
X179295457Y-77372379D01*
X179057361Y-77372379D01*
X178962123Y-77419999D01*
X178914504Y-77467618D01*
X178866885Y-77562856D01*
X178866885Y-77658094D01*
X178914504Y-77800951D01*
X179485933Y-78372379D01*
X178866885Y-78372379D01*
X166262123Y-80245713D02*
X166262123Y-80912379D01*
X166500219Y-79864760D02*
X166738314Y-80579046D01*
X166119266Y-80579046D01*
X166262123Y-70085713D02*
X166262123Y-70752379D01*
X166500219Y-69704760D02*
X166738314Y-70419046D01*
X166119266Y-70419046D01*
X179438314Y-72387618D02*
X179390695Y-72339999D01*
X179295457Y-72292379D01*
X179057361Y-72292379D01*
X178962123Y-72339999D01*
X178914504Y-72387618D01*
X178866885Y-72482856D01*
X178866885Y-72578094D01*
X178914504Y-72720951D01*
X179485933Y-73292379D01*
X178866885Y-73292379D01*
X179485933Y-79912379D02*
X178866885Y-79912379D01*
X179200219Y-80293332D01*
X179057361Y-80293332D01*
X178962123Y-80340951D01*
X178914504Y-80388570D01*
X178866885Y-80483808D01*
X178866885Y-80721903D01*
X178914504Y-80817141D01*
X178962123Y-80864760D01*
X179057361Y-80912379D01*
X179343076Y-80912379D01*
X179438314Y-80864760D01*
X179485933Y-80817141D01*
X179485933Y-74832379D02*
X178866885Y-74832379D01*
X179200219Y-75213332D01*
X179057361Y-75213332D01*
X178962123Y-75260951D01*
X178914504Y-75308570D01*
X178866885Y-75403808D01*
X178866885Y-75641903D01*
X178914504Y-75737141D01*
X178962123Y-75784760D01*
X179057361Y-75832379D01*
X179343076Y-75832379D01*
X179438314Y-75784760D01*
X179485933Y-75737141D01*
X179438314Y-67307618D02*
X179390695Y-67259999D01*
X179295457Y-67212379D01*
X179057361Y-67212379D01*
X178962123Y-67259999D01*
X178914504Y-67307618D01*
X178866885Y-67402856D01*
X178866885Y-67498094D01*
X178914504Y-67640951D01*
X179485933Y-68212379D01*
X178866885Y-68212379D01*
D11*
%TO.C,RGB2*%
X169502600Y-73199999D02*
G75*
G03*
X169502600Y-73399999I0J-100000D01*
G01*
X169502600Y-73399999D02*
G75*
G03*
X169502600Y-73199999I0J100000D01*
G01*
D12*
X171592600Y-75379999D02*
X171592600Y-74704999D01*
X171592600Y-72579999D02*
X171592600Y-73254999D01*
X172092600Y-75379999D02*
X171592600Y-75379999D01*
X174792600Y-72579999D02*
X174792600Y-73254999D01*
X174792600Y-75379999D02*
X174292600Y-75379999D01*
X174292600Y-72579999D02*
X174792600Y-72579999D01*
X174792600Y-74704999D02*
X174792600Y-75379999D01*
X172092600Y-72579999D02*
X171592600Y-72579999D01*
D11*
%TO.C,RGB1*%
X169502600Y-67999999D02*
G75*
G03*
X169502600Y-67799999I0J100000D01*
G01*
X169502600Y-67799999D02*
G75*
G03*
X169502600Y-67999999I0J-100000D01*
G01*
D12*
X171592600Y-67179999D02*
X171592600Y-67854999D01*
X171592600Y-69979999D02*
X171592600Y-69304999D01*
X174792600Y-69979999D02*
X174292600Y-69979999D01*
X174792600Y-69304999D02*
X174792600Y-69979999D01*
X172092600Y-69979999D02*
X171592600Y-69979999D01*
X174292600Y-67179999D02*
X174792600Y-67179999D01*
X174792600Y-67179999D02*
X174792600Y-67854999D01*
X172092600Y-67179999D02*
X171592600Y-67179999D01*
D11*
%TO.C,RGB3*%
X169502600Y-78799999D02*
G75*
G03*
X169502600Y-78599999I0J100000D01*
G01*
X169502600Y-78599999D02*
G75*
G03*
X169502600Y-78799999I0J-100000D01*
G01*
D12*
X174792600Y-80779999D02*
X174292600Y-80779999D01*
X174792600Y-77979999D02*
X174792600Y-78654999D01*
X172092600Y-77979999D02*
X171592600Y-77979999D01*
X174792600Y-80104999D02*
X174792600Y-80779999D01*
X171592600Y-77979999D02*
X171592600Y-78654999D01*
X172092600Y-80779999D02*
X171592600Y-80779999D01*
X171592600Y-80779999D02*
X171592600Y-80104999D01*
X174292600Y-77979999D02*
X174792600Y-77979999D01*
D11*
%TO.C,RGB4*%
X169502600Y-83999999D02*
G75*
G03*
X169502600Y-84199999I0J-100000D01*
G01*
X169502600Y-84199999D02*
G75*
G03*
X169502600Y-83999999I0J100000D01*
G01*
D12*
X174792600Y-86179999D02*
X174292600Y-86179999D01*
X171592600Y-86179999D02*
X171592600Y-85504999D01*
X172092600Y-83379999D02*
X171592600Y-83379999D01*
X171592600Y-83379999D02*
X171592600Y-84054999D01*
X174792600Y-85504999D02*
X174792600Y-86179999D01*
X174792600Y-83379999D02*
X174792600Y-84054999D01*
X174292600Y-83379999D02*
X174792600Y-83379999D01*
X172092600Y-86179999D02*
X171592600Y-86179999D01*
%TD*%
M02*
