%TF.GenerationSoftware,KiCad,Pcbnew,(6.0.2)*%
%TF.CreationDate,2022-03-22T08:03:31-04:00*%
%TF.ProjectId,Panel,50616e65-6c2e-46b6-9963-61645f706362,rev?*%
%TF.SameCoordinates,Original*%
%TF.FileFunction,Soldermask,Bot*%
%TF.FilePolarity,Negative*%
%FSLAX46Y46*%
G04 Gerber Fmt 4.6, Leading zero omitted, Abs format (unit mm)*
G04 Created by KiCad (PCBNEW (6.0.2)) date 2022-03-22 08:03:31*
%MOMM*%
%LPD*%
G01*
G04 APERTURE LIST*
%ADD10C,0.500000*%
%ADD11R,1.700000X1.700000*%
%ADD12O,1.700000X1.700000*%
%ADD13C,3.987800*%
%ADD14C,2.250000*%
%ADD15R,2.000000X2.000000*%
%ADD16C,2.000000*%
%ADD17R,3.000000X2.500000*%
%ADD18C,0.650000*%
%ADD19O,1.000000X2.100000*%
%ADD20O,1.000000X1.600000*%
%ADD21C,4.500000*%
%ADD22R,1.400000X0.800000*%
G04 APERTURE END LIST*
D10*
%TO.C,mouse-bite-2mm-slot20*%
X68912599Y-63909997D03*
X69662599Y-65409997D03*
X70412599Y-65409997D03*
X70412599Y-63909997D03*
X69662599Y-63909997D03*
X68912599Y-65409997D03*
%TD*%
%TO.C,mouse-bite-2mm-slot*%
X68842599Y-131409999D03*
X70342599Y-131409999D03*
X69592599Y-132909999D03*
X69592599Y-131409999D03*
X70342599Y-132909999D03*
X68842599Y-132909999D03*
%TD*%
D11*
%TO.C,J36*%
X115612599Y-38259998D03*
D12*
X115612599Y-40799998D03*
X115612599Y-43339998D03*
X115612599Y-45879998D03*
X115612599Y-48419998D03*
X115612599Y-50959998D03*
X115612599Y-53499998D03*
X115612599Y-56039998D03*
X115612599Y-58579998D03*
X115612599Y-61119998D03*
%TD*%
D10*
%TO.C,mouse-bite-2mm-slot*%
X104342599Y-131409999D03*
X102842599Y-132909999D03*
X104342599Y-132909999D03*
X103592599Y-131409999D03*
X103592599Y-132909999D03*
X102842599Y-131409999D03*
%TD*%
%TO.C,mouse-bite-2mm-slot*%
X170842599Y-95709999D03*
X172342599Y-95709999D03*
X171592599Y-95709999D03*
%TD*%
D11*
%TO.C,J52*%
X179259999Y-188320000D03*
D12*
X179259999Y-185780000D03*
%TD*%
D11*
%TO.C,J50*%
X155212599Y-68199998D03*
D12*
X155212599Y-70739998D03*
X155212599Y-73279998D03*
X155212599Y-75819998D03*
X155212599Y-78359998D03*
X155212599Y-80899998D03*
X155212599Y-83439998D03*
X155212599Y-85979998D03*
X155212599Y-88519998D03*
X155212599Y-91059998D03*
%TD*%
D10*
%TO.C,mouse-bite-2mm-slot*%
X162269999Y-189150000D03*
X163769999Y-188400000D03*
X163769999Y-189150000D03*
X162269999Y-188400000D03*
X163769999Y-187650000D03*
X162269999Y-187650000D03*
%TD*%
D11*
%TO.C,J19*%
X135540000Y-200659999D03*
D12*
X135540000Y-198119999D03*
%TD*%
D11*
%TO.C,JOLED1*%
X149132599Y-98499999D03*
D12*
X149132599Y-101039999D03*
X149132599Y-103579999D03*
X149132599Y-106119999D03*
X149132599Y-108659999D03*
X149132599Y-111199999D03*
X149132599Y-113739999D03*
X149132599Y-116279999D03*
X149132599Y-118819999D03*
X149132599Y-121359999D03*
X149132599Y-123899999D03*
X149132599Y-126439999D03*
X149132599Y-128979999D03*
X149132599Y-131519999D03*
X149132599Y-134059999D03*
%TD*%
D11*
%TO.C,J11*%
X142052599Y-98139999D03*
D12*
X139512599Y-98139999D03*
X136972599Y-98139999D03*
X134432599Y-98139999D03*
X131892599Y-98139999D03*
X129352599Y-98139999D03*
X126812599Y-98139999D03*
X124272599Y-98139999D03*
X121732599Y-98139999D03*
X119192599Y-98139999D03*
X116652599Y-98139999D03*
X114112599Y-98139999D03*
X111572599Y-98139999D03*
X109032599Y-98139999D03*
X106492599Y-98139999D03*
X103952599Y-98139999D03*
X101412599Y-98139999D03*
X98872599Y-98139999D03*
X96332599Y-98139999D03*
X93792599Y-98139999D03*
X91252599Y-98139999D03*
X88712599Y-98139999D03*
X86172599Y-98139999D03*
X83632599Y-98139999D03*
X81092599Y-98139999D03*
X78552599Y-98139999D03*
X76012599Y-98139999D03*
X73472599Y-98139999D03*
X70932599Y-98139999D03*
X68392599Y-98139999D03*
X65852599Y-98139999D03*
X63312599Y-98139999D03*
%TD*%
D10*
%TO.C,mouse-bite-2mm-slot10*%
X118422599Y-50509998D03*
X118422599Y-49009998D03*
X119922599Y-49009998D03*
X118422599Y-49759998D03*
X119922599Y-49759998D03*
X119922599Y-50509998D03*
%TD*%
%TO.C,mouse-bite-2mm-slot36*%
X148112599Y-63909997D03*
X148862599Y-63909997D03*
X148112599Y-65409997D03*
X149612599Y-63909997D03*
X148862599Y-65409997D03*
X149612599Y-65409997D03*
%TD*%
D11*
%TO.C,J43*%
X83112599Y-68199998D03*
D12*
X83112599Y-70739998D03*
X83112599Y-73279998D03*
X83112599Y-75819998D03*
X83112599Y-78359998D03*
X83112599Y-80899998D03*
X83112599Y-83439998D03*
X83112599Y-85979998D03*
X83112599Y-88519998D03*
X83112599Y-91059998D03*
%TD*%
D10*
%TO.C,mouse-bite-2mm-slot22*%
X80322599Y-80449998D03*
X78822599Y-80449998D03*
X80322599Y-79699998D03*
X80322599Y-78949998D03*
X78822599Y-78949998D03*
X78822599Y-79699998D03*
%TD*%
%TO.C,mouse-bite-2mm-slot*%
X78989999Y-199389999D03*
X80489999Y-200139999D03*
X78989999Y-198639999D03*
X78989999Y-200139999D03*
X80489999Y-199389999D03*
X80489999Y-198639999D03*
%TD*%
%TO.C,mouse-bite-2mm-slot*%
X109259999Y-193829999D03*
X109259999Y-195329999D03*
X108509999Y-195329999D03*
X108509999Y-193829999D03*
X110009999Y-195329999D03*
X110009999Y-193829999D03*
%TD*%
D11*
%TO.C,J32*%
X66039999Y-191039999D03*
D12*
X63499999Y-191039999D03*
%TD*%
D11*
%TO.C,J45*%
X102912599Y-68199998D03*
D12*
X102912599Y-70739998D03*
X102912599Y-73279998D03*
X102912599Y-75819998D03*
X102912599Y-78359998D03*
X102912599Y-80899998D03*
X102912599Y-83439998D03*
X102912599Y-85979998D03*
X102912599Y-88519998D03*
X102912599Y-91059998D03*
%TD*%
D11*
%TO.C,J26*%
X166560000Y-173620000D03*
D12*
X166560000Y-176160000D03*
X166560000Y-178700000D03*
%TD*%
D10*
%TO.C,mouse-bite-2mm-slot6*%
X100122599Y-49759998D03*
X98622599Y-49009998D03*
X100122599Y-49009998D03*
X100122599Y-50509998D03*
X98622599Y-49759998D03*
X98622599Y-50509998D03*
%TD*%
%TO.C,mouse-bite-2mm-slot2*%
X78822599Y-50509998D03*
X80322599Y-50509998D03*
X78822599Y-49759998D03*
X78822599Y-49009998D03*
X80322599Y-49009998D03*
X80322599Y-49759998D03*
%TD*%
%TO.C,mouse-bite-2mm-slot*%
X78802600Y-49009998D03*
X78802600Y-49759998D03*
X80302600Y-49009998D03*
X80302600Y-50509998D03*
X80302600Y-49759998D03*
X78802600Y-50509998D03*
%TD*%
D13*
%TO.C,MX1*%
X130899999Y-176879999D03*
D14*
X133439999Y-173069999D03*
X135979999Y-179419999D03*
%TD*%
D11*
%TO.C,J34*%
X95812599Y-38259998D03*
D12*
X95812599Y-40799998D03*
X95812599Y-43339998D03*
X95812599Y-45879998D03*
X95812599Y-48419998D03*
X95812599Y-50959998D03*
X95812599Y-53499998D03*
X95812599Y-56039998D03*
X95812599Y-58579998D03*
X95812599Y-61119998D03*
%TD*%
D10*
%TO.C,mouse-bite-2mm-slot*%
X171572600Y-90869998D03*
X170822600Y-90869998D03*
X172322600Y-90869998D03*
%TD*%
D11*
%TO.C,J30*%
X139699999Y-191099707D03*
D12*
X137159999Y-191099707D03*
%TD*%
D11*
%TO.C,J31*%
X66039999Y-163099999D03*
D12*
X63499999Y-163099999D03*
%TD*%
D11*
%TO.C,J53*%
X166599998Y-197940001D03*
D12*
X166599998Y-200480001D03*
X166599998Y-203020001D03*
X166599998Y-205560001D03*
%TD*%
D11*
%TO.C,J4*%
X76012599Y-38259998D03*
D12*
X76012599Y-40799998D03*
X76012599Y-43339998D03*
X76012599Y-45879998D03*
X76012599Y-48419998D03*
X76012599Y-50959998D03*
X76012599Y-53499998D03*
X76012599Y-56039998D03*
X76012599Y-58579998D03*
X76012599Y-61119998D03*
%TD*%
D10*
%TO.C,mouse-bite-2mm-slot*%
X174769999Y-195150000D03*
X173269999Y-193650000D03*
X174019999Y-195150000D03*
X174019999Y-193650000D03*
X174769999Y-193650000D03*
X173269999Y-195150000D03*
%TD*%
%TO.C,mouse-bite-2mm-slot*%
X168743947Y-170830000D03*
X167993947Y-169330000D03*
X167993947Y-170830000D03*
X167243947Y-170830000D03*
X167243947Y-169330000D03*
X168743947Y-169330000D03*
%TD*%
%TO.C,mouse-bite-2mm-slot*%
X143989999Y-188240000D03*
X142489999Y-188990000D03*
X142489999Y-187490000D03*
X143989999Y-188990000D03*
X142489999Y-188240000D03*
X143989999Y-187490000D03*
%TD*%
%TO.C,mouse-bite-2mm-slot5*%
X110012599Y-65409999D03*
X109262599Y-65409999D03*
X108512599Y-63909999D03*
X108512599Y-65409999D03*
X110012599Y-63909999D03*
X109262599Y-63909999D03*
%TD*%
%TO.C,mouse-bite-2mm-slot31*%
X138202600Y-79699998D03*
X139702600Y-79699998D03*
X138202600Y-78949998D03*
X139702600Y-78949998D03*
X139702600Y-80449998D03*
X138202600Y-80449998D03*
%TD*%
%TO.C,mouse-bite-2mm-slot*%
X171052600Y-67509998D03*
X170302600Y-67509998D03*
X171802600Y-67509998D03*
%TD*%
%TO.C,mouse-bite-2mm-slot24*%
X89462599Y-65409997D03*
X88712599Y-63909997D03*
X88712599Y-65409997D03*
X89462599Y-63909997D03*
X90212599Y-65409997D03*
X90212599Y-63909997D03*
%TD*%
D11*
%TO.C,J23*%
X122840000Y-198119999D03*
D12*
X122840000Y-200659999D03*
%TD*%
D11*
%TO.C,J5*%
X136979999Y-135699999D03*
D12*
X134439999Y-135699999D03*
X131899999Y-135699999D03*
X129359999Y-135699999D03*
X126819999Y-135699999D03*
X124279999Y-135699999D03*
X121739999Y-135699999D03*
X119199999Y-135699999D03*
X116659999Y-135699999D03*
X114119999Y-135699999D03*
X111579999Y-135699999D03*
X109039999Y-135699999D03*
X106499999Y-135699999D03*
X103959999Y-135699999D03*
X101419999Y-135699999D03*
X98879999Y-135699999D03*
X96339999Y-135699999D03*
X93799999Y-135699999D03*
X91259999Y-135699999D03*
X88719999Y-135699999D03*
X86179999Y-135699999D03*
X83639999Y-135699999D03*
X81099999Y-135699999D03*
X78559999Y-135699999D03*
X76019999Y-135699999D03*
X73479999Y-135699999D03*
X70939999Y-135699999D03*
X68399999Y-135699999D03*
X65859999Y-135699999D03*
X63319999Y-135699999D03*
%TD*%
D11*
%TO.C,J18*%
X162292600Y-56080001D03*
D12*
X162292600Y-53540001D03*
X162292600Y-51000001D03*
X162292600Y-48460001D03*
X162292600Y-45920001D03*
X162292600Y-43380001D03*
X162292600Y-40840001D03*
%TD*%
D11*
%TO.C,J6*%
X63499999Y-198119999D03*
D12*
X63499999Y-200659999D03*
%TD*%
D13*
%TO.C,MX3*%
X111759999Y-176879999D03*
D14*
X114299999Y-173069999D03*
X116839999Y-179419999D03*
%TD*%
D11*
%TO.C,J40*%
X155212599Y-38259998D03*
D12*
X155212599Y-40799998D03*
X155212599Y-43339998D03*
X155212599Y-45879998D03*
X155212599Y-48419998D03*
X155212599Y-50959998D03*
X155212599Y-53499998D03*
X155212599Y-56039998D03*
X155212599Y-58579998D03*
X155212599Y-61119998D03*
%TD*%
D11*
%TO.C,J8*%
X147009998Y-148760000D03*
D12*
X147009998Y-151300000D03*
X147009998Y-153840000D03*
X147009998Y-156380000D03*
X147009998Y-158920000D03*
X147009998Y-161460000D03*
%TD*%
D10*
%TO.C,mouse-bite-2mm-slot*%
X163622599Y-136849999D03*
X165122599Y-138349999D03*
X164372599Y-138349999D03*
X164372599Y-136849999D03*
X165122599Y-136849999D03*
X163622599Y-138349999D03*
%TD*%
%TO.C,mouse-bite-2mm-slot*%
X69009999Y-195329999D03*
X70509999Y-193829999D03*
X69759999Y-193829999D03*
X69009999Y-193829999D03*
X70509999Y-195329999D03*
X69759999Y-195329999D03*
%TD*%
%TO.C,mouse-bite-2mm-slot*%
X142489999Y-175390000D03*
X142489999Y-176890000D03*
X143989999Y-176890000D03*
X143989999Y-176140000D03*
X143989999Y-175390000D03*
X142489999Y-176140000D03*
%TD*%
D11*
%TO.C,J16*%
X146779999Y-185780000D03*
D12*
X146779999Y-188320000D03*
X146779999Y-190860000D03*
%TD*%
D10*
%TO.C,mouse-bite-2mm-slot*%
X68769999Y-160309999D03*
X69519999Y-158809999D03*
X69519999Y-160309999D03*
X70269999Y-158809999D03*
X68769999Y-158809999D03*
X70269999Y-160309999D03*
%TD*%
D11*
%TO.C,J28*%
X179260000Y-173620000D03*
D12*
X179260000Y-176160000D03*
X179260000Y-178700000D03*
%TD*%
D10*
%TO.C,mouse-bite-2mm-slot21*%
X88712599Y-95349999D03*
X89462599Y-95349999D03*
X90212599Y-95349999D03*
X89462599Y-93849999D03*
X90212599Y-93849999D03*
X88712599Y-93849999D03*
%TD*%
%TO.C,mouse-bite-2mm-slot*%
X144219998Y-147349999D03*
X144219998Y-145849999D03*
X144219998Y-146599999D03*
%TD*%
%TO.C,mouse-bite-2mm-slot*%
X138330000Y-198639999D03*
X138330000Y-199389999D03*
X138330000Y-200139999D03*
%TD*%
D11*
%TO.C,J58*%
X115759999Y-200659999D03*
D12*
X115759999Y-198119999D03*
%TD*%
D11*
%TO.C,J47*%
X122712599Y-68199998D03*
D12*
X122712599Y-70739998D03*
X122712599Y-73279998D03*
X122712599Y-75819998D03*
X122712599Y-78359998D03*
X122712599Y-80899998D03*
X122712599Y-83439998D03*
X122712599Y-85979998D03*
X122712599Y-88519998D03*
X122712599Y-91059998D03*
%TD*%
D11*
%TO.C,J35*%
X102912599Y-38259998D03*
D12*
X102912599Y-40799998D03*
X102912599Y-43339998D03*
X102912599Y-45879998D03*
X102912599Y-48419998D03*
X102912599Y-50959998D03*
X102912599Y-53499998D03*
X102912599Y-56039998D03*
X102912599Y-58579998D03*
X102912599Y-61119998D03*
%TD*%
D11*
%TO.C,J57*%
X103059999Y-198119999D03*
D12*
X103059999Y-200659999D03*
%TD*%
D11*
%TO.C,J38*%
X135412599Y-38259998D03*
D12*
X135412599Y-40799998D03*
X135412599Y-43339998D03*
X135412599Y-45879998D03*
X135412599Y-48419998D03*
X135412599Y-50959998D03*
X135412599Y-53499998D03*
X135412599Y-56039998D03*
X135412599Y-58579998D03*
X135412599Y-61119998D03*
%TD*%
D10*
%TO.C,mouse-bite-2mm-slot14*%
X158002600Y-78009998D03*
X159502600Y-78759998D03*
X158002600Y-79509998D03*
X159502600Y-78009998D03*
X158002600Y-78759998D03*
X159502600Y-79509998D03*
%TD*%
D11*
%TO.C,J41*%
X63312599Y-68199998D03*
D12*
X63312599Y-70739998D03*
X63312599Y-73279998D03*
X63312599Y-75819998D03*
X63312599Y-78359998D03*
X63312599Y-80899998D03*
X63312599Y-83439998D03*
X63312599Y-85979998D03*
X63312599Y-88519998D03*
X63312599Y-91059998D03*
%TD*%
D11*
%TO.C,J54*%
X179299998Y-200480001D03*
D12*
X179299998Y-203020001D03*
%TD*%
D10*
%TO.C,mouse-bite-2mm-slot*%
X130049999Y-193829999D03*
X128549999Y-195329999D03*
X130049999Y-195329999D03*
X129299999Y-193829999D03*
X128549999Y-193829999D03*
X129299999Y-195329999D03*
%TD*%
%TO.C,mouse-bite-2mm-slot*%
X130592599Y-131409999D03*
X131342599Y-131409999D03*
X129842599Y-131409999D03*
X131342599Y-132909999D03*
X129842599Y-132909999D03*
X130592599Y-132909999D03*
%TD*%
D11*
%TO.C,J22*%
X151859999Y-173620000D03*
D12*
X154399999Y-173620000D03*
X151859999Y-176160000D03*
X154399999Y-176160000D03*
X151859999Y-178700000D03*
X154399999Y-178700000D03*
%TD*%
D10*
%TO.C,mouse-bite-2mm-slot*%
X172463947Y-181490000D03*
X173963947Y-181490000D03*
X173963947Y-182990000D03*
X173213947Y-182990000D03*
X173213947Y-181490000D03*
X172463947Y-182990000D03*
%TD*%
%TO.C,mouse-bite-2mm-slot*%
X131269999Y-160309999D03*
X129769999Y-160309999D03*
X130519999Y-160309999D03*
X129769999Y-158809999D03*
X130519999Y-158809999D03*
X131269999Y-158809999D03*
%TD*%
D11*
%TO.C,J29*%
X139699999Y-163159707D03*
D12*
X137159999Y-163159707D03*
%TD*%
D10*
%TO.C,mouse-bite-2mm-slot28*%
X108512599Y-63909997D03*
X109262599Y-65409997D03*
X110012599Y-65409997D03*
X110012599Y-63909997D03*
X109262599Y-63909997D03*
X108512599Y-65409997D03*
%TD*%
D11*
%TO.C,J1*%
X63319999Y-156019999D03*
D12*
X65859999Y-156019999D03*
X68399999Y-156019999D03*
X70939999Y-156019999D03*
X73479999Y-156019999D03*
X76019999Y-156019999D03*
X78559999Y-156019999D03*
X81099999Y-156019999D03*
X83639999Y-156019999D03*
X86179999Y-156019999D03*
X88719999Y-156019999D03*
X91259999Y-156019999D03*
X93799999Y-156019999D03*
X96339999Y-156019999D03*
X98879999Y-156019999D03*
X101419999Y-156019999D03*
X103959999Y-156019999D03*
X106499999Y-156019999D03*
X109039999Y-156019999D03*
X111579999Y-156019999D03*
X114119999Y-156019999D03*
X116659999Y-156019999D03*
X119199999Y-156019999D03*
X121739999Y-156019999D03*
X124279999Y-156019999D03*
X126819999Y-156019999D03*
X129359999Y-156019999D03*
X131899999Y-156019999D03*
X134439999Y-156019999D03*
X136979999Y-156019999D03*
%TD*%
D11*
%TO.C,J3*%
X63312599Y-128619999D03*
D12*
X65852599Y-128619999D03*
X68392599Y-128619999D03*
X70932599Y-128619999D03*
X73472599Y-128619999D03*
X76012599Y-128619999D03*
X78552599Y-128619999D03*
X81092599Y-128619999D03*
X83632599Y-128619999D03*
X86172599Y-128619999D03*
X88712599Y-128619999D03*
X91252599Y-128619999D03*
X93792599Y-128619999D03*
X96332599Y-128619999D03*
X98872599Y-128619999D03*
X101412599Y-128619999D03*
X103952599Y-128619999D03*
X106492599Y-128619999D03*
X109032599Y-128619999D03*
X111572599Y-128619999D03*
X114112599Y-128619999D03*
X116652599Y-128619999D03*
X119192599Y-128619999D03*
X121732599Y-128619999D03*
X124272599Y-128619999D03*
X126812599Y-128619999D03*
X129352599Y-128619999D03*
X131892599Y-128619999D03*
X134432599Y-128619999D03*
X136972599Y-128619999D03*
X139512599Y-128619999D03*
X142052599Y-128619999D03*
%TD*%
D11*
%TO.C,J24*%
X159479999Y-173620000D03*
D12*
X159479999Y-176160000D03*
X159479999Y-178700000D03*
%TD*%
D11*
%TO.C,J19*%
X176949998Y-153840000D03*
D12*
X179489998Y-153840000D03*
%TD*%
D10*
%TO.C,mouse-bite-2mm-slot29*%
X129062599Y-93849999D03*
X129812599Y-95349999D03*
X128312599Y-95349999D03*
X129062599Y-95349999D03*
X129812599Y-93849999D03*
X128312599Y-93849999D03*
%TD*%
D11*
%TO.C,J15*%
X146819998Y-197940001D03*
D12*
X146819998Y-200480001D03*
X146819998Y-203020001D03*
X146819998Y-205560001D03*
%TD*%
D11*
%TO.C,J51*%
X166559999Y-185780000D03*
D12*
X166559999Y-188320000D03*
X166559999Y-190860000D03*
%TD*%
D10*
%TO.C,mouse-bite-2mm-slot*%
X144029998Y-198810001D03*
X144029998Y-200310001D03*
X144029998Y-199560001D03*
%TD*%
%TO.C,mouse-bite-2mm-slot*%
X152463947Y-181490000D03*
X153963947Y-181490000D03*
X153963947Y-182990000D03*
X152463947Y-182990000D03*
X153213947Y-182990000D03*
X153213947Y-181490000D03*
%TD*%
D11*
%TO.C,J20*%
X159479999Y-188320000D03*
D12*
X159479999Y-185780000D03*
%TD*%
D11*
%TO.C,J23*%
X179489998Y-141140000D03*
D12*
X176949998Y-141140000D03*
%TD*%
D10*
%TO.C,mouse-bite-2mm-slot14*%
X159502600Y-49759998D03*
X159502600Y-49009998D03*
X158002600Y-49759998D03*
X159502600Y-50509998D03*
X158002600Y-49009998D03*
X158002600Y-50509998D03*
%TD*%
D11*
%TO.C,JOLED2*%
X179612599Y-98504999D03*
D12*
X179612599Y-101044999D03*
X179612599Y-103584999D03*
X179612599Y-106124999D03*
X179612599Y-108664999D03*
X179612599Y-111204999D03*
X179612599Y-113744999D03*
X179612599Y-116284999D03*
X179612599Y-118824999D03*
X179612599Y-121364999D03*
X179612599Y-123904999D03*
X179612599Y-126444999D03*
X179612599Y-128984999D03*
X179612599Y-131524999D03*
X179612599Y-134064999D03*
%TD*%
D11*
%TO.C,J10*%
X106679999Y-163099999D03*
D12*
X104139999Y-163099999D03*
X101599999Y-163099999D03*
X99059999Y-163099999D03*
%TD*%
D10*
%TO.C,mouse-bite-2mm-slot7*%
X118402600Y-50509998D03*
X119902600Y-49009998D03*
X118402600Y-49759998D03*
X119902600Y-49759998D03*
X119902600Y-50509998D03*
X118402600Y-49009998D03*
%TD*%
%TO.C,mouse-bite-2mm-slot13*%
X149612599Y-65409999D03*
X149612599Y-63909999D03*
X148112599Y-65409999D03*
X148112599Y-63909999D03*
X148862599Y-65409999D03*
X148862599Y-63909999D03*
%TD*%
D11*
%TO.C,J13*%
X162292600Y-70299998D03*
D12*
X162292600Y-72839998D03*
X162292600Y-75379998D03*
X162292600Y-77919998D03*
X162292600Y-80459998D03*
X162292600Y-82999998D03*
X162292600Y-85539998D03*
X162292600Y-88079998D03*
%TD*%
D11*
%TO.C,J42*%
X76012599Y-68199998D03*
D12*
X76012599Y-70739998D03*
X76012599Y-73279998D03*
X76012599Y-75819998D03*
X76012599Y-78359998D03*
X76012599Y-80899998D03*
X76012599Y-83439998D03*
X76012599Y-85979998D03*
X76012599Y-88519998D03*
X76012599Y-91059998D03*
%TD*%
D11*
%TO.C,J14*%
X180072600Y-70299998D03*
D12*
X180072600Y-72839998D03*
X180072600Y-75379998D03*
X180072600Y-77919998D03*
X180072600Y-80459998D03*
X180072600Y-82999998D03*
X180072600Y-85539998D03*
X180072600Y-88079998D03*
%TD*%
D10*
%TO.C,mouse-bite-2mm-slot34*%
X138222599Y-78949998D03*
X139722599Y-79699998D03*
X138222599Y-80449998D03*
X138222599Y-79699998D03*
X139722599Y-78949998D03*
X139722599Y-80449998D03*
%TD*%
%TO.C,mouse-bite-2mm-slot1*%
X90212599Y-63909999D03*
X88712599Y-63909999D03*
X90212599Y-65409999D03*
X89462599Y-65409999D03*
X88712599Y-65409999D03*
X89462599Y-63909999D03*
%TD*%
%TO.C,mouse-bite-2mm-slot3*%
X100102600Y-49759998D03*
X98602600Y-49009998D03*
X100102600Y-49009998D03*
X98602600Y-50509998D03*
X100102600Y-50509998D03*
X98602600Y-49759998D03*
%TD*%
D11*
%TO.C,J21*%
X159519998Y-200480001D03*
D12*
X159519998Y-203020001D03*
%TD*%
D10*
%TO.C,mouse-bite-2mm-slot*%
X90309999Y-195329999D03*
X89559999Y-193829999D03*
X89559999Y-195329999D03*
X90309999Y-193829999D03*
X88809999Y-195329999D03*
X88809999Y-193829999D03*
%TD*%
%TO.C,mouse-bite-2mm-slot*%
X174159998Y-146849999D03*
X174159998Y-147599999D03*
X172659998Y-147599999D03*
X172659998Y-146849999D03*
X172659998Y-148349999D03*
X174159998Y-148349999D03*
%TD*%
%TO.C,mouse-bite-2mm-slot30*%
X118422599Y-78949998D03*
X119922599Y-80449998D03*
X119922599Y-78949998D03*
X118422599Y-79699998D03*
X119922599Y-79699998D03*
X118422599Y-80449998D03*
%TD*%
D11*
%TO.C,J33*%
X83112599Y-38259998D03*
D12*
X83112599Y-40799998D03*
X83112599Y-43339998D03*
X83112599Y-45879998D03*
X83112599Y-48419998D03*
X83112599Y-50959998D03*
X83112599Y-53499998D03*
X83112599Y-56039998D03*
X83112599Y-58579998D03*
X83112599Y-61119998D03*
%TD*%
D10*
%TO.C,mouse-bite-2mm-slot32*%
X129062599Y-63909997D03*
X129062599Y-65409997D03*
X128312599Y-63909997D03*
X129812599Y-65409997D03*
X128312599Y-65409997D03*
X129812599Y-63909997D03*
%TD*%
%TO.C,mouse-bite-2mm-slot27*%
X119902600Y-79699998D03*
X119902600Y-78949998D03*
X118402600Y-80449998D03*
X118402600Y-78949998D03*
X119902600Y-80449998D03*
X118402600Y-79699998D03*
%TD*%
D11*
%TO.C,J55*%
X83279999Y-198119999D03*
D12*
X83279999Y-200659999D03*
%TD*%
D10*
%TO.C,mouse-bite-2mm-slot17*%
X70412599Y-93849999D03*
X69662599Y-93849999D03*
X69662599Y-95349999D03*
X68912599Y-95349999D03*
X68912599Y-93849999D03*
X70412599Y-95349999D03*
%TD*%
%TO.C,mouse-bite-2mm-slot*%
X98769999Y-199389999D03*
X100269999Y-198639999D03*
X98769999Y-200139999D03*
X98769999Y-198639999D03*
X100269999Y-200139999D03*
X100269999Y-199389999D03*
%TD*%
%TO.C,mouse-bite-2mm-slot*%
X154769999Y-195150000D03*
X154019999Y-195150000D03*
X154769999Y-193650000D03*
X154019999Y-193650000D03*
X153269999Y-193650000D03*
X153269999Y-195150000D03*
%TD*%
%TO.C,mouse-bite-2mm-slot*%
X154743947Y-169330000D03*
X153993947Y-170830000D03*
X154743947Y-170830000D03*
X153243947Y-170830000D03*
X153243947Y-169330000D03*
X153993947Y-169330000D03*
%TD*%
%TO.C,mouse-bite-2mm-slot11*%
X138202600Y-49759998D03*
X138202600Y-50509998D03*
X139702600Y-50509998D03*
X139702600Y-49009998D03*
X138202600Y-49009998D03*
X139702600Y-49759998D03*
%TD*%
%TO.C,mouse-bite-2mm-slot*%
X70412599Y-65409999D03*
X70412599Y-63909999D03*
X68912599Y-65409999D03*
X69662599Y-63909999D03*
X69662599Y-65409999D03*
X68912599Y-63909999D03*
%TD*%
%TO.C,mouse-bite-2mm-slot*%
X120049999Y-199389999D03*
X120049999Y-200139999D03*
X118549999Y-198639999D03*
X118549999Y-200139999D03*
X118549999Y-199389999D03*
X120049999Y-198639999D03*
%TD*%
%TO.C,mouse-bite-2mm-slot*%
X171052600Y-58870001D03*
X171802600Y-58870001D03*
X170302600Y-58870001D03*
%TD*%
D11*
%TO.C,J12*%
X169869998Y-148760000D03*
D12*
X169869998Y-151300000D03*
X169869998Y-153840000D03*
X169869998Y-156380000D03*
X169869998Y-158920000D03*
X169869998Y-161460000D03*
%TD*%
D10*
%TO.C,mouse-bite-2mm-slot25*%
X110012599Y-93849999D03*
X108512599Y-95349999D03*
X109262599Y-95349999D03*
X110012599Y-95349999D03*
X108512599Y-93849999D03*
X109262599Y-93849999D03*
%TD*%
%TO.C,mouse-bite-2mm-slot*%
X146342599Y-113599999D03*
X144842599Y-113599999D03*
X146342599Y-112849999D03*
X144842599Y-114349999D03*
X146342599Y-114349999D03*
X144842599Y-112849999D03*
%TD*%
D11*
%TO.C,J46*%
X115612599Y-68199998D03*
D12*
X115612599Y-70739998D03*
X115612599Y-73279998D03*
X115612599Y-75819998D03*
X115612599Y-78359998D03*
X115612599Y-80899998D03*
X115612599Y-83439998D03*
X115612599Y-85979998D03*
X115612599Y-88519998D03*
X115612599Y-91059998D03*
%TD*%
D10*
%TO.C,mouse-bite-2mm-slot9*%
X129812599Y-63909999D03*
X129812599Y-65409999D03*
X128312599Y-65409999D03*
X129062599Y-63909999D03*
X128312599Y-63909999D03*
X129062599Y-65409999D03*
%TD*%
D11*
%TO.C,J27*%
X171640000Y-173620000D03*
D12*
X174180000Y-173620000D03*
X171640000Y-176160000D03*
X174180000Y-176160000D03*
X171640000Y-178700000D03*
X174180000Y-178700000D03*
%TD*%
D10*
%TO.C,mouse-bite-2mm-slot*%
X162269999Y-176080000D03*
X162269999Y-175330000D03*
X163769999Y-176830000D03*
X162269999Y-176830000D03*
X163769999Y-175330000D03*
X163769999Y-176080000D03*
%TD*%
%TO.C,mouse-bite-2mm-slot23*%
X98602600Y-78949998D03*
X100102600Y-80449998D03*
X100102600Y-78949998D03*
X98602600Y-80449998D03*
X98602600Y-79699998D03*
X100102600Y-79699998D03*
%TD*%
%TO.C,mouse-bite-2mm-slot*%
X139769999Y-146599999D03*
X139769999Y-147349999D03*
X139769999Y-145849999D03*
%TD*%
D11*
%TO.C,J39*%
X142512599Y-38259998D03*
D12*
X142512599Y-40799998D03*
X142512599Y-43339998D03*
X142512599Y-45879998D03*
X142512599Y-48419998D03*
X142512599Y-50959998D03*
X142512599Y-53499998D03*
X142512599Y-56039998D03*
X142512599Y-58579998D03*
X142512599Y-61119998D03*
%TD*%
D11*
%TO.C,J56*%
X95979999Y-200659999D03*
D12*
X95979999Y-198119999D03*
%TD*%
D11*
%TO.C,J7*%
X76199999Y-200659999D03*
D12*
X76199999Y-198119999D03*
%TD*%
D11*
%TO.C,J49*%
X142512599Y-68199998D03*
D12*
X142512599Y-70739998D03*
X142512599Y-73279998D03*
X142512599Y-75819998D03*
X142512599Y-78359998D03*
X142512599Y-80899998D03*
X142512599Y-83439998D03*
X142512599Y-85979998D03*
X142512599Y-88519998D03*
X142512599Y-91059998D03*
%TD*%
D10*
%TO.C,mouse-bite-2mm-slot19*%
X78802600Y-80449998D03*
X78802600Y-79699998D03*
X78802600Y-78949998D03*
X80302600Y-80449998D03*
X80302600Y-79699998D03*
X80302600Y-78949998D03*
%TD*%
%TO.C,mouse-bite-2mm-slot*%
X102769999Y-158809999D03*
X103519999Y-158809999D03*
X103519999Y-160309999D03*
X104269999Y-160309999D03*
X104269999Y-158809999D03*
X102769999Y-160309999D03*
%TD*%
%TO.C,mouse-bite-2mm-slot*%
X162309999Y-201050000D03*
X162309999Y-201800000D03*
X163809999Y-202550000D03*
X162309999Y-202550000D03*
X163809999Y-201050000D03*
X163809999Y-201800000D03*
%TD*%
D13*
%TO.C,MX2*%
X92299999Y-176879999D03*
D14*
X94839999Y-173069999D03*
X97379999Y-179419999D03*
%TD*%
D11*
%TO.C,J17*%
X146779999Y-173620000D03*
D12*
X146779999Y-176160000D03*
X146779999Y-178700000D03*
%TD*%
D10*
%TO.C,mouse-bite-2mm-slot26*%
X98622599Y-80449998D03*
X100122599Y-80449998D03*
X98622599Y-79699998D03*
X98622599Y-78949998D03*
X100122599Y-79699998D03*
X100122599Y-78949998D03*
%TD*%
D11*
%TO.C,J2*%
X63312599Y-38259998D03*
D12*
X63312599Y-40799998D03*
X63312599Y-43339998D03*
X63312599Y-45879998D03*
X63312599Y-48419998D03*
X63312599Y-50959998D03*
X63312599Y-53499998D03*
X63312599Y-56039998D03*
X63312599Y-58579998D03*
X63312599Y-61119998D03*
%TD*%
D13*
%TO.C,MX4*%
X72999999Y-176879999D03*
D14*
X75539999Y-173069999D03*
X78079999Y-179419999D03*
%TD*%
D10*
%TO.C,mouse-bite-2mm-slot*%
X176769999Y-138349999D03*
X177519999Y-136849999D03*
X176769999Y-136849999D03*
X177519999Y-138349999D03*
X178269999Y-136849999D03*
X178269999Y-138349999D03*
%TD*%
D15*
%TO.C,SW1*%
X151309998Y-144060000D03*
D16*
X151309998Y-149060000D03*
X151309998Y-146560000D03*
D17*
X158809998Y-140960000D03*
X158809998Y-152160000D03*
D16*
X165809998Y-144060000D03*
X165809998Y-149060000D03*
%TD*%
D11*
%TO.C,J37*%
X122712599Y-38259998D03*
D12*
X122712599Y-40799998D03*
X122712599Y-43339998D03*
X122712599Y-45879998D03*
X122712599Y-48419998D03*
X122712599Y-50959998D03*
X122712599Y-53499998D03*
X122712599Y-56039998D03*
X122712599Y-58579998D03*
X122712599Y-61119998D03*
%TD*%
D18*
%TO.C,USB1*%
X168162600Y-53295001D03*
X173942600Y-53295001D03*
D19*
X166732600Y-52765001D03*
D20*
X175372600Y-56945001D03*
X166732600Y-56945001D03*
D19*
X175372600Y-52765001D03*
%TD*%
D11*
%TO.C,J9*%
X106679999Y-191039999D03*
D12*
X104139999Y-191039999D03*
X101599999Y-191039999D03*
X99059999Y-191039999D03*
%TD*%
D10*
%TO.C,mouse-bite-2mm-slot14*%
X139722599Y-49009998D03*
X138222599Y-50509998D03*
X138222599Y-49009998D03*
X139722599Y-50509998D03*
X139722599Y-49759998D03*
X138222599Y-49759998D03*
%TD*%
D11*
%TO.C,J44*%
X95812599Y-68199998D03*
D12*
X95812599Y-70739998D03*
X95812599Y-73279998D03*
X95812599Y-75819998D03*
X95812599Y-78359998D03*
X95812599Y-80899998D03*
X95812599Y-83439998D03*
X95812599Y-85979998D03*
X95812599Y-88519998D03*
X95812599Y-91059998D03*
%TD*%
D11*
%TO.C,J48*%
X135412599Y-68199998D03*
D12*
X135412599Y-70739998D03*
X135412599Y-73279998D03*
X135412599Y-75819998D03*
X135412599Y-78359998D03*
X135412599Y-80899998D03*
X135412599Y-83439998D03*
X135412599Y-85979998D03*
X135412599Y-88519998D03*
X135412599Y-91059998D03*
%TD*%
D11*
%TO.C,J25*%
X180072600Y-40840001D03*
D12*
X180072600Y-43380001D03*
X180072600Y-45920001D03*
X180072600Y-48460001D03*
X180072600Y-51000001D03*
X180072600Y-53540001D03*
X180072600Y-56080001D03*
%TD*%
D15*
%TO.C,SW2*%
X151299998Y-158960000D03*
D16*
X151299998Y-163960000D03*
X151299998Y-161460000D03*
D17*
X158799998Y-167060000D03*
X158799998Y-155860000D03*
D16*
X165799998Y-158960000D03*
X165799998Y-163960000D03*
%TD*%
D21*
%TO.C,RGB2*%
X171572600Y-76519998D03*
D22*
X168972600Y-75794998D03*
X174172600Y-75794998D03*
X174172600Y-77244998D03*
X168972600Y-77244998D03*
%TD*%
D21*
%TO.C,RGB1*%
X171572600Y-71119998D03*
D22*
X168972600Y-70394998D03*
X174172600Y-70394998D03*
X174172600Y-71844998D03*
X168972600Y-71844998D03*
%TD*%
D21*
%TO.C,RGB3*%
X171572600Y-81919998D03*
D22*
X168972600Y-81194998D03*
X174172600Y-81194998D03*
X174172600Y-82644998D03*
X168972600Y-82644998D03*
%TD*%
D21*
%TO.C,RGB4*%
X171572600Y-87319998D03*
D22*
X168972600Y-86594998D03*
X174172600Y-86594998D03*
X174172600Y-88044998D03*
X168972600Y-88044998D03*
%TD*%
M02*
