M48
INCH,TZ
T1C0.0197
T2C0.0256
T3C0.1570
T4C0.1772
%
G90
G05
T1
X27075Y-62524
X27075Y-63114
X27103Y-51736
X27103Y-52327
X27131Y-25161
X27131Y-25161
X27131Y-25752
X27131Y-25752
X27131Y-36949
X27131Y-37539
X27169Y-76311
X27169Y-76902
X27370Y-62524
X27370Y-63114
X27399Y-51736
X27399Y-52327
X27426Y-25161
X27426Y-25161
X27426Y-25752
X27426Y-25752
X27426Y-36949
X27426Y-37539
X27465Y-76311
X27465Y-76902
X27665Y-62524
X27665Y-63114
X27694Y-51736
X27694Y-52327
X27721Y-25161
X27721Y-25161
X27721Y-25752
X27721Y-25752
X27721Y-36949
X27721Y-37539
X27760Y-76311
X27760Y-76902
X31025Y-19295
X31025Y-19591
X31025Y-19886
X31025Y-31083
X31025Y-31378
X31025Y-31673
X31033Y-19295
X31033Y-19591
X31033Y-19886
X31033Y-31083
X31033Y-31378
X31033Y-31673
X31098Y-78205
X31098Y-78500
X31098Y-78795
X31615Y-19295
X31615Y-19591
X31615Y-19886
X31615Y-31083
X31615Y-31378
X31615Y-31673
X31623Y-19295
X31623Y-19591
X31623Y-19886
X31623Y-31083
X31623Y-31378
X31623Y-31673
X31689Y-78205
X31689Y-78500
X31689Y-78795
X34926Y-25161
X34926Y-25161
X34926Y-25752
X34926Y-25752
X34926Y-36949
X34926Y-37539
X34965Y-76311
X34965Y-76902
X35221Y-25161
X35221Y-25161
X35221Y-25752
X35221Y-25752
X35221Y-36949
X35221Y-37539
X35260Y-76311
X35260Y-76902
X35517Y-25161
X35517Y-25161
X35517Y-25752
X35517Y-25752
X35517Y-36949
X35517Y-37539
X35555Y-76311
X35555Y-76902
X38820Y-19295
X38820Y-19591
X38820Y-19886
X38820Y-31083
X38820Y-31378
X38820Y-31673
X38828Y-19295
X38828Y-19591
X38828Y-19886
X38828Y-31083
X38828Y-31378
X38828Y-31673
X38886Y-78205
X38886Y-78500
X38886Y-78795
X39410Y-19295
X39410Y-19591
X39410Y-19886
X39410Y-31083
X39410Y-31378
X39410Y-31673
X39418Y-19295
X39418Y-19591
X39418Y-19886
X39418Y-31083
X39418Y-31378
X39418Y-31673
X39476Y-78205
X39476Y-78500
X39476Y-78795
X40461Y-62524
X40461Y-63114
X40489Y-51736
X40489Y-52327
X40756Y-62524
X40756Y-63114
X40784Y-51736
X40784Y-52327
X41051Y-62524
X41051Y-63114
X41080Y-51736
X41080Y-52327
X42720Y-76311
X42720Y-76902
X42721Y-25161
X42721Y-25161
X42721Y-25752
X42721Y-25752
X42721Y-36949
X42721Y-37539
X43016Y-76311
X43016Y-76902
X43017Y-25161
X43017Y-25161
X43017Y-25752
X43017Y-25752
X43017Y-36949
X43017Y-37539
X43311Y-76311
X43311Y-76902
X43312Y-25161
X43312Y-25161
X43312Y-25752
X43312Y-25752
X43312Y-36949
X43312Y-37539
X46615Y-19295
X46615Y-19591
X46615Y-19886
X46615Y-31083
X46615Y-31378
X46615Y-31673
X46623Y-19295
X46623Y-19591
X46623Y-19886
X46623Y-31083
X46623Y-31378
X46623Y-31673
X46673Y-78205
X46673Y-78500
X46673Y-78795
X47206Y-19295
X47206Y-19591
X47206Y-19886
X47206Y-31083
X47206Y-31378
X47206Y-31673
X47214Y-19295
X47214Y-19591
X47214Y-19886
X47214Y-31083
X47214Y-31378
X47214Y-31673
X47264Y-78205
X47264Y-78500
X47264Y-78795
X50517Y-25161
X50517Y-25161
X50517Y-25752
X50517Y-25752
X50517Y-36949
X50517Y-37539
X50610Y-76311
X50610Y-76902
X50812Y-25161
X50812Y-25161
X50812Y-25752
X50812Y-25752
X50812Y-36949
X50812Y-37539
X50906Y-76311
X50906Y-76902
X51091Y-62524
X51091Y-63114
X51107Y-25161
X51107Y-25161
X51107Y-25752
X51107Y-25752
X51107Y-36949
X51107Y-37539
X51119Y-51736
X51119Y-52327
X51201Y-76311
X51201Y-76902
X51386Y-62524
X51386Y-63114
X51414Y-51736
X51414Y-52327
X51681Y-62524
X51681Y-63114
X51710Y-51736
X51710Y-52327
X54410Y-19295
X54410Y-19591
X54410Y-19886
X54410Y-31083
X54410Y-31378
X54410Y-31673
X54418Y-19295
X54418Y-19591
X54418Y-19886
X54418Y-31083
X54418Y-31378
X54418Y-31673
X54461Y-78205
X54461Y-78500
X54461Y-78795
X55001Y-19295
X55001Y-19591
X55001Y-19886
X55001Y-31083
X55001Y-31378
X55001Y-31673
X55009Y-19295
X55009Y-19591
X55009Y-19886
X55009Y-31083
X55009Y-31378
X55009Y-31673
X55028Y-57421
X55028Y-57717
X55028Y-58012
X56098Y-69051
X56098Y-69346
X56098Y-69642
X56098Y-73815
X56098Y-74110
X56098Y-74406
X56689Y-69051
X56689Y-69346
X56689Y-69642
X56689Y-73815
X56689Y-74110
X56689Y-74406
X56705Y-78272
X56705Y-78567
X56705Y-78862
X56780Y-57421
X56780Y-57717
X56780Y-58012
X57025Y-44429
X57025Y-44724
X57025Y-45020
X57615Y-44429
X57615Y-44724
X57615Y-45020
X58312Y-25161
X58312Y-25161
X58312Y-25752
X58312Y-25752
X58607Y-25161
X58607Y-25161
X58607Y-25752
X58607Y-25752
X58903Y-25161
X58903Y-25161
X58903Y-25752
X58903Y-25752
X60025Y-71453
X60025Y-72043
X60320Y-71453
X60320Y-72043
X60332Y-66665
X60332Y-67256
X60343Y-76240
X60343Y-76831
X60616Y-71453
X60616Y-72043
X60628Y-66665
X60628Y-67256
X60638Y-76240
X60638Y-76831
X60923Y-66665
X60923Y-67256
X60933Y-76240
X60933Y-76831
X62206Y-19295
X62206Y-19591
X62206Y-19886
X62206Y-30713
X62206Y-31008
X62206Y-31303
X62796Y-19295
X62796Y-19591
X62796Y-19886
X62796Y-30713
X62796Y-31008
X62796Y-31303
X63886Y-69028
X63886Y-69323
X63886Y-69618
X63886Y-73878
X63886Y-74173
X63886Y-74469
X63902Y-79154
X63902Y-79449
X63902Y-79744
X64418Y-53878
X64418Y-54469
X64476Y-69028
X64476Y-69323
X64476Y-69618
X64476Y-73878
X64476Y-74173
X64476Y-74469
X64492Y-79154
X64492Y-79449
X64492Y-79744
X64714Y-53878
X64714Y-54469
X65009Y-53878
X65009Y-54469
X65844Y-66665
X65844Y-67256
X66139Y-66665
X66139Y-67256
X66435Y-66665
X66435Y-67256
X67048Y-23177
X67048Y-26579
X67253Y-35776
X67261Y-37681
X67344Y-23177
X67344Y-26579
X67548Y-35776
X67556Y-37681
X67639Y-23177
X67639Y-26579
X67844Y-35776
X67851Y-37681
X67899Y-71453
X67899Y-72043
X67976Y-57815
X67976Y-58110
X67976Y-58406
X68194Y-71453
X68194Y-72043
X68217Y-76240
X68217Y-76831
X68490Y-71453
X68490Y-72043
X68512Y-76240
X68512Y-76831
X68567Y-57815
X68567Y-58110
X68567Y-58406
X68807Y-76240
X68807Y-76831
X69594Y-53878
X69594Y-54469
X69890Y-53878
X69890Y-54469
X70185Y-53878
X70185Y-54469
T2
X66206Y-20982
X68481Y-20982
T3
X28740Y-69638
X36339Y-69638
X44000Y-69638
X51535Y-69638
T4
X67548Y-28000
X67548Y-30126
X67548Y-32252
X67548Y-34378
T0
M30
