M48
INCH,TZ
T1C0.0157
T2C0.0236
T3C0.0394
T4C0.0579
T5C0.0787
%
G90
G05
T1
X39874Y-57425
X65314Y-42362
X65511Y-42756
X65708Y-43780
X65905Y-44803
X66102Y-45787
X66298Y-46772
X66495Y-47795
X66692Y-48740
X67927Y-49802
X68714Y-39780
X69290Y-50762
T3
X24926Y-15063
X24926Y-16063
X24926Y-17063
X24926Y-18063
X24926Y-19063
X24926Y-20063
X24926Y-21063
X24926Y-22063
X24926Y-23063
X24926Y-24063
X24926Y-26850
X24926Y-27850
X24926Y-28850
X24926Y-29850
X24926Y-30850
X24926Y-31850
X24926Y-32850
X24926Y-33850
X24926Y-34850
X24926Y-35850
X24926Y-38638
X24926Y-50638
X24929Y-53425
X24929Y-61425
X25000Y-64213
X25000Y-75213
X25000Y-78000
X25000Y-79000
X25926Y-38638
X25926Y-50638
X25929Y-53425
X25929Y-61425
X26000Y-64213
X26000Y-75213
X26926Y-38638
X26926Y-50638
X26929Y-53425
X26929Y-61425
X27926Y-38638
X27926Y-50638
X27929Y-53425
X27929Y-61425
X28926Y-38638
X28926Y-50638
X28929Y-53425
X28929Y-61425
X29926Y-15063
X29926Y-16063
X29926Y-17063
X29926Y-18063
X29926Y-19063
X29926Y-20063
X29926Y-21063
X29926Y-22063
X29926Y-23063
X29926Y-24063
X29926Y-26850
X29926Y-27850
X29926Y-28850
X29926Y-29850
X29926Y-30850
X29926Y-31850
X29926Y-32850
X29926Y-33850
X29926Y-34850
X29926Y-35850
X29926Y-38638
X29926Y-50638
X29929Y-53425
X29929Y-61425
X30000Y-78000
X30000Y-79000
X30926Y-38638
X30926Y-50638
X30929Y-53425
X30929Y-61425
X31926Y-38638
X31926Y-50638
X31929Y-53425
X31929Y-61425
X32721Y-15063
X32721Y-16063
X32721Y-17063
X32721Y-18063
X32721Y-19063
X32721Y-20063
X32721Y-21063
X32721Y-22063
X32721Y-23063
X32721Y-24063
X32721Y-26850
X32721Y-27850
X32721Y-28850
X32721Y-29850
X32721Y-30850
X32721Y-31850
X32721Y-32850
X32721Y-33850
X32721Y-34850
X32721Y-35850
X32787Y-78000
X32787Y-79000
X32926Y-38638
X32926Y-50638
X32929Y-53425
X32929Y-61425
X33926Y-38638
X33926Y-50638
X33929Y-53425
X33929Y-61425
X34926Y-38638
X34926Y-50638
X34929Y-53425
X34929Y-61425
X35926Y-38638
X35926Y-50638
X35929Y-53425
X35929Y-61425
X36926Y-38638
X36926Y-50638
X36929Y-53425
X36929Y-61425
X37721Y-15063
X37721Y-16063
X37721Y-17063
X37721Y-18063
X37721Y-19063
X37721Y-20063
X37721Y-21063
X37721Y-22063
X37721Y-23063
X37721Y-24063
X37721Y-26850
X37721Y-27850
X37721Y-28850
X37721Y-29850
X37721Y-30850
X37721Y-31850
X37721Y-32850
X37721Y-33850
X37721Y-34850
X37721Y-35850
X37787Y-78000
X37787Y-79000
X37926Y-38638
X37926Y-50638
X37929Y-53425
X37929Y-61425
X38926Y-38638
X38926Y-50638
X38929Y-53425
X38929Y-61425
X39000Y-64213
X39000Y-75213
X39926Y-38638
X39926Y-50638
X39929Y-53425
X39929Y-61425
X40000Y-64213
X40000Y-75213
X40517Y-15063
X40517Y-16063
X40517Y-17063
X40517Y-18063
X40517Y-19063
X40517Y-20063
X40517Y-21063
X40517Y-22063
X40517Y-23063
X40517Y-24063
X40517Y-26850
X40517Y-27850
X40517Y-28850
X40517Y-29850
X40517Y-30850
X40517Y-31850
X40517Y-32850
X40517Y-33850
X40517Y-34850
X40517Y-35850
X40575Y-78000
X40575Y-79000
X40926Y-38638
X40926Y-50638
X40929Y-53425
X40929Y-61425
X41000Y-64213
X41000Y-75213
X41926Y-38638
X41926Y-50638
X41929Y-53425
X41929Y-61425
X42000Y-64213
X42000Y-75213
X42926Y-38638
X42926Y-50638
X42929Y-53425
X42929Y-61425
X43926Y-38638
X43926Y-50638
X43929Y-53425
X43929Y-61425
X44926Y-38638
X44926Y-50638
X44929Y-53425
X44929Y-61425
X45517Y-15063
X45517Y-16063
X45517Y-17063
X45517Y-18063
X45517Y-19063
X45517Y-20063
X45517Y-21063
X45517Y-22063
X45517Y-23063
X45517Y-24063
X45517Y-26850
X45517Y-27850
X45517Y-28850
X45517Y-29850
X45517Y-30850
X45517Y-31850
X45517Y-32850
X45517Y-33850
X45517Y-34850
X45517Y-35850
X45575Y-78000
X45575Y-79000
X45926Y-38638
X45926Y-50638
X45929Y-53425
X45929Y-61425
X46926Y-38638
X46926Y-50638
X46929Y-53425
X46929Y-61425
X47926Y-38638
X47926Y-50638
X47929Y-53425
X47929Y-61425
X48312Y-15063
X48312Y-16063
X48312Y-17063
X48312Y-18063
X48312Y-19063
X48312Y-20063
X48312Y-21063
X48312Y-22063
X48312Y-23063
X48312Y-24063
X48312Y-26850
X48312Y-27850
X48312Y-28850
X48312Y-29850
X48312Y-30850
X48312Y-31850
X48312Y-32850
X48312Y-33850
X48312Y-34850
X48312Y-35850
X48362Y-78000
X48362Y-79000
X48926Y-38638
X48926Y-50638
X48929Y-53425
X48929Y-61425
X49926Y-38638
X49926Y-50638
X49929Y-53425
X49929Y-61425
X50926Y-38638
X50926Y-50638
X50929Y-53425
X50929Y-61425
X51926Y-38638
X51926Y-50638
X51929Y-53425
X51929Y-61425
X52926Y-38638
X52926Y-50638
X52929Y-53425
X52929Y-61425
X53312Y-15063
X53312Y-16063
X53312Y-17063
X53312Y-18063
X53312Y-19063
X53312Y-20063
X53312Y-21063
X53312Y-22063
X53312Y-23063
X53312Y-24063
X53312Y-26850
X53312Y-27850
X53312Y-28850
X53312Y-29850
X53312Y-30850
X53312Y-31850
X53312Y-32850
X53312Y-33850
X53312Y-34850
X53312Y-35850
X53362Y-78000
X53362Y-79000
X53926Y-38638
X53926Y-50638
X53929Y-53425
X53929Y-61425
X54000Y-64236
X54000Y-75236
X54926Y-38638
X54926Y-50638
X55000Y-64236
X55000Y-75236
X55926Y-38638
X55926Y-50638
X56107Y-15063
X56107Y-16063
X56107Y-17063
X56107Y-18063
X56107Y-19063
X56107Y-20063
X56107Y-21063
X56107Y-22063
X56107Y-23063
X56107Y-24063
X56107Y-26850
X56107Y-27850
X56107Y-28850
X56107Y-29850
X56107Y-30850
X56107Y-31850
X56107Y-32850
X56107Y-33850
X56107Y-34850
X56107Y-35850
X57787Y-68354
X57787Y-69354
X57787Y-70354
X57787Y-73142
X57787Y-74142
X57787Y-75142
X57803Y-77929
X57803Y-78929
X57803Y-79929
X57803Y-80929
X57878Y-58567
X57878Y-59567
X57878Y-60567
X57878Y-61567
X57878Y-62567
X57878Y-63567
X58714Y-38780
X58714Y-39780
X58714Y-40780
X58714Y-41780
X58714Y-42780
X58714Y-43780
X58714Y-44780
X58714Y-45780
X58714Y-46780
X58714Y-47780
X58714Y-48780
X58714Y-49780
X58714Y-50780
X58714Y-51780
X58714Y-52780
X59567Y-62583
X59567Y-63567
X59567Y-64551
X59571Y-56717
X59571Y-57701
X59571Y-58685
X59787Y-68354
X59787Y-69354
X59787Y-70354
X60787Y-68354
X60787Y-69354
X60787Y-70354
X61107Y-15063
X61107Y-16063
X61107Y-17063
X61107Y-18063
X61107Y-19063
X61107Y-20063
X61107Y-21063
X61107Y-22063
X61107Y-23063
X61107Y-24063
X61107Y-26850
X61107Y-27850
X61107Y-28850
X61107Y-29850
X61107Y-30850
X61107Y-31850
X61107Y-32850
X61107Y-33850
X61107Y-34850
X61107Y-35850
X62787Y-68354
X62787Y-69354
X62787Y-70354
X62787Y-73142
X62787Y-74142
X62803Y-78929
X62803Y-79929
X63895Y-16079
X63895Y-17079
X63895Y-18079
X63895Y-19079
X63895Y-20079
X63895Y-21079
X63895Y-22079
X63895Y-27677
X63895Y-28677
X63895Y-29677
X63895Y-30677
X63895Y-31677
X63895Y-32677
X63895Y-33677
X63895Y-34677
X65276Y-62583
X65276Y-64551
X65280Y-56717
X65280Y-58685
X65575Y-73142
X65575Y-74142
X65575Y-75142
X65575Y-68354
X65575Y-69354
X65575Y-70354
X65591Y-77929
X65591Y-78929
X65591Y-79929
X65591Y-80929
X66878Y-58567
X66878Y-59567
X66878Y-60567
X66878Y-61567
X66878Y-62567
X66878Y-63567
X67575Y-68354
X67575Y-69354
X67575Y-70354
X68575Y-68354
X68575Y-69354
X68575Y-70354
X69665Y-55567
X69665Y-60567
X70575Y-73142
X70575Y-74142
X70575Y-68354
X70575Y-69354
X70575Y-70354
X70591Y-78929
X70591Y-79929
X70665Y-55567
X70665Y-60567
X70714Y-38781
X70714Y-39781
X70714Y-40781
X70714Y-41781
X70714Y-42781
X70714Y-43781
X70714Y-44781
X70714Y-45781
X70714Y-46781
X70714Y-47781
X70714Y-48781
X70714Y-49781
X70714Y-50781
X70714Y-51781
X70714Y-52781
X70895Y-16079
X70895Y-17079
X70895Y-18079
X70895Y-19079
X70895Y-20079
X70895Y-21079
X70895Y-22079
X70895Y-27677
X70895Y-28677
X70895Y-29677
X70895Y-30677
X70895Y-31677
X70895Y-32677
X70895Y-33677
X70895Y-34677
T4
X29740Y-68138
X30740Y-70638
X37339Y-68138
X38339Y-70638
X45000Y-68138
X46000Y-70638
X52535Y-68138
X53535Y-70638
T2
G00X65643Y-20557
M15
G01X65643Y-20990
M16
G05
G00X65643Y-22301
M15
G01X65643Y-22537
M16
G05
G00X69044Y-20557
M15
G01X69044Y-20990
M16
G05
G00X69044Y-22301
M15
G01X69044Y-22537
M16
G05
T5
G00X62421Y-61362
M15
G01X62618Y-61362
M16
G05
G00X62421Y-65772
M15
G01X62618Y-65772
M16
G05
G00X62425Y-55496
M15
G01X62622Y-55496
M16
G05
G00X62425Y-59906
M15
G01X62622Y-59906
M16
G05
T0
M30
