%TF.GenerationSoftware,KiCad,Pcbnew,(6.0.2)*%
%TF.CreationDate,2022-03-20T20:43:40-04:00*%
%TF.ProjectId,Panel,50616e65-6c2e-46b6-9963-61645f706362,rev?*%
%TF.SameCoordinates,Original*%
%TF.FileFunction,Soldermask,Bot*%
%TF.FilePolarity,Negative*%
%FSLAX46Y46*%
G04 Gerber Fmt 4.6, Leading zero omitted, Abs format (unit mm)*
G04 Created by KiCad (PCBNEW (6.0.2)) date 2022-03-20 20:43:40*
%MOMM*%
%LPD*%
G01*
G04 APERTURE LIST*
%ADD10C,0.500000*%
%ADD11O,1.700000X1.700000*%
%ADD12R,1.700000X1.700000*%
%ADD13C,2.250000*%
%ADD14C,3.987800*%
%ADD15C,2.000000*%
%ADD16R,3.000000X2.500000*%
%ADD17R,2.000000X2.000000*%
%ADD18O,1.000000X2.100000*%
%ADD19O,1.000000X1.600000*%
%ADD20C,0.650000*%
%ADD21R,1.400000X0.800000*%
%ADD22C,4.500000*%
G04 APERTURE END LIST*
D10*
%TO.C,mouse-bite-2mm-slot20*%
X70532599Y-62869998D03*
X71282599Y-61369998D03*
X72032599Y-61369998D03*
X72032599Y-62869998D03*
X71282599Y-62869998D03*
X70532599Y-61369998D03*
%TD*%
%TO.C,mouse-bite-2mm-slot*%
X70462599Y-130370000D03*
X71962599Y-130370000D03*
X71212599Y-128870000D03*
X71212599Y-130370000D03*
X71962599Y-128870000D03*
X70462599Y-128870000D03*
%TD*%
D11*
%TO.C,J36*%
X117232599Y-58579999D03*
X117232599Y-56039999D03*
X117232599Y-53499999D03*
X117232599Y-50959999D03*
X117232599Y-48419999D03*
X117232599Y-45879999D03*
X117232599Y-43339999D03*
X117232599Y-40799999D03*
X117232599Y-38259999D03*
D12*
X117232599Y-35719999D03*
%TD*%
D10*
%TO.C,mouse-bite-2mm-slot*%
X104462599Y-128870000D03*
X105212599Y-130370000D03*
X105212599Y-128870000D03*
X105962599Y-130370000D03*
X104462599Y-130370000D03*
X105962599Y-128870000D03*
%TD*%
%TO.C,mouse-bite-2mm-slot*%
X173212599Y-93170000D03*
X173962599Y-93170000D03*
X172462599Y-93170000D03*
%TD*%
D11*
%TO.C,J52*%
X180879999Y-183240001D03*
D12*
X180879999Y-185780001D03*
%TD*%
D11*
%TO.C,J50*%
X156832599Y-88519999D03*
X156832599Y-85979999D03*
X156832599Y-83439999D03*
X156832599Y-80899999D03*
X156832599Y-78359999D03*
X156832599Y-75819999D03*
X156832599Y-73279999D03*
X156832599Y-70739999D03*
X156832599Y-68199999D03*
D12*
X156832599Y-65659999D03*
%TD*%
D10*
%TO.C,mouse-bite-2mm-slot*%
X163889999Y-185110001D03*
X165389999Y-185110001D03*
X163889999Y-185860001D03*
X165389999Y-186610001D03*
X165389999Y-185860001D03*
X163889999Y-186610001D03*
%TD*%
D11*
%TO.C,J19*%
X137160000Y-195580000D03*
D12*
X137160000Y-198120000D03*
%TD*%
D11*
%TO.C,JOLED1*%
X150752599Y-131520000D03*
X150752599Y-128980000D03*
X150752599Y-126440000D03*
X150752599Y-123900000D03*
X150752599Y-121360000D03*
X150752599Y-118820000D03*
X150752599Y-116280000D03*
X150752599Y-113740000D03*
X150752599Y-111200000D03*
X150752599Y-108660000D03*
X150752599Y-106120000D03*
X150752599Y-103580000D03*
X150752599Y-101040000D03*
X150752599Y-98500000D03*
D12*
X150752599Y-95960000D03*
%TD*%
D11*
%TO.C,J11*%
X64932599Y-95600000D03*
X67472599Y-95600000D03*
X70012599Y-95600000D03*
X72552599Y-95600000D03*
X75092599Y-95600000D03*
X77632599Y-95600000D03*
X80172599Y-95600000D03*
X82712599Y-95600000D03*
X85252599Y-95600000D03*
X87792599Y-95600000D03*
X90332599Y-95600000D03*
X92872599Y-95600000D03*
X95412599Y-95600000D03*
X97952599Y-95600000D03*
X100492599Y-95600000D03*
X103032599Y-95600000D03*
X105572599Y-95600000D03*
X108112599Y-95600000D03*
X110652599Y-95600000D03*
X113192599Y-95600000D03*
X115732599Y-95600000D03*
X118272599Y-95600000D03*
X120812599Y-95600000D03*
X123352599Y-95600000D03*
X125892599Y-95600000D03*
X128432599Y-95600000D03*
X130972599Y-95600000D03*
X133512599Y-95600000D03*
X136052599Y-95600000D03*
X138592599Y-95600000D03*
X141132599Y-95600000D03*
D12*
X143672599Y-95600000D03*
%TD*%
D10*
%TO.C,mouse-bite-2mm-slot10*%
X121542599Y-47969999D03*
X121542599Y-47219999D03*
X120042599Y-47219999D03*
X121542599Y-46469999D03*
X120042599Y-46469999D03*
X120042599Y-47969999D03*
%TD*%
%TO.C,mouse-bite-2mm-slot36*%
X151232599Y-62869998D03*
X150482599Y-62869998D03*
X151232599Y-61369998D03*
X149732599Y-62869998D03*
X150482599Y-61369998D03*
X149732599Y-61369998D03*
%TD*%
D11*
%TO.C,J43*%
X84732599Y-88519999D03*
X84732599Y-85979999D03*
X84732599Y-83439999D03*
X84732599Y-80899999D03*
X84732599Y-78359999D03*
X84732599Y-75819999D03*
X84732599Y-73279999D03*
X84732599Y-70739999D03*
X84732599Y-68199999D03*
D12*
X84732599Y-65659999D03*
%TD*%
D10*
%TO.C,mouse-bite-2mm-slot22*%
X80442599Y-77159999D03*
X80442599Y-76409999D03*
X81942599Y-76409999D03*
X81942599Y-77159999D03*
X80442599Y-77909999D03*
X81942599Y-77909999D03*
%TD*%
%TO.C,mouse-bite-2mm-slot*%
X82109999Y-196100000D03*
X82109999Y-196850000D03*
X80609999Y-197600000D03*
X80609999Y-196100000D03*
X82109999Y-197600000D03*
X80609999Y-196850000D03*
%TD*%
%TO.C,mouse-bite-2mm-slot*%
X111629999Y-191290000D03*
X111629999Y-192790000D03*
X110129999Y-191290000D03*
X110129999Y-192790000D03*
X110879999Y-192790000D03*
X110879999Y-191290000D03*
%TD*%
D11*
%TO.C,J32*%
X65119999Y-188500000D03*
D12*
X67659999Y-188500000D03*
%TD*%
D11*
%TO.C,J45*%
X104532599Y-88519999D03*
X104532599Y-85979999D03*
X104532599Y-83439999D03*
X104532599Y-80899999D03*
X104532599Y-78359999D03*
X104532599Y-75819999D03*
X104532599Y-73279999D03*
X104532599Y-70739999D03*
X104532599Y-68199999D03*
D12*
X104532599Y-65659999D03*
%TD*%
D11*
%TO.C,J26*%
X168180000Y-176160001D03*
X168180000Y-173620001D03*
D12*
X168180000Y-171080001D03*
%TD*%
D10*
%TO.C,mouse-bite-2mm-slot6*%
X100242599Y-47969999D03*
X100242599Y-47219999D03*
X101742599Y-47969999D03*
X101742599Y-46469999D03*
X100242599Y-46469999D03*
X101742599Y-47219999D03*
%TD*%
%TO.C,mouse-bite-2mm-slot2*%
X81942599Y-47219999D03*
X81942599Y-46469999D03*
X80442599Y-46469999D03*
X80442599Y-47219999D03*
X81942599Y-47969999D03*
X80442599Y-47969999D03*
%TD*%
%TO.C,mouse-bite-2mm-slot*%
X80422600Y-47969999D03*
X81922600Y-47219999D03*
X81922600Y-47969999D03*
X81922600Y-46469999D03*
X80422600Y-47219999D03*
X80422600Y-46469999D03*
%TD*%
D13*
%TO.C,MX1*%
X137599999Y-176880000D03*
X135059999Y-170530000D03*
D14*
X132519999Y-174340000D03*
%TD*%
D11*
%TO.C,J34*%
X97432599Y-58579999D03*
X97432599Y-56039999D03*
X97432599Y-53499999D03*
X97432599Y-50959999D03*
X97432599Y-48419999D03*
X97432599Y-45879999D03*
X97432599Y-43339999D03*
X97432599Y-40799999D03*
X97432599Y-38259999D03*
D12*
X97432599Y-35719999D03*
%TD*%
D10*
%TO.C,mouse-bite-2mm-slot*%
X173942600Y-88329999D03*
X172442600Y-88329999D03*
X173192600Y-88329999D03*
%TD*%
D11*
%TO.C,J30*%
X138779999Y-188559708D03*
D12*
X141319999Y-188559708D03*
%TD*%
D11*
%TO.C,J31*%
X65119999Y-160560000D03*
D12*
X67659999Y-160560000D03*
%TD*%
D11*
%TO.C,J53*%
X168219998Y-203020002D03*
X168219998Y-200480002D03*
X168219998Y-197940002D03*
D12*
X168219998Y-195400002D03*
%TD*%
D11*
%TO.C,J4*%
X77632599Y-58579999D03*
X77632599Y-56039999D03*
X77632599Y-53499999D03*
X77632599Y-50959999D03*
X77632599Y-48419999D03*
X77632599Y-45879999D03*
X77632599Y-43339999D03*
X77632599Y-40799999D03*
X77632599Y-38259999D03*
D12*
X77632599Y-35719999D03*
%TD*%
D10*
%TO.C,mouse-bite-2mm-slot*%
X174889999Y-192610001D03*
X176389999Y-191110001D03*
X175639999Y-191110001D03*
X175639999Y-192610001D03*
X174889999Y-191110001D03*
X176389999Y-192610001D03*
%TD*%
%TO.C,mouse-bite-2mm-slot*%
X170363947Y-166790001D03*
X168863947Y-166790001D03*
X168863947Y-168290001D03*
X169613947Y-168290001D03*
X169613947Y-166790001D03*
X170363947Y-168290001D03*
%TD*%
%TO.C,mouse-bite-2mm-slot*%
X145609999Y-184950001D03*
X144109999Y-185700001D03*
X145609999Y-186450001D03*
X144109999Y-184950001D03*
X144109999Y-186450001D03*
X145609999Y-185700001D03*
%TD*%
%TO.C,mouse-bite-2mm-slot5*%
X110882599Y-61370000D03*
X111632599Y-61370000D03*
X110132599Y-62870000D03*
X110132599Y-61370000D03*
X110882599Y-62870000D03*
X111632599Y-62870000D03*
%TD*%
%TO.C,mouse-bite-2mm-slot31*%
X139822600Y-77909999D03*
X141322600Y-77909999D03*
X141322600Y-76409999D03*
X139822600Y-76409999D03*
X141322600Y-77159999D03*
X139822600Y-77159999D03*
%TD*%
%TO.C,mouse-bite-2mm-slot*%
X173422600Y-64969999D03*
X171922600Y-64969999D03*
X172672600Y-64969999D03*
%TD*%
%TO.C,mouse-bite-2mm-slot24*%
X91832599Y-61369998D03*
X91832599Y-62869998D03*
X91082599Y-61369998D03*
X90332599Y-62869998D03*
X90332599Y-61369998D03*
X91082599Y-62869998D03*
%TD*%
D12*
%TO.C,J23*%
X124460000Y-195580000D03*
D11*
X124460000Y-198120000D03*
%TD*%
%TO.C,J5*%
X64939999Y-133160000D03*
X67479999Y-133160000D03*
X70019999Y-133160000D03*
X72559999Y-133160000D03*
X75099999Y-133160000D03*
X77639999Y-133160000D03*
X80179999Y-133160000D03*
X82719999Y-133160000D03*
X85259999Y-133160000D03*
X87799999Y-133160000D03*
X90339999Y-133160000D03*
X92879999Y-133160000D03*
X95419999Y-133160000D03*
X97959999Y-133160000D03*
X100499999Y-133160000D03*
X103039999Y-133160000D03*
X105579999Y-133160000D03*
X108119999Y-133160000D03*
X110659999Y-133160000D03*
X113199999Y-133160000D03*
X115739999Y-133160000D03*
X118279999Y-133160000D03*
X120819999Y-133160000D03*
X123359999Y-133160000D03*
X125899999Y-133160000D03*
X128439999Y-133160000D03*
X130979999Y-133160000D03*
X133519999Y-133160000D03*
X136059999Y-133160000D03*
D12*
X138599999Y-133160000D03*
%TD*%
D11*
%TO.C,J18*%
X163912600Y-38300002D03*
X163912600Y-40840002D03*
X163912600Y-43380002D03*
X163912600Y-45920002D03*
X163912600Y-48460002D03*
X163912600Y-51000002D03*
D12*
X163912600Y-53540002D03*
%TD*%
D11*
%TO.C,J6*%
X65119999Y-198120000D03*
D12*
X65119999Y-195580000D03*
%TD*%
D13*
%TO.C,MX3*%
X118459999Y-176880000D03*
X115919999Y-170530000D03*
D14*
X113379999Y-174340000D03*
%TD*%
D11*
%TO.C,J40*%
X156832599Y-58579999D03*
X156832599Y-56039999D03*
X156832599Y-53499999D03*
X156832599Y-50959999D03*
X156832599Y-48419999D03*
X156832599Y-45879999D03*
X156832599Y-43339999D03*
X156832599Y-40799999D03*
X156832599Y-38259999D03*
D12*
X156832599Y-35719999D03*
%TD*%
D11*
%TO.C,J8*%
X148629998Y-158920001D03*
X148629998Y-156380001D03*
X148629998Y-153840001D03*
X148629998Y-151300001D03*
X148629998Y-148760001D03*
D12*
X148629998Y-146220001D03*
%TD*%
D10*
%TO.C,mouse-bite-2mm-slot*%
X165242599Y-135810000D03*
X166742599Y-134310000D03*
X165992599Y-134310000D03*
X165992599Y-135810000D03*
X166742599Y-135810000D03*
X165242599Y-134310000D03*
%TD*%
%TO.C,mouse-bite-2mm-slot*%
X71379999Y-192790000D03*
X72129999Y-192790000D03*
X70629999Y-191290000D03*
X71379999Y-191290000D03*
X72129999Y-191290000D03*
X70629999Y-192790000D03*
%TD*%
%TO.C,mouse-bite-2mm-slot*%
X144109999Y-173600001D03*
X145609999Y-172850001D03*
X145609999Y-173600001D03*
X145609999Y-174350001D03*
X144109999Y-174350001D03*
X144109999Y-172850001D03*
%TD*%
D11*
%TO.C,J16*%
X148399999Y-188320001D03*
X148399999Y-185780001D03*
D12*
X148399999Y-183240001D03*
%TD*%
D10*
%TO.C,mouse-bite-2mm-slot*%
X71889999Y-157770000D03*
X70389999Y-156270000D03*
X71889999Y-156270000D03*
X71139999Y-157770000D03*
X71139999Y-156270000D03*
X70389999Y-157770000D03*
%TD*%
D11*
%TO.C,J28*%
X180880000Y-176160001D03*
X180880000Y-173620001D03*
D12*
X180880000Y-171080001D03*
%TD*%
D10*
%TO.C,mouse-bite-2mm-slot21*%
X90332599Y-91310000D03*
X91832599Y-91310000D03*
X91082599Y-91310000D03*
X91832599Y-92810000D03*
X91082599Y-92810000D03*
X90332599Y-92810000D03*
%TD*%
%TO.C,mouse-bite-2mm-slot*%
X145839998Y-144060000D03*
X145839998Y-143310000D03*
X145839998Y-144810000D03*
%TD*%
%TO.C,mouse-bite-2mm-slot*%
X139950000Y-197600000D03*
X139950000Y-196850000D03*
X139950000Y-196100000D03*
%TD*%
D12*
%TO.C,J58*%
X117379999Y-198120000D03*
D11*
X117379999Y-195580000D03*
%TD*%
%TO.C,J47*%
X124332599Y-88519999D03*
X124332599Y-85979999D03*
X124332599Y-83439999D03*
X124332599Y-80899999D03*
X124332599Y-78359999D03*
X124332599Y-75819999D03*
X124332599Y-73279999D03*
X124332599Y-70739999D03*
X124332599Y-68199999D03*
D12*
X124332599Y-65659999D03*
%TD*%
D11*
%TO.C,J35*%
X104532599Y-58579999D03*
X104532599Y-56039999D03*
X104532599Y-53499999D03*
X104532599Y-50959999D03*
X104532599Y-48419999D03*
X104532599Y-45879999D03*
X104532599Y-43339999D03*
X104532599Y-40799999D03*
X104532599Y-38259999D03*
D12*
X104532599Y-35719999D03*
%TD*%
%TO.C,J57*%
X104679999Y-195580000D03*
D11*
X104679999Y-198120000D03*
%TD*%
%TO.C,J38*%
X137032599Y-58579999D03*
X137032599Y-56039999D03*
X137032599Y-53499999D03*
X137032599Y-50959999D03*
X137032599Y-48419999D03*
X137032599Y-45879999D03*
X137032599Y-43339999D03*
X137032599Y-40799999D03*
X137032599Y-38259999D03*
D12*
X137032599Y-35719999D03*
%TD*%
D10*
%TO.C,mouse-bite-2mm-slot14*%
X161122600Y-76969999D03*
X159622600Y-76219999D03*
X161122600Y-75469999D03*
X159622600Y-76969999D03*
X161122600Y-76219999D03*
X159622600Y-75469999D03*
%TD*%
D11*
%TO.C,J41*%
X64932599Y-88519999D03*
X64932599Y-85979999D03*
X64932599Y-83439999D03*
X64932599Y-80899999D03*
X64932599Y-78359999D03*
X64932599Y-75819999D03*
X64932599Y-73279999D03*
X64932599Y-70739999D03*
X64932599Y-68199999D03*
D12*
X64932599Y-65659999D03*
%TD*%
D11*
%TO.C,J54*%
X180919998Y-200480002D03*
D12*
X180919998Y-197940002D03*
%TD*%
D10*
%TO.C,mouse-bite-2mm-slot*%
X130919999Y-192790000D03*
X130169999Y-191290000D03*
X130919999Y-191290000D03*
X131669999Y-192790000D03*
X130169999Y-192790000D03*
X131669999Y-191290000D03*
%TD*%
%TO.C,mouse-bite-2mm-slot*%
X132212599Y-130370000D03*
X131462599Y-130370000D03*
X132962599Y-130370000D03*
X131462599Y-128870000D03*
X132962599Y-128870000D03*
X132212599Y-128870000D03*
%TD*%
D11*
%TO.C,J22*%
X156019999Y-176160001D03*
X153479999Y-176160001D03*
X156019999Y-173620001D03*
X153479999Y-173620001D03*
X156019999Y-171080001D03*
D12*
X153479999Y-171080001D03*
%TD*%
D10*
%TO.C,mouse-bite-2mm-slot*%
X174083947Y-180450001D03*
X174833947Y-178950001D03*
X174833947Y-180450001D03*
X175583947Y-180450001D03*
X175583947Y-178950001D03*
X174083947Y-178950001D03*
%TD*%
%TO.C,mouse-bite-2mm-slot*%
X132889999Y-156270000D03*
X132139999Y-156270000D03*
X131389999Y-156270000D03*
X132139999Y-157770000D03*
X131389999Y-157770000D03*
X132889999Y-157770000D03*
%TD*%
D11*
%TO.C,J29*%
X138779999Y-160619708D03*
D12*
X141319999Y-160619708D03*
%TD*%
D10*
%TO.C,mouse-bite-2mm-slot28*%
X110132599Y-62869998D03*
X110882599Y-61369998D03*
X111632599Y-61369998D03*
X111632599Y-62869998D03*
X110882599Y-62869998D03*
X110132599Y-61369998D03*
%TD*%
D11*
%TO.C,J1*%
X138599999Y-153480000D03*
X136059999Y-153480000D03*
X133519999Y-153480000D03*
X130979999Y-153480000D03*
X128439999Y-153480000D03*
X125899999Y-153480000D03*
X123359999Y-153480000D03*
X120819999Y-153480000D03*
X118279999Y-153480000D03*
X115739999Y-153480000D03*
X113199999Y-153480000D03*
X110659999Y-153480000D03*
X108119999Y-153480000D03*
X105579999Y-153480000D03*
X103039999Y-153480000D03*
X100499999Y-153480000D03*
X97959999Y-153480000D03*
X95419999Y-153480000D03*
X92879999Y-153480000D03*
X90339999Y-153480000D03*
X87799999Y-153480000D03*
X85259999Y-153480000D03*
X82719999Y-153480000D03*
X80179999Y-153480000D03*
X77639999Y-153480000D03*
X75099999Y-153480000D03*
X72559999Y-153480000D03*
X70019999Y-153480000D03*
X67479999Y-153480000D03*
D12*
X64939999Y-153480000D03*
%TD*%
D11*
%TO.C,J3*%
X143672599Y-126080000D03*
X141132599Y-126080000D03*
X138592599Y-126080000D03*
X136052599Y-126080000D03*
X133512599Y-126080000D03*
X130972599Y-126080000D03*
X128432599Y-126080000D03*
X125892599Y-126080000D03*
X123352599Y-126080000D03*
X120812599Y-126080000D03*
X118272599Y-126080000D03*
X115732599Y-126080000D03*
X113192599Y-126080000D03*
X110652599Y-126080000D03*
X108112599Y-126080000D03*
X105572599Y-126080000D03*
X103032599Y-126080000D03*
X100492599Y-126080000D03*
X97952599Y-126080000D03*
X95412599Y-126080000D03*
X92872599Y-126080000D03*
X90332599Y-126080000D03*
X87792599Y-126080000D03*
X85252599Y-126080000D03*
X82712599Y-126080000D03*
X80172599Y-126080000D03*
X77632599Y-126080000D03*
X75092599Y-126080000D03*
X72552599Y-126080000D03*
X70012599Y-126080000D03*
X67472599Y-126080000D03*
D12*
X64932599Y-126080000D03*
%TD*%
D11*
%TO.C,J24*%
X161099999Y-176160001D03*
X161099999Y-173620001D03*
D12*
X161099999Y-171080001D03*
%TD*%
D11*
%TO.C,J19*%
X181109998Y-151300001D03*
D12*
X178569998Y-151300001D03*
%TD*%
D10*
%TO.C,mouse-bite-2mm-slot29*%
X129932599Y-91310000D03*
X131432599Y-91310000D03*
X130682599Y-92810000D03*
X129932599Y-92810000D03*
X131432599Y-92810000D03*
X130682599Y-91310000D03*
%TD*%
D11*
%TO.C,J15*%
X148439998Y-203020002D03*
X148439998Y-200480002D03*
X148439998Y-197940002D03*
D12*
X148439998Y-195400002D03*
%TD*%
D11*
%TO.C,J51*%
X168179999Y-188320001D03*
X168179999Y-185780001D03*
D12*
X168179999Y-183240001D03*
%TD*%
D10*
%TO.C,mouse-bite-2mm-slot*%
X145649998Y-197020002D03*
X145649998Y-197770002D03*
X145649998Y-196270002D03*
%TD*%
%TO.C,mouse-bite-2mm-slot*%
X154833947Y-178950001D03*
X154833947Y-180450001D03*
X154083947Y-180450001D03*
X155583947Y-180450001D03*
X155583947Y-178950001D03*
X154083947Y-178950001D03*
%TD*%
D11*
%TO.C,J20*%
X161099999Y-183240001D03*
D12*
X161099999Y-185780001D03*
%TD*%
D11*
%TO.C,J23*%
X178569998Y-138600001D03*
D12*
X181109998Y-138600001D03*
%TD*%
D10*
%TO.C,mouse-bite-2mm-slot14*%
X159622600Y-47969999D03*
X159622600Y-46469999D03*
X161122600Y-47969999D03*
X159622600Y-47219999D03*
X161122600Y-46469999D03*
X161122600Y-47219999D03*
%TD*%
D11*
%TO.C,JOLED2*%
X181232599Y-131525000D03*
X181232599Y-128985000D03*
X181232599Y-126445000D03*
X181232599Y-123905000D03*
X181232599Y-121365000D03*
X181232599Y-118825000D03*
X181232599Y-116285000D03*
X181232599Y-113745000D03*
X181232599Y-111205000D03*
X181232599Y-108665000D03*
X181232599Y-106125000D03*
X181232599Y-103585000D03*
X181232599Y-101045000D03*
X181232599Y-98505000D03*
D12*
X181232599Y-95965000D03*
%TD*%
D11*
%TO.C,J10*%
X100679999Y-160560000D03*
X103219999Y-160560000D03*
X105759999Y-160560000D03*
D12*
X108299999Y-160560000D03*
%TD*%
D10*
%TO.C,mouse-bite-2mm-slot7*%
X120022600Y-46469999D03*
X121522600Y-47969999D03*
X121522600Y-47219999D03*
X120022600Y-47219999D03*
X121522600Y-46469999D03*
X120022600Y-47969999D03*
%TD*%
%TO.C,mouse-bite-2mm-slot13*%
X150482599Y-61370000D03*
X150482599Y-62870000D03*
X149732599Y-61370000D03*
X149732599Y-62870000D03*
X151232599Y-61370000D03*
X151232599Y-62870000D03*
%TD*%
D11*
%TO.C,J13*%
X163912600Y-85539999D03*
X163912600Y-82999999D03*
X163912600Y-80459999D03*
X163912600Y-77919999D03*
X163912600Y-75379999D03*
X163912600Y-72839999D03*
X163912600Y-70299999D03*
D12*
X163912600Y-67759999D03*
%TD*%
D11*
%TO.C,J42*%
X77632599Y-88519999D03*
X77632599Y-85979999D03*
X77632599Y-83439999D03*
X77632599Y-80899999D03*
X77632599Y-78359999D03*
X77632599Y-75819999D03*
X77632599Y-73279999D03*
X77632599Y-70739999D03*
X77632599Y-68199999D03*
D12*
X77632599Y-65659999D03*
%TD*%
D11*
%TO.C,J14*%
X181692600Y-85539999D03*
X181692600Y-82999999D03*
X181692600Y-80459999D03*
X181692600Y-77919999D03*
X181692600Y-75379999D03*
X181692600Y-72839999D03*
X181692600Y-70299999D03*
D12*
X181692600Y-67759999D03*
%TD*%
D10*
%TO.C,mouse-bite-2mm-slot34*%
X141342599Y-77909999D03*
X141342599Y-76409999D03*
X139842599Y-77159999D03*
X139842599Y-77909999D03*
X141342599Y-77159999D03*
X139842599Y-76409999D03*
%TD*%
%TO.C,mouse-bite-2mm-slot1*%
X91082599Y-61370000D03*
X90332599Y-62870000D03*
X91082599Y-62870000D03*
X91832599Y-62870000D03*
X90332599Y-61370000D03*
X91832599Y-61370000D03*
%TD*%
%TO.C,mouse-bite-2mm-slot3*%
X100222600Y-47219999D03*
X101722600Y-47969999D03*
X100222600Y-47969999D03*
X101722600Y-46469999D03*
X100222600Y-46469999D03*
X101722600Y-47219999D03*
%TD*%
D11*
%TO.C,J21*%
X161139998Y-200480002D03*
D12*
X161139998Y-197940002D03*
%TD*%
D10*
%TO.C,mouse-bite-2mm-slot*%
X90429999Y-191290000D03*
X90429999Y-192790000D03*
X91929999Y-191290000D03*
X91179999Y-192790000D03*
X91179999Y-191290000D03*
X91929999Y-192790000D03*
%TD*%
%TO.C,mouse-bite-2mm-slot*%
X175779998Y-145810000D03*
X174279998Y-145810000D03*
X174279998Y-144310000D03*
X174279998Y-145060000D03*
X175779998Y-145060000D03*
X175779998Y-144310000D03*
%TD*%
%TO.C,mouse-bite-2mm-slot30*%
X120042599Y-77909999D03*
X121542599Y-77159999D03*
X120042599Y-77159999D03*
X121542599Y-76409999D03*
X121542599Y-77909999D03*
X120042599Y-76409999D03*
%TD*%
D11*
%TO.C,J33*%
X84732599Y-58579999D03*
X84732599Y-56039999D03*
X84732599Y-53499999D03*
X84732599Y-50959999D03*
X84732599Y-48419999D03*
X84732599Y-45879999D03*
X84732599Y-43339999D03*
X84732599Y-40799999D03*
X84732599Y-38259999D03*
D12*
X84732599Y-35719999D03*
%TD*%
D10*
%TO.C,mouse-bite-2mm-slot32*%
X131432599Y-61369998D03*
X129932599Y-62869998D03*
X131432599Y-62869998D03*
X129932599Y-61369998D03*
X130682599Y-62869998D03*
X130682599Y-61369998D03*
%TD*%
%TO.C,mouse-bite-2mm-slot27*%
X120022600Y-77159999D03*
X121522600Y-77909999D03*
X120022600Y-76409999D03*
X120022600Y-77909999D03*
X121522600Y-76409999D03*
X121522600Y-77159999D03*
%TD*%
D11*
%TO.C,J55*%
X84899999Y-198120000D03*
D12*
X84899999Y-195580000D03*
%TD*%
D10*
%TO.C,mouse-bite-2mm-slot17*%
X72032599Y-92810000D03*
X70532599Y-91310000D03*
X70532599Y-92810000D03*
X71282599Y-92810000D03*
X71282599Y-91310000D03*
X72032599Y-91310000D03*
%TD*%
%TO.C,mouse-bite-2mm-slot*%
X101889999Y-196850000D03*
X101889999Y-197600000D03*
X100389999Y-196100000D03*
X100389999Y-197600000D03*
X101889999Y-196100000D03*
X100389999Y-196850000D03*
%TD*%
%TO.C,mouse-bite-2mm-slot*%
X154889999Y-192610001D03*
X154889999Y-191110001D03*
X155639999Y-191110001D03*
X156389999Y-191110001D03*
X155639999Y-192610001D03*
X156389999Y-192610001D03*
%TD*%
%TO.C,mouse-bite-2mm-slot*%
X155613947Y-166790001D03*
X154863947Y-166790001D03*
X154863947Y-168290001D03*
X156363947Y-168290001D03*
X155613947Y-168290001D03*
X156363947Y-166790001D03*
%TD*%
%TO.C,mouse-bite-2mm-slot11*%
X141322600Y-47219999D03*
X139822600Y-46469999D03*
X141322600Y-46469999D03*
X141322600Y-47969999D03*
X139822600Y-47969999D03*
X139822600Y-47219999D03*
%TD*%
%TO.C,mouse-bite-2mm-slot*%
X70532599Y-61370000D03*
X71282599Y-62870000D03*
X71282599Y-61370000D03*
X70532599Y-62870000D03*
X72032599Y-61370000D03*
X72032599Y-62870000D03*
%TD*%
%TO.C,mouse-bite-2mm-slot*%
X121669999Y-196100000D03*
X120169999Y-196850000D03*
X120169999Y-197600000D03*
X120169999Y-196100000D03*
X121669999Y-197600000D03*
X121669999Y-196850000D03*
%TD*%
%TO.C,mouse-bite-2mm-slot*%
X171922600Y-56330002D03*
X173422600Y-56330002D03*
X172672600Y-56330002D03*
%TD*%
D11*
%TO.C,J12*%
X171489998Y-158920001D03*
X171489998Y-156380001D03*
X171489998Y-153840001D03*
X171489998Y-151300001D03*
X171489998Y-148760001D03*
D12*
X171489998Y-146220001D03*
%TD*%
D10*
%TO.C,mouse-bite-2mm-slot25*%
X110882599Y-91310000D03*
X110132599Y-91310000D03*
X111632599Y-92810000D03*
X110882599Y-92810000D03*
X110132599Y-92810000D03*
X111632599Y-91310000D03*
%TD*%
%TO.C,mouse-bite-2mm-slot*%
X146462599Y-110310000D03*
X147962599Y-111810000D03*
X146462599Y-111810000D03*
X147962599Y-110310000D03*
X146462599Y-111060000D03*
X147962599Y-111060000D03*
%TD*%
D11*
%TO.C,J46*%
X117232599Y-88519999D03*
X117232599Y-85979999D03*
X117232599Y-83439999D03*
X117232599Y-80899999D03*
X117232599Y-78359999D03*
X117232599Y-75819999D03*
X117232599Y-73279999D03*
X117232599Y-70739999D03*
X117232599Y-68199999D03*
D12*
X117232599Y-65659999D03*
%TD*%
D10*
%TO.C,mouse-bite-2mm-slot9*%
X130682599Y-62870000D03*
X129932599Y-61370000D03*
X130682599Y-61370000D03*
X129932599Y-62870000D03*
X131432599Y-62870000D03*
X131432599Y-61370000D03*
%TD*%
D11*
%TO.C,J27*%
X175800000Y-176160001D03*
X173260000Y-176160001D03*
X175800000Y-173620001D03*
X173260000Y-173620001D03*
X175800000Y-171080001D03*
D12*
X173260000Y-171080001D03*
%TD*%
D10*
%TO.C,mouse-bite-2mm-slot*%
X165389999Y-173540001D03*
X165389999Y-172790001D03*
X163889999Y-174290001D03*
X165389999Y-174290001D03*
X163889999Y-172790001D03*
X163889999Y-173540001D03*
%TD*%
%TO.C,mouse-bite-2mm-slot23*%
X101722600Y-77159999D03*
X100222600Y-77159999D03*
X100222600Y-77909999D03*
X101722600Y-76409999D03*
X101722600Y-77909999D03*
X100222600Y-76409999D03*
%TD*%
%TO.C,mouse-bite-2mm-slot*%
X141389999Y-143310000D03*
X141389999Y-144810000D03*
X141389999Y-144060000D03*
%TD*%
D11*
%TO.C,J39*%
X144132599Y-58579999D03*
X144132599Y-56039999D03*
X144132599Y-53499999D03*
X144132599Y-50959999D03*
X144132599Y-48419999D03*
X144132599Y-45879999D03*
X144132599Y-43339999D03*
X144132599Y-40799999D03*
X144132599Y-38259999D03*
D12*
X144132599Y-35719999D03*
%TD*%
D11*
%TO.C,J56*%
X97599999Y-195580000D03*
D12*
X97599999Y-198120000D03*
%TD*%
D11*
%TO.C,J7*%
X77819999Y-195580000D03*
D12*
X77819999Y-198120000D03*
%TD*%
D11*
%TO.C,J49*%
X144132599Y-88519999D03*
X144132599Y-85979999D03*
X144132599Y-83439999D03*
X144132599Y-80899999D03*
X144132599Y-78359999D03*
X144132599Y-75819999D03*
X144132599Y-73279999D03*
X144132599Y-70739999D03*
X144132599Y-68199999D03*
D12*
X144132599Y-65659999D03*
%TD*%
D10*
%TO.C,mouse-bite-2mm-slot19*%
X81922600Y-76409999D03*
X81922600Y-77159999D03*
X81922600Y-77909999D03*
X80422600Y-76409999D03*
X80422600Y-77159999D03*
X80422600Y-77909999D03*
%TD*%
%TO.C,mouse-bite-2mm-slot*%
X104389999Y-157770000D03*
X105889999Y-156270000D03*
X105889999Y-157770000D03*
X105139999Y-157770000D03*
X105139999Y-156270000D03*
X104389999Y-156270000D03*
%TD*%
%TO.C,mouse-bite-2mm-slot*%
X165429999Y-199260001D03*
X165429999Y-198510001D03*
X163929999Y-200010001D03*
X165429999Y-200010001D03*
X163929999Y-199260001D03*
X163929999Y-198510001D03*
%TD*%
D13*
%TO.C,MX2*%
X98999999Y-176880000D03*
X96459999Y-170530000D03*
D14*
X93919999Y-174340000D03*
%TD*%
D11*
%TO.C,J17*%
X148399999Y-176160001D03*
X148399999Y-173620001D03*
D12*
X148399999Y-171080001D03*
%TD*%
D10*
%TO.C,mouse-bite-2mm-slot26*%
X101742599Y-76409999D03*
X101742599Y-77159999D03*
X100242599Y-76409999D03*
X100242599Y-77159999D03*
X101742599Y-77909999D03*
X100242599Y-77909999D03*
%TD*%
D11*
%TO.C,J2*%
X64932599Y-58579999D03*
X64932599Y-56039999D03*
X64932599Y-53499999D03*
X64932599Y-50959999D03*
X64932599Y-48419999D03*
X64932599Y-45879999D03*
X64932599Y-43339999D03*
X64932599Y-40799999D03*
X64932599Y-38259999D03*
D12*
X64932599Y-35719999D03*
%TD*%
D13*
%TO.C,MX4*%
X79699999Y-176880000D03*
X77159999Y-170530000D03*
D14*
X74619999Y-174340000D03*
%TD*%
D10*
%TO.C,mouse-bite-2mm-slot*%
X179889999Y-135810000D03*
X179889999Y-134310000D03*
X179139999Y-135810000D03*
X178389999Y-134310000D03*
X179139999Y-134310000D03*
X178389999Y-135810000D03*
%TD*%
D15*
%TO.C,SW1*%
X167429998Y-146520001D03*
X167429998Y-141520001D03*
D16*
X160429998Y-149620001D03*
X160429998Y-138420001D03*
D15*
X152929998Y-144020001D03*
X152929998Y-146520001D03*
D17*
X152929998Y-141520001D03*
%TD*%
D11*
%TO.C,J37*%
X124332599Y-58579999D03*
X124332599Y-56039999D03*
X124332599Y-53499999D03*
X124332599Y-50959999D03*
X124332599Y-48419999D03*
X124332599Y-45879999D03*
X124332599Y-43339999D03*
X124332599Y-40799999D03*
X124332599Y-38259999D03*
D12*
X124332599Y-35719999D03*
%TD*%
D18*
%TO.C,USB1*%
X176992600Y-50225002D03*
D19*
X168352600Y-54405002D03*
X176992600Y-54405002D03*
D18*
X168352600Y-50225002D03*
D20*
X175562600Y-50755002D03*
X169782600Y-50755002D03*
%TD*%
D11*
%TO.C,J9*%
X100679999Y-188500000D03*
X103219999Y-188500000D03*
X105759999Y-188500000D03*
D12*
X108299999Y-188500000D03*
%TD*%
D10*
%TO.C,mouse-bite-2mm-slot14*%
X139842599Y-47219999D03*
X141342599Y-47219999D03*
X141342599Y-47969999D03*
X139842599Y-46469999D03*
X139842599Y-47969999D03*
X141342599Y-46469999D03*
%TD*%
D11*
%TO.C,J44*%
X97432599Y-88519999D03*
X97432599Y-85979999D03*
X97432599Y-83439999D03*
X97432599Y-80899999D03*
X97432599Y-78359999D03*
X97432599Y-75819999D03*
X97432599Y-73279999D03*
X97432599Y-70739999D03*
X97432599Y-68199999D03*
D12*
X97432599Y-65659999D03*
%TD*%
D11*
%TO.C,J48*%
X137032599Y-88519999D03*
X137032599Y-85979999D03*
X137032599Y-83439999D03*
X137032599Y-80899999D03*
X137032599Y-78359999D03*
X137032599Y-75819999D03*
X137032599Y-73279999D03*
X137032599Y-70739999D03*
X137032599Y-68199999D03*
D12*
X137032599Y-65659999D03*
%TD*%
D11*
%TO.C,J25*%
X181692600Y-53540002D03*
X181692600Y-51000002D03*
X181692600Y-48460002D03*
X181692600Y-45920002D03*
X181692600Y-43380002D03*
X181692600Y-40840002D03*
D12*
X181692600Y-38300002D03*
%TD*%
D15*
%TO.C,SW2*%
X167419998Y-161420001D03*
X167419998Y-156420001D03*
D16*
X160419998Y-153320001D03*
X160419998Y-164520001D03*
D15*
X152919998Y-158920001D03*
X152919998Y-161420001D03*
D17*
X152919998Y-156420001D03*
%TD*%
D21*
%TO.C,RGB2*%
X170592600Y-74704999D03*
X175792600Y-74704999D03*
X175792600Y-73254999D03*
X170592600Y-73254999D03*
D22*
X173192600Y-73979999D03*
%TD*%
D21*
%TO.C,RGB1*%
X170592600Y-69304999D03*
X175792600Y-69304999D03*
X175792600Y-67854999D03*
X170592600Y-67854999D03*
D22*
X173192600Y-68579999D03*
%TD*%
D21*
%TO.C,RGB3*%
X170592600Y-80104999D03*
X175792600Y-80104999D03*
X175792600Y-78654999D03*
X170592600Y-78654999D03*
D22*
X173192600Y-79379999D03*
%TD*%
D21*
%TO.C,RGB4*%
X170592600Y-85504999D03*
X175792600Y-85504999D03*
X175792600Y-84054999D03*
X170592600Y-84054999D03*
D22*
X173192600Y-84779999D03*
%TD*%
M02*
