%TF.GenerationSoftware,KiCad,Pcbnew,(6.0.2)*%
%TF.CreationDate,2022-03-20T20:43:40-04:00*%
%TF.ProjectId,Panel,50616e65-6c2e-46b6-9963-61645f706362,rev?*%
%TF.SameCoordinates,Original*%
%TF.FileFunction,Profile,NP*%
%FSLAX46Y46*%
G04 Gerber Fmt 4.6, Leading zero omitted, Abs format (unit mm)*
G04 Created by KiCad (PCBNEW (6.0.2)) date 2022-03-20 20:43:40*
%MOMM*%
%LPD*%
G01*
G04 APERTURE LIST*
%TA.AperFunction,Profile*%
%ADD10C,0.100000*%
%TD*%
G04 APERTURE END LIST*
D10*
X146089998Y-164000001D02*
G75*
G03*
X148629998Y-166540001I2540001J1D01*
G01*
X99972600Y-35719998D02*
G75*
G03*
X97432600Y-33179998I-2540001J-1D01*
G01*
X130139999Y-158020000D02*
G75*
G03*
X130139999Y-156020000I0J1000000D01*
G01*
X172833947Y-178700001D02*
X168179999Y-178700002D01*
X128682599Y-63119998D02*
X124332599Y-63119999D01*
X109882599Y-92060000D02*
G75*
G03*
X108882599Y-91060000I-999999J1D01*
G01*
X120772600Y-48219999D02*
G75*
G03*
X119772600Y-49219999I-1J-999999D01*
G01*
X108882599Y-93059998D02*
G75*
G03*
X109882599Y-92060000I1J999999D01*
G01*
X111882599Y-62119998D02*
G75*
G03*
X112882599Y-63119998I999999J-1D01*
G01*
X84732599Y-33179999D02*
G75*
G03*
X82192599Y-35719999I1J-2540001D01*
G01*
X93179999Y-193040000D02*
X97599999Y-193040000D01*
X161372600Y-74219999D02*
X161372600Y-67759999D01*
X62392598Y-88520000D02*
X62392599Y-65659999D01*
X139700000Y-194850000D02*
G75*
G03*
X140700000Y-195850000I999999J-1D01*
G01*
X153613947Y-168540001D02*
X148399999Y-168540001D01*
X84732599Y-63119999D02*
G75*
G03*
X82192599Y-65659999I1J-2540001D01*
G01*
X128919999Y-193040000D02*
X124460000Y-193040000D01*
X173639999Y-192860001D02*
G75*
G03*
X173639999Y-190860001I0J1000000D01*
G01*
X163639999Y-187860001D02*
X163639999Y-188320001D01*
X145089998Y-145060000D02*
X142139999Y-145060000D01*
X148439998Y-192860002D02*
G75*
G03*
X145899998Y-195020002I2J-2573428D01*
G01*
X148439998Y-205560002D02*
X161139999Y-205560003D01*
X80172600Y-65659998D02*
G75*
G03*
X77632600Y-63119998I-2540001J-1D01*
G01*
X65119999Y-193040000D02*
G75*
G03*
X62579999Y-195580000I1J-2540001D01*
G01*
X73282599Y-91060000D02*
X77632600Y-91060000D01*
X73282599Y-91060000D02*
G75*
G03*
X72282599Y-92060000I-1J-999999D01*
G01*
X89082599Y-63119998D02*
X84732599Y-63119999D01*
X100992599Y-76159999D02*
G75*
G03*
X101992599Y-75159999I1J999999D01*
G01*
X121792599Y-79159999D02*
G75*
G03*
X120792599Y-78159999I-999999J1D01*
G01*
X131682597Y-92060000D02*
G75*
G03*
X132682598Y-93060000I1000001J1D01*
G01*
X84899999Y-193039999D02*
G75*
G03*
X82359999Y-194850000I0J-2687210D01*
G01*
X167992599Y-136060000D02*
X171489998Y-136060000D01*
X132682599Y-91060000D02*
X137032600Y-91060000D01*
X157639999Y-190860001D02*
G75*
G03*
X157639999Y-192860001I0J-1000000D01*
G01*
X82360000Y-198850000D02*
G75*
G03*
X84899999Y-200660000I2539999J877209D01*
G01*
X80172600Y-35719998D02*
G75*
G03*
X77632600Y-33179998I-2540001J-1D01*
G01*
X64932598Y-61120000D02*
X69282599Y-61120000D01*
X134212599Y-130620000D02*
X138599999Y-130620000D01*
X80359999Y-194850000D02*
G75*
G03*
X77819999Y-193040000I-2540004J-877216D01*
G01*
X143859999Y-187700001D02*
X143859999Y-188500000D01*
X101992598Y-88520000D02*
G75*
G03*
X104532598Y-91060000I2540001J1D01*
G01*
X163639999Y-171540001D02*
G75*
G03*
X165639999Y-171540001I1000000J0D01*
G01*
X167992599Y-134060000D02*
G75*
G03*
X167992599Y-136060000I0J-1000000D01*
G01*
X81192599Y-76159999D02*
G75*
G03*
X82192599Y-75159999I1J999999D01*
G01*
X161372600Y-35760002D02*
X161372600Y-45219999D01*
X165679998Y-203020002D02*
G75*
G03*
X168219998Y-205560002I2540001J1D01*
G01*
X140572600Y-78159999D02*
G75*
G03*
X139572600Y-79159999I-1J-999999D01*
G01*
X93082599Y-61120000D02*
X97432600Y-61120000D01*
X104679999Y-193039999D02*
G75*
G03*
X102139999Y-194850000I0J-2687210D01*
G01*
X148482599Y-63119998D02*
X144132599Y-63119999D01*
X134212599Y-128620000D02*
G75*
G03*
X134212599Y-130620000I0J-1000000D01*
G01*
X82192599Y-49219999D02*
G75*
G03*
X81192599Y-48219999I-999999J1D01*
G01*
X99972600Y-58580000D02*
X99972600Y-49219999D01*
X174029998Y-138600000D02*
G75*
G03*
X171489998Y-136060000I-2540001J-1D01*
G01*
X146089998Y-138600001D02*
X146089998Y-142060000D01*
X145859999Y-187700001D02*
G75*
G03*
X143859999Y-187700001I-1000000J0D01*
G01*
X107212599Y-128620000D02*
X130212599Y-128620000D01*
X128919999Y-193040000D02*
G75*
G03*
X128919999Y-191040000I0J1000000D01*
G01*
X139572600Y-35719998D02*
G75*
G03*
X137032600Y-33179998I-2540001J-1D01*
G01*
X150752599Y-93420000D02*
G75*
G03*
X148212599Y-95960000I1J-2540001D01*
G01*
X137032600Y-63119998D02*
X132682599Y-63119998D01*
X119772600Y-58580000D02*
X119772600Y-49219999D01*
X172212599Y-92420000D02*
X172192600Y-89079999D01*
X64939999Y-156020000D02*
X69139999Y-156020000D01*
X176833947Y-178700001D02*
X180879999Y-178700002D01*
X82192599Y-45219999D02*
X82192599Y-35719999D01*
X82192599Y-75159999D02*
X82192599Y-65659999D01*
X165679999Y-201260001D02*
G75*
G03*
X163679999Y-201260001I-1000000J0D01*
G01*
X176029998Y-147060000D02*
G75*
G03*
X174029998Y-147060000I-1000000J0D01*
G01*
X119772600Y-45219999D02*
G75*
G03*
X120772600Y-46219999I999999J-1D01*
G01*
X152482599Y-61120000D02*
X156832600Y-61120000D01*
X163679999Y-197260001D02*
G75*
G03*
X165679999Y-197260001I1000000J0D01*
G01*
X102139999Y-198850000D02*
G75*
G03*
X100139999Y-198850000I-1000000J0D01*
G01*
X132682598Y-93060000D02*
X143672599Y-93060000D01*
X77632600Y-61120000D02*
G75*
G03*
X80172600Y-58580000I-1J2540001D01*
G01*
X161099999Y-178700001D02*
G75*
G03*
X163639999Y-176160001I-1J2540001D01*
G01*
X65119999Y-158020000D02*
G75*
G03*
X62579999Y-160560000I1J-2540001D01*
G01*
X183649997Y-138600001D02*
G75*
G03*
X181139999Y-136060000I-2540181J-1D01*
G01*
X168219998Y-205560002D02*
X180919999Y-205560003D01*
X148212599Y-113060000D02*
X148212599Y-131520000D01*
X175212599Y-93420000D02*
X181232599Y-93420000D01*
X112879999Y-191040000D02*
G75*
G03*
X112879999Y-193040000I0J-1000000D01*
G01*
X146212599Y-113060000D02*
X146212599Y-126080000D01*
X174212599Y-92420000D02*
X174192600Y-89079999D01*
X148629998Y-136060001D02*
G75*
G03*
X146089998Y-138600001I1J-2540001D01*
G01*
X117232600Y-33179998D02*
X104532599Y-33179999D01*
X161099999Y-190860001D02*
G75*
G03*
X163639999Y-188320001I-1J2540001D01*
G01*
X73282599Y-61120000D02*
X77632600Y-61120000D01*
X101992599Y-49219999D02*
X101992599Y-58579999D01*
X170672600Y-65219999D02*
X163912600Y-65219999D01*
X161372600Y-78219999D02*
X161372600Y-85539999D01*
X183459999Y-203020003D02*
X183459999Y-195400001D01*
X73379999Y-193040000D02*
X77819999Y-193040000D01*
X81172600Y-78159999D02*
G75*
G03*
X80172600Y-79159999I-1J-999999D01*
G01*
X148212599Y-113060000D02*
G75*
G03*
X146212599Y-113060000I-1000000J0D01*
G01*
X165679998Y-195400002D02*
X165679999Y-197260001D01*
X177139999Y-136060000D02*
G75*
G03*
X177139999Y-134060000I0J1000000D01*
G01*
X157613947Y-166540001D02*
G75*
G03*
X157613947Y-168540001I0J-1000000D01*
G01*
X159372600Y-45219999D02*
G75*
G03*
X161372600Y-45219999I1000000J0D01*
G01*
X161139999Y-192860001D02*
X157639999Y-192860001D01*
X177139999Y-136060000D02*
G75*
G03*
X176029997Y-138600000I2351122J-2540001D01*
G01*
X141139999Y-133160000D02*
G75*
G03*
X138599999Y-130620000I-2540001J-1D01*
G01*
X73139999Y-156020000D02*
G75*
G03*
X73139999Y-158020000I0J-1000000D01*
G01*
X145859999Y-176160001D02*
G75*
G03*
X148399999Y-178700001I2540001J1D01*
G01*
X104532599Y-63119999D02*
G75*
G03*
X101992599Y-65659999I1J-2540001D01*
G01*
X100992599Y-46219999D02*
G75*
G03*
X101992599Y-45219999I1J999999D01*
G01*
X142139999Y-145060000D02*
G75*
G03*
X141139999Y-146060000I-1J-999999D01*
G01*
X163912600Y-65219999D02*
G75*
G03*
X161372600Y-67759999I1J-2540001D01*
G01*
X65119999Y-191040000D02*
X69379999Y-191040000D01*
X64932599Y-63119999D02*
G75*
G03*
X62392599Y-65659999I1J-2540001D01*
G01*
X156832600Y-63119998D02*
X152482599Y-63119998D01*
X69139999Y-158020000D02*
G75*
G03*
X69139999Y-156020000I0J1000000D01*
G01*
X159372600Y-65659998D02*
G75*
G03*
X156832600Y-63119998I-2540001J-1D01*
G01*
X119772600Y-88520000D02*
X119772600Y-79159999D01*
X139572600Y-75159999D02*
X139572600Y-65659998D01*
X102140000Y-198850000D02*
G75*
G03*
X104679999Y-200660000I2539999J877209D01*
G01*
X77632600Y-63119998D02*
X73282599Y-63119998D01*
X92082599Y-62119998D02*
G75*
G03*
X93082599Y-63119998I999999J-1D01*
G01*
X145859999Y-187700001D02*
X145859999Y-188320001D01*
X173639999Y-192860001D02*
X168219998Y-192860002D01*
X176833947Y-180700001D02*
X180879998Y-180700001D01*
X62399999Y-153480000D02*
G75*
G03*
X64939999Y-156020000I2540001J1D01*
G01*
X117232600Y-63119998D02*
X112882599Y-63119998D01*
X82192598Y-88520000D02*
G75*
G03*
X84732598Y-91060000I2540001J1D01*
G01*
X145899998Y-199020002D02*
G75*
G03*
X144899998Y-198020002I-999999J1D01*
G01*
X152833947Y-180700001D02*
G75*
G03*
X152833947Y-178700001I0J1000000D01*
G01*
X119772600Y-75159999D02*
G75*
G03*
X120772600Y-76159999I999999J-1D01*
G01*
X181692600Y-56080002D02*
G75*
G03*
X184232600Y-53540002I-1J2540001D01*
G01*
X173672600Y-64219999D02*
X173672600Y-57080002D01*
X69212599Y-130620000D02*
G75*
G03*
X69212599Y-128620000I0J1000000D01*
G01*
X141592598Y-88520000D02*
G75*
G03*
X144132598Y-91060000I2540001J1D01*
G01*
X173672600Y-64219999D02*
G75*
G03*
X174672600Y-65219999I999999J-1D01*
G01*
X143859999Y-171600001D02*
G75*
G03*
X145859999Y-171600001I1000000J0D01*
G01*
X181692600Y-88079999D02*
G75*
G03*
X184232600Y-85539999I-1J2540001D01*
G01*
X152482599Y-61120000D02*
G75*
G03*
X151482599Y-62120000I-1J-999999D01*
G01*
X93082599Y-91060000D02*
G75*
G03*
X92082599Y-92060000I-1J-999999D01*
G01*
X84732598Y-61120000D02*
X89082599Y-61120000D01*
X161139999Y-205560003D02*
G75*
G03*
X163679999Y-203020003I-1J2540001D01*
G01*
X180879999Y-190860001D02*
G75*
G03*
X183419999Y-188320001I-1J2540001D01*
G01*
X101992599Y-49219999D02*
G75*
G03*
X100992599Y-48219999I-999999J1D01*
G01*
X82192598Y-58580000D02*
G75*
G03*
X84732598Y-61120000I2540001J1D01*
G01*
X175192600Y-88079999D02*
G75*
G03*
X174192600Y-89079999I-1J-999999D01*
G01*
X62579999Y-160560000D02*
X62579999Y-188500000D01*
X139572600Y-65659998D02*
G75*
G03*
X137032600Y-63119998I-2540001J-1D01*
G01*
X163639999Y-183860001D02*
G75*
G03*
X165639999Y-183860001I1000000J0D01*
G01*
X141592599Y-45219999D02*
X141592599Y-35719999D01*
X101992599Y-75159999D02*
X101992599Y-65659999D01*
X121919999Y-198850000D02*
G75*
G03*
X119919999Y-198850000I-1000000J0D01*
G01*
X146212599Y-95600000D02*
X146212599Y-109060000D01*
X70282599Y-62120000D02*
G75*
G03*
X69282599Y-61120000I-999999J1D01*
G01*
X77819999Y-200660001D02*
G75*
G03*
X80359999Y-198850000I0J2687210D01*
G01*
X130212599Y-130620000D02*
G75*
G03*
X130212599Y-128620000I0J1000000D01*
G01*
X120792599Y-46219999D02*
G75*
G03*
X121792599Y-45219999I1J999999D01*
G01*
X69282599Y-63119998D02*
G75*
G03*
X70282599Y-62119998I1J999999D01*
G01*
X172833947Y-180700001D02*
X168179999Y-180700001D01*
X143859999Y-160560000D02*
G75*
G03*
X142139999Y-158020000I-2735468J-2D01*
G01*
X80172600Y-45219999D02*
G75*
G03*
X81172600Y-46219999I999999J-1D01*
G01*
X64932599Y-33179999D02*
G75*
G03*
X62392599Y-35719999I1J-2540001D01*
G01*
X141592599Y-79159999D02*
X141592599Y-88519999D01*
X117232600Y-91060000D02*
G75*
G03*
X119772600Y-88520000I-1J2540001D01*
G01*
X167613947Y-168540001D02*
G75*
G03*
X167613947Y-166540001I0J1000000D01*
G01*
X145859999Y-171080001D02*
X145859999Y-171600001D01*
X161372599Y-53540003D02*
G75*
G03*
X163912599Y-56080003I2540001J1D01*
G01*
X80172600Y-45219999D02*
X80172600Y-35719998D01*
X97599999Y-200660001D02*
G75*
G03*
X100139999Y-198850000I0J2687210D01*
G01*
X69212599Y-128620000D02*
X64932599Y-128620000D01*
X121792599Y-49219999D02*
G75*
G03*
X120792599Y-48219999I-999999J1D01*
G01*
X100139999Y-194850000D02*
G75*
G03*
X102139999Y-194850000I1000000J0D01*
G01*
X93082599Y-61120000D02*
G75*
G03*
X92082599Y-62120000I-1J-999999D01*
G01*
X157639999Y-190860001D02*
X161099999Y-190860001D01*
X177139999Y-134060000D02*
X167992599Y-134060000D01*
X101992599Y-45219999D02*
X101992599Y-35719999D01*
X82192599Y-49219999D02*
X82192599Y-58579999D01*
X174029998Y-143060000D02*
X174029998Y-138600000D01*
X174212599Y-92420000D02*
G75*
G03*
X175212599Y-93420000I999999J-1D01*
G01*
X104679999Y-200660000D02*
X117379999Y-200660000D01*
X174672600Y-56080002D02*
G75*
G03*
X173672600Y-57080002I-1J-999999D01*
G01*
X181232599Y-134060000D02*
G75*
G03*
X183772599Y-131520000I-1J2540001D01*
G01*
X184232600Y-67759999D02*
G75*
G03*
X181692600Y-65219999I-2540001J-1D01*
G01*
X108879999Y-193040000D02*
G75*
G03*
X108879999Y-191040000I0J1000000D01*
G01*
X69379999Y-193040000D02*
X65119999Y-193040000D01*
X165639999Y-183240001D02*
X165639999Y-183860001D01*
X183772599Y-95960000D02*
G75*
G03*
X181232599Y-93420000I-2540001J-1D01*
G01*
X144132598Y-91060000D02*
X156832600Y-91060000D01*
X112879999Y-191040000D02*
X128919999Y-191040000D01*
X101992599Y-79159999D02*
G75*
G03*
X100992599Y-78159999I-999999J1D01*
G01*
X100972600Y-48219999D02*
G75*
G03*
X99972600Y-49219999I-1J-999999D01*
G01*
X121792598Y-88520000D02*
G75*
G03*
X124332598Y-91060000I2540001J1D01*
G01*
X62392599Y-126080000D02*
G75*
G03*
X64932599Y-128620000I2540001J1D01*
G01*
X121792599Y-45219999D02*
X121792599Y-35719999D01*
X97432600Y-63119998D02*
X93082599Y-63119998D01*
X124332599Y-63119999D02*
G75*
G03*
X121792599Y-65659999I1J-2540001D01*
G01*
X73379999Y-191040000D02*
X89179999Y-191040000D01*
X148482599Y-63119998D02*
G75*
G03*
X149482599Y-62119998I1J999999D01*
G01*
X161372600Y-78219999D02*
G75*
G03*
X159372600Y-78219999I-1000000J0D01*
G01*
X62392598Y-88520000D02*
G75*
G03*
X64932598Y-91060000I2540001J1D01*
G01*
X119772600Y-35719998D02*
G75*
G03*
X117232600Y-33179998I-2540001J-1D01*
G01*
X124459999Y-200660001D02*
X137160000Y-200660000D01*
X77632600Y-91060000D02*
G75*
G03*
X80172600Y-88520000I-1J2540001D01*
G01*
X100139999Y-194850000D02*
G75*
G03*
X97599999Y-193040000I-2540004J-877216D01*
G01*
X143672599Y-128620000D02*
G75*
G03*
X146212599Y-126080000I-1J2540001D01*
G01*
X73379999Y-191040000D02*
G75*
G03*
X73379999Y-193040000I0J-1000000D01*
G01*
X176833947Y-178700001D02*
G75*
G03*
X176833947Y-180700001I0J-1000000D01*
G01*
X174672600Y-65219999D02*
X181692600Y-65219999D01*
X159372600Y-74219999D02*
X159372600Y-65659998D01*
X145859999Y-175600001D02*
X145859999Y-176160001D01*
X184232600Y-35760002D02*
G75*
G03*
X181692600Y-33220002I-2540001J-1D01*
G01*
X183419999Y-176160001D02*
X183419999Y-171080001D01*
X139572600Y-45219999D02*
G75*
G03*
X140572600Y-46219999I999999J-1D01*
G01*
X93179999Y-191040000D02*
G75*
G03*
X93179999Y-193040000I0J-1000000D01*
G01*
X143859999Y-171600001D02*
X143859999Y-160560000D01*
X70282599Y-92060000D02*
G75*
G03*
X69282599Y-91060000I-999999J1D01*
G01*
X153639999Y-192860001D02*
X148439998Y-192860002D01*
X81172600Y-48219999D02*
G75*
G03*
X80172600Y-49219999I-1J-999999D01*
G01*
X174029999Y-164000002D02*
X174029998Y-147060000D01*
X124332599Y-33179999D02*
G75*
G03*
X121792599Y-35719999I1J-2540001D01*
G01*
X183419999Y-171080000D02*
G75*
G03*
X180879999Y-168540000I-2540001J-1D01*
G01*
X139572600Y-45219999D02*
X139572600Y-35719998D01*
X62392598Y-58580000D02*
X62392599Y-35719999D01*
X92082597Y-92060000D02*
G75*
G03*
X93082598Y-93060000I1000001J1D01*
G01*
X73139999Y-158020000D02*
X103219744Y-158016815D01*
X72282599Y-62119998D02*
G75*
G03*
X73282599Y-63119998I999999J-1D01*
G01*
X104532599Y-33179999D02*
G75*
G03*
X101992599Y-35719999I1J-2540001D01*
G01*
X163639999Y-183860001D02*
X163639999Y-183240001D01*
X183419999Y-188320001D02*
X183419999Y-183240001D01*
X183419998Y-183240001D02*
G75*
G03*
X180879998Y-180700001I-2540001J-1D01*
G01*
X171489999Y-166540002D02*
G75*
G03*
X171613947Y-168540001I123947J-996159D01*
G01*
X156833947Y-178700001D02*
G75*
G03*
X156833947Y-180700001I0J-1000000D01*
G01*
X69282599Y-93059998D02*
G75*
G03*
X70282599Y-92060000I1J999999D01*
G01*
X178569998Y-153840001D02*
X181109998Y-153840001D01*
X148399999Y-190860001D02*
X153639999Y-190860001D01*
X65119999Y-200660000D02*
X77819999Y-200660000D01*
X89179999Y-193040000D02*
X84899999Y-193040000D01*
X140572600Y-48219999D02*
G75*
G03*
X139572600Y-49219999I-1J-999999D01*
G01*
X107139999Y-156020000D02*
X130139999Y-156020000D01*
X165679999Y-201260001D02*
X165679998Y-203020002D01*
X120792599Y-76159999D02*
G75*
G03*
X121792599Y-75159999I1J999999D01*
G01*
X148629998Y-166540001D02*
X153613947Y-166540001D01*
X139572600Y-75159999D02*
G75*
G03*
X140572600Y-76159999I999999J-1D01*
G01*
X69212599Y-130620000D02*
X64939999Y-130620000D01*
X97432600Y-91060000D02*
G75*
G03*
X99972600Y-88520000I-1J2540001D01*
G01*
X140700000Y-197850000D02*
G75*
G03*
X139700000Y-198850000I-1J-999999D01*
G01*
X103212599Y-130620000D02*
G75*
G03*
X103212599Y-128620000I0J1000000D01*
G01*
X112879999Y-193040000D02*
X117379999Y-193040000D01*
X163639999Y-171080001D02*
G75*
G03*
X161099999Y-168540001I-2540001J-1D01*
G01*
X161099998Y-180700001D02*
X156833947Y-180700001D01*
X180879999Y-178700002D02*
G75*
G03*
X183419999Y-176160002I-1J2540001D01*
G01*
X163639998Y-183240001D02*
G75*
G03*
X161099998Y-180700001I-2540001J-1D01*
G01*
X130139999Y-158020000D02*
X107139999Y-158020000D01*
X159372600Y-78219999D02*
X159372600Y-88520000D01*
X141592599Y-49219999D02*
X141592599Y-58579999D01*
X99972600Y-88520000D02*
X99972600Y-79159999D01*
X175192600Y-88079999D02*
X181692600Y-88079999D01*
X128682599Y-93059998D02*
G75*
G03*
X129682599Y-92060000I1J999999D01*
G01*
X165639999Y-175540001D02*
X165639999Y-176160001D01*
X119919999Y-194850000D02*
G75*
G03*
X117379999Y-193040000I-2540004J-877216D01*
G01*
X163992599Y-136060000D02*
X148629998Y-136060001D01*
X168179999Y-190860001D02*
X173639999Y-190860001D01*
X171672600Y-57080002D02*
X171672600Y-64219999D01*
X109882599Y-62120000D02*
G75*
G03*
X108882599Y-61120000I-999999J1D01*
G01*
X134139999Y-156020000D02*
X138599999Y-156020000D01*
X140592599Y-46219999D02*
G75*
G03*
X141592599Y-45219999I1J999999D01*
G01*
X181109998Y-153840001D02*
G75*
G03*
X183649998Y-151300001I-1J2540001D01*
G01*
X89082599Y-93059998D02*
G75*
G03*
X90082599Y-92060000I1J999999D01*
G01*
X148212599Y-131520000D02*
G75*
G03*
X150752599Y-134060000I2540001J1D01*
G01*
X89179999Y-193040000D02*
G75*
G03*
X89179999Y-191040000I0J1000000D01*
G01*
X80359999Y-194850000D02*
G75*
G03*
X82359999Y-194850000I1000000J0D01*
G01*
X77632600Y-33179998D02*
X64932599Y-33179999D01*
X100972600Y-78159999D02*
G75*
G03*
X99972600Y-79159999I-1J-999999D01*
G01*
X141592598Y-58580000D02*
G75*
G03*
X144132598Y-61120000I2540001J1D01*
G01*
X134212599Y-128620000D02*
X143672599Y-128620000D01*
X104532598Y-61120000D02*
X108882599Y-61120000D01*
X120772600Y-78159999D02*
G75*
G03*
X119772600Y-79159999I-1J-999999D01*
G01*
X93082599Y-91060000D02*
X97432600Y-91060000D01*
X134139999Y-158020000D02*
X142139999Y-158020000D01*
X93082598Y-93060000D02*
X108882599Y-93059998D01*
X137160000Y-193040000D02*
X132919999Y-193040000D01*
X165639999Y-188320001D02*
G75*
G03*
X168179999Y-190860001I2540001J1D01*
G01*
X128682599Y-63119998D02*
G75*
G03*
X129682599Y-62119998I1J999999D01*
G01*
X183772599Y-131520000D02*
X183772599Y-95960000D01*
X139572600Y-58580000D02*
X139572600Y-49219999D01*
X81192599Y-46219999D02*
G75*
G03*
X82192599Y-45219999I1J999999D01*
G01*
X144899998Y-196020002D02*
G75*
G03*
X145899998Y-195020002I1J999999D01*
G01*
X138599999Y-156020000D02*
G75*
G03*
X141139999Y-153480000I-1J2540001D01*
G01*
X99972600Y-75159999D02*
G75*
G03*
X100972600Y-76159999I999999J-1D01*
G01*
X84732598Y-91060000D02*
X89082599Y-91060000D01*
X157613947Y-166540001D02*
X167613947Y-166540001D01*
X84899999Y-200660000D02*
X97599999Y-200660000D01*
X163679999Y-195400001D02*
G75*
G03*
X161139999Y-192860001I-2540001J-1D01*
G01*
X108882599Y-63119998D02*
X104532599Y-63119999D01*
X89082599Y-63119998D02*
G75*
G03*
X90082599Y-62119998I1J999999D01*
G01*
X80172600Y-75159999D02*
X80172600Y-65659998D01*
X141319999Y-191040000D02*
G75*
G03*
X143859999Y-188500000I-1J2540001D01*
G01*
X141139999Y-142060000D02*
G75*
G03*
X142139999Y-143060000I999999J-1D01*
G01*
X137032600Y-91060000D02*
G75*
G03*
X139572600Y-88520000I-1J2540001D01*
G01*
X171212599Y-93420000D02*
G75*
G03*
X172212599Y-92420000I1J999999D01*
G01*
X99972600Y-45219999D02*
X99972600Y-35719998D01*
X143859999Y-183700001D02*
X143859999Y-175600001D01*
X137032600Y-33179998D02*
X124332599Y-33179999D01*
X144899998Y-196020002D02*
X140700000Y-195850000D01*
X149482599Y-62120000D02*
G75*
G03*
X148482599Y-61120000I-999999J1D01*
G01*
X62579999Y-198120000D02*
G75*
G03*
X65119999Y-200660000I2540001J1D01*
G01*
X184232600Y-53540002D02*
X184232600Y-35760002D01*
X156832600Y-33179998D02*
X144132599Y-33179999D01*
X163679999Y-197260001D02*
X163679999Y-195400001D01*
X163912600Y-33220002D02*
G75*
G03*
X161372600Y-35760002I1J-2540001D01*
G01*
X69282599Y-63119998D02*
X64932599Y-63119999D01*
X156832600Y-91060000D02*
G75*
G03*
X159372600Y-88520000I-1J2540001D01*
G01*
X156833947Y-178700001D02*
X161099999Y-178700001D01*
X165639999Y-187860001D02*
G75*
G03*
X163639999Y-187860001I-1000000J0D01*
G01*
X141592599Y-49219999D02*
G75*
G03*
X140592599Y-48219999I-999999J1D01*
G01*
X180879999Y-168540001D02*
X171613947Y-168540001D01*
X121792599Y-79159999D02*
X121792599Y-88519999D01*
X132919999Y-191040000D02*
X141319999Y-191040000D01*
X139700000Y-194850000D02*
G75*
G03*
X137160000Y-193040000I-2540004J-877216D01*
G01*
X163639999Y-171540001D02*
X163639999Y-171080001D01*
X139572600Y-88520000D02*
X139572600Y-79159999D01*
X97432600Y-61120000D02*
G75*
G03*
X99972600Y-58580000I-1J2540001D01*
G01*
X73212599Y-130620000D02*
X103212599Y-130620000D01*
X161372600Y-49219999D02*
X161372599Y-53540003D01*
X62392599Y-126080000D02*
X62392599Y-95600000D01*
X80172600Y-88520000D02*
X80172600Y-79159999D01*
X82192599Y-79159999D02*
G75*
G03*
X81192599Y-78159999I-999999J1D01*
G01*
X151482599Y-62119998D02*
G75*
G03*
X152482599Y-63119998I999999J-1D01*
G01*
X129682599Y-92060000D02*
G75*
G03*
X128682599Y-91060000I-999999J1D01*
G01*
X124332598Y-61120000D02*
X128682599Y-61120000D01*
X119772600Y-45219999D02*
X119772600Y-35719998D01*
X99972600Y-45219999D02*
G75*
G03*
X100972600Y-46219999I999999J-1D01*
G01*
X82359999Y-198850000D02*
G75*
G03*
X80359999Y-198850000I-1000000J0D01*
G01*
X121919999Y-198850000D02*
G75*
G03*
X124459999Y-200660001I2539998J877205D01*
G01*
X124460000Y-193040000D02*
G75*
G03*
X121919999Y-194850000I0J-2687212D01*
G01*
X144132598Y-61120000D02*
X148482599Y-61120000D01*
X176029998Y-147060000D02*
X176029998Y-151300001D01*
X174029998Y-143060000D02*
G75*
G03*
X176029998Y-143060000I1000000J0D01*
G01*
X62579999Y-195580000D02*
X62579999Y-198120000D01*
X111882597Y-92060000D02*
G75*
G03*
X112882598Y-93060000I1000001J1D01*
G01*
X121792599Y-49219999D02*
X121792599Y-58579999D01*
X117379999Y-200660001D02*
G75*
G03*
X119919999Y-198850000I0J2687210D01*
G01*
X177639999Y-192860001D02*
X180919999Y-192860001D01*
X82192599Y-79159999D02*
X82192599Y-88519999D01*
X64932599Y-93060000D02*
G75*
G03*
X62392599Y-95600000I1J-2540001D01*
G01*
X132682599Y-61120000D02*
G75*
G03*
X131682599Y-62120000I-1J-999999D01*
G01*
X117232600Y-61120000D02*
G75*
G03*
X119772600Y-58580000I-1J2540001D01*
G01*
X159372600Y-74219999D02*
G75*
G03*
X161372600Y-74219999I1000000J0D01*
G01*
X159372600Y-35719998D02*
G75*
G03*
X156832600Y-33179998I-2540001J-1D01*
G01*
X112882599Y-61120000D02*
G75*
G03*
X111882599Y-62120000I-1J-999999D01*
G01*
X144132599Y-33179999D02*
G75*
G03*
X141592599Y-35719999I1J-2540001D01*
G01*
X161372600Y-49219999D02*
G75*
G03*
X159372600Y-49219999I-1000000J0D01*
G01*
X159372600Y-45219999D02*
X159372600Y-35719998D01*
X148399999Y-178700001D02*
X152833947Y-178700001D01*
X112882599Y-91060000D02*
X117232600Y-91060000D01*
X108882599Y-63119998D02*
G75*
G03*
X109882599Y-62119998I1J999999D01*
G01*
X72282597Y-92060000D02*
G75*
G03*
X73282598Y-93060000I1000001J1D01*
G01*
X146212599Y-109060000D02*
G75*
G03*
X148212599Y-109060000I1000000J0D01*
G01*
X141139999Y-153480000D02*
X141139999Y-146060000D01*
X140700000Y-197850000D02*
X144899998Y-198020002D01*
X99972600Y-75159999D02*
X99972600Y-65659998D01*
X90082599Y-92060000D02*
G75*
G03*
X89082599Y-91060000I-999999J1D01*
G01*
X171212599Y-93420000D02*
X150752599Y-93420000D01*
X148399999Y-180700001D02*
G75*
G03*
X145859999Y-183240001I1J-2540001D01*
G01*
X121792599Y-75159999D02*
X121792599Y-65659999D01*
X69139999Y-158020000D02*
X65119999Y-158020000D01*
X176029998Y-151300001D02*
G75*
G03*
X178569998Y-153840001I2540001J1D01*
G01*
X99972600Y-65659998D02*
G75*
G03*
X97432600Y-63119998I-2540001J-1D01*
G01*
X145899998Y-203020002D02*
G75*
G03*
X148439998Y-205560002I2540001J1D01*
G01*
X172192600Y-89079999D02*
G75*
G03*
X171192600Y-88079999I-999999J1D01*
G01*
X124332598Y-91060000D02*
X128682599Y-91060000D01*
X131682599Y-62119998D02*
G75*
G03*
X132682599Y-63119998I999999J-1D01*
G01*
X62399999Y-133160000D02*
X62399999Y-153480000D01*
X171672600Y-57080002D02*
G75*
G03*
X170672600Y-56080002I-999999J1D01*
G01*
X73212599Y-128620000D02*
G75*
G03*
X73212599Y-130620000I0J-1000000D01*
G01*
X163992599Y-136060000D02*
G75*
G03*
X163992599Y-134060000I0J1000000D01*
G01*
X101992599Y-79159999D02*
X101992599Y-88519999D01*
X165639999Y-175540001D02*
G75*
G03*
X163639999Y-175540001I-1000000J0D01*
G01*
X119919999Y-194850000D02*
G75*
G03*
X121919999Y-194850000I1000000J0D01*
G01*
X64932599Y-93060000D02*
X69282599Y-93059998D01*
X107212599Y-130620000D02*
X130212599Y-130620000D01*
X64932598Y-91060000D02*
X69282599Y-91060000D01*
X181692600Y-33220002D02*
X163912600Y-33220002D01*
X146089998Y-146060000D02*
G75*
G03*
X145089998Y-145060000I-999999J1D01*
G01*
X69379999Y-193040000D02*
G75*
G03*
X69379999Y-191040000I0J1000000D01*
G01*
X165639999Y-176160002D02*
G75*
G03*
X168179999Y-178700002I2540001J1D01*
G01*
X153639999Y-192860001D02*
G75*
G03*
X153639999Y-190860001I0J1000000D01*
G01*
X64939999Y-130620000D02*
G75*
G03*
X62399999Y-133160000I1J-2540001D01*
G01*
X119772600Y-65659998D02*
G75*
G03*
X117232600Y-63119998I-2540001J-1D01*
G01*
X144132599Y-63119999D02*
G75*
G03*
X141592599Y-65659999I1J-2540001D01*
G01*
X183459999Y-195400001D02*
G75*
G03*
X180919999Y-192860001I-2540001J-1D01*
G01*
X73282598Y-93060000D02*
X89082599Y-93059998D01*
X73282599Y-61120000D02*
G75*
G03*
X72282599Y-62120000I-1J-999999D01*
G01*
X171489999Y-166540002D02*
G75*
G03*
X174029999Y-164000002I-1J2540001D01*
G01*
X183649998Y-151300001D02*
X183649998Y-138600001D01*
X62579999Y-188500000D02*
G75*
G03*
X65119999Y-191040000I2540001J1D01*
G01*
X146212599Y-95600000D02*
G75*
G03*
X143672599Y-93060000I-2540001J-1D01*
G01*
X132682599Y-91060000D02*
G75*
G03*
X131682599Y-92060000I-1J-999999D01*
G01*
X165639999Y-187860001D02*
X165639999Y-188320001D01*
X141592599Y-75159999D02*
X141592599Y-65659999D01*
X156832600Y-61120000D02*
G75*
G03*
X159372600Y-58580000I-1J2540001D01*
G01*
X148399999Y-168540001D02*
G75*
G03*
X145859999Y-171080001I1J-2540001D01*
G01*
X112882598Y-93060000D02*
X128682599Y-93059998D01*
X103219744Y-158016815D02*
G75*
G03*
X103139999Y-156020000I-79743J996815D01*
G01*
X145899998Y-199020002D02*
X145899998Y-203020002D01*
X146089998Y-146060000D02*
X146089998Y-164000001D01*
X174672600Y-56080002D02*
X181692600Y-56080002D01*
X163679999Y-203020003D02*
X163679999Y-201260001D01*
X107139999Y-156020000D02*
G75*
G03*
X107139999Y-158020000I0J-1000000D01*
G01*
X152833947Y-180700001D02*
X148399999Y-180700001D01*
X137032600Y-61120000D02*
G75*
G03*
X139572600Y-58580000I-1J2540001D01*
G01*
X145859999Y-183700001D02*
X145859999Y-183240001D01*
X112882599Y-61120000D02*
X117232600Y-61120000D01*
X143859999Y-183700001D02*
G75*
G03*
X145859999Y-183700001I1000000J0D01*
G01*
X101992598Y-58580000D02*
G75*
G03*
X104532598Y-61120000I2540001J1D01*
G01*
X140592599Y-76159999D02*
G75*
G03*
X141592599Y-75159999I1J999999D01*
G01*
X145859999Y-175600001D02*
G75*
G03*
X143859999Y-175600001I-1000000J0D01*
G01*
X137160000Y-200660001D02*
G75*
G03*
X139700000Y-198850000I0J2687210D01*
G01*
X184232600Y-85539999D02*
X184232600Y-67759999D01*
X141592599Y-79159999D02*
G75*
G03*
X140592599Y-78159999I-999999J1D01*
G01*
X142139999Y-143060000D02*
X145089998Y-143060000D01*
X167613947Y-168540002D02*
G75*
G03*
X165639999Y-171080001I647212J-2539999D01*
G01*
X112882599Y-91060000D02*
G75*
G03*
X111882599Y-92060000I-1J-999999D01*
G01*
X145859999Y-188320001D02*
G75*
G03*
X148399999Y-190860001I2540001J1D01*
G01*
X150752599Y-134060000D02*
X163992599Y-134060000D01*
X93179999Y-191040000D02*
X108879999Y-191040000D01*
X132682599Y-61120000D02*
X137032600Y-61120000D01*
X180919999Y-205560003D02*
G75*
G03*
X183459999Y-203020003I-1J2540001D01*
G01*
X80172600Y-58580000D02*
X80172600Y-49219999D01*
X168219998Y-192860002D02*
G75*
G03*
X165679998Y-195400002I1J-2540001D01*
G01*
X177639999Y-190860001D02*
G75*
G03*
X177639999Y-192860001I0J-1000000D01*
G01*
X181232205Y-134064260D02*
G75*
G03*
X181139999Y-136060000I-92206J-995740D01*
G01*
X129682599Y-62120000D02*
G75*
G03*
X128682599Y-61120000I-999999J1D01*
G01*
X119772600Y-75159999D02*
X119772600Y-65659998D01*
X141139999Y-142060000D02*
X141139999Y-133160000D01*
X73212599Y-128620000D02*
X103212599Y-128620000D01*
X90082599Y-62120000D02*
G75*
G03*
X89082599Y-61120000I-999999J1D01*
G01*
X153613947Y-168540001D02*
G75*
G03*
X153613947Y-166540001I0J1000000D01*
G01*
X62392598Y-58580000D02*
G75*
G03*
X64932598Y-61120000I2540001J1D01*
G01*
X107212599Y-128620000D02*
G75*
G03*
X107212599Y-130620000I0J-1000000D01*
G01*
X145089998Y-143060000D02*
G75*
G03*
X146089998Y-142060000I1J999999D01*
G01*
X104532598Y-91060000D02*
X108882599Y-91060000D01*
X163912599Y-56080003D02*
X170672600Y-56080002D01*
X73139999Y-156020000D02*
X103139999Y-156020000D01*
X180879999Y-190860001D02*
X177639999Y-190860001D01*
X172833947Y-180700001D02*
G75*
G03*
X172833947Y-178700001I0J1000000D01*
G01*
X163912600Y-88079999D02*
X171192600Y-88079999D01*
X168179999Y-180700001D02*
G75*
G03*
X165639999Y-183240001I1J-2540001D01*
G01*
X163639999Y-176160001D02*
X163639999Y-175540001D01*
X134139999Y-156020000D02*
G75*
G03*
X134139999Y-158020000I0J-1000000D01*
G01*
X157613947Y-168540001D02*
X161099999Y-168540001D01*
X165639999Y-171540001D02*
X165639999Y-171080001D01*
X108879999Y-193040000D02*
X104679999Y-193040000D01*
X80172600Y-75159999D02*
G75*
G03*
X81172600Y-76159999I999999J-1D01*
G01*
X132919999Y-191040000D02*
G75*
G03*
X132919999Y-193040000I0J-1000000D01*
G01*
X161372600Y-85539999D02*
G75*
G03*
X163912600Y-88079999I2540001J1D01*
G01*
X148212599Y-95960000D02*
X148212599Y-109060000D01*
X159372600Y-58580000D02*
X159372600Y-49219999D01*
X170672600Y-65219999D02*
G75*
G03*
X171672600Y-64219999I1J999999D01*
G01*
X121792598Y-58580000D02*
G75*
G03*
X124332598Y-61120000I2540001J1D01*
G01*
X176029997Y-138600000D02*
X176029998Y-143060000D01*
X97432600Y-33179998D02*
X84732599Y-33179999D01*
M02*
