M48
INCH,TZ
T1C0.0157
T2C0.0236
T3C0.0394
T4C0.0579
T5C0.0787
%
G90
G05
T1
X40512Y-56425
X65952Y-41362
X66149Y-41756
X66346Y-42780
X66543Y-43803
X66739Y-44787
X66936Y-45772
X67133Y-46795
X67330Y-47740
X68565Y-48802
X69351Y-38780
X69928Y-49762
T3
X25564Y-14063
X25564Y-15063
X25564Y-16063
X25564Y-17063
X25564Y-18063
X25564Y-19063
X25564Y-20063
X25564Y-21063
X25564Y-22063
X25564Y-23063
X25564Y-25850
X25564Y-26850
X25564Y-27850
X25564Y-28850
X25564Y-29850
X25564Y-30850
X25564Y-31850
X25564Y-32850
X25564Y-33850
X25564Y-34850
X25564Y-37638
X25564Y-49638
X25567Y-52425
X25567Y-60425
X25638Y-63213
X25638Y-74213
X25638Y-77000
X25638Y-78000
X26564Y-37638
X26564Y-49638
X26567Y-52425
X26567Y-60425
X26638Y-63213
X26638Y-74213
X27564Y-37638
X27564Y-49638
X27567Y-52425
X27567Y-60425
X28564Y-37638
X28564Y-49638
X28567Y-52425
X28567Y-60425
X29564Y-37638
X29564Y-49638
X29567Y-52425
X29567Y-60425
X30564Y-14063
X30564Y-15063
X30564Y-16063
X30564Y-17063
X30564Y-18063
X30564Y-19063
X30564Y-20063
X30564Y-21063
X30564Y-22063
X30564Y-23063
X30564Y-25850
X30564Y-26850
X30564Y-27850
X30564Y-28850
X30564Y-29850
X30564Y-30850
X30564Y-31850
X30564Y-32850
X30564Y-33850
X30564Y-34850
X30564Y-37638
X30564Y-49638
X30567Y-52425
X30567Y-60425
X30638Y-77000
X30638Y-78000
X31564Y-37638
X31564Y-49638
X31567Y-52425
X31567Y-60425
X32564Y-37638
X32564Y-49638
X32567Y-52425
X32567Y-60425
X33359Y-14063
X33359Y-15063
X33359Y-16063
X33359Y-17063
X33359Y-18063
X33359Y-19063
X33359Y-20063
X33359Y-21063
X33359Y-22063
X33359Y-23063
X33359Y-25850
X33359Y-26850
X33359Y-27850
X33359Y-28850
X33359Y-29850
X33359Y-30850
X33359Y-31850
X33359Y-32850
X33359Y-33850
X33359Y-34850
X33425Y-77000
X33425Y-78000
X33564Y-37638
X33564Y-49638
X33567Y-52425
X33567Y-60425
X34564Y-37638
X34564Y-49638
X34567Y-52425
X34567Y-60425
X35564Y-37638
X35564Y-49638
X35567Y-52425
X35567Y-60425
X36564Y-37638
X36564Y-49638
X36567Y-52425
X36567Y-60425
X37564Y-37638
X37564Y-49638
X37567Y-52425
X37567Y-60425
X38359Y-14063
X38359Y-15063
X38359Y-16063
X38359Y-17063
X38359Y-18063
X38359Y-19063
X38359Y-20063
X38359Y-21063
X38359Y-22063
X38359Y-23063
X38359Y-25850
X38359Y-26850
X38359Y-27850
X38359Y-28850
X38359Y-29850
X38359Y-30850
X38359Y-31850
X38359Y-32850
X38359Y-33850
X38359Y-34850
X38425Y-77000
X38425Y-78000
X38564Y-37638
X38564Y-49638
X38567Y-52425
X38567Y-60425
X39564Y-37638
X39564Y-49638
X39567Y-52425
X39567Y-60425
X39638Y-63213
X39638Y-74213
X40564Y-37638
X40564Y-49638
X40567Y-52425
X40567Y-60425
X40638Y-63213
X40638Y-74213
X41155Y-14063
X41155Y-15063
X41155Y-16063
X41155Y-17063
X41155Y-18063
X41155Y-19063
X41155Y-20063
X41155Y-21063
X41155Y-22063
X41155Y-23063
X41155Y-25850
X41155Y-26850
X41155Y-27850
X41155Y-28850
X41155Y-29850
X41155Y-30850
X41155Y-31850
X41155Y-32850
X41155Y-33850
X41155Y-34850
X41213Y-77000
X41213Y-78000
X41564Y-37638
X41564Y-49638
X41567Y-52425
X41567Y-60425
X41638Y-63213
X41638Y-74213
X42564Y-37638
X42564Y-49638
X42567Y-52425
X42567Y-60425
X42638Y-63213
X42638Y-74213
X43564Y-37638
X43564Y-49638
X43567Y-52425
X43567Y-60425
X44564Y-37638
X44564Y-49638
X44567Y-52425
X44567Y-60425
X45564Y-37638
X45564Y-49638
X45567Y-52425
X45567Y-60425
X46155Y-14063
X46155Y-15063
X46155Y-16063
X46155Y-17063
X46155Y-18063
X46155Y-19063
X46155Y-20063
X46155Y-21063
X46155Y-22063
X46155Y-23063
X46155Y-25850
X46155Y-26850
X46155Y-27850
X46155Y-28850
X46155Y-29850
X46155Y-30850
X46155Y-31850
X46155Y-32850
X46155Y-33850
X46155Y-34850
X46213Y-77000
X46213Y-78000
X46564Y-37638
X46564Y-49638
X46567Y-52425
X46567Y-60425
X47564Y-37638
X47564Y-49638
X47567Y-52425
X47567Y-60425
X48564Y-37638
X48564Y-49638
X48567Y-52425
X48567Y-60425
X48950Y-14063
X48950Y-15063
X48950Y-16063
X48950Y-17063
X48950Y-18063
X48950Y-19063
X48950Y-20063
X48950Y-21063
X48950Y-22063
X48950Y-23063
X48950Y-25850
X48950Y-26850
X48950Y-27850
X48950Y-28850
X48950Y-29850
X48950Y-30850
X48950Y-31850
X48950Y-32850
X48950Y-33850
X48950Y-34850
X49000Y-77000
X49000Y-78000
X49564Y-37638
X49564Y-49638
X49567Y-52425
X49567Y-60425
X50564Y-37638
X50564Y-49638
X50567Y-52425
X50567Y-60425
X51564Y-37638
X51564Y-49638
X51567Y-52425
X51567Y-60425
X52564Y-37638
X52564Y-49638
X52567Y-52425
X52567Y-60425
X53564Y-37638
X53564Y-49638
X53567Y-52425
X53567Y-60425
X53950Y-14063
X53950Y-15063
X53950Y-16063
X53950Y-17063
X53950Y-18063
X53950Y-19063
X53950Y-20063
X53950Y-21063
X53950Y-22063
X53950Y-23063
X53950Y-25850
X53950Y-26850
X53950Y-27850
X53950Y-28850
X53950Y-29850
X53950Y-30850
X53950Y-31850
X53950Y-32850
X53950Y-33850
X53950Y-34850
X54000Y-77000
X54000Y-78000
X54564Y-37638
X54564Y-49638
X54567Y-52425
X54567Y-60425
X54638Y-63236
X54638Y-74236
X55564Y-37638
X55564Y-49638
X55638Y-63236
X55638Y-74236
X56564Y-37638
X56564Y-49638
X56745Y-14063
X56745Y-15063
X56745Y-16063
X56745Y-17063
X56745Y-18063
X56745Y-19063
X56745Y-20063
X56745Y-21063
X56745Y-22063
X56745Y-23063
X56745Y-25850
X56745Y-26850
X56745Y-27850
X56745Y-28850
X56745Y-29850
X56745Y-30850
X56745Y-31850
X56745Y-32850
X56745Y-33850
X56745Y-34850
X58425Y-67354
X58425Y-68354
X58425Y-69354
X58425Y-72142
X58425Y-73142
X58425Y-74142
X58441Y-76929
X58441Y-77929
X58441Y-78929
X58441Y-79929
X58516Y-57567
X58516Y-58567
X58516Y-59567
X58516Y-60567
X58516Y-61567
X58516Y-62567
X59351Y-37780
X59351Y-38780
X59351Y-39780
X59351Y-40780
X59351Y-41780
X59351Y-42780
X59351Y-43780
X59351Y-44780
X59351Y-45780
X59351Y-46780
X59351Y-47780
X59351Y-48780
X59351Y-49780
X59351Y-50780
X59351Y-51780
X60205Y-61583
X60205Y-62567
X60205Y-63551
X60209Y-55717
X60209Y-56701
X60209Y-57685
X60425Y-67354
X60425Y-68354
X60425Y-69354
X61425Y-67354
X61425Y-68354
X61425Y-69354
X61745Y-14063
X61745Y-15063
X61745Y-16063
X61745Y-17063
X61745Y-18063
X61745Y-19063
X61745Y-20063
X61745Y-21063
X61745Y-22063
X61745Y-23063
X61745Y-25850
X61745Y-26850
X61745Y-27850
X61745Y-28850
X61745Y-29850
X61745Y-30850
X61745Y-31850
X61745Y-32850
X61745Y-33850
X61745Y-34850
X63425Y-67354
X63425Y-68354
X63425Y-69354
X63425Y-72142
X63425Y-73142
X63441Y-77929
X63441Y-78929
X64533Y-15079
X64533Y-16079
X64533Y-17079
X64533Y-18079
X64533Y-19079
X64533Y-20079
X64533Y-21079
X64533Y-26677
X64533Y-27677
X64533Y-28677
X64533Y-29677
X64533Y-30677
X64533Y-31677
X64533Y-32677
X64533Y-33677
X65913Y-61583
X65913Y-63551
X65917Y-55717
X65917Y-57685
X66213Y-72142
X66213Y-73142
X66213Y-74142
X66213Y-67354
X66213Y-68354
X66213Y-69354
X66228Y-76929
X66228Y-77929
X66228Y-78929
X66228Y-79929
X67516Y-57567
X67516Y-58567
X67516Y-59567
X67516Y-60567
X67516Y-61567
X67516Y-62567
X68213Y-67354
X68213Y-68354
X68213Y-69354
X69213Y-67354
X69213Y-68354
X69213Y-69354
X70303Y-54567
X70303Y-59567
X71213Y-72142
X71213Y-73142
X71213Y-67354
X71213Y-68354
X71213Y-69354
X71228Y-77929
X71228Y-78929
X71303Y-54567
X71303Y-59567
X71351Y-37781
X71351Y-38781
X71351Y-39781
X71351Y-40781
X71351Y-41781
X71351Y-42781
X71351Y-43781
X71351Y-44781
X71351Y-45781
X71351Y-46781
X71351Y-47781
X71351Y-48781
X71351Y-49781
X71351Y-50781
X71351Y-51781
X71533Y-15079
X71533Y-16079
X71533Y-17079
X71533Y-18079
X71533Y-19079
X71533Y-20079
X71533Y-21079
X71533Y-26677
X71533Y-27677
X71533Y-28677
X71533Y-29677
X71533Y-30677
X71533Y-31677
X71533Y-32677
X71533Y-33677
T4
X30378Y-67138
X31378Y-69638
X37976Y-67138
X38976Y-69638
X45638Y-67138
X46638Y-69638
X53173Y-67138
X54173Y-69638
T2
G00X66281Y-19557
M15
G01X66281Y-19990
M16
G05
G00X66281Y-21301
M15
G01X66281Y-21537
M16
G05
G00X69682Y-19557
M15
G01X69682Y-19990
M16
G05
G00X69682Y-21301
M15
G01X69682Y-21537
M16
G05
T5
G00X63059Y-60362
M15
G01X63256Y-60362
M16
G05
G00X63059Y-64772
M15
G01X63256Y-64772
M16
G05
G00X63063Y-54496
M15
G01X63260Y-54496
M16
G05
G00X63063Y-58906
M15
G01X63260Y-58906
M16
G05
T0
M30
