%TF.GenerationSoftware,KiCad,Pcbnew,(6.0.2)*%
%TF.CreationDate,2022-03-17T14:33:33-04:00*%
%TF.ProjectId,Panel,50616e65-6c2e-46b6-9963-61645f706362,rev?*%
%TF.SameCoordinates,Original*%
%TF.FileFunction,Legend,Bot*%
%TF.FilePolarity,Positive*%
%FSLAX46Y46*%
G04 Gerber Fmt 4.6, Leading zero omitted, Abs format (unit mm)*
G04 Created by KiCad (PCBNEW (6.0.2)) date 2022-03-17 14:33:33*
%MOMM*%
%LPD*%
G01*
G04 APERTURE LIST*
%ADD10C,0.150000*%
%ADD11C,0.100000*%
%ADD12C,0.200000*%
G04 APERTURE END LIST*
D10*
X144342124Y-68315713D02*
X144342124Y-68982379D01*
X144580220Y-67934760D02*
X144818315Y-68649046D01*
X144199267Y-68649046D01*
X144342124Y-78475713D02*
X144342124Y-79142379D01*
X144580220Y-78094760D02*
X144818315Y-78809046D01*
X144199267Y-78809046D01*
X144246886Y-76602379D02*
X144818315Y-76602379D01*
X144532601Y-76602379D02*
X144532601Y-75602379D01*
X144627839Y-75745237D01*
X144723077Y-75840475D01*
X144818315Y-75888094D01*
X157565934Y-78142379D02*
X156946886Y-78142379D01*
X157280220Y-78523332D01*
X157137362Y-78523332D01*
X157042124Y-78570951D01*
X156994505Y-78618570D01*
X156946886Y-78713808D01*
X156946886Y-78951903D01*
X156994505Y-79047141D01*
X157042124Y-79094760D01*
X157137362Y-79142379D01*
X157423077Y-79142379D01*
X157518315Y-79094760D01*
X157565934Y-79047141D01*
X157565934Y-62902379D02*
X156946886Y-62902379D01*
X157280220Y-63283332D01*
X157137362Y-63283332D01*
X157042124Y-63330951D01*
X156994505Y-63378570D01*
X156946886Y-63473808D01*
X156946886Y-63711903D01*
X156994505Y-63807141D01*
X157042124Y-63854760D01*
X157137362Y-63902379D01*
X157423077Y-63902379D01*
X157518315Y-63854760D01*
X157565934Y-63807141D01*
X157518315Y-75697618D02*
X157470696Y-75649999D01*
X157375458Y-75602379D01*
X157137362Y-75602379D01*
X157042124Y-75649999D01*
X156994505Y-75697618D01*
X156946886Y-75792856D01*
X156946886Y-75888094D01*
X156994505Y-76030951D01*
X157565934Y-76602379D01*
X156946886Y-76602379D01*
X144246886Y-61362379D02*
X144818315Y-61362379D01*
X144532601Y-61362379D02*
X144532601Y-60362379D01*
X144627839Y-60505237D01*
X144723077Y-60600475D01*
X144818315Y-60648094D01*
X144246886Y-66442379D02*
X144818315Y-66442379D01*
X144532601Y-66442379D02*
X144532601Y-65442379D01*
X144627839Y-65585237D01*
X144723077Y-65680475D01*
X144818315Y-65728094D01*
X144246886Y-71522379D02*
X144818315Y-71522379D01*
X144532601Y-71522379D02*
X144532601Y-70522379D01*
X144627839Y-70665237D01*
X144723077Y-70760475D01*
X144818315Y-70808094D01*
X157518315Y-70617618D02*
X157470696Y-70569999D01*
X157375458Y-70522379D01*
X157137362Y-70522379D01*
X157042124Y-70569999D01*
X156994505Y-70617618D01*
X156946886Y-70712856D01*
X156946886Y-70808094D01*
X156994505Y-70950951D01*
X157565934Y-71522379D01*
X156946886Y-71522379D01*
X144342124Y-73395713D02*
X144342124Y-74062379D01*
X144580220Y-73014760D02*
X144818315Y-73729046D01*
X144199267Y-73729046D01*
X144342124Y-63235713D02*
X144342124Y-63902379D01*
X144580220Y-62854760D02*
X144818315Y-63569046D01*
X144199267Y-63569046D01*
X157518315Y-65537618D02*
X157470696Y-65489999D01*
X157375458Y-65442379D01*
X157137362Y-65442379D01*
X157042124Y-65489999D01*
X156994505Y-65537618D01*
X156946886Y-65632856D01*
X156946886Y-65728094D01*
X156994505Y-65870951D01*
X157565934Y-66442379D01*
X156946886Y-66442379D01*
X157565934Y-73062379D02*
X156946886Y-73062379D01*
X157280220Y-73443332D01*
X157137362Y-73443332D01*
X157042124Y-73490951D01*
X156994505Y-73538570D01*
X156946886Y-73633808D01*
X156946886Y-73871903D01*
X156994505Y-73967141D01*
X157042124Y-74014760D01*
X157137362Y-74062379D01*
X157423077Y-74062379D01*
X157518315Y-74014760D01*
X157565934Y-73967141D01*
X157565934Y-67982379D02*
X156946886Y-67982379D01*
X157280220Y-68363332D01*
X157137362Y-68363332D01*
X157042124Y-68410951D01*
X156994505Y-68458570D01*
X156946886Y-68553808D01*
X156946886Y-68791903D01*
X156994505Y-68887141D01*
X157042124Y-68934760D01*
X157137362Y-68982379D01*
X157423077Y-68982379D01*
X157518315Y-68934760D01*
X157565934Y-68887141D01*
X157518315Y-60457618D02*
X157470696Y-60409999D01*
X157375458Y-60362379D01*
X157137362Y-60362379D01*
X157042124Y-60409999D01*
X156994505Y-60457618D01*
X156946886Y-60552856D01*
X156946886Y-60648094D01*
X156994505Y-60790951D01*
X157565934Y-61362379D01*
X156946886Y-61362379D01*
D11*
%TO.C,RGB2*%
X150172601Y-65729999D02*
X149672601Y-65729999D01*
X152872601Y-67854999D02*
X152872601Y-68529999D01*
X152372601Y-65729999D02*
X152872601Y-65729999D01*
X152872601Y-68529999D02*
X152372601Y-68529999D01*
X152872601Y-65729999D02*
X152872601Y-66404999D01*
X150172601Y-68529999D02*
X149672601Y-68529999D01*
X149672601Y-65729999D02*
X149672601Y-66404999D01*
X149672601Y-68529999D02*
X149672601Y-67854999D01*
D12*
X147582601Y-66549999D02*
G75*
G03*
X147582601Y-66349999I0J100000D01*
G01*
X147582601Y-66349999D02*
G75*
G03*
X147582601Y-66549999I0J-100000D01*
G01*
D11*
%TO.C,RGB1*%
X150172601Y-60329999D02*
X149672601Y-60329999D01*
X152872601Y-60329999D02*
X152872601Y-61004999D01*
X152372601Y-60329999D02*
X152872601Y-60329999D01*
X150172601Y-63129999D02*
X149672601Y-63129999D01*
X152872601Y-62454999D02*
X152872601Y-63129999D01*
X152872601Y-63129999D02*
X152372601Y-63129999D01*
X149672601Y-63129999D02*
X149672601Y-62454999D01*
X149672601Y-60329999D02*
X149672601Y-61004999D01*
D12*
X147582601Y-60949999D02*
G75*
G03*
X147582601Y-61149999I0J-100000D01*
G01*
X147582601Y-61149999D02*
G75*
G03*
X147582601Y-60949999I0J100000D01*
G01*
D11*
%TO.C,RGB3*%
X152372601Y-71129999D02*
X152872601Y-71129999D01*
X149672601Y-73929999D02*
X149672601Y-73254999D01*
X150172601Y-73929999D02*
X149672601Y-73929999D01*
X149672601Y-71129999D02*
X149672601Y-71804999D01*
X152872601Y-73254999D02*
X152872601Y-73929999D01*
X150172601Y-71129999D02*
X149672601Y-71129999D01*
X152872601Y-71129999D02*
X152872601Y-71804999D01*
X152872601Y-73929999D02*
X152372601Y-73929999D01*
D12*
X147582601Y-71749999D02*
G75*
G03*
X147582601Y-71949999I0J-100000D01*
G01*
X147582601Y-71949999D02*
G75*
G03*
X147582601Y-71749999I0J100000D01*
G01*
D11*
%TO.C,RGB4*%
X150172601Y-79329999D02*
X149672601Y-79329999D01*
X152372601Y-76529999D02*
X152872601Y-76529999D01*
X152872601Y-76529999D02*
X152872601Y-77204999D01*
X152872601Y-78654999D02*
X152872601Y-79329999D01*
X149672601Y-76529999D02*
X149672601Y-77204999D01*
X150172601Y-76529999D02*
X149672601Y-76529999D01*
X149672601Y-79329999D02*
X149672601Y-78654999D01*
X152872601Y-79329999D02*
X152372601Y-79329999D01*
D12*
X147582601Y-77349999D02*
G75*
G03*
X147582601Y-77149999I0J100000D01*
G01*
X147582601Y-77149999D02*
G75*
G03*
X147582601Y-77349999I0J-100000D01*
G01*
%TD*%
M02*
