%TF.GenerationSoftware,KiCad,Pcbnew,(6.0.2)*%
%TF.CreationDate,2022-03-17T14:33:33-04:00*%
%TF.ProjectId,Panel,50616e65-6c2e-46b6-9963-61645f706362,rev?*%
%TF.SameCoordinates,Original*%
%TF.FileFunction,Profile,NP*%
%FSLAX46Y46*%
G04 Gerber Fmt 4.6, Leading zero omitted, Abs format (unit mm)*
G04 Created by KiCad (PCBNEW (6.0.2)) date 2022-03-17 14:33:33*
%MOMM*%
%LPD*%
G01*
G04 APERTURE LIST*
%TA.AperFunction,Profile*%
%ADD10C,0.100000*%
%TD*%
G04 APERTURE END LIST*
D10*
X124169999Y-157150001D02*
G75*
G03*
X126709999Y-159690001I2540001J1D01*
G01*
X78052601Y-28869998D02*
G75*
G03*
X75512601Y-26329998I-2540001J-1D01*
G01*
X108220000Y-151170000D02*
G75*
G03*
X108220000Y-149170000I0J1000000D01*
G01*
X150913948Y-171850001D02*
X146260000Y-171850002D01*
X106762600Y-56269998D02*
X102412600Y-56269999D01*
X87962600Y-85210000D02*
G75*
G03*
X86962600Y-84210000I-999999J1D01*
G01*
X98852601Y-41369999D02*
G75*
G03*
X97852601Y-42369999I-1J-999999D01*
G01*
X86962600Y-86209998D02*
G75*
G03*
X87962600Y-85210000I1J999999D01*
G01*
X89962600Y-55269998D02*
G75*
G03*
X90962600Y-56269998I999999J-1D01*
G01*
X62812600Y-26329999D02*
G75*
G03*
X60272600Y-28869999I1J-2540001D01*
G01*
X71260000Y-186190000D02*
X75680000Y-186190000D01*
X139452601Y-67369999D02*
X139452601Y-60909999D01*
X40472599Y-81670000D02*
X40472600Y-58809999D01*
X117780001Y-188000000D02*
G75*
G03*
X118780001Y-189000000I999999J-1D01*
G01*
X131693948Y-161690001D02*
X126480000Y-161690001D01*
X62812600Y-56269999D02*
G75*
G03*
X60272600Y-58809999I1J-2540001D01*
G01*
X107000000Y-186190000D02*
X102540001Y-186190000D01*
X151720000Y-186010001D02*
G75*
G03*
X151720000Y-184010001I0J1000000D01*
G01*
X141720000Y-181010001D02*
X141720000Y-181470001D01*
X123169999Y-138210000D02*
X120220000Y-138210000D01*
X126519999Y-186010002D02*
G75*
G03*
X123979999Y-188170002I2J-2573428D01*
G01*
X126519999Y-198710002D02*
X139220000Y-198710003D01*
X58252601Y-58809998D02*
G75*
G03*
X55712601Y-56269998I-2540001J-1D01*
G01*
X43200000Y-186190000D02*
G75*
G03*
X40660000Y-188730000I1J-2540001D01*
G01*
X51362600Y-84210000D02*
X55712601Y-84210000D01*
X51362600Y-84210000D02*
G75*
G03*
X50362600Y-85210000I-1J-999999D01*
G01*
X67162600Y-56269998D02*
X62812600Y-56269999D01*
X79072600Y-69309999D02*
G75*
G03*
X80072600Y-68309999I1J999999D01*
G01*
X99872600Y-72309999D02*
G75*
G03*
X98872600Y-71309999I-999999J1D01*
G01*
X109762598Y-85210000D02*
G75*
G03*
X110762599Y-86210000I1000001J1D01*
G01*
X62980000Y-186189999D02*
G75*
G03*
X60440000Y-188000000I0J-2687210D01*
G01*
X146072600Y-129210000D02*
X149569999Y-129210000D01*
X110762600Y-84210000D02*
X115112601Y-84210000D01*
X135720000Y-184010001D02*
G75*
G03*
X135720000Y-186010001I0J-1000000D01*
G01*
X60440001Y-192000000D02*
G75*
G03*
X62980000Y-193810000I2539999J877209D01*
G01*
X58252601Y-28869998D02*
G75*
G03*
X55712601Y-26329998I-2540001J-1D01*
G01*
X43012599Y-54270000D02*
X47362600Y-54270000D01*
X112292600Y-123770000D02*
X116680000Y-123770000D01*
X58440000Y-188000000D02*
G75*
G03*
X55900000Y-186190000I-2540004J-877216D01*
G01*
X121940000Y-180850001D02*
X121940000Y-181650000D01*
X80072599Y-81670000D02*
G75*
G03*
X82612599Y-84210000I2540001J1D01*
G01*
X141720000Y-164690001D02*
G75*
G03*
X143720000Y-164690001I1000000J0D01*
G01*
X146072600Y-127210000D02*
G75*
G03*
X146072600Y-129210000I0J-1000000D01*
G01*
X59272600Y-69309999D02*
G75*
G03*
X60272600Y-68309999I1J999999D01*
G01*
X139452601Y-28910002D02*
X139452601Y-38369999D01*
X143759999Y-196170002D02*
G75*
G03*
X146299999Y-198710002I2540001J1D01*
G01*
X118652601Y-71309999D02*
G75*
G03*
X117652601Y-72309999I-1J-999999D01*
G01*
X71162600Y-54270000D02*
X75512601Y-54270000D01*
X82760000Y-186189999D02*
G75*
G03*
X80220000Y-188000000I0J-2687210D01*
G01*
X126562600Y-56269998D02*
X122212600Y-56269999D01*
X112292600Y-121770000D02*
G75*
G03*
X112292600Y-123770000I0J-1000000D01*
G01*
X60272600Y-42369999D02*
G75*
G03*
X59272600Y-41369999I-999999J1D01*
G01*
X78052601Y-51730000D02*
X78052601Y-42369999D01*
X152109999Y-131750000D02*
G75*
G03*
X149569999Y-129210000I-2540001J-1D01*
G01*
X124169999Y-131750001D02*
X124169999Y-135210000D01*
X123940000Y-180850001D02*
G75*
G03*
X121940000Y-180850001I-1000000J0D01*
G01*
X85292600Y-121770000D02*
X108292600Y-121770000D01*
X107000000Y-186190000D02*
G75*
G03*
X107000000Y-184190000I0J1000000D01*
G01*
X117652601Y-28869998D02*
G75*
G03*
X115112601Y-26329998I-2540001J-1D01*
G01*
X128832600Y-86570000D02*
G75*
G03*
X126292600Y-89110000I1J-2540001D01*
G01*
X115112601Y-56269998D02*
X110762600Y-56269998D01*
X97852601Y-51730000D02*
X97852601Y-42369999D01*
X150292600Y-85570000D02*
X150272601Y-82229999D01*
X43020000Y-149170000D02*
X47220000Y-149170000D01*
X154913948Y-171850001D02*
X158960000Y-171850002D01*
X60272600Y-38369999D02*
X60272600Y-28869999D01*
X60272600Y-68309999D02*
X60272600Y-58809999D01*
X143760000Y-194410001D02*
G75*
G03*
X141760000Y-194410001I-1000000J0D01*
G01*
X154109999Y-140210000D02*
G75*
G03*
X152109999Y-140210000I-1000000J0D01*
G01*
X97852601Y-38369999D02*
G75*
G03*
X98852601Y-39369999I999999J-1D01*
G01*
X130562600Y-54270000D02*
X134912601Y-54270000D01*
X141760000Y-190410001D02*
G75*
G03*
X143760000Y-190410001I1000000J0D01*
G01*
X80220000Y-192000000D02*
G75*
G03*
X78220000Y-192000000I-1000000J0D01*
G01*
X110762599Y-86210000D02*
X121752600Y-86210000D01*
X55712601Y-54270000D02*
G75*
G03*
X58252601Y-51730000I-1J2540001D01*
G01*
X139180000Y-171850001D02*
G75*
G03*
X141720000Y-169310001I-1J2540001D01*
G01*
X43200000Y-151170000D02*
G75*
G03*
X40660000Y-153710000I1J-2540001D01*
G01*
X161729998Y-131750001D02*
G75*
G03*
X159220000Y-129210000I-2540181J-1D01*
G01*
X146299999Y-198710002D02*
X159000000Y-198710003D01*
X126292600Y-106210000D02*
X126292600Y-124670000D01*
X153292600Y-86570000D02*
X159312600Y-86570000D01*
X90960000Y-184190000D02*
G75*
G03*
X90960000Y-186190000I0J-1000000D01*
G01*
X124292600Y-106210000D02*
X124292600Y-119230000D01*
X152292600Y-85570000D02*
X152272601Y-82229999D01*
X126709999Y-129210001D02*
G75*
G03*
X124169999Y-131750001I1J-2540001D01*
G01*
X95312601Y-26329998D02*
X82612600Y-26329999D01*
X139180000Y-184010001D02*
G75*
G03*
X141720000Y-181470001I-1J2540001D01*
G01*
X51362600Y-54270000D02*
X55712601Y-54270000D01*
X80072600Y-42369999D02*
X80072600Y-51729999D01*
X148752601Y-58369999D02*
X141992601Y-58369999D01*
X139452601Y-71369999D02*
X139452601Y-78689999D01*
X161540000Y-196170003D02*
X161540000Y-188550001D01*
X51460000Y-186190000D02*
X55900000Y-186190000D01*
X59252601Y-71309999D02*
G75*
G03*
X58252601Y-72309999I-1J-999999D01*
G01*
X126292600Y-106210000D02*
G75*
G03*
X124292600Y-106210000I-1000000J0D01*
G01*
X143759999Y-188550002D02*
X143760000Y-190410001D01*
X155220000Y-129210000D02*
G75*
G03*
X155220000Y-127210000I0J1000000D01*
G01*
X135693948Y-159690001D02*
G75*
G03*
X135693948Y-161690001I0J-1000000D01*
G01*
X137452601Y-38369999D02*
G75*
G03*
X139452601Y-38369999I1000000J0D01*
G01*
X139220000Y-186010001D02*
X135720000Y-186010001D01*
X155220000Y-129210000D02*
G75*
G03*
X154109998Y-131750000I2351122J-2540001D01*
G01*
X119220000Y-126310000D02*
G75*
G03*
X116680000Y-123770000I-2540001J-1D01*
G01*
X51220000Y-149170000D02*
G75*
G03*
X51220000Y-151170000I0J-1000000D01*
G01*
X123940000Y-169310001D02*
G75*
G03*
X126480000Y-171850001I2540001J1D01*
G01*
X82612600Y-56269999D02*
G75*
G03*
X80072600Y-58809999I1J-2540001D01*
G01*
X79072600Y-39369999D02*
G75*
G03*
X80072600Y-38369999I1J999999D01*
G01*
X120220000Y-138210000D02*
G75*
G03*
X119220000Y-139210000I-1J-999999D01*
G01*
X141992601Y-58369999D02*
G75*
G03*
X139452601Y-60909999I1J-2540001D01*
G01*
X43200000Y-184190000D02*
X47460000Y-184190000D01*
X43012600Y-56269999D02*
G75*
G03*
X40472600Y-58809999I1J-2540001D01*
G01*
X134912601Y-56269998D02*
X130562600Y-56269998D01*
X47220000Y-151170000D02*
G75*
G03*
X47220000Y-149170000I0J1000000D01*
G01*
X137452601Y-58809998D02*
G75*
G03*
X134912601Y-56269998I-2540001J-1D01*
G01*
X97852601Y-81670000D02*
X97852601Y-72309999D01*
X117652601Y-68309999D02*
X117652601Y-58809998D01*
X80220001Y-192000000D02*
G75*
G03*
X82760000Y-193810000I2539999J877209D01*
G01*
X55712601Y-56269998D02*
X51362600Y-56269998D01*
X70162600Y-55269998D02*
G75*
G03*
X71162600Y-56269998I999999J-1D01*
G01*
X123940000Y-180850001D02*
X123940000Y-181470001D01*
X151720000Y-186010001D02*
X146299999Y-186010002D01*
X154913948Y-173850001D02*
X158959999Y-173850001D01*
X40480000Y-146630000D02*
G75*
G03*
X43020000Y-149170000I2540001J1D01*
G01*
X95312601Y-56269998D02*
X90962600Y-56269998D01*
X60272599Y-81670000D02*
G75*
G03*
X62812599Y-84210000I2540001J1D01*
G01*
X123979999Y-192170002D02*
G75*
G03*
X122979999Y-191170002I-999999J1D01*
G01*
X130913948Y-173850001D02*
G75*
G03*
X130913948Y-171850001I0J1000000D01*
G01*
X97852601Y-68309999D02*
G75*
G03*
X98852601Y-69309999I999999J-1D01*
G01*
X159772601Y-49230002D02*
G75*
G03*
X162312601Y-46690002I-1J2540001D01*
G01*
X151752601Y-57369999D02*
X151752601Y-50230002D01*
X47292600Y-123770000D02*
G75*
G03*
X47292600Y-121770000I0J1000000D01*
G01*
X119672599Y-81670000D02*
G75*
G03*
X122212599Y-84210000I2540001J1D01*
G01*
X151752601Y-57369999D02*
G75*
G03*
X152752601Y-58369999I999999J-1D01*
G01*
X121940000Y-164750001D02*
G75*
G03*
X123940000Y-164750001I1000000J0D01*
G01*
X159772601Y-81229999D02*
G75*
G03*
X162312601Y-78689999I-1J2540001D01*
G01*
X130562600Y-54270000D02*
G75*
G03*
X129562600Y-55270000I-1J-999999D01*
G01*
X71162600Y-84210000D02*
G75*
G03*
X70162600Y-85210000I-1J-999999D01*
G01*
X62812599Y-54270000D02*
X67162600Y-54270000D01*
X139220000Y-198710003D02*
G75*
G03*
X141760000Y-196170003I-1J2540001D01*
G01*
X158960000Y-184010001D02*
G75*
G03*
X161500000Y-181470001I-1J2540001D01*
G01*
X80072600Y-42369999D02*
G75*
G03*
X79072600Y-41369999I-999999J1D01*
G01*
X60272599Y-51730000D02*
G75*
G03*
X62812599Y-54270000I2540001J1D01*
G01*
X153272601Y-81229999D02*
G75*
G03*
X152272601Y-82229999I-1J-999999D01*
G01*
X40660000Y-153710000D02*
X40660000Y-181650000D01*
X117652601Y-58809998D02*
G75*
G03*
X115112601Y-56269998I-2540001J-1D01*
G01*
X141720000Y-177010001D02*
G75*
G03*
X143720000Y-177010001I1000000J0D01*
G01*
X119672600Y-38369999D02*
X119672600Y-28869999D01*
X80072600Y-68309999D02*
X80072600Y-58809999D01*
X100000000Y-192000000D02*
G75*
G03*
X98000000Y-192000000I-1000000J0D01*
G01*
X124292600Y-88750000D02*
X124292600Y-102210000D01*
X48362600Y-55270000D02*
G75*
G03*
X47362600Y-54270000I-999999J1D01*
G01*
X55900000Y-193810001D02*
G75*
G03*
X58440000Y-192000000I0J2687210D01*
G01*
X108292600Y-123770000D02*
G75*
G03*
X108292600Y-121770000I0J1000000D01*
G01*
X98872600Y-39369999D02*
G75*
G03*
X99872600Y-38369999I1J999999D01*
G01*
X47362600Y-56269998D02*
G75*
G03*
X48362600Y-55269998I1J999999D01*
G01*
X150913948Y-173850001D02*
X146260000Y-173850001D01*
X121940000Y-153710000D02*
G75*
G03*
X120220000Y-151170000I-2735468J-2D01*
G01*
X58252601Y-38369999D02*
G75*
G03*
X59252601Y-39369999I999999J-1D01*
G01*
X43012600Y-26329999D02*
G75*
G03*
X40472600Y-28869999I1J-2540001D01*
G01*
X119672600Y-72309999D02*
X119672600Y-81669999D01*
X95312601Y-84210000D02*
G75*
G03*
X97852601Y-81670000I-1J2540001D01*
G01*
X145693948Y-161690001D02*
G75*
G03*
X145693948Y-159690001I0J1000000D01*
G01*
X123940000Y-164230001D02*
X123940000Y-164750001D01*
X139452600Y-46690003D02*
G75*
G03*
X141992600Y-49230003I2540001J1D01*
G01*
X58252601Y-38369999D02*
X58252601Y-28869998D01*
X75680000Y-193810001D02*
G75*
G03*
X78220000Y-192000000I0J2687210D01*
G01*
X47292600Y-121770000D02*
X43012600Y-121770000D01*
X99872600Y-42369999D02*
G75*
G03*
X98872600Y-41369999I-999999J1D01*
G01*
X78220000Y-188000000D02*
G75*
G03*
X80220000Y-188000000I1000000J0D01*
G01*
X71162600Y-54270000D02*
G75*
G03*
X70162600Y-55270000I-1J-999999D01*
G01*
X135720000Y-184010001D02*
X139180000Y-184010001D01*
X155220000Y-127210000D02*
X146072600Y-127210000D01*
X80072600Y-38369999D02*
X80072600Y-28869999D01*
X60272600Y-42369999D02*
X60272600Y-51729999D01*
X152109999Y-136210000D02*
X152109999Y-131750000D01*
X152292600Y-85570000D02*
G75*
G03*
X153292600Y-86570000I999999J-1D01*
G01*
X82760000Y-193810000D02*
X95460000Y-193810000D01*
X152752601Y-49230002D02*
G75*
G03*
X151752601Y-50230002I-1J-999999D01*
G01*
X159312600Y-127210000D02*
G75*
G03*
X161852600Y-124670000I-1J2540001D01*
G01*
X162312601Y-60909999D02*
G75*
G03*
X159772601Y-58369999I-2540001J-1D01*
G01*
X86960000Y-186190000D02*
G75*
G03*
X86960000Y-184190000I0J1000000D01*
G01*
X47460000Y-186190000D02*
X43200000Y-186190000D01*
X143720000Y-176390001D02*
X143720000Y-177010001D01*
X161852600Y-89110000D02*
G75*
G03*
X159312600Y-86570000I-2540001J-1D01*
G01*
X122212599Y-84210000D02*
X134912601Y-84210000D01*
X90960000Y-184190000D02*
X107000000Y-184190000D01*
X80072600Y-72309999D02*
G75*
G03*
X79072600Y-71309999I-999999J1D01*
G01*
X79052601Y-41369999D02*
G75*
G03*
X78052601Y-42369999I-1J-999999D01*
G01*
X99872599Y-81670000D02*
G75*
G03*
X102412599Y-84210000I2540001J1D01*
G01*
X40472600Y-119230000D02*
G75*
G03*
X43012600Y-121770000I2540001J1D01*
G01*
X99872600Y-38369999D02*
X99872600Y-28869999D01*
X75512601Y-56269998D02*
X71162600Y-56269998D01*
X102412600Y-56269999D02*
G75*
G03*
X99872600Y-58809999I1J-2540001D01*
G01*
X51460000Y-184190000D02*
X67260000Y-184190000D01*
X126562600Y-56269998D02*
G75*
G03*
X127562600Y-55269998I1J999999D01*
G01*
X139452601Y-71369999D02*
G75*
G03*
X137452601Y-71369999I-1000000J0D01*
G01*
X40472599Y-81670000D02*
G75*
G03*
X43012599Y-84210000I2540001J1D01*
G01*
X97852601Y-28869998D02*
G75*
G03*
X95312601Y-26329998I-2540001J-1D01*
G01*
X102540000Y-193810001D02*
X115240001Y-193810000D01*
X55712601Y-84210000D02*
G75*
G03*
X58252601Y-81670000I-1J2540001D01*
G01*
X78220000Y-188000000D02*
G75*
G03*
X75680000Y-186190000I-2540004J-877216D01*
G01*
X121752600Y-121770000D02*
G75*
G03*
X124292600Y-119230000I-1J2540001D01*
G01*
X51460000Y-184190000D02*
G75*
G03*
X51460000Y-186190000I0J-1000000D01*
G01*
X154913948Y-171850001D02*
G75*
G03*
X154913948Y-173850001I0J-1000000D01*
G01*
X152752601Y-58369999D02*
X159772601Y-58369999D01*
X137452601Y-67369999D02*
X137452601Y-58809998D01*
X123940000Y-168750001D02*
X123940000Y-169310001D01*
X162312601Y-28910002D02*
G75*
G03*
X159772601Y-26370002I-2540001J-1D01*
G01*
X161500000Y-169310001D02*
X161500000Y-164230001D01*
X117652601Y-38369999D02*
G75*
G03*
X118652601Y-39369999I999999J-1D01*
G01*
X71260000Y-184190000D02*
G75*
G03*
X71260000Y-186190000I0J-1000000D01*
G01*
X121940000Y-164750001D02*
X121940000Y-153710000D01*
X48362600Y-85210000D02*
G75*
G03*
X47362600Y-84210000I-999999J1D01*
G01*
X131720000Y-186010001D02*
X126519999Y-186010002D01*
X59252601Y-41369999D02*
G75*
G03*
X58252601Y-42369999I-1J-999999D01*
G01*
X152110000Y-157150002D02*
X152109999Y-140210000D01*
X102412600Y-26329999D02*
G75*
G03*
X99872600Y-28869999I1J-2540001D01*
G01*
X161500000Y-164230000D02*
G75*
G03*
X158960000Y-161690000I-2540001J-1D01*
G01*
X117652601Y-38369999D02*
X117652601Y-28869998D01*
X40472599Y-51730000D02*
X40472600Y-28869999D01*
X70162598Y-85210000D02*
G75*
G03*
X71162599Y-86210000I1000001J1D01*
G01*
X51220000Y-151170000D02*
X81299745Y-151166815D01*
X50362600Y-55269998D02*
G75*
G03*
X51362600Y-56269998I999999J-1D01*
G01*
X82612600Y-26329999D02*
G75*
G03*
X80072600Y-28869999I1J-2540001D01*
G01*
X141720000Y-177010001D02*
X141720000Y-176390001D01*
X161500000Y-181470001D02*
X161500000Y-176390001D01*
X161499999Y-176390001D02*
G75*
G03*
X158959999Y-173850001I-2540001J-1D01*
G01*
X149570000Y-159690002D02*
G75*
G03*
X149693948Y-161690001I123947J-996159D01*
G01*
X134913948Y-171850001D02*
G75*
G03*
X134913948Y-173850001I0J-1000000D01*
G01*
X47362600Y-86209998D02*
G75*
G03*
X48362600Y-85210000I1J999999D01*
G01*
X156649999Y-146990001D02*
X159189999Y-146990001D01*
X126480000Y-184010001D02*
X131720000Y-184010001D01*
X43200000Y-193810000D02*
X55900000Y-193810000D01*
X67260000Y-186190000D02*
X62980000Y-186190000D01*
X118652601Y-41369999D02*
G75*
G03*
X117652601Y-42369999I-1J-999999D01*
G01*
X85220000Y-149170000D02*
X108220000Y-149170000D01*
X143760000Y-194410001D02*
X143759999Y-196170002D01*
X98872600Y-69309999D02*
G75*
G03*
X99872600Y-68309999I1J999999D01*
G01*
X126709999Y-159690001D02*
X131693948Y-159690001D01*
X117652601Y-68309999D02*
G75*
G03*
X118652601Y-69309999I999999J-1D01*
G01*
X47292600Y-123770000D02*
X43020000Y-123770000D01*
X75512601Y-84210000D02*
G75*
G03*
X78052601Y-81670000I-1J2540001D01*
G01*
X118780001Y-191000000D02*
G75*
G03*
X117780001Y-192000000I-1J-999999D01*
G01*
X81292600Y-123770000D02*
G75*
G03*
X81292600Y-121770000I0J1000000D01*
G01*
X90960000Y-186190000D02*
X95460000Y-186190000D01*
X141720000Y-164230001D02*
G75*
G03*
X139180000Y-161690001I-2540001J-1D01*
G01*
X139179999Y-173850001D02*
X134913948Y-173850001D01*
X158960000Y-171850002D02*
G75*
G03*
X161500000Y-169310002I-1J2540001D01*
G01*
X141719999Y-176390001D02*
G75*
G03*
X139179999Y-173850001I-2540001J-1D01*
G01*
X108220000Y-151170000D02*
X85220000Y-151170000D01*
X137452601Y-71369999D02*
X137452601Y-81670000D01*
X119672600Y-42369999D02*
X119672600Y-51729999D01*
X78052601Y-81670000D02*
X78052601Y-72309999D01*
X153272601Y-81229999D02*
X159772601Y-81229999D01*
X106762600Y-86209998D02*
G75*
G03*
X107762600Y-85210000I1J999999D01*
G01*
X143720000Y-168690001D02*
X143720000Y-169310001D01*
X98000000Y-188000000D02*
G75*
G03*
X95460000Y-186190000I-2540004J-877216D01*
G01*
X142072600Y-129210000D02*
X126709999Y-129210001D01*
X146260000Y-184010001D02*
X151720000Y-184010001D01*
X149752601Y-50230002D02*
X149752601Y-57369999D01*
X87962600Y-55270000D02*
G75*
G03*
X86962600Y-54270000I-999999J1D01*
G01*
X112220000Y-149170000D02*
X116680000Y-149170000D01*
X118672600Y-39369999D02*
G75*
G03*
X119672600Y-38369999I1J999999D01*
G01*
X159189999Y-146990001D02*
G75*
G03*
X161729999Y-144450001I-1J2540001D01*
G01*
X67162600Y-86209998D02*
G75*
G03*
X68162600Y-85210000I1J999999D01*
G01*
X126292600Y-124670000D02*
G75*
G03*
X128832600Y-127210000I2540001J1D01*
G01*
X67260000Y-186190000D02*
G75*
G03*
X67260000Y-184190000I0J1000000D01*
G01*
X58440000Y-188000000D02*
G75*
G03*
X60440000Y-188000000I1000000J0D01*
G01*
X55712601Y-26329998D02*
X43012600Y-26329999D01*
X79052601Y-71309999D02*
G75*
G03*
X78052601Y-72309999I-1J-999999D01*
G01*
X119672599Y-51730000D02*
G75*
G03*
X122212599Y-54270000I2540001J1D01*
G01*
X112292600Y-121770000D02*
X121752600Y-121770000D01*
X82612599Y-54270000D02*
X86962600Y-54270000D01*
X98852601Y-71309999D02*
G75*
G03*
X97852601Y-72309999I-1J-999999D01*
G01*
X71162600Y-84210000D02*
X75512601Y-84210000D01*
X112220000Y-151170000D02*
X120220000Y-151170000D01*
X71162599Y-86210000D02*
X86962600Y-86209998D01*
X115240001Y-186190000D02*
X111000000Y-186190000D01*
X143720000Y-181470001D02*
G75*
G03*
X146260000Y-184010001I2540001J1D01*
G01*
X106762600Y-56269998D02*
G75*
G03*
X107762600Y-55269998I1J999999D01*
G01*
X161852600Y-124670000D02*
X161852600Y-89110000D01*
X117652601Y-51730000D02*
X117652601Y-42369999D01*
X59272600Y-39369999D02*
G75*
G03*
X60272600Y-38369999I1J999999D01*
G01*
X122979999Y-189170002D02*
G75*
G03*
X123979999Y-188170002I1J999999D01*
G01*
X116680000Y-149170000D02*
G75*
G03*
X119220000Y-146630000I-1J2540001D01*
G01*
X78052601Y-68309999D02*
G75*
G03*
X79052601Y-69309999I999999J-1D01*
G01*
X62812599Y-84210000D02*
X67162600Y-84210000D01*
X135693948Y-159690001D02*
X145693948Y-159690001D01*
X62980000Y-193810000D02*
X75680000Y-193810000D01*
X141760000Y-188550001D02*
G75*
G03*
X139220000Y-186010001I-2540001J-1D01*
G01*
X86962600Y-56269998D02*
X82612600Y-56269999D01*
X67162600Y-56269998D02*
G75*
G03*
X68162600Y-55269998I1J999999D01*
G01*
X58252601Y-68309999D02*
X58252601Y-58809998D01*
X119400000Y-184190000D02*
G75*
G03*
X121940000Y-181650000I-1J2540001D01*
G01*
X119220000Y-135210000D02*
G75*
G03*
X120220000Y-136210000I999999J-1D01*
G01*
X115112601Y-84210000D02*
G75*
G03*
X117652601Y-81670000I-1J2540001D01*
G01*
X149292600Y-86570000D02*
G75*
G03*
X150292600Y-85570000I1J999999D01*
G01*
X78052601Y-38369999D02*
X78052601Y-28869998D01*
X121940000Y-176850001D02*
X121940000Y-168750001D01*
X115112601Y-26329998D02*
X102412600Y-26329999D01*
X122979999Y-189170002D02*
X118780001Y-189000000D01*
X127562600Y-55270000D02*
G75*
G03*
X126562600Y-54270000I-999999J1D01*
G01*
X40660000Y-191270000D02*
G75*
G03*
X43200000Y-193810000I2540001J1D01*
G01*
X162312601Y-46690002D02*
X162312601Y-28910002D01*
X134912601Y-26329998D02*
X122212600Y-26329999D01*
X141760000Y-190410001D02*
X141760000Y-188550001D01*
X141992601Y-26370002D02*
G75*
G03*
X139452601Y-28910002I1J-2540001D01*
G01*
X47362600Y-56269998D02*
X43012600Y-56269999D01*
X134912601Y-84210000D02*
G75*
G03*
X137452601Y-81670000I-1J2540001D01*
G01*
X134913948Y-171850001D02*
X139180000Y-171850001D01*
X143720000Y-181010001D02*
G75*
G03*
X141720000Y-181010001I-1000000J0D01*
G01*
X119672600Y-42369999D02*
G75*
G03*
X118672600Y-41369999I-999999J1D01*
G01*
X158960000Y-161690001D02*
X149693948Y-161690001D01*
X99872600Y-72309999D02*
X99872600Y-81669999D01*
X111000000Y-184190000D02*
X119400000Y-184190000D01*
X117780001Y-188000000D02*
G75*
G03*
X115240001Y-186190000I-2540004J-877216D01*
G01*
X141720000Y-164690001D02*
X141720000Y-164230001D01*
X117652601Y-81670000D02*
X117652601Y-72309999D01*
X75512601Y-54270000D02*
G75*
G03*
X78052601Y-51730000I-1J2540001D01*
G01*
X51292600Y-123770000D02*
X81292600Y-123770000D01*
X139452601Y-42369999D02*
X139452600Y-46690003D01*
X40472600Y-119230000D02*
X40472600Y-88750000D01*
X58252601Y-81670000D02*
X58252601Y-72309999D01*
X60272600Y-72309999D02*
G75*
G03*
X59272600Y-71309999I-999999J1D01*
G01*
X129562600Y-55269998D02*
G75*
G03*
X130562600Y-56269998I999999J-1D01*
G01*
X107762600Y-85210000D02*
G75*
G03*
X106762600Y-84210000I-999999J1D01*
G01*
X102412599Y-54270000D02*
X106762600Y-54270000D01*
X97852601Y-38369999D02*
X97852601Y-28869998D01*
X78052601Y-38369999D02*
G75*
G03*
X79052601Y-39369999I999999J-1D01*
G01*
X60440000Y-192000000D02*
G75*
G03*
X58440000Y-192000000I-1000000J0D01*
G01*
X100000000Y-192000000D02*
G75*
G03*
X102540000Y-193810001I2539998J877205D01*
G01*
X102540001Y-186190000D02*
G75*
G03*
X100000000Y-188000000I0J-2687212D01*
G01*
X122212599Y-54270000D02*
X126562600Y-54270000D01*
X154109999Y-140210000D02*
X154109999Y-144450001D01*
X152109999Y-136210000D02*
G75*
G03*
X154109999Y-136210000I1000000J0D01*
G01*
X40660000Y-188730000D02*
X40660000Y-191270000D01*
X89962598Y-85210000D02*
G75*
G03*
X90962599Y-86210000I1000001J1D01*
G01*
X99872600Y-42369999D02*
X99872600Y-51729999D01*
X95460000Y-193810001D02*
G75*
G03*
X98000000Y-192000000I0J2687210D01*
G01*
X155720000Y-186010001D02*
X159000000Y-186010001D01*
X60272600Y-72309999D02*
X60272600Y-81669999D01*
X43012600Y-86210000D02*
G75*
G03*
X40472600Y-88750000I1J-2540001D01*
G01*
X110762600Y-54270000D02*
G75*
G03*
X109762600Y-55270000I-1J-999999D01*
G01*
X95312601Y-54270000D02*
G75*
G03*
X97852601Y-51730000I-1J2540001D01*
G01*
X137452601Y-67369999D02*
G75*
G03*
X139452601Y-67369999I1000000J0D01*
G01*
X137452601Y-28869998D02*
G75*
G03*
X134912601Y-26329998I-2540001J-1D01*
G01*
X90962600Y-54270000D02*
G75*
G03*
X89962600Y-55270000I-1J-999999D01*
G01*
X122212600Y-26329999D02*
G75*
G03*
X119672600Y-28869999I1J-2540001D01*
G01*
X139452601Y-42369999D02*
G75*
G03*
X137452601Y-42369999I-1000000J0D01*
G01*
X137452601Y-38369999D02*
X137452601Y-28869998D01*
X126480000Y-171850001D02*
X130913948Y-171850001D01*
X90962600Y-84210000D02*
X95312601Y-84210000D01*
X86962600Y-56269998D02*
G75*
G03*
X87962600Y-55269998I1J999999D01*
G01*
X50362598Y-85210000D02*
G75*
G03*
X51362599Y-86210000I1000001J1D01*
G01*
X124292600Y-102210000D02*
G75*
G03*
X126292600Y-102210000I1000000J0D01*
G01*
X119220000Y-146630000D02*
X119220000Y-139210000D01*
X118780001Y-191000000D02*
X122979999Y-191170002D01*
X78052601Y-68309999D02*
X78052601Y-58809998D01*
X68162600Y-85210000D02*
G75*
G03*
X67162600Y-84210000I-999999J1D01*
G01*
X149292600Y-86570000D02*
X128832600Y-86570000D01*
X126480000Y-173850001D02*
G75*
G03*
X123940000Y-176390001I1J-2540001D01*
G01*
X99872600Y-68309999D02*
X99872600Y-58809999D01*
X47220000Y-151170000D02*
X43200000Y-151170000D01*
X154109999Y-144450001D02*
G75*
G03*
X156649999Y-146990001I2540001J1D01*
G01*
X78052601Y-58809998D02*
G75*
G03*
X75512601Y-56269998I-2540001J-1D01*
G01*
X123979999Y-196170002D02*
G75*
G03*
X126519999Y-198710002I2540001J1D01*
G01*
X150272601Y-82229999D02*
G75*
G03*
X149272601Y-81229999I-999999J1D01*
G01*
X102412599Y-84210000D02*
X106762600Y-84210000D01*
X109762600Y-55269998D02*
G75*
G03*
X110762600Y-56269998I999999J-1D01*
G01*
X40480000Y-126310000D02*
X40480000Y-146630000D01*
X149752601Y-50230002D02*
G75*
G03*
X148752601Y-49230002I-999999J1D01*
G01*
X51292600Y-121770000D02*
G75*
G03*
X51292600Y-123770000I0J-1000000D01*
G01*
X142072600Y-129210000D02*
G75*
G03*
X142072600Y-127210000I0J1000000D01*
G01*
X80072600Y-72309999D02*
X80072600Y-81669999D01*
X143720000Y-168690001D02*
G75*
G03*
X141720000Y-168690001I-1000000J0D01*
G01*
X98000000Y-188000000D02*
G75*
G03*
X100000000Y-188000000I1000000J0D01*
G01*
X43012600Y-86210000D02*
X47362600Y-86209998D01*
X85292600Y-123770000D02*
X108292600Y-123770000D01*
X43012599Y-84210000D02*
X47362600Y-84210000D01*
X159772601Y-26370002D02*
X141992601Y-26370002D01*
X124169999Y-139210000D02*
G75*
G03*
X123169999Y-138210000I-999999J1D01*
G01*
X47460000Y-186190000D02*
G75*
G03*
X47460000Y-184190000I0J1000000D01*
G01*
X143720000Y-169310002D02*
G75*
G03*
X146260000Y-171850002I2540001J1D01*
G01*
X131720000Y-186010001D02*
G75*
G03*
X131720000Y-184010001I0J1000000D01*
G01*
X43020000Y-123770000D02*
G75*
G03*
X40480000Y-126310000I1J-2540001D01*
G01*
X97852601Y-58809998D02*
G75*
G03*
X95312601Y-56269998I-2540001J-1D01*
G01*
X122212600Y-56269999D02*
G75*
G03*
X119672600Y-58809999I1J-2540001D01*
G01*
X161540000Y-188550001D02*
G75*
G03*
X159000000Y-186010001I-2540001J-1D01*
G01*
X51362599Y-86210000D02*
X67162600Y-86209998D01*
X51362600Y-54270000D02*
G75*
G03*
X50362600Y-55270000I-1J-999999D01*
G01*
X149570000Y-159690002D02*
G75*
G03*
X152110000Y-157150002I-1J2540001D01*
G01*
X161729999Y-144450001D02*
X161729999Y-131750001D01*
X40660000Y-181650000D02*
G75*
G03*
X43200000Y-184190000I2540001J1D01*
G01*
X124292600Y-88750000D02*
G75*
G03*
X121752600Y-86210000I-2540001J-1D01*
G01*
X110762600Y-84210000D02*
G75*
G03*
X109762600Y-85210000I-1J-999999D01*
G01*
X143720000Y-181010001D02*
X143720000Y-181470001D01*
X119672600Y-68309999D02*
X119672600Y-58809999D01*
X134912601Y-54270000D02*
G75*
G03*
X137452601Y-51730000I-1J2540001D01*
G01*
X126480000Y-161690001D02*
G75*
G03*
X123940000Y-164230001I1J-2540001D01*
G01*
X90962599Y-86210000D02*
X106762600Y-86209998D01*
X81299745Y-151166815D02*
G75*
G03*
X81220000Y-149170000I-79744J996815D01*
G01*
X123979999Y-192170002D02*
X123979999Y-196170002D01*
X124169999Y-139210000D02*
X124169999Y-157150001D01*
X152752601Y-49230002D02*
X159772601Y-49230002D01*
X141760000Y-196170003D02*
X141760000Y-194410001D01*
X85220000Y-149170000D02*
G75*
G03*
X85220000Y-151170000I0J-1000000D01*
G01*
X130913948Y-173850001D02*
X126480000Y-173850001D01*
X115112601Y-54270000D02*
G75*
G03*
X117652601Y-51730000I-1J2540001D01*
G01*
X123940000Y-176850001D02*
X123940000Y-176390001D01*
X90962600Y-54270000D02*
X95312601Y-54270000D01*
X121940000Y-176850001D02*
G75*
G03*
X123940000Y-176850001I1000000J0D01*
G01*
X80072599Y-51730000D02*
G75*
G03*
X82612599Y-54270000I2540001J1D01*
G01*
X118672600Y-69309999D02*
G75*
G03*
X119672600Y-68309999I1J999999D01*
G01*
X123940000Y-168750001D02*
G75*
G03*
X121940000Y-168750001I-1000000J0D01*
G01*
X115240001Y-193810001D02*
G75*
G03*
X117780001Y-192000000I0J2687210D01*
G01*
X162312601Y-78689999D02*
X162312601Y-60909999D01*
X119672600Y-72309999D02*
G75*
G03*
X118672600Y-71309999I-999999J1D01*
G01*
X120220000Y-136210000D02*
X123169999Y-136210000D01*
X145693948Y-161690002D02*
G75*
G03*
X143720000Y-164230001I647212J-2539999D01*
G01*
X90962600Y-84210000D02*
G75*
G03*
X89962600Y-85210000I-1J-999999D01*
G01*
X123940000Y-181470001D02*
G75*
G03*
X126480000Y-184010001I2540001J1D01*
G01*
X128832600Y-127210000D02*
X142072600Y-127210000D01*
X71260000Y-184190000D02*
X86960000Y-184190000D01*
X110762600Y-54270000D02*
X115112601Y-54270000D01*
X159000000Y-198710003D02*
G75*
G03*
X161540000Y-196170003I-1J2540001D01*
G01*
X58252601Y-51730000D02*
X58252601Y-42369999D01*
X146299999Y-186010002D02*
G75*
G03*
X143759999Y-188550002I1J-2540001D01*
G01*
X155720000Y-184010001D02*
G75*
G03*
X155720000Y-186010001I0J-1000000D01*
G01*
X159312206Y-127214260D02*
G75*
G03*
X159220000Y-129210000I-92206J-995740D01*
G01*
X107762600Y-55270000D02*
G75*
G03*
X106762600Y-54270000I-999999J1D01*
G01*
X97852601Y-68309999D02*
X97852601Y-58809998D01*
X119220000Y-135210000D02*
X119220000Y-126310000D01*
X51292600Y-121770000D02*
X81292600Y-121770000D01*
X68162600Y-55270000D02*
G75*
G03*
X67162600Y-54270000I-999999J1D01*
G01*
X131693948Y-161690001D02*
G75*
G03*
X131693948Y-159690001I0J1000000D01*
G01*
X40472599Y-51730000D02*
G75*
G03*
X43012599Y-54270000I2540001J1D01*
G01*
X85292600Y-121770000D02*
G75*
G03*
X85292600Y-123770000I0J-1000000D01*
G01*
X123169999Y-136210000D02*
G75*
G03*
X124169999Y-135210000I1J999999D01*
G01*
X82612599Y-84210000D02*
X86962600Y-84210000D01*
X141992600Y-49230003D02*
X148752601Y-49230002D01*
X51220000Y-149170000D02*
X81220000Y-149170000D01*
X158960000Y-184010001D02*
X155720000Y-184010001D01*
X150913948Y-173850001D02*
G75*
G03*
X150913948Y-171850001I0J1000000D01*
G01*
X141992601Y-81229999D02*
X149272601Y-81229999D01*
X146260000Y-173850001D02*
G75*
G03*
X143720000Y-176390001I1J-2540001D01*
G01*
X141720000Y-169310001D02*
X141720000Y-168690001D01*
X112220000Y-149170000D02*
G75*
G03*
X112220000Y-151170000I0J-1000000D01*
G01*
X135693948Y-161690001D02*
X139180000Y-161690001D01*
X143720000Y-164690001D02*
X143720000Y-164230001D01*
X86960000Y-186190000D02*
X82760000Y-186190000D01*
X58252601Y-68309999D02*
G75*
G03*
X59252601Y-69309999I999999J-1D01*
G01*
X111000000Y-184190000D02*
G75*
G03*
X111000000Y-186190000I0J-1000000D01*
G01*
X139452601Y-78689999D02*
G75*
G03*
X141992601Y-81229999I2540001J1D01*
G01*
X126292600Y-89110000D02*
X126292600Y-102210000D01*
X137452601Y-51730000D02*
X137452601Y-42369999D01*
X148752601Y-58369999D02*
G75*
G03*
X149752601Y-57369999I1J999999D01*
G01*
X99872599Y-51730000D02*
G75*
G03*
X102412599Y-54270000I2540001J1D01*
G01*
X154109998Y-131750000D02*
X154109999Y-136210000D01*
X75512601Y-26329998D02*
X62812600Y-26329999D01*
M02*
