M48
INCH,TZ
T1C0.0157
T2C0.0236
T3C0.0394
T4C0.0579
T5C0.0787
%
G90
G05
T1
X31882Y-53728
X57322Y-38665
X57519Y-39059
X57716Y-40083
X57913Y-41106
X58109Y-42091
X58306Y-43075
X58503Y-44098
X58700Y-45043
X59935Y-46105
X60721Y-36083
X61298Y-47065
T3
X16934Y-11366
X16934Y-12366
X16934Y-13366
X16934Y-14366
X16934Y-15366
X16934Y-16366
X16934Y-17366
X16934Y-18366
X16934Y-19366
X16934Y-20366
X16934Y-23154
X16934Y-24154
X16934Y-25154
X16934Y-26154
X16934Y-27154
X16934Y-28154
X16934Y-29154
X16934Y-30154
X16934Y-31154
X16934Y-32154
X16934Y-34941
X16934Y-46941
X16937Y-49728
X16937Y-57728
X17008Y-60516
X17008Y-71516
X17008Y-74303
X17008Y-75303
X17934Y-34941
X17934Y-46941
X17937Y-49728
X17937Y-57728
X18008Y-60516
X18008Y-71516
X18934Y-34941
X18934Y-46941
X18937Y-49728
X18937Y-57728
X19934Y-34941
X19934Y-46941
X19937Y-49728
X19937Y-57728
X20934Y-34941
X20934Y-46941
X20937Y-49728
X20937Y-57728
X21934Y-11366
X21934Y-12366
X21934Y-13366
X21934Y-14366
X21934Y-15366
X21934Y-16366
X21934Y-17366
X21934Y-18366
X21934Y-19366
X21934Y-20366
X21934Y-23154
X21934Y-24154
X21934Y-25154
X21934Y-26154
X21934Y-27154
X21934Y-28154
X21934Y-29154
X21934Y-30154
X21934Y-31154
X21934Y-32154
X21934Y-34941
X21934Y-46941
X21937Y-49728
X21937Y-57728
X22055Y-74303
X22055Y-75303
X22934Y-34941
X22934Y-46941
X22937Y-49728
X22937Y-57728
X23934Y-34941
X23934Y-46941
X23937Y-49728
X23937Y-57728
X24729Y-11366
X24729Y-12366
X24729Y-13366
X24729Y-14366
X24729Y-15366
X24729Y-16366
X24729Y-17366
X24729Y-18366
X24729Y-19366
X24729Y-20366
X24729Y-23154
X24729Y-24154
X24729Y-25154
X24729Y-26154
X24729Y-27154
X24729Y-28154
X24729Y-29154
X24729Y-30154
X24729Y-31154
X24729Y-32154
X24795Y-74303
X24795Y-75303
X24934Y-34941
X24934Y-46941
X24937Y-49728
X24937Y-57728
X25934Y-34941
X25934Y-46941
X25937Y-49728
X25937Y-57728
X26934Y-34941
X26934Y-46941
X26937Y-49728
X26937Y-57728
X27934Y-34941
X27934Y-46941
X27937Y-49728
X27937Y-57728
X28934Y-34941
X28934Y-46941
X28937Y-49728
X28937Y-57728
X29729Y-11366
X29729Y-12366
X29729Y-13366
X29729Y-14366
X29729Y-15366
X29729Y-16366
X29729Y-17366
X29729Y-18366
X29729Y-19366
X29729Y-20366
X29729Y-23154
X29729Y-24154
X29729Y-25154
X29729Y-26154
X29729Y-27154
X29729Y-28154
X29729Y-29154
X29729Y-30154
X29729Y-31154
X29729Y-32154
X29843Y-74303
X29843Y-75303
X29934Y-34941
X29934Y-46941
X29937Y-49728
X29937Y-57728
X30934Y-34941
X30934Y-46941
X30937Y-49728
X30937Y-57728
X31008Y-60516
X31008Y-71516
X31934Y-34941
X31934Y-46941
X31937Y-49728
X31937Y-57728
X32008Y-60516
X32008Y-71516
X32525Y-11366
X32525Y-12366
X32525Y-13366
X32525Y-14366
X32525Y-15366
X32525Y-16366
X32525Y-17366
X32525Y-18366
X32525Y-19366
X32525Y-20366
X32525Y-23154
X32525Y-24154
X32525Y-25154
X32525Y-26154
X32525Y-27154
X32525Y-28154
X32525Y-29154
X32525Y-30154
X32525Y-31154
X32525Y-32154
X32583Y-74303
X32583Y-75303
X32934Y-34941
X32934Y-46941
X32937Y-49728
X32937Y-57728
X33008Y-60516
X33008Y-71516
X33934Y-34941
X33934Y-46941
X33937Y-49728
X33937Y-57728
X34008Y-60516
X34008Y-71516
X34934Y-34941
X34934Y-46941
X34937Y-49728
X34937Y-57728
X35934Y-34941
X35934Y-46941
X35937Y-49728
X35937Y-57728
X36934Y-34941
X36934Y-46941
X36937Y-49728
X36937Y-57728
X37525Y-11366
X37525Y-12366
X37525Y-13366
X37525Y-14366
X37525Y-15366
X37525Y-16366
X37525Y-17366
X37525Y-18366
X37525Y-19366
X37525Y-20366
X37525Y-23154
X37525Y-24154
X37525Y-25154
X37525Y-26154
X37525Y-27154
X37525Y-28154
X37525Y-29154
X37525Y-30154
X37525Y-31154
X37525Y-32154
X37630Y-74303
X37630Y-75303
X37934Y-34941
X37934Y-46941
X37937Y-49728
X37937Y-57728
X38934Y-34941
X38934Y-46941
X38937Y-49728
X38937Y-57728
X39934Y-34941
X39934Y-46941
X39937Y-49728
X39937Y-57728
X40320Y-11366
X40320Y-12366
X40320Y-13366
X40320Y-14366
X40320Y-15366
X40320Y-16366
X40320Y-17366
X40320Y-18366
X40320Y-19366
X40320Y-20366
X40320Y-23154
X40320Y-24154
X40320Y-25154
X40320Y-26154
X40320Y-27154
X40320Y-28154
X40320Y-29154
X40320Y-30154
X40320Y-31154
X40320Y-32154
X40370Y-74303
X40370Y-75303
X40934Y-34941
X40934Y-46941
X40937Y-49728
X40937Y-57728
X41934Y-34941
X41934Y-46941
X41937Y-49728
X41937Y-57728
X42934Y-34941
X42934Y-46941
X42937Y-49728
X42937Y-57728
X43934Y-34941
X43934Y-46941
X43937Y-49728
X43937Y-57728
X44934Y-34941
X44934Y-46941
X44937Y-49728
X44937Y-57728
X45320Y-11366
X45320Y-12366
X45320Y-13366
X45320Y-14366
X45320Y-15366
X45320Y-16366
X45320Y-17366
X45320Y-18366
X45320Y-19366
X45320Y-20366
X45320Y-23154
X45320Y-24154
X45320Y-25154
X45320Y-26154
X45320Y-27154
X45320Y-28154
X45320Y-29154
X45320Y-30154
X45320Y-31154
X45320Y-32154
X45370Y-74303
X45370Y-75303
X45934Y-34941
X45934Y-46941
X45937Y-49728
X45937Y-57728
X46008Y-60539
X46008Y-71539
X46934Y-34941
X46934Y-46941
X47008Y-60539
X47008Y-71539
X47934Y-34941
X47934Y-46941
X48115Y-11366
X48115Y-12366
X48115Y-13366
X48115Y-14366
X48115Y-15366
X48115Y-16366
X48115Y-17366
X48115Y-18366
X48115Y-19366
X48115Y-20366
X48115Y-23154
X48115Y-24154
X48115Y-25154
X48115Y-26154
X48115Y-27154
X48115Y-28154
X48115Y-29154
X48115Y-30154
X48115Y-31154
X48115Y-32154
X49795Y-64657
X49795Y-65657
X49795Y-66657
X49795Y-69445
X49795Y-70445
X49795Y-71445
X49811Y-74232
X49811Y-75232
X49811Y-76232
X49811Y-77232
X49886Y-54870
X49886Y-55870
X49886Y-56870
X49886Y-57870
X49886Y-58870
X49886Y-59870
X50721Y-35083
X50721Y-36083
X50721Y-37083
X50721Y-38083
X50721Y-39083
X50721Y-40083
X50721Y-41083
X50721Y-42083
X50721Y-43083
X50721Y-44083
X50721Y-45083
X50721Y-46083
X50721Y-47083
X50721Y-48083
X50721Y-49083
X51575Y-58886
X51575Y-59870
X51575Y-60854
X51579Y-53020
X51579Y-54004
X51579Y-54988
X51795Y-64657
X51795Y-65657
X51795Y-66657
X52795Y-64657
X52795Y-65657
X52795Y-66657
X53115Y-11366
X53115Y-12366
X53115Y-13366
X53115Y-14366
X53115Y-15366
X53115Y-16366
X53115Y-17366
X53115Y-18366
X53115Y-19366
X53115Y-20366
X53115Y-23154
X53115Y-24154
X53115Y-25154
X53115Y-26154
X53115Y-27154
X53115Y-28154
X53115Y-29154
X53115Y-30154
X53115Y-31154
X53115Y-32154
X54795Y-64657
X54795Y-65657
X54795Y-66657
X54795Y-69445
X54795Y-70445
X54811Y-75232
X54811Y-76232
X55903Y-12382
X55903Y-13382
X55903Y-14382
X55903Y-15382
X55903Y-16382
X55903Y-17382
X55903Y-18382
X55903Y-23980
X55903Y-24980
X55903Y-25980
X55903Y-26980
X55903Y-27980
X55903Y-28980
X55903Y-29980
X55903Y-30980
X57283Y-58886
X57283Y-60854
X57287Y-53020
X57287Y-54988
X57583Y-69445
X57583Y-70445
X57583Y-71445
X57583Y-64657
X57583Y-65657
X57583Y-66657
X57598Y-74232
X57598Y-75232
X57598Y-76232
X57598Y-77232
X58886Y-54870
X58886Y-55870
X58886Y-56870
X58886Y-57870
X58886Y-58870
X58886Y-59870
X59583Y-64657
X59583Y-65657
X59583Y-66657
X60583Y-64657
X60583Y-65657
X60583Y-66657
X61673Y-51870
X61673Y-56870
X62583Y-69445
X62583Y-70445
X62583Y-64657
X62583Y-65657
X62583Y-66657
X62598Y-75232
X62598Y-76232
X62673Y-51870
X62673Y-56870
X62721Y-35085
X62721Y-36085
X62721Y-37085
X62721Y-38085
X62721Y-39085
X62721Y-40085
X62721Y-41085
X62721Y-42085
X62721Y-43085
X62721Y-44085
X62721Y-45085
X62721Y-46085
X62721Y-47085
X62721Y-48085
X62721Y-49085
X62903Y-12382
X62903Y-13382
X62903Y-14382
X62903Y-15382
X62903Y-16382
X62903Y-17382
X62903Y-18382
X62903Y-23980
X62903Y-24980
X62903Y-25980
X62903Y-26980
X62903Y-27980
X62903Y-28980
X62903Y-29980
X62903Y-30980
T4
X21748Y-64441
X22748Y-66941
X29346Y-64441
X30346Y-66941
X37008Y-64441
X38008Y-66941
X44543Y-64441
X45543Y-66941
T2
G00X57651Y-16860
M15
G01X57651Y-17293
M16
G05
G00X57651Y-18604
M15
G01X57651Y-18841
M16
G05
G00X61052Y-16860
M15
G01X61052Y-17293
M16
G05
G00X61052Y-18604
M15
G01X61052Y-18841
M16
G05
T5
G00X54429Y-57665
M15
G01X54626Y-57665
M16
G05
G00X54429Y-62075
M15
G01X54626Y-62075
M16
G05
G00X54433Y-51799
M15
G01X54630Y-51799
M16
G05
G00X54433Y-56209
M15
G01X54630Y-56209
M16
G05
T0
M30
