%TF.GenerationSoftware,KiCad,Pcbnew,(6.0.2)*%
%TF.CreationDate,2022-03-17T14:33:33-04:00*%
%TF.ProjectId,Panel,50616e65-6c2e-46b6-9963-61645f706362,rev?*%
%TF.SameCoordinates,Original*%
%TF.FileFunction,Soldermask,Bot*%
%TF.FilePolarity,Negative*%
%FSLAX46Y46*%
G04 Gerber Fmt 4.6, Leading zero omitted, Abs format (unit mm)*
G04 Created by KiCad (PCBNEW (6.0.2)) date 2022-03-17 14:33:33*
%MOMM*%
%LPD*%
G01*
G04 APERTURE LIST*
%ADD10C,0.500000*%
%ADD11R,1.700000X1.700000*%
%ADD12O,1.700000X1.700000*%
%ADD13C,3.987800*%
%ADD14C,2.250000*%
%ADD15R,2.000000X2.000000*%
%ADD16C,2.000000*%
%ADD17R,3.000000X2.500000*%
%ADD18C,0.650000*%
%ADD19O,1.000000X2.100000*%
%ADD20O,1.000000X1.600000*%
%ADD21C,4.500000*%
%ADD22R,1.400000X0.800000*%
G04 APERTURE END LIST*
D10*
%TO.C,mouse-bite-2mm-slot20*%
X48612600Y-54519998D03*
X49362600Y-56019998D03*
X50112600Y-56019998D03*
X50112600Y-54519998D03*
X49362600Y-54519998D03*
X48612600Y-56019998D03*
%TD*%
%TO.C,mouse-bite-2mm-slot*%
X48542600Y-122020000D03*
X50042600Y-122020000D03*
X49292600Y-123520000D03*
X49292600Y-122020000D03*
X50042600Y-123520000D03*
X48542600Y-123520000D03*
%TD*%
D11*
%TO.C,J36*%
X95312600Y-28869999D03*
D12*
X95312600Y-31409999D03*
X95312600Y-33949999D03*
X95312600Y-36489999D03*
X95312600Y-39029999D03*
X95312600Y-41569999D03*
X95312600Y-44109999D03*
X95312600Y-46649999D03*
X95312600Y-49189999D03*
X95312600Y-51729999D03*
%TD*%
D10*
%TO.C,mouse-bite-2mm-slot*%
X84042600Y-122020000D03*
X82542600Y-123520000D03*
X84042600Y-123520000D03*
X83292600Y-122020000D03*
X83292600Y-123520000D03*
X82542600Y-122020000D03*
%TD*%
%TO.C,mouse-bite-2mm-slot*%
X150542600Y-86320000D03*
X152042600Y-86320000D03*
X151292600Y-86320000D03*
%TD*%
D11*
%TO.C,J52*%
X158960000Y-178930001D03*
D12*
X158960000Y-176390001D03*
%TD*%
D11*
%TO.C,J50*%
X134912600Y-58809999D03*
D12*
X134912600Y-61349999D03*
X134912600Y-63889999D03*
X134912600Y-66429999D03*
X134912600Y-68969999D03*
X134912600Y-71509999D03*
X134912600Y-74049999D03*
X134912600Y-76589999D03*
X134912600Y-79129999D03*
X134912600Y-81669999D03*
%TD*%
D10*
%TO.C,mouse-bite-2mm-slot*%
X141970000Y-179760001D03*
X143470000Y-179010001D03*
X143470000Y-179760001D03*
X141970000Y-179010001D03*
X143470000Y-178260001D03*
X141970000Y-178260001D03*
%TD*%
D11*
%TO.C,J19*%
X115240001Y-191270000D03*
D12*
X115240001Y-188730000D03*
%TD*%
D11*
%TO.C,JOLED1*%
X128832600Y-89110000D03*
D12*
X128832600Y-91650000D03*
X128832600Y-94190000D03*
X128832600Y-96730000D03*
X128832600Y-99270000D03*
X128832600Y-101810000D03*
X128832600Y-104350000D03*
X128832600Y-106890000D03*
X128832600Y-109430000D03*
X128832600Y-111970000D03*
X128832600Y-114510000D03*
X128832600Y-117050000D03*
X128832600Y-119590000D03*
X128832600Y-122130000D03*
X128832600Y-124670000D03*
%TD*%
D11*
%TO.C,J11*%
X121752600Y-88750000D03*
D12*
X119212600Y-88750000D03*
X116672600Y-88750000D03*
X114132600Y-88750000D03*
X111592600Y-88750000D03*
X109052600Y-88750000D03*
X106512600Y-88750000D03*
X103972600Y-88750000D03*
X101432600Y-88750000D03*
X98892600Y-88750000D03*
X96352600Y-88750000D03*
X93812600Y-88750000D03*
X91272600Y-88750000D03*
X88732600Y-88750000D03*
X86192600Y-88750000D03*
X83652600Y-88750000D03*
X81112600Y-88750000D03*
X78572600Y-88750000D03*
X76032600Y-88750000D03*
X73492600Y-88750000D03*
X70952600Y-88750000D03*
X68412600Y-88750000D03*
X65872600Y-88750000D03*
X63332600Y-88750000D03*
X60792600Y-88750000D03*
X58252600Y-88750000D03*
X55712600Y-88750000D03*
X53172600Y-88750000D03*
X50632600Y-88750000D03*
X48092600Y-88750000D03*
X45552600Y-88750000D03*
X43012600Y-88750000D03*
%TD*%
D10*
%TO.C,mouse-bite-2mm-slot10*%
X98122600Y-41119999D03*
X98122600Y-39619999D03*
X99622600Y-39619999D03*
X98122600Y-40369999D03*
X99622600Y-40369999D03*
X99622600Y-41119999D03*
%TD*%
%TO.C,mouse-bite-2mm-slot36*%
X127812600Y-54519998D03*
X128562600Y-54519998D03*
X127812600Y-56019998D03*
X129312600Y-54519998D03*
X128562600Y-56019998D03*
X129312600Y-56019998D03*
%TD*%
D11*
%TO.C,J43*%
X62812600Y-58809999D03*
D12*
X62812600Y-61349999D03*
X62812600Y-63889999D03*
X62812600Y-66429999D03*
X62812600Y-68969999D03*
X62812600Y-71509999D03*
X62812600Y-74049999D03*
X62812600Y-76589999D03*
X62812600Y-79129999D03*
X62812600Y-81669999D03*
%TD*%
D10*
%TO.C,mouse-bite-2mm-slot22*%
X60022600Y-71059999D03*
X58522600Y-71059999D03*
X60022600Y-70309999D03*
X60022600Y-69559999D03*
X58522600Y-69559999D03*
X58522600Y-70309999D03*
%TD*%
%TO.C,mouse-bite-2mm-slot*%
X58690000Y-190000000D03*
X60190000Y-190750000D03*
X58690000Y-189250000D03*
X58690000Y-190750000D03*
X60190000Y-190000000D03*
X60190000Y-189250000D03*
%TD*%
%TO.C,mouse-bite-2mm-slot*%
X88960000Y-184440000D03*
X88960000Y-185940000D03*
X88210000Y-185940000D03*
X88210000Y-184440000D03*
X89710000Y-185940000D03*
X89710000Y-184440000D03*
%TD*%
D11*
%TO.C,J32*%
X45740000Y-181650000D03*
D12*
X43200000Y-181650000D03*
%TD*%
D11*
%TO.C,J45*%
X82612600Y-58809999D03*
D12*
X82612600Y-61349999D03*
X82612600Y-63889999D03*
X82612600Y-66429999D03*
X82612600Y-68969999D03*
X82612600Y-71509999D03*
X82612600Y-74049999D03*
X82612600Y-76589999D03*
X82612600Y-79129999D03*
X82612600Y-81669999D03*
%TD*%
D11*
%TO.C,J26*%
X146260001Y-164230001D03*
D12*
X146260001Y-166770001D03*
X146260001Y-169310001D03*
%TD*%
D10*
%TO.C,mouse-bite-2mm-slot6*%
X79822600Y-40369999D03*
X78322600Y-39619999D03*
X79822600Y-39619999D03*
X79822600Y-41119999D03*
X78322600Y-40369999D03*
X78322600Y-41119999D03*
%TD*%
%TO.C,mouse-bite-2mm-slot2*%
X58522600Y-41119999D03*
X60022600Y-41119999D03*
X58522600Y-40369999D03*
X58522600Y-39619999D03*
X60022600Y-39619999D03*
X60022600Y-40369999D03*
%TD*%
%TO.C,mouse-bite-2mm-slot*%
X58502601Y-39619999D03*
X58502601Y-40369999D03*
X60002601Y-39619999D03*
X60002601Y-41119999D03*
X60002601Y-40369999D03*
X58502601Y-41119999D03*
%TD*%
D13*
%TO.C,MX1*%
X110600000Y-167490000D03*
D14*
X113140000Y-163680000D03*
X115680000Y-170030000D03*
%TD*%
D11*
%TO.C,J34*%
X75512600Y-28869999D03*
D12*
X75512600Y-31409999D03*
X75512600Y-33949999D03*
X75512600Y-36489999D03*
X75512600Y-39029999D03*
X75512600Y-41569999D03*
X75512600Y-44109999D03*
X75512600Y-46649999D03*
X75512600Y-49189999D03*
X75512600Y-51729999D03*
%TD*%
D10*
%TO.C,mouse-bite-2mm-slot*%
X152022601Y-81479999D03*
X150522601Y-81479999D03*
X151272601Y-81479999D03*
%TD*%
D11*
%TO.C,J30*%
X119400000Y-181709708D03*
D12*
X116860000Y-181709708D03*
%TD*%
D11*
%TO.C,J31*%
X45740000Y-153710000D03*
D12*
X43200000Y-153710000D03*
%TD*%
D11*
%TO.C,J53*%
X146299999Y-188550002D03*
D12*
X146299999Y-191090002D03*
X146299999Y-193630002D03*
X146299999Y-196170002D03*
%TD*%
D11*
%TO.C,J4*%
X55712600Y-28869999D03*
D12*
X55712600Y-31409999D03*
X55712600Y-33949999D03*
X55712600Y-36489999D03*
X55712600Y-39029999D03*
X55712600Y-41569999D03*
X55712600Y-44109999D03*
X55712600Y-46649999D03*
X55712600Y-49189999D03*
X55712600Y-51729999D03*
%TD*%
D10*
%TO.C,mouse-bite-2mm-slot*%
X154470000Y-185760001D03*
X152970000Y-184260001D03*
X153720000Y-185760001D03*
X153720000Y-184260001D03*
X154470000Y-184260001D03*
X152970000Y-185760001D03*
%TD*%
%TO.C,mouse-bite-2mm-slot*%
X148443948Y-161440001D03*
X147693948Y-159940001D03*
X147693948Y-161440001D03*
X146943948Y-161440001D03*
X146943948Y-159940001D03*
X148443948Y-159940001D03*
%TD*%
%TO.C,mouse-bite-2mm-slot*%
X123690000Y-178850001D03*
X122190000Y-179600001D03*
X122190000Y-178100001D03*
X123690000Y-179600001D03*
X122190000Y-178850001D03*
X123690000Y-178100001D03*
%TD*%
%TO.C,mouse-bite-2mm-slot5*%
X89712600Y-56020000D03*
X88962600Y-56020000D03*
X88212600Y-54520000D03*
X88212600Y-56020000D03*
X89712600Y-54520000D03*
X88962600Y-54520000D03*
%TD*%
%TO.C,mouse-bite-2mm-slot31*%
X117902601Y-70309999D03*
X119402601Y-70309999D03*
X117902601Y-69559999D03*
X119402601Y-69559999D03*
X119402601Y-71059999D03*
X117902601Y-71059999D03*
%TD*%
%TO.C,mouse-bite-2mm-slot*%
X150002601Y-58119999D03*
X151502601Y-58119999D03*
X150752601Y-58119999D03*
%TD*%
%TO.C,mouse-bite-2mm-slot24*%
X69162600Y-56019998D03*
X68412600Y-54519998D03*
X68412600Y-56019998D03*
X69162600Y-54519998D03*
X69912600Y-56019998D03*
X69912600Y-54519998D03*
%TD*%
D11*
%TO.C,J23*%
X102540001Y-188730000D03*
D12*
X102540001Y-191270000D03*
%TD*%
D11*
%TO.C,J5*%
X116680000Y-126310000D03*
D12*
X114140000Y-126310000D03*
X111600000Y-126310000D03*
X109060000Y-126310000D03*
X106520000Y-126310000D03*
X103980000Y-126310000D03*
X101440000Y-126310000D03*
X98900000Y-126310000D03*
X96360000Y-126310000D03*
X93820000Y-126310000D03*
X91280000Y-126310000D03*
X88740000Y-126310000D03*
X86200000Y-126310000D03*
X83660000Y-126310000D03*
X81120000Y-126310000D03*
X78580000Y-126310000D03*
X76040000Y-126310000D03*
X73500000Y-126310000D03*
X70960000Y-126310000D03*
X68420000Y-126310000D03*
X65880000Y-126310000D03*
X63340000Y-126310000D03*
X60800000Y-126310000D03*
X58260000Y-126310000D03*
X55720000Y-126310000D03*
X53180000Y-126310000D03*
X50640000Y-126310000D03*
X48100000Y-126310000D03*
X45560000Y-126310000D03*
X43020000Y-126310000D03*
%TD*%
D11*
%TO.C,J18*%
X141992601Y-46690002D03*
D12*
X141992601Y-44150002D03*
X141992601Y-41610002D03*
X141992601Y-39070002D03*
X141992601Y-36530002D03*
X141992601Y-33990002D03*
X141992601Y-31450002D03*
%TD*%
D11*
%TO.C,J6*%
X43200000Y-188730000D03*
D12*
X43200000Y-191270000D03*
%TD*%
D13*
%TO.C,MX3*%
X91460000Y-167490000D03*
D14*
X94000000Y-163680000D03*
X96540000Y-170030000D03*
%TD*%
D11*
%TO.C,J40*%
X134912600Y-28869999D03*
D12*
X134912600Y-31409999D03*
X134912600Y-33949999D03*
X134912600Y-36489999D03*
X134912600Y-39029999D03*
X134912600Y-41569999D03*
X134912600Y-44109999D03*
X134912600Y-46649999D03*
X134912600Y-49189999D03*
X134912600Y-51729999D03*
%TD*%
D11*
%TO.C,J8*%
X126709999Y-139370001D03*
D12*
X126709999Y-141910001D03*
X126709999Y-144450001D03*
X126709999Y-146990001D03*
X126709999Y-149530001D03*
X126709999Y-152070001D03*
%TD*%
D10*
%TO.C,mouse-bite-2mm-slot*%
X143322600Y-127460000D03*
X144822600Y-128960000D03*
X144072600Y-128960000D03*
X144072600Y-127460000D03*
X144822600Y-127460000D03*
X143322600Y-128960000D03*
%TD*%
%TO.C,mouse-bite-2mm-slot*%
X48710000Y-185940000D03*
X50210000Y-184440000D03*
X49460000Y-184440000D03*
X48710000Y-184440000D03*
X50210000Y-185940000D03*
X49460000Y-185940000D03*
%TD*%
%TO.C,mouse-bite-2mm-slot*%
X122190000Y-166000001D03*
X122190000Y-167500001D03*
X123690000Y-167500001D03*
X123690000Y-166750001D03*
X123690000Y-166000001D03*
X122190000Y-166750001D03*
%TD*%
D11*
%TO.C,J16*%
X126480000Y-176390001D03*
D12*
X126480000Y-178930001D03*
X126480000Y-181470001D03*
%TD*%
D10*
%TO.C,mouse-bite-2mm-slot*%
X48470000Y-150920000D03*
X49220000Y-149420000D03*
X49220000Y-150920000D03*
X49970000Y-149420000D03*
X48470000Y-149420000D03*
X49970000Y-150920000D03*
%TD*%
D11*
%TO.C,J28*%
X158960001Y-164230001D03*
D12*
X158960001Y-166770001D03*
X158960001Y-169310001D03*
%TD*%
D10*
%TO.C,mouse-bite-2mm-slot21*%
X68412600Y-85960000D03*
X69162600Y-85960000D03*
X69912600Y-85960000D03*
X69162600Y-84460000D03*
X69912600Y-84460000D03*
X68412600Y-84460000D03*
%TD*%
%TO.C,mouse-bite-2mm-slot*%
X123919999Y-137960000D03*
X123919999Y-136460000D03*
X123919999Y-137210000D03*
%TD*%
%TO.C,mouse-bite-2mm-slot*%
X118030001Y-189250000D03*
X118030001Y-190750000D03*
X118030001Y-190000000D03*
%TD*%
D11*
%TO.C,J58*%
X95580000Y-191270000D03*
D12*
X95580000Y-188730000D03*
%TD*%
D11*
%TO.C,J47*%
X102412600Y-58809999D03*
D12*
X102412600Y-61349999D03*
X102412600Y-63889999D03*
X102412600Y-66429999D03*
X102412600Y-68969999D03*
X102412600Y-71509999D03*
X102412600Y-74049999D03*
X102412600Y-76589999D03*
X102412600Y-79129999D03*
X102412600Y-81669999D03*
%TD*%
D11*
%TO.C,J35*%
X82612600Y-28869999D03*
D12*
X82612600Y-31409999D03*
X82612600Y-33949999D03*
X82612600Y-36489999D03*
X82612600Y-39029999D03*
X82612600Y-41569999D03*
X82612600Y-44109999D03*
X82612600Y-46649999D03*
X82612600Y-49189999D03*
X82612600Y-51729999D03*
%TD*%
D11*
%TO.C,J57*%
X82760000Y-188730000D03*
D12*
X82760000Y-191270000D03*
%TD*%
D11*
%TO.C,J38*%
X115112600Y-28869999D03*
D12*
X115112600Y-31409999D03*
X115112600Y-33949999D03*
X115112600Y-36489999D03*
X115112600Y-39029999D03*
X115112600Y-41569999D03*
X115112600Y-44109999D03*
X115112600Y-46649999D03*
X115112600Y-49189999D03*
X115112600Y-51729999D03*
%TD*%
D10*
%TO.C,mouse-bite-2mm-slot14*%
X137702601Y-68619999D03*
X139202601Y-69369999D03*
X137702601Y-70119999D03*
X139202601Y-68619999D03*
X137702601Y-69369999D03*
X139202601Y-70119999D03*
%TD*%
D11*
%TO.C,J41*%
X43012600Y-58809999D03*
D12*
X43012600Y-61349999D03*
X43012600Y-63889999D03*
X43012600Y-66429999D03*
X43012600Y-68969999D03*
X43012600Y-71509999D03*
X43012600Y-74049999D03*
X43012600Y-76589999D03*
X43012600Y-79129999D03*
X43012600Y-81669999D03*
%TD*%
D11*
%TO.C,J54*%
X158999999Y-191090002D03*
D12*
X158999999Y-193630002D03*
%TD*%
D10*
%TO.C,mouse-bite-2mm-slot*%
X109750000Y-184440000D03*
X108250000Y-185940000D03*
X109750000Y-185940000D03*
X109000000Y-184440000D03*
X108250000Y-184440000D03*
X109000000Y-185940000D03*
%TD*%
%TO.C,mouse-bite-2mm-slot*%
X110292600Y-122020000D03*
X111042600Y-122020000D03*
X109542600Y-122020000D03*
X111042600Y-123520000D03*
X109542600Y-123520000D03*
X110292600Y-123520000D03*
%TD*%
D11*
%TO.C,J22*%
X131560000Y-164230001D03*
D12*
X134100000Y-164230001D03*
X131560000Y-166770001D03*
X134100000Y-166770001D03*
X131560000Y-169310001D03*
X134100000Y-169310001D03*
%TD*%
D10*
%TO.C,mouse-bite-2mm-slot*%
X152163948Y-172100001D03*
X153663948Y-172100001D03*
X153663948Y-173600001D03*
X152913948Y-173600001D03*
X152913948Y-172100001D03*
X152163948Y-173600001D03*
%TD*%
%TO.C,mouse-bite-2mm-slot*%
X110970000Y-150920000D03*
X109470000Y-150920000D03*
X110220000Y-150920000D03*
X109470000Y-149420000D03*
X110220000Y-149420000D03*
X110970000Y-149420000D03*
%TD*%
D11*
%TO.C,J29*%
X119400000Y-153769708D03*
D12*
X116860000Y-153769708D03*
%TD*%
D10*
%TO.C,mouse-bite-2mm-slot28*%
X88212600Y-54519998D03*
X88962600Y-56019998D03*
X89712600Y-56019998D03*
X89712600Y-54519998D03*
X88962600Y-54519998D03*
X88212600Y-56019998D03*
%TD*%
D11*
%TO.C,J1*%
X43020000Y-146630000D03*
D12*
X45560000Y-146630000D03*
X48100000Y-146630000D03*
X50640000Y-146630000D03*
X53180000Y-146630000D03*
X55720000Y-146630000D03*
X58260000Y-146630000D03*
X60800000Y-146630000D03*
X63340000Y-146630000D03*
X65880000Y-146630000D03*
X68420000Y-146630000D03*
X70960000Y-146630000D03*
X73500000Y-146630000D03*
X76040000Y-146630000D03*
X78580000Y-146630000D03*
X81120000Y-146630000D03*
X83660000Y-146630000D03*
X86200000Y-146630000D03*
X88740000Y-146630000D03*
X91280000Y-146630000D03*
X93820000Y-146630000D03*
X96360000Y-146630000D03*
X98900000Y-146630000D03*
X101440000Y-146630000D03*
X103980000Y-146630000D03*
X106520000Y-146630000D03*
X109060000Y-146630000D03*
X111600000Y-146630000D03*
X114140000Y-146630000D03*
X116680000Y-146630000D03*
%TD*%
D11*
%TO.C,J3*%
X43012600Y-119230000D03*
D12*
X45552600Y-119230000D03*
X48092600Y-119230000D03*
X50632600Y-119230000D03*
X53172600Y-119230000D03*
X55712600Y-119230000D03*
X58252600Y-119230000D03*
X60792600Y-119230000D03*
X63332600Y-119230000D03*
X65872600Y-119230000D03*
X68412600Y-119230000D03*
X70952600Y-119230000D03*
X73492600Y-119230000D03*
X76032600Y-119230000D03*
X78572600Y-119230000D03*
X81112600Y-119230000D03*
X83652600Y-119230000D03*
X86192600Y-119230000D03*
X88732600Y-119230000D03*
X91272600Y-119230000D03*
X93812600Y-119230000D03*
X96352600Y-119230000D03*
X98892600Y-119230000D03*
X101432600Y-119230000D03*
X103972600Y-119230000D03*
X106512600Y-119230000D03*
X109052600Y-119230000D03*
X111592600Y-119230000D03*
X114132600Y-119230000D03*
X116672600Y-119230000D03*
X119212600Y-119230000D03*
X121752600Y-119230000D03*
%TD*%
D11*
%TO.C,J24*%
X139180000Y-164230001D03*
D12*
X139180000Y-166770001D03*
X139180000Y-169310001D03*
%TD*%
D11*
%TO.C,J19*%
X156649999Y-144450001D03*
D12*
X159189999Y-144450001D03*
%TD*%
D10*
%TO.C,mouse-bite-2mm-slot29*%
X108762600Y-84460000D03*
X109512600Y-85960000D03*
X108012600Y-85960000D03*
X108762600Y-85960000D03*
X109512600Y-84460000D03*
X108012600Y-84460000D03*
%TD*%
D11*
%TO.C,J15*%
X126519999Y-188550002D03*
D12*
X126519999Y-191090002D03*
X126519999Y-193630002D03*
X126519999Y-196170002D03*
%TD*%
D11*
%TO.C,J51*%
X146260000Y-176390001D03*
D12*
X146260000Y-178930001D03*
X146260000Y-181470001D03*
%TD*%
D10*
%TO.C,mouse-bite-2mm-slot*%
X123729999Y-190920002D03*
X123729999Y-189420002D03*
X123729999Y-190170002D03*
%TD*%
%TO.C,mouse-bite-2mm-slot*%
X132163948Y-172100001D03*
X133663948Y-172100001D03*
X133663948Y-173600001D03*
X132163948Y-173600001D03*
X132913948Y-173600001D03*
X132913948Y-172100001D03*
%TD*%
D11*
%TO.C,J20*%
X139180000Y-178930001D03*
D12*
X139180000Y-176390001D03*
%TD*%
D11*
%TO.C,J23*%
X159189999Y-131750001D03*
D12*
X156649999Y-131750001D03*
%TD*%
D10*
%TO.C,mouse-bite-2mm-slot14*%
X139202601Y-40369999D03*
X139202601Y-39619999D03*
X137702601Y-40369999D03*
X139202601Y-41119999D03*
X137702601Y-39619999D03*
X137702601Y-41119999D03*
%TD*%
D11*
%TO.C,JOLED2*%
X159312600Y-89115000D03*
D12*
X159312600Y-91655000D03*
X159312600Y-94195000D03*
X159312600Y-96735000D03*
X159312600Y-99275000D03*
X159312600Y-101815000D03*
X159312600Y-104355000D03*
X159312600Y-106895000D03*
X159312600Y-109435000D03*
X159312600Y-111975000D03*
X159312600Y-114515000D03*
X159312600Y-117055000D03*
X159312600Y-119595000D03*
X159312600Y-122135000D03*
X159312600Y-124675000D03*
%TD*%
D11*
%TO.C,J10*%
X86380000Y-153710000D03*
D12*
X83840000Y-153710000D03*
X81300000Y-153710000D03*
X78760000Y-153710000D03*
%TD*%
D10*
%TO.C,mouse-bite-2mm-slot7*%
X98102601Y-41119999D03*
X99602601Y-39619999D03*
X98102601Y-40369999D03*
X99602601Y-40369999D03*
X99602601Y-41119999D03*
X98102601Y-39619999D03*
%TD*%
%TO.C,mouse-bite-2mm-slot13*%
X129312600Y-56020000D03*
X129312600Y-54520000D03*
X127812600Y-56020000D03*
X127812600Y-54520000D03*
X128562600Y-56020000D03*
X128562600Y-54520000D03*
%TD*%
D11*
%TO.C,J13*%
X141992601Y-60909999D03*
D12*
X141992601Y-63449999D03*
X141992601Y-65989999D03*
X141992601Y-68529999D03*
X141992601Y-71069999D03*
X141992601Y-73609999D03*
X141992601Y-76149999D03*
X141992601Y-78689999D03*
%TD*%
D11*
%TO.C,J42*%
X55712600Y-58809999D03*
D12*
X55712600Y-61349999D03*
X55712600Y-63889999D03*
X55712600Y-66429999D03*
X55712600Y-68969999D03*
X55712600Y-71509999D03*
X55712600Y-74049999D03*
X55712600Y-76589999D03*
X55712600Y-79129999D03*
X55712600Y-81669999D03*
%TD*%
D11*
%TO.C,J14*%
X159772601Y-60909999D03*
D12*
X159772601Y-63449999D03*
X159772601Y-65989999D03*
X159772601Y-68529999D03*
X159772601Y-71069999D03*
X159772601Y-73609999D03*
X159772601Y-76149999D03*
X159772601Y-78689999D03*
%TD*%
D10*
%TO.C,mouse-bite-2mm-slot34*%
X117922600Y-69559999D03*
X119422600Y-70309999D03*
X117922600Y-71059999D03*
X117922600Y-70309999D03*
X119422600Y-69559999D03*
X119422600Y-71059999D03*
%TD*%
%TO.C,mouse-bite-2mm-slot1*%
X69912600Y-54520000D03*
X68412600Y-54520000D03*
X69912600Y-56020000D03*
X69162600Y-56020000D03*
X68412600Y-56020000D03*
X69162600Y-54520000D03*
%TD*%
%TO.C,mouse-bite-2mm-slot3*%
X79802601Y-40369999D03*
X78302601Y-39619999D03*
X79802601Y-39619999D03*
X78302601Y-41119999D03*
X79802601Y-41119999D03*
X78302601Y-40369999D03*
%TD*%
D11*
%TO.C,J21*%
X139219999Y-191090002D03*
D12*
X139219999Y-193630002D03*
%TD*%
D10*
%TO.C,mouse-bite-2mm-slot*%
X70010000Y-185940000D03*
X69260000Y-184440000D03*
X69260000Y-185940000D03*
X70010000Y-184440000D03*
X68510000Y-185940000D03*
X68510000Y-184440000D03*
%TD*%
%TO.C,mouse-bite-2mm-slot*%
X153859999Y-137460000D03*
X153859999Y-138210000D03*
X152359999Y-138210000D03*
X152359999Y-137460000D03*
X152359999Y-138960000D03*
X153859999Y-138960000D03*
%TD*%
%TO.C,mouse-bite-2mm-slot30*%
X98122600Y-69559999D03*
X99622600Y-71059999D03*
X99622600Y-69559999D03*
X98122600Y-70309999D03*
X99622600Y-70309999D03*
X98122600Y-71059999D03*
%TD*%
D11*
%TO.C,J33*%
X62812600Y-28869999D03*
D12*
X62812600Y-31409999D03*
X62812600Y-33949999D03*
X62812600Y-36489999D03*
X62812600Y-39029999D03*
X62812600Y-41569999D03*
X62812600Y-44109999D03*
X62812600Y-46649999D03*
X62812600Y-49189999D03*
X62812600Y-51729999D03*
%TD*%
D10*
%TO.C,mouse-bite-2mm-slot32*%
X108762600Y-54519998D03*
X108762600Y-56019998D03*
X108012600Y-54519998D03*
X109512600Y-56019998D03*
X108012600Y-56019998D03*
X109512600Y-54519998D03*
%TD*%
%TO.C,mouse-bite-2mm-slot27*%
X99602601Y-70309999D03*
X99602601Y-69559999D03*
X98102601Y-71059999D03*
X98102601Y-69559999D03*
X99602601Y-71059999D03*
X98102601Y-70309999D03*
%TD*%
D11*
%TO.C,J55*%
X62980000Y-188730000D03*
D12*
X62980000Y-191270000D03*
%TD*%
D10*
%TO.C,mouse-bite-2mm-slot17*%
X50112600Y-84460000D03*
X49362600Y-84460000D03*
X49362600Y-85960000D03*
X48612600Y-85960000D03*
X48612600Y-84460000D03*
X50112600Y-85960000D03*
%TD*%
%TO.C,mouse-bite-2mm-slot*%
X78470000Y-190000000D03*
X79970000Y-189250000D03*
X78470000Y-190750000D03*
X78470000Y-189250000D03*
X79970000Y-190750000D03*
X79970000Y-190000000D03*
%TD*%
%TO.C,mouse-bite-2mm-slot*%
X134470000Y-185760001D03*
X133720000Y-185760001D03*
X134470000Y-184260001D03*
X133720000Y-184260001D03*
X132970000Y-184260001D03*
X132970000Y-185760001D03*
%TD*%
%TO.C,mouse-bite-2mm-slot*%
X134443948Y-159940001D03*
X133693948Y-161440001D03*
X134443948Y-161440001D03*
X132943948Y-161440001D03*
X132943948Y-159940001D03*
X133693948Y-159940001D03*
%TD*%
%TO.C,mouse-bite-2mm-slot11*%
X117902601Y-40369999D03*
X117902601Y-41119999D03*
X119402601Y-41119999D03*
X119402601Y-39619999D03*
X117902601Y-39619999D03*
X119402601Y-40369999D03*
%TD*%
%TO.C,mouse-bite-2mm-slot*%
X50112600Y-56020000D03*
X50112600Y-54520000D03*
X48612600Y-56020000D03*
X49362600Y-54520000D03*
X49362600Y-56020000D03*
X48612600Y-54520000D03*
%TD*%
%TO.C,mouse-bite-2mm-slot*%
X99750000Y-190000000D03*
X99750000Y-190750000D03*
X98250000Y-189250000D03*
X98250000Y-190750000D03*
X98250000Y-190000000D03*
X99750000Y-189250000D03*
%TD*%
%TO.C,mouse-bite-2mm-slot*%
X151502601Y-49480002D03*
X150002601Y-49480002D03*
X150752601Y-49480002D03*
%TD*%
D11*
%TO.C,J12*%
X149569999Y-139370001D03*
D12*
X149569999Y-141910001D03*
X149569999Y-144450001D03*
X149569999Y-146990001D03*
X149569999Y-149530001D03*
X149569999Y-152070001D03*
%TD*%
D10*
%TO.C,mouse-bite-2mm-slot25*%
X89712600Y-84460000D03*
X88212600Y-85960000D03*
X88962600Y-85960000D03*
X89712600Y-85960000D03*
X88212600Y-84460000D03*
X88962600Y-84460000D03*
%TD*%
%TO.C,mouse-bite-2mm-slot*%
X126042600Y-104210000D03*
X124542600Y-104210000D03*
X126042600Y-103460000D03*
X124542600Y-104960000D03*
X126042600Y-104960000D03*
X124542600Y-103460000D03*
%TD*%
D11*
%TO.C,J46*%
X95312600Y-58809999D03*
D12*
X95312600Y-61349999D03*
X95312600Y-63889999D03*
X95312600Y-66429999D03*
X95312600Y-68969999D03*
X95312600Y-71509999D03*
X95312600Y-74049999D03*
X95312600Y-76589999D03*
X95312600Y-79129999D03*
X95312600Y-81669999D03*
%TD*%
D10*
%TO.C,mouse-bite-2mm-slot9*%
X109512600Y-54520000D03*
X109512600Y-56020000D03*
X108012600Y-56020000D03*
X108762600Y-54520000D03*
X108012600Y-54520000D03*
X108762600Y-56020000D03*
%TD*%
D11*
%TO.C,J27*%
X151340001Y-164230001D03*
D12*
X153880001Y-164230001D03*
X151340001Y-166770001D03*
X153880001Y-166770001D03*
X151340001Y-169310001D03*
X153880001Y-169310001D03*
%TD*%
D10*
%TO.C,mouse-bite-2mm-slot*%
X141970000Y-166690001D03*
X141970000Y-165940001D03*
X143470000Y-167440001D03*
X141970000Y-167440001D03*
X143470000Y-165940001D03*
X143470000Y-166690001D03*
%TD*%
%TO.C,mouse-bite-2mm-slot23*%
X78302601Y-69559999D03*
X79802601Y-71059999D03*
X79802601Y-69559999D03*
X78302601Y-71059999D03*
X78302601Y-70309999D03*
X79802601Y-70309999D03*
%TD*%
%TO.C,mouse-bite-2mm-slot*%
X119470000Y-136460000D03*
X119470000Y-137960000D03*
X119470000Y-137210000D03*
%TD*%
D11*
%TO.C,J39*%
X122212600Y-28869999D03*
D12*
X122212600Y-31409999D03*
X122212600Y-33949999D03*
X122212600Y-36489999D03*
X122212600Y-39029999D03*
X122212600Y-41569999D03*
X122212600Y-44109999D03*
X122212600Y-46649999D03*
X122212600Y-49189999D03*
X122212600Y-51729999D03*
%TD*%
D11*
%TO.C,J56*%
X75800000Y-191270000D03*
D12*
X75800000Y-188730000D03*
%TD*%
D11*
%TO.C,J7*%
X56020000Y-191270000D03*
D12*
X56020000Y-188730000D03*
%TD*%
D11*
%TO.C,J49*%
X122212600Y-58809999D03*
D12*
X122212600Y-61349999D03*
X122212600Y-63889999D03*
X122212600Y-66429999D03*
X122212600Y-68969999D03*
X122212600Y-71509999D03*
X122212600Y-74049999D03*
X122212600Y-76589999D03*
X122212600Y-79129999D03*
X122212600Y-81669999D03*
%TD*%
D10*
%TO.C,mouse-bite-2mm-slot19*%
X58502601Y-71059999D03*
X58502601Y-70309999D03*
X58502601Y-69559999D03*
X60002601Y-71059999D03*
X60002601Y-70309999D03*
X60002601Y-69559999D03*
%TD*%
%TO.C,mouse-bite-2mm-slot*%
X82470000Y-149420000D03*
X83220000Y-149420000D03*
X83220000Y-150920000D03*
X83970000Y-150920000D03*
X83970000Y-149420000D03*
X82470000Y-150920000D03*
%TD*%
%TO.C,mouse-bite-2mm-slot*%
X142010000Y-191660001D03*
X142010000Y-192410001D03*
X143510000Y-193160001D03*
X142010000Y-193160001D03*
X143510000Y-191660001D03*
X143510000Y-192410001D03*
%TD*%
D13*
%TO.C,MX2*%
X72000000Y-167490000D03*
D14*
X74540000Y-163680000D03*
X77080000Y-170030000D03*
%TD*%
D11*
%TO.C,J17*%
X126480000Y-164230001D03*
D12*
X126480000Y-166770001D03*
X126480000Y-169310001D03*
%TD*%
D10*
%TO.C,mouse-bite-2mm-slot26*%
X78322600Y-71059999D03*
X79822600Y-71059999D03*
X78322600Y-70309999D03*
X78322600Y-69559999D03*
X79822600Y-70309999D03*
X79822600Y-69559999D03*
%TD*%
D11*
%TO.C,J2*%
X43012600Y-28869999D03*
D12*
X43012600Y-31409999D03*
X43012600Y-33949999D03*
X43012600Y-36489999D03*
X43012600Y-39029999D03*
X43012600Y-41569999D03*
X43012600Y-44109999D03*
X43012600Y-46649999D03*
X43012600Y-49189999D03*
X43012600Y-51729999D03*
%TD*%
D13*
%TO.C,MX4*%
X52700000Y-167490000D03*
D14*
X55240000Y-163680000D03*
X57780000Y-170030000D03*
%TD*%
D10*
%TO.C,mouse-bite-2mm-slot*%
X156470000Y-128960000D03*
X157220000Y-127460000D03*
X156470000Y-127460000D03*
X157220000Y-128960000D03*
X157970000Y-127460000D03*
X157970000Y-128960000D03*
%TD*%
D15*
%TO.C,SW1*%
X131009999Y-134670001D03*
D16*
X131009999Y-139670001D03*
X131009999Y-137170001D03*
D17*
X138509999Y-131570001D03*
X138509999Y-142770001D03*
D16*
X145509999Y-134670001D03*
X145509999Y-139670001D03*
%TD*%
D11*
%TO.C,J37*%
X102412600Y-28869999D03*
D12*
X102412600Y-31409999D03*
X102412600Y-33949999D03*
X102412600Y-36489999D03*
X102412600Y-39029999D03*
X102412600Y-41569999D03*
X102412600Y-44109999D03*
X102412600Y-46649999D03*
X102412600Y-49189999D03*
X102412600Y-51729999D03*
%TD*%
D18*
%TO.C,USB1*%
X147862601Y-43905002D03*
X153642601Y-43905002D03*
D19*
X146432601Y-43375002D03*
D20*
X155072601Y-47555002D03*
X146432601Y-47555002D03*
D19*
X155072601Y-43375002D03*
%TD*%
D11*
%TO.C,J9*%
X86380000Y-181650000D03*
D12*
X83840000Y-181650000D03*
X81300000Y-181650000D03*
X78760000Y-181650000D03*
%TD*%
D10*
%TO.C,mouse-bite-2mm-slot14*%
X119422600Y-39619999D03*
X117922600Y-41119999D03*
X117922600Y-39619999D03*
X119422600Y-41119999D03*
X119422600Y-40369999D03*
X117922600Y-40369999D03*
%TD*%
D11*
%TO.C,J44*%
X75512600Y-58809999D03*
D12*
X75512600Y-61349999D03*
X75512600Y-63889999D03*
X75512600Y-66429999D03*
X75512600Y-68969999D03*
X75512600Y-71509999D03*
X75512600Y-74049999D03*
X75512600Y-76589999D03*
X75512600Y-79129999D03*
X75512600Y-81669999D03*
%TD*%
D11*
%TO.C,J48*%
X115112600Y-58809999D03*
D12*
X115112600Y-61349999D03*
X115112600Y-63889999D03*
X115112600Y-66429999D03*
X115112600Y-68969999D03*
X115112600Y-71509999D03*
X115112600Y-74049999D03*
X115112600Y-76589999D03*
X115112600Y-79129999D03*
X115112600Y-81669999D03*
%TD*%
D11*
%TO.C,J25*%
X159772601Y-31450002D03*
D12*
X159772601Y-33990002D03*
X159772601Y-36530002D03*
X159772601Y-39070002D03*
X159772601Y-41610002D03*
X159772601Y-44150002D03*
X159772601Y-46690002D03*
%TD*%
D15*
%TO.C,SW2*%
X130999999Y-149570001D03*
D16*
X130999999Y-154570001D03*
X130999999Y-152070001D03*
D17*
X138499999Y-157670001D03*
X138499999Y-146470001D03*
D16*
X145499999Y-149570001D03*
X145499999Y-154570001D03*
%TD*%
D21*
%TO.C,RGB2*%
X151272601Y-67129999D03*
D22*
X148672601Y-66404999D03*
X153872601Y-66404999D03*
X153872601Y-67854999D03*
X148672601Y-67854999D03*
%TD*%
D21*
%TO.C,RGB1*%
X151272601Y-61729999D03*
D22*
X148672601Y-61004999D03*
X153872601Y-61004999D03*
X153872601Y-62454999D03*
X148672601Y-62454999D03*
%TD*%
D21*
%TO.C,RGB3*%
X151272601Y-72529999D03*
D22*
X148672601Y-71804999D03*
X153872601Y-71804999D03*
X153872601Y-73254999D03*
X148672601Y-73254999D03*
%TD*%
D21*
%TO.C,RGB4*%
X151272601Y-77929999D03*
D22*
X148672601Y-77204999D03*
X153872601Y-77204999D03*
X153872601Y-78654999D03*
X148672601Y-78654999D03*
%TD*%
M02*
