%TF.GenerationSoftware,KiCad,Pcbnew,(6.0.2)*%
%TF.CreationDate,2022-03-22T07:30:25-04:00*%
%TF.ProjectId,Panel_Design_3,50616e65-6c5f-4446-9573-69676e5f332e,rev?*%
%TF.SameCoordinates,Original*%
%TF.FileFunction,Copper,L2,Bot*%
%TF.FilePolarity,Positive*%
%FSLAX46Y46*%
G04 Gerber Fmt 4.6, Leading zero omitted, Abs format (unit mm)*
G04 Created by KiCad (PCBNEW (6.0.2)) date 2022-03-22 07:30:25*
%MOMM*%
%LPD*%
G01*
G04 APERTURE LIST*
%TA.AperFunction,ComponentPad*%
%ADD10O,1.700000X1.700000*%
%TD*%
%TA.AperFunction,ComponentPad*%
%ADD11R,1.700000X1.700000*%
%TD*%
%TA.AperFunction,ComponentPad*%
%ADD12C,2.250000*%
%TD*%
G04 APERTURE END LIST*
D10*
%TO.P,J31,2,Pin_2*%
%TO.N,unconnected-(J31-Pad2)*%
X106680000Y-56420000D03*
D11*
%TO.P,J31,1,Pin_1*%
%TO.N,unconnected-(J31-Pad1)*%
X104140000Y-56420000D03*
%TD*%
D10*
%TO.P,J10,4,Pin_4*%
%TO.N,Net-(J10-Pad4)*%
X71120000Y-56420000D03*
%TO.P,J10,3,Pin_3*%
%TO.N,Net-(J10-Pad3)*%
X68580000Y-56420000D03*
%TO.P,J10,2,Pin_2*%
%TO.N,Net-(J10-Pad2)*%
X66040000Y-56420000D03*
D11*
%TO.P,J10,1,Pin_1*%
%TO.N,Net-(J10-Pad1)*%
X63500000Y-56420000D03*
%TD*%
D10*
%TO.P,J13,2,Pin_2*%
%TO.N,Net-(J7-Pad2)*%
X82740000Y-63500000D03*
D11*
%TO.P,J13,1,Pin_1*%
%TO.N,Net-(J7-Pad1)*%
X82740000Y-66040000D03*
%TD*%
D12*
%TO.P,MX1,2,ROW*%
%TO.N,Net-(J9-Pad1)*%
X34200000Y-40100000D03*
%TO.P,MX1,1,COL*%
%TO.N,Net-(J10-Pad1)*%
X36740000Y-46450000D03*
%TD*%
D10*
%TO.P,J34,2,Pin_2*%
%TO.N,Net-(J20-Pad2)*%
X146200000Y-44640000D03*
D11*
%TO.P,J34,1,Pin_1*%
%TO.N,Net-(J20-Pad1)*%
X146200000Y-47180000D03*
%TD*%
D10*
%TO.P,J19,2,Pin_2*%
%TO.N,Net-(J19-Pad2)*%
X89820000Y-66040000D03*
D11*
%TO.P,J19,1,Pin_1*%
%TO.N,GND_5*%
X89820000Y-63500000D03*
%TD*%
D10*
%TO.P,J22,6,GND*%
%TO.N,GND_6*%
X121380000Y-37560000D03*
%TO.P,J22,5,~{RST}*%
%TO.N,Net-(J22-Pad5)*%
X118840000Y-37560000D03*
%TO.P,J22,4,MOSI*%
%TO.N,Net-(J22-Pad4)*%
X121380000Y-35020000D03*
%TO.P,J22,3,SCK*%
%TO.N,Net-(J17-Pad3)*%
X118840000Y-35020000D03*
%TO.P,J22,2,VCC*%
%TO.N,Net-(J17-Pad2)*%
X121380000Y-32480000D03*
D11*
%TO.P,J22,1,MISO*%
%TO.N,Net-(J17-Pad1)*%
X118840000Y-32480000D03*
%TD*%
D10*
%TO.P,J24,3,Pin_3*%
%TO.N,GND_6*%
X126460000Y-37560000D03*
%TO.P,J24,2,Pin_2*%
%TO.N,Net-(J22-Pad5)*%
X126460000Y-35020000D03*
D11*
%TO.P,J24,1,Pin_1*%
%TO.N,Net-(J22-Pad4)*%
X126460000Y-32480000D03*
%TD*%
D10*
%TO.P,J36,2,Pin_2*%
%TO.N,Net-(IC3-Pad3)*%
X146090000Y-61880001D03*
D11*
%TO.P,J36,1,Pin_1*%
%TO.N,Net-(IC2-Pad3)*%
X146090000Y-59340001D03*
%TD*%
D10*
%TO.P,J7,2,Pin_2*%
%TO.N,Net-(J7-Pad2)*%
X43180000Y-63500000D03*
D11*
%TO.P,J7,1,Pin_1*%
%TO.N,Net-(J7-Pad1)*%
X43180000Y-66040000D03*
%TD*%
D10*
%TO.P,J23,2,Pin_2*%
%TO.N,Net-(J23-Pad2)*%
X102520000Y-63500000D03*
D11*
%TO.P,J23,1,Pin_1*%
%TO.N,Net-(J23-Pad1)*%
X102520000Y-66040000D03*
%TD*%
D12*
%TO.P,MX2,2,ROW*%
%TO.N,Net-(J9-Pad3)*%
X72800000Y-40100000D03*
%TO.P,MX2,1,COL*%
%TO.N,Net-(J10-Pad3)*%
X75340000Y-46450000D03*
%TD*%
D10*
%TO.P,J11,2,Pin_2*%
%TO.N,Net-(J7-Pad2)*%
X62960000Y-63500000D03*
D11*
%TO.P,J11,1,Pin_1*%
%TO.N,Net-(J7-Pad1)*%
X62960000Y-66040000D03*
%TD*%
D10*
%TO.P,J33,3,Pin_3*%
%TO.N,Net-(J16-Pad3)*%
X133500000Y-49720000D03*
%TO.P,J33,2,Pin_2*%
%TO.N,GND_4*%
X133500000Y-47180000D03*
D11*
%TO.P,J33,1,Pin_1*%
%TO.N,Net-(J16-Pad1)*%
X133500000Y-44640000D03*
%TD*%
D10*
%TO.P,J29,2,Pin_2*%
%TO.N,unconnected-(J29-Pad2)*%
X33020000Y-56420000D03*
D11*
%TO.P,J29,1,Pin_1*%
%TO.N,unconnected-(J29-Pad1)*%
X30480000Y-56420000D03*
%TD*%
D10*
%TO.P,J32,2,Pin_2*%
%TO.N,unconnected-(J32-Pad2)*%
X106680000Y-28480000D03*
D11*
%TO.P,J32,1,Pin_1*%
%TO.N,unconnected-(J32-Pad1)*%
X104140000Y-28480000D03*
%TD*%
D10*
%TO.P,J15,4,Pin_4*%
%TO.N,Net-(IC3-Pad2)*%
X113610000Y-64420001D03*
%TO.P,J15,3,Pin_3*%
%TO.N,Net-(IC3-Pad1)*%
X113610000Y-61880001D03*
%TO.P,J15,2,Pin_2*%
%TO.N,Net-(IC2-Pad2)*%
X113610000Y-59340001D03*
D11*
%TO.P,J15,1,Pin_1*%
%TO.N,Net-(IC2-Pad1)*%
X113610000Y-56800001D03*
%TD*%
D10*
%TO.P,J27,6,Pin_6*%
%TO.N,Net-(J27-Pad6)*%
X141120001Y-37559999D03*
%TO.P,J27,5,Pin_5*%
%TO.N,Net-(J27-Pad5)*%
X138580001Y-37559999D03*
%TO.P,J27,4,Pin_4*%
%TO.N,Net-(J27-Pad4)*%
X141120001Y-35019999D03*
%TO.P,J27,3,Pin_3*%
%TO.N,Net-(J26-Pad3)*%
X138580001Y-35019999D03*
%TO.P,J27,2,Pin_2*%
%TO.N,Net-(J26-Pad2)*%
X141120001Y-32479999D03*
D11*
%TO.P,J27,1,Pin_1*%
%TO.N,Net-(J26-Pad1)*%
X138580001Y-32479999D03*
%TD*%
D12*
%TO.P,MX4,2,ROW*%
%TO.N,Net-(J9-Pad4)*%
X92100000Y-40100000D03*
%TO.P,MX4,1,COL*%
%TO.N,Net-(J10-Pad4)*%
X94640000Y-46450000D03*
%TD*%
%TO.P,MX3,2,ROW*%
%TO.N,Net-(J9-Pad2)*%
X53340000Y-40100000D03*
%TO.P,MX3,1,COL*%
%TO.N,Net-(J10-Pad2)*%
X55880000Y-46450000D03*
%TD*%
D10*
%TO.P,J17,3,Pin_3*%
%TO.N,Net-(J17-Pad3)*%
X113760000Y-37560000D03*
%TO.P,J17,2,Pin_2*%
%TO.N,Net-(J17-Pad2)*%
X113760000Y-35020000D03*
D11*
%TO.P,J17,1,Pin_1*%
%TO.N,Net-(J17-Pad1)*%
X113760000Y-32480000D03*
%TD*%
D10*
%TO.P,J26,3,Pin_3*%
%TO.N,Net-(J26-Pad3)*%
X133500001Y-37559999D03*
%TO.P,J26,2,Pin_2*%
%TO.N,Net-(J26-Pad2)*%
X133500001Y-35019999D03*
D11*
%TO.P,J26,1,Pin_1*%
%TO.N,Net-(J26-Pad1)*%
X133500001Y-32479999D03*
%TD*%
D10*
%TO.P,J30,2,Pin_2*%
%TO.N,unconnected-(J30-Pad2)*%
X33020000Y-28480000D03*
D11*
%TO.P,J30,1,Pin_1*%
%TO.N,unconnected-(J30-Pad1)*%
X30480000Y-28480000D03*
%TD*%
D10*
%TO.P,J9,4,Pin_4*%
%TO.N,Net-(J9-Pad4)*%
X71120000Y-28480000D03*
%TO.P,J9,3,Pin_3*%
%TO.N,Net-(J9-Pad3)*%
X68580000Y-28480000D03*
%TO.P,J9,2,Pin_2*%
%TO.N,Net-(J9-Pad2)*%
X66040000Y-28480000D03*
D11*
%TO.P,J9,1,Pin_1*%
%TO.N,Net-(J9-Pad1)*%
X63500000Y-28480000D03*
%TD*%
D10*
%TO.P,J35,4,Pin_4*%
%TO.N,Net-(IC3-Pad2)*%
X133390000Y-64420001D03*
%TO.P,J35,3,Pin_3*%
%TO.N,Net-(IC3-Pad1)*%
X133390000Y-61880001D03*
%TO.P,J35,2,Pin_2*%
%TO.N,Net-(IC2-Pad2)*%
X133390000Y-59340001D03*
D11*
%TO.P,J35,1,Pin_1*%
%TO.N,Net-(IC2-Pad1)*%
X133390000Y-56800001D03*
%TD*%
D10*
%TO.P,J16,3,Pin_3*%
%TO.N,Net-(J16-Pad3)*%
X113720000Y-49720000D03*
%TO.P,J16,2,Pin_2*%
%TO.N,GND_4*%
X113720000Y-47180000D03*
D11*
%TO.P,J16,1,Pin_1*%
%TO.N,Net-(J16-Pad1)*%
X113720000Y-44640000D03*
%TD*%
D10*
%TO.P,J8,2,Pin_2*%
%TO.N,Net-(J6-Pad2)*%
X50260000Y-66040000D03*
D11*
%TO.P,J8,1,Pin_1*%
%TO.N,Net-(J6-Pad1)*%
X50260000Y-63500000D03*
%TD*%
D10*
%TO.P,J20,2,Pin_2*%
%TO.N,Net-(J20-Pad2)*%
X126420000Y-44640000D03*
D11*
%TO.P,J20,1,Pin_1*%
%TO.N,Net-(J20-Pad1)*%
X126420000Y-47180000D03*
%TD*%
D10*
%TO.P,J6,2,Pin_2*%
%TO.N,Net-(J6-Pad2)*%
X30480000Y-66040000D03*
D11*
%TO.P,J6,1,Pin_1*%
%TO.N,Net-(J6-Pad1)*%
X30480000Y-63500000D03*
%TD*%
D10*
%TO.P,J12,2,Pin_2*%
%TO.N,Net-(J6-Pad2)*%
X70040000Y-66040000D03*
D11*
%TO.P,J12,1,Pin_1*%
%TO.N,Net-(J6-Pad1)*%
X70040000Y-63500000D03*
%TD*%
D10*
%TO.P,J28,3,Pin_3*%
%TO.N,Net-(J27-Pad6)*%
X146200001Y-37559999D03*
%TO.P,J28,2,Pin_2*%
%TO.N,Net-(J27-Pad5)*%
X146200001Y-35019999D03*
D11*
%TO.P,J28,1,Pin_1*%
%TO.N,Net-(J27-Pad4)*%
X146200001Y-32479999D03*
%TD*%
D10*
%TO.P,J21,2,Pin_2*%
%TO.N,Net-(IC3-Pad3)*%
X126310000Y-61880001D03*
D11*
%TO.P,J21,1,Pin_1*%
%TO.N,Net-(IC2-Pad3)*%
X126310000Y-59340001D03*
%TD*%
%TA.AperFunction,Conductor*%
%TO.N,GND_6*%
G36*
X126430055Y-30449500D02*
G01*
X126444856Y-30451805D01*
X126444859Y-30451805D01*
X126453728Y-30453186D01*
X126471224Y-30450898D01*
X126494939Y-30450050D01*
X126710468Y-30462699D01*
X126725128Y-30464426D01*
X126732552Y-30465745D01*
X126964876Y-30507025D01*
X126979235Y-30510455D01*
X127212351Y-30580803D01*
X127226209Y-30585888D01*
X127280139Y-30609347D01*
X127449506Y-30683021D01*
X127462668Y-30689689D01*
X127532951Y-30730637D01*
X127673071Y-30812273D01*
X127685366Y-30820437D01*
X127768698Y-30883101D01*
X127879987Y-30966789D01*
X127891234Y-30976327D01*
X128067415Y-31144449D01*
X128077473Y-31155243D01*
X128232764Y-31342798D01*
X128241497Y-31354701D01*
X128373788Y-31559138D01*
X128381068Y-31571980D01*
X128446681Y-31705379D01*
X128459229Y-31751105D01*
X128465960Y-31836633D01*
X128467114Y-31841440D01*
X128467115Y-31841446D01*
X128492237Y-31946084D01*
X128521372Y-32067439D01*
X128523265Y-32072010D01*
X128523266Y-32072012D01*
X128608465Y-32277702D01*
X128616054Y-32348292D01*
X128597144Y-32391754D01*
X128598510Y-32392547D01*
X128509674Y-32545490D01*
X128507553Y-32552494D01*
X128507551Y-32552498D01*
X128467879Y-32683488D01*
X128458405Y-32714767D01*
X128447453Y-32891298D01*
X128448693Y-32898514D01*
X128448693Y-32898516D01*
X128468544Y-33014040D01*
X128477406Y-33065614D01*
X128480272Y-33072348D01*
X128480272Y-33072350D01*
X128522801Y-33172300D01*
X128531067Y-33242814D01*
X128515814Y-33284917D01*
X128513354Y-33289153D01*
X128513351Y-33289159D01*
X128509674Y-33295490D01*
X128507553Y-33302494D01*
X128507551Y-33302498D01*
X128480103Y-33393126D01*
X128458405Y-33464767D01*
X128447453Y-33641298D01*
X128448693Y-33648514D01*
X128448693Y-33648516D01*
X128470709Y-33776638D01*
X128477406Y-33815614D01*
X128480272Y-33822348D01*
X128480272Y-33822350D01*
X128522801Y-33922300D01*
X128531067Y-33992814D01*
X128515814Y-34034917D01*
X128513354Y-34039153D01*
X128513351Y-34039159D01*
X128509674Y-34045490D01*
X128507553Y-34052494D01*
X128507551Y-34052498D01*
X128475477Y-34158401D01*
X128458405Y-34214767D01*
X128447453Y-34391298D01*
X128477406Y-34565614D01*
X128480272Y-34572348D01*
X128480272Y-34572350D01*
X128522801Y-34672300D01*
X128531067Y-34742814D01*
X128515814Y-34784917D01*
X128513354Y-34789153D01*
X128513351Y-34789159D01*
X128509674Y-34795490D01*
X128507553Y-34802494D01*
X128507551Y-34802498D01*
X128467879Y-34933488D01*
X128458405Y-34964767D01*
X128447453Y-35141298D01*
X128448693Y-35148514D01*
X128448693Y-35148516D01*
X128476166Y-35308398D01*
X128477406Y-35315614D01*
X128480272Y-35322348D01*
X128480272Y-35322350D01*
X128522801Y-35422300D01*
X128531067Y-35492814D01*
X128515814Y-35534917D01*
X128513354Y-35539153D01*
X128513351Y-35539159D01*
X128509674Y-35545490D01*
X128507553Y-35552494D01*
X128507551Y-35552498D01*
X128472683Y-35667625D01*
X128458405Y-35714767D01*
X128447453Y-35891298D01*
X128448693Y-35898514D01*
X128448693Y-35898516D01*
X128451051Y-35912239D01*
X128477406Y-36065614D01*
X128480272Y-36072348D01*
X128480272Y-36072350D01*
X128522801Y-36172300D01*
X128531067Y-36242814D01*
X128515814Y-36284917D01*
X128513354Y-36289153D01*
X128513351Y-36289159D01*
X128509674Y-36295490D01*
X128507553Y-36302494D01*
X128507551Y-36302498D01*
X128478013Y-36400027D01*
X128458405Y-36464767D01*
X128447453Y-36641298D01*
X128448693Y-36648514D01*
X128448693Y-36648516D01*
X128463594Y-36735233D01*
X128477406Y-36815614D01*
X128480272Y-36822348D01*
X128480272Y-36822350D01*
X128522801Y-36922300D01*
X128531067Y-36992814D01*
X128515814Y-37034917D01*
X128513354Y-37039153D01*
X128513351Y-37039159D01*
X128509674Y-37045490D01*
X128507553Y-37052494D01*
X128507551Y-37052498D01*
X128485328Y-37125875D01*
X128458405Y-37214767D01*
X128447453Y-37391298D01*
X128477406Y-37565614D01*
X128546657Y-37728364D01*
X128550990Y-37734252D01*
X128550993Y-37734257D01*
X128595481Y-37794708D01*
X128619747Y-37861429D01*
X128610408Y-37917608D01*
X128587702Y-37972425D01*
X128524602Y-38124764D01*
X128521372Y-38132561D01*
X128465960Y-38363367D01*
X128465518Y-38368990D01*
X128461809Y-38416119D01*
X128443614Y-38472095D01*
X128369843Y-38592415D01*
X128361180Y-38604809D01*
X128210312Y-38795200D01*
X128197259Y-38811672D01*
X128187176Y-38822936D01*
X127999646Y-39008677D01*
X127988287Y-39018651D01*
X127779849Y-39180591D01*
X127767374Y-39189133D01*
X127541047Y-39324930D01*
X127527646Y-39331913D01*
X127404394Y-39387002D01*
X127286684Y-39439614D01*
X127272533Y-39444946D01*
X127020390Y-39523008D01*
X127005700Y-39526605D01*
X126746031Y-39573895D01*
X126731033Y-39575705D01*
X126526891Y-39587978D01*
X126502090Y-39589469D01*
X126475146Y-39588196D01*
X126466269Y-39586814D01*
X126457367Y-39587978D01*
X126457364Y-39587978D01*
X126434748Y-39590936D01*
X126418410Y-39592000D01*
X123513207Y-39592000D01*
X123492303Y-39590254D01*
X123487637Y-39589469D01*
X123472539Y-39586929D01*
X123466419Y-39586854D01*
X123464867Y-39586835D01*
X123464862Y-39586835D01*
X123460000Y-39586776D01*
X123455184Y-39587466D01*
X123455100Y-39587471D01*
X123447313Y-39588335D01*
X123223367Y-39605960D01*
X123218560Y-39607114D01*
X123218554Y-39607115D01*
X123091753Y-39637558D01*
X122992561Y-39661372D01*
X122987990Y-39663265D01*
X122987988Y-39663266D01*
X122924951Y-39689377D01*
X122780283Y-39749300D01*
X122709694Y-39756889D01*
X122650489Y-39728917D01*
X122633715Y-39714667D01*
X122524045Y-39658666D01*
X122482708Y-39637558D01*
X122482706Y-39637557D01*
X122476192Y-39634231D01*
X122469087Y-39632492D01*
X122469083Y-39632491D01*
X122364162Y-39606818D01*
X122304390Y-39592192D01*
X122298788Y-39591844D01*
X122298785Y-39591844D01*
X122295175Y-39591620D01*
X122295165Y-39591620D01*
X122293236Y-39591500D01*
X122165707Y-39591500D01*
X122095964Y-39599631D01*
X122041589Y-39605970D01*
X122041585Y-39605971D01*
X122034319Y-39606818D01*
X122027444Y-39609313D01*
X122027442Y-39609314D01*
X121874338Y-39664889D01*
X121803480Y-39669330D01*
X121774044Y-39658666D01*
X121732712Y-39637560D01*
X121732707Y-39637558D01*
X121726192Y-39634231D01*
X121554390Y-39592192D01*
X121548788Y-39591844D01*
X121548785Y-39591844D01*
X121545175Y-39591620D01*
X121545165Y-39591620D01*
X121543236Y-39591500D01*
X121415707Y-39591500D01*
X121345964Y-39599631D01*
X121291589Y-39605970D01*
X121291585Y-39605971D01*
X121284319Y-39606818D01*
X121277444Y-39609313D01*
X121277442Y-39609314D01*
X121124338Y-39664889D01*
X121053480Y-39669330D01*
X121024044Y-39658666D01*
X120982712Y-39637560D01*
X120982707Y-39637558D01*
X120976192Y-39634231D01*
X120804390Y-39592192D01*
X120798788Y-39591844D01*
X120798785Y-39591844D01*
X120795175Y-39591620D01*
X120795165Y-39591620D01*
X120793236Y-39591500D01*
X120665707Y-39591500D01*
X120595964Y-39599631D01*
X120541589Y-39605970D01*
X120541585Y-39605971D01*
X120534319Y-39606818D01*
X120527444Y-39609313D01*
X120527442Y-39609314D01*
X120374338Y-39664889D01*
X120303480Y-39669330D01*
X120274044Y-39658666D01*
X120232712Y-39637560D01*
X120232707Y-39637558D01*
X120226192Y-39634231D01*
X120054390Y-39592192D01*
X120048788Y-39591844D01*
X120048785Y-39591844D01*
X120045175Y-39591620D01*
X120045165Y-39591620D01*
X120043236Y-39591500D01*
X119915707Y-39591500D01*
X119845964Y-39599631D01*
X119791589Y-39605970D01*
X119791585Y-39605971D01*
X119784319Y-39606818D01*
X119777444Y-39609313D01*
X119777442Y-39609314D01*
X119624338Y-39664889D01*
X119553480Y-39669330D01*
X119524044Y-39658666D01*
X119482712Y-39637560D01*
X119482707Y-39637558D01*
X119476192Y-39634231D01*
X119304390Y-39592192D01*
X119298788Y-39591844D01*
X119298785Y-39591844D01*
X119295175Y-39591620D01*
X119295165Y-39591620D01*
X119293236Y-39591500D01*
X119165707Y-39591500D01*
X119095964Y-39599631D01*
X119041589Y-39605970D01*
X119041585Y-39605971D01*
X119034319Y-39606818D01*
X119027444Y-39609313D01*
X119027442Y-39609314D01*
X118874338Y-39664889D01*
X118803480Y-39669330D01*
X118774044Y-39658666D01*
X118732712Y-39637560D01*
X118732707Y-39637558D01*
X118726192Y-39634231D01*
X118554390Y-39592192D01*
X118548788Y-39591844D01*
X118548785Y-39591844D01*
X118545175Y-39591620D01*
X118545165Y-39591620D01*
X118543236Y-39591500D01*
X118415707Y-39591500D01*
X118345964Y-39599631D01*
X118291589Y-39605970D01*
X118291585Y-39605971D01*
X118284319Y-39606818D01*
X118277444Y-39609313D01*
X118277442Y-39609314D01*
X118124338Y-39664889D01*
X118053480Y-39669330D01*
X118024044Y-39658666D01*
X117982712Y-39637560D01*
X117982707Y-39637558D01*
X117976192Y-39634231D01*
X117804390Y-39592192D01*
X117798788Y-39591844D01*
X117798785Y-39591844D01*
X117795175Y-39591620D01*
X117795165Y-39591620D01*
X117793236Y-39591500D01*
X117665707Y-39591500D01*
X117595964Y-39599631D01*
X117541589Y-39605970D01*
X117541585Y-39605971D01*
X117534319Y-39606818D01*
X117527444Y-39609313D01*
X117527442Y-39609314D01*
X117378810Y-39663266D01*
X117368063Y-39667167D01*
X117361946Y-39671178D01*
X117361943Y-39671179D01*
X117258615Y-39738924D01*
X117190679Y-39759547D01*
X117141313Y-39749961D01*
X116995049Y-39689377D01*
X116932012Y-39663266D01*
X116932010Y-39663265D01*
X116927439Y-39661372D01*
X116828247Y-39637558D01*
X116701446Y-39607115D01*
X116701440Y-39607114D01*
X116696633Y-39605960D01*
X116493657Y-39589986D01*
X116482637Y-39588628D01*
X116477330Y-39587735D01*
X116477329Y-39587735D01*
X116472539Y-39586929D01*
X116466300Y-39586853D01*
X116464859Y-39586835D01*
X116464855Y-39586835D01*
X116460000Y-39586776D01*
X116433997Y-39590500D01*
X116432412Y-39590727D01*
X116414549Y-39592000D01*
X113809327Y-39592000D01*
X113789942Y-39590500D01*
X113775141Y-39588195D01*
X113775138Y-39588195D01*
X113766269Y-39586814D01*
X113757367Y-39587978D01*
X113757365Y-39587978D01*
X113754637Y-39588335D01*
X113749360Y-39589025D01*
X113725240Y-39589848D01*
X113659040Y-39585750D01*
X113481178Y-39574738D01*
X113465726Y-39572818D01*
X113290428Y-39539924D01*
X113198819Y-39522734D01*
X113183723Y-39518923D01*
X112925037Y-39436300D01*
X112910526Y-39430655D01*
X112664007Y-39316757D01*
X112650306Y-39309368D01*
X112419700Y-39165920D01*
X112407024Y-39156901D01*
X112195890Y-38986118D01*
X112184412Y-38975596D01*
X111995959Y-38780078D01*
X111985866Y-38768221D01*
X111822962Y-38550943D01*
X111814409Y-38537931D01*
X111735292Y-38399648D01*
X111719045Y-38346962D01*
X111714428Y-38288299D01*
X111714040Y-38283367D01*
X111658628Y-38052561D01*
X111656734Y-38047988D01*
X111571535Y-37842298D01*
X111563946Y-37771708D01*
X111582856Y-37728246D01*
X111581490Y-37727453D01*
X111638148Y-37629908D01*
X111670326Y-37574510D01*
X111673021Y-37565614D01*
X111684808Y-37526695D01*
X112397251Y-37526695D01*
X112397548Y-37531848D01*
X112397548Y-37531851D01*
X112403011Y-37626590D01*
X112410110Y-37749715D01*
X112411247Y-37754761D01*
X112411248Y-37754767D01*
X112425449Y-37817778D01*
X112459222Y-37967639D01*
X112543266Y-38174616D01*
X112659987Y-38365088D01*
X112806250Y-38533938D01*
X112978126Y-38676632D01*
X113171000Y-38789338D01*
X113379692Y-38869030D01*
X113384760Y-38870061D01*
X113384763Y-38870062D01*
X113479862Y-38889410D01*
X113598597Y-38913567D01*
X113603772Y-38913757D01*
X113603774Y-38913757D01*
X113816673Y-38921564D01*
X113816677Y-38921564D01*
X113821837Y-38921753D01*
X113826957Y-38921097D01*
X113826959Y-38921097D01*
X114038288Y-38894025D01*
X114038289Y-38894025D01*
X114043416Y-38893368D01*
X114048366Y-38891883D01*
X114252429Y-38830661D01*
X114252434Y-38830659D01*
X114257384Y-38829174D01*
X114457994Y-38730896D01*
X114639860Y-38601173D01*
X114686427Y-38554769D01*
X114794435Y-38447137D01*
X114798096Y-38443489D01*
X114834620Y-38392661D01*
X114925435Y-38266277D01*
X114928453Y-38262077D01*
X114933383Y-38252103D01*
X115025136Y-38066453D01*
X115025137Y-38066451D01*
X115027430Y-38061811D01*
X115092370Y-37848069D01*
X115121529Y-37626590D01*
X115122647Y-37580840D01*
X115123074Y-37563365D01*
X115123074Y-37563361D01*
X115123156Y-37560000D01*
X115120418Y-37526695D01*
X117477251Y-37526695D01*
X117477548Y-37531848D01*
X117477548Y-37531851D01*
X117483011Y-37626590D01*
X117490110Y-37749715D01*
X117491247Y-37754761D01*
X117491248Y-37754767D01*
X117505449Y-37817778D01*
X117539222Y-37967639D01*
X117623266Y-38174616D01*
X117739987Y-38365088D01*
X117886250Y-38533938D01*
X118058126Y-38676632D01*
X118251000Y-38789338D01*
X118459692Y-38869030D01*
X118464760Y-38870061D01*
X118464763Y-38870062D01*
X118559862Y-38889410D01*
X118678597Y-38913567D01*
X118683772Y-38913757D01*
X118683774Y-38913757D01*
X118896673Y-38921564D01*
X118896677Y-38921564D01*
X118901837Y-38921753D01*
X118906957Y-38921097D01*
X118906959Y-38921097D01*
X119118288Y-38894025D01*
X119118289Y-38894025D01*
X119123416Y-38893368D01*
X119128366Y-38891883D01*
X119332429Y-38830661D01*
X119332434Y-38830659D01*
X119337384Y-38829174D01*
X119537994Y-38730896D01*
X119719860Y-38601173D01*
X119766427Y-38554769D01*
X119874435Y-38447137D01*
X119878096Y-38443489D01*
X119914620Y-38392661D01*
X120008453Y-38262077D01*
X120009640Y-38262930D01*
X120056960Y-38219362D01*
X120126897Y-38207145D01*
X120192338Y-38234678D01*
X120220166Y-38266511D01*
X120277694Y-38360388D01*
X120283777Y-38368699D01*
X120423213Y-38529667D01*
X120430580Y-38536883D01*
X120594434Y-38672916D01*
X120602881Y-38678831D01*
X120786756Y-38786279D01*
X120796042Y-38790729D01*
X120995001Y-38866703D01*
X121004899Y-38869579D01*
X121108250Y-38890606D01*
X121122299Y-38889410D01*
X121126000Y-38879065D01*
X121126000Y-38878517D01*
X121634000Y-38878517D01*
X121638064Y-38892359D01*
X121651478Y-38894393D01*
X121658184Y-38893534D01*
X121668262Y-38891392D01*
X121872255Y-38830191D01*
X121881842Y-38826433D01*
X122073095Y-38732739D01*
X122081945Y-38727464D01*
X122255328Y-38603792D01*
X122263200Y-38597139D01*
X122414052Y-38446812D01*
X122420730Y-38438965D01*
X122545003Y-38266020D01*
X122550313Y-38257183D01*
X122644670Y-38066267D01*
X122648469Y-38056672D01*
X122710377Y-37852910D01*
X122712555Y-37842837D01*
X122713986Y-37831962D01*
X122713363Y-37827966D01*
X125128257Y-37827966D01*
X125158565Y-37962446D01*
X125161645Y-37972275D01*
X125241770Y-38169603D01*
X125246413Y-38178794D01*
X125357694Y-38360388D01*
X125363777Y-38368699D01*
X125503213Y-38529667D01*
X125510580Y-38536883D01*
X125674434Y-38672916D01*
X125682881Y-38678831D01*
X125866756Y-38786279D01*
X125876042Y-38790729D01*
X126075001Y-38866703D01*
X126084899Y-38869579D01*
X126188250Y-38890606D01*
X126202299Y-38889410D01*
X126206000Y-38879065D01*
X126206000Y-38878517D01*
X126714000Y-38878517D01*
X126718064Y-38892359D01*
X126731478Y-38894393D01*
X126738184Y-38893534D01*
X126748262Y-38891392D01*
X126952255Y-38830191D01*
X126961842Y-38826433D01*
X127153095Y-38732739D01*
X127161945Y-38727464D01*
X127335328Y-38603792D01*
X127343200Y-38597139D01*
X127494052Y-38446812D01*
X127500730Y-38438965D01*
X127625003Y-38266020D01*
X127630313Y-38257183D01*
X127724670Y-38066267D01*
X127728469Y-38056672D01*
X127790377Y-37852910D01*
X127792555Y-37842837D01*
X127793986Y-37831962D01*
X127791775Y-37817778D01*
X127778617Y-37814000D01*
X126732115Y-37814000D01*
X126716876Y-37818475D01*
X126715671Y-37819865D01*
X126714000Y-37827548D01*
X126714000Y-38878517D01*
X126206000Y-38878517D01*
X126206000Y-37832115D01*
X126201525Y-37816876D01*
X126200135Y-37815671D01*
X126192452Y-37814000D01*
X125143225Y-37814000D01*
X125129694Y-37817973D01*
X125128257Y-37827966D01*
X122713363Y-37827966D01*
X122711775Y-37817778D01*
X122698617Y-37814000D01*
X121652115Y-37814000D01*
X121636876Y-37818475D01*
X121635671Y-37819865D01*
X121634000Y-37827548D01*
X121634000Y-38878517D01*
X121126000Y-38878517D01*
X121126000Y-37432000D01*
X121146002Y-37363879D01*
X121199658Y-37317386D01*
X121252000Y-37306000D01*
X122698344Y-37306000D01*
X122711875Y-37302027D01*
X122713180Y-37292947D01*
X122671214Y-37125875D01*
X122667894Y-37116124D01*
X122582972Y-36920814D01*
X122578105Y-36911739D01*
X122462426Y-36732926D01*
X122456136Y-36724757D01*
X122312806Y-36567240D01*
X122305273Y-36560215D01*
X122138139Y-36428222D01*
X122129556Y-36422520D01*
X122092602Y-36402120D01*
X122042631Y-36351687D01*
X122027859Y-36282245D01*
X122052975Y-36215839D01*
X122080327Y-36189232D01*
X122104065Y-36172300D01*
X122259860Y-36061173D01*
X122418096Y-35903489D01*
X122421670Y-35898516D01*
X122545435Y-35726277D01*
X122548453Y-35722077D01*
X122555529Y-35707761D01*
X122645136Y-35526453D01*
X122645137Y-35526451D01*
X122647430Y-35521811D01*
X122691371Y-35377186D01*
X122710865Y-35313023D01*
X122710865Y-35313021D01*
X122712370Y-35308069D01*
X122741529Y-35086590D01*
X122742147Y-35061298D01*
X122743074Y-35023365D01*
X122743074Y-35023361D01*
X122743156Y-35020000D01*
X122740418Y-34986695D01*
X125097251Y-34986695D01*
X125097548Y-34991848D01*
X125097548Y-34991851D01*
X125103011Y-35086590D01*
X125110110Y-35209715D01*
X125111247Y-35214761D01*
X125111248Y-35214767D01*
X125131119Y-35302939D01*
X125159222Y-35427639D01*
X125243266Y-35634616D01*
X125288089Y-35707761D01*
X125357291Y-35820688D01*
X125359987Y-35825088D01*
X125506250Y-35993938D01*
X125678126Y-36136632D01*
X125698203Y-36148364D01*
X125751955Y-36179774D01*
X125800679Y-36231412D01*
X125813750Y-36301195D01*
X125787019Y-36366967D01*
X125746562Y-36400327D01*
X125738457Y-36404546D01*
X125729738Y-36410036D01*
X125559433Y-36537905D01*
X125551726Y-36544748D01*
X125404590Y-36698717D01*
X125398104Y-36706727D01*
X125278098Y-36882649D01*
X125273000Y-36891623D01*
X125183338Y-37084783D01*
X125179775Y-37094470D01*
X125124389Y-37294183D01*
X125125912Y-37302607D01*
X125138292Y-37306000D01*
X127778344Y-37306000D01*
X127791875Y-37302027D01*
X127793180Y-37292947D01*
X127751214Y-37125875D01*
X127747894Y-37116124D01*
X127662972Y-36920814D01*
X127658105Y-36911739D01*
X127542426Y-36732926D01*
X127536136Y-36724757D01*
X127392806Y-36567240D01*
X127385273Y-36560215D01*
X127218139Y-36428222D01*
X127209556Y-36422520D01*
X127172602Y-36402120D01*
X127122631Y-36351687D01*
X127107859Y-36282245D01*
X127132975Y-36215839D01*
X127160327Y-36189232D01*
X127184065Y-36172300D01*
X127339860Y-36061173D01*
X127498096Y-35903489D01*
X127501670Y-35898516D01*
X127625435Y-35726277D01*
X127628453Y-35722077D01*
X127635529Y-35707761D01*
X127725136Y-35526453D01*
X127725137Y-35526451D01*
X127727430Y-35521811D01*
X127771371Y-35377186D01*
X127790865Y-35313023D01*
X127790865Y-35313021D01*
X127792370Y-35308069D01*
X127821529Y-35086590D01*
X127822147Y-35061298D01*
X127823074Y-35023365D01*
X127823074Y-35023361D01*
X127823156Y-35020000D01*
X127804852Y-34797361D01*
X127750431Y-34580702D01*
X127661354Y-34375840D01*
X127540014Y-34188277D01*
X127536532Y-34184450D01*
X127392798Y-34026488D01*
X127361746Y-33962642D01*
X127370141Y-33892143D01*
X127415317Y-33837375D01*
X127441761Y-33823706D01*
X127548297Y-33783767D01*
X127556705Y-33780615D01*
X127673261Y-33693261D01*
X127760615Y-33576705D01*
X127811745Y-33440316D01*
X127818500Y-33378134D01*
X127818500Y-31581866D01*
X127811745Y-31519684D01*
X127760615Y-31383295D01*
X127673261Y-31266739D01*
X127556705Y-31179385D01*
X127420316Y-31128255D01*
X127358134Y-31121500D01*
X125561866Y-31121500D01*
X125499684Y-31128255D01*
X125363295Y-31179385D01*
X125246739Y-31266739D01*
X125159385Y-31383295D01*
X125108255Y-31519684D01*
X125101500Y-31581866D01*
X125101500Y-33378134D01*
X125108255Y-33440316D01*
X125159385Y-33576705D01*
X125246739Y-33693261D01*
X125363295Y-33780615D01*
X125371704Y-33783767D01*
X125371705Y-33783768D01*
X125480451Y-33824535D01*
X125537216Y-33867176D01*
X125561916Y-33933738D01*
X125546709Y-34003087D01*
X125527316Y-34029568D01*
X125400629Y-34162138D01*
X125274743Y-34346680D01*
X125180688Y-34549305D01*
X125120989Y-34764570D01*
X125097251Y-34986695D01*
X122740418Y-34986695D01*
X122724852Y-34797361D01*
X122670431Y-34580702D01*
X122581354Y-34375840D01*
X122460014Y-34188277D01*
X122309670Y-34023051D01*
X122305619Y-34019852D01*
X122305615Y-34019848D01*
X122138414Y-33887800D01*
X122138410Y-33887798D01*
X122134359Y-33884598D01*
X122093053Y-33861796D01*
X122043084Y-33811364D01*
X122028312Y-33741921D01*
X122053428Y-33675516D01*
X122080780Y-33648909D01*
X122124603Y-33617650D01*
X122259860Y-33521173D01*
X122316464Y-33464767D01*
X122388355Y-33393126D01*
X122418096Y-33363489D01*
X122548453Y-33182077D01*
X122562078Y-33154510D01*
X122645136Y-32986453D01*
X122645137Y-32986451D01*
X122647430Y-32981811D01*
X122712370Y-32768069D01*
X122741529Y-32546590D01*
X122743156Y-32480000D01*
X122724852Y-32257361D01*
X122670431Y-32040702D01*
X122581354Y-31835840D01*
X122526921Y-31751700D01*
X122462822Y-31652617D01*
X122462820Y-31652614D01*
X122460014Y-31648277D01*
X122309670Y-31483051D01*
X122305619Y-31479852D01*
X122305615Y-31479848D01*
X122138414Y-31347800D01*
X122138410Y-31347798D01*
X122134359Y-31344598D01*
X121938789Y-31236638D01*
X121933920Y-31234914D01*
X121933916Y-31234912D01*
X121733087Y-31163795D01*
X121733083Y-31163794D01*
X121728212Y-31162069D01*
X121723119Y-31161162D01*
X121723116Y-31161161D01*
X121513373Y-31123800D01*
X121513367Y-31123799D01*
X121508284Y-31122894D01*
X121434452Y-31121992D01*
X121290081Y-31120228D01*
X121290079Y-31120228D01*
X121284911Y-31120165D01*
X121064091Y-31153955D01*
X120851756Y-31223357D01*
X120813081Y-31243490D01*
X120659403Y-31323490D01*
X120653607Y-31326507D01*
X120649474Y-31329610D01*
X120649471Y-31329612D01*
X120481198Y-31455955D01*
X120474965Y-31460635D01*
X120418235Y-31520000D01*
X120394283Y-31545064D01*
X120332759Y-31580494D01*
X120261846Y-31577037D01*
X120204060Y-31535791D01*
X120185207Y-31502243D01*
X120143767Y-31391703D01*
X120140615Y-31383295D01*
X120053261Y-31266739D01*
X119936705Y-31179385D01*
X119800316Y-31128255D01*
X119738134Y-31121500D01*
X117941866Y-31121500D01*
X117879684Y-31128255D01*
X117743295Y-31179385D01*
X117626739Y-31266739D01*
X117539385Y-31383295D01*
X117488255Y-31519684D01*
X117481500Y-31581866D01*
X117481500Y-33378134D01*
X117488255Y-33440316D01*
X117539385Y-33576705D01*
X117626739Y-33693261D01*
X117743295Y-33780615D01*
X117751704Y-33783767D01*
X117751705Y-33783768D01*
X117860451Y-33824535D01*
X117917216Y-33867176D01*
X117941916Y-33933738D01*
X117926709Y-34003087D01*
X117907316Y-34029568D01*
X117780629Y-34162138D01*
X117654743Y-34346680D01*
X117560688Y-34549305D01*
X117500989Y-34764570D01*
X117477251Y-34986695D01*
X117477548Y-34991848D01*
X117477548Y-34991851D01*
X117483011Y-35086590D01*
X117490110Y-35209715D01*
X117491247Y-35214761D01*
X117491248Y-35214767D01*
X117511119Y-35302939D01*
X117539222Y-35427639D01*
X117623266Y-35634616D01*
X117668089Y-35707761D01*
X117737291Y-35820688D01*
X117739987Y-35825088D01*
X117886250Y-35993938D01*
X118058126Y-36136632D01*
X118078203Y-36148364D01*
X118131445Y-36179476D01*
X118180169Y-36231114D01*
X118193240Y-36300897D01*
X118166509Y-36366669D01*
X118126055Y-36400027D01*
X118113607Y-36406507D01*
X118109474Y-36409610D01*
X118109471Y-36409612D01*
X117939100Y-36537530D01*
X117934965Y-36540635D01*
X117931393Y-36544373D01*
X117825453Y-36655233D01*
X117780629Y-36702138D01*
X117777715Y-36706410D01*
X117777714Y-36706411D01*
X117765404Y-36724457D01*
X117654743Y-36886680D01*
X117639003Y-36920590D01*
X117580024Y-37047650D01*
X117560688Y-37089305D01*
X117500989Y-37304570D01*
X117477251Y-37526695D01*
X115120418Y-37526695D01*
X115104852Y-37337361D01*
X115050431Y-37120702D01*
X114961354Y-36915840D01*
X114840014Y-36728277D01*
X114689670Y-36563051D01*
X114685619Y-36559852D01*
X114685615Y-36559848D01*
X114518414Y-36427800D01*
X114518410Y-36427798D01*
X114514359Y-36424598D01*
X114473053Y-36401796D01*
X114423084Y-36351364D01*
X114408312Y-36281921D01*
X114433428Y-36215516D01*
X114460780Y-36188909D01*
X114529191Y-36140112D01*
X114639860Y-36061173D01*
X114798096Y-35903489D01*
X114801670Y-35898516D01*
X114925435Y-35726277D01*
X114928453Y-35722077D01*
X114935529Y-35707761D01*
X115025136Y-35526453D01*
X115025137Y-35526451D01*
X115027430Y-35521811D01*
X115071371Y-35377186D01*
X115090865Y-35313023D01*
X115090865Y-35313021D01*
X115092370Y-35308069D01*
X115121529Y-35086590D01*
X115122147Y-35061298D01*
X115123074Y-35023365D01*
X115123074Y-35023361D01*
X115123156Y-35020000D01*
X115104852Y-34797361D01*
X115050431Y-34580702D01*
X114961354Y-34375840D01*
X114840014Y-34188277D01*
X114836532Y-34184450D01*
X114692798Y-34026488D01*
X114661746Y-33962642D01*
X114670141Y-33892143D01*
X114715317Y-33837375D01*
X114741761Y-33823706D01*
X114848297Y-33783767D01*
X114856705Y-33780615D01*
X114973261Y-33693261D01*
X115060615Y-33576705D01*
X115111745Y-33440316D01*
X115118500Y-33378134D01*
X115118500Y-31581866D01*
X115111745Y-31519684D01*
X115060615Y-31383295D01*
X114973261Y-31266739D01*
X114856705Y-31179385D01*
X114720316Y-31128255D01*
X114658134Y-31121500D01*
X112861866Y-31121500D01*
X112799684Y-31128255D01*
X112663295Y-31179385D01*
X112546739Y-31266739D01*
X112459385Y-31383295D01*
X112408255Y-31519684D01*
X112401500Y-31581866D01*
X112401500Y-33378134D01*
X112408255Y-33440316D01*
X112459385Y-33576705D01*
X112546739Y-33693261D01*
X112663295Y-33780615D01*
X112671704Y-33783767D01*
X112671705Y-33783768D01*
X112780451Y-33824535D01*
X112837216Y-33867176D01*
X112861916Y-33933738D01*
X112846709Y-34003087D01*
X112827316Y-34029568D01*
X112700629Y-34162138D01*
X112574743Y-34346680D01*
X112480688Y-34549305D01*
X112420989Y-34764570D01*
X112397251Y-34986695D01*
X112397548Y-34991848D01*
X112397548Y-34991851D01*
X112403011Y-35086590D01*
X112410110Y-35209715D01*
X112411247Y-35214761D01*
X112411248Y-35214767D01*
X112431119Y-35302939D01*
X112459222Y-35427639D01*
X112543266Y-35634616D01*
X112588089Y-35707761D01*
X112657291Y-35820688D01*
X112659987Y-35825088D01*
X112806250Y-35993938D01*
X112978126Y-36136632D01*
X112998203Y-36148364D01*
X113051445Y-36179476D01*
X113100169Y-36231114D01*
X113113240Y-36300897D01*
X113086509Y-36366669D01*
X113046055Y-36400027D01*
X113033607Y-36406507D01*
X113029474Y-36409610D01*
X113029471Y-36409612D01*
X112859100Y-36537530D01*
X112854965Y-36540635D01*
X112851393Y-36544373D01*
X112745453Y-36655233D01*
X112700629Y-36702138D01*
X112697715Y-36706410D01*
X112697714Y-36706411D01*
X112685404Y-36724457D01*
X112574743Y-36886680D01*
X112559003Y-36920590D01*
X112500024Y-37047650D01*
X112480688Y-37089305D01*
X112420989Y-37304570D01*
X112397251Y-37526695D01*
X111684808Y-37526695D01*
X111719473Y-37412239D01*
X111721595Y-37405233D01*
X111732547Y-37228702D01*
X111722840Y-37172207D01*
X111703834Y-37061602D01*
X111703834Y-37061601D01*
X111702594Y-37054386D01*
X111698809Y-37045490D01*
X111657199Y-36947700D01*
X111648933Y-36877186D01*
X111664186Y-36835083D01*
X111666646Y-36830847D01*
X111666649Y-36830841D01*
X111670326Y-36824510D01*
X111673021Y-36815614D01*
X111719473Y-36662239D01*
X111721595Y-36655233D01*
X111732547Y-36478702D01*
X111723801Y-36427800D01*
X111703834Y-36311602D01*
X111703834Y-36311601D01*
X111702594Y-36304386D01*
X111698809Y-36295490D01*
X111657199Y-36197700D01*
X111648933Y-36127186D01*
X111664186Y-36085083D01*
X111666646Y-36080847D01*
X111666649Y-36080841D01*
X111670326Y-36074510D01*
X111673021Y-36065614D01*
X111719473Y-35912239D01*
X111721595Y-35905233D01*
X111732547Y-35728702D01*
X111730612Y-35717438D01*
X111703834Y-35561602D01*
X111703834Y-35561601D01*
X111702594Y-35554386D01*
X111698809Y-35545490D01*
X111657199Y-35447700D01*
X111648933Y-35377186D01*
X111664186Y-35335083D01*
X111666646Y-35330847D01*
X111666649Y-35330841D01*
X111670326Y-35324510D01*
X111673021Y-35315614D01*
X111719473Y-35162239D01*
X111721595Y-35155233D01*
X111732547Y-34978702D01*
X111702594Y-34804386D01*
X111697469Y-34792342D01*
X111657199Y-34697700D01*
X111648933Y-34627186D01*
X111664186Y-34585083D01*
X111666646Y-34580847D01*
X111666649Y-34580841D01*
X111670326Y-34574510D01*
X111673021Y-34565614D01*
X111719473Y-34412239D01*
X111721595Y-34405233D01*
X111732547Y-34228702D01*
X111726347Y-34192617D01*
X111703834Y-34061602D01*
X111703834Y-34061601D01*
X111702594Y-34054386D01*
X111698809Y-34045490D01*
X111657199Y-33947700D01*
X111648933Y-33877186D01*
X111664186Y-33835083D01*
X111666646Y-33830847D01*
X111666649Y-33830841D01*
X111670326Y-33824510D01*
X111673021Y-33815614D01*
X111719473Y-33662239D01*
X111721595Y-33655233D01*
X111732547Y-33478702D01*
X111727223Y-33447715D01*
X111703834Y-33311602D01*
X111703834Y-33311601D01*
X111702594Y-33304386D01*
X111698809Y-33295490D01*
X111657199Y-33197700D01*
X111648933Y-33127186D01*
X111664186Y-33085083D01*
X111666646Y-33080847D01*
X111666649Y-33080841D01*
X111670326Y-33074510D01*
X111673021Y-33065614D01*
X111719473Y-32912239D01*
X111721595Y-32905233D01*
X111732547Y-32728702D01*
X111702594Y-32554386D01*
X111633343Y-32391636D01*
X111629010Y-32385748D01*
X111629007Y-32385743D01*
X111584519Y-32325292D01*
X111560253Y-32258571D01*
X111569592Y-32202391D01*
X111656734Y-31992012D01*
X111656735Y-31992010D01*
X111658628Y-31987439D01*
X111714040Y-31756633D01*
X111719045Y-31693040D01*
X111735292Y-31640354D01*
X111814410Y-31502070D01*
X111822963Y-31489058D01*
X111985867Y-31271780D01*
X111995960Y-31259923D01*
X112184409Y-31064409D01*
X112195887Y-31053886D01*
X112303563Y-30966789D01*
X112407029Y-30883097D01*
X112419707Y-30874078D01*
X112650307Y-30730634D01*
X112664008Y-30723245D01*
X112910527Y-30609347D01*
X112925038Y-30603702D01*
X113183724Y-30521079D01*
X113198820Y-30517267D01*
X113283873Y-30501308D01*
X113465727Y-30467183D01*
X113481179Y-30465263D01*
X113592440Y-30458375D01*
X113718036Y-30450599D01*
X113743740Y-30451791D01*
X113744858Y-30451805D01*
X113753730Y-30453186D01*
X113762632Y-30452022D01*
X113762635Y-30452022D01*
X113785251Y-30449064D01*
X113801589Y-30448000D01*
X126410670Y-30448000D01*
X126430055Y-30449500D01*
G37*
%TD.AperFunction*%
%TD*%
%TA.AperFunction,Conductor*%
%TO.N,GND_4*%
G36*
X122778687Y-42450039D02*
G01*
X122901491Y-42500906D01*
X122978571Y-42532833D01*
X122992561Y-42538628D01*
X123073660Y-42558098D01*
X123218554Y-42592885D01*
X123218560Y-42592886D01*
X123223367Y-42594040D01*
X123418071Y-42609363D01*
X123426343Y-42610014D01*
X123437363Y-42611372D01*
X123442670Y-42612265D01*
X123442671Y-42612265D01*
X123447461Y-42613071D01*
X123453700Y-42613147D01*
X123455141Y-42613165D01*
X123455145Y-42613165D01*
X123460000Y-42613224D01*
X123487588Y-42609273D01*
X123505451Y-42608000D01*
X126370670Y-42608000D01*
X126390055Y-42609500D01*
X126404856Y-42611805D01*
X126404859Y-42611805D01*
X126413728Y-42613186D01*
X126431105Y-42610914D01*
X126454897Y-42610071D01*
X126695499Y-42624349D01*
X126710309Y-42626113D01*
X126974580Y-42673606D01*
X126989081Y-42677110D01*
X127142634Y-42723997D01*
X127245877Y-42755523D01*
X127259867Y-42760719D01*
X127366396Y-42807641D01*
X127505590Y-42868952D01*
X127518870Y-42875768D01*
X127750067Y-43012302D01*
X127762448Y-43020641D01*
X127975876Y-43183559D01*
X127987171Y-43193292D01*
X128079414Y-43282831D01*
X128179837Y-43380312D01*
X128189913Y-43391325D01*
X128359100Y-43599805D01*
X128367803Y-43611933D01*
X128443107Y-43731199D01*
X128462178Y-43788582D01*
X128465960Y-43836633D01*
X128521372Y-44067439D01*
X128523265Y-44072010D01*
X128523266Y-44072012D01*
X128608465Y-44277702D01*
X128616054Y-44348292D01*
X128597144Y-44391754D01*
X128598510Y-44392547D01*
X128509674Y-44545490D01*
X128507553Y-44552494D01*
X128507551Y-44552498D01*
X128467879Y-44683488D01*
X128458405Y-44714767D01*
X128447453Y-44891298D01*
X128448693Y-44898514D01*
X128448693Y-44898516D01*
X128462339Y-44977928D01*
X128477406Y-45065614D01*
X128480272Y-45072348D01*
X128480272Y-45072350D01*
X128522801Y-45172300D01*
X128531067Y-45242814D01*
X128515814Y-45284917D01*
X128513354Y-45289153D01*
X128513351Y-45289159D01*
X128509674Y-45295490D01*
X128507553Y-45302494D01*
X128507551Y-45302498D01*
X128467879Y-45433488D01*
X128458405Y-45464767D01*
X128447453Y-45641298D01*
X128448693Y-45648514D01*
X128448693Y-45648516D01*
X128462339Y-45727928D01*
X128477406Y-45815614D01*
X128480272Y-45822348D01*
X128480272Y-45822350D01*
X128522801Y-45922300D01*
X128531067Y-45992814D01*
X128515814Y-46034917D01*
X128513354Y-46039153D01*
X128513351Y-46039159D01*
X128509674Y-46045490D01*
X128507553Y-46052494D01*
X128507551Y-46052498D01*
X128473999Y-46163278D01*
X128458405Y-46214767D01*
X128447453Y-46391298D01*
X128448693Y-46398514D01*
X128448693Y-46398516D01*
X128476166Y-46558398D01*
X128477406Y-46565614D01*
X128480272Y-46572348D01*
X128480272Y-46572350D01*
X128522801Y-46672300D01*
X128531067Y-46742814D01*
X128515814Y-46784917D01*
X128513354Y-46789153D01*
X128513351Y-46789159D01*
X128509674Y-46795490D01*
X128507553Y-46802494D01*
X128507551Y-46802498D01*
X128474100Y-46912947D01*
X128458405Y-46964767D01*
X128447453Y-47141298D01*
X128477406Y-47315614D01*
X128480272Y-47322348D01*
X128480272Y-47322350D01*
X128522801Y-47422300D01*
X128531067Y-47492814D01*
X128515814Y-47534917D01*
X128513354Y-47539153D01*
X128513351Y-47539159D01*
X128509674Y-47545490D01*
X128507553Y-47552494D01*
X128507551Y-47552498D01*
X128469943Y-47676672D01*
X128458405Y-47714767D01*
X128447453Y-47891298D01*
X128448693Y-47898514D01*
X128448693Y-47898516D01*
X128464798Y-47992239D01*
X128477406Y-48065614D01*
X128480272Y-48072348D01*
X128480272Y-48072350D01*
X128522801Y-48172300D01*
X128531067Y-48242814D01*
X128515814Y-48284917D01*
X128513354Y-48289153D01*
X128513351Y-48289159D01*
X128509674Y-48295490D01*
X128507553Y-48302494D01*
X128507551Y-48302498D01*
X128480062Y-48393261D01*
X128458405Y-48464767D01*
X128447453Y-48641298D01*
X128477406Y-48815614D01*
X128480272Y-48822348D01*
X128480272Y-48822350D01*
X128522801Y-48922300D01*
X128531067Y-48992814D01*
X128515814Y-49034917D01*
X128513354Y-49039153D01*
X128513351Y-49039159D01*
X128509674Y-49045490D01*
X128507553Y-49052494D01*
X128507551Y-49052498D01*
X128474577Y-49161372D01*
X128458405Y-49214767D01*
X128447453Y-49391298D01*
X128448693Y-49398514D01*
X128448693Y-49398516D01*
X128465678Y-49497361D01*
X128477406Y-49565614D01*
X128546657Y-49728364D01*
X128550990Y-49734252D01*
X128550993Y-49734257D01*
X128595481Y-49794708D01*
X128619747Y-49861429D01*
X128610408Y-49917608D01*
X128575063Y-50002939D01*
X128524602Y-50124764D01*
X128521372Y-50132561D01*
X128501902Y-50213660D01*
X128467115Y-50358554D01*
X128467115Y-50358556D01*
X128465960Y-50363367D01*
X128461009Y-50426277D01*
X128459621Y-50443914D01*
X128446293Y-50491198D01*
X128380850Y-50619726D01*
X128379111Y-50623142D01*
X128371755Y-50635729D01*
X128234726Y-50841839D01*
X128225965Y-50853493D01*
X128066047Y-51042391D01*
X128056000Y-51052954D01*
X127875327Y-51222122D01*
X127864126Y-51231454D01*
X127665127Y-51378615D01*
X127652922Y-51386591D01*
X127438253Y-51509780D01*
X127425210Y-51516293D01*
X127197747Y-51613861D01*
X127184039Y-51618823D01*
X127065435Y-51654143D01*
X126946828Y-51689464D01*
X126932647Y-51692808D01*
X126835922Y-51709776D01*
X126688858Y-51735574D01*
X126674377Y-51737258D01*
X126462246Y-51749552D01*
X126435576Y-51748263D01*
X126426269Y-51746814D01*
X126396346Y-51750727D01*
X126394748Y-51750936D01*
X126378410Y-51752000D01*
X123513207Y-51752000D01*
X123492303Y-51750254D01*
X123485455Y-51749102D01*
X123472539Y-51746929D01*
X123466419Y-51746854D01*
X123464867Y-51746835D01*
X123464862Y-51746835D01*
X123460000Y-51746776D01*
X123455184Y-51747466D01*
X123455100Y-51747471D01*
X123447313Y-51748335D01*
X123223367Y-51765960D01*
X123218560Y-51767114D01*
X123218554Y-51767115D01*
X123091753Y-51797558D01*
X122992561Y-51821372D01*
X122987990Y-51823265D01*
X122987988Y-51823266D01*
X122956623Y-51836258D01*
X122780283Y-51909300D01*
X122709694Y-51916889D01*
X122650489Y-51888917D01*
X122633715Y-51874667D01*
X122524045Y-51818666D01*
X122482708Y-51797558D01*
X122482706Y-51797557D01*
X122476192Y-51794231D01*
X122469087Y-51792492D01*
X122469083Y-51792491D01*
X122364162Y-51766818D01*
X122304390Y-51752192D01*
X122298788Y-51751844D01*
X122298785Y-51751844D01*
X122295175Y-51751620D01*
X122295165Y-51751620D01*
X122293236Y-51751500D01*
X122165707Y-51751500D01*
X122095964Y-51759631D01*
X122041589Y-51765970D01*
X122041585Y-51765971D01*
X122034319Y-51766818D01*
X122027444Y-51769313D01*
X122027442Y-51769314D01*
X121874338Y-51824889D01*
X121803480Y-51829330D01*
X121774044Y-51818666D01*
X121732712Y-51797560D01*
X121732707Y-51797558D01*
X121726192Y-51794231D01*
X121554390Y-51752192D01*
X121548788Y-51751844D01*
X121548785Y-51751844D01*
X121545175Y-51751620D01*
X121545165Y-51751620D01*
X121543236Y-51751500D01*
X121415707Y-51751500D01*
X121345964Y-51759631D01*
X121291589Y-51765970D01*
X121291585Y-51765971D01*
X121284319Y-51766818D01*
X121277444Y-51769313D01*
X121277442Y-51769314D01*
X121124338Y-51824889D01*
X121053480Y-51829330D01*
X121024044Y-51818666D01*
X120982712Y-51797560D01*
X120982707Y-51797558D01*
X120976192Y-51794231D01*
X120804390Y-51752192D01*
X120798788Y-51751844D01*
X120798785Y-51751844D01*
X120795175Y-51751620D01*
X120795165Y-51751620D01*
X120793236Y-51751500D01*
X120665707Y-51751500D01*
X120595964Y-51759631D01*
X120541589Y-51765970D01*
X120541585Y-51765971D01*
X120534319Y-51766818D01*
X120527444Y-51769313D01*
X120527442Y-51769314D01*
X120374338Y-51824889D01*
X120303480Y-51829330D01*
X120274044Y-51818666D01*
X120232712Y-51797560D01*
X120232707Y-51797558D01*
X120226192Y-51794231D01*
X120054390Y-51752192D01*
X120048788Y-51751844D01*
X120048785Y-51751844D01*
X120045175Y-51751620D01*
X120045165Y-51751620D01*
X120043236Y-51751500D01*
X119915707Y-51751500D01*
X119845964Y-51759631D01*
X119791589Y-51765970D01*
X119791585Y-51765971D01*
X119784319Y-51766818D01*
X119777444Y-51769313D01*
X119777442Y-51769314D01*
X119624338Y-51824889D01*
X119553480Y-51829330D01*
X119524044Y-51818666D01*
X119482712Y-51797560D01*
X119482707Y-51797558D01*
X119476192Y-51794231D01*
X119304390Y-51752192D01*
X119298788Y-51751844D01*
X119298785Y-51751844D01*
X119295175Y-51751620D01*
X119295165Y-51751620D01*
X119293236Y-51751500D01*
X119165707Y-51751500D01*
X119095964Y-51759631D01*
X119041589Y-51765970D01*
X119041585Y-51765971D01*
X119034319Y-51766818D01*
X119027444Y-51769313D01*
X119027442Y-51769314D01*
X118874338Y-51824889D01*
X118803480Y-51829330D01*
X118774044Y-51818666D01*
X118732712Y-51797560D01*
X118732707Y-51797558D01*
X118726192Y-51794231D01*
X118554390Y-51752192D01*
X118548788Y-51751844D01*
X118548785Y-51751844D01*
X118545175Y-51751620D01*
X118545165Y-51751620D01*
X118543236Y-51751500D01*
X118415707Y-51751500D01*
X118345964Y-51759631D01*
X118291589Y-51765970D01*
X118291585Y-51765971D01*
X118284319Y-51766818D01*
X118277444Y-51769313D01*
X118277442Y-51769314D01*
X118124338Y-51824889D01*
X118053480Y-51829330D01*
X118024044Y-51818666D01*
X117982712Y-51797560D01*
X117982707Y-51797558D01*
X117976192Y-51794231D01*
X117804390Y-51752192D01*
X117798788Y-51751844D01*
X117798785Y-51751844D01*
X117795175Y-51751620D01*
X117795165Y-51751620D01*
X117793236Y-51751500D01*
X117665707Y-51751500D01*
X117595964Y-51759631D01*
X117541589Y-51765970D01*
X117541585Y-51765971D01*
X117534319Y-51766818D01*
X117527444Y-51769313D01*
X117527442Y-51769314D01*
X117378810Y-51823266D01*
X117368063Y-51827167D01*
X117361946Y-51831178D01*
X117361943Y-51831179D01*
X117258615Y-51898924D01*
X117190679Y-51919547D01*
X117141313Y-51909961D01*
X116963377Y-51836258D01*
X116932012Y-51823266D01*
X116932010Y-51823265D01*
X116927439Y-51821372D01*
X116828247Y-51797558D01*
X116701446Y-51767115D01*
X116701440Y-51767114D01*
X116696633Y-51765960D01*
X116493657Y-51749986D01*
X116482637Y-51748628D01*
X116477330Y-51747735D01*
X116477329Y-51747735D01*
X116472539Y-51746929D01*
X116466300Y-51746853D01*
X116464859Y-51746835D01*
X116464855Y-51746835D01*
X116460000Y-51746776D01*
X116432412Y-51750727D01*
X116414549Y-51752000D01*
X113769328Y-51752000D01*
X113749943Y-51750500D01*
X113735142Y-51748195D01*
X113735139Y-51748195D01*
X113726270Y-51746814D01*
X113708774Y-51749102D01*
X113685058Y-51749950D01*
X113469531Y-51737302D01*
X113454871Y-51735575D01*
X113307156Y-51709329D01*
X113215117Y-51692975D01*
X113200771Y-51689549D01*
X112967649Y-51619200D01*
X112953791Y-51614115D01*
X112730492Y-51516981D01*
X112717323Y-51510309D01*
X112506931Y-51387732D01*
X112494632Y-51379566D01*
X112300016Y-51233217D01*
X112288758Y-51223669D01*
X112112587Y-51055556D01*
X112102522Y-51044756D01*
X112089502Y-51029030D01*
X111947235Y-50857204D01*
X111938502Y-50845301D01*
X111806209Y-50640861D01*
X111798929Y-50628019D01*
X111785148Y-50600000D01*
X111733318Y-50494622D01*
X111720771Y-50448900D01*
X111714428Y-50368300D01*
X111714040Y-50363367D01*
X111712885Y-50358554D01*
X111687328Y-50252103D01*
X111658628Y-50132561D01*
X111656589Y-50127639D01*
X111571535Y-49922298D01*
X111563946Y-49851708D01*
X111582856Y-49808246D01*
X111581490Y-49807453D01*
X111631340Y-49721630D01*
X111651632Y-49686695D01*
X112357251Y-49686695D01*
X112357548Y-49691848D01*
X112357548Y-49691851D01*
X112363011Y-49786590D01*
X112370110Y-49909715D01*
X112371247Y-49914761D01*
X112371248Y-49914767D01*
X112391119Y-50002939D01*
X112419222Y-50127639D01*
X112503266Y-50334616D01*
X112619987Y-50525088D01*
X112766250Y-50693938D01*
X112938126Y-50836632D01*
X113131000Y-50949338D01*
X113339692Y-51029030D01*
X113344760Y-51030061D01*
X113344763Y-51030062D01*
X113452017Y-51051883D01*
X113558597Y-51073567D01*
X113563772Y-51073757D01*
X113563774Y-51073757D01*
X113776673Y-51081564D01*
X113776677Y-51081564D01*
X113781837Y-51081753D01*
X113786957Y-51081097D01*
X113786959Y-51081097D01*
X113998288Y-51054025D01*
X113998289Y-51054025D01*
X114003416Y-51053368D01*
X114008366Y-51051883D01*
X114212429Y-50990661D01*
X114212434Y-50990659D01*
X114217384Y-50989174D01*
X114417994Y-50890896D01*
X114599860Y-50761173D01*
X114758096Y-50603489D01*
X114817594Y-50520689D01*
X114885435Y-50426277D01*
X114888453Y-50422077D01*
X114987430Y-50221811D01*
X115052370Y-50008069D01*
X115081529Y-49786590D01*
X115083156Y-49720000D01*
X115064852Y-49497361D01*
X115010431Y-49280702D01*
X114921354Y-49075840D01*
X114853941Y-48971636D01*
X114802822Y-48892617D01*
X114802820Y-48892614D01*
X114800014Y-48888277D01*
X114649670Y-48723051D01*
X114645619Y-48719852D01*
X114645615Y-48719848D01*
X114478414Y-48587800D01*
X114478410Y-48587798D01*
X114474359Y-48584598D01*
X114432569Y-48561529D01*
X114382598Y-48511097D01*
X114367826Y-48441654D01*
X114392942Y-48375248D01*
X114420294Y-48348641D01*
X114595328Y-48223792D01*
X114603200Y-48217139D01*
X114754052Y-48066812D01*
X114760730Y-48058965D01*
X114885003Y-47886020D01*
X114890313Y-47877183D01*
X114984670Y-47686267D01*
X114988469Y-47676672D01*
X115050377Y-47472910D01*
X115052555Y-47462837D01*
X115053986Y-47451962D01*
X115051775Y-47437778D01*
X115038617Y-47434000D01*
X112403225Y-47434000D01*
X112389694Y-47437973D01*
X112388257Y-47447966D01*
X112418565Y-47582446D01*
X112421645Y-47592275D01*
X112501770Y-47789603D01*
X112506413Y-47798794D01*
X112617694Y-47980388D01*
X112623777Y-47988699D01*
X112763213Y-48149667D01*
X112770580Y-48156883D01*
X112934434Y-48292916D01*
X112942881Y-48298831D01*
X113011969Y-48339203D01*
X113060693Y-48390842D01*
X113073764Y-48460625D01*
X113047033Y-48526396D01*
X113006584Y-48559752D01*
X112993607Y-48566507D01*
X112989474Y-48569610D01*
X112989471Y-48569612D01*
X112884381Y-48648516D01*
X112814965Y-48700635D01*
X112660629Y-48862138D01*
X112534743Y-49046680D01*
X112440688Y-49249305D01*
X112380989Y-49464570D01*
X112357251Y-49686695D01*
X111651632Y-49686695D01*
X111670326Y-49654510D01*
X111699436Y-49558398D01*
X111719473Y-49492239D01*
X111721595Y-49485233D01*
X111732547Y-49308702D01*
X111722840Y-49252207D01*
X111703834Y-49141602D01*
X111703834Y-49141601D01*
X111702594Y-49134386D01*
X111683785Y-49090181D01*
X111657199Y-49027700D01*
X111648933Y-48957186D01*
X111664186Y-48915083D01*
X111666646Y-48910847D01*
X111666649Y-48910841D01*
X111670326Y-48904510D01*
X111673929Y-48892617D01*
X111719473Y-48742239D01*
X111721595Y-48735233D01*
X111732547Y-48558702D01*
X111729013Y-48538131D01*
X111703834Y-48391602D01*
X111703834Y-48391601D01*
X111702594Y-48384386D01*
X111692288Y-48360165D01*
X111657199Y-48277700D01*
X111648933Y-48207186D01*
X111664186Y-48165083D01*
X111666646Y-48160847D01*
X111666649Y-48160841D01*
X111670326Y-48154510D01*
X111677005Y-48132460D01*
X111719473Y-47992239D01*
X111721595Y-47985233D01*
X111732547Y-47808702D01*
X111730845Y-47798794D01*
X111703834Y-47641602D01*
X111703834Y-47641601D01*
X111702594Y-47634386D01*
X111684676Y-47592275D01*
X111657199Y-47527700D01*
X111648933Y-47457186D01*
X111664186Y-47415083D01*
X111666646Y-47410847D01*
X111666649Y-47410841D01*
X111670326Y-47404510D01*
X111699436Y-47308398D01*
X111719473Y-47242239D01*
X111721595Y-47235233D01*
X111732547Y-47058702D01*
X111702594Y-46884386D01*
X111699728Y-46877650D01*
X111657199Y-46777700D01*
X111648933Y-46707186D01*
X111664186Y-46665083D01*
X111666646Y-46660847D01*
X111666649Y-46660841D01*
X111670326Y-46654510D01*
X111699436Y-46558398D01*
X111719473Y-46492239D01*
X111721595Y-46485233D01*
X111732547Y-46308702D01*
X111702594Y-46134386D01*
X111699728Y-46127650D01*
X111657199Y-46027700D01*
X111648933Y-45957186D01*
X111664186Y-45915083D01*
X111666646Y-45910847D01*
X111666649Y-45910841D01*
X111670326Y-45904510D01*
X111676305Y-45884771D01*
X111719473Y-45742239D01*
X111721595Y-45735233D01*
X111732547Y-45558702D01*
X111729597Y-45541531D01*
X111729013Y-45538134D01*
X112361500Y-45538134D01*
X112368255Y-45600316D01*
X112419385Y-45736705D01*
X112506739Y-45853261D01*
X112623295Y-45940615D01*
X112631704Y-45943767D01*
X112631705Y-45943768D01*
X112740960Y-45984726D01*
X112797725Y-46027367D01*
X112822425Y-46093929D01*
X112807218Y-46163278D01*
X112787825Y-46189759D01*
X112664590Y-46318717D01*
X112658104Y-46326727D01*
X112538098Y-46502649D01*
X112533000Y-46511623D01*
X112443338Y-46704783D01*
X112439775Y-46714470D01*
X112384389Y-46914183D01*
X112385912Y-46922607D01*
X112398292Y-46926000D01*
X115038344Y-46926000D01*
X115051875Y-46922027D01*
X115053180Y-46912947D01*
X115011214Y-46745875D01*
X115007894Y-46736124D01*
X114922972Y-46540814D01*
X114918105Y-46531739D01*
X114802426Y-46352926D01*
X114796136Y-46344757D01*
X114652293Y-46186677D01*
X114621241Y-46122831D01*
X114629635Y-46052333D01*
X114674812Y-45997564D01*
X114701256Y-45983895D01*
X114808297Y-45943767D01*
X114816705Y-45940615D01*
X114933261Y-45853261D01*
X115020615Y-45736705D01*
X115071745Y-45600316D01*
X115078500Y-45538134D01*
X115078500Y-44606695D01*
X125057251Y-44606695D01*
X125057548Y-44611848D01*
X125057548Y-44611851D01*
X125063011Y-44706590D01*
X125070110Y-44829715D01*
X125071247Y-44834761D01*
X125071248Y-44834767D01*
X125085615Y-44898516D01*
X125119222Y-45047639D01*
X125203266Y-45254616D01*
X125319987Y-45445088D01*
X125466250Y-45613938D01*
X125470230Y-45617242D01*
X125474981Y-45621187D01*
X125514616Y-45680090D01*
X125516113Y-45751071D01*
X125478997Y-45811593D01*
X125438725Y-45836112D01*
X125378627Y-45858642D01*
X125323295Y-45879385D01*
X125206739Y-45966739D01*
X125119385Y-46083295D01*
X125068255Y-46219684D01*
X125061500Y-46281866D01*
X125061500Y-48078134D01*
X125068255Y-48140316D01*
X125119385Y-48276705D01*
X125206739Y-48393261D01*
X125323295Y-48480615D01*
X125459684Y-48531745D01*
X125521866Y-48538500D01*
X127318134Y-48538500D01*
X127380316Y-48531745D01*
X127516705Y-48480615D01*
X127633261Y-48393261D01*
X127720615Y-48276705D01*
X127771745Y-48140316D01*
X127778500Y-48078134D01*
X127778500Y-46281866D01*
X127771745Y-46219684D01*
X127720615Y-46083295D01*
X127633261Y-45966739D01*
X127516705Y-45879385D01*
X127504132Y-45874672D01*
X127398203Y-45834960D01*
X127341439Y-45792318D01*
X127316739Y-45725756D01*
X127331947Y-45656408D01*
X127353493Y-45627727D01*
X127381000Y-45600316D01*
X127458096Y-45523489D01*
X127517594Y-45440689D01*
X127585435Y-45346277D01*
X127588453Y-45342077D01*
X127647979Y-45221636D01*
X127685136Y-45146453D01*
X127685137Y-45146451D01*
X127687430Y-45141811D01*
X127752370Y-44928069D01*
X127781529Y-44706590D01*
X127781611Y-44703240D01*
X127783074Y-44643365D01*
X127783074Y-44643361D01*
X127783156Y-44640000D01*
X127764852Y-44417361D01*
X127710431Y-44200702D01*
X127621354Y-43995840D01*
X127521471Y-43841444D01*
X127502822Y-43812617D01*
X127502820Y-43812614D01*
X127500014Y-43808277D01*
X127349670Y-43643051D01*
X127345619Y-43639852D01*
X127345615Y-43639848D01*
X127178414Y-43507800D01*
X127178410Y-43507798D01*
X127174359Y-43504598D01*
X127167043Y-43500559D01*
X127075360Y-43449948D01*
X126978789Y-43396638D01*
X126973920Y-43394914D01*
X126973916Y-43394912D01*
X126773087Y-43323795D01*
X126773083Y-43323794D01*
X126768212Y-43322069D01*
X126763119Y-43321162D01*
X126763116Y-43321161D01*
X126553373Y-43283800D01*
X126553367Y-43283799D01*
X126548284Y-43282894D01*
X126474452Y-43281992D01*
X126330081Y-43280228D01*
X126330079Y-43280228D01*
X126324911Y-43280165D01*
X126104091Y-43313955D01*
X125891756Y-43383357D01*
X125693607Y-43486507D01*
X125689474Y-43489610D01*
X125689471Y-43489612D01*
X125519100Y-43617530D01*
X125514965Y-43620635D01*
X125360629Y-43782138D01*
X125234743Y-43966680D01*
X125140688Y-44169305D01*
X125080989Y-44384570D01*
X125057251Y-44606695D01*
X115078500Y-44606695D01*
X115078500Y-43741866D01*
X115071745Y-43679684D01*
X115020615Y-43543295D01*
X114933261Y-43426739D01*
X114816705Y-43339385D01*
X114680316Y-43288255D01*
X114618134Y-43281500D01*
X112821866Y-43281500D01*
X112759684Y-43288255D01*
X112623295Y-43339385D01*
X112506739Y-43426739D01*
X112419385Y-43543295D01*
X112368255Y-43679684D01*
X112361500Y-43741866D01*
X112361500Y-45538134D01*
X111729013Y-45538134D01*
X111703834Y-45391602D01*
X111703834Y-45391601D01*
X111702594Y-45384386D01*
X111699728Y-45377650D01*
X111657199Y-45277700D01*
X111648933Y-45207186D01*
X111664186Y-45165083D01*
X111666646Y-45160847D01*
X111666649Y-45160841D01*
X111670326Y-45154510D01*
X111672767Y-45146453D01*
X111719473Y-44992239D01*
X111721595Y-44985233D01*
X111732547Y-44808702D01*
X111702594Y-44634386D01*
X111633343Y-44471636D01*
X111629010Y-44465748D01*
X111629007Y-44465743D01*
X111584519Y-44405292D01*
X111560253Y-44338571D01*
X111569592Y-44282391D01*
X111571535Y-44277702D01*
X111648455Y-44092000D01*
X111656734Y-44072012D01*
X111656735Y-44072010D01*
X111658628Y-44067439D01*
X111714040Y-43836633D01*
X111715930Y-43812617D01*
X111718192Y-43783877D01*
X111736386Y-43727904D01*
X111770771Y-43671821D01*
X111810157Y-43607581D01*
X111818813Y-43595198D01*
X111982742Y-43388324D01*
X111992826Y-43377059D01*
X112011581Y-43358483D01*
X112180353Y-43191321D01*
X112191712Y-43181347D01*
X112400150Y-43019407D01*
X112412627Y-43010863D01*
X112638945Y-42875073D01*
X112652355Y-42868085D01*
X112893318Y-42760382D01*
X112907464Y-42755052D01*
X113159620Y-42676988D01*
X113174287Y-42673396D01*
X113304128Y-42649750D01*
X113433960Y-42626106D01*
X113448974Y-42624294D01*
X113677909Y-42610531D01*
X113704845Y-42611803D01*
X113713730Y-42613186D01*
X113745252Y-42609064D01*
X113761589Y-42608000D01*
X116406793Y-42608000D01*
X116427697Y-42609746D01*
X116447461Y-42613071D01*
X116453581Y-42613146D01*
X116455133Y-42613165D01*
X116455138Y-42613165D01*
X116460000Y-42613224D01*
X116464816Y-42612534D01*
X116464900Y-42612529D01*
X116472686Y-42611665D01*
X116497437Y-42609717D01*
X116696633Y-42594040D01*
X116701440Y-42592886D01*
X116701446Y-42592885D01*
X116846340Y-42558098D01*
X116927439Y-42538628D01*
X116941430Y-42532833D01*
X117004887Y-42506548D01*
X117139717Y-42450700D01*
X117210306Y-42443111D01*
X117269511Y-42471083D01*
X117286285Y-42485333D01*
X117335812Y-42510623D01*
X117437292Y-42562442D01*
X117437294Y-42562443D01*
X117443808Y-42565769D01*
X117450913Y-42567508D01*
X117450917Y-42567509D01*
X117533238Y-42587652D01*
X117615610Y-42607808D01*
X117621212Y-42608156D01*
X117621215Y-42608156D01*
X117624825Y-42608380D01*
X117624835Y-42608380D01*
X117626764Y-42608500D01*
X117754293Y-42608500D01*
X117824036Y-42600369D01*
X117878411Y-42594030D01*
X117878415Y-42594029D01*
X117885681Y-42593182D01*
X117892556Y-42590687D01*
X117892558Y-42590686D01*
X118045662Y-42535111D01*
X118116520Y-42530670D01*
X118145956Y-42541334D01*
X118187288Y-42562440D01*
X118187290Y-42562441D01*
X118193808Y-42565769D01*
X118365610Y-42607808D01*
X118371212Y-42608156D01*
X118371215Y-42608156D01*
X118374825Y-42608380D01*
X118374835Y-42608380D01*
X118376764Y-42608500D01*
X118504293Y-42608500D01*
X118574036Y-42600369D01*
X118628411Y-42594030D01*
X118628415Y-42594029D01*
X118635681Y-42593182D01*
X118642556Y-42590687D01*
X118642558Y-42590686D01*
X118795662Y-42535111D01*
X118866520Y-42530670D01*
X118895956Y-42541334D01*
X118937288Y-42562440D01*
X118937290Y-42562441D01*
X118943808Y-42565769D01*
X119115610Y-42607808D01*
X119121212Y-42608156D01*
X119121215Y-42608156D01*
X119124825Y-42608380D01*
X119124835Y-42608380D01*
X119126764Y-42608500D01*
X119254293Y-42608500D01*
X119324036Y-42600369D01*
X119378411Y-42594030D01*
X119378415Y-42594029D01*
X119385681Y-42593182D01*
X119392556Y-42590687D01*
X119392558Y-42590686D01*
X119545662Y-42535111D01*
X119616520Y-42530670D01*
X119645956Y-42541334D01*
X119687288Y-42562440D01*
X119687290Y-42562441D01*
X119693808Y-42565769D01*
X119865610Y-42607808D01*
X119871212Y-42608156D01*
X119871215Y-42608156D01*
X119874825Y-42608380D01*
X119874835Y-42608380D01*
X119876764Y-42608500D01*
X120004293Y-42608500D01*
X120074036Y-42600369D01*
X120128411Y-42594030D01*
X120128415Y-42594029D01*
X120135681Y-42593182D01*
X120142556Y-42590687D01*
X120142558Y-42590686D01*
X120295662Y-42535111D01*
X120366520Y-42530670D01*
X120395956Y-42541334D01*
X120437288Y-42562440D01*
X120437290Y-42562441D01*
X120443808Y-42565769D01*
X120615610Y-42607808D01*
X120621212Y-42608156D01*
X120621215Y-42608156D01*
X120624825Y-42608380D01*
X120624835Y-42608380D01*
X120626764Y-42608500D01*
X120754293Y-42608500D01*
X120824036Y-42600369D01*
X120878411Y-42594030D01*
X120878415Y-42594029D01*
X120885681Y-42593182D01*
X120892556Y-42590687D01*
X120892558Y-42590686D01*
X121045662Y-42535111D01*
X121116520Y-42530670D01*
X121145956Y-42541334D01*
X121187288Y-42562440D01*
X121187290Y-42562441D01*
X121193808Y-42565769D01*
X121365610Y-42607808D01*
X121371212Y-42608156D01*
X121371215Y-42608156D01*
X121374825Y-42608380D01*
X121374835Y-42608380D01*
X121376764Y-42608500D01*
X121504293Y-42608500D01*
X121574036Y-42600369D01*
X121628411Y-42594030D01*
X121628415Y-42594029D01*
X121635681Y-42593182D01*
X121642556Y-42590687D01*
X121642558Y-42590686D01*
X121795662Y-42535111D01*
X121866520Y-42530670D01*
X121895956Y-42541334D01*
X121937288Y-42562440D01*
X121937290Y-42562441D01*
X121943808Y-42565769D01*
X122115610Y-42607808D01*
X122121212Y-42608156D01*
X122121215Y-42608156D01*
X122124825Y-42608380D01*
X122124835Y-42608380D01*
X122126764Y-42608500D01*
X122254293Y-42608500D01*
X122324036Y-42600369D01*
X122378411Y-42594030D01*
X122378415Y-42594029D01*
X122385681Y-42593182D01*
X122392556Y-42590687D01*
X122392558Y-42590686D01*
X122545061Y-42535329D01*
X122545062Y-42535329D01*
X122551937Y-42532833D01*
X122558054Y-42528822D01*
X122558057Y-42528821D01*
X122661385Y-42461076D01*
X122729321Y-42440453D01*
X122778687Y-42450039D01*
G37*
%TD.AperFunction*%
%TD*%
%TA.AperFunction,Conductor*%
%TO.N,GND_4*%
G36*
X142518687Y-42450039D02*
G01*
X142641491Y-42500906D01*
X142718571Y-42532833D01*
X142732561Y-42538628D01*
X142813660Y-42558098D01*
X142958554Y-42592885D01*
X142958560Y-42592886D01*
X142963367Y-42594040D01*
X143159278Y-42609458D01*
X143166343Y-42610014D01*
X143177363Y-42611372D01*
X143182670Y-42612265D01*
X143182671Y-42612265D01*
X143187461Y-42613071D01*
X143193700Y-42613147D01*
X143195141Y-42613165D01*
X143195145Y-42613165D01*
X143200000Y-42613224D01*
X143227588Y-42609273D01*
X143245451Y-42608000D01*
X146150671Y-42608000D01*
X146170056Y-42609500D01*
X146184857Y-42611805D01*
X146184860Y-42611805D01*
X146193729Y-42613186D01*
X146209998Y-42611059D01*
X146234566Y-42610266D01*
X146456984Y-42624844D01*
X146473325Y-42626995D01*
X146717823Y-42675629D01*
X146733742Y-42679895D01*
X146969789Y-42760022D01*
X146985016Y-42766329D01*
X147208591Y-42876584D01*
X147222864Y-42884825D01*
X147430132Y-43023316D01*
X147443209Y-43033349D01*
X147630631Y-43197714D01*
X147642285Y-43209368D01*
X147806517Y-43396638D01*
X147806650Y-43396790D01*
X147816683Y-43409867D01*
X147955174Y-43617135D01*
X147963415Y-43631408D01*
X148073670Y-43854983D01*
X148079977Y-43870210D01*
X148160104Y-44106257D01*
X148164370Y-44122176D01*
X148213004Y-44366673D01*
X148215155Y-44383014D01*
X148229263Y-44598268D01*
X148228238Y-44621304D01*
X148228195Y-44624856D01*
X148226813Y-44633730D01*
X148227977Y-44642632D01*
X148227977Y-44642635D01*
X148230936Y-44665259D01*
X148232000Y-44681597D01*
X148232000Y-49670672D01*
X148230500Y-49690056D01*
X148226814Y-49713730D01*
X148228941Y-49729999D01*
X148229734Y-49754567D01*
X148215156Y-49976985D01*
X148213005Y-49993326D01*
X148164371Y-50237824D01*
X148160105Y-50253743D01*
X148079978Y-50489790D01*
X148073671Y-50505017D01*
X147963416Y-50728592D01*
X147955175Y-50742865D01*
X147816684Y-50950133D01*
X147806654Y-50963206D01*
X147783881Y-50989174D01*
X147642286Y-51150632D01*
X147630632Y-51162286D01*
X147443210Y-51326651D01*
X147430133Y-51336684D01*
X147222865Y-51475175D01*
X147208592Y-51483416D01*
X146985017Y-51593671D01*
X146969790Y-51599978D01*
X146733743Y-51680105D01*
X146717824Y-51684371D01*
X146473327Y-51733005D01*
X146456986Y-51735156D01*
X146241732Y-51749264D01*
X146218696Y-51748239D01*
X146215146Y-51748196D01*
X146206270Y-51746814D01*
X146176347Y-51750727D01*
X146174749Y-51750936D01*
X146158411Y-51752000D01*
X143263207Y-51752000D01*
X143242303Y-51750254D01*
X143235562Y-51749120D01*
X143222539Y-51746929D01*
X143216419Y-51746854D01*
X143214867Y-51746835D01*
X143214862Y-51746835D01*
X143210000Y-51746776D01*
X143205184Y-51747466D01*
X143205100Y-51747471D01*
X143197313Y-51748335D01*
X142973367Y-51765960D01*
X142968560Y-51767114D01*
X142968554Y-51767115D01*
X142841753Y-51797558D01*
X142742561Y-51821372D01*
X142737990Y-51823265D01*
X142737988Y-51823266D01*
X142674951Y-51849377D01*
X142530283Y-51909300D01*
X142459694Y-51916889D01*
X142400489Y-51888917D01*
X142383715Y-51874667D01*
X142274045Y-51818666D01*
X142232708Y-51797558D01*
X142232706Y-51797557D01*
X142226192Y-51794231D01*
X142219087Y-51792492D01*
X142219083Y-51792491D01*
X142114162Y-51766818D01*
X142054390Y-51752192D01*
X142048788Y-51751844D01*
X142048785Y-51751844D01*
X142045175Y-51751620D01*
X142045165Y-51751620D01*
X142043236Y-51751500D01*
X141915707Y-51751500D01*
X141845964Y-51759631D01*
X141791589Y-51765970D01*
X141791585Y-51765971D01*
X141784319Y-51766818D01*
X141777444Y-51769313D01*
X141777442Y-51769314D01*
X141624338Y-51824889D01*
X141553480Y-51829330D01*
X141524044Y-51818666D01*
X141482712Y-51797560D01*
X141482707Y-51797558D01*
X141476192Y-51794231D01*
X141304390Y-51752192D01*
X141298788Y-51751844D01*
X141298785Y-51751844D01*
X141295175Y-51751620D01*
X141295165Y-51751620D01*
X141293236Y-51751500D01*
X141165707Y-51751500D01*
X141095964Y-51759631D01*
X141041589Y-51765970D01*
X141041585Y-51765971D01*
X141034319Y-51766818D01*
X141027444Y-51769313D01*
X141027442Y-51769314D01*
X140874338Y-51824889D01*
X140803480Y-51829330D01*
X140774044Y-51818666D01*
X140732712Y-51797560D01*
X140732707Y-51797558D01*
X140726192Y-51794231D01*
X140554390Y-51752192D01*
X140548788Y-51751844D01*
X140548785Y-51751844D01*
X140545175Y-51751620D01*
X140545165Y-51751620D01*
X140543236Y-51751500D01*
X140415707Y-51751500D01*
X140345964Y-51759631D01*
X140291589Y-51765970D01*
X140291585Y-51765971D01*
X140284319Y-51766818D01*
X140277444Y-51769313D01*
X140277442Y-51769314D01*
X140124338Y-51824889D01*
X140053480Y-51829330D01*
X140024044Y-51818666D01*
X139982712Y-51797560D01*
X139982707Y-51797558D01*
X139976192Y-51794231D01*
X139804390Y-51752192D01*
X139798788Y-51751844D01*
X139798785Y-51751844D01*
X139795175Y-51751620D01*
X139795165Y-51751620D01*
X139793236Y-51751500D01*
X139665707Y-51751500D01*
X139595964Y-51759631D01*
X139541589Y-51765970D01*
X139541585Y-51765971D01*
X139534319Y-51766818D01*
X139527444Y-51769313D01*
X139527442Y-51769314D01*
X139374338Y-51824889D01*
X139303480Y-51829330D01*
X139274044Y-51818666D01*
X139232712Y-51797560D01*
X139232707Y-51797558D01*
X139226192Y-51794231D01*
X139054390Y-51752192D01*
X139048788Y-51751844D01*
X139048785Y-51751844D01*
X139045175Y-51751620D01*
X139045165Y-51751620D01*
X139043236Y-51751500D01*
X138915707Y-51751500D01*
X138845964Y-51759631D01*
X138791589Y-51765970D01*
X138791585Y-51765971D01*
X138784319Y-51766818D01*
X138777444Y-51769313D01*
X138777442Y-51769314D01*
X138624338Y-51824889D01*
X138553480Y-51829330D01*
X138524044Y-51818666D01*
X138482712Y-51797560D01*
X138482707Y-51797558D01*
X138476192Y-51794231D01*
X138304390Y-51752192D01*
X138298788Y-51751844D01*
X138298785Y-51751844D01*
X138295175Y-51751620D01*
X138295165Y-51751620D01*
X138293236Y-51751500D01*
X138165707Y-51751500D01*
X138095964Y-51759631D01*
X138041589Y-51765970D01*
X138041585Y-51765971D01*
X138034319Y-51766818D01*
X138027444Y-51769313D01*
X138027442Y-51769314D01*
X137874338Y-51824889D01*
X137803480Y-51829330D01*
X137774044Y-51818666D01*
X137732712Y-51797560D01*
X137732707Y-51797558D01*
X137726192Y-51794231D01*
X137554390Y-51752192D01*
X137548788Y-51751844D01*
X137548785Y-51751844D01*
X137545175Y-51751620D01*
X137545165Y-51751620D01*
X137543236Y-51751500D01*
X137415707Y-51751500D01*
X137345964Y-51759631D01*
X137291589Y-51765970D01*
X137291585Y-51765971D01*
X137284319Y-51766818D01*
X137277444Y-51769313D01*
X137277442Y-51769314D01*
X137128810Y-51823266D01*
X137118063Y-51827167D01*
X137111946Y-51831178D01*
X137111943Y-51831179D01*
X137008615Y-51898924D01*
X136940679Y-51919547D01*
X136891313Y-51909961D01*
X136745049Y-51849377D01*
X136682012Y-51823266D01*
X136682010Y-51823265D01*
X136677439Y-51821372D01*
X136578247Y-51797558D01*
X136451446Y-51767115D01*
X136451440Y-51767114D01*
X136446633Y-51765960D01*
X136243657Y-51749986D01*
X136232637Y-51748628D01*
X136227330Y-51747735D01*
X136227329Y-51747735D01*
X136222539Y-51746929D01*
X136216300Y-51746853D01*
X136214859Y-51746835D01*
X136214855Y-51746835D01*
X136210000Y-51746776D01*
X136185715Y-51750254D01*
X136182412Y-51750727D01*
X136164549Y-51752000D01*
X133549327Y-51752000D01*
X133529942Y-51750500D01*
X133515141Y-51748195D01*
X133515138Y-51748195D01*
X133506269Y-51746814D01*
X133488632Y-51749120D01*
X133465013Y-51749972D01*
X133393743Y-51745842D01*
X133245614Y-51737258D01*
X133231148Y-51735576D01*
X133035304Y-51701220D01*
X132987355Y-51692809D01*
X132973165Y-51689463D01*
X132735963Y-51618826D01*
X132722254Y-51613864D01*
X132494784Y-51516292D01*
X132481741Y-51509779D01*
X132267079Y-51386595D01*
X132254874Y-51378619D01*
X132055872Y-51231456D01*
X132044671Y-51222124D01*
X131929813Y-51114581D01*
X131863995Y-51052954D01*
X131853950Y-51042393D01*
X131842638Y-51029030D01*
X131694031Y-50853492D01*
X131685272Y-50841840D01*
X131653783Y-50794475D01*
X131548247Y-50635734D01*
X131540891Y-50623147D01*
X131480742Y-50505017D01*
X131473708Y-50491202D01*
X131460379Y-50443916D01*
X131454428Y-50368300D01*
X131454040Y-50363367D01*
X131398628Y-50132561D01*
X131396589Y-50127639D01*
X131311535Y-49922298D01*
X131303946Y-49851708D01*
X131322856Y-49808246D01*
X131321490Y-49807453D01*
X131335554Y-49783240D01*
X131391632Y-49686695D01*
X132137251Y-49686695D01*
X132137548Y-49691848D01*
X132137548Y-49691851D01*
X132143011Y-49786590D01*
X132150110Y-49909715D01*
X132151247Y-49914761D01*
X132151248Y-49914767D01*
X132165270Y-49976985D01*
X132199222Y-50127639D01*
X132283266Y-50334616D01*
X132300885Y-50363367D01*
X132387688Y-50505017D01*
X132399987Y-50525088D01*
X132546250Y-50693938D01*
X132718126Y-50836632D01*
X132911000Y-50949338D01*
X132915825Y-50951180D01*
X132915826Y-50951181D01*
X132942679Y-50961435D01*
X133119692Y-51029030D01*
X133124760Y-51030061D01*
X133124763Y-51030062D01*
X133232017Y-51051883D01*
X133338597Y-51073567D01*
X133343772Y-51073757D01*
X133343774Y-51073757D01*
X133556673Y-51081564D01*
X133556677Y-51081564D01*
X133561837Y-51081753D01*
X133566957Y-51081097D01*
X133566959Y-51081097D01*
X133778288Y-51054025D01*
X133778289Y-51054025D01*
X133783416Y-51053368D01*
X133801415Y-51047968D01*
X133992429Y-50990661D01*
X133992434Y-50990659D01*
X133997384Y-50989174D01*
X134197994Y-50890896D01*
X134379860Y-50761173D01*
X134538096Y-50603489D01*
X134597594Y-50520689D01*
X134665435Y-50426277D01*
X134668453Y-50422077D01*
X134701810Y-50354585D01*
X134765136Y-50226453D01*
X134765137Y-50226451D01*
X134767430Y-50221811D01*
X134832370Y-50008069D01*
X134861529Y-49786590D01*
X134861611Y-49783240D01*
X134863074Y-49723365D01*
X134863074Y-49723361D01*
X134863156Y-49720000D01*
X134844852Y-49497361D01*
X134790431Y-49280702D01*
X134701354Y-49075840D01*
X134633941Y-48971636D01*
X134582822Y-48892617D01*
X134582820Y-48892614D01*
X134580014Y-48888277D01*
X134429670Y-48723051D01*
X134425619Y-48719852D01*
X134425615Y-48719848D01*
X134258414Y-48587800D01*
X134258410Y-48587798D01*
X134254359Y-48584598D01*
X134212569Y-48561529D01*
X134162598Y-48511097D01*
X134147826Y-48441654D01*
X134172942Y-48375248D01*
X134200294Y-48348641D01*
X134375328Y-48223792D01*
X134383200Y-48217139D01*
X134534052Y-48066812D01*
X134540730Y-48058965D01*
X134665003Y-47886020D01*
X134670313Y-47877183D01*
X134764670Y-47686267D01*
X134768469Y-47676672D01*
X134830377Y-47472910D01*
X134832555Y-47462837D01*
X134833986Y-47451962D01*
X134831775Y-47437778D01*
X134818617Y-47434000D01*
X132183225Y-47434000D01*
X132169694Y-47437973D01*
X132168257Y-47447966D01*
X132198565Y-47582446D01*
X132201645Y-47592275D01*
X132281770Y-47789603D01*
X132286413Y-47798794D01*
X132397694Y-47980388D01*
X132403777Y-47988699D01*
X132543213Y-48149667D01*
X132550580Y-48156883D01*
X132714434Y-48292916D01*
X132722881Y-48298831D01*
X132791969Y-48339203D01*
X132840693Y-48390842D01*
X132853764Y-48460625D01*
X132827033Y-48526396D01*
X132786584Y-48559752D01*
X132773607Y-48566507D01*
X132769474Y-48569610D01*
X132769471Y-48569612D01*
X132599100Y-48697530D01*
X132594965Y-48700635D01*
X132440629Y-48862138D01*
X132314743Y-49046680D01*
X132220688Y-49249305D01*
X132160989Y-49464570D01*
X132137251Y-49686695D01*
X131391632Y-49686695D01*
X131410326Y-49654510D01*
X131447920Y-49530386D01*
X131459473Y-49492239D01*
X131461595Y-49485233D01*
X131472547Y-49308702D01*
X131462840Y-49252207D01*
X131443834Y-49141602D01*
X131443834Y-49141601D01*
X131442594Y-49134386D01*
X131423785Y-49090181D01*
X131397199Y-49027700D01*
X131388933Y-48957186D01*
X131404186Y-48915083D01*
X131406646Y-48910847D01*
X131406649Y-48910841D01*
X131410326Y-48904510D01*
X131413929Y-48892617D01*
X131459473Y-48742239D01*
X131461595Y-48735233D01*
X131472547Y-48558702D01*
X131469013Y-48538131D01*
X131443834Y-48391602D01*
X131443834Y-48391601D01*
X131442594Y-48384386D01*
X131432288Y-48360165D01*
X131397199Y-48277700D01*
X131388933Y-48207186D01*
X131404186Y-48165083D01*
X131406646Y-48160847D01*
X131406649Y-48160841D01*
X131410326Y-48154510D01*
X131417005Y-48132460D01*
X131459473Y-47992239D01*
X131461595Y-47985233D01*
X131472547Y-47808702D01*
X131470845Y-47798794D01*
X131443834Y-47641602D01*
X131443834Y-47641601D01*
X131442594Y-47634386D01*
X131424676Y-47592275D01*
X131397199Y-47527700D01*
X131388933Y-47457186D01*
X131404186Y-47415083D01*
X131406646Y-47410847D01*
X131406649Y-47410841D01*
X131410326Y-47404510D01*
X131461595Y-47235233D01*
X131472547Y-47058702D01*
X131442594Y-46884386D01*
X131439728Y-46877650D01*
X131397199Y-46777700D01*
X131388933Y-46707186D01*
X131404186Y-46665083D01*
X131406646Y-46660847D01*
X131406649Y-46660841D01*
X131410326Y-46654510D01*
X131461595Y-46485233D01*
X131472547Y-46308702D01*
X131442594Y-46134386D01*
X131439728Y-46127650D01*
X131397199Y-46027700D01*
X131388933Y-45957186D01*
X131404186Y-45915083D01*
X131406646Y-45910847D01*
X131406649Y-45910841D01*
X131410326Y-45904510D01*
X131416305Y-45884771D01*
X131459473Y-45742239D01*
X131461595Y-45735233D01*
X131472547Y-45558702D01*
X131469597Y-45541531D01*
X131469013Y-45538134D01*
X132141500Y-45538134D01*
X132148255Y-45600316D01*
X132199385Y-45736705D01*
X132286739Y-45853261D01*
X132403295Y-45940615D01*
X132411704Y-45943767D01*
X132411705Y-45943768D01*
X132520960Y-45984726D01*
X132577725Y-46027367D01*
X132602425Y-46093929D01*
X132587218Y-46163278D01*
X132567825Y-46189759D01*
X132444590Y-46318717D01*
X132438104Y-46326727D01*
X132318098Y-46502649D01*
X132313000Y-46511623D01*
X132223338Y-46704783D01*
X132219775Y-46714470D01*
X132164389Y-46914183D01*
X132165912Y-46922607D01*
X132178292Y-46926000D01*
X134818344Y-46926000D01*
X134831875Y-46922027D01*
X134833180Y-46912947D01*
X134791214Y-46745875D01*
X134787894Y-46736124D01*
X134702972Y-46540814D01*
X134698105Y-46531739D01*
X134582426Y-46352926D01*
X134576136Y-46344757D01*
X134432293Y-46186677D01*
X134401241Y-46122831D01*
X134409635Y-46052333D01*
X134454812Y-45997564D01*
X134481256Y-45983895D01*
X134588297Y-45943767D01*
X134596705Y-45940615D01*
X134713261Y-45853261D01*
X134800615Y-45736705D01*
X134851745Y-45600316D01*
X134858500Y-45538134D01*
X134858500Y-44606695D01*
X144837251Y-44606695D01*
X144837548Y-44611848D01*
X144837548Y-44611851D01*
X144843011Y-44706590D01*
X144850110Y-44829715D01*
X144851247Y-44834761D01*
X144851248Y-44834767D01*
X144871119Y-44922939D01*
X144899222Y-45047639D01*
X144983266Y-45254616D01*
X145099987Y-45445088D01*
X145246250Y-45613938D01*
X145250230Y-45617242D01*
X145254981Y-45621187D01*
X145294616Y-45680090D01*
X145296113Y-45751071D01*
X145258997Y-45811593D01*
X145218725Y-45836112D01*
X145158627Y-45858642D01*
X145103295Y-45879385D01*
X144986739Y-45966739D01*
X144899385Y-46083295D01*
X144848255Y-46219684D01*
X144841500Y-46281866D01*
X144841500Y-48078134D01*
X144848255Y-48140316D01*
X144899385Y-48276705D01*
X144986739Y-48393261D01*
X145103295Y-48480615D01*
X145239684Y-48531745D01*
X145301866Y-48538500D01*
X147098134Y-48538500D01*
X147160316Y-48531745D01*
X147296705Y-48480615D01*
X147413261Y-48393261D01*
X147500615Y-48276705D01*
X147551745Y-48140316D01*
X147558500Y-48078134D01*
X147558500Y-46281866D01*
X147551745Y-46219684D01*
X147500615Y-46083295D01*
X147413261Y-45966739D01*
X147296705Y-45879385D01*
X147284132Y-45874672D01*
X147178203Y-45834960D01*
X147121439Y-45792318D01*
X147096739Y-45725756D01*
X147111947Y-45656408D01*
X147133493Y-45627727D01*
X147161000Y-45600316D01*
X147238096Y-45523489D01*
X147297594Y-45440689D01*
X147365435Y-45346277D01*
X147368453Y-45342077D01*
X147427979Y-45221636D01*
X147465136Y-45146453D01*
X147465137Y-45146451D01*
X147467430Y-45141811D01*
X147532370Y-44928069D01*
X147561529Y-44706590D01*
X147562340Y-44673396D01*
X147563074Y-44643365D01*
X147563074Y-44643361D01*
X147563156Y-44640000D01*
X147544852Y-44417361D01*
X147490431Y-44200702D01*
X147401354Y-43995840D01*
X147315020Y-43862388D01*
X147282822Y-43812617D01*
X147282820Y-43812614D01*
X147280014Y-43808277D01*
X147129670Y-43643051D01*
X147125619Y-43639852D01*
X147125615Y-43639848D01*
X146958414Y-43507800D01*
X146958410Y-43507798D01*
X146954359Y-43504598D01*
X146758789Y-43396638D01*
X146753920Y-43394914D01*
X146753916Y-43394912D01*
X146553087Y-43323795D01*
X146553083Y-43323794D01*
X146548212Y-43322069D01*
X146543119Y-43321162D01*
X146543116Y-43321161D01*
X146333373Y-43283800D01*
X146333367Y-43283799D01*
X146328284Y-43282894D01*
X146254452Y-43281992D01*
X146110081Y-43280228D01*
X146110079Y-43280228D01*
X146104911Y-43280165D01*
X145884091Y-43313955D01*
X145671756Y-43383357D01*
X145642542Y-43398565D01*
X145505999Y-43469645D01*
X145473607Y-43486507D01*
X145469474Y-43489610D01*
X145469471Y-43489612D01*
X145299100Y-43617530D01*
X145294965Y-43620635D01*
X145140629Y-43782138D01*
X145137715Y-43786410D01*
X145137714Y-43786411D01*
X145085886Y-43862388D01*
X145014743Y-43966680D01*
X144920688Y-44169305D01*
X144860989Y-44384570D01*
X144837251Y-44606695D01*
X134858500Y-44606695D01*
X134858500Y-43741866D01*
X134851745Y-43679684D01*
X134800615Y-43543295D01*
X134713261Y-43426739D01*
X134596705Y-43339385D01*
X134460316Y-43288255D01*
X134398134Y-43281500D01*
X132601866Y-43281500D01*
X132539684Y-43288255D01*
X132403295Y-43339385D01*
X132286739Y-43426739D01*
X132199385Y-43543295D01*
X132148255Y-43679684D01*
X132141500Y-43741866D01*
X132141500Y-45538134D01*
X131469013Y-45538134D01*
X131443834Y-45391602D01*
X131443834Y-45391601D01*
X131442594Y-45384386D01*
X131439728Y-45377650D01*
X131397199Y-45277700D01*
X131388933Y-45207186D01*
X131404186Y-45165083D01*
X131406646Y-45160847D01*
X131406649Y-45160841D01*
X131410326Y-45154510D01*
X131412767Y-45146453D01*
X131459473Y-44992239D01*
X131461595Y-44985233D01*
X131472547Y-44808702D01*
X131444012Y-44642635D01*
X131443834Y-44641602D01*
X131443834Y-44641601D01*
X131442594Y-44634386D01*
X131373343Y-44471636D01*
X131369010Y-44465748D01*
X131369007Y-44465743D01*
X131324519Y-44405292D01*
X131300253Y-44338571D01*
X131309592Y-44282391D01*
X131345396Y-44195954D01*
X131388455Y-44092000D01*
X131396734Y-44072012D01*
X131396735Y-44072010D01*
X131398628Y-44067439D01*
X131454040Y-43836633D01*
X131457822Y-43788580D01*
X131476894Y-43731197D01*
X131552197Y-43611933D01*
X131560900Y-43599805D01*
X131724210Y-43398565D01*
X131730088Y-43391322D01*
X131740163Y-43380310D01*
X131785571Y-43336233D01*
X131844660Y-43278874D01*
X131932822Y-43193296D01*
X131944131Y-43183551D01*
X132157551Y-43020639D01*
X132169932Y-43012300D01*
X132401129Y-42875767D01*
X132414409Y-42868951D01*
X132655683Y-42762677D01*
X132660132Y-42760718D01*
X132674122Y-42755522D01*
X132734408Y-42737114D01*
X132930922Y-42677108D01*
X132945419Y-42673605D01*
X133209686Y-42626114D01*
X133224499Y-42624349D01*
X133386618Y-42614728D01*
X133457849Y-42610501D01*
X133484698Y-42611780D01*
X133484856Y-42611805D01*
X133484862Y-42611805D01*
X133493730Y-42613186D01*
X133502632Y-42612022D01*
X133502635Y-42612022D01*
X133525251Y-42609064D01*
X133541589Y-42608000D01*
X136146793Y-42608000D01*
X136167697Y-42609746D01*
X136187461Y-42613071D01*
X136193581Y-42613146D01*
X136195133Y-42613165D01*
X136195138Y-42613165D01*
X136200000Y-42613224D01*
X136204816Y-42612534D01*
X136204900Y-42612529D01*
X136212686Y-42611665D01*
X136237653Y-42609700D01*
X136436633Y-42594040D01*
X136441440Y-42592886D01*
X136441446Y-42592885D01*
X136586340Y-42558098D01*
X136667439Y-42538628D01*
X136681430Y-42532833D01*
X136744887Y-42506548D01*
X136879717Y-42450700D01*
X136950306Y-42443111D01*
X137009511Y-42471083D01*
X137026285Y-42485333D01*
X137075812Y-42510623D01*
X137177292Y-42562442D01*
X137177294Y-42562443D01*
X137183808Y-42565769D01*
X137190913Y-42567508D01*
X137190917Y-42567509D01*
X137273238Y-42587652D01*
X137355610Y-42607808D01*
X137361212Y-42608156D01*
X137361215Y-42608156D01*
X137364825Y-42608380D01*
X137364835Y-42608380D01*
X137366764Y-42608500D01*
X137494293Y-42608500D01*
X137564036Y-42600369D01*
X137618411Y-42594030D01*
X137618415Y-42594029D01*
X137625681Y-42593182D01*
X137632556Y-42590687D01*
X137632558Y-42590686D01*
X137785662Y-42535111D01*
X137856520Y-42530670D01*
X137885956Y-42541334D01*
X137927288Y-42562440D01*
X137927290Y-42562441D01*
X137933808Y-42565769D01*
X138105610Y-42607808D01*
X138111212Y-42608156D01*
X138111215Y-42608156D01*
X138114825Y-42608380D01*
X138114835Y-42608380D01*
X138116764Y-42608500D01*
X138244293Y-42608500D01*
X138314036Y-42600369D01*
X138368411Y-42594030D01*
X138368415Y-42594029D01*
X138375681Y-42593182D01*
X138382556Y-42590687D01*
X138382558Y-42590686D01*
X138535662Y-42535111D01*
X138606520Y-42530670D01*
X138635956Y-42541334D01*
X138677288Y-42562440D01*
X138677290Y-42562441D01*
X138683808Y-42565769D01*
X138855610Y-42607808D01*
X138861212Y-42608156D01*
X138861215Y-42608156D01*
X138864825Y-42608380D01*
X138864835Y-42608380D01*
X138866764Y-42608500D01*
X138994293Y-42608500D01*
X139064036Y-42600369D01*
X139118411Y-42594030D01*
X139118415Y-42594029D01*
X139125681Y-42593182D01*
X139132556Y-42590687D01*
X139132558Y-42590686D01*
X139285662Y-42535111D01*
X139356520Y-42530670D01*
X139385956Y-42541334D01*
X139427288Y-42562440D01*
X139427290Y-42562441D01*
X139433808Y-42565769D01*
X139605610Y-42607808D01*
X139611212Y-42608156D01*
X139611215Y-42608156D01*
X139614825Y-42608380D01*
X139614835Y-42608380D01*
X139616764Y-42608500D01*
X139744293Y-42608500D01*
X139814036Y-42600369D01*
X139868411Y-42594030D01*
X139868415Y-42594029D01*
X139875681Y-42593182D01*
X139882556Y-42590687D01*
X139882558Y-42590686D01*
X140035662Y-42535111D01*
X140106520Y-42530670D01*
X140135956Y-42541334D01*
X140177288Y-42562440D01*
X140177290Y-42562441D01*
X140183808Y-42565769D01*
X140355610Y-42607808D01*
X140361212Y-42608156D01*
X140361215Y-42608156D01*
X140364825Y-42608380D01*
X140364835Y-42608380D01*
X140366764Y-42608500D01*
X140494293Y-42608500D01*
X140564036Y-42600369D01*
X140618411Y-42594030D01*
X140618415Y-42594029D01*
X140625681Y-42593182D01*
X140632556Y-42590687D01*
X140632558Y-42590686D01*
X140785662Y-42535111D01*
X140856520Y-42530670D01*
X140885956Y-42541334D01*
X140927288Y-42562440D01*
X140927290Y-42562441D01*
X140933808Y-42565769D01*
X141105610Y-42607808D01*
X141111212Y-42608156D01*
X141111215Y-42608156D01*
X141114825Y-42608380D01*
X141114835Y-42608380D01*
X141116764Y-42608500D01*
X141244293Y-42608500D01*
X141314036Y-42600369D01*
X141368411Y-42594030D01*
X141368415Y-42594029D01*
X141375681Y-42593182D01*
X141382556Y-42590687D01*
X141382558Y-42590686D01*
X141535662Y-42535111D01*
X141606520Y-42530670D01*
X141635956Y-42541334D01*
X141677288Y-42562440D01*
X141677290Y-42562441D01*
X141683808Y-42565769D01*
X141855610Y-42607808D01*
X141861212Y-42608156D01*
X141861215Y-42608156D01*
X141864825Y-42608380D01*
X141864835Y-42608380D01*
X141866764Y-42608500D01*
X141994293Y-42608500D01*
X142064036Y-42600369D01*
X142118411Y-42594030D01*
X142118415Y-42594029D01*
X142125681Y-42593182D01*
X142132556Y-42590687D01*
X142132558Y-42590686D01*
X142285061Y-42535329D01*
X142285062Y-42535329D01*
X142291937Y-42532833D01*
X142298054Y-42528822D01*
X142298057Y-42528821D01*
X142401385Y-42461076D01*
X142469321Y-42440453D01*
X142518687Y-42450039D01*
G37*
%TD.AperFunction*%
%TD*%
M02*
