%TF.GenerationSoftware,KiCad,Pcbnew,(6.0.2)*%
%TF.CreationDate,2022-03-21T22:00:24-04:00*%
%TF.ProjectId,Panel_Design_3,50616e65-6c5f-4446-9573-69676e5f332e,rev?*%
%TF.SameCoordinates,Original*%
%TF.FileFunction,Copper,L2,Bot*%
%TF.FilePolarity,Positive*%
%FSLAX46Y46*%
G04 Gerber Fmt 4.6, Leading zero omitted, Abs format (unit mm)*
G04 Created by KiCad (PCBNEW (6.0.2)) date 2022-03-21 22:00:24*
%MOMM*%
%LPD*%
G01*
G04 APERTURE LIST*
%TA.AperFunction,ComponentPad*%
%ADD10R,1.700000X1.700000*%
%TD*%
%TA.AperFunction,ComponentPad*%
%ADD11O,1.700000X1.700000*%
%TD*%
%TA.AperFunction,ComponentPad*%
%ADD12C,2.250000*%
%TD*%
G04 APERTURE END LIST*
D10*
%TO.P,J36,1,Pin_1*%
%TO.N,Net-(IC2-Pad3)*%
X147380000Y-59580001D03*
D11*
%TO.P,J36,2,Pin_2*%
%TO.N,Net-(IC3-Pad3)*%
X147380000Y-62120001D03*
%TD*%
D10*
%TO.P,J35,1,Pin_1*%
%TO.N,Net-(IC2-Pad1)*%
X134680000Y-57040001D03*
D11*
%TO.P,J35,2,Pin_2*%
%TO.N,Net-(IC2-Pad2)*%
X134680000Y-59580001D03*
%TO.P,J35,3,Pin_3*%
%TO.N,Net-(IC3-Pad1)*%
X134680000Y-62120001D03*
%TO.P,J35,4,Pin_4*%
%TO.N,Net-(IC3-Pad2)*%
X134680000Y-64660001D03*
%TD*%
%TO.P,J34,2,Pin_2*%
%TO.N,Net-(J20-Pad2)*%
X147490000Y-44880000D03*
D10*
%TO.P,J34,1,Pin_1*%
%TO.N,Net-(J20-Pad1)*%
X147490000Y-47420000D03*
%TD*%
D11*
%TO.P,J33,3,Pin_3*%
%TO.N,Net-(J16-Pad3)*%
X134790000Y-49960000D03*
%TO.P,J33,2,Pin_2*%
%TO.N,GND_4*%
X134790000Y-47420000D03*
D10*
%TO.P,J33,1,Pin_1*%
%TO.N,Net-(J16-Pad1)*%
X134790000Y-44880000D03*
%TD*%
D11*
%TO.P,J13,2,Pin_2*%
%TO.N,Net-(J7-Pad2)*%
X84030000Y-63740000D03*
D10*
%TO.P,J13,1,Pin_1*%
%TO.N,Net-(J7-Pad1)*%
X84030000Y-66280000D03*
%TD*%
D11*
%TO.P,J12,2,Pin_2*%
%TO.N,Net-(J6-Pad2)*%
X71330000Y-66280000D03*
D10*
%TO.P,J12,1,Pin_1*%
%TO.N,Net-(J6-Pad1)*%
X71330000Y-63740000D03*
%TD*%
D11*
%TO.P,J11,2,Pin_2*%
%TO.N,Net-(J7-Pad2)*%
X64250000Y-63740000D03*
D10*
%TO.P,J11,1,Pin_1*%
%TO.N,Net-(J7-Pad1)*%
X64250000Y-66280000D03*
%TD*%
D11*
%TO.P,J8,2,Pin_2*%
%TO.N,Net-(J6-Pad2)*%
X51550000Y-66280000D03*
D10*
%TO.P,J8,1,Pin_1*%
%TO.N,Net-(J6-Pad1)*%
X51550000Y-63740000D03*
%TD*%
D11*
%TO.P,J22,6,GND*%
%TO.N,GND_6*%
X122670000Y-37800000D03*
%TO.P,J22,5,~{RST}*%
%TO.N,Net-(J22-Pad5)*%
X120130000Y-37800000D03*
%TO.P,J22,4,MOSI*%
%TO.N,Net-(J22-Pad4)*%
X122670000Y-35260000D03*
%TO.P,J22,3,SCK*%
%TO.N,Net-(J17-Pad3)*%
X120130000Y-35260000D03*
%TO.P,J22,2,VCC*%
%TO.N,Net-(J17-Pad2)*%
X122670000Y-32720000D03*
D10*
%TO.P,J22,1,MISO*%
%TO.N,Net-(J17-Pad1)*%
X120130000Y-32720000D03*
%TD*%
D11*
%TO.P,J9,4,Pin_4*%
%TO.N,Net-(J9-Pad4)*%
X72410000Y-28720000D03*
%TO.P,J9,3,Pin_3*%
%TO.N,Net-(J9-Pad3)*%
X69870000Y-28720000D03*
%TO.P,J9,2,Pin_2*%
%TO.N,Net-(J9-Pad2)*%
X67330000Y-28720000D03*
D10*
%TO.P,J9,1,Pin_1*%
%TO.N,Net-(J9-Pad1)*%
X64790000Y-28720000D03*
%TD*%
D11*
%TO.P,J6,2,Pin_2*%
%TO.N,Net-(J6-Pad2)*%
X31770000Y-66280000D03*
D10*
%TO.P,J6,1,Pin_1*%
%TO.N,Net-(J6-Pad1)*%
X31770000Y-63740000D03*
%TD*%
D11*
%TO.P,J31,2,Pin_2*%
%TO.N,unconnected-(J31-Pad2)*%
X107970000Y-56660000D03*
D10*
%TO.P,J31,1,Pin_1*%
%TO.N,unconnected-(J31-Pad1)*%
X105430000Y-56660000D03*
%TD*%
D11*
%TO.P,J30,2,Pin_2*%
%TO.N,unconnected-(J30-Pad2)*%
X34310000Y-28720000D03*
D10*
%TO.P,J30,1,Pin_1*%
%TO.N,unconnected-(J30-Pad1)*%
X31770000Y-28720000D03*
%TD*%
D11*
%TO.P,J32,2,Pin_2*%
%TO.N,unconnected-(J32-Pad2)*%
X107970000Y-28720000D03*
D10*
%TO.P,J32,1,Pin_1*%
%TO.N,unconnected-(J32-Pad1)*%
X105430000Y-28720000D03*
%TD*%
D11*
%TO.P,J27,6,Pin_6*%
%TO.N,Net-(J27-Pad6)*%
X142410001Y-37799999D03*
%TO.P,J27,5,Pin_5*%
%TO.N,Net-(J27-Pad5)*%
X139870001Y-37799999D03*
%TO.P,J27,4,Pin_4*%
%TO.N,Net-(J27-Pad4)*%
X142410001Y-35259999D03*
%TO.P,J27,3,Pin_3*%
%TO.N,Net-(J26-Pad3)*%
X139870001Y-35259999D03*
%TO.P,J27,2,Pin_2*%
%TO.N,Net-(J26-Pad2)*%
X142410001Y-32719999D03*
D10*
%TO.P,J27,1,Pin_1*%
%TO.N,Net-(J26-Pad1)*%
X139870001Y-32719999D03*
%TD*%
D11*
%TO.P,J24,3,Pin_3*%
%TO.N,GND_6*%
X127750000Y-37800000D03*
%TO.P,J24,2,Pin_2*%
%TO.N,Net-(J22-Pad5)*%
X127750000Y-35260000D03*
D10*
%TO.P,J24,1,Pin_1*%
%TO.N,Net-(J22-Pad4)*%
X127750000Y-32720000D03*
%TD*%
D12*
%TO.P,MX1,2,ROW*%
%TO.N,Net-(J9-Pad1)*%
X35490000Y-40340000D03*
%TO.P,MX1,1,COL*%
%TO.N,Net-(J10-Pad1)*%
X38030000Y-46690000D03*
%TD*%
D11*
%TO.P,J10,4,Pin_4*%
%TO.N,Net-(J10-Pad4)*%
X72410000Y-56660000D03*
%TO.P,J10,3,Pin_3*%
%TO.N,Net-(J10-Pad3)*%
X69870000Y-56660000D03*
%TO.P,J10,2,Pin_2*%
%TO.N,Net-(J10-Pad2)*%
X67330000Y-56660000D03*
D10*
%TO.P,J10,1,Pin_1*%
%TO.N,Net-(J10-Pad1)*%
X64790000Y-56660000D03*
%TD*%
D12*
%TO.P,MX3,2,ROW*%
%TO.N,Net-(J9-Pad2)*%
X54630000Y-40340000D03*
%TO.P,MX3,1,COL*%
%TO.N,Net-(J10-Pad2)*%
X57170000Y-46690000D03*
%TD*%
D11*
%TO.P,J29,2,Pin_2*%
%TO.N,unconnected-(J29-Pad2)*%
X34310000Y-56660000D03*
D10*
%TO.P,J29,1,Pin_1*%
%TO.N,unconnected-(J29-Pad1)*%
X31770000Y-56660000D03*
%TD*%
D12*
%TO.P,MX2,2,ROW*%
%TO.N,Net-(J9-Pad3)*%
X74090000Y-40340000D03*
%TO.P,MX2,1,COL*%
%TO.N,Net-(J10-Pad3)*%
X76630000Y-46690000D03*
%TD*%
D11*
%TO.P,J26,3,Pin_3*%
%TO.N,Net-(J26-Pad3)*%
X134790001Y-37799999D03*
%TO.P,J26,2,Pin_2*%
%TO.N,Net-(J26-Pad2)*%
X134790001Y-35259999D03*
D10*
%TO.P,J26,1,Pin_1*%
%TO.N,Net-(J26-Pad1)*%
X134790001Y-32719999D03*
%TD*%
D11*
%TO.P,J7,2,Pin_2*%
%TO.N,Net-(J7-Pad2)*%
X44470000Y-63740000D03*
D10*
%TO.P,J7,1,Pin_1*%
%TO.N,Net-(J7-Pad1)*%
X44470000Y-66280000D03*
%TD*%
D12*
%TO.P,MX4,2,ROW*%
%TO.N,Net-(J9-Pad4)*%
X93390000Y-40340000D03*
%TO.P,MX4,1,COL*%
%TO.N,Net-(J10-Pad4)*%
X95930000Y-46690000D03*
%TD*%
D11*
%TO.P,J23,2,Pin_2*%
%TO.N,Net-(J23-Pad2)*%
X103810000Y-63740000D03*
D10*
%TO.P,J23,1,Pin_1*%
%TO.N,Net-(J23-Pad1)*%
X103810000Y-66280000D03*
%TD*%
D11*
%TO.P,J28,3,Pin_3*%
%TO.N,Net-(J27-Pad6)*%
X147490001Y-37799999D03*
%TO.P,J28,2,Pin_2*%
%TO.N,Net-(J27-Pad5)*%
X147490001Y-35259999D03*
D10*
%TO.P,J28,1,Pin_1*%
%TO.N,Net-(J27-Pad4)*%
X147490001Y-32719999D03*
%TD*%
D11*
%TO.P,J17,3,Pin_3*%
%TO.N,Net-(J17-Pad3)*%
X115050000Y-37800000D03*
%TO.P,J17,2,Pin_2*%
%TO.N,Net-(J17-Pad2)*%
X115050000Y-35260000D03*
D10*
%TO.P,J17,1,Pin_1*%
%TO.N,Net-(J17-Pad1)*%
X115050000Y-32720000D03*
%TD*%
D11*
%TO.P,J19,2,Pin_2*%
%TO.N,Net-(J19-Pad2)*%
X91110000Y-66280000D03*
D10*
%TO.P,J19,1,Pin_1*%
%TO.N,GND_5*%
X91110000Y-63740000D03*
%TD*%
%TO.P,J15,1,Pin_1*%
%TO.N,Net-(IC2-Pad1)*%
X114900000Y-57040001D03*
D11*
%TO.P,J15,2,Pin_2*%
%TO.N,Net-(IC2-Pad2)*%
X114900000Y-59580001D03*
%TO.P,J15,3,Pin_3*%
%TO.N,Net-(IC3-Pad1)*%
X114900000Y-62120001D03*
%TO.P,J15,4,Pin_4*%
%TO.N,Net-(IC3-Pad2)*%
X114900000Y-64660001D03*
%TD*%
%TO.P,J16,3,Pin_3*%
%TO.N,Net-(J16-Pad3)*%
X115010000Y-49960000D03*
%TO.P,J16,2,Pin_2*%
%TO.N,GND_4*%
X115010000Y-47420000D03*
D10*
%TO.P,J16,1,Pin_1*%
%TO.N,Net-(J16-Pad1)*%
X115010000Y-44880000D03*
%TD*%
%TO.P,J21,1,Pin_1*%
%TO.N,Net-(IC2-Pad3)*%
X127600000Y-59580001D03*
D11*
%TO.P,J21,2,Pin_2*%
%TO.N,Net-(IC3-Pad3)*%
X127600000Y-62120001D03*
%TD*%
%TO.P,J20,2,Pin_2*%
%TO.N,Net-(J20-Pad2)*%
X127710000Y-44880000D03*
D10*
%TO.P,J20,1,Pin_1*%
%TO.N,Net-(J20-Pad1)*%
X127710000Y-47420000D03*
%TD*%
%TA.AperFunction,Conductor*%
%TO.N,GND_6*%
G36*
X127720055Y-30689500D02*
G01*
X127734856Y-30691805D01*
X127734859Y-30691805D01*
X127743728Y-30693186D01*
X127761224Y-30690898D01*
X127784939Y-30690050D01*
X128000468Y-30702699D01*
X128015128Y-30704426D01*
X128022552Y-30705745D01*
X128254876Y-30747025D01*
X128269235Y-30750455D01*
X128502351Y-30820803D01*
X128516209Y-30825888D01*
X128570139Y-30849347D01*
X128739506Y-30923021D01*
X128752668Y-30929689D01*
X128822951Y-30970637D01*
X128963071Y-31052273D01*
X128975366Y-31060437D01*
X129058698Y-31123101D01*
X129169987Y-31206789D01*
X129181234Y-31216327D01*
X129357415Y-31384449D01*
X129367473Y-31395243D01*
X129522764Y-31582798D01*
X129531497Y-31594701D01*
X129663788Y-31799138D01*
X129671068Y-31811980D01*
X129736681Y-31945379D01*
X129749229Y-31991105D01*
X129755960Y-32076633D01*
X129757114Y-32081440D01*
X129757115Y-32081446D01*
X129782237Y-32186084D01*
X129811372Y-32307439D01*
X129813265Y-32312010D01*
X129813266Y-32312012D01*
X129898465Y-32517702D01*
X129906054Y-32588292D01*
X129887144Y-32631754D01*
X129888510Y-32632547D01*
X129799674Y-32785490D01*
X129797553Y-32792494D01*
X129797551Y-32792498D01*
X129757879Y-32923488D01*
X129748405Y-32954767D01*
X129737453Y-33131298D01*
X129738693Y-33138514D01*
X129738693Y-33138516D01*
X129758544Y-33254040D01*
X129767406Y-33305614D01*
X129770272Y-33312348D01*
X129770272Y-33312350D01*
X129812801Y-33412300D01*
X129821067Y-33482814D01*
X129805814Y-33524917D01*
X129803354Y-33529153D01*
X129803351Y-33529159D01*
X129799674Y-33535490D01*
X129797553Y-33542494D01*
X129797551Y-33542498D01*
X129770103Y-33633126D01*
X129748405Y-33704767D01*
X129737453Y-33881298D01*
X129738693Y-33888514D01*
X129738693Y-33888516D01*
X129760709Y-34016638D01*
X129767406Y-34055614D01*
X129770272Y-34062348D01*
X129770272Y-34062350D01*
X129812801Y-34162300D01*
X129821067Y-34232814D01*
X129805814Y-34274917D01*
X129803354Y-34279153D01*
X129803351Y-34279159D01*
X129799674Y-34285490D01*
X129797553Y-34292494D01*
X129797551Y-34292498D01*
X129765477Y-34398401D01*
X129748405Y-34454767D01*
X129737453Y-34631298D01*
X129767406Y-34805614D01*
X129770272Y-34812348D01*
X129770272Y-34812350D01*
X129812801Y-34912300D01*
X129821067Y-34982814D01*
X129805814Y-35024917D01*
X129803354Y-35029153D01*
X129803351Y-35029159D01*
X129799674Y-35035490D01*
X129797553Y-35042494D01*
X129797551Y-35042498D01*
X129757879Y-35173488D01*
X129748405Y-35204767D01*
X129737453Y-35381298D01*
X129738693Y-35388514D01*
X129738693Y-35388516D01*
X129766166Y-35548398D01*
X129767406Y-35555614D01*
X129770272Y-35562348D01*
X129770272Y-35562350D01*
X129812801Y-35662300D01*
X129821067Y-35732814D01*
X129805814Y-35774917D01*
X129803354Y-35779153D01*
X129803351Y-35779159D01*
X129799674Y-35785490D01*
X129797553Y-35792494D01*
X129797551Y-35792498D01*
X129762683Y-35907625D01*
X129748405Y-35954767D01*
X129737453Y-36131298D01*
X129738693Y-36138514D01*
X129738693Y-36138516D01*
X129741051Y-36152239D01*
X129767406Y-36305614D01*
X129770272Y-36312348D01*
X129770272Y-36312350D01*
X129812801Y-36412300D01*
X129821067Y-36482814D01*
X129805814Y-36524917D01*
X129803354Y-36529153D01*
X129803351Y-36529159D01*
X129799674Y-36535490D01*
X129797553Y-36542494D01*
X129797551Y-36542498D01*
X129768013Y-36640027D01*
X129748405Y-36704767D01*
X129737453Y-36881298D01*
X129738693Y-36888514D01*
X129738693Y-36888516D01*
X129753594Y-36975233D01*
X129767406Y-37055614D01*
X129770272Y-37062348D01*
X129770272Y-37062350D01*
X129812801Y-37162300D01*
X129821067Y-37232814D01*
X129805814Y-37274917D01*
X129803354Y-37279153D01*
X129803351Y-37279159D01*
X129799674Y-37285490D01*
X129797553Y-37292494D01*
X129797551Y-37292498D01*
X129775328Y-37365875D01*
X129748405Y-37454767D01*
X129737453Y-37631298D01*
X129767406Y-37805614D01*
X129836657Y-37968364D01*
X129840990Y-37974252D01*
X129840993Y-37974257D01*
X129885481Y-38034708D01*
X129909747Y-38101429D01*
X129900408Y-38157608D01*
X129877702Y-38212425D01*
X129814602Y-38364764D01*
X129811372Y-38372561D01*
X129755960Y-38603367D01*
X129755518Y-38608990D01*
X129751809Y-38656119D01*
X129733614Y-38712095D01*
X129659843Y-38832415D01*
X129651180Y-38844809D01*
X129503855Y-39030729D01*
X129487259Y-39051672D01*
X129477176Y-39062936D01*
X129289646Y-39248677D01*
X129278287Y-39258651D01*
X129069849Y-39420591D01*
X129057374Y-39429133D01*
X128831047Y-39564930D01*
X128817646Y-39571913D01*
X128694394Y-39627002D01*
X128576684Y-39679614D01*
X128562533Y-39684946D01*
X128310390Y-39763008D01*
X128295700Y-39766605D01*
X128036031Y-39813895D01*
X128021033Y-39815705D01*
X127816891Y-39827978D01*
X127792090Y-39829469D01*
X127765146Y-39828196D01*
X127756269Y-39826814D01*
X127747367Y-39827978D01*
X127747364Y-39827978D01*
X127724748Y-39830936D01*
X127708410Y-39832000D01*
X124803207Y-39832000D01*
X124782303Y-39830254D01*
X124777637Y-39829469D01*
X124762539Y-39826929D01*
X124756419Y-39826854D01*
X124754867Y-39826835D01*
X124754862Y-39826835D01*
X124750000Y-39826776D01*
X124745184Y-39827466D01*
X124745100Y-39827471D01*
X124737313Y-39828335D01*
X124513367Y-39845960D01*
X124508560Y-39847114D01*
X124508554Y-39847115D01*
X124381753Y-39877558D01*
X124282561Y-39901372D01*
X124277990Y-39903265D01*
X124277988Y-39903266D01*
X124214951Y-39929377D01*
X124070283Y-39989300D01*
X123999694Y-39996889D01*
X123940489Y-39968917D01*
X123923715Y-39954667D01*
X123814045Y-39898666D01*
X123772708Y-39877558D01*
X123772706Y-39877557D01*
X123766192Y-39874231D01*
X123759087Y-39872492D01*
X123759083Y-39872491D01*
X123654162Y-39846818D01*
X123594390Y-39832192D01*
X123588788Y-39831844D01*
X123588785Y-39831844D01*
X123585175Y-39831620D01*
X123585165Y-39831620D01*
X123583236Y-39831500D01*
X123455707Y-39831500D01*
X123385964Y-39839631D01*
X123331589Y-39845970D01*
X123331585Y-39845971D01*
X123324319Y-39846818D01*
X123317444Y-39849313D01*
X123317442Y-39849314D01*
X123164338Y-39904889D01*
X123093480Y-39909330D01*
X123064044Y-39898666D01*
X123022712Y-39877560D01*
X123022707Y-39877558D01*
X123016192Y-39874231D01*
X122844390Y-39832192D01*
X122838788Y-39831844D01*
X122838785Y-39831844D01*
X122835175Y-39831620D01*
X122835165Y-39831620D01*
X122833236Y-39831500D01*
X122705707Y-39831500D01*
X122635964Y-39839631D01*
X122581589Y-39845970D01*
X122581585Y-39845971D01*
X122574319Y-39846818D01*
X122567444Y-39849313D01*
X122567442Y-39849314D01*
X122414338Y-39904889D01*
X122343480Y-39909330D01*
X122314044Y-39898666D01*
X122272712Y-39877560D01*
X122272707Y-39877558D01*
X122266192Y-39874231D01*
X122094390Y-39832192D01*
X122088788Y-39831844D01*
X122088785Y-39831844D01*
X122085175Y-39831620D01*
X122085165Y-39831620D01*
X122083236Y-39831500D01*
X121955707Y-39831500D01*
X121885964Y-39839631D01*
X121831589Y-39845970D01*
X121831585Y-39845971D01*
X121824319Y-39846818D01*
X121817444Y-39849313D01*
X121817442Y-39849314D01*
X121664338Y-39904889D01*
X121593480Y-39909330D01*
X121564044Y-39898666D01*
X121522712Y-39877560D01*
X121522707Y-39877558D01*
X121516192Y-39874231D01*
X121344390Y-39832192D01*
X121338788Y-39831844D01*
X121338785Y-39831844D01*
X121335175Y-39831620D01*
X121335165Y-39831620D01*
X121333236Y-39831500D01*
X121205707Y-39831500D01*
X121135964Y-39839631D01*
X121081589Y-39845970D01*
X121081585Y-39845971D01*
X121074319Y-39846818D01*
X121067444Y-39849313D01*
X121067442Y-39849314D01*
X120914338Y-39904889D01*
X120843480Y-39909330D01*
X120814044Y-39898666D01*
X120772712Y-39877560D01*
X120772707Y-39877558D01*
X120766192Y-39874231D01*
X120594390Y-39832192D01*
X120588788Y-39831844D01*
X120588785Y-39831844D01*
X120585175Y-39831620D01*
X120585165Y-39831620D01*
X120583236Y-39831500D01*
X120455707Y-39831500D01*
X120385964Y-39839631D01*
X120331589Y-39845970D01*
X120331585Y-39845971D01*
X120324319Y-39846818D01*
X120317444Y-39849313D01*
X120317442Y-39849314D01*
X120164338Y-39904889D01*
X120093480Y-39909330D01*
X120064044Y-39898666D01*
X120022712Y-39877560D01*
X120022707Y-39877558D01*
X120016192Y-39874231D01*
X119844390Y-39832192D01*
X119838788Y-39831844D01*
X119838785Y-39831844D01*
X119835175Y-39831620D01*
X119835165Y-39831620D01*
X119833236Y-39831500D01*
X119705707Y-39831500D01*
X119635964Y-39839631D01*
X119581589Y-39845970D01*
X119581585Y-39845971D01*
X119574319Y-39846818D01*
X119567444Y-39849313D01*
X119567442Y-39849314D01*
X119414338Y-39904889D01*
X119343480Y-39909330D01*
X119314044Y-39898666D01*
X119272712Y-39877560D01*
X119272707Y-39877558D01*
X119266192Y-39874231D01*
X119094390Y-39832192D01*
X119088788Y-39831844D01*
X119088785Y-39831844D01*
X119085175Y-39831620D01*
X119085165Y-39831620D01*
X119083236Y-39831500D01*
X118955707Y-39831500D01*
X118885964Y-39839631D01*
X118831589Y-39845970D01*
X118831585Y-39845971D01*
X118824319Y-39846818D01*
X118817444Y-39849313D01*
X118817442Y-39849314D01*
X118668810Y-39903266D01*
X118658063Y-39907167D01*
X118651946Y-39911178D01*
X118651943Y-39911179D01*
X118548615Y-39978924D01*
X118480679Y-39999547D01*
X118431313Y-39989961D01*
X118285049Y-39929377D01*
X118222012Y-39903266D01*
X118222010Y-39903265D01*
X118217439Y-39901372D01*
X118118247Y-39877558D01*
X117991446Y-39847115D01*
X117991440Y-39847114D01*
X117986633Y-39845960D01*
X117783657Y-39829986D01*
X117772637Y-39828628D01*
X117767330Y-39827735D01*
X117767329Y-39827735D01*
X117762539Y-39826929D01*
X117756300Y-39826853D01*
X117754859Y-39826835D01*
X117754855Y-39826835D01*
X117750000Y-39826776D01*
X117723997Y-39830500D01*
X117722412Y-39830727D01*
X117704549Y-39832000D01*
X115099328Y-39832000D01*
X115079943Y-39830500D01*
X115065142Y-39828195D01*
X115065139Y-39828195D01*
X115056270Y-39826814D01*
X115047368Y-39827978D01*
X115047366Y-39827978D01*
X115044638Y-39828335D01*
X115039361Y-39829025D01*
X115015241Y-39829848D01*
X114950079Y-39825814D01*
X114771178Y-39814738D01*
X114755726Y-39812818D01*
X114488818Y-39762733D01*
X114473721Y-39758921D01*
X114215033Y-39676299D01*
X114200520Y-39670653D01*
X113980124Y-39568823D01*
X113954011Y-39556758D01*
X113940309Y-39549368D01*
X113709712Y-39405926D01*
X113697028Y-39396904D01*
X113485884Y-39226113D01*
X113474408Y-39215592D01*
X113414808Y-39153757D01*
X113303086Y-39037847D01*
X113285959Y-39020078D01*
X113275866Y-39008221D01*
X113112962Y-38790943D01*
X113104409Y-38777931D01*
X113025292Y-38639648D01*
X113009045Y-38586962D01*
X113004428Y-38528299D01*
X113004040Y-38523367D01*
X112948628Y-38292561D01*
X112946734Y-38287988D01*
X112861535Y-38082298D01*
X112853946Y-38011708D01*
X112872856Y-37968246D01*
X112871490Y-37967453D01*
X112928148Y-37869908D01*
X112960326Y-37814510D01*
X112963021Y-37805614D01*
X112974808Y-37766695D01*
X113687251Y-37766695D01*
X113687548Y-37771848D01*
X113687548Y-37771851D01*
X113693011Y-37866590D01*
X113700110Y-37989715D01*
X113701247Y-37994761D01*
X113701248Y-37994767D01*
X113715449Y-38057778D01*
X113749222Y-38207639D01*
X113833266Y-38414616D01*
X113949987Y-38605088D01*
X114096250Y-38773938D01*
X114268126Y-38916632D01*
X114461000Y-39029338D01*
X114465825Y-39031180D01*
X114465826Y-39031181D01*
X114483283Y-39037847D01*
X114669692Y-39109030D01*
X114674760Y-39110061D01*
X114674763Y-39110062D01*
X114769862Y-39129410D01*
X114888597Y-39153567D01*
X114893772Y-39153757D01*
X114893774Y-39153757D01*
X115106673Y-39161564D01*
X115106677Y-39161564D01*
X115111837Y-39161753D01*
X115116957Y-39161097D01*
X115116959Y-39161097D01*
X115328288Y-39134025D01*
X115328289Y-39134025D01*
X115333416Y-39133368D01*
X115338366Y-39131883D01*
X115542429Y-39070661D01*
X115542434Y-39070659D01*
X115547384Y-39069174D01*
X115747994Y-38970896D01*
X115929860Y-38841173D01*
X115976427Y-38794769D01*
X116084435Y-38687137D01*
X116088096Y-38683489D01*
X116124620Y-38632661D01*
X116215435Y-38506277D01*
X116218453Y-38502077D01*
X116223383Y-38492103D01*
X116315136Y-38306453D01*
X116315137Y-38306451D01*
X116317430Y-38301811D01*
X116382370Y-38088069D01*
X116411529Y-37866590D01*
X116412647Y-37820840D01*
X116413074Y-37803365D01*
X116413074Y-37803361D01*
X116413156Y-37800000D01*
X116410418Y-37766695D01*
X118767251Y-37766695D01*
X118767548Y-37771848D01*
X118767548Y-37771851D01*
X118773011Y-37866590D01*
X118780110Y-37989715D01*
X118781247Y-37994761D01*
X118781248Y-37994767D01*
X118795449Y-38057778D01*
X118829222Y-38207639D01*
X118913266Y-38414616D01*
X119029987Y-38605088D01*
X119176250Y-38773938D01*
X119348126Y-38916632D01*
X119541000Y-39029338D01*
X119545825Y-39031180D01*
X119545826Y-39031181D01*
X119563283Y-39037847D01*
X119749692Y-39109030D01*
X119754760Y-39110061D01*
X119754763Y-39110062D01*
X119849862Y-39129410D01*
X119968597Y-39153567D01*
X119973772Y-39153757D01*
X119973774Y-39153757D01*
X120186673Y-39161564D01*
X120186677Y-39161564D01*
X120191837Y-39161753D01*
X120196957Y-39161097D01*
X120196959Y-39161097D01*
X120408288Y-39134025D01*
X120408289Y-39134025D01*
X120413416Y-39133368D01*
X120418366Y-39131883D01*
X120622429Y-39070661D01*
X120622434Y-39070659D01*
X120627384Y-39069174D01*
X120827994Y-38970896D01*
X121009860Y-38841173D01*
X121056427Y-38794769D01*
X121164435Y-38687137D01*
X121168096Y-38683489D01*
X121204620Y-38632661D01*
X121298453Y-38502077D01*
X121299640Y-38502930D01*
X121346960Y-38459362D01*
X121416897Y-38447145D01*
X121482338Y-38474678D01*
X121510166Y-38506511D01*
X121567694Y-38600388D01*
X121573777Y-38608699D01*
X121713213Y-38769667D01*
X121720580Y-38776883D01*
X121884434Y-38912916D01*
X121892881Y-38918831D01*
X122076756Y-39026279D01*
X122086042Y-39030729D01*
X122285001Y-39106703D01*
X122294899Y-39109579D01*
X122398250Y-39130606D01*
X122412299Y-39129410D01*
X122416000Y-39119065D01*
X122416000Y-39118517D01*
X122924000Y-39118517D01*
X122928064Y-39132359D01*
X122941478Y-39134393D01*
X122948184Y-39133534D01*
X122958262Y-39131392D01*
X123162255Y-39070191D01*
X123171842Y-39066433D01*
X123363095Y-38972739D01*
X123371945Y-38967464D01*
X123545328Y-38843792D01*
X123553200Y-38837139D01*
X123704052Y-38686812D01*
X123710730Y-38678965D01*
X123835003Y-38506020D01*
X123840313Y-38497183D01*
X123934670Y-38306267D01*
X123938469Y-38296672D01*
X124000377Y-38092910D01*
X124002555Y-38082837D01*
X124003986Y-38071962D01*
X124003363Y-38067966D01*
X126418257Y-38067966D01*
X126448565Y-38202446D01*
X126451645Y-38212275D01*
X126531770Y-38409603D01*
X126536413Y-38418794D01*
X126647694Y-38600388D01*
X126653777Y-38608699D01*
X126793213Y-38769667D01*
X126800580Y-38776883D01*
X126964434Y-38912916D01*
X126972881Y-38918831D01*
X127156756Y-39026279D01*
X127166042Y-39030729D01*
X127365001Y-39106703D01*
X127374899Y-39109579D01*
X127478250Y-39130606D01*
X127492299Y-39129410D01*
X127496000Y-39119065D01*
X127496000Y-39118517D01*
X128004000Y-39118517D01*
X128008064Y-39132359D01*
X128021478Y-39134393D01*
X128028184Y-39133534D01*
X128038262Y-39131392D01*
X128242255Y-39070191D01*
X128251842Y-39066433D01*
X128443095Y-38972739D01*
X128451945Y-38967464D01*
X128625328Y-38843792D01*
X128633200Y-38837139D01*
X128784052Y-38686812D01*
X128790730Y-38678965D01*
X128915003Y-38506020D01*
X128920313Y-38497183D01*
X129014670Y-38306267D01*
X129018469Y-38296672D01*
X129080377Y-38092910D01*
X129082555Y-38082837D01*
X129083986Y-38071962D01*
X129081775Y-38057778D01*
X129068617Y-38054000D01*
X128022115Y-38054000D01*
X128006876Y-38058475D01*
X128005671Y-38059865D01*
X128004000Y-38067548D01*
X128004000Y-39118517D01*
X127496000Y-39118517D01*
X127496000Y-38072115D01*
X127491525Y-38056876D01*
X127490135Y-38055671D01*
X127482452Y-38054000D01*
X126433225Y-38054000D01*
X126419694Y-38057973D01*
X126418257Y-38067966D01*
X124003363Y-38067966D01*
X124001775Y-38057778D01*
X123988617Y-38054000D01*
X122942115Y-38054000D01*
X122926876Y-38058475D01*
X122925671Y-38059865D01*
X122924000Y-38067548D01*
X122924000Y-39118517D01*
X122416000Y-39118517D01*
X122416000Y-37672000D01*
X122436002Y-37603879D01*
X122489658Y-37557386D01*
X122542000Y-37546000D01*
X123988344Y-37546000D01*
X124001875Y-37542027D01*
X124003180Y-37532947D01*
X123961214Y-37365875D01*
X123957894Y-37356124D01*
X123872972Y-37160814D01*
X123868105Y-37151739D01*
X123752426Y-36972926D01*
X123746136Y-36964757D01*
X123602806Y-36807240D01*
X123595273Y-36800215D01*
X123428139Y-36668222D01*
X123419556Y-36662520D01*
X123382602Y-36642120D01*
X123332631Y-36591687D01*
X123317859Y-36522245D01*
X123342975Y-36455839D01*
X123370327Y-36429232D01*
X123394065Y-36412300D01*
X123549860Y-36301173D01*
X123708096Y-36143489D01*
X123711670Y-36138516D01*
X123835435Y-35966277D01*
X123838453Y-35962077D01*
X123845529Y-35947761D01*
X123935136Y-35766453D01*
X123935137Y-35766451D01*
X123937430Y-35761811D01*
X123981371Y-35617186D01*
X124000865Y-35553023D01*
X124000865Y-35553021D01*
X124002370Y-35548069D01*
X124031529Y-35326590D01*
X124032147Y-35301298D01*
X124033074Y-35263365D01*
X124033074Y-35263361D01*
X124033156Y-35260000D01*
X124030418Y-35226695D01*
X126387251Y-35226695D01*
X126387548Y-35231848D01*
X126387548Y-35231851D01*
X126393011Y-35326590D01*
X126400110Y-35449715D01*
X126401247Y-35454761D01*
X126401248Y-35454767D01*
X126421119Y-35542939D01*
X126449222Y-35667639D01*
X126533266Y-35874616D01*
X126578089Y-35947761D01*
X126647291Y-36060688D01*
X126649987Y-36065088D01*
X126796250Y-36233938D01*
X126968126Y-36376632D01*
X126988203Y-36388364D01*
X127041955Y-36419774D01*
X127090679Y-36471412D01*
X127103750Y-36541195D01*
X127077019Y-36606967D01*
X127036562Y-36640327D01*
X127028457Y-36644546D01*
X127019738Y-36650036D01*
X126849433Y-36777905D01*
X126841726Y-36784748D01*
X126694590Y-36938717D01*
X126688104Y-36946727D01*
X126568098Y-37122649D01*
X126563000Y-37131623D01*
X126473338Y-37324783D01*
X126469775Y-37334470D01*
X126414389Y-37534183D01*
X126415912Y-37542607D01*
X126428292Y-37546000D01*
X129068344Y-37546000D01*
X129081875Y-37542027D01*
X129083180Y-37532947D01*
X129041214Y-37365875D01*
X129037894Y-37356124D01*
X128952972Y-37160814D01*
X128948105Y-37151739D01*
X128832426Y-36972926D01*
X128826136Y-36964757D01*
X128682806Y-36807240D01*
X128675273Y-36800215D01*
X128508139Y-36668222D01*
X128499556Y-36662520D01*
X128462602Y-36642120D01*
X128412631Y-36591687D01*
X128397859Y-36522245D01*
X128422975Y-36455839D01*
X128450327Y-36429232D01*
X128474065Y-36412300D01*
X128629860Y-36301173D01*
X128788096Y-36143489D01*
X128791670Y-36138516D01*
X128915435Y-35966277D01*
X128918453Y-35962077D01*
X128925529Y-35947761D01*
X129015136Y-35766453D01*
X129015137Y-35766451D01*
X129017430Y-35761811D01*
X129061371Y-35617186D01*
X129080865Y-35553023D01*
X129080865Y-35553021D01*
X129082370Y-35548069D01*
X129111529Y-35326590D01*
X129112147Y-35301298D01*
X129113074Y-35263365D01*
X129113074Y-35263361D01*
X129113156Y-35260000D01*
X129094852Y-35037361D01*
X129040431Y-34820702D01*
X128951354Y-34615840D01*
X128830014Y-34428277D01*
X128826532Y-34424450D01*
X128682798Y-34266488D01*
X128651746Y-34202642D01*
X128660141Y-34132143D01*
X128705317Y-34077375D01*
X128731761Y-34063706D01*
X128838297Y-34023767D01*
X128846705Y-34020615D01*
X128963261Y-33933261D01*
X129050615Y-33816705D01*
X129101745Y-33680316D01*
X129108500Y-33618134D01*
X129108500Y-31821866D01*
X129101745Y-31759684D01*
X129050615Y-31623295D01*
X128963261Y-31506739D01*
X128846705Y-31419385D01*
X128710316Y-31368255D01*
X128648134Y-31361500D01*
X126851866Y-31361500D01*
X126789684Y-31368255D01*
X126653295Y-31419385D01*
X126536739Y-31506739D01*
X126449385Y-31623295D01*
X126398255Y-31759684D01*
X126391500Y-31821866D01*
X126391500Y-33618134D01*
X126398255Y-33680316D01*
X126449385Y-33816705D01*
X126536739Y-33933261D01*
X126653295Y-34020615D01*
X126661704Y-34023767D01*
X126661705Y-34023768D01*
X126770451Y-34064535D01*
X126827216Y-34107176D01*
X126851916Y-34173738D01*
X126836709Y-34243087D01*
X126817316Y-34269568D01*
X126690629Y-34402138D01*
X126564743Y-34586680D01*
X126470688Y-34789305D01*
X126410989Y-35004570D01*
X126387251Y-35226695D01*
X124030418Y-35226695D01*
X124014852Y-35037361D01*
X123960431Y-34820702D01*
X123871354Y-34615840D01*
X123750014Y-34428277D01*
X123599670Y-34263051D01*
X123595619Y-34259852D01*
X123595615Y-34259848D01*
X123428414Y-34127800D01*
X123428410Y-34127798D01*
X123424359Y-34124598D01*
X123383053Y-34101796D01*
X123333084Y-34051364D01*
X123318312Y-33981921D01*
X123343428Y-33915516D01*
X123370780Y-33888909D01*
X123414603Y-33857650D01*
X123549860Y-33761173D01*
X123606464Y-33704767D01*
X123678355Y-33633126D01*
X123708096Y-33603489D01*
X123838453Y-33422077D01*
X123852078Y-33394510D01*
X123935136Y-33226453D01*
X123935137Y-33226451D01*
X123937430Y-33221811D01*
X124002370Y-33008069D01*
X124031529Y-32786590D01*
X124033156Y-32720000D01*
X124014852Y-32497361D01*
X123960431Y-32280702D01*
X123871354Y-32075840D01*
X123816921Y-31991700D01*
X123752822Y-31892617D01*
X123752820Y-31892614D01*
X123750014Y-31888277D01*
X123599670Y-31723051D01*
X123595619Y-31719852D01*
X123595615Y-31719848D01*
X123428414Y-31587800D01*
X123428410Y-31587798D01*
X123424359Y-31584598D01*
X123228789Y-31476638D01*
X123223920Y-31474914D01*
X123223916Y-31474912D01*
X123023087Y-31403795D01*
X123023083Y-31403794D01*
X123018212Y-31402069D01*
X123013119Y-31401162D01*
X123013116Y-31401161D01*
X122803373Y-31363800D01*
X122803367Y-31363799D01*
X122798284Y-31362894D01*
X122724452Y-31361992D01*
X122580081Y-31360228D01*
X122580079Y-31360228D01*
X122574911Y-31360165D01*
X122354091Y-31393955D01*
X122141756Y-31463357D01*
X122103081Y-31483490D01*
X121949403Y-31563490D01*
X121943607Y-31566507D01*
X121939474Y-31569610D01*
X121939471Y-31569612D01*
X121771198Y-31695955D01*
X121764965Y-31700635D01*
X121708235Y-31760000D01*
X121684283Y-31785064D01*
X121622759Y-31820494D01*
X121551846Y-31817037D01*
X121494060Y-31775791D01*
X121475207Y-31742243D01*
X121433767Y-31631703D01*
X121430615Y-31623295D01*
X121343261Y-31506739D01*
X121226705Y-31419385D01*
X121090316Y-31368255D01*
X121028134Y-31361500D01*
X119231866Y-31361500D01*
X119169684Y-31368255D01*
X119033295Y-31419385D01*
X118916739Y-31506739D01*
X118829385Y-31623295D01*
X118778255Y-31759684D01*
X118771500Y-31821866D01*
X118771500Y-33618134D01*
X118778255Y-33680316D01*
X118829385Y-33816705D01*
X118916739Y-33933261D01*
X119033295Y-34020615D01*
X119041704Y-34023767D01*
X119041705Y-34023768D01*
X119150451Y-34064535D01*
X119207216Y-34107176D01*
X119231916Y-34173738D01*
X119216709Y-34243087D01*
X119197316Y-34269568D01*
X119070629Y-34402138D01*
X118944743Y-34586680D01*
X118850688Y-34789305D01*
X118790989Y-35004570D01*
X118767251Y-35226695D01*
X118767548Y-35231848D01*
X118767548Y-35231851D01*
X118773011Y-35326590D01*
X118780110Y-35449715D01*
X118781247Y-35454761D01*
X118781248Y-35454767D01*
X118801119Y-35542939D01*
X118829222Y-35667639D01*
X118913266Y-35874616D01*
X118958089Y-35947761D01*
X119027291Y-36060688D01*
X119029987Y-36065088D01*
X119176250Y-36233938D01*
X119348126Y-36376632D01*
X119368203Y-36388364D01*
X119421445Y-36419476D01*
X119470169Y-36471114D01*
X119483240Y-36540897D01*
X119456509Y-36606669D01*
X119416055Y-36640027D01*
X119403607Y-36646507D01*
X119399474Y-36649610D01*
X119399471Y-36649612D01*
X119229100Y-36777530D01*
X119224965Y-36780635D01*
X119221393Y-36784373D01*
X119115453Y-36895233D01*
X119070629Y-36942138D01*
X119067715Y-36946410D01*
X119067714Y-36946411D01*
X119055404Y-36964457D01*
X118944743Y-37126680D01*
X118929003Y-37160590D01*
X118870024Y-37287650D01*
X118850688Y-37329305D01*
X118790989Y-37544570D01*
X118767251Y-37766695D01*
X116410418Y-37766695D01*
X116394852Y-37577361D01*
X116340431Y-37360702D01*
X116251354Y-37155840D01*
X116130014Y-36968277D01*
X115979670Y-36803051D01*
X115975619Y-36799852D01*
X115975615Y-36799848D01*
X115808414Y-36667800D01*
X115808410Y-36667798D01*
X115804359Y-36664598D01*
X115763053Y-36641796D01*
X115713084Y-36591364D01*
X115698312Y-36521921D01*
X115723428Y-36455516D01*
X115750780Y-36428909D01*
X115819191Y-36380112D01*
X115929860Y-36301173D01*
X116088096Y-36143489D01*
X116091670Y-36138516D01*
X116215435Y-35966277D01*
X116218453Y-35962077D01*
X116225529Y-35947761D01*
X116315136Y-35766453D01*
X116315137Y-35766451D01*
X116317430Y-35761811D01*
X116361371Y-35617186D01*
X116380865Y-35553023D01*
X116380865Y-35553021D01*
X116382370Y-35548069D01*
X116411529Y-35326590D01*
X116412147Y-35301298D01*
X116413074Y-35263365D01*
X116413074Y-35263361D01*
X116413156Y-35260000D01*
X116394852Y-35037361D01*
X116340431Y-34820702D01*
X116251354Y-34615840D01*
X116130014Y-34428277D01*
X116126532Y-34424450D01*
X115982798Y-34266488D01*
X115951746Y-34202642D01*
X115960141Y-34132143D01*
X116005317Y-34077375D01*
X116031761Y-34063706D01*
X116138297Y-34023767D01*
X116146705Y-34020615D01*
X116263261Y-33933261D01*
X116350615Y-33816705D01*
X116401745Y-33680316D01*
X116408500Y-33618134D01*
X116408500Y-31821866D01*
X116401745Y-31759684D01*
X116350615Y-31623295D01*
X116263261Y-31506739D01*
X116146705Y-31419385D01*
X116010316Y-31368255D01*
X115948134Y-31361500D01*
X114151866Y-31361500D01*
X114089684Y-31368255D01*
X113953295Y-31419385D01*
X113836739Y-31506739D01*
X113749385Y-31623295D01*
X113698255Y-31759684D01*
X113691500Y-31821866D01*
X113691500Y-33618134D01*
X113698255Y-33680316D01*
X113749385Y-33816705D01*
X113836739Y-33933261D01*
X113953295Y-34020615D01*
X113961704Y-34023767D01*
X113961705Y-34023768D01*
X114070451Y-34064535D01*
X114127216Y-34107176D01*
X114151916Y-34173738D01*
X114136709Y-34243087D01*
X114117316Y-34269568D01*
X113990629Y-34402138D01*
X113864743Y-34586680D01*
X113770688Y-34789305D01*
X113710989Y-35004570D01*
X113687251Y-35226695D01*
X113687548Y-35231848D01*
X113687548Y-35231851D01*
X113693011Y-35326590D01*
X113700110Y-35449715D01*
X113701247Y-35454761D01*
X113701248Y-35454767D01*
X113721119Y-35542939D01*
X113749222Y-35667639D01*
X113833266Y-35874616D01*
X113878089Y-35947761D01*
X113947291Y-36060688D01*
X113949987Y-36065088D01*
X114096250Y-36233938D01*
X114268126Y-36376632D01*
X114288203Y-36388364D01*
X114341445Y-36419476D01*
X114390169Y-36471114D01*
X114403240Y-36540897D01*
X114376509Y-36606669D01*
X114336055Y-36640027D01*
X114323607Y-36646507D01*
X114319474Y-36649610D01*
X114319471Y-36649612D01*
X114149100Y-36777530D01*
X114144965Y-36780635D01*
X114141393Y-36784373D01*
X114035453Y-36895233D01*
X113990629Y-36942138D01*
X113987715Y-36946410D01*
X113987714Y-36946411D01*
X113975404Y-36964457D01*
X113864743Y-37126680D01*
X113849003Y-37160590D01*
X113790024Y-37287650D01*
X113770688Y-37329305D01*
X113710989Y-37544570D01*
X113687251Y-37766695D01*
X112974808Y-37766695D01*
X113009473Y-37652239D01*
X113011595Y-37645233D01*
X113022547Y-37468702D01*
X113012840Y-37412207D01*
X112993834Y-37301602D01*
X112993834Y-37301601D01*
X112992594Y-37294386D01*
X112988809Y-37285490D01*
X112947199Y-37187700D01*
X112938933Y-37117186D01*
X112954186Y-37075083D01*
X112956646Y-37070847D01*
X112956649Y-37070841D01*
X112960326Y-37064510D01*
X112963021Y-37055614D01*
X113009473Y-36902239D01*
X113011595Y-36895233D01*
X113022547Y-36718702D01*
X113013801Y-36667800D01*
X112993834Y-36551602D01*
X112993834Y-36551601D01*
X112992594Y-36544386D01*
X112988809Y-36535490D01*
X112947199Y-36437700D01*
X112938933Y-36367186D01*
X112954186Y-36325083D01*
X112956646Y-36320847D01*
X112956649Y-36320841D01*
X112960326Y-36314510D01*
X112963021Y-36305614D01*
X113009473Y-36152239D01*
X113011595Y-36145233D01*
X113022547Y-35968702D01*
X113020612Y-35957438D01*
X112993834Y-35801602D01*
X112993834Y-35801601D01*
X112992594Y-35794386D01*
X112988809Y-35785490D01*
X112947199Y-35687700D01*
X112938933Y-35617186D01*
X112954186Y-35575083D01*
X112956646Y-35570847D01*
X112956649Y-35570841D01*
X112960326Y-35564510D01*
X112963021Y-35555614D01*
X113009473Y-35402239D01*
X113011595Y-35395233D01*
X113022547Y-35218702D01*
X112992594Y-35044386D01*
X112987469Y-35032342D01*
X112947199Y-34937700D01*
X112938933Y-34867186D01*
X112954186Y-34825083D01*
X112956646Y-34820847D01*
X112956649Y-34820841D01*
X112960326Y-34814510D01*
X112963021Y-34805614D01*
X113009473Y-34652239D01*
X113011595Y-34645233D01*
X113022547Y-34468702D01*
X113016347Y-34432617D01*
X112993834Y-34301602D01*
X112993834Y-34301601D01*
X112992594Y-34294386D01*
X112988809Y-34285490D01*
X112947199Y-34187700D01*
X112938933Y-34117186D01*
X112954186Y-34075083D01*
X112956646Y-34070847D01*
X112956649Y-34070841D01*
X112960326Y-34064510D01*
X112963021Y-34055614D01*
X113009473Y-33902239D01*
X113011595Y-33895233D01*
X113022547Y-33718702D01*
X113017223Y-33687715D01*
X112993834Y-33551602D01*
X112993834Y-33551601D01*
X112992594Y-33544386D01*
X112988809Y-33535490D01*
X112947199Y-33437700D01*
X112938933Y-33367186D01*
X112954186Y-33325083D01*
X112956646Y-33320847D01*
X112956649Y-33320841D01*
X112960326Y-33314510D01*
X112963021Y-33305614D01*
X113009473Y-33152239D01*
X113011595Y-33145233D01*
X113022547Y-32968702D01*
X112992594Y-32794386D01*
X112923343Y-32631636D01*
X112919010Y-32625748D01*
X112919007Y-32625743D01*
X112874519Y-32565292D01*
X112850253Y-32498571D01*
X112859592Y-32442391D01*
X112946734Y-32232012D01*
X112946735Y-32232010D01*
X112948628Y-32227439D01*
X113004040Y-31996633D01*
X113009045Y-31933040D01*
X113025292Y-31880354D01*
X113104410Y-31742070D01*
X113112963Y-31729058D01*
X113275867Y-31511780D01*
X113285960Y-31499923D01*
X113474409Y-31304409D01*
X113485887Y-31293886D01*
X113593563Y-31206789D01*
X113697029Y-31123097D01*
X113709707Y-31114078D01*
X113940307Y-30970634D01*
X113954008Y-30963245D01*
X114200527Y-30849347D01*
X114215038Y-30843702D01*
X114473724Y-30761079D01*
X114488820Y-30757267D01*
X114573873Y-30741308D01*
X114755727Y-30707183D01*
X114771179Y-30705263D01*
X114882440Y-30698375D01*
X115008036Y-30690599D01*
X115033740Y-30691791D01*
X115034858Y-30691805D01*
X115043730Y-30693186D01*
X115052632Y-30692022D01*
X115052635Y-30692022D01*
X115075251Y-30689064D01*
X115091589Y-30688000D01*
X127700670Y-30688000D01*
X127720055Y-30689500D01*
G37*
%TD.AperFunction*%
%TD*%
%TA.AperFunction,Conductor*%
%TO.N,GND_4*%
G36*
X124068687Y-42690039D02*
G01*
X124191491Y-42740906D01*
X124268571Y-42772833D01*
X124282561Y-42778628D01*
X124363660Y-42798098D01*
X124508554Y-42832885D01*
X124508560Y-42832886D01*
X124513367Y-42834040D01*
X124708071Y-42849363D01*
X124716343Y-42850014D01*
X124727363Y-42851372D01*
X124732670Y-42852265D01*
X124732671Y-42852265D01*
X124737461Y-42853071D01*
X124743700Y-42853147D01*
X124745141Y-42853165D01*
X124745145Y-42853165D01*
X124750000Y-42853224D01*
X124777588Y-42849273D01*
X124795451Y-42848000D01*
X127660670Y-42848000D01*
X127680055Y-42849500D01*
X127694856Y-42851805D01*
X127694859Y-42851805D01*
X127703728Y-42853186D01*
X127721105Y-42850914D01*
X127744897Y-42850071D01*
X127985499Y-42864349D01*
X128000309Y-42866113D01*
X128264580Y-42913606D01*
X128279081Y-42917110D01*
X128432634Y-42963997D01*
X128535877Y-42995523D01*
X128549867Y-43000719D01*
X128656396Y-43047641D01*
X128795590Y-43108952D01*
X128808870Y-43115768D01*
X129040067Y-43252302D01*
X129052448Y-43260641D01*
X129265876Y-43423559D01*
X129277171Y-43433292D01*
X129369414Y-43522831D01*
X129469837Y-43620312D01*
X129479913Y-43631325D01*
X129649100Y-43839805D01*
X129657803Y-43851933D01*
X129733107Y-43971199D01*
X129752178Y-44028582D01*
X129755960Y-44076633D01*
X129811372Y-44307439D01*
X129813265Y-44312010D01*
X129813266Y-44312012D01*
X129898465Y-44517702D01*
X129906054Y-44588292D01*
X129887144Y-44631754D01*
X129888510Y-44632547D01*
X129799674Y-44785490D01*
X129797553Y-44792494D01*
X129797551Y-44792498D01*
X129757879Y-44923488D01*
X129748405Y-44954767D01*
X129737453Y-45131298D01*
X129738693Y-45138514D01*
X129738693Y-45138516D01*
X129752339Y-45217928D01*
X129767406Y-45305614D01*
X129770272Y-45312348D01*
X129770272Y-45312350D01*
X129812801Y-45412300D01*
X129821067Y-45482814D01*
X129805814Y-45524917D01*
X129803354Y-45529153D01*
X129803351Y-45529159D01*
X129799674Y-45535490D01*
X129797553Y-45542494D01*
X129797551Y-45542498D01*
X129757879Y-45673488D01*
X129748405Y-45704767D01*
X129737453Y-45881298D01*
X129738693Y-45888514D01*
X129738693Y-45888516D01*
X129752339Y-45967928D01*
X129767406Y-46055614D01*
X129770272Y-46062348D01*
X129770272Y-46062350D01*
X129812801Y-46162300D01*
X129821067Y-46232814D01*
X129805814Y-46274917D01*
X129803354Y-46279153D01*
X129803351Y-46279159D01*
X129799674Y-46285490D01*
X129797553Y-46292494D01*
X129797551Y-46292498D01*
X129763999Y-46403278D01*
X129748405Y-46454767D01*
X129737453Y-46631298D01*
X129738693Y-46638514D01*
X129738693Y-46638516D01*
X129766166Y-46798398D01*
X129767406Y-46805614D01*
X129770272Y-46812348D01*
X129770272Y-46812350D01*
X129812801Y-46912300D01*
X129821067Y-46982814D01*
X129805814Y-47024917D01*
X129803354Y-47029153D01*
X129803351Y-47029159D01*
X129799674Y-47035490D01*
X129797553Y-47042494D01*
X129797551Y-47042498D01*
X129764100Y-47152947D01*
X129748405Y-47204767D01*
X129737453Y-47381298D01*
X129767406Y-47555614D01*
X129770272Y-47562348D01*
X129770272Y-47562350D01*
X129812801Y-47662300D01*
X129821067Y-47732814D01*
X129805814Y-47774917D01*
X129803354Y-47779153D01*
X129803351Y-47779159D01*
X129799674Y-47785490D01*
X129797553Y-47792494D01*
X129797551Y-47792498D01*
X129759943Y-47916672D01*
X129748405Y-47954767D01*
X129737453Y-48131298D01*
X129738693Y-48138514D01*
X129738693Y-48138516D01*
X129754798Y-48232239D01*
X129767406Y-48305614D01*
X129770272Y-48312348D01*
X129770272Y-48312350D01*
X129812801Y-48412300D01*
X129821067Y-48482814D01*
X129805814Y-48524917D01*
X129803354Y-48529153D01*
X129803351Y-48529159D01*
X129799674Y-48535490D01*
X129797553Y-48542494D01*
X129797551Y-48542498D01*
X129770062Y-48633261D01*
X129748405Y-48704767D01*
X129737453Y-48881298D01*
X129767406Y-49055614D01*
X129770272Y-49062348D01*
X129770272Y-49062350D01*
X129812801Y-49162300D01*
X129821067Y-49232814D01*
X129805814Y-49274917D01*
X129803354Y-49279153D01*
X129803351Y-49279159D01*
X129799674Y-49285490D01*
X129797553Y-49292494D01*
X129797551Y-49292498D01*
X129764577Y-49401372D01*
X129748405Y-49454767D01*
X129737453Y-49631298D01*
X129738693Y-49638514D01*
X129738693Y-49638516D01*
X129755678Y-49737361D01*
X129767406Y-49805614D01*
X129836657Y-49968364D01*
X129840990Y-49974252D01*
X129840993Y-49974257D01*
X129885481Y-50034708D01*
X129909747Y-50101429D01*
X129900408Y-50157608D01*
X129865063Y-50242939D01*
X129814602Y-50364764D01*
X129811372Y-50372561D01*
X129791902Y-50453660D01*
X129757115Y-50598554D01*
X129757115Y-50598556D01*
X129755960Y-50603367D01*
X129751009Y-50666277D01*
X129749621Y-50683914D01*
X129736293Y-50731198D01*
X129670850Y-50859726D01*
X129669111Y-50863142D01*
X129661755Y-50875729D01*
X129524726Y-51081839D01*
X129515965Y-51093493D01*
X129356047Y-51282391D01*
X129346000Y-51292954D01*
X129165327Y-51462122D01*
X129154126Y-51471454D01*
X128955127Y-51618615D01*
X128942922Y-51626591D01*
X128728253Y-51749780D01*
X128715210Y-51756293D01*
X128487747Y-51853861D01*
X128474039Y-51858823D01*
X128355435Y-51894143D01*
X128236828Y-51929464D01*
X128222647Y-51932808D01*
X128125922Y-51949776D01*
X127978858Y-51975574D01*
X127964377Y-51977258D01*
X127752246Y-51989552D01*
X127725576Y-51988263D01*
X127716269Y-51986814D01*
X127686346Y-51990727D01*
X127684748Y-51990936D01*
X127668410Y-51992000D01*
X124803207Y-51992000D01*
X124782303Y-51990254D01*
X124775455Y-51989102D01*
X124762539Y-51986929D01*
X124756419Y-51986854D01*
X124754867Y-51986835D01*
X124754862Y-51986835D01*
X124750000Y-51986776D01*
X124745184Y-51987466D01*
X124745100Y-51987471D01*
X124737313Y-51988335D01*
X124513367Y-52005960D01*
X124508560Y-52007114D01*
X124508554Y-52007115D01*
X124381753Y-52037558D01*
X124282561Y-52061372D01*
X124277990Y-52063265D01*
X124277988Y-52063266D01*
X124246623Y-52076258D01*
X124070283Y-52149300D01*
X123999694Y-52156889D01*
X123940489Y-52128917D01*
X123923715Y-52114667D01*
X123814045Y-52058666D01*
X123772708Y-52037558D01*
X123772706Y-52037557D01*
X123766192Y-52034231D01*
X123759087Y-52032492D01*
X123759083Y-52032491D01*
X123654162Y-52006818D01*
X123594390Y-51992192D01*
X123588788Y-51991844D01*
X123588785Y-51991844D01*
X123585175Y-51991620D01*
X123585165Y-51991620D01*
X123583236Y-51991500D01*
X123455707Y-51991500D01*
X123385964Y-51999631D01*
X123331589Y-52005970D01*
X123331585Y-52005971D01*
X123324319Y-52006818D01*
X123317444Y-52009313D01*
X123317442Y-52009314D01*
X123164338Y-52064889D01*
X123093480Y-52069330D01*
X123064044Y-52058666D01*
X123022712Y-52037560D01*
X123022707Y-52037558D01*
X123016192Y-52034231D01*
X122844390Y-51992192D01*
X122838788Y-51991844D01*
X122838785Y-51991844D01*
X122835175Y-51991620D01*
X122835165Y-51991620D01*
X122833236Y-51991500D01*
X122705707Y-51991500D01*
X122635964Y-51999631D01*
X122581589Y-52005970D01*
X122581585Y-52005971D01*
X122574319Y-52006818D01*
X122567444Y-52009313D01*
X122567442Y-52009314D01*
X122414338Y-52064889D01*
X122343480Y-52069330D01*
X122314044Y-52058666D01*
X122272712Y-52037560D01*
X122272707Y-52037558D01*
X122266192Y-52034231D01*
X122094390Y-51992192D01*
X122088788Y-51991844D01*
X122088785Y-51991844D01*
X122085175Y-51991620D01*
X122085165Y-51991620D01*
X122083236Y-51991500D01*
X121955707Y-51991500D01*
X121885964Y-51999631D01*
X121831589Y-52005970D01*
X121831585Y-52005971D01*
X121824319Y-52006818D01*
X121817444Y-52009313D01*
X121817442Y-52009314D01*
X121664338Y-52064889D01*
X121593480Y-52069330D01*
X121564044Y-52058666D01*
X121522712Y-52037560D01*
X121522707Y-52037558D01*
X121516192Y-52034231D01*
X121344390Y-51992192D01*
X121338788Y-51991844D01*
X121338785Y-51991844D01*
X121335175Y-51991620D01*
X121335165Y-51991620D01*
X121333236Y-51991500D01*
X121205707Y-51991500D01*
X121135964Y-51999631D01*
X121081589Y-52005970D01*
X121081585Y-52005971D01*
X121074319Y-52006818D01*
X121067444Y-52009313D01*
X121067442Y-52009314D01*
X120914338Y-52064889D01*
X120843480Y-52069330D01*
X120814044Y-52058666D01*
X120772712Y-52037560D01*
X120772707Y-52037558D01*
X120766192Y-52034231D01*
X120594390Y-51992192D01*
X120588788Y-51991844D01*
X120588785Y-51991844D01*
X120585175Y-51991620D01*
X120585165Y-51991620D01*
X120583236Y-51991500D01*
X120455707Y-51991500D01*
X120385964Y-51999631D01*
X120331589Y-52005970D01*
X120331585Y-52005971D01*
X120324319Y-52006818D01*
X120317444Y-52009313D01*
X120317442Y-52009314D01*
X120164338Y-52064889D01*
X120093480Y-52069330D01*
X120064044Y-52058666D01*
X120022712Y-52037560D01*
X120022707Y-52037558D01*
X120016192Y-52034231D01*
X119844390Y-51992192D01*
X119838788Y-51991844D01*
X119838785Y-51991844D01*
X119835175Y-51991620D01*
X119835165Y-51991620D01*
X119833236Y-51991500D01*
X119705707Y-51991500D01*
X119635964Y-51999631D01*
X119581589Y-52005970D01*
X119581585Y-52005971D01*
X119574319Y-52006818D01*
X119567444Y-52009313D01*
X119567442Y-52009314D01*
X119414338Y-52064889D01*
X119343480Y-52069330D01*
X119314044Y-52058666D01*
X119272712Y-52037560D01*
X119272707Y-52037558D01*
X119266192Y-52034231D01*
X119094390Y-51992192D01*
X119088788Y-51991844D01*
X119088785Y-51991844D01*
X119085175Y-51991620D01*
X119085165Y-51991620D01*
X119083236Y-51991500D01*
X118955707Y-51991500D01*
X118885964Y-51999631D01*
X118831589Y-52005970D01*
X118831585Y-52005971D01*
X118824319Y-52006818D01*
X118817444Y-52009313D01*
X118817442Y-52009314D01*
X118668810Y-52063266D01*
X118658063Y-52067167D01*
X118651946Y-52071178D01*
X118651943Y-52071179D01*
X118548615Y-52138924D01*
X118480679Y-52159547D01*
X118431313Y-52149961D01*
X118253377Y-52076258D01*
X118222012Y-52063266D01*
X118222010Y-52063265D01*
X118217439Y-52061372D01*
X118118247Y-52037558D01*
X117991446Y-52007115D01*
X117991440Y-52007114D01*
X117986633Y-52005960D01*
X117783657Y-51989986D01*
X117772637Y-51988628D01*
X117767330Y-51987735D01*
X117767329Y-51987735D01*
X117762539Y-51986929D01*
X117756300Y-51986853D01*
X117754859Y-51986835D01*
X117754855Y-51986835D01*
X117750000Y-51986776D01*
X117722412Y-51990727D01*
X117704549Y-51992000D01*
X115059328Y-51992000D01*
X115039943Y-51990500D01*
X115025142Y-51988195D01*
X115025139Y-51988195D01*
X115016270Y-51986814D01*
X114998774Y-51989102D01*
X114975058Y-51989950D01*
X114759531Y-51977302D01*
X114744871Y-51975575D01*
X114597156Y-51949329D01*
X114505117Y-51932975D01*
X114490771Y-51929549D01*
X114257649Y-51859200D01*
X114243791Y-51854115D01*
X114020492Y-51756981D01*
X114007323Y-51750309D01*
X113796931Y-51627732D01*
X113784632Y-51619566D01*
X113590016Y-51473217D01*
X113578758Y-51463669D01*
X113402587Y-51295556D01*
X113392522Y-51284756D01*
X113379502Y-51269030D01*
X113237235Y-51097204D01*
X113228502Y-51085301D01*
X113096209Y-50880861D01*
X113088929Y-50868019D01*
X113075148Y-50840000D01*
X113023318Y-50734622D01*
X113010771Y-50688900D01*
X113004428Y-50608300D01*
X113004040Y-50603367D01*
X113002885Y-50598554D01*
X112977328Y-50492103D01*
X112948628Y-50372561D01*
X112946589Y-50367639D01*
X112861535Y-50162298D01*
X112853946Y-50091708D01*
X112872856Y-50048246D01*
X112871490Y-50047453D01*
X112921340Y-49961630D01*
X112941632Y-49926695D01*
X113647251Y-49926695D01*
X113647548Y-49931848D01*
X113647548Y-49931851D01*
X113653011Y-50026590D01*
X113660110Y-50149715D01*
X113661247Y-50154761D01*
X113661248Y-50154767D01*
X113681119Y-50242939D01*
X113709222Y-50367639D01*
X113793266Y-50574616D01*
X113909987Y-50765088D01*
X114056250Y-50933938D01*
X114228126Y-51076632D01*
X114421000Y-51189338D01*
X114629692Y-51269030D01*
X114634760Y-51270061D01*
X114634763Y-51270062D01*
X114742017Y-51291883D01*
X114848597Y-51313567D01*
X114853772Y-51313757D01*
X114853774Y-51313757D01*
X115066673Y-51321564D01*
X115066677Y-51321564D01*
X115071837Y-51321753D01*
X115076957Y-51321097D01*
X115076959Y-51321097D01*
X115288288Y-51294025D01*
X115288289Y-51294025D01*
X115293416Y-51293368D01*
X115298366Y-51291883D01*
X115502429Y-51230661D01*
X115502434Y-51230659D01*
X115507384Y-51229174D01*
X115707994Y-51130896D01*
X115889860Y-51001173D01*
X116048096Y-50843489D01*
X116107594Y-50760689D01*
X116175435Y-50666277D01*
X116178453Y-50662077D01*
X116277430Y-50461811D01*
X116342370Y-50248069D01*
X116371529Y-50026590D01*
X116373156Y-49960000D01*
X116354852Y-49737361D01*
X116300431Y-49520702D01*
X116211354Y-49315840D01*
X116143941Y-49211636D01*
X116092822Y-49132617D01*
X116092820Y-49132614D01*
X116090014Y-49128277D01*
X115939670Y-48963051D01*
X115935619Y-48959852D01*
X115935615Y-48959848D01*
X115768414Y-48827800D01*
X115768410Y-48827798D01*
X115764359Y-48824598D01*
X115722569Y-48801529D01*
X115672598Y-48751097D01*
X115657826Y-48681654D01*
X115682942Y-48615248D01*
X115710294Y-48588641D01*
X115885328Y-48463792D01*
X115893200Y-48457139D01*
X116044052Y-48306812D01*
X116050730Y-48298965D01*
X116175003Y-48126020D01*
X116180313Y-48117183D01*
X116274670Y-47926267D01*
X116278469Y-47916672D01*
X116340377Y-47712910D01*
X116342555Y-47702837D01*
X116343986Y-47691962D01*
X116341775Y-47677778D01*
X116328617Y-47674000D01*
X113693225Y-47674000D01*
X113679694Y-47677973D01*
X113678257Y-47687966D01*
X113708565Y-47822446D01*
X113711645Y-47832275D01*
X113791770Y-48029603D01*
X113796413Y-48038794D01*
X113907694Y-48220388D01*
X113913777Y-48228699D01*
X114053213Y-48389667D01*
X114060580Y-48396883D01*
X114224434Y-48532916D01*
X114232881Y-48538831D01*
X114301969Y-48579203D01*
X114350693Y-48630842D01*
X114363764Y-48700625D01*
X114337033Y-48766396D01*
X114296584Y-48799752D01*
X114283607Y-48806507D01*
X114279474Y-48809610D01*
X114279471Y-48809612D01*
X114174381Y-48888516D01*
X114104965Y-48940635D01*
X113950629Y-49102138D01*
X113824743Y-49286680D01*
X113730688Y-49489305D01*
X113670989Y-49704570D01*
X113647251Y-49926695D01*
X112941632Y-49926695D01*
X112960326Y-49894510D01*
X112989436Y-49798398D01*
X113009473Y-49732239D01*
X113011595Y-49725233D01*
X113022547Y-49548702D01*
X113012840Y-49492207D01*
X112993834Y-49381602D01*
X112993834Y-49381601D01*
X112992594Y-49374386D01*
X112973785Y-49330181D01*
X112947199Y-49267700D01*
X112938933Y-49197186D01*
X112954186Y-49155083D01*
X112956646Y-49150847D01*
X112956649Y-49150841D01*
X112960326Y-49144510D01*
X112963929Y-49132617D01*
X113009473Y-48982239D01*
X113011595Y-48975233D01*
X113022547Y-48798702D01*
X113019013Y-48778131D01*
X112993834Y-48631602D01*
X112993834Y-48631601D01*
X112992594Y-48624386D01*
X112982288Y-48600165D01*
X112947199Y-48517700D01*
X112938933Y-48447186D01*
X112954186Y-48405083D01*
X112956646Y-48400847D01*
X112956649Y-48400841D01*
X112960326Y-48394510D01*
X112967005Y-48372460D01*
X113009473Y-48232239D01*
X113011595Y-48225233D01*
X113022547Y-48048702D01*
X113020845Y-48038794D01*
X112993834Y-47881602D01*
X112993834Y-47881601D01*
X112992594Y-47874386D01*
X112974676Y-47832275D01*
X112947199Y-47767700D01*
X112938933Y-47697186D01*
X112954186Y-47655083D01*
X112956646Y-47650847D01*
X112956649Y-47650841D01*
X112960326Y-47644510D01*
X112989436Y-47548398D01*
X113009473Y-47482239D01*
X113011595Y-47475233D01*
X113022547Y-47298702D01*
X112992594Y-47124386D01*
X112989728Y-47117650D01*
X112947199Y-47017700D01*
X112938933Y-46947186D01*
X112954186Y-46905083D01*
X112956646Y-46900847D01*
X112956649Y-46900841D01*
X112960326Y-46894510D01*
X112989436Y-46798398D01*
X113009473Y-46732239D01*
X113011595Y-46725233D01*
X113022547Y-46548702D01*
X112992594Y-46374386D01*
X112989728Y-46367650D01*
X112947199Y-46267700D01*
X112938933Y-46197186D01*
X112954186Y-46155083D01*
X112956646Y-46150847D01*
X112956649Y-46150841D01*
X112960326Y-46144510D01*
X112966305Y-46124771D01*
X113009473Y-45982239D01*
X113011595Y-45975233D01*
X113022547Y-45798702D01*
X113019597Y-45781531D01*
X113019013Y-45778134D01*
X113651500Y-45778134D01*
X113658255Y-45840316D01*
X113709385Y-45976705D01*
X113796739Y-46093261D01*
X113913295Y-46180615D01*
X113921704Y-46183767D01*
X113921705Y-46183768D01*
X114030960Y-46224726D01*
X114087725Y-46267367D01*
X114112425Y-46333929D01*
X114097218Y-46403278D01*
X114077825Y-46429759D01*
X113954590Y-46558717D01*
X113948104Y-46566727D01*
X113828098Y-46742649D01*
X113823000Y-46751623D01*
X113733338Y-46944783D01*
X113729775Y-46954470D01*
X113674389Y-47154183D01*
X113675912Y-47162607D01*
X113688292Y-47166000D01*
X116328344Y-47166000D01*
X116341875Y-47162027D01*
X116343180Y-47152947D01*
X116301214Y-46985875D01*
X116297894Y-46976124D01*
X116212972Y-46780814D01*
X116208105Y-46771739D01*
X116092426Y-46592926D01*
X116086136Y-46584757D01*
X115942293Y-46426677D01*
X115911241Y-46362831D01*
X115919635Y-46292333D01*
X115964812Y-46237564D01*
X115991256Y-46223895D01*
X116098297Y-46183767D01*
X116106705Y-46180615D01*
X116223261Y-46093261D01*
X116310615Y-45976705D01*
X116361745Y-45840316D01*
X116368500Y-45778134D01*
X116368500Y-44846695D01*
X126347251Y-44846695D01*
X126347548Y-44851848D01*
X126347548Y-44851851D01*
X126353011Y-44946590D01*
X126360110Y-45069715D01*
X126361247Y-45074761D01*
X126361248Y-45074767D01*
X126375615Y-45138516D01*
X126409222Y-45287639D01*
X126493266Y-45494616D01*
X126609987Y-45685088D01*
X126756250Y-45853938D01*
X126760230Y-45857242D01*
X126764981Y-45861187D01*
X126804616Y-45920090D01*
X126806113Y-45991071D01*
X126768997Y-46051593D01*
X126728725Y-46076112D01*
X126668627Y-46098642D01*
X126613295Y-46119385D01*
X126496739Y-46206739D01*
X126409385Y-46323295D01*
X126358255Y-46459684D01*
X126351500Y-46521866D01*
X126351500Y-48318134D01*
X126358255Y-48380316D01*
X126409385Y-48516705D01*
X126496739Y-48633261D01*
X126613295Y-48720615D01*
X126749684Y-48771745D01*
X126811866Y-48778500D01*
X128608134Y-48778500D01*
X128670316Y-48771745D01*
X128806705Y-48720615D01*
X128923261Y-48633261D01*
X129010615Y-48516705D01*
X129061745Y-48380316D01*
X129068500Y-48318134D01*
X129068500Y-46521866D01*
X129061745Y-46459684D01*
X129010615Y-46323295D01*
X128923261Y-46206739D01*
X128806705Y-46119385D01*
X128794132Y-46114672D01*
X128688203Y-46074960D01*
X128631439Y-46032318D01*
X128606739Y-45965756D01*
X128621947Y-45896408D01*
X128643493Y-45867727D01*
X128671000Y-45840316D01*
X128748096Y-45763489D01*
X128807594Y-45680689D01*
X128875435Y-45586277D01*
X128878453Y-45582077D01*
X128937979Y-45461636D01*
X128975136Y-45386453D01*
X128975137Y-45386451D01*
X128977430Y-45381811D01*
X129042370Y-45168069D01*
X129071529Y-44946590D01*
X129071611Y-44943240D01*
X129073074Y-44883365D01*
X129073074Y-44883361D01*
X129073156Y-44880000D01*
X129054852Y-44657361D01*
X129000431Y-44440702D01*
X128911354Y-44235840D01*
X128811471Y-44081444D01*
X128792822Y-44052617D01*
X128792820Y-44052614D01*
X128790014Y-44048277D01*
X128639670Y-43883051D01*
X128635619Y-43879852D01*
X128635615Y-43879848D01*
X128468414Y-43747800D01*
X128468410Y-43747798D01*
X128464359Y-43744598D01*
X128457043Y-43740559D01*
X128365360Y-43689948D01*
X128268789Y-43636638D01*
X128263920Y-43634914D01*
X128263916Y-43634912D01*
X128063087Y-43563795D01*
X128063083Y-43563794D01*
X128058212Y-43562069D01*
X128053119Y-43561162D01*
X128053116Y-43561161D01*
X127843373Y-43523800D01*
X127843367Y-43523799D01*
X127838284Y-43522894D01*
X127764452Y-43521992D01*
X127620081Y-43520228D01*
X127620079Y-43520228D01*
X127614911Y-43520165D01*
X127394091Y-43553955D01*
X127181756Y-43623357D01*
X126983607Y-43726507D01*
X126979474Y-43729610D01*
X126979471Y-43729612D01*
X126809100Y-43857530D01*
X126804965Y-43860635D01*
X126650629Y-44022138D01*
X126524743Y-44206680D01*
X126430688Y-44409305D01*
X126370989Y-44624570D01*
X126347251Y-44846695D01*
X116368500Y-44846695D01*
X116368500Y-43981866D01*
X116361745Y-43919684D01*
X116310615Y-43783295D01*
X116223261Y-43666739D01*
X116106705Y-43579385D01*
X115970316Y-43528255D01*
X115908134Y-43521500D01*
X114111866Y-43521500D01*
X114049684Y-43528255D01*
X113913295Y-43579385D01*
X113796739Y-43666739D01*
X113709385Y-43783295D01*
X113658255Y-43919684D01*
X113651500Y-43981866D01*
X113651500Y-45778134D01*
X113019013Y-45778134D01*
X112993834Y-45631602D01*
X112993834Y-45631601D01*
X112992594Y-45624386D01*
X112989728Y-45617650D01*
X112947199Y-45517700D01*
X112938933Y-45447186D01*
X112954186Y-45405083D01*
X112956646Y-45400847D01*
X112956649Y-45400841D01*
X112960326Y-45394510D01*
X112962767Y-45386453D01*
X113009473Y-45232239D01*
X113011595Y-45225233D01*
X113022547Y-45048702D01*
X112992594Y-44874386D01*
X112923343Y-44711636D01*
X112919010Y-44705748D01*
X112919007Y-44705743D01*
X112874519Y-44645292D01*
X112850253Y-44578571D01*
X112859592Y-44522391D01*
X112861535Y-44517702D01*
X112938455Y-44332000D01*
X112946734Y-44312012D01*
X112946735Y-44312010D01*
X112948628Y-44307439D01*
X113004040Y-44076633D01*
X113005930Y-44052617D01*
X113008192Y-44023877D01*
X113026386Y-43967904D01*
X113060771Y-43911821D01*
X113100157Y-43847581D01*
X113108813Y-43835198D01*
X113272742Y-43628324D01*
X113282826Y-43617059D01*
X113301581Y-43598483D01*
X113470353Y-43431321D01*
X113481712Y-43421347D01*
X113690150Y-43259407D01*
X113702627Y-43250863D01*
X113928945Y-43115073D01*
X113942355Y-43108085D01*
X114183318Y-43000382D01*
X114197464Y-42995052D01*
X114449620Y-42916988D01*
X114464287Y-42913396D01*
X114594128Y-42889750D01*
X114723960Y-42866106D01*
X114738974Y-42864294D01*
X114967909Y-42850531D01*
X114994845Y-42851803D01*
X115003730Y-42853186D01*
X115035252Y-42849064D01*
X115051589Y-42848000D01*
X117696793Y-42848000D01*
X117717697Y-42849746D01*
X117737461Y-42853071D01*
X117743581Y-42853146D01*
X117745133Y-42853165D01*
X117745138Y-42853165D01*
X117750000Y-42853224D01*
X117754816Y-42852534D01*
X117754900Y-42852529D01*
X117762686Y-42851665D01*
X117787437Y-42849717D01*
X117986633Y-42834040D01*
X117991440Y-42832886D01*
X117991446Y-42832885D01*
X118136340Y-42798098D01*
X118217439Y-42778628D01*
X118231430Y-42772833D01*
X118294887Y-42746548D01*
X118429717Y-42690700D01*
X118500306Y-42683111D01*
X118559511Y-42711083D01*
X118576285Y-42725333D01*
X118625812Y-42750623D01*
X118727292Y-42802442D01*
X118727294Y-42802443D01*
X118733808Y-42805769D01*
X118740913Y-42807508D01*
X118740917Y-42807509D01*
X118823238Y-42827652D01*
X118905610Y-42847808D01*
X118911212Y-42848156D01*
X118911215Y-42848156D01*
X118914825Y-42848380D01*
X118914835Y-42848380D01*
X118916764Y-42848500D01*
X119044293Y-42848500D01*
X119114036Y-42840369D01*
X119168411Y-42834030D01*
X119168415Y-42834029D01*
X119175681Y-42833182D01*
X119182556Y-42830687D01*
X119182558Y-42830686D01*
X119335662Y-42775111D01*
X119406520Y-42770670D01*
X119435956Y-42781334D01*
X119477288Y-42802440D01*
X119477290Y-42802441D01*
X119483808Y-42805769D01*
X119655610Y-42847808D01*
X119661212Y-42848156D01*
X119661215Y-42848156D01*
X119664825Y-42848380D01*
X119664835Y-42848380D01*
X119666764Y-42848500D01*
X119794293Y-42848500D01*
X119864036Y-42840369D01*
X119918411Y-42834030D01*
X119918415Y-42834029D01*
X119925681Y-42833182D01*
X119932556Y-42830687D01*
X119932558Y-42830686D01*
X120085662Y-42775111D01*
X120156520Y-42770670D01*
X120185956Y-42781334D01*
X120227288Y-42802440D01*
X120227290Y-42802441D01*
X120233808Y-42805769D01*
X120405610Y-42847808D01*
X120411212Y-42848156D01*
X120411215Y-42848156D01*
X120414825Y-42848380D01*
X120414835Y-42848380D01*
X120416764Y-42848500D01*
X120544293Y-42848500D01*
X120614036Y-42840369D01*
X120668411Y-42834030D01*
X120668415Y-42834029D01*
X120675681Y-42833182D01*
X120682556Y-42830687D01*
X120682558Y-42830686D01*
X120835662Y-42775111D01*
X120906520Y-42770670D01*
X120935956Y-42781334D01*
X120977288Y-42802440D01*
X120977290Y-42802441D01*
X120983808Y-42805769D01*
X121155610Y-42847808D01*
X121161212Y-42848156D01*
X121161215Y-42848156D01*
X121164825Y-42848380D01*
X121164835Y-42848380D01*
X121166764Y-42848500D01*
X121294293Y-42848500D01*
X121364036Y-42840369D01*
X121418411Y-42834030D01*
X121418415Y-42834029D01*
X121425681Y-42833182D01*
X121432556Y-42830687D01*
X121432558Y-42830686D01*
X121585662Y-42775111D01*
X121656520Y-42770670D01*
X121685956Y-42781334D01*
X121727288Y-42802440D01*
X121727290Y-42802441D01*
X121733808Y-42805769D01*
X121905610Y-42847808D01*
X121911212Y-42848156D01*
X121911215Y-42848156D01*
X121914825Y-42848380D01*
X121914835Y-42848380D01*
X121916764Y-42848500D01*
X122044293Y-42848500D01*
X122114036Y-42840369D01*
X122168411Y-42834030D01*
X122168415Y-42834029D01*
X122175681Y-42833182D01*
X122182556Y-42830687D01*
X122182558Y-42830686D01*
X122335662Y-42775111D01*
X122406520Y-42770670D01*
X122435956Y-42781334D01*
X122477288Y-42802440D01*
X122477290Y-42802441D01*
X122483808Y-42805769D01*
X122655610Y-42847808D01*
X122661212Y-42848156D01*
X122661215Y-42848156D01*
X122664825Y-42848380D01*
X122664835Y-42848380D01*
X122666764Y-42848500D01*
X122794293Y-42848500D01*
X122864036Y-42840369D01*
X122918411Y-42834030D01*
X122918415Y-42834029D01*
X122925681Y-42833182D01*
X122932556Y-42830687D01*
X122932558Y-42830686D01*
X123085662Y-42775111D01*
X123156520Y-42770670D01*
X123185956Y-42781334D01*
X123227288Y-42802440D01*
X123227290Y-42802441D01*
X123233808Y-42805769D01*
X123405610Y-42847808D01*
X123411212Y-42848156D01*
X123411215Y-42848156D01*
X123414825Y-42848380D01*
X123414835Y-42848380D01*
X123416764Y-42848500D01*
X123544293Y-42848500D01*
X123614036Y-42840369D01*
X123668411Y-42834030D01*
X123668415Y-42834029D01*
X123675681Y-42833182D01*
X123682556Y-42830687D01*
X123682558Y-42830686D01*
X123835061Y-42775329D01*
X123835062Y-42775329D01*
X123841937Y-42772833D01*
X123848054Y-42768822D01*
X123848057Y-42768821D01*
X123951385Y-42701076D01*
X124019321Y-42680453D01*
X124068687Y-42690039D01*
G37*
%TD.AperFunction*%
%TD*%
%TA.AperFunction,Conductor*%
%TO.N,GND_4*%
G36*
X143808687Y-42690039D02*
G01*
X143931491Y-42740906D01*
X144008571Y-42772833D01*
X144022561Y-42778628D01*
X144103660Y-42798098D01*
X144248554Y-42832885D01*
X144248560Y-42832886D01*
X144253367Y-42834040D01*
X144449278Y-42849458D01*
X144456343Y-42850014D01*
X144467363Y-42851372D01*
X144472670Y-42852265D01*
X144472671Y-42852265D01*
X144477461Y-42853071D01*
X144483700Y-42853147D01*
X144485141Y-42853165D01*
X144485145Y-42853165D01*
X144490000Y-42853224D01*
X144517588Y-42849273D01*
X144535451Y-42848000D01*
X147440671Y-42848000D01*
X147460056Y-42849500D01*
X147474857Y-42851805D01*
X147474860Y-42851805D01*
X147483729Y-42853186D01*
X147499998Y-42851059D01*
X147524566Y-42850266D01*
X147746984Y-42864844D01*
X147763325Y-42866995D01*
X148007823Y-42915629D01*
X148023742Y-42919895D01*
X148259789Y-43000022D01*
X148275016Y-43006329D01*
X148498591Y-43116584D01*
X148512864Y-43124825D01*
X148720132Y-43263316D01*
X148733209Y-43273349D01*
X148920631Y-43437714D01*
X148932285Y-43449368D01*
X149096517Y-43636638D01*
X149096650Y-43636790D01*
X149106683Y-43649867D01*
X149245174Y-43857135D01*
X149253415Y-43871408D01*
X149363670Y-44094983D01*
X149369977Y-44110210D01*
X149450104Y-44346257D01*
X149454370Y-44362176D01*
X149503004Y-44606673D01*
X149505155Y-44623014D01*
X149519263Y-44838268D01*
X149518238Y-44861304D01*
X149518195Y-44864856D01*
X149516813Y-44873730D01*
X149517977Y-44882632D01*
X149517977Y-44882635D01*
X149520936Y-44905259D01*
X149522000Y-44921597D01*
X149522000Y-49910672D01*
X149520500Y-49930056D01*
X149516814Y-49953730D01*
X149518941Y-49969999D01*
X149519734Y-49994567D01*
X149505156Y-50216985D01*
X149503005Y-50233326D01*
X149454371Y-50477824D01*
X149450105Y-50493743D01*
X149369978Y-50729790D01*
X149363671Y-50745017D01*
X149253416Y-50968592D01*
X149245175Y-50982865D01*
X149106684Y-51190133D01*
X149096654Y-51203206D01*
X149073881Y-51229174D01*
X148932286Y-51390632D01*
X148920632Y-51402286D01*
X148733210Y-51566651D01*
X148720133Y-51576684D01*
X148512865Y-51715175D01*
X148498592Y-51723416D01*
X148275017Y-51833671D01*
X148259790Y-51839978D01*
X148023743Y-51920105D01*
X148007824Y-51924371D01*
X147763327Y-51973005D01*
X147746986Y-51975156D01*
X147531732Y-51989264D01*
X147508696Y-51988239D01*
X147505146Y-51988196D01*
X147496270Y-51986814D01*
X147466347Y-51990727D01*
X147464749Y-51990936D01*
X147448411Y-51992000D01*
X144553207Y-51992000D01*
X144532303Y-51990254D01*
X144525562Y-51989120D01*
X144512539Y-51986929D01*
X144506419Y-51986854D01*
X144504867Y-51986835D01*
X144504862Y-51986835D01*
X144500000Y-51986776D01*
X144495184Y-51987466D01*
X144495100Y-51987471D01*
X144487313Y-51988335D01*
X144263367Y-52005960D01*
X144258560Y-52007114D01*
X144258554Y-52007115D01*
X144131753Y-52037558D01*
X144032561Y-52061372D01*
X144027990Y-52063265D01*
X144027988Y-52063266D01*
X143964951Y-52089377D01*
X143820283Y-52149300D01*
X143749694Y-52156889D01*
X143690489Y-52128917D01*
X143673715Y-52114667D01*
X143564045Y-52058666D01*
X143522708Y-52037558D01*
X143522706Y-52037557D01*
X143516192Y-52034231D01*
X143509087Y-52032492D01*
X143509083Y-52032491D01*
X143404162Y-52006818D01*
X143344390Y-51992192D01*
X143338788Y-51991844D01*
X143338785Y-51991844D01*
X143335175Y-51991620D01*
X143335165Y-51991620D01*
X143333236Y-51991500D01*
X143205707Y-51991500D01*
X143135964Y-51999631D01*
X143081589Y-52005970D01*
X143081585Y-52005971D01*
X143074319Y-52006818D01*
X143067444Y-52009313D01*
X143067442Y-52009314D01*
X142914338Y-52064889D01*
X142843480Y-52069330D01*
X142814044Y-52058666D01*
X142772712Y-52037560D01*
X142772707Y-52037558D01*
X142766192Y-52034231D01*
X142594390Y-51992192D01*
X142588788Y-51991844D01*
X142588785Y-51991844D01*
X142585175Y-51991620D01*
X142585165Y-51991620D01*
X142583236Y-51991500D01*
X142455707Y-51991500D01*
X142385964Y-51999631D01*
X142331589Y-52005970D01*
X142331585Y-52005971D01*
X142324319Y-52006818D01*
X142317444Y-52009313D01*
X142317442Y-52009314D01*
X142164338Y-52064889D01*
X142093480Y-52069330D01*
X142064044Y-52058666D01*
X142022712Y-52037560D01*
X142022707Y-52037558D01*
X142016192Y-52034231D01*
X141844390Y-51992192D01*
X141838788Y-51991844D01*
X141838785Y-51991844D01*
X141835175Y-51991620D01*
X141835165Y-51991620D01*
X141833236Y-51991500D01*
X141705707Y-51991500D01*
X141635964Y-51999631D01*
X141581589Y-52005970D01*
X141581585Y-52005971D01*
X141574319Y-52006818D01*
X141567444Y-52009313D01*
X141567442Y-52009314D01*
X141414338Y-52064889D01*
X141343480Y-52069330D01*
X141314044Y-52058666D01*
X141272712Y-52037560D01*
X141272707Y-52037558D01*
X141266192Y-52034231D01*
X141094390Y-51992192D01*
X141088788Y-51991844D01*
X141088785Y-51991844D01*
X141085175Y-51991620D01*
X141085165Y-51991620D01*
X141083236Y-51991500D01*
X140955707Y-51991500D01*
X140885964Y-51999631D01*
X140831589Y-52005970D01*
X140831585Y-52005971D01*
X140824319Y-52006818D01*
X140817444Y-52009313D01*
X140817442Y-52009314D01*
X140664338Y-52064889D01*
X140593480Y-52069330D01*
X140564044Y-52058666D01*
X140522712Y-52037560D01*
X140522707Y-52037558D01*
X140516192Y-52034231D01*
X140344390Y-51992192D01*
X140338788Y-51991844D01*
X140338785Y-51991844D01*
X140335175Y-51991620D01*
X140335165Y-51991620D01*
X140333236Y-51991500D01*
X140205707Y-51991500D01*
X140135964Y-51999631D01*
X140081589Y-52005970D01*
X140081585Y-52005971D01*
X140074319Y-52006818D01*
X140067444Y-52009313D01*
X140067442Y-52009314D01*
X139914338Y-52064889D01*
X139843480Y-52069330D01*
X139814044Y-52058666D01*
X139772712Y-52037560D01*
X139772707Y-52037558D01*
X139766192Y-52034231D01*
X139594390Y-51992192D01*
X139588788Y-51991844D01*
X139588785Y-51991844D01*
X139585175Y-51991620D01*
X139585165Y-51991620D01*
X139583236Y-51991500D01*
X139455707Y-51991500D01*
X139385964Y-51999631D01*
X139331589Y-52005970D01*
X139331585Y-52005971D01*
X139324319Y-52006818D01*
X139317444Y-52009313D01*
X139317442Y-52009314D01*
X139164338Y-52064889D01*
X139093480Y-52069330D01*
X139064044Y-52058666D01*
X139022712Y-52037560D01*
X139022707Y-52037558D01*
X139016192Y-52034231D01*
X138844390Y-51992192D01*
X138838788Y-51991844D01*
X138838785Y-51991844D01*
X138835175Y-51991620D01*
X138835165Y-51991620D01*
X138833236Y-51991500D01*
X138705707Y-51991500D01*
X138635964Y-51999631D01*
X138581589Y-52005970D01*
X138581585Y-52005971D01*
X138574319Y-52006818D01*
X138567444Y-52009313D01*
X138567442Y-52009314D01*
X138418810Y-52063266D01*
X138408063Y-52067167D01*
X138401946Y-52071178D01*
X138401943Y-52071179D01*
X138298615Y-52138924D01*
X138230679Y-52159547D01*
X138181313Y-52149961D01*
X138035049Y-52089377D01*
X137972012Y-52063266D01*
X137972010Y-52063265D01*
X137967439Y-52061372D01*
X137868247Y-52037558D01*
X137741446Y-52007115D01*
X137741440Y-52007114D01*
X137736633Y-52005960D01*
X137533657Y-51989986D01*
X137522637Y-51988628D01*
X137517330Y-51987735D01*
X137517329Y-51987735D01*
X137512539Y-51986929D01*
X137506300Y-51986853D01*
X137504859Y-51986835D01*
X137504855Y-51986835D01*
X137500000Y-51986776D01*
X137475715Y-51990254D01*
X137472412Y-51990727D01*
X137454549Y-51992000D01*
X134839327Y-51992000D01*
X134819942Y-51990500D01*
X134805141Y-51988195D01*
X134805138Y-51988195D01*
X134796269Y-51986814D01*
X134778632Y-51989120D01*
X134755013Y-51989972D01*
X134683743Y-51985842D01*
X134535614Y-51977258D01*
X134521148Y-51975576D01*
X134325304Y-51941220D01*
X134277355Y-51932809D01*
X134263165Y-51929463D01*
X134025963Y-51858826D01*
X134012254Y-51853864D01*
X133784784Y-51756292D01*
X133771741Y-51749779D01*
X133557079Y-51626595D01*
X133544874Y-51618619D01*
X133345872Y-51471456D01*
X133334671Y-51462124D01*
X133219813Y-51354581D01*
X133153995Y-51292954D01*
X133143950Y-51282393D01*
X133132638Y-51269030D01*
X132984031Y-51093492D01*
X132975272Y-51081840D01*
X132943783Y-51034475D01*
X132838247Y-50875734D01*
X132830891Y-50863147D01*
X132770742Y-50745017D01*
X132763708Y-50731202D01*
X132750379Y-50683916D01*
X132744428Y-50608300D01*
X132744040Y-50603367D01*
X132688628Y-50372561D01*
X132686589Y-50367639D01*
X132601535Y-50162298D01*
X132593946Y-50091708D01*
X132612856Y-50048246D01*
X132611490Y-50047453D01*
X132625554Y-50023240D01*
X132681632Y-49926695D01*
X133427251Y-49926695D01*
X133427548Y-49931848D01*
X133427548Y-49931851D01*
X133433011Y-50026590D01*
X133440110Y-50149715D01*
X133441247Y-50154761D01*
X133441248Y-50154767D01*
X133455270Y-50216985D01*
X133489222Y-50367639D01*
X133573266Y-50574616D01*
X133590885Y-50603367D01*
X133677688Y-50745017D01*
X133689987Y-50765088D01*
X133836250Y-50933938D01*
X134008126Y-51076632D01*
X134201000Y-51189338D01*
X134205825Y-51191180D01*
X134205826Y-51191181D01*
X134232679Y-51201435D01*
X134409692Y-51269030D01*
X134414760Y-51270061D01*
X134414763Y-51270062D01*
X134522017Y-51291883D01*
X134628597Y-51313567D01*
X134633772Y-51313757D01*
X134633774Y-51313757D01*
X134846673Y-51321564D01*
X134846677Y-51321564D01*
X134851837Y-51321753D01*
X134856957Y-51321097D01*
X134856959Y-51321097D01*
X135068288Y-51294025D01*
X135068289Y-51294025D01*
X135073416Y-51293368D01*
X135091415Y-51287968D01*
X135282429Y-51230661D01*
X135282434Y-51230659D01*
X135287384Y-51229174D01*
X135487994Y-51130896D01*
X135669860Y-51001173D01*
X135828096Y-50843489D01*
X135887594Y-50760689D01*
X135955435Y-50666277D01*
X135958453Y-50662077D01*
X135991810Y-50594585D01*
X136055136Y-50466453D01*
X136055137Y-50466451D01*
X136057430Y-50461811D01*
X136122370Y-50248069D01*
X136151529Y-50026590D01*
X136151611Y-50023240D01*
X136153074Y-49963365D01*
X136153074Y-49963361D01*
X136153156Y-49960000D01*
X136134852Y-49737361D01*
X136080431Y-49520702D01*
X135991354Y-49315840D01*
X135923941Y-49211636D01*
X135872822Y-49132617D01*
X135872820Y-49132614D01*
X135870014Y-49128277D01*
X135719670Y-48963051D01*
X135715619Y-48959852D01*
X135715615Y-48959848D01*
X135548414Y-48827800D01*
X135548410Y-48827798D01*
X135544359Y-48824598D01*
X135502569Y-48801529D01*
X135452598Y-48751097D01*
X135437826Y-48681654D01*
X135462942Y-48615248D01*
X135490294Y-48588641D01*
X135665328Y-48463792D01*
X135673200Y-48457139D01*
X135824052Y-48306812D01*
X135830730Y-48298965D01*
X135955003Y-48126020D01*
X135960313Y-48117183D01*
X136054670Y-47926267D01*
X136058469Y-47916672D01*
X136120377Y-47712910D01*
X136122555Y-47702837D01*
X136123986Y-47691962D01*
X136121775Y-47677778D01*
X136108617Y-47674000D01*
X133473225Y-47674000D01*
X133459694Y-47677973D01*
X133458257Y-47687966D01*
X133488565Y-47822446D01*
X133491645Y-47832275D01*
X133571770Y-48029603D01*
X133576413Y-48038794D01*
X133687694Y-48220388D01*
X133693777Y-48228699D01*
X133833213Y-48389667D01*
X133840580Y-48396883D01*
X134004434Y-48532916D01*
X134012881Y-48538831D01*
X134081969Y-48579203D01*
X134130693Y-48630842D01*
X134143764Y-48700625D01*
X134117033Y-48766396D01*
X134076584Y-48799752D01*
X134063607Y-48806507D01*
X134059474Y-48809610D01*
X134059471Y-48809612D01*
X133889100Y-48937530D01*
X133884965Y-48940635D01*
X133730629Y-49102138D01*
X133604743Y-49286680D01*
X133510688Y-49489305D01*
X133450989Y-49704570D01*
X133427251Y-49926695D01*
X132681632Y-49926695D01*
X132700326Y-49894510D01*
X132737920Y-49770386D01*
X132749473Y-49732239D01*
X132751595Y-49725233D01*
X132762547Y-49548702D01*
X132752840Y-49492207D01*
X132733834Y-49381602D01*
X132733834Y-49381601D01*
X132732594Y-49374386D01*
X132713785Y-49330181D01*
X132687199Y-49267700D01*
X132678933Y-49197186D01*
X132694186Y-49155083D01*
X132696646Y-49150847D01*
X132696649Y-49150841D01*
X132700326Y-49144510D01*
X132703929Y-49132617D01*
X132749473Y-48982239D01*
X132751595Y-48975233D01*
X132762547Y-48798702D01*
X132759013Y-48778131D01*
X132733834Y-48631602D01*
X132733834Y-48631601D01*
X132732594Y-48624386D01*
X132722288Y-48600165D01*
X132687199Y-48517700D01*
X132678933Y-48447186D01*
X132694186Y-48405083D01*
X132696646Y-48400847D01*
X132696649Y-48400841D01*
X132700326Y-48394510D01*
X132707005Y-48372460D01*
X132749473Y-48232239D01*
X132751595Y-48225233D01*
X132762547Y-48048702D01*
X132760845Y-48038794D01*
X132733834Y-47881602D01*
X132733834Y-47881601D01*
X132732594Y-47874386D01*
X132714676Y-47832275D01*
X132687199Y-47767700D01*
X132678933Y-47697186D01*
X132694186Y-47655083D01*
X132696646Y-47650847D01*
X132696649Y-47650841D01*
X132700326Y-47644510D01*
X132751595Y-47475233D01*
X132762547Y-47298702D01*
X132732594Y-47124386D01*
X132729728Y-47117650D01*
X132687199Y-47017700D01*
X132678933Y-46947186D01*
X132694186Y-46905083D01*
X132696646Y-46900847D01*
X132696649Y-46900841D01*
X132700326Y-46894510D01*
X132751595Y-46725233D01*
X132762547Y-46548702D01*
X132732594Y-46374386D01*
X132729728Y-46367650D01*
X132687199Y-46267700D01*
X132678933Y-46197186D01*
X132694186Y-46155083D01*
X132696646Y-46150847D01*
X132696649Y-46150841D01*
X132700326Y-46144510D01*
X132706305Y-46124771D01*
X132749473Y-45982239D01*
X132751595Y-45975233D01*
X132762547Y-45798702D01*
X132759597Y-45781531D01*
X132759013Y-45778134D01*
X133431500Y-45778134D01*
X133438255Y-45840316D01*
X133489385Y-45976705D01*
X133576739Y-46093261D01*
X133693295Y-46180615D01*
X133701704Y-46183767D01*
X133701705Y-46183768D01*
X133810960Y-46224726D01*
X133867725Y-46267367D01*
X133892425Y-46333929D01*
X133877218Y-46403278D01*
X133857825Y-46429759D01*
X133734590Y-46558717D01*
X133728104Y-46566727D01*
X133608098Y-46742649D01*
X133603000Y-46751623D01*
X133513338Y-46944783D01*
X133509775Y-46954470D01*
X133454389Y-47154183D01*
X133455912Y-47162607D01*
X133468292Y-47166000D01*
X136108344Y-47166000D01*
X136121875Y-47162027D01*
X136123180Y-47152947D01*
X136081214Y-46985875D01*
X136077894Y-46976124D01*
X135992972Y-46780814D01*
X135988105Y-46771739D01*
X135872426Y-46592926D01*
X135866136Y-46584757D01*
X135722293Y-46426677D01*
X135691241Y-46362831D01*
X135699635Y-46292333D01*
X135744812Y-46237564D01*
X135771256Y-46223895D01*
X135878297Y-46183767D01*
X135886705Y-46180615D01*
X136003261Y-46093261D01*
X136090615Y-45976705D01*
X136141745Y-45840316D01*
X136148500Y-45778134D01*
X136148500Y-44846695D01*
X146127251Y-44846695D01*
X146127548Y-44851848D01*
X146127548Y-44851851D01*
X146133011Y-44946590D01*
X146140110Y-45069715D01*
X146141247Y-45074761D01*
X146141248Y-45074767D01*
X146161119Y-45162939D01*
X146189222Y-45287639D01*
X146273266Y-45494616D01*
X146389987Y-45685088D01*
X146536250Y-45853938D01*
X146540230Y-45857242D01*
X146544981Y-45861187D01*
X146584616Y-45920090D01*
X146586113Y-45991071D01*
X146548997Y-46051593D01*
X146508725Y-46076112D01*
X146448627Y-46098642D01*
X146393295Y-46119385D01*
X146276739Y-46206739D01*
X146189385Y-46323295D01*
X146138255Y-46459684D01*
X146131500Y-46521866D01*
X146131500Y-48318134D01*
X146138255Y-48380316D01*
X146189385Y-48516705D01*
X146276739Y-48633261D01*
X146393295Y-48720615D01*
X146529684Y-48771745D01*
X146591866Y-48778500D01*
X148388134Y-48778500D01*
X148450316Y-48771745D01*
X148586705Y-48720615D01*
X148703261Y-48633261D01*
X148790615Y-48516705D01*
X148841745Y-48380316D01*
X148848500Y-48318134D01*
X148848500Y-46521866D01*
X148841745Y-46459684D01*
X148790615Y-46323295D01*
X148703261Y-46206739D01*
X148586705Y-46119385D01*
X148574132Y-46114672D01*
X148468203Y-46074960D01*
X148411439Y-46032318D01*
X148386739Y-45965756D01*
X148401947Y-45896408D01*
X148423493Y-45867727D01*
X148451000Y-45840316D01*
X148528096Y-45763489D01*
X148587594Y-45680689D01*
X148655435Y-45586277D01*
X148658453Y-45582077D01*
X148717979Y-45461636D01*
X148755136Y-45386453D01*
X148755137Y-45386451D01*
X148757430Y-45381811D01*
X148822370Y-45168069D01*
X148851529Y-44946590D01*
X148852340Y-44913396D01*
X148853074Y-44883365D01*
X148853074Y-44883361D01*
X148853156Y-44880000D01*
X148834852Y-44657361D01*
X148780431Y-44440702D01*
X148691354Y-44235840D01*
X148605020Y-44102388D01*
X148572822Y-44052617D01*
X148572820Y-44052614D01*
X148570014Y-44048277D01*
X148419670Y-43883051D01*
X148415619Y-43879852D01*
X148415615Y-43879848D01*
X148248414Y-43747800D01*
X148248410Y-43747798D01*
X148244359Y-43744598D01*
X148048789Y-43636638D01*
X148043920Y-43634914D01*
X148043916Y-43634912D01*
X147843087Y-43563795D01*
X147843083Y-43563794D01*
X147838212Y-43562069D01*
X147833119Y-43561162D01*
X147833116Y-43561161D01*
X147623373Y-43523800D01*
X147623367Y-43523799D01*
X147618284Y-43522894D01*
X147544452Y-43521992D01*
X147400081Y-43520228D01*
X147400079Y-43520228D01*
X147394911Y-43520165D01*
X147174091Y-43553955D01*
X146961756Y-43623357D01*
X146932542Y-43638565D01*
X146795999Y-43709645D01*
X146763607Y-43726507D01*
X146759474Y-43729610D01*
X146759471Y-43729612D01*
X146589100Y-43857530D01*
X146584965Y-43860635D01*
X146430629Y-44022138D01*
X146427715Y-44026410D01*
X146427714Y-44026411D01*
X146375886Y-44102388D01*
X146304743Y-44206680D01*
X146210688Y-44409305D01*
X146150989Y-44624570D01*
X146127251Y-44846695D01*
X136148500Y-44846695D01*
X136148500Y-43981866D01*
X136141745Y-43919684D01*
X136090615Y-43783295D01*
X136003261Y-43666739D01*
X135886705Y-43579385D01*
X135750316Y-43528255D01*
X135688134Y-43521500D01*
X133891866Y-43521500D01*
X133829684Y-43528255D01*
X133693295Y-43579385D01*
X133576739Y-43666739D01*
X133489385Y-43783295D01*
X133438255Y-43919684D01*
X133431500Y-43981866D01*
X133431500Y-45778134D01*
X132759013Y-45778134D01*
X132733834Y-45631602D01*
X132733834Y-45631601D01*
X132732594Y-45624386D01*
X132729728Y-45617650D01*
X132687199Y-45517700D01*
X132678933Y-45447186D01*
X132694186Y-45405083D01*
X132696646Y-45400847D01*
X132696649Y-45400841D01*
X132700326Y-45394510D01*
X132702767Y-45386453D01*
X132749473Y-45232239D01*
X132751595Y-45225233D01*
X132762547Y-45048702D01*
X132734012Y-44882635D01*
X132733834Y-44881602D01*
X132733834Y-44881601D01*
X132732594Y-44874386D01*
X132663343Y-44711636D01*
X132659010Y-44705748D01*
X132659007Y-44705743D01*
X132614519Y-44645292D01*
X132590253Y-44578571D01*
X132599592Y-44522391D01*
X132635396Y-44435954D01*
X132678455Y-44332000D01*
X132686734Y-44312012D01*
X132686735Y-44312010D01*
X132688628Y-44307439D01*
X132744040Y-44076633D01*
X132747822Y-44028580D01*
X132766894Y-43971197D01*
X132842197Y-43851933D01*
X132850900Y-43839805D01*
X133014210Y-43638565D01*
X133020088Y-43631322D01*
X133030163Y-43620310D01*
X133075571Y-43576233D01*
X133134660Y-43518874D01*
X133222822Y-43433296D01*
X133234131Y-43423551D01*
X133447551Y-43260639D01*
X133459932Y-43252300D01*
X133691129Y-43115767D01*
X133704409Y-43108951D01*
X133945683Y-43002677D01*
X133950132Y-43000718D01*
X133964122Y-42995522D01*
X134024408Y-42977114D01*
X134220922Y-42917108D01*
X134235419Y-42913605D01*
X134499686Y-42866114D01*
X134514499Y-42864349D01*
X134676618Y-42854728D01*
X134747849Y-42850501D01*
X134774698Y-42851780D01*
X134774856Y-42851805D01*
X134774862Y-42851805D01*
X134783730Y-42853186D01*
X134792632Y-42852022D01*
X134792635Y-42852022D01*
X134815251Y-42849064D01*
X134831589Y-42848000D01*
X137436793Y-42848000D01*
X137457697Y-42849746D01*
X137477461Y-42853071D01*
X137483581Y-42853146D01*
X137485133Y-42853165D01*
X137485138Y-42853165D01*
X137490000Y-42853224D01*
X137494816Y-42852534D01*
X137494900Y-42852529D01*
X137502686Y-42851665D01*
X137527653Y-42849700D01*
X137726633Y-42834040D01*
X137731440Y-42832886D01*
X137731446Y-42832885D01*
X137876340Y-42798098D01*
X137957439Y-42778628D01*
X137971430Y-42772833D01*
X138034887Y-42746548D01*
X138169717Y-42690700D01*
X138240306Y-42683111D01*
X138299511Y-42711083D01*
X138316285Y-42725333D01*
X138365812Y-42750623D01*
X138467292Y-42802442D01*
X138467294Y-42802443D01*
X138473808Y-42805769D01*
X138480913Y-42807508D01*
X138480917Y-42807509D01*
X138563238Y-42827652D01*
X138645610Y-42847808D01*
X138651212Y-42848156D01*
X138651215Y-42848156D01*
X138654825Y-42848380D01*
X138654835Y-42848380D01*
X138656764Y-42848500D01*
X138784293Y-42848500D01*
X138854036Y-42840369D01*
X138908411Y-42834030D01*
X138908415Y-42834029D01*
X138915681Y-42833182D01*
X138922556Y-42830687D01*
X138922558Y-42830686D01*
X139075662Y-42775111D01*
X139146520Y-42770670D01*
X139175956Y-42781334D01*
X139217288Y-42802440D01*
X139217290Y-42802441D01*
X139223808Y-42805769D01*
X139395610Y-42847808D01*
X139401212Y-42848156D01*
X139401215Y-42848156D01*
X139404825Y-42848380D01*
X139404835Y-42848380D01*
X139406764Y-42848500D01*
X139534293Y-42848500D01*
X139604036Y-42840369D01*
X139658411Y-42834030D01*
X139658415Y-42834029D01*
X139665681Y-42833182D01*
X139672556Y-42830687D01*
X139672558Y-42830686D01*
X139825662Y-42775111D01*
X139896520Y-42770670D01*
X139925956Y-42781334D01*
X139967288Y-42802440D01*
X139967290Y-42802441D01*
X139973808Y-42805769D01*
X140145610Y-42847808D01*
X140151212Y-42848156D01*
X140151215Y-42848156D01*
X140154825Y-42848380D01*
X140154835Y-42848380D01*
X140156764Y-42848500D01*
X140284293Y-42848500D01*
X140354036Y-42840369D01*
X140408411Y-42834030D01*
X140408415Y-42834029D01*
X140415681Y-42833182D01*
X140422556Y-42830687D01*
X140422558Y-42830686D01*
X140575662Y-42775111D01*
X140646520Y-42770670D01*
X140675956Y-42781334D01*
X140717288Y-42802440D01*
X140717290Y-42802441D01*
X140723808Y-42805769D01*
X140895610Y-42847808D01*
X140901212Y-42848156D01*
X140901215Y-42848156D01*
X140904825Y-42848380D01*
X140904835Y-42848380D01*
X140906764Y-42848500D01*
X141034293Y-42848500D01*
X141104036Y-42840369D01*
X141158411Y-42834030D01*
X141158415Y-42834029D01*
X141165681Y-42833182D01*
X141172556Y-42830687D01*
X141172558Y-42830686D01*
X141325662Y-42775111D01*
X141396520Y-42770670D01*
X141425956Y-42781334D01*
X141467288Y-42802440D01*
X141467290Y-42802441D01*
X141473808Y-42805769D01*
X141645610Y-42847808D01*
X141651212Y-42848156D01*
X141651215Y-42848156D01*
X141654825Y-42848380D01*
X141654835Y-42848380D01*
X141656764Y-42848500D01*
X141784293Y-42848500D01*
X141854036Y-42840369D01*
X141908411Y-42834030D01*
X141908415Y-42834029D01*
X141915681Y-42833182D01*
X141922556Y-42830687D01*
X141922558Y-42830686D01*
X142075662Y-42775111D01*
X142146520Y-42770670D01*
X142175956Y-42781334D01*
X142217288Y-42802440D01*
X142217290Y-42802441D01*
X142223808Y-42805769D01*
X142395610Y-42847808D01*
X142401212Y-42848156D01*
X142401215Y-42848156D01*
X142404825Y-42848380D01*
X142404835Y-42848380D01*
X142406764Y-42848500D01*
X142534293Y-42848500D01*
X142604036Y-42840369D01*
X142658411Y-42834030D01*
X142658415Y-42834029D01*
X142665681Y-42833182D01*
X142672556Y-42830687D01*
X142672558Y-42830686D01*
X142825662Y-42775111D01*
X142896520Y-42770670D01*
X142925956Y-42781334D01*
X142967288Y-42802440D01*
X142967290Y-42802441D01*
X142973808Y-42805769D01*
X143145610Y-42847808D01*
X143151212Y-42848156D01*
X143151215Y-42848156D01*
X143154825Y-42848380D01*
X143154835Y-42848380D01*
X143156764Y-42848500D01*
X143284293Y-42848500D01*
X143354036Y-42840369D01*
X143408411Y-42834030D01*
X143408415Y-42834029D01*
X143415681Y-42833182D01*
X143422556Y-42830687D01*
X143422558Y-42830686D01*
X143575061Y-42775329D01*
X143575062Y-42775329D01*
X143581937Y-42772833D01*
X143588054Y-42768822D01*
X143588057Y-42768821D01*
X143691385Y-42701076D01*
X143759321Y-42680453D01*
X143808687Y-42690039D01*
G37*
%TD.AperFunction*%
%TD*%
M02*
