%TF.GenerationSoftware,KiCad,Pcbnew,(6.0.2)*%
%TF.CreationDate,2022-03-21T22:00:24-04:00*%
%TF.ProjectId,Panel_Design_3,50616e65-6c5f-4446-9573-69676e5f332e,rev?*%
%TF.SameCoordinates,Original*%
%TF.FileFunction,Legend,Top*%
%TF.FilePolarity,Positive*%
%FSLAX46Y46*%
G04 Gerber Fmt 4.6, Leading zero omitted, Abs format (unit mm)*
G04 Created by KiCad (PCBNEW (6.0.2)) date 2022-03-21 22:00:24*
%MOMM*%
%LPD*%
G01*
G04 APERTURE LIST*
%ADD10C,0.150000*%
%ADD11C,0.100000*%
%ADD12C,0.120000*%
%ADD13C,0.200000*%
G04 APERTURE END LIST*
D10*
X137505714Y-62572381D02*
X136934285Y-62572381D01*
X137220000Y-62572381D02*
X137220000Y-61572381D01*
X137124761Y-61715239D01*
X137029523Y-61810477D01*
X136934285Y-61858096D01*
X144506666Y-61572381D02*
X145125714Y-61572381D01*
X144792380Y-61953334D01*
X144935238Y-61953334D01*
X145030476Y-62000953D01*
X145078095Y-62048572D01*
X145125714Y-62143810D01*
X145125714Y-62381905D01*
X145078095Y-62477143D01*
X145030476Y-62524762D01*
X144935238Y-62572381D01*
X144649523Y-62572381D01*
X144554285Y-62524762D01*
X144506666Y-62477143D01*
X137505714Y-57492381D02*
X136934285Y-57492381D01*
X137220000Y-57492381D02*
X137220000Y-56492381D01*
X137124761Y-56635239D01*
X137029523Y-56730477D01*
X136934285Y-56778096D01*
X136934285Y-59127620D02*
X136981904Y-59080001D01*
X137077142Y-59032381D01*
X137315238Y-59032381D01*
X137410476Y-59080001D01*
X137458095Y-59127620D01*
X137505714Y-59222858D01*
X137505714Y-59318096D01*
X137458095Y-59460953D01*
X136886666Y-60032381D01*
X137505714Y-60032381D01*
X144506666Y-59032381D02*
X145125714Y-59032381D01*
X144792380Y-59413334D01*
X144935238Y-59413334D01*
X145030476Y-59460953D01*
X145078095Y-59508572D01*
X145125714Y-59603810D01*
X145125714Y-59841905D01*
X145078095Y-59937143D01*
X145030476Y-59984762D01*
X144935238Y-60032381D01*
X144649523Y-60032381D01*
X144554285Y-59984762D01*
X144506666Y-59937143D01*
X136934285Y-64207620D02*
X136981904Y-64160001D01*
X137077142Y-64112381D01*
X137315238Y-64112381D01*
X137410476Y-64160001D01*
X137458095Y-64207620D01*
X137505714Y-64302858D01*
X137505714Y-64398096D01*
X137458095Y-64540953D01*
X136886666Y-65112381D01*
X137505714Y-65112381D01*
X145188095Y-44332380D02*
X144711904Y-44332380D01*
X144664285Y-44808571D01*
X144711904Y-44760952D01*
X144807142Y-44713333D01*
X145045238Y-44713333D01*
X145140476Y-44760952D01*
X145188095Y-44808571D01*
X145235714Y-44903809D01*
X145235714Y-45141904D01*
X145188095Y-45237142D01*
X145140476Y-45284761D01*
X145045238Y-45332380D01*
X144807142Y-45332380D01*
X144711904Y-45284761D01*
X144664285Y-45237142D01*
X136544285Y-46967619D02*
X136591904Y-46920000D01*
X136687142Y-46872380D01*
X136925238Y-46872380D01*
X137020476Y-46920000D01*
X137068095Y-46967619D01*
X137115714Y-47062857D01*
X137115714Y-47158095D01*
X137068095Y-47300952D01*
X136496666Y-47872380D01*
X137115714Y-47872380D01*
X138068095Y-46920000D02*
X137972857Y-46872380D01*
X137830000Y-46872380D01*
X137687142Y-46920000D01*
X137591904Y-47015238D01*
X137544285Y-47110476D01*
X137496666Y-47300952D01*
X137496666Y-47443809D01*
X137544285Y-47634285D01*
X137591904Y-47729523D01*
X137687142Y-47824761D01*
X137830000Y-47872380D01*
X137925238Y-47872380D01*
X138068095Y-47824761D01*
X138115714Y-47777142D01*
X138115714Y-47443809D01*
X137925238Y-47443809D01*
X145140476Y-47205714D02*
X145140476Y-47872380D01*
X144902380Y-46824761D02*
X144664285Y-47539047D01*
X145283333Y-47539047D01*
X137615714Y-45332380D02*
X137044285Y-45332380D01*
X137330000Y-45332380D02*
X137330000Y-44332380D01*
X137234761Y-44475238D01*
X137139523Y-44570476D01*
X137044285Y-44618095D01*
X136996666Y-49412380D02*
X137615714Y-49412380D01*
X137282380Y-49793333D01*
X137425238Y-49793333D01*
X137520476Y-49840952D01*
X137568095Y-49888571D01*
X137615714Y-49983809D01*
X137615714Y-50221904D01*
X137568095Y-50317142D01*
X137520476Y-50364761D01*
X137425238Y-50412380D01*
X137139523Y-50412380D01*
X137044285Y-50364761D01*
X136996666Y-50317142D01*
X74155714Y-64192380D02*
X73584285Y-64192380D01*
X73870000Y-64192380D02*
X73870000Y-63192380D01*
X73774761Y-63335238D01*
X73679523Y-63430476D01*
X73584285Y-63478095D01*
X81156666Y-65732380D02*
X81775714Y-65732380D01*
X81442380Y-66113333D01*
X81585238Y-66113333D01*
X81680476Y-66160952D01*
X81728095Y-66208571D01*
X81775714Y-66303809D01*
X81775714Y-66541904D01*
X81728095Y-66637142D01*
X81680476Y-66684761D01*
X81585238Y-66732380D01*
X81299523Y-66732380D01*
X81204285Y-66684761D01*
X81156666Y-66637142D01*
X81680476Y-63525714D02*
X81680476Y-64192380D01*
X81442380Y-63144761D02*
X81204285Y-63859047D01*
X81823333Y-63859047D01*
X73584285Y-65827619D02*
X73631904Y-65780000D01*
X73727142Y-65732380D01*
X73965238Y-65732380D01*
X74060476Y-65780000D01*
X74108095Y-65827619D01*
X74155714Y-65922857D01*
X74155714Y-66018095D01*
X74108095Y-66160952D01*
X73536666Y-66732380D01*
X74155714Y-66732380D01*
X54375714Y-64192380D02*
X53804285Y-64192380D01*
X54090000Y-64192380D02*
X54090000Y-63192380D01*
X53994761Y-63335238D01*
X53899523Y-63430476D01*
X53804285Y-63478095D01*
X61376666Y-65732380D02*
X61995714Y-65732380D01*
X61662380Y-66113333D01*
X61805238Y-66113333D01*
X61900476Y-66160952D01*
X61948095Y-66208571D01*
X61995714Y-66303809D01*
X61995714Y-66541904D01*
X61948095Y-66637142D01*
X61900476Y-66684761D01*
X61805238Y-66732380D01*
X61519523Y-66732380D01*
X61424285Y-66684761D01*
X61376666Y-66637142D01*
X61900476Y-63525714D02*
X61900476Y-64192380D01*
X61662380Y-63144761D02*
X61424285Y-63859047D01*
X62043333Y-63859047D01*
X53804285Y-65827619D02*
X53851904Y-65780000D01*
X53947142Y-65732380D01*
X54185238Y-65732380D01*
X54280476Y-65780000D01*
X54328095Y-65827619D01*
X54375714Y-65922857D01*
X54375714Y-66018095D01*
X54328095Y-66160952D01*
X53756666Y-66732380D01*
X54375714Y-66732380D01*
X93364285Y-65827619D02*
X93411904Y-65780000D01*
X93507142Y-65732380D01*
X93745238Y-65732380D01*
X93840476Y-65780000D01*
X93888095Y-65827619D01*
X93935714Y-65922857D01*
X93935714Y-66018095D01*
X93888095Y-66160952D01*
X93316666Y-66732380D01*
X93935714Y-66732380D01*
X93435714Y-64192380D02*
X92864285Y-64192380D01*
X93150000Y-64192380D02*
X93150000Y-63192380D01*
X93054761Y-63335238D01*
X92959523Y-63430476D01*
X92864285Y-63478095D01*
X94388095Y-63240000D02*
X94292857Y-63192380D01*
X94150000Y-63192380D01*
X94007142Y-63240000D01*
X93911904Y-63335238D01*
X93864285Y-63430476D01*
X93816666Y-63620952D01*
X93816666Y-63763809D01*
X93864285Y-63954285D01*
X93911904Y-64049523D01*
X94007142Y-64144761D01*
X94150000Y-64192380D01*
X94245238Y-64192380D01*
X94388095Y-64144761D01*
X94435714Y-64097142D01*
X94435714Y-63763809D01*
X94245238Y-63763809D01*
X34024285Y-65827619D02*
X34071904Y-65780000D01*
X34167142Y-65732380D01*
X34405238Y-65732380D01*
X34500476Y-65780000D01*
X34548095Y-65827619D01*
X34595714Y-65922857D01*
X34595714Y-66018095D01*
X34548095Y-66160952D01*
X33976666Y-66732380D01*
X34595714Y-66732380D01*
X69447619Y-31545714D02*
X69400000Y-31498095D01*
X69352380Y-31402857D01*
X69352380Y-31164761D01*
X69400000Y-31069523D01*
X69447619Y-31021904D01*
X69542857Y-30974285D01*
X69638095Y-30974285D01*
X69780952Y-31021904D01*
X70352380Y-31593333D01*
X70352380Y-30974285D01*
X145188096Y-34712379D02*
X144711905Y-34712379D01*
X144664286Y-35188570D01*
X144711905Y-35140951D01*
X144807143Y-35093332D01*
X145045239Y-35093332D01*
X145140477Y-35140951D01*
X145188096Y-35188570D01*
X145235715Y-35283808D01*
X145235715Y-35521903D01*
X145188096Y-35617141D01*
X145140477Y-35664760D01*
X145045239Y-35712379D01*
X144807143Y-35712379D01*
X144711905Y-35664760D01*
X144664286Y-35617141D01*
X100936666Y-65732380D02*
X101555714Y-65732380D01*
X101222380Y-66113333D01*
X101365238Y-66113333D01*
X101460476Y-66160952D01*
X101508095Y-66208571D01*
X101555714Y-66303809D01*
X101555714Y-66541904D01*
X101508095Y-66637142D01*
X101460476Y-66684761D01*
X101365238Y-66732380D01*
X101079523Y-66732380D01*
X100984285Y-66684761D01*
X100936666Y-66637142D01*
X42120476Y-63525714D02*
X42120476Y-64192380D01*
X41882380Y-63144761D02*
X41644285Y-63859047D01*
X42263333Y-63859047D01*
X75402380Y-56374285D02*
X75402380Y-56945714D01*
X75402380Y-56660000D02*
X74402380Y-56660000D01*
X74545238Y-56755238D01*
X74640476Y-56850476D01*
X74688095Y-56945714D01*
X117304285Y-34807619D02*
X117351904Y-34760000D01*
X117447142Y-34712380D01*
X117685238Y-34712380D01*
X117780476Y-34760000D01*
X117828095Y-34807619D01*
X117875714Y-34902857D01*
X117875714Y-34998095D01*
X117828095Y-35140952D01*
X117256666Y-35712380D01*
X117875714Y-35712380D01*
X101460476Y-63525714D02*
X101460476Y-64192380D01*
X101222380Y-63144761D02*
X100984285Y-63859047D01*
X101603333Y-63859047D01*
X70322380Y-53834285D02*
X70322380Y-54405714D01*
X70322380Y-54120000D02*
X69322380Y-54120000D01*
X69465238Y-54215238D01*
X69560476Y-54310476D01*
X69608095Y-54405714D01*
X137615715Y-33172379D02*
X137044286Y-33172379D01*
X137330001Y-33172379D02*
X137330001Y-32172379D01*
X137234762Y-32315237D01*
X137139524Y-32410475D01*
X137044286Y-32458094D01*
X62702380Y-56374285D02*
X62702380Y-56945714D01*
X62702380Y-56660000D02*
X61702380Y-56660000D01*
X61845238Y-56755238D01*
X61940476Y-56850476D01*
X61988095Y-56945714D01*
X137044286Y-34807618D02*
X137091905Y-34759999D01*
X137187143Y-34712379D01*
X137425239Y-34712379D01*
X137520477Y-34759999D01*
X137568096Y-34807618D01*
X137615715Y-34902856D01*
X137615715Y-34998094D01*
X137568096Y-35140951D01*
X136996667Y-35712379D01*
X137615715Y-35712379D01*
X66907619Y-31545714D02*
X66860000Y-31498095D01*
X66812380Y-31402857D01*
X66812380Y-31164761D01*
X66860000Y-31069523D01*
X66907619Y-31021904D01*
X67002857Y-30974285D01*
X67098095Y-30974285D01*
X67240952Y-31021904D01*
X67812380Y-31593333D01*
X67812380Y-30974285D01*
X125448095Y-34712380D02*
X124971904Y-34712380D01*
X124924285Y-35188571D01*
X124971904Y-35140952D01*
X125067142Y-35093333D01*
X125305238Y-35093333D01*
X125400476Y-35140952D01*
X125448095Y-35188571D01*
X125495714Y-35283809D01*
X125495714Y-35521904D01*
X125448095Y-35617142D01*
X125400476Y-35664761D01*
X125305238Y-35712380D01*
X125067142Y-35712380D01*
X124971904Y-35664761D01*
X124924285Y-35617142D01*
X74497619Y-29005714D02*
X74450000Y-28958095D01*
X74402380Y-28862857D01*
X74402380Y-28624761D01*
X74450000Y-28529523D01*
X74497619Y-28481904D01*
X74592857Y-28434285D01*
X74688095Y-28434285D01*
X74830952Y-28481904D01*
X75402380Y-29053333D01*
X75402380Y-28434285D01*
X41596666Y-65732380D02*
X42215714Y-65732380D01*
X41882380Y-66113333D01*
X42025238Y-66113333D01*
X42120476Y-66160952D01*
X42168095Y-66208571D01*
X42215714Y-66303809D01*
X42215714Y-66541904D01*
X42168095Y-66637142D01*
X42120476Y-66684761D01*
X42025238Y-66732380D01*
X41739523Y-66732380D01*
X41644285Y-66684761D01*
X41596666Y-66637142D01*
X117875714Y-33172380D02*
X117304285Y-33172380D01*
X117590000Y-33172380D02*
X117590000Y-32172380D01*
X117494761Y-32315238D01*
X117399523Y-32410476D01*
X117304285Y-32458095D01*
X124900476Y-37252380D02*
X124710000Y-37252380D01*
X124614761Y-37300000D01*
X124567142Y-37347619D01*
X124471904Y-37490476D01*
X124424285Y-37680952D01*
X124424285Y-38061904D01*
X124471904Y-38157142D01*
X124519523Y-38204761D01*
X124614761Y-38252380D01*
X124805238Y-38252380D01*
X124900476Y-38204761D01*
X124948095Y-38157142D01*
X124995714Y-38061904D01*
X124995714Y-37823809D01*
X124948095Y-37728571D01*
X124900476Y-37680952D01*
X124805238Y-37633333D01*
X124614761Y-37633333D01*
X124519523Y-37680952D01*
X124471904Y-37728571D01*
X124424285Y-37823809D01*
X125948095Y-37300000D02*
X125852857Y-37252380D01*
X125710000Y-37252380D01*
X125567142Y-37300000D01*
X125471904Y-37395238D01*
X125424285Y-37490476D01*
X125376666Y-37680952D01*
X125376666Y-37823809D01*
X125424285Y-38014285D01*
X125471904Y-38109523D01*
X125567142Y-38204761D01*
X125710000Y-38252380D01*
X125805238Y-38252380D01*
X125948095Y-38204761D01*
X125995714Y-38157142D01*
X125995714Y-37823809D01*
X125805238Y-37823809D01*
X117256666Y-37252380D02*
X117875714Y-37252380D01*
X117542380Y-37633333D01*
X117685238Y-37633333D01*
X117780476Y-37680952D01*
X117828095Y-37728571D01*
X117875714Y-37823809D01*
X117875714Y-38061904D01*
X117828095Y-38157142D01*
X117780476Y-38204761D01*
X117685238Y-38252380D01*
X117399523Y-38252380D01*
X117304285Y-38204761D01*
X117256666Y-38157142D01*
X136996667Y-37252379D02*
X137615715Y-37252379D01*
X137282381Y-37633332D01*
X137425239Y-37633332D01*
X137520477Y-37680951D01*
X137568096Y-37728570D01*
X137615715Y-37823808D01*
X137615715Y-38061903D01*
X137568096Y-38157141D01*
X137520477Y-38204760D01*
X137425239Y-38252379D01*
X137139524Y-38252379D01*
X137044286Y-38204760D01*
X136996667Y-38157141D01*
X145140477Y-37252379D02*
X144950001Y-37252379D01*
X144854762Y-37299999D01*
X144807143Y-37347618D01*
X144711905Y-37490475D01*
X144664286Y-37680951D01*
X144664286Y-38061903D01*
X144711905Y-38157141D01*
X144759524Y-38204760D01*
X144854762Y-38252379D01*
X145045239Y-38252379D01*
X145140477Y-38204760D01*
X145188096Y-38157141D01*
X145235715Y-38061903D01*
X145235715Y-37823808D01*
X145188096Y-37728570D01*
X145140477Y-37680951D01*
X145045239Y-37633332D01*
X144854762Y-37633332D01*
X144759524Y-37680951D01*
X144711905Y-37728570D01*
X144664286Y-37823808D01*
X67782380Y-53834285D02*
X67782380Y-54405714D01*
X67782380Y-54120000D02*
X66782380Y-54120000D01*
X66925238Y-54215238D01*
X67020476Y-54310476D01*
X67068095Y-54405714D01*
X61797619Y-29005714D02*
X61750000Y-28958095D01*
X61702380Y-28862857D01*
X61702380Y-28624761D01*
X61750000Y-28529523D01*
X61797619Y-28481904D01*
X61892857Y-28434285D01*
X61988095Y-28434285D01*
X62130952Y-28481904D01*
X62702380Y-29053333D01*
X62702380Y-28434285D01*
X145140477Y-32505713D02*
X145140477Y-33172379D01*
X144902381Y-32124760D02*
X144664286Y-32839046D01*
X145283334Y-32839046D01*
X34595714Y-64192380D02*
X34024285Y-64192380D01*
X34310000Y-64192380D02*
X34310000Y-63192380D01*
X34214761Y-63335238D01*
X34119523Y-63430476D01*
X34024285Y-63478095D01*
X125400476Y-32505714D02*
X125400476Y-33172380D01*
X125162380Y-32124761D02*
X124924285Y-32839047D01*
X125543333Y-32839047D01*
X125360476Y-47205714D02*
X125360476Y-47872380D01*
X125122380Y-46824761D02*
X124884285Y-47539047D01*
X125503333Y-47539047D01*
X117835714Y-45332380D02*
X117264285Y-45332380D01*
X117550000Y-45332380D02*
X117550000Y-44332380D01*
X117454761Y-44475238D01*
X117359523Y-44570476D01*
X117264285Y-44618095D01*
X125408095Y-44332380D02*
X124931904Y-44332380D01*
X124884285Y-44808571D01*
X124931904Y-44760952D01*
X125027142Y-44713333D01*
X125265238Y-44713333D01*
X125360476Y-44760952D01*
X125408095Y-44808571D01*
X125455714Y-44903809D01*
X125455714Y-45141904D01*
X125408095Y-45237142D01*
X125360476Y-45284761D01*
X125265238Y-45332380D01*
X125027142Y-45332380D01*
X124931904Y-45284761D01*
X124884285Y-45237142D01*
X116764285Y-46967619D02*
X116811904Y-46920000D01*
X116907142Y-46872380D01*
X117145238Y-46872380D01*
X117240476Y-46920000D01*
X117288095Y-46967619D01*
X117335714Y-47062857D01*
X117335714Y-47158095D01*
X117288095Y-47300952D01*
X116716666Y-47872380D01*
X117335714Y-47872380D01*
X118288095Y-46920000D02*
X118192857Y-46872380D01*
X118050000Y-46872380D01*
X117907142Y-46920000D01*
X117811904Y-47015238D01*
X117764285Y-47110476D01*
X117716666Y-47300952D01*
X117716666Y-47443809D01*
X117764285Y-47634285D01*
X117811904Y-47729523D01*
X117907142Y-47824761D01*
X118050000Y-47872380D01*
X118145238Y-47872380D01*
X118288095Y-47824761D01*
X118335714Y-47777142D01*
X118335714Y-47443809D01*
X118145238Y-47443809D01*
X124726666Y-59032381D02*
X125345714Y-59032381D01*
X125012380Y-59413334D01*
X125155238Y-59413334D01*
X125250476Y-59460953D01*
X125298095Y-59508572D01*
X125345714Y-59603810D01*
X125345714Y-59841905D01*
X125298095Y-59937143D01*
X125250476Y-59984762D01*
X125155238Y-60032381D01*
X124869523Y-60032381D01*
X124774285Y-59984762D01*
X124726666Y-59937143D01*
X117154285Y-59127620D02*
X117201904Y-59080001D01*
X117297142Y-59032381D01*
X117535238Y-59032381D01*
X117630476Y-59080001D01*
X117678095Y-59127620D01*
X117725714Y-59222858D01*
X117725714Y-59318096D01*
X117678095Y-59460953D01*
X117106666Y-60032381D01*
X117725714Y-60032381D01*
X117725714Y-57492381D02*
X117154285Y-57492381D01*
X117440000Y-57492381D02*
X117440000Y-56492381D01*
X117344761Y-56635239D01*
X117249523Y-56730477D01*
X117154285Y-56778096D01*
X124726666Y-61572381D02*
X125345714Y-61572381D01*
X125012380Y-61953334D01*
X125155238Y-61953334D01*
X125250476Y-62000953D01*
X125298095Y-62048572D01*
X125345714Y-62143810D01*
X125345714Y-62381905D01*
X125298095Y-62477143D01*
X125250476Y-62524762D01*
X125155238Y-62572381D01*
X124869523Y-62572381D01*
X124774285Y-62524762D01*
X124726666Y-62477143D01*
X117725714Y-62572381D02*
X117154285Y-62572381D01*
X117440000Y-62572381D02*
X117440000Y-61572381D01*
X117344761Y-61715239D01*
X117249523Y-61810477D01*
X117154285Y-61858096D01*
X117216666Y-49412380D02*
X117835714Y-49412380D01*
X117502380Y-49793333D01*
X117645238Y-49793333D01*
X117740476Y-49840952D01*
X117788095Y-49888571D01*
X117835714Y-49983809D01*
X117835714Y-50221904D01*
X117788095Y-50317142D01*
X117740476Y-50364761D01*
X117645238Y-50412380D01*
X117359523Y-50412380D01*
X117264285Y-50364761D01*
X117216666Y-50317142D01*
X117154285Y-64207620D02*
X117201904Y-64160001D01*
X117297142Y-64112381D01*
X117535238Y-64112381D01*
X117630476Y-64160001D01*
X117678095Y-64207620D01*
X117725714Y-64302858D01*
X117725714Y-64398096D01*
X117678095Y-64540953D01*
X117106666Y-65112381D01*
X117725714Y-65112381D01*
%TO.C,IC4*%
X142530476Y-56968572D02*
X142673333Y-57016191D01*
X142720952Y-57063810D01*
X142768571Y-57159048D01*
X142768571Y-57301905D01*
X142720952Y-57397143D01*
X142673333Y-57444762D01*
X142578095Y-57492381D01*
X142197142Y-57492381D01*
X142197142Y-56492381D01*
X142530476Y-56492381D01*
X142625714Y-56540001D01*
X142673333Y-56587620D01*
X142720952Y-56682858D01*
X142720952Y-56778096D01*
X142673333Y-56873334D01*
X142625714Y-56920953D01*
X142530476Y-56968572D01*
X142197142Y-56968572D01*
X143149523Y-57444762D02*
X143292380Y-57492381D01*
X143530476Y-57492381D01*
X143625714Y-57444762D01*
X143673333Y-57397143D01*
X143720952Y-57301905D01*
X143720952Y-57206667D01*
X143673333Y-57111429D01*
X143625714Y-57063810D01*
X143530476Y-57016191D01*
X143340000Y-56968572D01*
X143244761Y-56920953D01*
X143197142Y-56873334D01*
X143149523Y-56778096D01*
X143149523Y-56682858D01*
X143197142Y-56587620D01*
X143244761Y-56540001D01*
X143340000Y-56492381D01*
X143578095Y-56492381D01*
X143720952Y-56540001D01*
X144101904Y-57444762D02*
X144244761Y-57492381D01*
X144482857Y-57492381D01*
X144578095Y-57444762D01*
X144625714Y-57397143D01*
X144673333Y-57301905D01*
X144673333Y-57206667D01*
X144625714Y-57111429D01*
X144578095Y-57063810D01*
X144482857Y-57016191D01*
X144292380Y-56968572D01*
X144197142Y-56920953D01*
X144149523Y-56873334D01*
X144101904Y-56778096D01*
X144101904Y-56682858D01*
X144149523Y-56587620D01*
X144197142Y-56540001D01*
X144292380Y-56492381D01*
X144530476Y-56492381D01*
X144673333Y-56540001D01*
X145625714Y-57492381D02*
X145054285Y-57492381D01*
X145340000Y-57492381D02*
X145340000Y-56492381D01*
X145244761Y-56635239D01*
X145149523Y-56730477D01*
X145054285Y-56778096D01*
X145959047Y-56492381D02*
X146578095Y-56492381D01*
X146244761Y-56873334D01*
X146387619Y-56873334D01*
X146482857Y-56920953D01*
X146530476Y-56968572D01*
X146578095Y-57063810D01*
X146578095Y-57301905D01*
X146530476Y-57397143D01*
X146482857Y-57444762D01*
X146387619Y-57492381D01*
X146101904Y-57492381D01*
X146006666Y-57444762D01*
X145959047Y-57397143D01*
X147149523Y-56920953D02*
X147054285Y-56873334D01*
X147006666Y-56825715D01*
X146959047Y-56730477D01*
X146959047Y-56682858D01*
X147006666Y-56587620D01*
X147054285Y-56540001D01*
X147149523Y-56492381D01*
X147340000Y-56492381D01*
X147435238Y-56540001D01*
X147482857Y-56587620D01*
X147530476Y-56682858D01*
X147530476Y-56730477D01*
X147482857Y-56825715D01*
X147435238Y-56873334D01*
X147340000Y-56920953D01*
X147149523Y-56920953D01*
X147054285Y-56968572D01*
X147006666Y-57016191D01*
X146959047Y-57111429D01*
X146959047Y-57301905D01*
X147006666Y-57397143D01*
X147054285Y-57444762D01*
X147149523Y-57492381D01*
X147340000Y-57492381D01*
X147435238Y-57444762D01*
X147482857Y-57397143D01*
X147530476Y-57301905D01*
X147530476Y-57111429D01*
X147482857Y-57016191D01*
X147435238Y-56968572D01*
X147340000Y-56920953D01*
%TO.C,U4*%
X136057619Y-43426666D02*
X136533809Y-43426666D01*
X135962380Y-43712380D02*
X136295714Y-42712380D01*
X136629047Y-43712380D01*
X136962380Y-43712380D02*
X136962380Y-42712380D01*
X137343333Y-42712380D01*
X137438571Y-42760000D01*
X137486190Y-42807619D01*
X137533809Y-42902857D01*
X137533809Y-43045714D01*
X137486190Y-43140952D01*
X137438571Y-43188571D01*
X137343333Y-43236190D01*
X136962380Y-43236190D01*
X137914761Y-42807619D02*
X137962380Y-42760000D01*
X138057619Y-42712380D01*
X138295714Y-42712380D01*
X138390952Y-42760000D01*
X138438571Y-42807619D01*
X138486190Y-42902857D01*
X138486190Y-42998095D01*
X138438571Y-43140952D01*
X137867142Y-43712380D01*
X138486190Y-43712380D01*
X139438571Y-43712380D02*
X138867142Y-43712380D01*
X139152857Y-43712380D02*
X139152857Y-42712380D01*
X139057619Y-42855238D01*
X138962380Y-42950476D01*
X138867142Y-42998095D01*
X140390952Y-43712380D02*
X139819523Y-43712380D01*
X140105238Y-43712380D02*
X140105238Y-42712380D01*
X140010000Y-42855238D01*
X139914761Y-42950476D01*
X139819523Y-42998095D01*
X140771904Y-42807619D02*
X140819523Y-42760000D01*
X140914761Y-42712380D01*
X141152857Y-42712380D01*
X141248095Y-42760000D01*
X141295714Y-42807619D01*
X141343333Y-42902857D01*
X141343333Y-42998095D01*
X141295714Y-43140952D01*
X140724285Y-43712380D01*
X141343333Y-43712380D01*
X141771904Y-43712380D02*
X141771904Y-42712380D01*
X142343333Y-43712380D02*
X141914761Y-43140952D01*
X142343333Y-42712380D02*
X141771904Y-43283809D01*
X142771904Y-43331428D02*
X143533809Y-43331428D01*
X143914761Y-42712380D02*
X144533809Y-42712380D01*
X144200476Y-43093333D01*
X144343333Y-43093333D01*
X144438571Y-43140952D01*
X144486190Y-43188571D01*
X144533809Y-43283809D01*
X144533809Y-43521904D01*
X144486190Y-43617142D01*
X144438571Y-43664761D01*
X144343333Y-43712380D01*
X144057619Y-43712380D01*
X143962380Y-43664761D01*
X143914761Y-43617142D01*
X144962380Y-43617142D02*
X145010000Y-43664761D01*
X144962380Y-43712380D01*
X144914761Y-43664761D01*
X144962380Y-43617142D01*
X144962380Y-43712380D01*
X145343333Y-42712380D02*
X145962380Y-42712380D01*
X145629047Y-43093333D01*
X145771904Y-43093333D01*
X145867142Y-43140952D01*
X145914761Y-43188571D01*
X145962380Y-43283809D01*
X145962380Y-43521904D01*
X145914761Y-43617142D01*
X145867142Y-43664761D01*
X145771904Y-43712380D01*
X145486190Y-43712380D01*
X145390952Y-43664761D01*
X145343333Y-43617142D01*
%TO.C,Y3*%
X75764285Y-62357142D02*
X75716666Y-62404761D01*
X75573809Y-62452380D01*
X75478571Y-62452380D01*
X75335714Y-62404761D01*
X75240476Y-62309523D01*
X75192857Y-62214285D01*
X75145238Y-62023809D01*
X75145238Y-61880952D01*
X75192857Y-61690476D01*
X75240476Y-61595238D01*
X75335714Y-61500000D01*
X75478571Y-61452380D01*
X75573809Y-61452380D01*
X75716666Y-61500000D01*
X75764285Y-61547619D01*
X76192857Y-62452380D02*
X76192857Y-61785714D01*
X76192857Y-61976190D02*
X76240476Y-61880952D01*
X76288095Y-61833333D01*
X76383333Y-61785714D01*
X76478571Y-61785714D01*
X76716666Y-61785714D02*
X76954761Y-62452380D01*
X77192857Y-61785714D02*
X76954761Y-62452380D01*
X76859523Y-62690476D01*
X76811904Y-62738095D01*
X76716666Y-62785714D01*
X77526190Y-62404761D02*
X77621428Y-62452380D01*
X77811904Y-62452380D01*
X77907142Y-62404761D01*
X77954761Y-62309523D01*
X77954761Y-62261904D01*
X77907142Y-62166666D01*
X77811904Y-62119047D01*
X77669047Y-62119047D01*
X77573809Y-62071428D01*
X77526190Y-61976190D01*
X77526190Y-61928571D01*
X77573809Y-61833333D01*
X77669047Y-61785714D01*
X77811904Y-61785714D01*
X77907142Y-61833333D01*
X78240476Y-61785714D02*
X78621428Y-61785714D01*
X78383333Y-61452380D02*
X78383333Y-62309523D01*
X78430952Y-62404761D01*
X78526190Y-62452380D01*
X78621428Y-62452380D01*
X79383333Y-62452380D02*
X79383333Y-61928571D01*
X79335714Y-61833333D01*
X79240476Y-61785714D01*
X79050000Y-61785714D01*
X78954761Y-61833333D01*
X79383333Y-62404761D02*
X79288095Y-62452380D01*
X79050000Y-62452380D01*
X78954761Y-62404761D01*
X78907142Y-62309523D01*
X78907142Y-62214285D01*
X78954761Y-62119047D01*
X79050000Y-62071428D01*
X79288095Y-62071428D01*
X79383333Y-62023809D01*
X80002380Y-62452380D02*
X79907142Y-62404761D01*
X79859523Y-62309523D01*
X79859523Y-61452380D01*
%TO.C,Y2*%
X55984285Y-62357142D02*
X55936666Y-62404761D01*
X55793809Y-62452380D01*
X55698571Y-62452380D01*
X55555714Y-62404761D01*
X55460476Y-62309523D01*
X55412857Y-62214285D01*
X55365238Y-62023809D01*
X55365238Y-61880952D01*
X55412857Y-61690476D01*
X55460476Y-61595238D01*
X55555714Y-61500000D01*
X55698571Y-61452380D01*
X55793809Y-61452380D01*
X55936666Y-61500000D01*
X55984285Y-61547619D01*
X56412857Y-62452380D02*
X56412857Y-61785714D01*
X56412857Y-61976190D02*
X56460476Y-61880952D01*
X56508095Y-61833333D01*
X56603333Y-61785714D01*
X56698571Y-61785714D01*
X56936666Y-61785714D02*
X57174761Y-62452380D01*
X57412857Y-61785714D02*
X57174761Y-62452380D01*
X57079523Y-62690476D01*
X57031904Y-62738095D01*
X56936666Y-62785714D01*
X57746190Y-62404761D02*
X57841428Y-62452380D01*
X58031904Y-62452380D01*
X58127142Y-62404761D01*
X58174761Y-62309523D01*
X58174761Y-62261904D01*
X58127142Y-62166666D01*
X58031904Y-62119047D01*
X57889047Y-62119047D01*
X57793809Y-62071428D01*
X57746190Y-61976190D01*
X57746190Y-61928571D01*
X57793809Y-61833333D01*
X57889047Y-61785714D01*
X58031904Y-61785714D01*
X58127142Y-61833333D01*
X58460476Y-61785714D02*
X58841428Y-61785714D01*
X58603333Y-61452380D02*
X58603333Y-62309523D01*
X58650952Y-62404761D01*
X58746190Y-62452380D01*
X58841428Y-62452380D01*
X59603333Y-62452380D02*
X59603333Y-61928571D01*
X59555714Y-61833333D01*
X59460476Y-61785714D01*
X59270000Y-61785714D01*
X59174761Y-61833333D01*
X59603333Y-62404761D02*
X59508095Y-62452380D01*
X59270000Y-62452380D01*
X59174761Y-62404761D01*
X59127142Y-62309523D01*
X59127142Y-62214285D01*
X59174761Y-62119047D01*
X59270000Y-62071428D01*
X59508095Y-62071428D01*
X59603333Y-62023809D01*
X60222380Y-62452380D02*
X60127142Y-62404761D01*
X60079523Y-62309523D01*
X60079523Y-61452380D01*
%TO.C,U3*%
X92830000Y-62642380D02*
X92830000Y-61642380D01*
X93210952Y-61642380D01*
X93306190Y-61690000D01*
X93353809Y-61737619D01*
X93401428Y-61832857D01*
X93401428Y-61975714D01*
X93353809Y-62070952D01*
X93306190Y-62118571D01*
X93210952Y-62166190D01*
X92830000Y-62166190D01*
X94401428Y-62642380D02*
X94068095Y-62166190D01*
X93830000Y-62642380D02*
X93830000Y-61642380D01*
X94210952Y-61642380D01*
X94306190Y-61690000D01*
X94353809Y-61737619D01*
X94401428Y-61832857D01*
X94401428Y-61975714D01*
X94353809Y-62070952D01*
X94306190Y-62118571D01*
X94210952Y-62166190D01*
X93830000Y-62166190D01*
X94687142Y-61642380D02*
X95258571Y-61642380D01*
X94972857Y-62642380D02*
X94972857Y-61642380D01*
X96163333Y-62642380D02*
X95830000Y-62166190D01*
X95591904Y-62642380D02*
X95591904Y-61642380D01*
X95972857Y-61642380D01*
X96068095Y-61690000D01*
X96115714Y-61737619D01*
X96163333Y-61832857D01*
X96163333Y-61975714D01*
X96115714Y-62070952D01*
X96068095Y-62118571D01*
X95972857Y-62166190D01*
X95591904Y-62166190D01*
X97068095Y-61642380D02*
X96591904Y-61642380D01*
X96544285Y-62118571D01*
X96591904Y-62070952D01*
X96687142Y-62023333D01*
X96925238Y-62023333D01*
X97020476Y-62070952D01*
X97068095Y-62118571D01*
X97115714Y-62213809D01*
X97115714Y-62451904D01*
X97068095Y-62547142D01*
X97020476Y-62594761D01*
X96925238Y-62642380D01*
X96687142Y-62642380D01*
X96591904Y-62594761D01*
X96544285Y-62547142D01*
X97401428Y-61642380D02*
X97734761Y-62642380D01*
X98068095Y-61642380D01*
X98591904Y-61642380D02*
X98687142Y-61642380D01*
X98782380Y-61690000D01*
X98830000Y-61737619D01*
X98877619Y-61832857D01*
X98925238Y-62023333D01*
X98925238Y-62261428D01*
X98877619Y-62451904D01*
X98830000Y-62547142D01*
X98782380Y-62594761D01*
X98687142Y-62642380D01*
X98591904Y-62642380D01*
X98496666Y-62594761D01*
X98449047Y-62547142D01*
X98401428Y-62451904D01*
X98353809Y-62261428D01*
X98353809Y-62023333D01*
X98401428Y-61832857D01*
X98449047Y-61737619D01*
X98496666Y-61690000D01*
X98591904Y-61642380D01*
X99353809Y-61642380D02*
X99353809Y-62451904D01*
X99401428Y-62547142D01*
X99449047Y-62594761D01*
X99544285Y-62642380D01*
X99734761Y-62642380D01*
X99830000Y-62594761D01*
X99877619Y-62547142D01*
X99925238Y-62451904D01*
X99925238Y-61642380D01*
X100353809Y-61737619D02*
X100401428Y-61690000D01*
X100496666Y-61642380D01*
X100734761Y-61642380D01*
X100830000Y-61690000D01*
X100877619Y-61737619D01*
X100925238Y-61832857D01*
X100925238Y-61928095D01*
X100877619Y-62070952D01*
X100306190Y-62642380D01*
X100925238Y-62642380D01*
X101258571Y-61642380D02*
X101925238Y-62642380D01*
X101925238Y-61642380D02*
X101258571Y-62642380D01*
%TO.C,MX1*%
X44197380Y-44165714D02*
X43197380Y-44165714D01*
X43911666Y-43832380D01*
X43197380Y-43499047D01*
X44197380Y-43499047D01*
X43197380Y-43118095D02*
X44197380Y-42451428D01*
X43197380Y-42451428D02*
X44197380Y-43118095D01*
X44197380Y-41546666D02*
X44197380Y-42118095D01*
X44197380Y-41832380D02*
X43197380Y-41832380D01*
X43340238Y-41927619D01*
X43435476Y-42022857D01*
X43483095Y-42118095D01*
%TO.C,Y1*%
X36204285Y-62357142D02*
X36156666Y-62404761D01*
X36013809Y-62452380D01*
X35918571Y-62452380D01*
X35775714Y-62404761D01*
X35680476Y-62309523D01*
X35632857Y-62214285D01*
X35585238Y-62023809D01*
X35585238Y-61880952D01*
X35632857Y-61690476D01*
X35680476Y-61595238D01*
X35775714Y-61500000D01*
X35918571Y-61452380D01*
X36013809Y-61452380D01*
X36156666Y-61500000D01*
X36204285Y-61547619D01*
X36632857Y-62452380D02*
X36632857Y-61785714D01*
X36632857Y-61976190D02*
X36680476Y-61880952D01*
X36728095Y-61833333D01*
X36823333Y-61785714D01*
X36918571Y-61785714D01*
X37156666Y-61785714D02*
X37394761Y-62452380D01*
X37632857Y-61785714D02*
X37394761Y-62452380D01*
X37299523Y-62690476D01*
X37251904Y-62738095D01*
X37156666Y-62785714D01*
X37966190Y-62404761D02*
X38061428Y-62452380D01*
X38251904Y-62452380D01*
X38347142Y-62404761D01*
X38394761Y-62309523D01*
X38394761Y-62261904D01*
X38347142Y-62166666D01*
X38251904Y-62119047D01*
X38109047Y-62119047D01*
X38013809Y-62071428D01*
X37966190Y-61976190D01*
X37966190Y-61928571D01*
X38013809Y-61833333D01*
X38109047Y-61785714D01*
X38251904Y-61785714D01*
X38347142Y-61833333D01*
X38680476Y-61785714D02*
X39061428Y-61785714D01*
X38823333Y-61452380D02*
X38823333Y-62309523D01*
X38870952Y-62404761D01*
X38966190Y-62452380D01*
X39061428Y-62452380D01*
X39823333Y-62452380D02*
X39823333Y-61928571D01*
X39775714Y-61833333D01*
X39680476Y-61785714D01*
X39490000Y-61785714D01*
X39394761Y-61833333D01*
X39823333Y-62404761D02*
X39728095Y-62452380D01*
X39490000Y-62452380D01*
X39394761Y-62404761D01*
X39347142Y-62309523D01*
X39347142Y-62214285D01*
X39394761Y-62119047D01*
X39490000Y-62071428D01*
X39728095Y-62071428D01*
X39823333Y-62023809D01*
X40442380Y-62452380D02*
X40347142Y-62404761D01*
X40299523Y-62309523D01*
X40299523Y-61452380D01*
%TO.C,MX3*%
X63337380Y-44165714D02*
X62337380Y-44165714D01*
X63051666Y-43832380D01*
X62337380Y-43499047D01*
X63337380Y-43499047D01*
X62337380Y-43118095D02*
X63337380Y-42451428D01*
X62337380Y-42451428D02*
X63337380Y-43118095D01*
X62337380Y-42165714D02*
X62337380Y-41546666D01*
X62718333Y-41880000D01*
X62718333Y-41737142D01*
X62765952Y-41641904D01*
X62813571Y-41594285D01*
X62908809Y-41546666D01*
X63146904Y-41546666D01*
X63242142Y-41594285D01*
X63289761Y-41641904D01*
X63337380Y-41737142D01*
X63337380Y-42022857D01*
X63289761Y-42118095D01*
X63242142Y-42165714D01*
%TO.C,MX2*%
X82797380Y-44165714D02*
X81797380Y-44165714D01*
X82511666Y-43832380D01*
X81797380Y-43499047D01*
X82797380Y-43499047D01*
X81797380Y-43118095D02*
X82797380Y-42451428D01*
X81797380Y-42451428D02*
X82797380Y-43118095D01*
X81892619Y-42118095D02*
X81845000Y-42070476D01*
X81797380Y-41975238D01*
X81797380Y-41737142D01*
X81845000Y-41641904D01*
X81892619Y-41594285D01*
X81987857Y-41546666D01*
X82083095Y-41546666D01*
X82225952Y-41594285D01*
X82797380Y-42165714D01*
X82797380Y-41546666D01*
%TO.C,MX4*%
X102097380Y-44165714D02*
X101097380Y-44165714D01*
X101811666Y-43832380D01*
X101097380Y-43499047D01*
X102097380Y-43499047D01*
X101097380Y-43118095D02*
X102097380Y-42451428D01*
X101097380Y-42451428D02*
X102097380Y-43118095D01*
X101430714Y-41641904D02*
X102097380Y-41641904D01*
X101049761Y-41880000D02*
X101764047Y-42118095D01*
X101764047Y-41499047D01*
%TO.C,IC2*%
X122750476Y-56968572D02*
X122893333Y-57016191D01*
X122940952Y-57063810D01*
X122988571Y-57159048D01*
X122988571Y-57301905D01*
X122940952Y-57397143D01*
X122893333Y-57444762D01*
X122798095Y-57492381D01*
X122417142Y-57492381D01*
X122417142Y-56492381D01*
X122750476Y-56492381D01*
X122845714Y-56540001D01*
X122893333Y-56587620D01*
X122940952Y-56682858D01*
X122940952Y-56778096D01*
X122893333Y-56873334D01*
X122845714Y-56920953D01*
X122750476Y-56968572D01*
X122417142Y-56968572D01*
X123369523Y-57444762D02*
X123512380Y-57492381D01*
X123750476Y-57492381D01*
X123845714Y-57444762D01*
X123893333Y-57397143D01*
X123940952Y-57301905D01*
X123940952Y-57206667D01*
X123893333Y-57111429D01*
X123845714Y-57063810D01*
X123750476Y-57016191D01*
X123560000Y-56968572D01*
X123464761Y-56920953D01*
X123417142Y-56873334D01*
X123369523Y-56778096D01*
X123369523Y-56682858D01*
X123417142Y-56587620D01*
X123464761Y-56540001D01*
X123560000Y-56492381D01*
X123798095Y-56492381D01*
X123940952Y-56540001D01*
X124321904Y-57444762D02*
X124464761Y-57492381D01*
X124702857Y-57492381D01*
X124798095Y-57444762D01*
X124845714Y-57397143D01*
X124893333Y-57301905D01*
X124893333Y-57206667D01*
X124845714Y-57111429D01*
X124798095Y-57063810D01*
X124702857Y-57016191D01*
X124512380Y-56968572D01*
X124417142Y-56920953D01*
X124369523Y-56873334D01*
X124321904Y-56778096D01*
X124321904Y-56682858D01*
X124369523Y-56587620D01*
X124417142Y-56540001D01*
X124512380Y-56492381D01*
X124750476Y-56492381D01*
X124893333Y-56540001D01*
X125845714Y-57492381D02*
X125274285Y-57492381D01*
X125560000Y-57492381D02*
X125560000Y-56492381D01*
X125464761Y-56635239D01*
X125369523Y-56730477D01*
X125274285Y-56778096D01*
X126179047Y-56492381D02*
X126798095Y-56492381D01*
X126464761Y-56873334D01*
X126607619Y-56873334D01*
X126702857Y-56920953D01*
X126750476Y-56968572D01*
X126798095Y-57063810D01*
X126798095Y-57301905D01*
X126750476Y-57397143D01*
X126702857Y-57444762D01*
X126607619Y-57492381D01*
X126321904Y-57492381D01*
X126226666Y-57444762D01*
X126179047Y-57397143D01*
X127369523Y-56920953D02*
X127274285Y-56873334D01*
X127226666Y-56825715D01*
X127179047Y-56730477D01*
X127179047Y-56682858D01*
X127226666Y-56587620D01*
X127274285Y-56540001D01*
X127369523Y-56492381D01*
X127560000Y-56492381D01*
X127655238Y-56540001D01*
X127702857Y-56587620D01*
X127750476Y-56682858D01*
X127750476Y-56730477D01*
X127702857Y-56825715D01*
X127655238Y-56873334D01*
X127560000Y-56920953D01*
X127369523Y-56920953D01*
X127274285Y-56968572D01*
X127226666Y-57016191D01*
X127179047Y-57111429D01*
X127179047Y-57301905D01*
X127226666Y-57397143D01*
X127274285Y-57444762D01*
X127369523Y-57492381D01*
X127560000Y-57492381D01*
X127655238Y-57444762D01*
X127702857Y-57397143D01*
X127750476Y-57301905D01*
X127750476Y-57111429D01*
X127702857Y-57016191D01*
X127655238Y-56968572D01*
X127560000Y-56920953D01*
%TO.C,U2*%
X116277619Y-43426666D02*
X116753809Y-43426666D01*
X116182380Y-43712380D02*
X116515714Y-42712380D01*
X116849047Y-43712380D01*
X117182380Y-43712380D02*
X117182380Y-42712380D01*
X117563333Y-42712380D01*
X117658571Y-42760000D01*
X117706190Y-42807619D01*
X117753809Y-42902857D01*
X117753809Y-43045714D01*
X117706190Y-43140952D01*
X117658571Y-43188571D01*
X117563333Y-43236190D01*
X117182380Y-43236190D01*
X118134761Y-42807619D02*
X118182380Y-42760000D01*
X118277619Y-42712380D01*
X118515714Y-42712380D01*
X118610952Y-42760000D01*
X118658571Y-42807619D01*
X118706190Y-42902857D01*
X118706190Y-42998095D01*
X118658571Y-43140952D01*
X118087142Y-43712380D01*
X118706190Y-43712380D01*
X119658571Y-43712380D02*
X119087142Y-43712380D01*
X119372857Y-43712380D02*
X119372857Y-42712380D01*
X119277619Y-42855238D01*
X119182380Y-42950476D01*
X119087142Y-42998095D01*
X120610952Y-43712380D02*
X120039523Y-43712380D01*
X120325238Y-43712380D02*
X120325238Y-42712380D01*
X120230000Y-42855238D01*
X120134761Y-42950476D01*
X120039523Y-42998095D01*
X120991904Y-42807619D02*
X121039523Y-42760000D01*
X121134761Y-42712380D01*
X121372857Y-42712380D01*
X121468095Y-42760000D01*
X121515714Y-42807619D01*
X121563333Y-42902857D01*
X121563333Y-42998095D01*
X121515714Y-43140952D01*
X120944285Y-43712380D01*
X121563333Y-43712380D01*
X121991904Y-43712380D02*
X121991904Y-42712380D01*
X122563333Y-43712380D02*
X122134761Y-43140952D01*
X122563333Y-42712380D02*
X121991904Y-43283809D01*
X122991904Y-43331428D02*
X123753809Y-43331428D01*
X124134761Y-42712380D02*
X124753809Y-42712380D01*
X124420476Y-43093333D01*
X124563333Y-43093333D01*
X124658571Y-43140952D01*
X124706190Y-43188571D01*
X124753809Y-43283809D01*
X124753809Y-43521904D01*
X124706190Y-43617142D01*
X124658571Y-43664761D01*
X124563333Y-43712380D01*
X124277619Y-43712380D01*
X124182380Y-43664761D01*
X124134761Y-43617142D01*
X125182380Y-43617142D02*
X125230000Y-43664761D01*
X125182380Y-43712380D01*
X125134761Y-43664761D01*
X125182380Y-43617142D01*
X125182380Y-43712380D01*
X125563333Y-42712380D02*
X126182380Y-42712380D01*
X125849047Y-43093333D01*
X125991904Y-43093333D01*
X126087142Y-43140952D01*
X126134761Y-43188571D01*
X126182380Y-43283809D01*
X126182380Y-43521904D01*
X126134761Y-43617142D01*
X126087142Y-43664761D01*
X125991904Y-43712380D01*
X125706190Y-43712380D01*
X125610952Y-43664761D01*
X125563333Y-43617142D01*
D11*
%TO.C,mouse-bite-2mm-slot*%
X88570000Y-67010000D02*
G75*
G03*
X86570000Y-67010000I-1000000J0D01*
G01*
X86570000Y-63010000D02*
G75*
G03*
X88570000Y-63010000I1000000J0D01*
G01*
X68790000Y-67010000D02*
G75*
G03*
X66790000Y-67010000I-1000000J0D01*
G01*
X66790000Y-63010000D02*
G75*
G03*
X68790000Y-63010000I1000000J0D01*
G01*
X130140001Y-57350001D02*
G75*
G03*
X132140001Y-57350001I1000000J0D01*
G01*
X132140001Y-64350001D02*
G75*
G03*
X130140001Y-64350001I-1000000J0D01*
G01*
X137500000Y-54500000D02*
G75*
G03*
X137500000Y-52500000I0J1000000D01*
G01*
X144500000Y-52500000D02*
G75*
G03*
X144500000Y-54500000I0J-1000000D01*
G01*
X117750000Y-54500000D02*
G75*
G03*
X117750000Y-52500000I0J1000000D01*
G01*
X124750000Y-52500000D02*
G75*
G03*
X124750000Y-54500000I0J-1000000D01*
G01*
D12*
%TO.C,J36*%
X146050000Y-59580001D02*
X146050000Y-58250001D01*
X148710000Y-60850001D02*
X148710000Y-63450001D01*
X146050000Y-60850001D02*
X148710000Y-60850001D01*
X146050000Y-58250001D02*
X147380000Y-58250001D01*
X146050000Y-63450001D02*
X148710000Y-63450001D01*
X146050000Y-60850001D02*
X146050000Y-63450001D01*
D13*
%TO.C,IC5*%
X142575000Y-66120001D02*
X142025000Y-66120001D01*
X142025000Y-63200001D02*
X142575000Y-63200001D01*
X142575000Y-63200001D02*
X142575000Y-66120001D01*
X140625000Y-63110001D02*
X141675000Y-63110001D01*
X142025000Y-66120001D02*
X142025000Y-63200001D01*
%TO.C,IC4*%
X138085000Y-58030001D02*
X139135000Y-58030001D01*
X140035000Y-61040001D02*
X139485000Y-61040001D01*
X139485000Y-58120001D02*
X140035000Y-58120001D01*
X139485000Y-61040001D02*
X139485000Y-58120001D01*
X140035000Y-58120001D02*
X140035000Y-61040001D01*
D12*
%TO.C,J35*%
X133350000Y-58310001D02*
X136010000Y-58310001D01*
X136010000Y-58310001D02*
X136010000Y-65990001D01*
X133350000Y-58310001D02*
X133350000Y-65990001D01*
X133350000Y-65990001D02*
X136010000Y-65990001D01*
X133350000Y-55710001D02*
X134680000Y-55710001D01*
X133350000Y-57040001D02*
X133350000Y-55710001D01*
D11*
%TO.C,mouse-bite-2mm-slot*%
X49010000Y-67010000D02*
G75*
G03*
X47010000Y-67010000I-1000000J0D01*
G01*
X47010000Y-63010000D02*
G75*
G03*
X49010000Y-63010000I1000000J0D01*
G01*
X130250000Y-43840000D02*
G75*
G03*
X132250000Y-43840000I1000000J0D01*
G01*
X132250000Y-50840000D02*
G75*
G03*
X130250000Y-50840000I-1000000J0D01*
G01*
D12*
%TO.C,J34*%
X148820000Y-48750000D02*
X147490000Y-48750000D01*
X148820000Y-46150000D02*
X148820000Y-43550000D01*
X148820000Y-46150000D02*
X146160000Y-46150000D01*
X148820000Y-47420000D02*
X148820000Y-48750000D01*
X148820000Y-43550000D02*
X146160000Y-43550000D01*
X146160000Y-46150000D02*
X146160000Y-43550000D01*
%TO.C,U4*%
X141010000Y-49020000D02*
X140210000Y-49020000D01*
X141010000Y-49020000D02*
X141810000Y-49020000D01*
X141010000Y-45900000D02*
X141810000Y-45900000D01*
X141010000Y-45900000D02*
X139210000Y-45900000D01*
%TO.C,J33*%
X136120000Y-46150000D02*
X136120000Y-51290000D01*
X133460000Y-51290000D02*
X136120000Y-51290000D01*
X133460000Y-46150000D02*
X136120000Y-46150000D01*
X133460000Y-46150000D02*
X133460000Y-51290000D01*
X133460000Y-44880000D02*
X133460000Y-43550000D01*
X133460000Y-43550000D02*
X134790000Y-43550000D01*
D11*
%TO.C,mouse-bite-2mm-slot*%
X112510000Y-50840000D02*
G75*
G03*
X110510000Y-50840000I-1000000J0D01*
G01*
X110510000Y-43840000D02*
G75*
G03*
X112510000Y-43840000I1000000J0D01*
G01*
X137490000Y-42340000D02*
G75*
G03*
X137490000Y-40340000I0J1000000D01*
G01*
X144490000Y-40340000D02*
G75*
G03*
X144490000Y-42340000I0J-1000000D01*
G01*
X117750000Y-42340000D02*
G75*
G03*
X117750000Y-40340000I0J1000000D01*
G01*
X124750000Y-40340000D02*
G75*
G03*
X124750000Y-42340000I0J-1000000D01*
G01*
X132250000Y-38840000D02*
G75*
G03*
X130250000Y-38840000I-1000000J0D01*
G01*
X130250000Y-31840000D02*
G75*
G03*
X132250000Y-31840000I1000000J0D01*
G01*
X112510000Y-38760000D02*
G75*
G03*
X110510000Y-38760000I-1000000J0D01*
G01*
X110510000Y-31760000D02*
G75*
G03*
X112510000Y-31760000I1000000J0D01*
G01*
D12*
%TO.C,Y3*%
X79300000Y-62900000D02*
X76000000Y-62900000D01*
X76000000Y-62900000D02*
X76000000Y-66900000D01*
%TO.C,J13*%
X82700000Y-65010000D02*
X82700000Y-62410000D01*
X85360000Y-62410000D02*
X82700000Y-62410000D01*
X85360000Y-65010000D02*
X85360000Y-62410000D01*
X85360000Y-67610000D02*
X84030000Y-67610000D01*
X85360000Y-66280000D02*
X85360000Y-67610000D01*
X85360000Y-65010000D02*
X82700000Y-65010000D01*
%TO.C,J12*%
X72660000Y-65010000D02*
X72660000Y-67610000D01*
X70000000Y-65010000D02*
X70000000Y-67610000D01*
X70000000Y-67610000D02*
X72660000Y-67610000D01*
X70000000Y-63740000D02*
X70000000Y-62410000D01*
X70000000Y-65010000D02*
X72660000Y-65010000D01*
X70000000Y-62410000D02*
X71330000Y-62410000D01*
%TO.C,Y2*%
X59520000Y-62900000D02*
X56220000Y-62900000D01*
X56220000Y-62900000D02*
X56220000Y-66900000D01*
%TO.C,J11*%
X62920000Y-65010000D02*
X62920000Y-62410000D01*
X65580000Y-62410000D02*
X62920000Y-62410000D01*
X65580000Y-65010000D02*
X65580000Y-62410000D01*
X65580000Y-67610000D02*
X64250000Y-67610000D01*
X65580000Y-66280000D02*
X65580000Y-67610000D01*
X65580000Y-65010000D02*
X62920000Y-65010000D01*
%TO.C,J8*%
X52880000Y-65010000D02*
X52880000Y-67610000D01*
X50220000Y-65010000D02*
X50220000Y-67610000D01*
X50220000Y-67610000D02*
X52880000Y-67610000D01*
X50220000Y-63740000D02*
X50220000Y-62410000D01*
X50220000Y-65010000D02*
X52880000Y-65010000D01*
X50220000Y-62410000D02*
X51550000Y-62410000D01*
D11*
%TO.C,mouse-bite-2mm-slot*%
X94270000Y-61200000D02*
G75*
G03*
X94270000Y-59200000I0J1000000D01*
G01*
X101270000Y-59200000D02*
G75*
G03*
X101270000Y-61200000I0J-1000000D01*
G01*
X74270000Y-61200000D02*
G75*
G03*
X74270000Y-59200000I0J1000000D01*
G01*
X81270000Y-59200000D02*
G75*
G03*
X81270000Y-61200000I0J-1000000D01*
G01*
X54270000Y-61200000D02*
G75*
G03*
X54270000Y-59200000I0J1000000D01*
G01*
X61270000Y-59200000D02*
G75*
G03*
X61270000Y-61200000I0J-1000000D01*
G01*
X41770000Y-59200000D02*
G75*
G03*
X41770000Y-61200000I0J-1000000D01*
G01*
X34770000Y-61200000D02*
G75*
G03*
X34770000Y-59200000I0J1000000D01*
G01*
D12*
%TO.C,J22*%
X118800000Y-32720000D02*
X118800000Y-31390000D01*
X121400000Y-33990000D02*
X121400000Y-31390000D01*
X118800000Y-39130000D02*
X124000000Y-39130000D01*
X118800000Y-33990000D02*
X121400000Y-33990000D01*
X118800000Y-33990000D02*
X118800000Y-39130000D01*
X121400000Y-31390000D02*
X124000000Y-31390000D01*
X124000000Y-31390000D02*
X124000000Y-39130000D01*
X118800000Y-31390000D02*
X120130000Y-31390000D01*
D10*
%TO.C,U3*%
X97980000Y-63040000D02*
X97980000Y-65940000D01*
X96680000Y-63040000D02*
X96680000Y-65940000D01*
X97980000Y-63040000D02*
X96680000Y-63040000D01*
X96680000Y-65940000D02*
X97980000Y-65940000D01*
D12*
%TO.C,J9*%
X66060000Y-30050000D02*
X66060000Y-27390000D01*
X66060000Y-30050000D02*
X73740000Y-30050000D01*
X63460000Y-30050000D02*
X63460000Y-28720000D01*
X64790000Y-30050000D02*
X63460000Y-30050000D01*
X73740000Y-30050000D02*
X73740000Y-27390000D01*
X66060000Y-27390000D02*
X73740000Y-27390000D01*
%TO.C,J6*%
X33100000Y-65010000D02*
X33100000Y-67610000D01*
X30440000Y-65010000D02*
X30440000Y-67610000D01*
X30440000Y-67610000D02*
X33100000Y-67610000D01*
X30440000Y-63740000D02*
X30440000Y-62410000D01*
X30440000Y-65010000D02*
X33100000Y-65010000D01*
X30440000Y-62410000D02*
X31770000Y-62410000D01*
%TO.C,J31*%
X105430000Y-57990000D02*
X104100000Y-57990000D01*
X104100000Y-57990000D02*
X104100000Y-56660000D01*
X106700000Y-55330000D02*
X109300000Y-55330000D01*
X109300000Y-57990000D02*
X109300000Y-55330000D01*
X106700000Y-57990000D02*
X109300000Y-57990000D01*
X106700000Y-57990000D02*
X106700000Y-55330000D01*
%TO.C,J30*%
X30440000Y-30050000D02*
X30440000Y-28720000D01*
X33040000Y-30050000D02*
X35640000Y-30050000D01*
X31770000Y-30050000D02*
X30440000Y-30050000D01*
X33040000Y-30050000D02*
X33040000Y-27390000D01*
X33040000Y-27390000D02*
X35640000Y-27390000D01*
X35640000Y-30050000D02*
X35640000Y-27390000D01*
%TO.C,J32*%
X104100000Y-30050000D02*
X104100000Y-28720000D01*
X106700000Y-27390000D02*
X109300000Y-27390000D01*
X105430000Y-30050000D02*
X104100000Y-30050000D01*
X109300000Y-30050000D02*
X109300000Y-27390000D01*
X106700000Y-30050000D02*
X109300000Y-30050000D01*
X106700000Y-30050000D02*
X106700000Y-27390000D01*
%TO.C,J27*%
X138540001Y-39129999D02*
X143740001Y-39129999D01*
X138540001Y-33989999D02*
X138540001Y-39129999D01*
X138540001Y-33989999D02*
X141140001Y-33989999D01*
X138540001Y-31389999D02*
X139870001Y-31389999D01*
X141140001Y-31389999D02*
X143740001Y-31389999D01*
X143740001Y-31389999D02*
X143740001Y-39129999D01*
X138540001Y-32719999D02*
X138540001Y-31389999D01*
X141140001Y-33989999D02*
X141140001Y-31389999D01*
%TO.C,J24*%
X126420000Y-33990000D02*
X126420000Y-39130000D01*
X126420000Y-32720000D02*
X126420000Y-31390000D01*
X126420000Y-39130000D02*
X129080000Y-39130000D01*
X126420000Y-33990000D02*
X129080000Y-33990000D01*
X126420000Y-31390000D02*
X127750000Y-31390000D01*
X129080000Y-33990000D02*
X129080000Y-39130000D01*
%TO.C,J10*%
X73740000Y-57990000D02*
X73740000Y-55330000D01*
X66060000Y-57990000D02*
X66060000Y-55330000D01*
X63460000Y-57990000D02*
X63460000Y-56660000D01*
X64790000Y-57990000D02*
X63460000Y-57990000D01*
X66060000Y-55330000D02*
X73740000Y-55330000D01*
X66060000Y-57990000D02*
X73740000Y-57990000D01*
%TO.C,Y1*%
X39740000Y-62900000D02*
X36440000Y-62900000D01*
X36440000Y-62900000D02*
X36440000Y-66900000D01*
%TO.C,J29*%
X30440000Y-57990000D02*
X30440000Y-56660000D01*
X35640000Y-57990000D02*
X35640000Y-55330000D01*
X33040000Y-57990000D02*
X35640000Y-57990000D01*
X33040000Y-55330000D02*
X35640000Y-55330000D01*
X31770000Y-57990000D02*
X30440000Y-57990000D01*
X33040000Y-57990000D02*
X33040000Y-55330000D01*
%TO.C,J26*%
X133460001Y-33989999D02*
X133460001Y-39129999D01*
X133460001Y-33989999D02*
X136120001Y-33989999D01*
X133460001Y-32719999D02*
X133460001Y-31389999D01*
X133460001Y-39129999D02*
X136120001Y-39129999D01*
X133460001Y-31389999D02*
X134790001Y-31389999D01*
X136120001Y-33989999D02*
X136120001Y-39129999D01*
%TO.C,J7*%
X43140000Y-65010000D02*
X43140000Y-62410000D01*
X45800000Y-62410000D02*
X43140000Y-62410000D01*
X45800000Y-65010000D02*
X45800000Y-62410000D01*
X45800000Y-67610000D02*
X44470000Y-67610000D01*
X45800000Y-66280000D02*
X45800000Y-67610000D01*
X45800000Y-65010000D02*
X43140000Y-65010000D01*
%TO.C,J23*%
X105140000Y-65010000D02*
X102480000Y-65010000D01*
X105140000Y-62410000D02*
X102480000Y-62410000D01*
X105140000Y-67610000D02*
X103810000Y-67610000D01*
X102480000Y-65010000D02*
X102480000Y-62410000D01*
X105140000Y-65010000D02*
X105140000Y-62410000D01*
X105140000Y-66280000D02*
X105140000Y-67610000D01*
%TO.C,J28*%
X146160001Y-32719999D02*
X146160001Y-31389999D01*
X148820001Y-33989999D02*
X148820001Y-39129999D01*
X146160001Y-33989999D02*
X148820001Y-33989999D01*
X146160001Y-39129999D02*
X148820001Y-39129999D01*
X146160001Y-33989999D02*
X146160001Y-39129999D01*
X146160001Y-31389999D02*
X147490001Y-31389999D01*
%TO.C,J17*%
X116380000Y-33990000D02*
X116380000Y-39130000D01*
X113720000Y-33990000D02*
X113720000Y-39130000D01*
X113720000Y-39130000D02*
X116380000Y-39130000D01*
X113720000Y-32720000D02*
X113720000Y-31390000D01*
X113720000Y-33990000D02*
X116380000Y-33990000D01*
X113720000Y-31390000D02*
X115050000Y-31390000D01*
%TO.C,J19*%
X89780000Y-65010000D02*
X89780000Y-67610000D01*
X92440000Y-65010000D02*
X92440000Y-67610000D01*
X89780000Y-62410000D02*
X91110000Y-62410000D01*
X89780000Y-65010000D02*
X92440000Y-65010000D01*
X89780000Y-63740000D02*
X89780000Y-62410000D01*
X89780000Y-67610000D02*
X92440000Y-67610000D01*
%TO.C,J15*%
X113570000Y-58310001D02*
X116230000Y-58310001D01*
X116230000Y-58310001D02*
X116230000Y-65990001D01*
X113570000Y-58310001D02*
X113570000Y-65990001D01*
X113570000Y-65990001D02*
X116230000Y-65990001D01*
X113570000Y-55710001D02*
X114900000Y-55710001D01*
X113570000Y-57040001D02*
X113570000Y-55710001D01*
D13*
%TO.C,IC2*%
X118305000Y-58030001D02*
X119355000Y-58030001D01*
X120255000Y-61040001D02*
X119705000Y-61040001D01*
X119705000Y-58120001D02*
X120255000Y-58120001D01*
X119705000Y-61040001D02*
X119705000Y-58120001D01*
X120255000Y-58120001D02*
X120255000Y-61040001D01*
D12*
%TO.C,J16*%
X116340000Y-46150000D02*
X116340000Y-51290000D01*
X113680000Y-51290000D02*
X116340000Y-51290000D01*
X113680000Y-46150000D02*
X116340000Y-46150000D01*
X113680000Y-46150000D02*
X113680000Y-51290000D01*
X113680000Y-44880000D02*
X113680000Y-43550000D01*
X113680000Y-43550000D02*
X115010000Y-43550000D01*
D13*
%TO.C,IC3*%
X122795000Y-66120001D02*
X122245000Y-66120001D01*
X122245000Y-63200001D02*
X122795000Y-63200001D01*
X122795000Y-63200001D02*
X122795000Y-66120001D01*
X120845000Y-63110001D02*
X121895000Y-63110001D01*
X122245000Y-66120001D02*
X122245000Y-63200001D01*
D12*
%TO.C,U2*%
X121230000Y-49020000D02*
X120430000Y-49020000D01*
X121230000Y-49020000D02*
X122030000Y-49020000D01*
X121230000Y-45900000D02*
X122030000Y-45900000D01*
X121230000Y-45900000D02*
X119430000Y-45900000D01*
%TO.C,J21*%
X126270000Y-59580001D02*
X126270000Y-58250001D01*
X128930000Y-60850001D02*
X128930000Y-63450001D01*
X126270000Y-60850001D02*
X128930000Y-60850001D01*
X126270000Y-58250001D02*
X127600000Y-58250001D01*
X126270000Y-63450001D02*
X128930000Y-63450001D01*
X126270000Y-60850001D02*
X126270000Y-63450001D01*
%TO.C,J20*%
X129040000Y-48750000D02*
X127710000Y-48750000D01*
X129040000Y-46150000D02*
X129040000Y-43550000D01*
X129040000Y-46150000D02*
X126380000Y-46150000D01*
X129040000Y-47420000D02*
X129040000Y-48750000D01*
X129040000Y-43550000D02*
X126380000Y-43550000D01*
X126380000Y-46150000D02*
X126380000Y-43550000D01*
%TD*%
M02*
