%TF.GenerationSoftware,KiCad,Pcbnew,(6.0.2)*%
%TF.CreationDate,2022-03-22T07:30:25-04:00*%
%TF.ProjectId,Panel_Design_3,50616e65-6c5f-4446-9573-69676e5f332e,rev?*%
%TF.SameCoordinates,Original*%
%TF.FileFunction,Profile,NP*%
%FSLAX46Y46*%
G04 Gerber Fmt 4.6, Leading zero omitted, Abs format (unit mm)*
G04 Created by KiCad (PCBNEW (6.0.2)) date 2022-03-22 07:30:25*
%MOMM*%
%LPD*%
G01*
G04 APERTURE LIST*
%TA.AperFunction,Profile*%
%ADD10C,0.100000*%
%TD*%
G04 APERTURE END LIST*
D10*
X99980000Y-58960000D02*
G75*
G03*
X99980000Y-60960000I0J-1000000D01*
G01*
X143200000Y-40100000D02*
X146200000Y-40100000D01*
X67500001Y-66770000D02*
G75*
G03*
X70040000Y-68580000I2539999J877209D01*
G01*
X111070000Y-64420001D02*
G75*
G03*
X113610000Y-66960001I2540001J1D01*
G01*
X123460000Y-40100000D02*
X126460000Y-40100000D01*
X106680000Y-58960000D02*
G75*
G03*
X109220000Y-56420000I-1J2540001D01*
G01*
X130960000Y-50600000D02*
G75*
G03*
X128960000Y-50600000I-1000000J0D01*
G01*
X65500000Y-62770000D02*
G75*
G03*
X67500000Y-62770000I1000000J0D01*
G01*
X62960000Y-68580000D02*
G75*
G03*
X65500000Y-66770000I-4J2687216D01*
G01*
X33480000Y-60960000D02*
X30480000Y-60960000D01*
X116460000Y-42100000D02*
G75*
G03*
X116460000Y-40100000I0J1000000D01*
G01*
X109220000Y-31520000D02*
G75*
G03*
X111220000Y-31520000I1000000J0D01*
G01*
X111070000Y-56800001D02*
X111070000Y-64420001D01*
X130850000Y-56800001D02*
X130850000Y-57110001D01*
X30480000Y-60960000D02*
G75*
G03*
X27940000Y-63500000I1J-2540001D01*
G01*
X146200000Y-52260000D02*
G75*
G03*
X148740000Y-49720000I-1J2540001D01*
G01*
X62960000Y-60960000D02*
X59980000Y-60960000D01*
X136210000Y-54260000D02*
X133390000Y-54260001D01*
X130850000Y-64420001D02*
G75*
G03*
X133390000Y-66960001I2540001J1D01*
G01*
X113720000Y-52260000D02*
X116460000Y-52260000D01*
X126420000Y-52260000D02*
G75*
G03*
X128960000Y-50600000I-5J2773260D01*
G01*
X130960000Y-50600000D02*
G75*
G03*
X133500000Y-52260000I2539997J1113249D01*
G01*
X59980000Y-58960000D02*
X72980000Y-58960000D01*
X30480000Y-58960000D02*
X33480000Y-58960000D01*
X148630001Y-64420002D02*
X148630001Y-56800000D01*
X109220000Y-31520000D02*
X109220000Y-28480000D01*
X123460000Y-52260000D02*
G75*
G03*
X123460000Y-54260000I0J-1000000D01*
G01*
X111220000Y-38520000D02*
G75*
G03*
X109220000Y-38520000I-1000000J0D01*
G01*
X106680000Y-58960000D02*
X99980000Y-58960000D01*
X126420000Y-52260000D02*
X123460000Y-52260000D01*
X27940000Y-66040000D02*
G75*
G03*
X30480000Y-68580000I2540001J1D01*
G01*
X133390000Y-66960001D02*
X146090001Y-66960002D01*
X113720000Y-42100000D02*
G75*
G03*
X111220000Y-43600000I0J-2833333D01*
G01*
X113760000Y-29940000D02*
G75*
G03*
X111220000Y-31520000I2J-2831649D01*
G01*
X126419999Y-42100000D02*
X123460000Y-42100000D01*
X146090001Y-54260000D02*
X143210000Y-54260000D01*
X89820000Y-60959999D02*
G75*
G03*
X87280000Y-62770000I0J-2687210D01*
G01*
X109220000Y-38520000D02*
X109220000Y-43600000D01*
X128960000Y-43600000D02*
G75*
G03*
X126419999Y-42100000I-2540007J-1400545D01*
G01*
X146090001Y-66960002D02*
G75*
G03*
X148630001Y-64420002I-1J2540001D01*
G01*
X40480000Y-58960000D02*
X52980000Y-58960000D01*
X136210000Y-54260000D02*
G75*
G03*
X136210000Y-52260000I0J1000000D01*
G01*
X70040000Y-68580000D02*
X82740000Y-68580000D01*
X133500000Y-42100000D02*
G75*
G03*
X130960000Y-43600000I0J-2900533D01*
G01*
X133390000Y-54260001D02*
G75*
G03*
X130850000Y-56800001I1J-2540001D01*
G01*
X148740000Y-37559999D02*
X148740000Y-32479999D01*
X109220000Y-28480000D02*
G75*
G03*
X106680000Y-25940000I-2540001J-1D01*
G01*
X70040000Y-60959999D02*
G75*
G03*
X67500000Y-62770000I0J-2687210D01*
G01*
X130850000Y-64420001D02*
X130850001Y-64110001D01*
X113610000Y-54260001D02*
G75*
G03*
X111070000Y-56800001I1J-2540001D01*
G01*
X85280000Y-62770000D02*
G75*
G03*
X87280000Y-62770000I1000000J0D01*
G01*
X47720000Y-66770000D02*
G75*
G03*
X45720000Y-66770000I-1000000J0D01*
G01*
X45720000Y-62770000D02*
G75*
G03*
X43180000Y-60960000I-2540007J-877219D01*
G01*
X72980000Y-60960000D02*
G75*
G03*
X72980000Y-58960000I0J1000000D01*
G01*
X128960000Y-43600000D02*
G75*
G03*
X130960000Y-43600000I1000000J0D01*
G01*
X148740000Y-32479998D02*
G75*
G03*
X146200000Y-29939998I-2540001J-1D01*
G01*
X136200000Y-42100000D02*
G75*
G03*
X136200000Y-40100000I0J1000000D01*
G01*
X52980000Y-60960000D02*
X50260000Y-60960000D01*
X143210000Y-52260000D02*
G75*
G03*
X143210000Y-54260000I0J-1000000D01*
G01*
X128850001Y-56800000D02*
G75*
G03*
X126310001Y-54260000I-2540001J-1D01*
G01*
X123460000Y-40100000D02*
G75*
G03*
X123460000Y-42100000I0J-1000000D01*
G01*
X146200000Y-29939999D02*
X133500000Y-29939999D01*
X126460000Y-40100000D02*
G75*
G03*
X128960000Y-38600000I-8J2833346D01*
G01*
X148740000Y-49720000D02*
X148740000Y-44640000D01*
X92980000Y-60960000D02*
X89820000Y-60960000D01*
X130960000Y-38600000D02*
G75*
G03*
X128960000Y-38600000I-1000000J0D01*
G01*
X111220000Y-50600000D02*
G75*
G03*
X109220000Y-50600000I-1000000J0D01*
G01*
X92980000Y-58960000D02*
X79980000Y-58960000D01*
X109220000Y-43600000D02*
G75*
G03*
X111220000Y-43600000I1000000J0D01*
G01*
X79980000Y-60960000D02*
X82740000Y-60960000D01*
X33480000Y-60960000D02*
G75*
G03*
X33480000Y-58960000I0J1000000D01*
G01*
X92980000Y-60960000D02*
G75*
G03*
X92980000Y-58960000I0J1000000D01*
G01*
X113760000Y-40100000D02*
X116460000Y-40100000D01*
X43180000Y-68580000D02*
G75*
G03*
X45720000Y-66770000I-4J2687216D01*
G01*
X50260000Y-68580000D02*
X62960000Y-68580000D01*
X111219999Y-50600000D02*
G75*
G03*
X113720000Y-52260000I2499999J1052528D01*
G01*
X59980000Y-58960000D02*
G75*
G03*
X59980000Y-60960000I0J-1000000D01*
G01*
X47720001Y-66770000D02*
G75*
G03*
X50260000Y-68580000I2539999J877209D01*
G01*
X52980000Y-60960000D02*
G75*
G03*
X52980000Y-58960000I0J1000000D01*
G01*
X148739999Y-44640000D02*
G75*
G03*
X146199999Y-42100000I-2540001J-1D01*
G01*
X27940000Y-63500000D02*
X27940000Y-66040000D01*
X126460000Y-29940000D02*
X113760000Y-29940000D01*
X82740000Y-68580000D02*
G75*
G03*
X85280000Y-66770000I-4J2687216D01*
G01*
X105060000Y-66040000D02*
X105060001Y-63499999D01*
X116460000Y-42100000D02*
X113720000Y-42100000D01*
X130960000Y-38600000D02*
G75*
G03*
X133500000Y-40100000I2540000J1400533D01*
G01*
X143210000Y-52260000D02*
X146200000Y-52260000D01*
X128850002Y-57110001D02*
G75*
G03*
X130850000Y-57110001I999999J0D01*
G01*
X111220000Y-38520000D02*
G75*
G03*
X113760000Y-40100000I2539999J1251644D01*
G01*
X128960000Y-31600000D02*
G75*
G03*
X130960000Y-31600000I1000000J0D01*
G01*
X113610000Y-66960001D02*
X126310001Y-66960002D01*
X126310001Y-66960002D02*
G75*
G03*
X128850001Y-64420002I-1J2540001D01*
G01*
X87280000Y-66770000D02*
G75*
G03*
X85280000Y-66770000I-1000000J0D01*
G01*
X99980000Y-60960000D02*
X102520001Y-60959999D01*
X133500000Y-52260000D02*
X136210000Y-52260000D01*
X79980000Y-58960000D02*
G75*
G03*
X79980000Y-60960000I0J-1000000D01*
G01*
X106680000Y-25940000D02*
X30480000Y-25940000D01*
X72980000Y-60960000D02*
X70040000Y-60960000D01*
X43180000Y-60960000D02*
X40480000Y-60960000D01*
X133500000Y-40100000D02*
X136200000Y-40100000D01*
X128850001Y-64420002D02*
X128850001Y-64110001D01*
X27940000Y-28480000D02*
X27940000Y-56420000D01*
X136200000Y-42100000D02*
X133500000Y-42100000D01*
X102520000Y-68580000D02*
G75*
G03*
X105060000Y-66040000I-1J2540001D01*
G01*
X116460000Y-54260000D02*
G75*
G03*
X116460000Y-52260000I0J1000000D01*
G01*
X130850001Y-64110001D02*
G75*
G03*
X128850001Y-64110001I-1000000J0D01*
G01*
X30480000Y-25940000D02*
G75*
G03*
X27940000Y-28480000I1J-2540001D01*
G01*
X65500000Y-62770000D02*
G75*
G03*
X62960000Y-60960000I-2540007J-877219D01*
G01*
X105060001Y-63499999D02*
G75*
G03*
X102520001Y-60959999I-2540001J-1D01*
G01*
X67500000Y-66770000D02*
G75*
G03*
X65500000Y-66770000I-1000000J0D01*
G01*
X133500000Y-29939999D02*
G75*
G03*
X130960000Y-31600000I0J-2773252D01*
G01*
X45720000Y-62770000D02*
G75*
G03*
X47720000Y-62770000I1000000J0D01*
G01*
X148630001Y-56800000D02*
G75*
G03*
X146090001Y-54260000I-2540001J-1D01*
G01*
X85280001Y-62770000D02*
G75*
G03*
X82740000Y-60960000I-2540009J-877222D01*
G01*
X87280001Y-66770000D02*
G75*
G03*
X89820000Y-68580000I2539999J877209D01*
G01*
X30480000Y-68580000D02*
X43180000Y-68580000D01*
X109220000Y-50600000D02*
X109220000Y-56420000D01*
X40480000Y-58960000D02*
G75*
G03*
X40480000Y-60960000I0J-1000000D01*
G01*
X116460000Y-54260000D02*
X113610000Y-54260001D01*
X143200000Y-40100000D02*
G75*
G03*
X143200000Y-42100000I0J-1000000D01*
G01*
X146200000Y-40100000D02*
G75*
G03*
X148740000Y-37560000I-1J2540001D01*
G01*
X128850001Y-56800000D02*
X128850002Y-57110001D01*
X123460000Y-54260000D02*
X126310001Y-54260000D01*
X50260000Y-60959999D02*
G75*
G03*
X47720000Y-62770000I0J-2687210D01*
G01*
X146199999Y-42100000D02*
X143200000Y-42100000D01*
X27940000Y-56420000D02*
G75*
G03*
X30480000Y-58960000I2540001J1D01*
G01*
X128960000Y-31600000D02*
G75*
G03*
X126460000Y-29940000I-2500008J-1052542D01*
G01*
X89820000Y-68580000D02*
X102520000Y-68580000D01*
M02*
