M48
INCH,TZ
T1C0.0197
T2C0.1570
%
G90
G05
T1
X14181Y-23406
X14181Y-23996
X14476Y-23406
X14476Y-23996
X14772Y-23406
X14772Y-23996
X15067Y-23406
X15067Y-23996
X15362Y-23406
X15362Y-23996
X15657Y-23406
X15657Y-23996
X15953Y-23406
X15953Y-23996
X18606Y-25299
X18606Y-25594
X18606Y-25890
X19197Y-25299
X19197Y-25594
X19197Y-25890
X21858Y-23406
X21858Y-23996
X22154Y-23406
X22154Y-23996
X22449Y-23406
X22449Y-23996
X22744Y-23406
X22744Y-23996
X23039Y-23406
X23039Y-23996
X23335Y-23406
X23335Y-23996
X23630Y-23406
X23630Y-23996
X26394Y-25299
X26394Y-25594
X26394Y-25890
X26984Y-25299
X26984Y-25594
X26984Y-25890
X29732Y-23406
X29732Y-23996
X30028Y-23406
X30028Y-23996
X30323Y-23406
X30323Y-23996
X30618Y-23406
X30618Y-23996
X30913Y-23406
X30913Y-23996
X31209Y-23406
X31209Y-23996
X31504Y-23406
X31504Y-23996
X34181Y-25299
X34181Y-25594
X34181Y-25890
X34772Y-25299
X34772Y-25594
X34772Y-25890
X37606Y-23406
X37606Y-23996
X37902Y-23406
X37902Y-23996
X38197Y-23406
X38197Y-23996
X38492Y-23406
X38492Y-23996
X38787Y-23406
X38787Y-23996
X39083Y-23406
X39083Y-23996
X39378Y-23406
X39378Y-23996
X43606Y-12996
X43606Y-13291
X43606Y-13587
X43606Y-13882
X43606Y-14177
X43606Y-14472
X43606Y-14768
X43606Y-17752
X43606Y-18047
X43606Y-18343
X43606Y-18638
X43606Y-18933
X43606Y-19228
X43606Y-19524
X44197Y-12996
X44197Y-13291
X44197Y-13587
X44197Y-13882
X44197Y-14177
X44197Y-14472
X44197Y-14768
X44197Y-17752
X44197Y-18047
X44197Y-18343
X44197Y-18638
X44197Y-18933
X44197Y-19228
X44197Y-19524
X46850Y-15980
X46850Y-16571
X46850Y-20768
X46850Y-21358
X47146Y-15980
X47146Y-16571
X47146Y-20768
X47146Y-21358
X47441Y-15980
X47441Y-16571
X47441Y-20768
X47441Y-21358
X47736Y-15980
X47736Y-16571
X47736Y-20768
X47736Y-21358
X48031Y-15980
X48031Y-16571
X48031Y-20768
X48031Y-21358
X48327Y-15980
X48327Y-16571
X48327Y-20768
X48327Y-21358
X48622Y-15980
X48622Y-16571
X48622Y-20768
X48622Y-21358
X51335Y-23071
X51335Y-23366
X51335Y-23661
X51335Y-23957
X51335Y-24252
X51335Y-24547
X51335Y-24843
X51378Y-13028
X51378Y-13323
X51378Y-13618
X51378Y-13913
X51378Y-14209
X51378Y-14504
X51378Y-14799
X51378Y-17752
X51378Y-18047
X51378Y-18343
X51378Y-18638
X51378Y-18933
X51378Y-19228
X51378Y-19524
X51925Y-23071
X51925Y-23366
X51925Y-23661
X51925Y-23957
X51925Y-24252
X51925Y-24547
X51925Y-24843
X51969Y-13028
X51969Y-13323
X51969Y-13618
X51969Y-13913
X51969Y-14209
X51969Y-14504
X51969Y-14799
X51969Y-17752
X51969Y-18047
X51969Y-18343
X51969Y-18638
X51969Y-18933
X51969Y-19228
X51969Y-19524
X54622Y-15980
X54622Y-16571
X54626Y-20768
X54626Y-21358
X54917Y-15980
X54917Y-16571
X54921Y-20768
X54921Y-21358
X55213Y-15980
X55213Y-16571
X55217Y-20768
X55217Y-21358
X55508Y-15980
X55508Y-16571
X55512Y-20768
X55512Y-21358
X55803Y-15980
X55803Y-16571
X55807Y-20768
X55807Y-21358
X56098Y-15980
X56098Y-16571
X56102Y-20768
X56102Y-21358
X56394Y-15980
X56394Y-16571
X56398Y-20768
X56398Y-21358
T2
X15972Y-16882
X23508Y-16882
X31169Y-16882
X38768Y-16882
T0
M30
