M48
INCH,TZ
T1C0.0197
T2C0.1570
%
G90
G05
T1
X13673Y-23311
X13673Y-23902
X13969Y-23311
X13969Y-23902
X14264Y-23311
X14264Y-23902
X14559Y-23311
X14559Y-23902
X14854Y-23311
X14854Y-23902
X15150Y-23311
X15150Y-23902
X15445Y-23311
X15445Y-23902
X18098Y-25205
X18098Y-25500
X18098Y-25795
X18689Y-25205
X18689Y-25500
X18689Y-25795
X21350Y-23311
X21350Y-23902
X21646Y-23311
X21646Y-23902
X21941Y-23311
X21941Y-23902
X22236Y-23311
X22236Y-23902
X22531Y-23311
X22531Y-23902
X22827Y-23311
X22827Y-23902
X23122Y-23311
X23122Y-23902
X25886Y-25205
X25886Y-25500
X25886Y-25795
X26476Y-25205
X26476Y-25500
X26476Y-25795
X29224Y-23311
X29224Y-23902
X29520Y-23311
X29520Y-23902
X29815Y-23311
X29815Y-23902
X30110Y-23311
X30110Y-23902
X30406Y-23311
X30406Y-23902
X30701Y-23311
X30701Y-23902
X30996Y-23311
X30996Y-23902
X33673Y-25205
X33673Y-25500
X33673Y-25795
X34264Y-25205
X34264Y-25500
X34264Y-25795
X37098Y-23311
X37098Y-23902
X37394Y-23311
X37394Y-23902
X37689Y-23311
X37689Y-23902
X37984Y-23311
X37984Y-23902
X38280Y-23311
X38280Y-23902
X38575Y-23311
X38575Y-23902
X38870Y-23311
X38870Y-23902
X43098Y-12902
X43098Y-13197
X43098Y-13492
X43098Y-13787
X43098Y-14083
X43098Y-14378
X43098Y-14673
X43098Y-17657
X43098Y-17953
X43098Y-18248
X43098Y-18543
X43098Y-18839
X43098Y-19134
X43098Y-19429
X43689Y-12902
X43689Y-13197
X43689Y-13492
X43689Y-13787
X43689Y-14083
X43689Y-14378
X43689Y-14673
X43689Y-17657
X43689Y-17953
X43689Y-18248
X43689Y-18543
X43689Y-18839
X43689Y-19134
X43689Y-19429
X46343Y-15886
X46343Y-16476
X46343Y-20673
X46343Y-21264
X46638Y-15886
X46638Y-16476
X46638Y-20673
X46638Y-21264
X46933Y-15886
X46933Y-16476
X46933Y-20673
X46933Y-21264
X47228Y-15886
X47228Y-16476
X47228Y-20673
X47228Y-21264
X47524Y-15886
X47524Y-16476
X47524Y-20673
X47524Y-21264
X47819Y-15886
X47819Y-16476
X47819Y-20673
X47819Y-21264
X48114Y-15886
X48114Y-16476
X48114Y-20673
X48114Y-21264
X50827Y-22976
X50827Y-23272
X50827Y-23567
X50827Y-23862
X50827Y-24157
X50827Y-24453
X50827Y-24748
X50870Y-12933
X50870Y-13228
X50870Y-13524
X50870Y-13819
X50870Y-14114
X50870Y-14409
X50870Y-14705
X50870Y-17657
X50870Y-17953
X50870Y-18248
X50870Y-18543
X50870Y-18839
X50870Y-19134
X50870Y-19429
X51417Y-22976
X51417Y-23272
X51417Y-23567
X51417Y-23862
X51417Y-24157
X51417Y-24453
X51417Y-24748
X51461Y-12933
X51461Y-13228
X51461Y-13524
X51461Y-13819
X51461Y-14114
X51461Y-14409
X51461Y-14705
X51461Y-17657
X51461Y-17953
X51461Y-18248
X51461Y-18543
X51461Y-18839
X51461Y-19134
X51461Y-19429
X54114Y-15886
X54114Y-16476
X54118Y-20673
X54118Y-21264
X54409Y-15886
X54409Y-16476
X54413Y-20673
X54413Y-21264
X54705Y-15886
X54705Y-16476
X54709Y-20673
X54709Y-21264
X55000Y-15886
X55000Y-16476
X55004Y-20673
X55004Y-21264
X55295Y-15886
X55295Y-16476
X55299Y-20673
X55299Y-21264
X55591Y-15886
X55591Y-16476
X55594Y-20673
X55594Y-21264
X55886Y-15886
X55886Y-16476
X55890Y-20673
X55890Y-21264
T2
X15465Y-16787
X23000Y-16787
X30661Y-16787
X38260Y-16787
T0
M30
