%TF.GenerationSoftware,KiCad,Pcbnew,(6.0.2)*%
%TF.CreationDate,2022-03-22T07:30:25-04:00*%
%TF.ProjectId,Panel_Design_3,50616e65-6c5f-4446-9573-69676e5f332e,rev?*%
%TF.SameCoordinates,Original*%
%TF.FileFunction,Legend,Top*%
%TF.FilePolarity,Positive*%
%FSLAX46Y46*%
G04 Gerber Fmt 4.6, Leading zero omitted, Abs format (unit mm)*
G04 Created by KiCad (PCBNEW (6.0.2)) date 2022-03-22 07:30:25*
%MOMM*%
%LPD*%
G01*
G04 APERTURE LIST*
%ADD10C,0.150000*%
%ADD11C,0.100000*%
%ADD12C,0.120000*%
%ADD13C,0.200000*%
G04 APERTURE END LIST*
D10*
X60610476Y-63285714D02*
X60610476Y-63952380D01*
X60372380Y-62904761D02*
X60134285Y-63619047D01*
X60753333Y-63619047D01*
X65617619Y-31305714D02*
X65570000Y-31258095D01*
X65522380Y-31162857D01*
X65522380Y-30924761D01*
X65570000Y-30829523D01*
X65617619Y-30781904D01*
X65712857Y-30734285D01*
X65808095Y-30734285D01*
X65950952Y-30781904D01*
X66522380Y-31353333D01*
X66522380Y-30734285D01*
X124070476Y-46965714D02*
X124070476Y-47632380D01*
X123832380Y-46584761D02*
X123594285Y-47299047D01*
X124213333Y-47299047D01*
X116435714Y-62332381D02*
X115864285Y-62332381D01*
X116150000Y-62332381D02*
X116150000Y-61332381D01*
X116054761Y-61475239D01*
X115959523Y-61570477D01*
X115864285Y-61618096D01*
X136325714Y-45092380D02*
X135754285Y-45092380D01*
X136040000Y-45092380D02*
X136040000Y-44092380D01*
X135944761Y-44235238D01*
X135849523Y-44330476D01*
X135754285Y-44378095D01*
X136215714Y-62332381D02*
X135644285Y-62332381D01*
X135930000Y-62332381D02*
X135930000Y-61332381D01*
X135834761Y-61475239D01*
X135739523Y-61570477D01*
X135644285Y-61618096D01*
X72865714Y-63952380D02*
X72294285Y-63952380D01*
X72580000Y-63952380D02*
X72580000Y-62952380D01*
X72484761Y-63095238D01*
X72389523Y-63190476D01*
X72294285Y-63238095D01*
X53085714Y-63952380D02*
X52514285Y-63952380D01*
X52800000Y-63952380D02*
X52800000Y-62952380D01*
X52704761Y-63095238D01*
X52609523Y-63190476D01*
X52514285Y-63238095D01*
X115864285Y-58887620D02*
X115911904Y-58840001D01*
X116007142Y-58792381D01*
X116245238Y-58792381D01*
X116340476Y-58840001D01*
X116388095Y-58887620D01*
X116435714Y-58982858D01*
X116435714Y-59078096D01*
X116388095Y-59220953D01*
X115816666Y-59792381D01*
X116435714Y-59792381D01*
X116545714Y-45092380D02*
X115974285Y-45092380D01*
X116260000Y-45092380D02*
X116260000Y-44092380D01*
X116164761Y-44235238D01*
X116069523Y-44330476D01*
X115974285Y-44378095D01*
X100170476Y-63285714D02*
X100170476Y-63952380D01*
X99932380Y-62904761D02*
X99694285Y-63619047D01*
X100313333Y-63619047D01*
X61412380Y-56134285D02*
X61412380Y-56705714D01*
X61412380Y-56420000D02*
X60412380Y-56420000D01*
X60555238Y-56515238D01*
X60650476Y-56610476D01*
X60698095Y-56705714D01*
X124110476Y-32265714D02*
X124110476Y-32932380D01*
X123872380Y-31884761D02*
X123634285Y-32599047D01*
X124253333Y-32599047D01*
X116435714Y-57252381D02*
X115864285Y-57252381D01*
X116150000Y-57252381D02*
X116150000Y-56252381D01*
X116054761Y-56395239D01*
X115959523Y-56490477D01*
X115864285Y-56538096D01*
X135754286Y-34567618D02*
X135801905Y-34519999D01*
X135897143Y-34472379D01*
X136135239Y-34472379D01*
X136230477Y-34519999D01*
X136278096Y-34567618D01*
X136325715Y-34662856D01*
X136325715Y-34758094D01*
X136278096Y-34900951D01*
X135706667Y-35472379D01*
X136325715Y-35472379D01*
X143216666Y-61332381D02*
X143835714Y-61332381D01*
X143502380Y-61713334D01*
X143645238Y-61713334D01*
X143740476Y-61760953D01*
X143788095Y-61808572D01*
X143835714Y-61903810D01*
X143835714Y-62141905D01*
X143788095Y-62237143D01*
X143740476Y-62284762D01*
X143645238Y-62332381D01*
X143359523Y-62332381D01*
X143264285Y-62284762D01*
X143216666Y-62237143D01*
X116585714Y-32932380D02*
X116014285Y-32932380D01*
X116300000Y-32932380D02*
X116300000Y-31932380D01*
X116204761Y-32075238D01*
X116109523Y-32170476D01*
X116014285Y-32218095D01*
X143898096Y-34472379D02*
X143421905Y-34472379D01*
X143374286Y-34948570D01*
X143421905Y-34900951D01*
X143517143Y-34853332D01*
X143755239Y-34853332D01*
X143850477Y-34900951D01*
X143898096Y-34948570D01*
X143945715Y-35043808D01*
X143945715Y-35281903D01*
X143898096Y-35377141D01*
X143850477Y-35424760D01*
X143755239Y-35472379D01*
X143517143Y-35472379D01*
X143421905Y-35424760D01*
X143374286Y-35377141D01*
X116014285Y-34567619D02*
X116061904Y-34520000D01*
X116157142Y-34472380D01*
X116395238Y-34472380D01*
X116490476Y-34520000D01*
X116538095Y-34567619D01*
X116585714Y-34662857D01*
X116585714Y-34758095D01*
X116538095Y-34900952D01*
X115966666Y-35472380D01*
X116585714Y-35472380D01*
X143850477Y-32265713D02*
X143850477Y-32932379D01*
X143612381Y-31884760D02*
X143374286Y-32599046D01*
X143993334Y-32599046D01*
X143898095Y-44092380D02*
X143421904Y-44092380D01*
X143374285Y-44568571D01*
X143421904Y-44520952D01*
X143517142Y-44473333D01*
X143755238Y-44473333D01*
X143850476Y-44520952D01*
X143898095Y-44568571D01*
X143945714Y-44663809D01*
X143945714Y-44901904D01*
X143898095Y-44997142D01*
X143850476Y-45044761D01*
X143755238Y-45092380D01*
X143517142Y-45092380D01*
X143421904Y-45044761D01*
X143374285Y-44997142D01*
X74112380Y-56134285D02*
X74112380Y-56705714D01*
X74112380Y-56420000D02*
X73112380Y-56420000D01*
X73255238Y-56515238D01*
X73350476Y-56610476D01*
X73398095Y-56705714D01*
X60086666Y-65492380D02*
X60705714Y-65492380D01*
X60372380Y-65873333D01*
X60515238Y-65873333D01*
X60610476Y-65920952D01*
X60658095Y-65968571D01*
X60705714Y-66063809D01*
X60705714Y-66301904D01*
X60658095Y-66397142D01*
X60610476Y-66444761D01*
X60515238Y-66492380D01*
X60229523Y-66492380D01*
X60134285Y-66444761D01*
X60086666Y-66397142D01*
X124158095Y-34472380D02*
X123681904Y-34472380D01*
X123634285Y-34948571D01*
X123681904Y-34900952D01*
X123777142Y-34853333D01*
X124015238Y-34853333D01*
X124110476Y-34900952D01*
X124158095Y-34948571D01*
X124205714Y-35043809D01*
X124205714Y-35281904D01*
X124158095Y-35377142D01*
X124110476Y-35424761D01*
X124015238Y-35472380D01*
X123777142Y-35472380D01*
X123681904Y-35424761D01*
X123634285Y-35377142D01*
X79866666Y-65492380D02*
X80485714Y-65492380D01*
X80152380Y-65873333D01*
X80295238Y-65873333D01*
X80390476Y-65920952D01*
X80438095Y-65968571D01*
X80485714Y-66063809D01*
X80485714Y-66301904D01*
X80438095Y-66397142D01*
X80390476Y-66444761D01*
X80295238Y-66492380D01*
X80009523Y-66492380D01*
X79914285Y-66444761D01*
X79866666Y-66397142D01*
X124118095Y-44092380D02*
X123641904Y-44092380D01*
X123594285Y-44568571D01*
X123641904Y-44520952D01*
X123737142Y-44473333D01*
X123975238Y-44473333D01*
X124070476Y-44520952D01*
X124118095Y-44568571D01*
X124165714Y-44663809D01*
X124165714Y-44901904D01*
X124118095Y-44997142D01*
X124070476Y-45044761D01*
X123975238Y-45092380D01*
X123737142Y-45092380D01*
X123641904Y-45044761D01*
X123594285Y-44997142D01*
X115966666Y-37012380D02*
X116585714Y-37012380D01*
X116252380Y-37393333D01*
X116395238Y-37393333D01*
X116490476Y-37440952D01*
X116538095Y-37488571D01*
X116585714Y-37583809D01*
X116585714Y-37821904D01*
X116538095Y-37917142D01*
X116490476Y-37964761D01*
X116395238Y-38012380D01*
X116109523Y-38012380D01*
X116014285Y-37964761D01*
X115966666Y-37917142D01*
X123610476Y-37012380D02*
X123420000Y-37012380D01*
X123324761Y-37060000D01*
X123277142Y-37107619D01*
X123181904Y-37250476D01*
X123134285Y-37440952D01*
X123134285Y-37821904D01*
X123181904Y-37917142D01*
X123229523Y-37964761D01*
X123324761Y-38012380D01*
X123515238Y-38012380D01*
X123610476Y-37964761D01*
X123658095Y-37917142D01*
X123705714Y-37821904D01*
X123705714Y-37583809D01*
X123658095Y-37488571D01*
X123610476Y-37440952D01*
X123515238Y-37393333D01*
X123324761Y-37393333D01*
X123229523Y-37440952D01*
X123181904Y-37488571D01*
X123134285Y-37583809D01*
X124658095Y-37060000D02*
X124562857Y-37012380D01*
X124420000Y-37012380D01*
X124277142Y-37060000D01*
X124181904Y-37155238D01*
X124134285Y-37250476D01*
X124086666Y-37440952D01*
X124086666Y-37583809D01*
X124134285Y-37774285D01*
X124181904Y-37869523D01*
X124277142Y-37964761D01*
X124420000Y-38012380D01*
X124515238Y-38012380D01*
X124658095Y-37964761D01*
X124705714Y-37917142D01*
X124705714Y-37583809D01*
X124515238Y-37583809D01*
X135706666Y-49172380D02*
X136325714Y-49172380D01*
X135992380Y-49553333D01*
X136135238Y-49553333D01*
X136230476Y-49600952D01*
X136278095Y-49648571D01*
X136325714Y-49743809D01*
X136325714Y-49981904D01*
X136278095Y-50077142D01*
X136230476Y-50124761D01*
X136135238Y-50172380D01*
X135849523Y-50172380D01*
X135754285Y-50124761D01*
X135706666Y-50077142D01*
X135644285Y-63967620D02*
X135691904Y-63920001D01*
X135787142Y-63872381D01*
X136025238Y-63872381D01*
X136120476Y-63920001D01*
X136168095Y-63967620D01*
X136215714Y-64062858D01*
X136215714Y-64158096D01*
X136168095Y-64300953D01*
X135596666Y-64872381D01*
X136215714Y-64872381D01*
X66492380Y-53594285D02*
X66492380Y-54165714D01*
X66492380Y-53880000D02*
X65492380Y-53880000D01*
X65635238Y-53975238D01*
X65730476Y-54070476D01*
X65778095Y-54165714D01*
X40830476Y-63285714D02*
X40830476Y-63952380D01*
X40592380Y-62904761D02*
X40354285Y-63619047D01*
X40973333Y-63619047D01*
X115864285Y-63967620D02*
X115911904Y-63920001D01*
X116007142Y-63872381D01*
X116245238Y-63872381D01*
X116340476Y-63920001D01*
X116388095Y-63967620D01*
X116435714Y-64062858D01*
X116435714Y-64158096D01*
X116388095Y-64300953D01*
X115816666Y-64872381D01*
X116435714Y-64872381D01*
X136215714Y-57252381D02*
X135644285Y-57252381D01*
X135930000Y-57252381D02*
X135930000Y-56252381D01*
X135834761Y-56395239D01*
X135739523Y-56490477D01*
X135644285Y-56538096D01*
X72294285Y-65587619D02*
X72341904Y-65540000D01*
X72437142Y-65492380D01*
X72675238Y-65492380D01*
X72770476Y-65540000D01*
X72818095Y-65587619D01*
X72865714Y-65682857D01*
X72865714Y-65778095D01*
X72818095Y-65920952D01*
X72246666Y-66492380D01*
X72865714Y-66492380D01*
X68157619Y-31305714D02*
X68110000Y-31258095D01*
X68062380Y-31162857D01*
X68062380Y-30924761D01*
X68110000Y-30829523D01*
X68157619Y-30781904D01*
X68252857Y-30734285D01*
X68348095Y-30734285D01*
X68490952Y-30781904D01*
X69062380Y-31353333D01*
X69062380Y-30734285D01*
X40306666Y-65492380D02*
X40925714Y-65492380D01*
X40592380Y-65873333D01*
X40735238Y-65873333D01*
X40830476Y-65920952D01*
X40878095Y-65968571D01*
X40925714Y-66063809D01*
X40925714Y-66301904D01*
X40878095Y-66397142D01*
X40830476Y-66444761D01*
X40735238Y-66492380D01*
X40449523Y-66492380D01*
X40354285Y-66444761D01*
X40306666Y-66397142D01*
X92074285Y-65587619D02*
X92121904Y-65540000D01*
X92217142Y-65492380D01*
X92455238Y-65492380D01*
X92550476Y-65540000D01*
X92598095Y-65587619D01*
X92645714Y-65682857D01*
X92645714Y-65778095D01*
X92598095Y-65920952D01*
X92026666Y-66492380D01*
X92645714Y-66492380D01*
X80390476Y-63285714D02*
X80390476Y-63952380D01*
X80152380Y-62904761D02*
X79914285Y-63619047D01*
X80533333Y-63619047D01*
X123436666Y-58792381D02*
X124055714Y-58792381D01*
X123722380Y-59173334D01*
X123865238Y-59173334D01*
X123960476Y-59220953D01*
X124008095Y-59268572D01*
X124055714Y-59363810D01*
X124055714Y-59601905D01*
X124008095Y-59697143D01*
X123960476Y-59744762D01*
X123865238Y-59792381D01*
X123579523Y-59792381D01*
X123484285Y-59744762D01*
X123436666Y-59697143D01*
X73207619Y-28765714D02*
X73160000Y-28718095D01*
X73112380Y-28622857D01*
X73112380Y-28384761D01*
X73160000Y-28289523D01*
X73207619Y-28241904D01*
X73302857Y-28194285D01*
X73398095Y-28194285D01*
X73540952Y-28241904D01*
X74112380Y-28813333D01*
X74112380Y-28194285D01*
X143850477Y-37012379D02*
X143660001Y-37012379D01*
X143564762Y-37059999D01*
X143517143Y-37107618D01*
X143421905Y-37250475D01*
X143374286Y-37440951D01*
X143374286Y-37821903D01*
X143421905Y-37917141D01*
X143469524Y-37964760D01*
X143564762Y-38012379D01*
X143755239Y-38012379D01*
X143850477Y-37964760D01*
X143898096Y-37917141D01*
X143945715Y-37821903D01*
X143945715Y-37583808D01*
X143898096Y-37488570D01*
X143850477Y-37440951D01*
X143755239Y-37393332D01*
X143564762Y-37393332D01*
X143469524Y-37440951D01*
X143421905Y-37488570D01*
X143374286Y-37583808D01*
X135254285Y-46727619D02*
X135301904Y-46680000D01*
X135397142Y-46632380D01*
X135635238Y-46632380D01*
X135730476Y-46680000D01*
X135778095Y-46727619D01*
X135825714Y-46822857D01*
X135825714Y-46918095D01*
X135778095Y-47060952D01*
X135206666Y-47632380D01*
X135825714Y-47632380D01*
X136778095Y-46680000D02*
X136682857Y-46632380D01*
X136540000Y-46632380D01*
X136397142Y-46680000D01*
X136301904Y-46775238D01*
X136254285Y-46870476D01*
X136206666Y-47060952D01*
X136206666Y-47203809D01*
X136254285Y-47394285D01*
X136301904Y-47489523D01*
X136397142Y-47584761D01*
X136540000Y-47632380D01*
X136635238Y-47632380D01*
X136778095Y-47584761D01*
X136825714Y-47537142D01*
X136825714Y-47203809D01*
X136635238Y-47203809D01*
X135706667Y-37012379D02*
X136325715Y-37012379D01*
X135992381Y-37393332D01*
X136135239Y-37393332D01*
X136230477Y-37440951D01*
X136278096Y-37488570D01*
X136325715Y-37583808D01*
X136325715Y-37821903D01*
X136278096Y-37917141D01*
X136230477Y-37964760D01*
X136135239Y-38012379D01*
X135849524Y-38012379D01*
X135754286Y-37964760D01*
X135706667Y-37917141D01*
X143216666Y-58792381D02*
X143835714Y-58792381D01*
X143502380Y-59173334D01*
X143645238Y-59173334D01*
X143740476Y-59220953D01*
X143788095Y-59268572D01*
X143835714Y-59363810D01*
X143835714Y-59601905D01*
X143788095Y-59697143D01*
X143740476Y-59744762D01*
X143645238Y-59792381D01*
X143359523Y-59792381D01*
X143264285Y-59744762D01*
X143216666Y-59697143D01*
X32734285Y-65587619D02*
X32781904Y-65540000D01*
X32877142Y-65492380D01*
X33115238Y-65492380D01*
X33210476Y-65540000D01*
X33258095Y-65587619D01*
X33305714Y-65682857D01*
X33305714Y-65778095D01*
X33258095Y-65920952D01*
X32686666Y-66492380D01*
X33305714Y-66492380D01*
X60507619Y-28765714D02*
X60460000Y-28718095D01*
X60412380Y-28622857D01*
X60412380Y-28384761D01*
X60460000Y-28289523D01*
X60507619Y-28241904D01*
X60602857Y-28194285D01*
X60698095Y-28194285D01*
X60840952Y-28241904D01*
X61412380Y-28813333D01*
X61412380Y-28194285D01*
X115474285Y-46727619D02*
X115521904Y-46680000D01*
X115617142Y-46632380D01*
X115855238Y-46632380D01*
X115950476Y-46680000D01*
X115998095Y-46727619D01*
X116045714Y-46822857D01*
X116045714Y-46918095D01*
X115998095Y-47060952D01*
X115426666Y-47632380D01*
X116045714Y-47632380D01*
X116998095Y-46680000D02*
X116902857Y-46632380D01*
X116760000Y-46632380D01*
X116617142Y-46680000D01*
X116521904Y-46775238D01*
X116474285Y-46870476D01*
X116426666Y-47060952D01*
X116426666Y-47203809D01*
X116474285Y-47394285D01*
X116521904Y-47489523D01*
X116617142Y-47584761D01*
X116760000Y-47632380D01*
X116855238Y-47632380D01*
X116998095Y-47584761D01*
X117045714Y-47537142D01*
X117045714Y-47203809D01*
X116855238Y-47203809D01*
X52514285Y-65587619D02*
X52561904Y-65540000D01*
X52657142Y-65492380D01*
X52895238Y-65492380D01*
X52990476Y-65540000D01*
X53038095Y-65587619D01*
X53085714Y-65682857D01*
X53085714Y-65778095D01*
X53038095Y-65920952D01*
X52466666Y-66492380D01*
X53085714Y-66492380D01*
X92145714Y-63952380D02*
X91574285Y-63952380D01*
X91860000Y-63952380D02*
X91860000Y-62952380D01*
X91764761Y-63095238D01*
X91669523Y-63190476D01*
X91574285Y-63238095D01*
X93098095Y-63000000D02*
X93002857Y-62952380D01*
X92860000Y-62952380D01*
X92717142Y-63000000D01*
X92621904Y-63095238D01*
X92574285Y-63190476D01*
X92526666Y-63380952D01*
X92526666Y-63523809D01*
X92574285Y-63714285D01*
X92621904Y-63809523D01*
X92717142Y-63904761D01*
X92860000Y-63952380D01*
X92955238Y-63952380D01*
X93098095Y-63904761D01*
X93145714Y-63857142D01*
X93145714Y-63523809D01*
X92955238Y-63523809D01*
X136325715Y-32932379D02*
X135754286Y-32932379D01*
X136040001Y-32932379D02*
X136040001Y-31932379D01*
X135944762Y-32075237D01*
X135849524Y-32170475D01*
X135754286Y-32218094D01*
X143850476Y-46965714D02*
X143850476Y-47632380D01*
X143612380Y-46584761D02*
X143374285Y-47299047D01*
X143993333Y-47299047D01*
X99646666Y-65492380D02*
X100265714Y-65492380D01*
X99932380Y-65873333D01*
X100075238Y-65873333D01*
X100170476Y-65920952D01*
X100218095Y-65968571D01*
X100265714Y-66063809D01*
X100265714Y-66301904D01*
X100218095Y-66397142D01*
X100170476Y-66444761D01*
X100075238Y-66492380D01*
X99789523Y-66492380D01*
X99694285Y-66444761D01*
X99646666Y-66397142D01*
X33305714Y-63952380D02*
X32734285Y-63952380D01*
X33020000Y-63952380D02*
X33020000Y-62952380D01*
X32924761Y-63095238D01*
X32829523Y-63190476D01*
X32734285Y-63238095D01*
X69032380Y-53594285D02*
X69032380Y-54165714D01*
X69032380Y-53880000D02*
X68032380Y-53880000D01*
X68175238Y-53975238D01*
X68270476Y-54070476D01*
X68318095Y-54165714D01*
X115926666Y-49172380D02*
X116545714Y-49172380D01*
X116212380Y-49553333D01*
X116355238Y-49553333D01*
X116450476Y-49600952D01*
X116498095Y-49648571D01*
X116545714Y-49743809D01*
X116545714Y-49981904D01*
X116498095Y-50077142D01*
X116450476Y-50124761D01*
X116355238Y-50172380D01*
X116069523Y-50172380D01*
X115974285Y-50124761D01*
X115926666Y-50077142D01*
X123436666Y-61332381D02*
X124055714Y-61332381D01*
X123722380Y-61713334D01*
X123865238Y-61713334D01*
X123960476Y-61760953D01*
X124008095Y-61808572D01*
X124055714Y-61903810D01*
X124055714Y-62141905D01*
X124008095Y-62237143D01*
X123960476Y-62284762D01*
X123865238Y-62332381D01*
X123579523Y-62332381D01*
X123484285Y-62284762D01*
X123436666Y-62237143D01*
X135644285Y-58887620D02*
X135691904Y-58840001D01*
X135787142Y-58792381D01*
X136025238Y-58792381D01*
X136120476Y-58840001D01*
X136168095Y-58887620D01*
X136215714Y-58982858D01*
X136215714Y-59078096D01*
X136168095Y-59220953D01*
X135596666Y-59792381D01*
X136215714Y-59792381D01*
%TO.C,U3*%
X91540000Y-62402380D02*
X91540000Y-61402380D01*
X91920952Y-61402380D01*
X92016190Y-61450000D01*
X92063809Y-61497619D01*
X92111428Y-61592857D01*
X92111428Y-61735714D01*
X92063809Y-61830952D01*
X92016190Y-61878571D01*
X91920952Y-61926190D01*
X91540000Y-61926190D01*
X93111428Y-62402380D02*
X92778095Y-61926190D01*
X92540000Y-62402380D02*
X92540000Y-61402380D01*
X92920952Y-61402380D01*
X93016190Y-61450000D01*
X93063809Y-61497619D01*
X93111428Y-61592857D01*
X93111428Y-61735714D01*
X93063809Y-61830952D01*
X93016190Y-61878571D01*
X92920952Y-61926190D01*
X92540000Y-61926190D01*
X93397142Y-61402380D02*
X93968571Y-61402380D01*
X93682857Y-62402380D02*
X93682857Y-61402380D01*
X94873333Y-62402380D02*
X94540000Y-61926190D01*
X94301904Y-62402380D02*
X94301904Y-61402380D01*
X94682857Y-61402380D01*
X94778095Y-61450000D01*
X94825714Y-61497619D01*
X94873333Y-61592857D01*
X94873333Y-61735714D01*
X94825714Y-61830952D01*
X94778095Y-61878571D01*
X94682857Y-61926190D01*
X94301904Y-61926190D01*
X95778095Y-61402380D02*
X95301904Y-61402380D01*
X95254285Y-61878571D01*
X95301904Y-61830952D01*
X95397142Y-61783333D01*
X95635238Y-61783333D01*
X95730476Y-61830952D01*
X95778095Y-61878571D01*
X95825714Y-61973809D01*
X95825714Y-62211904D01*
X95778095Y-62307142D01*
X95730476Y-62354761D01*
X95635238Y-62402380D01*
X95397142Y-62402380D01*
X95301904Y-62354761D01*
X95254285Y-62307142D01*
X96111428Y-61402380D02*
X96444761Y-62402380D01*
X96778095Y-61402380D01*
X97301904Y-61402380D02*
X97397142Y-61402380D01*
X97492380Y-61450000D01*
X97540000Y-61497619D01*
X97587619Y-61592857D01*
X97635238Y-61783333D01*
X97635238Y-62021428D01*
X97587619Y-62211904D01*
X97540000Y-62307142D01*
X97492380Y-62354761D01*
X97397142Y-62402380D01*
X97301904Y-62402380D01*
X97206666Y-62354761D01*
X97159047Y-62307142D01*
X97111428Y-62211904D01*
X97063809Y-62021428D01*
X97063809Y-61783333D01*
X97111428Y-61592857D01*
X97159047Y-61497619D01*
X97206666Y-61450000D01*
X97301904Y-61402380D01*
X98063809Y-61402380D02*
X98063809Y-62211904D01*
X98111428Y-62307142D01*
X98159047Y-62354761D01*
X98254285Y-62402380D01*
X98444761Y-62402380D01*
X98540000Y-62354761D01*
X98587619Y-62307142D01*
X98635238Y-62211904D01*
X98635238Y-61402380D01*
X99063809Y-61497619D02*
X99111428Y-61450000D01*
X99206666Y-61402380D01*
X99444761Y-61402380D01*
X99540000Y-61450000D01*
X99587619Y-61497619D01*
X99635238Y-61592857D01*
X99635238Y-61688095D01*
X99587619Y-61830952D01*
X99016190Y-62402380D01*
X99635238Y-62402380D01*
X99968571Y-61402380D02*
X100635238Y-62402380D01*
X100635238Y-61402380D02*
X99968571Y-62402380D01*
%TO.C,MX1*%
X42907380Y-43925714D02*
X41907380Y-43925714D01*
X42621666Y-43592380D01*
X41907380Y-43259047D01*
X42907380Y-43259047D01*
X41907380Y-42878095D02*
X42907380Y-42211428D01*
X41907380Y-42211428D02*
X42907380Y-42878095D01*
X42907380Y-41306666D02*
X42907380Y-41878095D01*
X42907380Y-41592380D02*
X41907380Y-41592380D01*
X42050238Y-41687619D01*
X42145476Y-41782857D01*
X42193095Y-41878095D01*
%TO.C,IC4*%
X141240476Y-56728572D02*
X141383333Y-56776191D01*
X141430952Y-56823810D01*
X141478571Y-56919048D01*
X141478571Y-57061905D01*
X141430952Y-57157143D01*
X141383333Y-57204762D01*
X141288095Y-57252381D01*
X140907142Y-57252381D01*
X140907142Y-56252381D01*
X141240476Y-56252381D01*
X141335714Y-56300001D01*
X141383333Y-56347620D01*
X141430952Y-56442858D01*
X141430952Y-56538096D01*
X141383333Y-56633334D01*
X141335714Y-56680953D01*
X141240476Y-56728572D01*
X140907142Y-56728572D01*
X141859523Y-57204762D02*
X142002380Y-57252381D01*
X142240476Y-57252381D01*
X142335714Y-57204762D01*
X142383333Y-57157143D01*
X142430952Y-57061905D01*
X142430952Y-56966667D01*
X142383333Y-56871429D01*
X142335714Y-56823810D01*
X142240476Y-56776191D01*
X142050000Y-56728572D01*
X141954761Y-56680953D01*
X141907142Y-56633334D01*
X141859523Y-56538096D01*
X141859523Y-56442858D01*
X141907142Y-56347620D01*
X141954761Y-56300001D01*
X142050000Y-56252381D01*
X142288095Y-56252381D01*
X142430952Y-56300001D01*
X142811904Y-57204762D02*
X142954761Y-57252381D01*
X143192857Y-57252381D01*
X143288095Y-57204762D01*
X143335714Y-57157143D01*
X143383333Y-57061905D01*
X143383333Y-56966667D01*
X143335714Y-56871429D01*
X143288095Y-56823810D01*
X143192857Y-56776191D01*
X143002380Y-56728572D01*
X142907142Y-56680953D01*
X142859523Y-56633334D01*
X142811904Y-56538096D01*
X142811904Y-56442858D01*
X142859523Y-56347620D01*
X142907142Y-56300001D01*
X143002380Y-56252381D01*
X143240476Y-56252381D01*
X143383333Y-56300001D01*
X144335714Y-57252381D02*
X143764285Y-57252381D01*
X144050000Y-57252381D02*
X144050000Y-56252381D01*
X143954761Y-56395239D01*
X143859523Y-56490477D01*
X143764285Y-56538096D01*
X144669047Y-56252381D02*
X145288095Y-56252381D01*
X144954761Y-56633334D01*
X145097619Y-56633334D01*
X145192857Y-56680953D01*
X145240476Y-56728572D01*
X145288095Y-56823810D01*
X145288095Y-57061905D01*
X145240476Y-57157143D01*
X145192857Y-57204762D01*
X145097619Y-57252381D01*
X144811904Y-57252381D01*
X144716666Y-57204762D01*
X144669047Y-57157143D01*
X145859523Y-56680953D02*
X145764285Y-56633334D01*
X145716666Y-56585715D01*
X145669047Y-56490477D01*
X145669047Y-56442858D01*
X145716666Y-56347620D01*
X145764285Y-56300001D01*
X145859523Y-56252381D01*
X146050000Y-56252381D01*
X146145238Y-56300001D01*
X146192857Y-56347620D01*
X146240476Y-56442858D01*
X146240476Y-56490477D01*
X146192857Y-56585715D01*
X146145238Y-56633334D01*
X146050000Y-56680953D01*
X145859523Y-56680953D01*
X145764285Y-56728572D01*
X145716666Y-56776191D01*
X145669047Y-56871429D01*
X145669047Y-57061905D01*
X145716666Y-57157143D01*
X145764285Y-57204762D01*
X145859523Y-57252381D01*
X146050000Y-57252381D01*
X146145238Y-57204762D01*
X146192857Y-57157143D01*
X146240476Y-57061905D01*
X146240476Y-56871429D01*
X146192857Y-56776191D01*
X146145238Y-56728572D01*
X146050000Y-56680953D01*
%TO.C,U2*%
X114987619Y-43186666D02*
X115463809Y-43186666D01*
X114892380Y-43472380D02*
X115225714Y-42472380D01*
X115559047Y-43472380D01*
X115892380Y-43472380D02*
X115892380Y-42472380D01*
X116273333Y-42472380D01*
X116368571Y-42520000D01*
X116416190Y-42567619D01*
X116463809Y-42662857D01*
X116463809Y-42805714D01*
X116416190Y-42900952D01*
X116368571Y-42948571D01*
X116273333Y-42996190D01*
X115892380Y-42996190D01*
X116844761Y-42567619D02*
X116892380Y-42520000D01*
X116987619Y-42472380D01*
X117225714Y-42472380D01*
X117320952Y-42520000D01*
X117368571Y-42567619D01*
X117416190Y-42662857D01*
X117416190Y-42758095D01*
X117368571Y-42900952D01*
X116797142Y-43472380D01*
X117416190Y-43472380D01*
X118368571Y-43472380D02*
X117797142Y-43472380D01*
X118082857Y-43472380D02*
X118082857Y-42472380D01*
X117987619Y-42615238D01*
X117892380Y-42710476D01*
X117797142Y-42758095D01*
X119320952Y-43472380D02*
X118749523Y-43472380D01*
X119035238Y-43472380D02*
X119035238Y-42472380D01*
X118940000Y-42615238D01*
X118844761Y-42710476D01*
X118749523Y-42758095D01*
X119701904Y-42567619D02*
X119749523Y-42520000D01*
X119844761Y-42472380D01*
X120082857Y-42472380D01*
X120178095Y-42520000D01*
X120225714Y-42567619D01*
X120273333Y-42662857D01*
X120273333Y-42758095D01*
X120225714Y-42900952D01*
X119654285Y-43472380D01*
X120273333Y-43472380D01*
X120701904Y-43472380D02*
X120701904Y-42472380D01*
X121273333Y-43472380D02*
X120844761Y-42900952D01*
X121273333Y-42472380D02*
X120701904Y-43043809D01*
X121701904Y-43091428D02*
X122463809Y-43091428D01*
X122844761Y-42472380D02*
X123463809Y-42472380D01*
X123130476Y-42853333D01*
X123273333Y-42853333D01*
X123368571Y-42900952D01*
X123416190Y-42948571D01*
X123463809Y-43043809D01*
X123463809Y-43281904D01*
X123416190Y-43377142D01*
X123368571Y-43424761D01*
X123273333Y-43472380D01*
X122987619Y-43472380D01*
X122892380Y-43424761D01*
X122844761Y-43377142D01*
X123892380Y-43377142D02*
X123940000Y-43424761D01*
X123892380Y-43472380D01*
X123844761Y-43424761D01*
X123892380Y-43377142D01*
X123892380Y-43472380D01*
X124273333Y-42472380D02*
X124892380Y-42472380D01*
X124559047Y-42853333D01*
X124701904Y-42853333D01*
X124797142Y-42900952D01*
X124844761Y-42948571D01*
X124892380Y-43043809D01*
X124892380Y-43281904D01*
X124844761Y-43377142D01*
X124797142Y-43424761D01*
X124701904Y-43472380D01*
X124416190Y-43472380D01*
X124320952Y-43424761D01*
X124273333Y-43377142D01*
%TO.C,IC2*%
X121460476Y-56728572D02*
X121603333Y-56776191D01*
X121650952Y-56823810D01*
X121698571Y-56919048D01*
X121698571Y-57061905D01*
X121650952Y-57157143D01*
X121603333Y-57204762D01*
X121508095Y-57252381D01*
X121127142Y-57252381D01*
X121127142Y-56252381D01*
X121460476Y-56252381D01*
X121555714Y-56300001D01*
X121603333Y-56347620D01*
X121650952Y-56442858D01*
X121650952Y-56538096D01*
X121603333Y-56633334D01*
X121555714Y-56680953D01*
X121460476Y-56728572D01*
X121127142Y-56728572D01*
X122079523Y-57204762D02*
X122222380Y-57252381D01*
X122460476Y-57252381D01*
X122555714Y-57204762D01*
X122603333Y-57157143D01*
X122650952Y-57061905D01*
X122650952Y-56966667D01*
X122603333Y-56871429D01*
X122555714Y-56823810D01*
X122460476Y-56776191D01*
X122270000Y-56728572D01*
X122174761Y-56680953D01*
X122127142Y-56633334D01*
X122079523Y-56538096D01*
X122079523Y-56442858D01*
X122127142Y-56347620D01*
X122174761Y-56300001D01*
X122270000Y-56252381D01*
X122508095Y-56252381D01*
X122650952Y-56300001D01*
X123031904Y-57204762D02*
X123174761Y-57252381D01*
X123412857Y-57252381D01*
X123508095Y-57204762D01*
X123555714Y-57157143D01*
X123603333Y-57061905D01*
X123603333Y-56966667D01*
X123555714Y-56871429D01*
X123508095Y-56823810D01*
X123412857Y-56776191D01*
X123222380Y-56728572D01*
X123127142Y-56680953D01*
X123079523Y-56633334D01*
X123031904Y-56538096D01*
X123031904Y-56442858D01*
X123079523Y-56347620D01*
X123127142Y-56300001D01*
X123222380Y-56252381D01*
X123460476Y-56252381D01*
X123603333Y-56300001D01*
X124555714Y-57252381D02*
X123984285Y-57252381D01*
X124270000Y-57252381D02*
X124270000Y-56252381D01*
X124174761Y-56395239D01*
X124079523Y-56490477D01*
X123984285Y-56538096D01*
X124889047Y-56252381D02*
X125508095Y-56252381D01*
X125174761Y-56633334D01*
X125317619Y-56633334D01*
X125412857Y-56680953D01*
X125460476Y-56728572D01*
X125508095Y-56823810D01*
X125508095Y-57061905D01*
X125460476Y-57157143D01*
X125412857Y-57204762D01*
X125317619Y-57252381D01*
X125031904Y-57252381D01*
X124936666Y-57204762D01*
X124889047Y-57157143D01*
X126079523Y-56680953D02*
X125984285Y-56633334D01*
X125936666Y-56585715D01*
X125889047Y-56490477D01*
X125889047Y-56442858D01*
X125936666Y-56347620D01*
X125984285Y-56300001D01*
X126079523Y-56252381D01*
X126270000Y-56252381D01*
X126365238Y-56300001D01*
X126412857Y-56347620D01*
X126460476Y-56442858D01*
X126460476Y-56490477D01*
X126412857Y-56585715D01*
X126365238Y-56633334D01*
X126270000Y-56680953D01*
X126079523Y-56680953D01*
X125984285Y-56728572D01*
X125936666Y-56776191D01*
X125889047Y-56871429D01*
X125889047Y-57061905D01*
X125936666Y-57157143D01*
X125984285Y-57204762D01*
X126079523Y-57252381D01*
X126270000Y-57252381D01*
X126365238Y-57204762D01*
X126412857Y-57157143D01*
X126460476Y-57061905D01*
X126460476Y-56871429D01*
X126412857Y-56776191D01*
X126365238Y-56728572D01*
X126270000Y-56680953D01*
%TO.C,MX2*%
X81507380Y-43925714D02*
X80507380Y-43925714D01*
X81221666Y-43592380D01*
X80507380Y-43259047D01*
X81507380Y-43259047D01*
X80507380Y-42878095D02*
X81507380Y-42211428D01*
X80507380Y-42211428D02*
X81507380Y-42878095D01*
X80602619Y-41878095D02*
X80555000Y-41830476D01*
X80507380Y-41735238D01*
X80507380Y-41497142D01*
X80555000Y-41401904D01*
X80602619Y-41354285D01*
X80697857Y-41306666D01*
X80793095Y-41306666D01*
X80935952Y-41354285D01*
X81507380Y-41925714D01*
X81507380Y-41306666D01*
%TO.C,MX4*%
X100807380Y-43925714D02*
X99807380Y-43925714D01*
X100521666Y-43592380D01*
X99807380Y-43259047D01*
X100807380Y-43259047D01*
X99807380Y-42878095D02*
X100807380Y-42211428D01*
X99807380Y-42211428D02*
X100807380Y-42878095D01*
X100140714Y-41401904D02*
X100807380Y-41401904D01*
X99759761Y-41640000D02*
X100474047Y-41878095D01*
X100474047Y-41259047D01*
%TO.C,U4*%
X134767619Y-43186666D02*
X135243809Y-43186666D01*
X134672380Y-43472380D02*
X135005714Y-42472380D01*
X135339047Y-43472380D01*
X135672380Y-43472380D02*
X135672380Y-42472380D01*
X136053333Y-42472380D01*
X136148571Y-42520000D01*
X136196190Y-42567619D01*
X136243809Y-42662857D01*
X136243809Y-42805714D01*
X136196190Y-42900952D01*
X136148571Y-42948571D01*
X136053333Y-42996190D01*
X135672380Y-42996190D01*
X136624761Y-42567619D02*
X136672380Y-42520000D01*
X136767619Y-42472380D01*
X137005714Y-42472380D01*
X137100952Y-42520000D01*
X137148571Y-42567619D01*
X137196190Y-42662857D01*
X137196190Y-42758095D01*
X137148571Y-42900952D01*
X136577142Y-43472380D01*
X137196190Y-43472380D01*
X138148571Y-43472380D02*
X137577142Y-43472380D01*
X137862857Y-43472380D02*
X137862857Y-42472380D01*
X137767619Y-42615238D01*
X137672380Y-42710476D01*
X137577142Y-42758095D01*
X139100952Y-43472380D02*
X138529523Y-43472380D01*
X138815238Y-43472380D02*
X138815238Y-42472380D01*
X138720000Y-42615238D01*
X138624761Y-42710476D01*
X138529523Y-42758095D01*
X139481904Y-42567619D02*
X139529523Y-42520000D01*
X139624761Y-42472380D01*
X139862857Y-42472380D01*
X139958095Y-42520000D01*
X140005714Y-42567619D01*
X140053333Y-42662857D01*
X140053333Y-42758095D01*
X140005714Y-42900952D01*
X139434285Y-43472380D01*
X140053333Y-43472380D01*
X140481904Y-43472380D02*
X140481904Y-42472380D01*
X141053333Y-43472380D02*
X140624761Y-42900952D01*
X141053333Y-42472380D02*
X140481904Y-43043809D01*
X141481904Y-43091428D02*
X142243809Y-43091428D01*
X142624761Y-42472380D02*
X143243809Y-42472380D01*
X142910476Y-42853333D01*
X143053333Y-42853333D01*
X143148571Y-42900952D01*
X143196190Y-42948571D01*
X143243809Y-43043809D01*
X143243809Y-43281904D01*
X143196190Y-43377142D01*
X143148571Y-43424761D01*
X143053333Y-43472380D01*
X142767619Y-43472380D01*
X142672380Y-43424761D01*
X142624761Y-43377142D01*
X143672380Y-43377142D02*
X143720000Y-43424761D01*
X143672380Y-43472380D01*
X143624761Y-43424761D01*
X143672380Y-43377142D01*
X143672380Y-43472380D01*
X144053333Y-42472380D02*
X144672380Y-42472380D01*
X144339047Y-42853333D01*
X144481904Y-42853333D01*
X144577142Y-42900952D01*
X144624761Y-42948571D01*
X144672380Y-43043809D01*
X144672380Y-43281904D01*
X144624761Y-43377142D01*
X144577142Y-43424761D01*
X144481904Y-43472380D01*
X144196190Y-43472380D01*
X144100952Y-43424761D01*
X144053333Y-43377142D01*
%TO.C,MX3*%
X62047380Y-43925714D02*
X61047380Y-43925714D01*
X61761666Y-43592380D01*
X61047380Y-43259047D01*
X62047380Y-43259047D01*
X61047380Y-42878095D02*
X62047380Y-42211428D01*
X61047380Y-42211428D02*
X62047380Y-42878095D01*
X61047380Y-41925714D02*
X61047380Y-41306666D01*
X61428333Y-41640000D01*
X61428333Y-41497142D01*
X61475952Y-41401904D01*
X61523571Y-41354285D01*
X61618809Y-41306666D01*
X61856904Y-41306666D01*
X61952142Y-41354285D01*
X61999761Y-41401904D01*
X62047380Y-41497142D01*
X62047380Y-41782857D01*
X61999761Y-41878095D01*
X61952142Y-41925714D01*
%TO.C,Y2*%
X54694285Y-62117142D02*
X54646666Y-62164761D01*
X54503809Y-62212380D01*
X54408571Y-62212380D01*
X54265714Y-62164761D01*
X54170476Y-62069523D01*
X54122857Y-61974285D01*
X54075238Y-61783809D01*
X54075238Y-61640952D01*
X54122857Y-61450476D01*
X54170476Y-61355238D01*
X54265714Y-61260000D01*
X54408571Y-61212380D01*
X54503809Y-61212380D01*
X54646666Y-61260000D01*
X54694285Y-61307619D01*
X55122857Y-62212380D02*
X55122857Y-61545714D01*
X55122857Y-61736190D02*
X55170476Y-61640952D01*
X55218095Y-61593333D01*
X55313333Y-61545714D01*
X55408571Y-61545714D01*
X55646666Y-61545714D02*
X55884761Y-62212380D01*
X56122857Y-61545714D02*
X55884761Y-62212380D01*
X55789523Y-62450476D01*
X55741904Y-62498095D01*
X55646666Y-62545714D01*
X56456190Y-62164761D02*
X56551428Y-62212380D01*
X56741904Y-62212380D01*
X56837142Y-62164761D01*
X56884761Y-62069523D01*
X56884761Y-62021904D01*
X56837142Y-61926666D01*
X56741904Y-61879047D01*
X56599047Y-61879047D01*
X56503809Y-61831428D01*
X56456190Y-61736190D01*
X56456190Y-61688571D01*
X56503809Y-61593333D01*
X56599047Y-61545714D01*
X56741904Y-61545714D01*
X56837142Y-61593333D01*
X57170476Y-61545714D02*
X57551428Y-61545714D01*
X57313333Y-61212380D02*
X57313333Y-62069523D01*
X57360952Y-62164761D01*
X57456190Y-62212380D01*
X57551428Y-62212380D01*
X58313333Y-62212380D02*
X58313333Y-61688571D01*
X58265714Y-61593333D01*
X58170476Y-61545714D01*
X57980000Y-61545714D01*
X57884761Y-61593333D01*
X58313333Y-62164761D02*
X58218095Y-62212380D01*
X57980000Y-62212380D01*
X57884761Y-62164761D01*
X57837142Y-62069523D01*
X57837142Y-61974285D01*
X57884761Y-61879047D01*
X57980000Y-61831428D01*
X58218095Y-61831428D01*
X58313333Y-61783809D01*
X58932380Y-62212380D02*
X58837142Y-62164761D01*
X58789523Y-62069523D01*
X58789523Y-61212380D01*
%TO.C,Y1*%
X34914285Y-62117142D02*
X34866666Y-62164761D01*
X34723809Y-62212380D01*
X34628571Y-62212380D01*
X34485714Y-62164761D01*
X34390476Y-62069523D01*
X34342857Y-61974285D01*
X34295238Y-61783809D01*
X34295238Y-61640952D01*
X34342857Y-61450476D01*
X34390476Y-61355238D01*
X34485714Y-61260000D01*
X34628571Y-61212380D01*
X34723809Y-61212380D01*
X34866666Y-61260000D01*
X34914285Y-61307619D01*
X35342857Y-62212380D02*
X35342857Y-61545714D01*
X35342857Y-61736190D02*
X35390476Y-61640952D01*
X35438095Y-61593333D01*
X35533333Y-61545714D01*
X35628571Y-61545714D01*
X35866666Y-61545714D02*
X36104761Y-62212380D01*
X36342857Y-61545714D02*
X36104761Y-62212380D01*
X36009523Y-62450476D01*
X35961904Y-62498095D01*
X35866666Y-62545714D01*
X36676190Y-62164761D02*
X36771428Y-62212380D01*
X36961904Y-62212380D01*
X37057142Y-62164761D01*
X37104761Y-62069523D01*
X37104761Y-62021904D01*
X37057142Y-61926666D01*
X36961904Y-61879047D01*
X36819047Y-61879047D01*
X36723809Y-61831428D01*
X36676190Y-61736190D01*
X36676190Y-61688571D01*
X36723809Y-61593333D01*
X36819047Y-61545714D01*
X36961904Y-61545714D01*
X37057142Y-61593333D01*
X37390476Y-61545714D02*
X37771428Y-61545714D01*
X37533333Y-61212380D02*
X37533333Y-62069523D01*
X37580952Y-62164761D01*
X37676190Y-62212380D01*
X37771428Y-62212380D01*
X38533333Y-62212380D02*
X38533333Y-61688571D01*
X38485714Y-61593333D01*
X38390476Y-61545714D01*
X38200000Y-61545714D01*
X38104761Y-61593333D01*
X38533333Y-62164761D02*
X38438095Y-62212380D01*
X38200000Y-62212380D01*
X38104761Y-62164761D01*
X38057142Y-62069523D01*
X38057142Y-61974285D01*
X38104761Y-61879047D01*
X38200000Y-61831428D01*
X38438095Y-61831428D01*
X38533333Y-61783809D01*
X39152380Y-62212380D02*
X39057142Y-62164761D01*
X39009523Y-62069523D01*
X39009523Y-61212380D01*
%TO.C,Y3*%
X74474285Y-62117142D02*
X74426666Y-62164761D01*
X74283809Y-62212380D01*
X74188571Y-62212380D01*
X74045714Y-62164761D01*
X73950476Y-62069523D01*
X73902857Y-61974285D01*
X73855238Y-61783809D01*
X73855238Y-61640952D01*
X73902857Y-61450476D01*
X73950476Y-61355238D01*
X74045714Y-61260000D01*
X74188571Y-61212380D01*
X74283809Y-61212380D01*
X74426666Y-61260000D01*
X74474285Y-61307619D01*
X74902857Y-62212380D02*
X74902857Y-61545714D01*
X74902857Y-61736190D02*
X74950476Y-61640952D01*
X74998095Y-61593333D01*
X75093333Y-61545714D01*
X75188571Y-61545714D01*
X75426666Y-61545714D02*
X75664761Y-62212380D01*
X75902857Y-61545714D02*
X75664761Y-62212380D01*
X75569523Y-62450476D01*
X75521904Y-62498095D01*
X75426666Y-62545714D01*
X76236190Y-62164761D02*
X76331428Y-62212380D01*
X76521904Y-62212380D01*
X76617142Y-62164761D01*
X76664761Y-62069523D01*
X76664761Y-62021904D01*
X76617142Y-61926666D01*
X76521904Y-61879047D01*
X76379047Y-61879047D01*
X76283809Y-61831428D01*
X76236190Y-61736190D01*
X76236190Y-61688571D01*
X76283809Y-61593333D01*
X76379047Y-61545714D01*
X76521904Y-61545714D01*
X76617142Y-61593333D01*
X76950476Y-61545714D02*
X77331428Y-61545714D01*
X77093333Y-61212380D02*
X77093333Y-62069523D01*
X77140952Y-62164761D01*
X77236190Y-62212380D01*
X77331428Y-62212380D01*
X78093333Y-62212380D02*
X78093333Y-61688571D01*
X78045714Y-61593333D01*
X77950476Y-61545714D01*
X77760000Y-61545714D01*
X77664761Y-61593333D01*
X78093333Y-62164761D02*
X77998095Y-62212380D01*
X77760000Y-62212380D01*
X77664761Y-62164761D01*
X77617142Y-62069523D01*
X77617142Y-61974285D01*
X77664761Y-61879047D01*
X77760000Y-61831428D01*
X77998095Y-61831428D01*
X78093333Y-61783809D01*
X78712380Y-62212380D02*
X78617142Y-62164761D01*
X78569523Y-62069523D01*
X78569523Y-61212380D01*
D11*
%TO.C,mouse-bite-2mm-slot*%
X52980000Y-60960000D02*
G75*
G03*
X52980000Y-58960000I0J1000000D01*
G01*
X59980000Y-58960000D02*
G75*
G03*
X59980000Y-60960000I0J-1000000D01*
G01*
D12*
%TO.C,J31*%
X104140000Y-57750000D02*
X102810000Y-57750000D01*
X105410000Y-57750000D02*
X105410000Y-55090000D01*
X102810000Y-57750000D02*
X102810000Y-56420000D01*
X108010000Y-57750000D02*
X108010000Y-55090000D01*
X105410000Y-55090000D02*
X108010000Y-55090000D01*
X105410000Y-57750000D02*
X108010000Y-57750000D01*
%TO.C,J10*%
X64770000Y-57750000D02*
X72450000Y-57750000D01*
X72450000Y-57750000D02*
X72450000Y-55090000D01*
X64770000Y-55090000D02*
X72450000Y-55090000D01*
X63500000Y-57750000D02*
X62170000Y-57750000D01*
X62170000Y-57750000D02*
X62170000Y-56420000D01*
X64770000Y-57750000D02*
X64770000Y-55090000D01*
D10*
%TO.C,U3*%
X95390000Y-65700000D02*
X96690000Y-65700000D01*
X96690000Y-62800000D02*
X96690000Y-65700000D01*
X95390000Y-62800000D02*
X95390000Y-65700000D01*
X96690000Y-62800000D02*
X95390000Y-62800000D01*
D12*
%TO.C,J13*%
X84070000Y-64770000D02*
X81410000Y-64770000D01*
X84070000Y-64770000D02*
X84070000Y-62170000D01*
X81410000Y-64770000D02*
X81410000Y-62170000D01*
X84070000Y-62170000D02*
X81410000Y-62170000D01*
X84070000Y-67370000D02*
X82740000Y-67370000D01*
X84070000Y-66040000D02*
X84070000Y-67370000D01*
D13*
%TO.C,IC5*%
X141285000Y-65880001D02*
X140735000Y-65880001D01*
X141285000Y-62960001D02*
X141285000Y-65880001D01*
X140735000Y-65880001D02*
X140735000Y-62960001D01*
X140735000Y-62960001D02*
X141285000Y-62960001D01*
X139335000Y-62870001D02*
X140385000Y-62870001D01*
D12*
%TO.C,J34*%
X147530000Y-47180000D02*
X147530000Y-48510000D01*
X147530000Y-48510000D02*
X146200000Y-48510000D01*
X144870000Y-45910000D02*
X144870000Y-43310000D01*
X147530000Y-45910000D02*
X147530000Y-43310000D01*
X147530000Y-45910000D02*
X144870000Y-45910000D01*
X147530000Y-43310000D02*
X144870000Y-43310000D01*
%TO.C,J19*%
X88490000Y-63500000D02*
X88490000Y-62170000D01*
X88490000Y-64770000D02*
X88490000Y-67370000D01*
X88490000Y-64770000D02*
X91150000Y-64770000D01*
X88490000Y-62170000D02*
X89820000Y-62170000D01*
X91150000Y-64770000D02*
X91150000Y-67370000D01*
X88490000Y-67370000D02*
X91150000Y-67370000D01*
D11*
%TO.C,mouse-bite-2mm-slot*%
X143210000Y-52260000D02*
G75*
G03*
X143210000Y-54260000I0J-1000000D01*
G01*
X136210000Y-54260000D02*
G75*
G03*
X136210000Y-52260000I0J1000000D01*
G01*
D12*
%TO.C,J22*%
X117510000Y-38890000D02*
X122710000Y-38890000D01*
X117510000Y-31150000D02*
X118840000Y-31150000D01*
X122710000Y-31150000D02*
X122710000Y-38890000D01*
X117510000Y-33750000D02*
X120110000Y-33750000D01*
X120110000Y-33750000D02*
X120110000Y-31150000D01*
X120110000Y-31150000D02*
X122710000Y-31150000D01*
X117510000Y-33750000D02*
X117510000Y-38890000D01*
X117510000Y-32480000D02*
X117510000Y-31150000D01*
D11*
%TO.C,mouse-bite-2mm-slot*%
X116460000Y-42100000D02*
G75*
G03*
X116460000Y-40100000I0J1000000D01*
G01*
X123460000Y-40100000D02*
G75*
G03*
X123460000Y-42100000I0J-1000000D01*
G01*
D12*
%TO.C,J24*%
X125130000Y-33750000D02*
X125130000Y-38890000D01*
X125130000Y-32480000D02*
X125130000Y-31150000D01*
X125130000Y-38890000D02*
X127790000Y-38890000D01*
X125130000Y-31150000D02*
X126460000Y-31150000D01*
X125130000Y-33750000D02*
X127790000Y-33750000D01*
X127790000Y-33750000D02*
X127790000Y-38890000D01*
D11*
%TO.C,mouse-bite-2mm-slot*%
X72980000Y-60960000D02*
G75*
G03*
X72980000Y-58960000I0J1000000D01*
G01*
X79980000Y-58960000D02*
G75*
G03*
X79980000Y-60960000I0J-1000000D01*
G01*
X123460000Y-52260000D02*
G75*
G03*
X123460000Y-54260000I0J-1000000D01*
G01*
X116460000Y-54260000D02*
G75*
G03*
X116460000Y-52260000I0J1000000D01*
G01*
X136200000Y-42100000D02*
G75*
G03*
X136200000Y-40100000I0J1000000D01*
G01*
X143200000Y-40100000D02*
G75*
G03*
X143200000Y-42100000I0J-1000000D01*
G01*
X65500000Y-62770000D02*
G75*
G03*
X67500000Y-62770000I1000000J0D01*
G01*
X67500000Y-66770000D02*
G75*
G03*
X65500000Y-66770000I-1000000J0D01*
G01*
X33480000Y-60960000D02*
G75*
G03*
X33480000Y-58960000I0J1000000D01*
G01*
X40480000Y-58960000D02*
G75*
G03*
X40480000Y-60960000I0J-1000000D01*
G01*
D13*
%TO.C,IC4*%
X138745000Y-57880001D02*
X138745000Y-60800001D01*
X136795000Y-57790001D02*
X137845000Y-57790001D01*
X138745000Y-60800001D02*
X138195000Y-60800001D01*
X138195000Y-60800001D02*
X138195000Y-57880001D01*
X138195000Y-57880001D02*
X138745000Y-57880001D01*
D12*
%TO.C,U2*%
X119940000Y-48780000D02*
X119140000Y-48780000D01*
X119940000Y-45660000D02*
X120740000Y-45660000D01*
X119940000Y-45660000D02*
X118140000Y-45660000D01*
X119940000Y-48780000D02*
X120740000Y-48780000D01*
%TO.C,J36*%
X144760000Y-63210001D02*
X147420000Y-63210001D01*
X147420000Y-60610001D02*
X147420000Y-63210001D01*
X144760000Y-59340001D02*
X144760000Y-58010001D01*
X144760000Y-58010001D02*
X146090000Y-58010001D01*
X144760000Y-60610001D02*
X147420000Y-60610001D01*
X144760000Y-60610001D02*
X144760000Y-63210001D01*
D11*
%TO.C,mouse-bite-2mm-slot*%
X130850001Y-64110001D02*
G75*
G03*
X128850001Y-64110001I-1000000J0D01*
G01*
X128850001Y-57110001D02*
G75*
G03*
X130850001Y-57110001I1000000J0D01*
G01*
D12*
%TO.C,J7*%
X44510000Y-62170000D02*
X41850000Y-62170000D01*
X44510000Y-64770000D02*
X41850000Y-64770000D01*
X41850000Y-64770000D02*
X41850000Y-62170000D01*
X44510000Y-64770000D02*
X44510000Y-62170000D01*
X44510000Y-66040000D02*
X44510000Y-67370000D01*
X44510000Y-67370000D02*
X43180000Y-67370000D01*
%TO.C,J23*%
X101190000Y-64770000D02*
X101190000Y-62170000D01*
X103850000Y-62170000D02*
X101190000Y-62170000D01*
X103850000Y-66040000D02*
X103850000Y-67370000D01*
X103850000Y-67370000D02*
X102520000Y-67370000D01*
X103850000Y-64770000D02*
X103850000Y-62170000D01*
X103850000Y-64770000D02*
X101190000Y-64770000D01*
D11*
%TO.C,mouse-bite-2mm-slot*%
X130960000Y-38600000D02*
G75*
G03*
X128960000Y-38600000I-1000000J0D01*
G01*
X128960000Y-31600000D02*
G75*
G03*
X130960000Y-31600000I1000000J0D01*
G01*
D13*
%TO.C,IC2*%
X118415000Y-60800001D02*
X118415000Y-57880001D01*
X117015000Y-57790001D02*
X118065000Y-57790001D01*
X118965000Y-60800001D02*
X118415000Y-60800001D01*
X118415000Y-57880001D02*
X118965000Y-57880001D01*
X118965000Y-57880001D02*
X118965000Y-60800001D01*
D12*
%TO.C,J11*%
X64290000Y-64770000D02*
X64290000Y-62170000D01*
X64290000Y-64770000D02*
X61630000Y-64770000D01*
X64290000Y-62170000D02*
X61630000Y-62170000D01*
X64290000Y-66040000D02*
X64290000Y-67370000D01*
X61630000Y-64770000D02*
X61630000Y-62170000D01*
X64290000Y-67370000D02*
X62960000Y-67370000D01*
%TO.C,J33*%
X132170000Y-51050000D02*
X134830000Y-51050000D01*
X132170000Y-43310000D02*
X133500000Y-43310000D01*
X134830000Y-45910000D02*
X134830000Y-51050000D01*
X132170000Y-44640000D02*
X132170000Y-43310000D01*
X132170000Y-45910000D02*
X132170000Y-51050000D01*
X132170000Y-45910000D02*
X134830000Y-45910000D01*
%TO.C,J29*%
X31750000Y-57750000D02*
X31750000Y-55090000D01*
X31750000Y-55090000D02*
X34350000Y-55090000D01*
X34350000Y-57750000D02*
X34350000Y-55090000D01*
X30480000Y-57750000D02*
X29150000Y-57750000D01*
X31750000Y-57750000D02*
X34350000Y-57750000D01*
X29150000Y-57750000D02*
X29150000Y-56420000D01*
D11*
%TO.C,mouse-bite-2mm-slot*%
X85280000Y-62770000D02*
G75*
G03*
X87280000Y-62770000I1000000J0D01*
G01*
X87280000Y-66770000D02*
G75*
G03*
X85280000Y-66770000I-1000000J0D01*
G01*
D12*
%TO.C,J32*%
X102810000Y-29810000D02*
X102810000Y-28480000D01*
X108010000Y-29810000D02*
X108010000Y-27150000D01*
X105410000Y-27150000D02*
X108010000Y-27150000D01*
X104140000Y-29810000D02*
X102810000Y-29810000D01*
X105410000Y-29810000D02*
X108010000Y-29810000D01*
X105410000Y-29810000D02*
X105410000Y-27150000D01*
%TO.C,J15*%
X112280000Y-56800001D02*
X112280000Y-55470001D01*
X112280000Y-55470001D02*
X113610000Y-55470001D01*
X112280000Y-58070001D02*
X112280000Y-65750001D01*
X114940000Y-58070001D02*
X114940000Y-65750001D01*
X112280000Y-65750001D02*
X114940000Y-65750001D01*
X112280000Y-58070001D02*
X114940000Y-58070001D01*
%TO.C,J27*%
X142450001Y-31149999D02*
X142450001Y-38889999D01*
X139850001Y-31149999D02*
X142450001Y-31149999D01*
X137250001Y-33749999D02*
X137250001Y-38889999D01*
X139850001Y-33749999D02*
X139850001Y-31149999D01*
X137250001Y-32479999D02*
X137250001Y-31149999D01*
X137250001Y-31149999D02*
X138580001Y-31149999D01*
X137250001Y-38889999D02*
X142450001Y-38889999D01*
X137250001Y-33749999D02*
X139850001Y-33749999D01*
%TO.C,U4*%
X139720000Y-48780000D02*
X138920000Y-48780000D01*
X139720000Y-45660000D02*
X140520000Y-45660000D01*
X139720000Y-48780000D02*
X140520000Y-48780000D01*
X139720000Y-45660000D02*
X137920000Y-45660000D01*
D11*
%TO.C,mouse-bite-2mm-slot*%
X111220000Y-50600000D02*
G75*
G03*
X109220000Y-50600000I-1000000J0D01*
G01*
X109220000Y-43600000D02*
G75*
G03*
X111220000Y-43600000I1000000J0D01*
G01*
X92980000Y-60960000D02*
G75*
G03*
X92980000Y-58960000I0J1000000D01*
G01*
X99980000Y-58960000D02*
G75*
G03*
X99980000Y-60960000I0J-1000000D01*
G01*
X111220000Y-38520000D02*
G75*
G03*
X109220000Y-38520000I-1000000J0D01*
G01*
X109220000Y-31520000D02*
G75*
G03*
X111220000Y-31520000I1000000J0D01*
G01*
D12*
%TO.C,J17*%
X112430000Y-33750000D02*
X115090000Y-33750000D01*
X115090000Y-33750000D02*
X115090000Y-38890000D01*
X112430000Y-33750000D02*
X112430000Y-38890000D01*
X112430000Y-32480000D02*
X112430000Y-31150000D01*
X112430000Y-31150000D02*
X113760000Y-31150000D01*
X112430000Y-38890000D02*
X115090000Y-38890000D01*
%TO.C,J26*%
X132170001Y-33749999D02*
X132170001Y-38889999D01*
X134830001Y-33749999D02*
X134830001Y-38889999D01*
X132170001Y-33749999D02*
X134830001Y-33749999D01*
X132170001Y-31149999D02*
X133500001Y-31149999D01*
X132170001Y-38889999D02*
X134830001Y-38889999D01*
X132170001Y-32479999D02*
X132170001Y-31149999D01*
%TO.C,J30*%
X34350000Y-29810000D02*
X34350000Y-27150000D01*
X29150000Y-29810000D02*
X29150000Y-28480000D01*
X31750000Y-29810000D02*
X31750000Y-27150000D01*
X30480000Y-29810000D02*
X29150000Y-29810000D01*
X31750000Y-27150000D02*
X34350000Y-27150000D01*
X31750000Y-29810000D02*
X34350000Y-29810000D01*
%TO.C,Y2*%
X58230000Y-62660000D02*
X54930000Y-62660000D01*
X54930000Y-62660000D02*
X54930000Y-66660000D01*
%TO.C,J9*%
X62170000Y-29810000D02*
X62170000Y-28480000D01*
X72450000Y-29810000D02*
X72450000Y-27150000D01*
X64770000Y-29810000D02*
X72450000Y-29810000D01*
X64770000Y-29810000D02*
X64770000Y-27150000D01*
X64770000Y-27150000D02*
X72450000Y-27150000D01*
X63500000Y-29810000D02*
X62170000Y-29810000D01*
D11*
%TO.C,mouse-bite-2mm-slot*%
X130960000Y-50600000D02*
G75*
G03*
X128960000Y-50600000I-1000000J0D01*
G01*
X128960000Y-43600000D02*
G75*
G03*
X130960000Y-43600000I1000000J0D01*
G01*
D12*
%TO.C,Y1*%
X38450000Y-62660000D02*
X35150000Y-62660000D01*
X35150000Y-62660000D02*
X35150000Y-66660000D01*
D11*
%TO.C,mouse-bite-2mm-slot*%
X45720000Y-62770000D02*
G75*
G03*
X47720000Y-62770000I1000000J0D01*
G01*
X47720000Y-66770000D02*
G75*
G03*
X45720000Y-66770000I-1000000J0D01*
G01*
D12*
%TO.C,J35*%
X132060000Y-55470001D02*
X133390000Y-55470001D01*
X134720000Y-58070001D02*
X134720000Y-65750001D01*
X132060000Y-56800001D02*
X132060000Y-55470001D01*
X132060000Y-58070001D02*
X134720000Y-58070001D01*
X132060000Y-58070001D02*
X132060000Y-65750001D01*
X132060000Y-65750001D02*
X134720000Y-65750001D01*
%TO.C,J16*%
X115050000Y-45910000D02*
X115050000Y-51050000D01*
X112390000Y-44640000D02*
X112390000Y-43310000D01*
X112390000Y-45910000D02*
X115050000Y-45910000D01*
X112390000Y-51050000D02*
X115050000Y-51050000D01*
X112390000Y-43310000D02*
X113720000Y-43310000D01*
X112390000Y-45910000D02*
X112390000Y-51050000D01*
%TO.C,J8*%
X48930000Y-64770000D02*
X51590000Y-64770000D01*
X48930000Y-62170000D02*
X50260000Y-62170000D01*
X48930000Y-64770000D02*
X48930000Y-67370000D01*
X51590000Y-64770000D02*
X51590000Y-67370000D01*
X48930000Y-63500000D02*
X48930000Y-62170000D01*
X48930000Y-67370000D02*
X51590000Y-67370000D01*
%TO.C,J20*%
X127750000Y-45910000D02*
X125090000Y-45910000D01*
X127750000Y-43310000D02*
X125090000Y-43310000D01*
X127750000Y-45910000D02*
X127750000Y-43310000D01*
X127750000Y-48510000D02*
X126420000Y-48510000D01*
X125090000Y-45910000D02*
X125090000Y-43310000D01*
X127750000Y-47180000D02*
X127750000Y-48510000D01*
%TO.C,Y3*%
X74710000Y-62660000D02*
X74710000Y-66660000D01*
X78010000Y-62660000D02*
X74710000Y-62660000D01*
D13*
%TO.C,IC3*%
X121505000Y-62960001D02*
X121505000Y-65880001D01*
X120955000Y-62960001D02*
X121505000Y-62960001D01*
X121505000Y-65880001D02*
X120955000Y-65880001D01*
X119555000Y-62870001D02*
X120605000Y-62870001D01*
X120955000Y-65880001D02*
X120955000Y-62960001D01*
D12*
%TO.C,J6*%
X31810000Y-64770000D02*
X31810000Y-67370000D01*
X29150000Y-64770000D02*
X29150000Y-67370000D01*
X29150000Y-67370000D02*
X31810000Y-67370000D01*
X29150000Y-62170000D02*
X30480000Y-62170000D01*
X29150000Y-64770000D02*
X31810000Y-64770000D01*
X29150000Y-63500000D02*
X29150000Y-62170000D01*
%TO.C,J12*%
X68710000Y-62170000D02*
X70040000Y-62170000D01*
X68710000Y-67370000D02*
X71370000Y-67370000D01*
X71370000Y-64770000D02*
X71370000Y-67370000D01*
X68710000Y-64770000D02*
X71370000Y-64770000D01*
X68710000Y-63500000D02*
X68710000Y-62170000D01*
X68710000Y-64770000D02*
X68710000Y-67370000D01*
%TO.C,J28*%
X144870001Y-33749999D02*
X144870001Y-38889999D01*
X147530001Y-33749999D02*
X147530001Y-38889999D01*
X144870001Y-31149999D02*
X146200001Y-31149999D01*
X144870001Y-38889999D02*
X147530001Y-38889999D01*
X144870001Y-33749999D02*
X147530001Y-33749999D01*
X144870001Y-32479999D02*
X144870001Y-31149999D01*
%TO.C,J21*%
X124980000Y-63210001D02*
X127640000Y-63210001D01*
X124980000Y-60610001D02*
X124980000Y-63210001D01*
X127640000Y-60610001D02*
X127640000Y-63210001D01*
X124980000Y-59340001D02*
X124980000Y-58010001D01*
X124980000Y-58010001D02*
X126310000Y-58010001D01*
X124980000Y-60610001D02*
X127640000Y-60610001D01*
%TD*%
M02*
