%TF.GenerationSoftware,KiCad,Pcbnew,(6.0.2)*%
%TF.CreationDate,2022-03-21T22:00:24-04:00*%
%TF.ProjectId,Panel_Design_3,50616e65-6c5f-4446-9573-69676e5f332e,rev?*%
%TF.SameCoordinates,Original*%
%TF.FileFunction,Soldermask,Top*%
%TF.FilePolarity,Negative*%
%FSLAX46Y46*%
G04 Gerber Fmt 4.6, Leading zero omitted, Abs format (unit mm)*
G04 Created by KiCad (PCBNEW (6.0.2)) date 2022-03-21 22:00:24*
%MOMM*%
%LPD*%
G01*
G04 APERTURE LIST*
G04 Aperture macros list*
%AMRoundRect*
0 Rectangle with rounded corners*
0 $1 Rounding radius*
0 $2 $3 $4 $5 $6 $7 $8 $9 X,Y pos of 4 corners*
0 Add a 4 corners polygon primitive as box body*
4,1,4,$2,$3,$4,$5,$6,$7,$8,$9,$2,$3,0*
0 Add four circle primitives for the rounded corners*
1,1,$1+$1,$2,$3*
1,1,$1+$1,$4,$5*
1,1,$1+$1,$6,$7*
1,1,$1+$1,$8,$9*
0 Add four rect primitives between the rounded corners*
20,1,$1+$1,$2,$3,$4,$5,0*
20,1,$1+$1,$4,$5,$6,$7,0*
20,1,$1+$1,$6,$7,$8,$9,0*
20,1,$1+$1,$8,$9,$2,$3,0*%
G04 Aperture macros list end*
%ADD10C,0.500000*%
%ADD11R,1.700000X1.700000*%
%ADD12O,1.700000X1.700000*%
%ADD13R,1.050000X0.700000*%
%ADD14RoundRect,0.150000X-0.512500X-0.150000X0.512500X-0.150000X0.512500X0.150000X-0.512500X0.150000X0*%
%ADD15R,1.200000X1.400000*%
%ADD16R,0.700000X0.600000*%
%ADD17R,0.700000X1.000000*%
%ADD18C,3.987800*%
G04 APERTURE END LIST*
D10*
%TO.C,mouse-bite-2mm-slot*%
X86820000Y-65010000D03*
X88320000Y-64260000D03*
X86820000Y-65760000D03*
X86820000Y-64260000D03*
X88320000Y-65760000D03*
X88320000Y-65010000D03*
%TD*%
%TO.C,mouse-bite-2mm-slot*%
X67040000Y-65010000D03*
X68540000Y-64260000D03*
X67040000Y-65760000D03*
X67040000Y-64260000D03*
X68540000Y-65760000D03*
X68540000Y-65010000D03*
%TD*%
%TO.C,mouse-bite-2mm-slot*%
X130390001Y-59350001D03*
X131890001Y-60100001D03*
X130390001Y-60850001D03*
X130390001Y-60100001D03*
X131890001Y-61600001D03*
X130390001Y-63100001D03*
X131890001Y-58600001D03*
X131890001Y-59350001D03*
X130390001Y-58600001D03*
X131890001Y-62350001D03*
X130390001Y-62350001D03*
X131890001Y-60850001D03*
X131890001Y-63100001D03*
X130390001Y-61600001D03*
%TD*%
%TO.C,mouse-bite-2mm-slot*%
X139500000Y-54250000D03*
X140250000Y-52750000D03*
X141000000Y-54250000D03*
X140250000Y-54250000D03*
X141750000Y-52750000D03*
X143250000Y-54250000D03*
X138750000Y-52750000D03*
X139500000Y-52750000D03*
X138750000Y-54250000D03*
X142500000Y-52750000D03*
X142500000Y-54250000D03*
X141000000Y-52750000D03*
X143250000Y-52750000D03*
X141750000Y-54250000D03*
%TD*%
%TO.C,mouse-bite-2mm-slot*%
X119750000Y-54250000D03*
X120500000Y-52750000D03*
X121250000Y-54250000D03*
X120500000Y-54250000D03*
X122000000Y-52750000D03*
X123500000Y-54250000D03*
X119000000Y-52750000D03*
X119750000Y-52750000D03*
X119000000Y-54250000D03*
X122750000Y-52750000D03*
X122750000Y-54250000D03*
X121250000Y-52750000D03*
X123500000Y-52750000D03*
X122000000Y-54250000D03*
%TD*%
D11*
%TO.C,J36*%
X147380000Y-59580001D03*
D12*
X147380000Y-62120001D03*
%TD*%
D13*
%TO.C,IC5*%
X141150000Y-63710001D03*
X141150000Y-65610001D03*
X143450000Y-64660001D03*
%TD*%
%TO.C,IC4*%
X138610000Y-58630001D03*
X138610000Y-60530001D03*
X140910000Y-59580001D03*
%TD*%
D11*
%TO.C,J35*%
X134680000Y-57040001D03*
D12*
X134680000Y-59580001D03*
X134680000Y-62120001D03*
X134680000Y-64660001D03*
%TD*%
D10*
%TO.C,mouse-bite-2mm-slot*%
X47260000Y-65010000D03*
X48760000Y-65010000D03*
X47260000Y-64260000D03*
X47260000Y-65760000D03*
X48760000Y-65760000D03*
X48760000Y-64260000D03*
%TD*%
%TO.C,mouse-bite-2mm-slot*%
X130500000Y-45840000D03*
X132000000Y-46590000D03*
X130500000Y-47340000D03*
X130500000Y-46590000D03*
X132000000Y-48090000D03*
X130500000Y-49590000D03*
X132000000Y-45090000D03*
X132000000Y-45840000D03*
X130500000Y-45090000D03*
X132000000Y-48840000D03*
X130500000Y-48840000D03*
X132000000Y-47340000D03*
X132000000Y-49590000D03*
X130500000Y-48090000D03*
%TD*%
D12*
%TO.C,J34*%
X147490000Y-44880000D03*
D11*
X147490000Y-47420000D03*
%TD*%
D14*
%TO.C,U4*%
X142147500Y-46510000D03*
X142147500Y-48410000D03*
X139872500Y-48410000D03*
X139872500Y-47460000D03*
X139872500Y-46510000D03*
%TD*%
D12*
%TO.C,J33*%
X134790000Y-49960000D03*
X134790000Y-47420000D03*
D11*
X134790000Y-44880000D03*
%TD*%
D10*
%TO.C,mouse-bite-2mm-slot*%
X110760000Y-48090000D03*
X112260000Y-49590000D03*
X112260000Y-47340000D03*
X110760000Y-48840000D03*
X112260000Y-48840000D03*
X110760000Y-45090000D03*
X112260000Y-45840000D03*
X112260000Y-45090000D03*
X110760000Y-49590000D03*
X112260000Y-48090000D03*
X110760000Y-46590000D03*
X110760000Y-47340000D03*
X112260000Y-46590000D03*
X110760000Y-45840000D03*
%TD*%
%TO.C,mouse-bite-2mm-slot*%
X140240000Y-40590000D03*
X138740000Y-42090000D03*
X140990000Y-42090000D03*
X139490000Y-40590000D03*
X139490000Y-42090000D03*
X143240000Y-40590000D03*
X142490000Y-42090000D03*
X143240000Y-42090000D03*
X138740000Y-40590000D03*
X140240000Y-42090000D03*
X141740000Y-40590000D03*
X140990000Y-40590000D03*
X141740000Y-42090000D03*
X142490000Y-40590000D03*
%TD*%
%TO.C,mouse-bite-2mm-slot*%
X120500000Y-40590000D03*
X119000000Y-42090000D03*
X121250000Y-42090000D03*
X119750000Y-40590000D03*
X119750000Y-42090000D03*
X123500000Y-40590000D03*
X122750000Y-42090000D03*
X123500000Y-42090000D03*
X119000000Y-40590000D03*
X120500000Y-42090000D03*
X122000000Y-40590000D03*
X121250000Y-40590000D03*
X122000000Y-42090000D03*
X122750000Y-40590000D03*
%TD*%
%TO.C,mouse-bite-2mm-slot*%
X130500000Y-36090000D03*
X132000000Y-37590000D03*
X132000000Y-35340000D03*
X130500000Y-36840000D03*
X132000000Y-36840000D03*
X130500000Y-33090000D03*
X132000000Y-33840000D03*
X132000000Y-33090000D03*
X130500000Y-37590000D03*
X132000000Y-36090000D03*
X130500000Y-34590000D03*
X130500000Y-35340000D03*
X132000000Y-34590000D03*
X130500000Y-33840000D03*
%TD*%
%TO.C,mouse-bite-2mm-slot*%
X110760000Y-36010000D03*
X112260000Y-37510000D03*
X112260000Y-35260000D03*
X110760000Y-36760000D03*
X112260000Y-36760000D03*
X110760000Y-33010000D03*
X112260000Y-33760000D03*
X112260000Y-33010000D03*
X110760000Y-37510000D03*
X112260000Y-36010000D03*
X110760000Y-34510000D03*
X110760000Y-35260000D03*
X112260000Y-34510000D03*
X110760000Y-33760000D03*
%TD*%
D15*
%TO.C,Y3*%
X78500000Y-63800000D03*
X78500000Y-66000000D03*
X76800000Y-66000000D03*
X76800000Y-63800000D03*
%TD*%
D12*
%TO.C,J13*%
X84030000Y-63740000D03*
D11*
X84030000Y-66280000D03*
%TD*%
D12*
%TO.C,J12*%
X71330000Y-66280000D03*
D11*
X71330000Y-63740000D03*
%TD*%
D15*
%TO.C,Y2*%
X58720000Y-63800000D03*
X58720000Y-66000000D03*
X57020000Y-66000000D03*
X57020000Y-63800000D03*
%TD*%
D12*
%TO.C,J11*%
X64250000Y-63740000D03*
D11*
X64250000Y-66280000D03*
%TD*%
D12*
%TO.C,J8*%
X51550000Y-66280000D03*
D11*
X51550000Y-63740000D03*
%TD*%
D10*
%TO.C,mouse-bite-2mm-slot*%
X97020000Y-59450000D03*
X95520000Y-60950000D03*
X97770000Y-60950000D03*
X96270000Y-59450000D03*
X96270000Y-60950000D03*
X100020000Y-59450000D03*
X99270000Y-60950000D03*
X100020000Y-60950000D03*
X95520000Y-59450000D03*
X97020000Y-60950000D03*
X98520000Y-59450000D03*
X97770000Y-59450000D03*
X98520000Y-60950000D03*
X99270000Y-59450000D03*
%TD*%
%TO.C,mouse-bite-2mm-slot*%
X77020000Y-59450000D03*
X75520000Y-60950000D03*
X77770000Y-60950000D03*
X76270000Y-59450000D03*
X76270000Y-60950000D03*
X80020000Y-59450000D03*
X79270000Y-60950000D03*
X80020000Y-60950000D03*
X75520000Y-59450000D03*
X77020000Y-60950000D03*
X78520000Y-59450000D03*
X77770000Y-59450000D03*
X78520000Y-60950000D03*
X79270000Y-59450000D03*
%TD*%
%TO.C,mouse-bite-2mm-slot*%
X57020000Y-59450000D03*
X55520000Y-60950000D03*
X57770000Y-60950000D03*
X56270000Y-59450000D03*
X56270000Y-60950000D03*
X60020000Y-59450000D03*
X59270000Y-60950000D03*
X60020000Y-60950000D03*
X55520000Y-59450000D03*
X57020000Y-60950000D03*
X58520000Y-59450000D03*
X57770000Y-59450000D03*
X58520000Y-60950000D03*
X59270000Y-59450000D03*
%TD*%
%TO.C,mouse-bite-2mm-slot*%
X39020000Y-59450000D03*
X39020000Y-60950000D03*
X39770000Y-59450000D03*
X38270000Y-60950000D03*
X36770000Y-59450000D03*
X36770000Y-60950000D03*
X39770000Y-60950000D03*
X37520000Y-59450000D03*
X38270000Y-59450000D03*
X40520000Y-59450000D03*
X40520000Y-60950000D03*
X37520000Y-60950000D03*
X36020000Y-59450000D03*
X36020000Y-60950000D03*
%TD*%
D12*
%TO.C,J22*%
X122670000Y-37800000D03*
X120130000Y-37800000D03*
X122670000Y-35260000D03*
X120130000Y-35260000D03*
X122670000Y-32720000D03*
D11*
X120130000Y-32720000D03*
%TD*%
D16*
%TO.C,U3*%
X98330000Y-63540000D03*
X98330000Y-65440000D03*
X96330000Y-65440000D03*
D17*
X96330000Y-63740000D03*
%TD*%
D12*
%TO.C,J9*%
X72410000Y-28720000D03*
X69870000Y-28720000D03*
X67330000Y-28720000D03*
D11*
X64790000Y-28720000D03*
%TD*%
D12*
%TO.C,J6*%
X31770000Y-66280000D03*
D11*
X31770000Y-63740000D03*
%TD*%
D12*
%TO.C,J31*%
X107970000Y-56660000D03*
D11*
X105430000Y-56660000D03*
%TD*%
D12*
%TO.C,J30*%
X34310000Y-28720000D03*
D11*
X31770000Y-28720000D03*
%TD*%
D12*
%TO.C,J32*%
X107970000Y-28720000D03*
D11*
X105430000Y-28720000D03*
%TD*%
D12*
%TO.C,J27*%
X142410001Y-37799999D03*
X139870001Y-37799999D03*
X142410001Y-35259999D03*
X139870001Y-35259999D03*
X142410001Y-32719999D03*
D11*
X139870001Y-32719999D03*
%TD*%
D12*
%TO.C,J24*%
X127750000Y-37800000D03*
X127750000Y-35260000D03*
D11*
X127750000Y-32720000D03*
%TD*%
D18*
%TO.C,MX1*%
X40570000Y-42880000D03*
%TD*%
D12*
%TO.C,J10*%
X72410000Y-56660000D03*
X69870000Y-56660000D03*
X67330000Y-56660000D03*
D11*
X64790000Y-56660000D03*
%TD*%
D15*
%TO.C,Y1*%
X38940000Y-63800000D03*
X38940000Y-66000000D03*
X37240000Y-66000000D03*
X37240000Y-63800000D03*
%TD*%
D18*
%TO.C,MX3*%
X59710000Y-42880000D03*
%TD*%
D12*
%TO.C,J29*%
X34310000Y-56660000D03*
D11*
X31770000Y-56660000D03*
%TD*%
D18*
%TO.C,MX2*%
X79170000Y-42880000D03*
%TD*%
D12*
%TO.C,J26*%
X134790001Y-37799999D03*
X134790001Y-35259999D03*
D11*
X134790001Y-32719999D03*
%TD*%
D12*
%TO.C,J7*%
X44470000Y-63740000D03*
D11*
X44470000Y-66280000D03*
%TD*%
D18*
%TO.C,MX4*%
X98470000Y-42880000D03*
%TD*%
D12*
%TO.C,J23*%
X103810000Y-63740000D03*
D11*
X103810000Y-66280000D03*
%TD*%
D12*
%TO.C,J28*%
X147490001Y-37799999D03*
X147490001Y-35259999D03*
D11*
X147490001Y-32719999D03*
%TD*%
D12*
%TO.C,J17*%
X115050000Y-37800000D03*
X115050000Y-35260000D03*
D11*
X115050000Y-32720000D03*
%TD*%
D12*
%TO.C,J19*%
X91110000Y-66280000D03*
D11*
X91110000Y-63740000D03*
%TD*%
%TO.C,J15*%
X114900000Y-57040001D03*
D12*
X114900000Y-59580001D03*
X114900000Y-62120001D03*
X114900000Y-64660001D03*
%TD*%
D13*
%TO.C,IC2*%
X118830000Y-58630001D03*
X118830000Y-60530001D03*
X121130000Y-59580001D03*
%TD*%
D12*
%TO.C,J16*%
X115010000Y-49960000D03*
X115010000Y-47420000D03*
D11*
X115010000Y-44880000D03*
%TD*%
D13*
%TO.C,IC3*%
X121370000Y-63710001D03*
X121370000Y-65610001D03*
X123670000Y-64660001D03*
%TD*%
D14*
%TO.C,U2*%
X122367500Y-46510000D03*
X122367500Y-48410000D03*
X120092500Y-48410000D03*
X120092500Y-47460000D03*
X120092500Y-46510000D03*
%TD*%
D11*
%TO.C,J21*%
X127600000Y-59580001D03*
D12*
X127600000Y-62120001D03*
%TD*%
%TO.C,J20*%
X127710000Y-44880000D03*
D11*
X127710000Y-47420000D03*
%TD*%
M02*
