M48
INCH,TZ
T1C0.0394
T2C0.0579
%
G90
G05
T1
X12508Y-11307
X12508Y-22307
X12508Y-25094
X12508Y-26094
X13508Y-11307
X13508Y-22307
X17508Y-25094
X17508Y-26094
X20295Y-25094
X20295Y-26094
X25295Y-25094
X25295Y-26094
X25508Y-11307
X25508Y-22307
X26508Y-11307
X26508Y-22307
X27508Y-11307
X27508Y-22307
X28083Y-25094
X28083Y-26094
X28508Y-11307
X28508Y-22307
X33083Y-25094
X33083Y-26094
X35870Y-25094
X35870Y-26094
X40870Y-25094
X40870Y-26094
X41508Y-11307
X41508Y-22307
X42508Y-11307
X42508Y-22307
X45236Y-22457
X45236Y-23457
X45236Y-24457
X45236Y-25457
X45280Y-17669
X45280Y-18669
X45280Y-19669
X45295Y-12882
X45295Y-13882
X45295Y-14882
X47295Y-12882
X47295Y-13882
X47295Y-14882
X48295Y-12882
X48295Y-13882
X48295Y-14882
X50236Y-23457
X50236Y-24457
X50280Y-17669
X50280Y-18669
X50295Y-12882
X50295Y-13882
X50295Y-14882
X53024Y-22457
X53024Y-23457
X53024Y-24457
X53024Y-25457
X53067Y-17669
X53067Y-18669
X53067Y-19669
X53067Y-12882
X53067Y-13882
X53067Y-14882
X55067Y-12882
X55067Y-13882
X55067Y-14882
X56067Y-12882
X56067Y-13882
X56067Y-14882
X58024Y-23457
X58024Y-24457
X58067Y-17669
X58067Y-18669
X58067Y-12882
X58067Y-13882
X58067Y-14882
T2
X13972Y-15882
X14972Y-18382
X21508Y-15882
X22508Y-18382
X29169Y-15882
X30169Y-18382
X36768Y-15882
X37768Y-18382
T0
M30
