%TF.GenerationSoftware,KiCad,Pcbnew,(6.0.2)*%
%TF.CreationDate,2022-03-21T22:00:24-04:00*%
%TF.ProjectId,Panel_Design_3,50616e65-6c5f-4446-9573-69676e5f332e,rev?*%
%TF.SameCoordinates,Original*%
%TF.FileFunction,Profile,NP*%
%FSLAX46Y46*%
G04 Gerber Fmt 4.6, Leading zero omitted, Abs format (unit mm)*
G04 Created by KiCad (PCBNEW (6.0.2)) date 2022-03-21 22:00:24*
%MOMM*%
%LPD*%
G01*
G04 APERTURE LIST*
%TA.AperFunction,Profile*%
%ADD10C,0.100000*%
%TD*%
G04 APERTURE END LIST*
D10*
X124750000Y-54500000D02*
X127600001Y-54500000D01*
X127710000Y-52500000D02*
X124750000Y-52500000D01*
X44470000Y-61200000D02*
X41770000Y-61200000D01*
X41770000Y-59200000D02*
X54270000Y-59200000D01*
X64250000Y-61200000D02*
X61270000Y-61200000D01*
X61270000Y-59200000D02*
X74270000Y-59200000D01*
X81270000Y-61200000D02*
X84030000Y-61200000D01*
X94270000Y-59200000D02*
X81270000Y-59200000D01*
X101270000Y-61200000D02*
X103810001Y-61199999D01*
X107970000Y-59200000D02*
X101270000Y-59200000D01*
X110510000Y-50840000D02*
X110510000Y-56660000D01*
X110510000Y-38760000D02*
X110510000Y-43840000D01*
X130140001Y-57040000D02*
X130140002Y-57350001D01*
X132140000Y-57040001D02*
X132140000Y-57350001D01*
X132140000Y-64660001D02*
X132140001Y-64350001D01*
X130140001Y-64660002D02*
X130140001Y-64350001D01*
X147380001Y-54500000D02*
X144500000Y-54500000D01*
X144500000Y-52500000D02*
X147490000Y-52500000D01*
X147489999Y-42340000D02*
X144490000Y-42340000D01*
X144490000Y-40340000D02*
X147490000Y-40340000D01*
X127709999Y-42340000D02*
X124750000Y-42340000D01*
X124750000Y-40340000D02*
X127750000Y-40340000D01*
X144500000Y-52500000D02*
G75*
G03*
X144500000Y-54500000I0J-1000000D01*
G01*
X137500000Y-54500000D02*
G75*
G03*
X137500000Y-52500000I0J1000000D01*
G01*
X124750000Y-52500000D02*
G75*
G03*
X124750000Y-54500000I0J-1000000D01*
G01*
X117750000Y-54500000D02*
G75*
G03*
X117750000Y-52500000I0J1000000D01*
G01*
X144490000Y-40340000D02*
G75*
G03*
X144490000Y-42340000I0J-1000000D01*
G01*
X137490000Y-42340000D02*
G75*
G03*
X137490000Y-40340000I0J1000000D01*
G01*
X124750000Y-40340000D02*
G75*
G03*
X124750000Y-42340000I0J-1000000D01*
G01*
X117750000Y-42340000D02*
G75*
G03*
X117750000Y-40340000I0J1000000D01*
G01*
X132140001Y-64350001D02*
G75*
G03*
X130140001Y-64350001I-1000000J0D01*
G01*
X130140002Y-57350001D02*
G75*
G03*
X132140000Y-57350001I999999J0D01*
G01*
X132250000Y-50840000D02*
G75*
G03*
X130250000Y-50840000I-1000000J0D01*
G01*
X130250000Y-43840000D02*
G75*
G03*
X132250000Y-43840000I1000000J0D01*
G01*
X132250000Y-38840000D02*
G75*
G03*
X130250000Y-38840000I-1000000J0D01*
G01*
X130250000Y-31840000D02*
G75*
G03*
X132250000Y-31840000I1000000J0D01*
G01*
X112510000Y-50840000D02*
G75*
G03*
X110510000Y-50840000I-1000000J0D01*
G01*
X110510000Y-43840000D02*
G75*
G03*
X112510000Y-43840000I1000000J0D01*
G01*
X112510000Y-38760000D02*
G75*
G03*
X110510000Y-38760000I-1000000J0D01*
G01*
X110510000Y-31760000D02*
G75*
G03*
X112510000Y-31760000I1000000J0D01*
G01*
X101270000Y-59200000D02*
G75*
G03*
X101270000Y-61200000I0J-1000000D01*
G01*
X94270000Y-61200000D02*
G75*
G03*
X94270000Y-59200000I0J1000000D01*
G01*
X81270000Y-59200000D02*
G75*
G03*
X81270000Y-61200000I0J-1000000D01*
G01*
X74270000Y-61200000D02*
G75*
G03*
X74270000Y-59200000I0J1000000D01*
G01*
X61270000Y-59200000D02*
G75*
G03*
X61270000Y-61200000I0J-1000000D01*
G01*
X54270000Y-61200000D02*
G75*
G03*
X54270000Y-59200000I0J1000000D01*
G01*
X41770000Y-59200000D02*
G75*
G03*
X41770000Y-61200000I0J-1000000D01*
G01*
X34770000Y-61200000D02*
G75*
G03*
X34770000Y-59200000I0J1000000D01*
G01*
X49010000Y-67010000D02*
G75*
G03*
X47010000Y-67010000I-1000000J0D01*
G01*
X47010000Y-63010000D02*
G75*
G03*
X49010000Y-63010000I1000000J0D01*
G01*
X68790000Y-67010000D02*
G75*
G03*
X66790000Y-67010000I-1000000J0D01*
G01*
X66790000Y-63010000D02*
G75*
G03*
X68790000Y-63010000I1000000J0D01*
G01*
X88570000Y-67010000D02*
G75*
G03*
X86570000Y-67010000I-1000000J0D01*
G01*
X86570000Y-63010000D02*
G75*
G03*
X88570000Y-63010000I1000000J0D01*
G01*
X149920001Y-57040000D02*
G75*
G03*
X147380001Y-54500000I-2540001J-1D01*
G01*
X147380001Y-67200002D02*
G75*
G03*
X149920001Y-64660002I-1J2540001D01*
G01*
X132140000Y-64660001D02*
G75*
G03*
X134680000Y-67200001I2540001J1D01*
G01*
X149920001Y-64660002D02*
X149920001Y-57040000D01*
X134680000Y-54500001D02*
G75*
G03*
X132140000Y-57040001I1J-2540001D01*
G01*
X134680000Y-67200001D02*
X147380001Y-67200002D01*
X137500000Y-54500000D02*
X134680000Y-54500001D01*
X134790000Y-42340000D02*
G75*
G03*
X132250000Y-43840000I0J-2900533D01*
G01*
X150030000Y-49960000D02*
X150030000Y-44880000D01*
X137490000Y-42340000D02*
X134790000Y-42340000D01*
X132249999Y-50840000D02*
G75*
G03*
X134790000Y-52500000I2540001J1113254D01*
G01*
X150029999Y-44880000D02*
G75*
G03*
X147489999Y-42340000I-2540001J-1D01*
G01*
X147490000Y-52500000D02*
G75*
G03*
X150030000Y-49960000I-1J2540001D01*
G01*
X134790000Y-52500000D02*
X137500000Y-52500000D01*
X68790000Y-67010000D02*
G75*
G03*
X71330000Y-68820000I2540000J877210D01*
G01*
X84030000Y-68820001D02*
G75*
G03*
X86570000Y-67010000I-5J2687217D01*
G01*
X86569998Y-63010001D02*
G75*
G03*
X84030000Y-61200000I-2540004J-877215D01*
G01*
X74270000Y-61200000D02*
X71330000Y-61200000D01*
X71330000Y-68820000D02*
X84030000Y-68820000D01*
X71330000Y-61200000D02*
G75*
G03*
X68790000Y-63010000I1J-2687211D01*
G01*
X49010000Y-67010000D02*
G75*
G03*
X51550000Y-68820000I2540000J877210D01*
G01*
X64250000Y-68820001D02*
G75*
G03*
X66790000Y-67010000I-5J2687217D01*
G01*
X66789999Y-63010000D02*
G75*
G03*
X64250000Y-61200000I-2540004J-877215D01*
G01*
X54270000Y-61200000D02*
X51550000Y-61200000D01*
X51550000Y-68820000D02*
X64250000Y-68820000D01*
X51550000Y-61200000D02*
G75*
G03*
X49010000Y-63010000I1J-2687211D01*
G01*
X91110000Y-61200000D02*
G75*
G03*
X88570000Y-63010000I1J-2687211D01*
G01*
X127750000Y-30180000D02*
X115050000Y-30180000D01*
X31770000Y-59200000D02*
X34770000Y-59200000D01*
X29230000Y-66280000D02*
G75*
G03*
X31770000Y-68820000I2540001J1D01*
G01*
X150030000Y-37799999D02*
X150030000Y-32719999D01*
X29230000Y-28720000D02*
X29230000Y-56660000D01*
X150030000Y-32719998D02*
G75*
G03*
X147490000Y-30179998I-2540001J-1D01*
G01*
X134790000Y-30179999D02*
G75*
G03*
X132250000Y-31840000I0J-2773253D01*
G01*
X110510000Y-31760000D02*
X110510000Y-28720000D01*
X127750000Y-40340001D02*
G75*
G03*
X130250000Y-38840000I-10J2833350D01*
G01*
X103810000Y-68820000D02*
G75*
G03*
X106350000Y-66280000I-1J2540001D01*
G01*
X91110000Y-68820000D02*
X103810000Y-68820000D01*
X88570000Y-67010000D02*
G75*
G03*
X91110000Y-68820000I2540000J877210D01*
G01*
X94270000Y-61200000D02*
X91110000Y-61200000D01*
X34770000Y-61200000D02*
X31770000Y-61200000D01*
X31770000Y-61200000D02*
G75*
G03*
X29230000Y-63740000I1J-2540001D01*
G01*
X31770000Y-68820000D02*
X44470000Y-68820000D01*
X147490000Y-30179999D02*
X134790000Y-30179999D01*
X115050000Y-30180000D02*
G75*
G03*
X112510000Y-31760000I1J-2831647D01*
G01*
X47009999Y-63010000D02*
G75*
G03*
X44470000Y-61200000I-2540004J-877215D01*
G01*
X31770000Y-26180000D02*
G75*
G03*
X29230000Y-28720000I1J-2540001D01*
G01*
X112510000Y-38760000D02*
G75*
G03*
X115050000Y-40340000I2540000J1251646D01*
G01*
X147490000Y-40340000D02*
G75*
G03*
X150030000Y-37800000I-1J2540001D01*
G01*
X106350000Y-66280000D02*
X106350001Y-63739999D01*
X110510000Y-28720000D02*
G75*
G03*
X107970000Y-26180000I-2540001J-1D01*
G01*
X29230000Y-56660000D02*
G75*
G03*
X31770000Y-59200000I2540001J1D01*
G01*
X107970000Y-26180000D02*
X31770000Y-26180000D01*
X106350001Y-63739999D02*
G75*
G03*
X103810001Y-61199999I-2540001J-1D01*
G01*
X115050000Y-40340000D02*
X117750000Y-40340000D01*
X130249999Y-31840000D02*
G75*
G03*
X127750000Y-30180000I-2500004J-1052536D01*
G01*
X107970000Y-59200000D02*
G75*
G03*
X110510000Y-56660000I-1J2540001D01*
G01*
X29230000Y-63740000D02*
X29230000Y-66280000D01*
X132250000Y-38840000D02*
G75*
G03*
X134790000Y-40340000I2540000J1400534D01*
G01*
X44470000Y-68820001D02*
G75*
G03*
X47010000Y-67010000I-5J2687217D01*
G01*
X134790000Y-40340000D02*
X137490000Y-40340000D01*
X114900000Y-67200001D02*
X127600001Y-67200002D01*
X115010000Y-52500000D02*
X117750000Y-52500000D01*
X117750000Y-54500000D02*
X114900000Y-54500001D01*
X127710000Y-52500000D02*
G75*
G03*
X130250000Y-50840000I-5J2773260D01*
G01*
X130249999Y-43840001D02*
G75*
G03*
X127709999Y-42340000I-2540005J-1400540D01*
G01*
X112510000Y-50840000D02*
G75*
G03*
X115010000Y-52500000I2500000J1052531D01*
G01*
X114900000Y-54500001D02*
G75*
G03*
X112360000Y-57040001I1J-2540001D01*
G01*
X127600001Y-67200002D02*
G75*
G03*
X130140001Y-64660002I-1J2540001D01*
G01*
X112360000Y-64660001D02*
G75*
G03*
X114900000Y-67200001I2540001J1D01*
G01*
X117750000Y-42340000D02*
X115010000Y-42340000D01*
X130140001Y-57040000D02*
G75*
G03*
X127600001Y-54500000I-2540001J-1D01*
G01*
X112360000Y-57040001D02*
X112360000Y-64660001D01*
X115010000Y-42340000D02*
G75*
G03*
X112510000Y-43840000I0J-2833333D01*
G01*
M02*
