%TF.GenerationSoftware,KiCad,Pcbnew,(6.0.2)*%
%TF.CreationDate,2022-03-22T07:30:25-04:00*%
%TF.ProjectId,Panel_Design_3,50616e65-6c5f-4446-9573-69676e5f332e,rev?*%
%TF.SameCoordinates,Original*%
%TF.FileFunction,Soldermask,Bot*%
%TF.FilePolarity,Negative*%
%FSLAX46Y46*%
G04 Gerber Fmt 4.6, Leading zero omitted, Abs format (unit mm)*
G04 Created by KiCad (PCBNEW (6.0.2)) date 2022-03-22 07:30:25*
%MOMM*%
%LPD*%
G01*
G04 APERTURE LIST*
%ADD10C,0.500000*%
%ADD11O,1.700000X1.700000*%
%ADD12R,1.700000X1.700000*%
%ADD13C,2.250000*%
%ADD14C,3.987800*%
G04 APERTURE END LIST*
D10*
%TO.C,mouse-bite-2mm-slot*%
X55730000Y-59210000D03*
X54230000Y-60710000D03*
X56480000Y-60710000D03*
X54980000Y-59210000D03*
X54980000Y-60710000D03*
X58730000Y-59210000D03*
X57980000Y-60710000D03*
X58730000Y-60710000D03*
X54230000Y-59210000D03*
X55730000Y-60710000D03*
X57230000Y-59210000D03*
X56480000Y-59210000D03*
X57230000Y-60710000D03*
X57980000Y-59210000D03*
%TD*%
D11*
%TO.C,J31*%
X106680000Y-56420000D03*
D12*
X104140000Y-56420000D03*
%TD*%
D11*
%TO.C,J10*%
X71120000Y-56420000D03*
X68580000Y-56420000D03*
X66040000Y-56420000D03*
D12*
X63500000Y-56420000D03*
%TD*%
D11*
%TO.C,J13*%
X82740000Y-63500000D03*
D12*
X82740000Y-66040000D03*
%TD*%
D13*
%TO.C,MX1*%
X34200000Y-40100000D03*
X36740000Y-46450000D03*
D14*
X39280000Y-42640000D03*
%TD*%
D11*
%TO.C,J34*%
X146200000Y-44640000D03*
D12*
X146200000Y-47180000D03*
%TD*%
D11*
%TO.C,J19*%
X89820000Y-66040000D03*
D12*
X89820000Y-63500000D03*
%TD*%
D10*
%TO.C,mouse-bite-2mm-slot*%
X140460000Y-54010000D03*
X141960000Y-52510000D03*
X139710000Y-52510000D03*
X141210000Y-54010000D03*
X141210000Y-52510000D03*
X137460000Y-54010000D03*
X138210000Y-52510000D03*
X137460000Y-52510000D03*
X141960000Y-54010000D03*
X140460000Y-52510000D03*
X138960000Y-54010000D03*
X139710000Y-54010000D03*
X138960000Y-52510000D03*
X138210000Y-54010000D03*
%TD*%
D11*
%TO.C,J22*%
X121380000Y-37560000D03*
X118840000Y-37560000D03*
X121380000Y-35020000D03*
X118840000Y-35020000D03*
X121380000Y-32480000D03*
D12*
X118840000Y-32480000D03*
%TD*%
D10*
%TO.C,mouse-bite-2mm-slot*%
X119210000Y-40350000D03*
X117710000Y-41850000D03*
X119960000Y-41850000D03*
X118460000Y-40350000D03*
X118460000Y-41850000D03*
X122210000Y-40350000D03*
X121460000Y-41850000D03*
X122210000Y-41850000D03*
X117710000Y-40350000D03*
X119210000Y-41850000D03*
X120710000Y-40350000D03*
X119960000Y-40350000D03*
X120710000Y-41850000D03*
X121460000Y-40350000D03*
%TD*%
D11*
%TO.C,J24*%
X126460000Y-37560000D03*
X126460000Y-35020000D03*
D12*
X126460000Y-32480000D03*
%TD*%
D10*
%TO.C,mouse-bite-2mm-slot*%
X75730000Y-59210000D03*
X74230000Y-60710000D03*
X76480000Y-60710000D03*
X74980000Y-59210000D03*
X74980000Y-60710000D03*
X78730000Y-59210000D03*
X77980000Y-60710000D03*
X78730000Y-60710000D03*
X74230000Y-59210000D03*
X75730000Y-60710000D03*
X77230000Y-59210000D03*
X76480000Y-59210000D03*
X77230000Y-60710000D03*
X77980000Y-59210000D03*
%TD*%
%TO.C,mouse-bite-2mm-slot*%
X120710000Y-54010000D03*
X122210000Y-52510000D03*
X119960000Y-52510000D03*
X121460000Y-54010000D03*
X121460000Y-52510000D03*
X117710000Y-54010000D03*
X118460000Y-52510000D03*
X117710000Y-52510000D03*
X122210000Y-54010000D03*
X120710000Y-52510000D03*
X119210000Y-54010000D03*
X119960000Y-54010000D03*
X119210000Y-52510000D03*
X118460000Y-54010000D03*
%TD*%
%TO.C,mouse-bite-2mm-slot*%
X138950000Y-40350000D03*
X137450000Y-41850000D03*
X139700000Y-41850000D03*
X138200000Y-40350000D03*
X138200000Y-41850000D03*
X141950000Y-40350000D03*
X141200000Y-41850000D03*
X141950000Y-41850000D03*
X137450000Y-40350000D03*
X138950000Y-41850000D03*
X140450000Y-40350000D03*
X139700000Y-40350000D03*
X140450000Y-41850000D03*
X141200000Y-40350000D03*
%TD*%
%TO.C,mouse-bite-2mm-slot*%
X67250000Y-64770000D03*
X67250000Y-65520000D03*
X65750000Y-64020000D03*
X65750000Y-65520000D03*
X67250000Y-64020000D03*
X65750000Y-64770000D03*
%TD*%
%TO.C,mouse-bite-2mm-slot*%
X36230000Y-59210000D03*
X34730000Y-60710000D03*
X36980000Y-60710000D03*
X35480000Y-59210000D03*
X35480000Y-60710000D03*
X39230000Y-59210000D03*
X38480000Y-60710000D03*
X39230000Y-60710000D03*
X34730000Y-59210000D03*
X36230000Y-60710000D03*
X37730000Y-59210000D03*
X36980000Y-59210000D03*
X37730000Y-60710000D03*
X38480000Y-59210000D03*
%TD*%
D11*
%TO.C,J36*%
X146090000Y-61880001D03*
D12*
X146090000Y-59340001D03*
%TD*%
D10*
%TO.C,mouse-bite-2mm-slot*%
X129100001Y-61360001D03*
X130600001Y-62860001D03*
X130600001Y-60610001D03*
X129100001Y-62110001D03*
X130600001Y-62110001D03*
X129100001Y-58360001D03*
X130600001Y-59110001D03*
X130600001Y-58360001D03*
X129100001Y-62860001D03*
X130600001Y-61360001D03*
X129100001Y-59860001D03*
X129100001Y-60610001D03*
X130600001Y-59860001D03*
X129100001Y-59110001D03*
%TD*%
D11*
%TO.C,J7*%
X43180000Y-63500000D03*
D12*
X43180000Y-66040000D03*
%TD*%
D11*
%TO.C,J23*%
X102520000Y-63500000D03*
D12*
X102520000Y-66040000D03*
%TD*%
D10*
%TO.C,mouse-bite-2mm-slot*%
X129210000Y-35850000D03*
X130710000Y-37350000D03*
X130710000Y-35100000D03*
X129210000Y-36600000D03*
X130710000Y-36600000D03*
X129210000Y-32850000D03*
X130710000Y-33600000D03*
X130710000Y-32850000D03*
X129210000Y-37350000D03*
X130710000Y-35850000D03*
X129210000Y-34350000D03*
X129210000Y-35100000D03*
X130710000Y-34350000D03*
X129210000Y-33600000D03*
%TD*%
D13*
%TO.C,MX2*%
X72800000Y-40100000D03*
X75340000Y-46450000D03*
D14*
X77880000Y-42640000D03*
%TD*%
D11*
%TO.C,J11*%
X62960000Y-63500000D03*
D12*
X62960000Y-66040000D03*
%TD*%
D11*
%TO.C,J33*%
X133500000Y-49720000D03*
X133500000Y-47180000D03*
D12*
X133500000Y-44640000D03*
%TD*%
D11*
%TO.C,J29*%
X33020000Y-56420000D03*
D12*
X30480000Y-56420000D03*
%TD*%
D10*
%TO.C,mouse-bite-2mm-slot*%
X87030000Y-64770000D03*
X87030000Y-65520000D03*
X85530000Y-64020000D03*
X85530000Y-65520000D03*
X87030000Y-64020000D03*
X85530000Y-64770000D03*
%TD*%
D11*
%TO.C,J32*%
X106680000Y-28480000D03*
D12*
X104140000Y-28480000D03*
%TD*%
D11*
%TO.C,J15*%
X113610000Y-64420001D03*
X113610000Y-61880001D03*
X113610000Y-59340001D03*
D12*
X113610000Y-56800001D03*
%TD*%
D11*
%TO.C,J27*%
X141120001Y-37559999D03*
X138580001Y-37559999D03*
X141120001Y-35019999D03*
X138580001Y-35019999D03*
X141120001Y-32479999D03*
D12*
X138580001Y-32479999D03*
%TD*%
D13*
%TO.C,MX4*%
X92100000Y-40100000D03*
X94640000Y-46450000D03*
D14*
X97180000Y-42640000D03*
%TD*%
D10*
%TO.C,mouse-bite-2mm-slot*%
X109470000Y-47850000D03*
X110970000Y-49350000D03*
X110970000Y-47100000D03*
X109470000Y-48600000D03*
X110970000Y-48600000D03*
X109470000Y-44850000D03*
X110970000Y-45600000D03*
X110970000Y-44850000D03*
X109470000Y-49350000D03*
X110970000Y-47850000D03*
X109470000Y-46350000D03*
X109470000Y-47100000D03*
X110970000Y-46350000D03*
X109470000Y-45600000D03*
%TD*%
%TO.C,mouse-bite-2mm-slot*%
X95730000Y-59210000D03*
X94230000Y-60710000D03*
X96480000Y-60710000D03*
X94980000Y-59210000D03*
X94980000Y-60710000D03*
X98730000Y-59210000D03*
X97980000Y-60710000D03*
X98730000Y-60710000D03*
X94230000Y-59210000D03*
X95730000Y-60710000D03*
X97230000Y-59210000D03*
X96480000Y-59210000D03*
X97230000Y-60710000D03*
X97980000Y-59210000D03*
%TD*%
D13*
%TO.C,MX3*%
X53340000Y-40100000D03*
X55880000Y-46450000D03*
D14*
X58420000Y-42640000D03*
%TD*%
D10*
%TO.C,mouse-bite-2mm-slot*%
X109470000Y-35770000D03*
X110970000Y-37270000D03*
X110970000Y-35020000D03*
X109470000Y-36520000D03*
X110970000Y-36520000D03*
X109470000Y-32770000D03*
X110970000Y-33520000D03*
X110970000Y-32770000D03*
X109470000Y-37270000D03*
X110970000Y-35770000D03*
X109470000Y-34270000D03*
X109470000Y-35020000D03*
X110970000Y-34270000D03*
X109470000Y-33520000D03*
%TD*%
D11*
%TO.C,J17*%
X113760000Y-37560000D03*
X113760000Y-35020000D03*
D12*
X113760000Y-32480000D03*
%TD*%
D11*
%TO.C,J26*%
X133500001Y-37559999D03*
X133500001Y-35019999D03*
D12*
X133500001Y-32479999D03*
%TD*%
D11*
%TO.C,J30*%
X33020000Y-28480000D03*
D12*
X30480000Y-28480000D03*
%TD*%
D11*
%TO.C,J9*%
X71120000Y-28480000D03*
X68580000Y-28480000D03*
X66040000Y-28480000D03*
D12*
X63500000Y-28480000D03*
%TD*%
D10*
%TO.C,mouse-bite-2mm-slot*%
X129210000Y-47850000D03*
X130710000Y-49350000D03*
X130710000Y-47100000D03*
X129210000Y-48600000D03*
X130710000Y-48600000D03*
X129210000Y-44850000D03*
X130710000Y-45600000D03*
X130710000Y-44850000D03*
X129210000Y-49350000D03*
X130710000Y-47850000D03*
X129210000Y-46350000D03*
X129210000Y-47100000D03*
X130710000Y-46350000D03*
X129210000Y-45600000D03*
%TD*%
%TO.C,mouse-bite-2mm-slot*%
X47470000Y-64770000D03*
X47470000Y-65520000D03*
X45970000Y-64020000D03*
X45970000Y-65520000D03*
X47470000Y-64020000D03*
X45970000Y-64770000D03*
%TD*%
D11*
%TO.C,J35*%
X133390000Y-64420001D03*
X133390000Y-61880001D03*
X133390000Y-59340001D03*
D12*
X133390000Y-56800001D03*
%TD*%
D11*
%TO.C,J16*%
X113720000Y-49720000D03*
X113720000Y-47180000D03*
D12*
X113720000Y-44640000D03*
%TD*%
D11*
%TO.C,J8*%
X50260000Y-66040000D03*
D12*
X50260000Y-63500000D03*
%TD*%
D11*
%TO.C,J20*%
X126420000Y-44640000D03*
D12*
X126420000Y-47180000D03*
%TD*%
D11*
%TO.C,J6*%
X30480000Y-66040000D03*
D12*
X30480000Y-63500000D03*
%TD*%
D11*
%TO.C,J12*%
X70040000Y-66040000D03*
D12*
X70040000Y-63500000D03*
%TD*%
D11*
%TO.C,J28*%
X146200001Y-37559999D03*
X146200001Y-35019999D03*
D12*
X146200001Y-32479999D03*
%TD*%
D11*
%TO.C,J21*%
X126310000Y-61880001D03*
D12*
X126310000Y-59340001D03*
%TD*%
M02*
