M48
INCH,TZ
T1C0.0394
T2C0.0579
%
G90
G05
T1
X12000Y-11213
X12000Y-22213
X12000Y-25000
X12000Y-26000
X13000Y-11213
X13000Y-22213
X17000Y-25000
X17000Y-26000
X19787Y-25000
X19787Y-26000
X24787Y-25000
X24787Y-26000
X25000Y-11213
X25000Y-22213
X26000Y-11213
X26000Y-22213
X27000Y-11213
X27000Y-22213
X27575Y-25000
X27575Y-26000
X28000Y-11213
X28000Y-22213
X32575Y-25000
X32575Y-26000
X35362Y-25000
X35362Y-26000
X40362Y-25000
X40362Y-26000
X41000Y-11213
X41000Y-22213
X42000Y-11213
X42000Y-22213
X44728Y-22362
X44728Y-23362
X44728Y-24362
X44728Y-25362
X44772Y-17575
X44772Y-18575
X44772Y-19575
X44787Y-12787
X44787Y-13787
X44787Y-14787
X46787Y-12787
X46787Y-13787
X46787Y-14787
X47787Y-12787
X47787Y-13787
X47787Y-14787
X49728Y-23362
X49728Y-24362
X49772Y-17575
X49772Y-18575
X49787Y-12787
X49787Y-13787
X49787Y-14787
X52516Y-22362
X52516Y-23362
X52516Y-24362
X52516Y-25362
X52559Y-17575
X52559Y-18575
X52559Y-19575
X52559Y-12787
X52559Y-13787
X52559Y-14787
X54559Y-12787
X54559Y-13787
X54559Y-14787
X55559Y-12787
X55559Y-13787
X55559Y-14787
X57516Y-23362
X57516Y-24362
X57559Y-17575
X57559Y-18575
X57559Y-12787
X57559Y-13787
X57559Y-14787
T2
X13465Y-15787
X14465Y-18287
X21000Y-15787
X22000Y-18287
X28661Y-15787
X29661Y-18287
X36260Y-15787
X37260Y-18287
T0
M30
