%TF.GenerationSoftware,KiCad,Pcbnew,(6.0.2)*%
%TF.CreationDate,2022-03-21T20:11:02-04:00*%
%TF.ProjectId,Panel_Design_2,50616e65-6c5f-4446-9573-69676e5f322e,rev?*%
%TF.SameCoordinates,Original*%
%TF.FileFunction,Soldermask,Bot*%
%TF.FilePolarity,Negative*%
%FSLAX46Y46*%
G04 Gerber Fmt 4.6, Leading zero omitted, Abs format (unit mm)*
G04 Created by KiCad (PCBNEW (6.0.2)) date 2022-03-21 20:11:02*
%MOMM*%
%LPD*%
G01*
G04 APERTURE LIST*
%ADD10C,0.500000*%
%ADD11R,1.700000X1.700000*%
%ADD12O,1.700000X1.700000*%
%ADD13R,2.000000X2.000000*%
%ADD14C,2.000000*%
%ADD15R,2.500000X3.000000*%
G04 APERTURE END LIST*
D10*
%TO.C,mouse-bite-2mm-slot*%
X96069998Y-58210001D03*
X97569998Y-58210001D03*
X100569998Y-56710001D03*
X97569998Y-56710001D03*
X96069998Y-56710001D03*
X96819998Y-58210001D03*
X99069998Y-58210001D03*
X99819998Y-58210001D03*
X98319998Y-58210001D03*
X99819998Y-56710001D03*
X99069998Y-56710001D03*
X98319998Y-56710001D03*
X96819998Y-56710001D03*
X100569998Y-58210001D03*
%TD*%
D11*
%TO.C,J11*%
X107059998Y-23440001D03*
D12*
X104519998Y-23440001D03*
X101979998Y-23440001D03*
X99439998Y-23440001D03*
X96899998Y-23440001D03*
X94359998Y-23440001D03*
X91819998Y-23440001D03*
X89279998Y-23440001D03*
X86739998Y-23440001D03*
X84199998Y-23440001D03*
X81659998Y-23440001D03*
X79119998Y-23440001D03*
X76579998Y-23440001D03*
X74039998Y-23440001D03*
X71499998Y-23440001D03*
X68959998Y-23440001D03*
X66419998Y-23440001D03*
X63879998Y-23440001D03*
X61339998Y-23440001D03*
X58799998Y-23440001D03*
X56259998Y-23440001D03*
X53719998Y-23440001D03*
X51179998Y-23440001D03*
X48639998Y-23440001D03*
X46099998Y-23440001D03*
X43559998Y-23440001D03*
X41019998Y-23440001D03*
X38479998Y-23440001D03*
X35939998Y-23440001D03*
X33399998Y-23440001D03*
X30859998Y-23440001D03*
X28319998Y-23440001D03*
%TD*%
D11*
%TO.C,J19*%
X141540001Y-78350001D03*
D12*
X144080001Y-78350001D03*
%TD*%
D10*
%TO.C,mouse-bite-2mm-slot*%
X138750000Y-74250000D03*
X138750000Y-72750000D03*
X137250000Y-69750000D03*
X137250000Y-72750000D03*
X137250000Y-74250000D03*
X138750000Y-73500000D03*
X138750000Y-71250000D03*
X138750000Y-70500000D03*
X138750000Y-72000000D03*
X137250000Y-70500000D03*
X137250000Y-71250000D03*
X137250000Y-72000000D03*
X137250000Y-73500000D03*
X138750000Y-69750000D03*
%TD*%
%TO.C,mouse-bite-2mm-slot*%
X106269998Y-73250001D03*
X106269998Y-71750001D03*
X104769998Y-68750001D03*
X104769998Y-71750001D03*
X104769998Y-73250001D03*
X106269998Y-72500001D03*
X106269998Y-70250001D03*
X106269998Y-69500001D03*
X106269998Y-71000001D03*
X104769998Y-69500001D03*
X104769998Y-70250001D03*
X104769998Y-71000001D03*
X104769998Y-72500001D03*
X106269998Y-68750001D03*
%TD*%
D11*
%TO.C,J8*%
X116679999Y-83860001D03*
D12*
X119219999Y-83860001D03*
X121759999Y-83860001D03*
X124299999Y-83860001D03*
X126839999Y-83860001D03*
X129379999Y-83860001D03*
%TD*%
D11*
%TO.C,J1*%
X28319998Y-81320001D03*
D12*
X30859998Y-81320001D03*
X33399998Y-81320001D03*
X35939998Y-81320001D03*
X38479998Y-81320001D03*
X41019998Y-81320001D03*
X43559998Y-81320001D03*
X46099998Y-81320001D03*
X48639998Y-81320001D03*
X51179998Y-81320001D03*
X53719998Y-81320001D03*
X56259998Y-81320001D03*
X58799998Y-81320001D03*
X61339998Y-81320001D03*
X63879998Y-81320001D03*
X66419998Y-81320001D03*
X68959998Y-81320001D03*
X71499998Y-81320001D03*
X74039998Y-81320001D03*
X76579998Y-81320001D03*
X79119998Y-81320001D03*
X81659998Y-81320001D03*
X84199998Y-81320001D03*
X86739998Y-81320001D03*
X89279998Y-81320001D03*
X91819998Y-81320001D03*
X94359998Y-81320001D03*
X96899998Y-81320001D03*
X99439998Y-81320001D03*
X101979998Y-81320001D03*
%TD*%
D11*
%TO.C,J12*%
X116679999Y-61000001D03*
D12*
X119219999Y-61000001D03*
X121759999Y-61000001D03*
X124299999Y-61000001D03*
X126839999Y-61000001D03*
X129379999Y-61000001D03*
%TD*%
D10*
%TO.C,mouse-bite-2mm-slot*%
X111349998Y-50190001D03*
X111349998Y-48690001D03*
X109849998Y-45690001D03*
X109849998Y-48690001D03*
X109849998Y-50190001D03*
X111349998Y-49440001D03*
X111349998Y-47190001D03*
X111349998Y-46440001D03*
X111349998Y-47940001D03*
X109849998Y-46440001D03*
X109849998Y-47190001D03*
X109849998Y-47940001D03*
X109849998Y-49440001D03*
X111349998Y-45690001D03*
%TD*%
%TO.C,mouse-bite-2mm-slot*%
X121769998Y-58210001D03*
X123269998Y-58210001D03*
X126269998Y-56710001D03*
X123269998Y-56710001D03*
X121769998Y-56710001D03*
X122519998Y-58210001D03*
X124769998Y-58210001D03*
X125519998Y-58210001D03*
X124019998Y-58210001D03*
X125519998Y-56710001D03*
X124769998Y-56710001D03*
X124019998Y-56710001D03*
X122519998Y-56710001D03*
X126269998Y-58210001D03*
%TD*%
%TO.C,mouse-bite-2mm-slot*%
X111349998Y-31690001D03*
X111349998Y-30190001D03*
X109849998Y-27190001D03*
X109849998Y-30190001D03*
X109849998Y-31690001D03*
X111349998Y-30940001D03*
X111349998Y-28690001D03*
X111349998Y-27940001D03*
X111349998Y-29440001D03*
X109849998Y-27940001D03*
X109849998Y-28690001D03*
X109849998Y-29440001D03*
X109849998Y-30940001D03*
X111349998Y-27190001D03*
%TD*%
D13*
%TO.C,SW1*%
X111979999Y-79560001D03*
D14*
X116979999Y-79560001D03*
X114479999Y-79560001D03*
D15*
X120079999Y-72060001D03*
X108879999Y-72060001D03*
D14*
X111979999Y-65060001D03*
X116979999Y-65060001D03*
%TD*%
D11*
%TO.C,J5*%
X101979998Y-61000001D03*
D12*
X99439998Y-61000001D03*
X96899998Y-61000001D03*
X94359998Y-61000001D03*
X91819998Y-61000001D03*
X89279998Y-61000001D03*
X86739998Y-61000001D03*
X84199998Y-61000001D03*
X81659998Y-61000001D03*
X79119998Y-61000001D03*
X76579998Y-61000001D03*
X74039998Y-61000001D03*
X71499998Y-61000001D03*
X68959998Y-61000001D03*
X66419998Y-61000001D03*
X63879998Y-61000001D03*
X61339998Y-61000001D03*
X58799998Y-61000001D03*
X56259998Y-61000001D03*
X53719998Y-61000001D03*
X51179998Y-61000001D03*
X48639998Y-61000001D03*
X46099998Y-61000001D03*
X43559998Y-61000001D03*
X41019998Y-61000001D03*
X38479998Y-61000001D03*
X35939998Y-61000001D03*
X33399998Y-61000001D03*
X30859998Y-61000001D03*
X28319998Y-61000001D03*
%TD*%
D11*
%TO.C,JOLED2*%
X114144998Y-23440001D03*
D12*
X116684998Y-23440001D03*
X119224998Y-23440001D03*
X121764998Y-23440001D03*
X124304998Y-23440001D03*
X126844998Y-23440001D03*
X129384998Y-23440001D03*
X131924998Y-23440001D03*
X134464998Y-23440001D03*
X137004998Y-23440001D03*
X139544998Y-23440001D03*
X142084998Y-23440001D03*
X144624998Y-23440001D03*
X147164998Y-23440001D03*
X149704998Y-23440001D03*
%TD*%
D13*
%TO.C,SW2*%
X126879999Y-79570001D03*
D14*
X131879999Y-79570001D03*
X129379999Y-79570001D03*
D15*
X123779999Y-72070001D03*
X134979999Y-72070001D03*
D14*
X126879999Y-65070001D03*
X131879999Y-65070001D03*
%TD*%
D10*
%TO.C,mouse-bite-2mm-slot*%
X35069998Y-58210001D03*
X36569998Y-58210001D03*
X39569998Y-56710001D03*
X36569998Y-56710001D03*
X35069998Y-56710001D03*
X35819998Y-58210001D03*
X38069998Y-58210001D03*
X38819998Y-58210001D03*
X37319998Y-58210001D03*
X38819998Y-56710001D03*
X38069998Y-56710001D03*
X37319998Y-56710001D03*
X35819998Y-56710001D03*
X39569998Y-58210001D03*
%TD*%
%TO.C,mouse-bite-2mm-slot*%
X67069998Y-56710001D03*
X68569998Y-56710001D03*
X67069998Y-58210001D03*
X68569998Y-58210001D03*
X70069998Y-56710001D03*
X65569998Y-58210001D03*
X69319998Y-58210001D03*
X69319998Y-56710001D03*
X67819998Y-56710001D03*
X70069998Y-58210001D03*
X67819998Y-58210001D03*
X65569998Y-56710001D03*
X66319998Y-58210001D03*
X66319998Y-56710001D03*
%TD*%
D11*
%TO.C,J3*%
X28319998Y-53920001D03*
D12*
X30859998Y-53920001D03*
X33399998Y-53920001D03*
X35939998Y-53920001D03*
X38479998Y-53920001D03*
X41019998Y-53920001D03*
X43559998Y-53920001D03*
X46099998Y-53920001D03*
X48639998Y-53920001D03*
X51179998Y-53920001D03*
X53719998Y-53920001D03*
X56259998Y-53920001D03*
X58799998Y-53920001D03*
X61339998Y-53920001D03*
X63879998Y-53920001D03*
X66419998Y-53920001D03*
X68959998Y-53920001D03*
X71499998Y-53920001D03*
X74039998Y-53920001D03*
X76579998Y-53920001D03*
X79119998Y-53920001D03*
X81659998Y-53920001D03*
X84199998Y-53920001D03*
X86739998Y-53920001D03*
X89279998Y-53920001D03*
X91819998Y-53920001D03*
X94359998Y-53920001D03*
X96899998Y-53920001D03*
X99439998Y-53920001D03*
X101979998Y-53920001D03*
X104519998Y-53920001D03*
X107059998Y-53920001D03*
%TD*%
D11*
%TO.C,J23*%
X144080001Y-65650001D03*
D12*
X141540001Y-65650001D03*
%TD*%
D11*
%TO.C,JOLED1*%
X114139998Y-53920001D03*
D12*
X116679998Y-53920001D03*
X119219998Y-53920001D03*
X121759998Y-53920001D03*
X124299998Y-53920001D03*
X126839998Y-53920001D03*
X129379998Y-53920001D03*
X131919998Y-53920001D03*
X134459998Y-53920001D03*
X136999998Y-53920001D03*
X139539998Y-53920001D03*
X142079998Y-53920001D03*
X144619998Y-53920001D03*
X147159998Y-53920001D03*
X149699998Y-53920001D03*
%TD*%
M02*
