%TF.GenerationSoftware,KiCad,Pcbnew,(6.0.2)*%
%TF.CreationDate,2022-03-22T07:27:24-04:00*%
%TF.ProjectId,Panel_Design_2,50616e65-6c5f-4446-9573-69676e5f322e,rev?*%
%TF.SameCoordinates,Original*%
%TF.FileFunction,Paste,Top*%
%TF.FilePolarity,Positive*%
%FSLAX46Y46*%
G04 Gerber Fmt 4.6, Leading zero omitted, Abs format (unit mm)*
G04 Created by KiCad (PCBNEW (6.0.2)) date 2022-03-22 07:27:24*
%MOMM*%
%LPD*%
G01*
G04 APERTURE LIST*
G04 Aperture macros list*
%AMRotRect*
0 Rectangle, with rotation*
0 The origin of the aperture is its center*
0 $1 length*
0 $2 width*
0 $3 Rotation angle, in degrees counterclockwise*
0 Add horizontal line*
21,1,$1,$2,0,0,$3*%
G04 Aperture macros list end*
%ADD10R,1.000000X0.700000*%
%ADD11R,0.600000X0.700000*%
%ADD12RotRect,0.600000X1.475000X135.000000*%
%ADD13RotRect,0.600000X1.475000X45.000000*%
%ADD14R,1.000000X0.300000*%
%ADD15R,1.300000X2.000000*%
%ADD16RotRect,0.200000X0.850000X135.000000*%
%ADD17RotRect,0.200000X0.850000X45.000000*%
%ADD18RotRect,5.550000X5.550000X45.000000*%
G04 APERTURE END LIST*
D10*
%TO.C,U3*%
X141714999Y-72549999D03*
D11*
X143414999Y-72549999D03*
X143414999Y-70549999D03*
X141514999Y-70549999D03*
%TD*%
D12*
%TO.C,IC1*%
X59420763Y-39328951D03*
X59986448Y-39894636D03*
X60552134Y-40460321D03*
X61117819Y-41026007D03*
X61683505Y-41591692D03*
X62249190Y-42157378D03*
X62814876Y-42723063D03*
X63380561Y-43288749D03*
X63946246Y-43854434D03*
X64511932Y-44420119D03*
X65077617Y-44985805D03*
X65643303Y-45551490D03*
X66208988Y-46117176D03*
X66774674Y-46682861D03*
X67340359Y-47248547D03*
X67906044Y-47814232D03*
D13*
X70363948Y-47814232D03*
X70929633Y-47248547D03*
X71495318Y-46682861D03*
X72061004Y-46117176D03*
X72626689Y-45551490D03*
X73192375Y-44985805D03*
X73758060Y-44420119D03*
X74323746Y-43854434D03*
X74889431Y-43288749D03*
X75455116Y-42723063D03*
X76020802Y-42157378D03*
X76586487Y-41591692D03*
X77152173Y-41026007D03*
X77717858Y-40460321D03*
X78283544Y-39894636D03*
X78849229Y-39328951D03*
D12*
X78849229Y-36871047D03*
X78283544Y-36305362D03*
X77717858Y-35739677D03*
X77152173Y-35173991D03*
X76586487Y-34608306D03*
X76020802Y-34042620D03*
X75455116Y-33476935D03*
X74889431Y-32911249D03*
X74323746Y-32345564D03*
X73758060Y-31779879D03*
X73192375Y-31214193D03*
X72626689Y-30648508D03*
X72061004Y-30082822D03*
X71495318Y-29517137D03*
X70929633Y-28951451D03*
X70363948Y-28385766D03*
D13*
X67906044Y-28385766D03*
X67340359Y-28951451D03*
X66774674Y-29517137D03*
X66208988Y-30082822D03*
X65643303Y-30648508D03*
X65077617Y-31214193D03*
X64511932Y-31779879D03*
X63946246Y-32345564D03*
X63380561Y-32911249D03*
X62814876Y-33476935D03*
X62249190Y-34042620D03*
X61683505Y-34608306D03*
X61117819Y-35173991D03*
X60552134Y-35739677D03*
X59986448Y-36305362D03*
X59420763Y-36871047D03*
%TD*%
D14*
%TO.C,UOLED1*%
X117369996Y-45349999D03*
X117369996Y-44849999D03*
X117369996Y-44349999D03*
X117369996Y-43849999D03*
X117369996Y-43349999D03*
X117369996Y-42849999D03*
X117369996Y-42349999D03*
X117369996Y-41849999D03*
X117369996Y-41349999D03*
X117369996Y-40849999D03*
X117369996Y-40349999D03*
X117369996Y-39849999D03*
X117369996Y-39349999D03*
X117369996Y-38849999D03*
X117369996Y-38349999D03*
X117369996Y-37849999D03*
X117369996Y-37349999D03*
X117369996Y-36849999D03*
X117369996Y-36349999D03*
X117369996Y-35849999D03*
X117369996Y-35349999D03*
X117369996Y-34849999D03*
X117369996Y-34349999D03*
X117369996Y-33849999D03*
X117369996Y-33349999D03*
X117369996Y-32849999D03*
X117369996Y-32349999D03*
X117369996Y-31849999D03*
X117369996Y-31349999D03*
X117369996Y-30849999D03*
D15*
X120069996Y-47649999D03*
X120069996Y-28549999D03*
%TD*%
D16*
%TO.C,U1*%
X62175579Y-71039618D03*
X62458421Y-71322461D03*
X62741264Y-71605304D03*
X63024107Y-71888147D03*
X63306949Y-72170989D03*
X63589792Y-72453832D03*
X63872635Y-72736675D03*
X64155478Y-73019517D03*
X64438320Y-73302360D03*
X64721163Y-73585203D03*
X65004006Y-73868046D03*
X65286848Y-74150888D03*
X65569691Y-74433731D03*
X65852534Y-74716574D03*
X66135377Y-74999416D03*
D17*
X67054615Y-74999416D03*
X67337458Y-74716574D03*
X67620301Y-74433731D03*
X67903144Y-74150888D03*
X68185986Y-73868046D03*
X68468829Y-73585203D03*
X68751672Y-73302360D03*
X69034514Y-73019517D03*
X69317357Y-72736675D03*
X69600200Y-72453832D03*
X69883043Y-72170989D03*
X70165885Y-71888147D03*
X70448728Y-71605304D03*
X70731571Y-71322461D03*
X71014413Y-71039618D03*
D16*
X71014413Y-70120380D03*
X70731571Y-69837537D03*
X70448728Y-69554694D03*
X70165885Y-69271851D03*
X69883043Y-68989009D03*
X69600200Y-68706166D03*
X69317357Y-68423323D03*
X69034514Y-68140481D03*
X68751672Y-67857638D03*
X68468829Y-67574795D03*
X68185986Y-67291952D03*
X67903144Y-67009110D03*
X67620301Y-66726267D03*
X67337458Y-66443424D03*
X67054615Y-66160582D03*
D17*
X66135377Y-66160582D03*
X65852534Y-66443424D03*
X65569691Y-66726267D03*
X65286848Y-67009110D03*
X65004006Y-67291952D03*
X64721163Y-67574795D03*
X64438320Y-67857638D03*
X64155478Y-68140481D03*
X63872635Y-68423323D03*
X63589792Y-68706166D03*
X63306949Y-68989009D03*
X63024107Y-69271851D03*
X62741264Y-69554694D03*
X62458421Y-69837537D03*
X62175579Y-70120380D03*
D18*
X66594996Y-70579999D03*
%TD*%
M02*
