%TF.GenerationSoftware,KiCad,Pcbnew,(6.0.2)*%
%TF.CreationDate,2022-03-22T07:27:24-04:00*%
%TF.ProjectId,Panel_Design_2,50616e65-6c5f-4446-9573-69676e5f322e,rev?*%
%TF.SameCoordinates,Original*%
%TF.FileFunction,Soldermask,Top*%
%TF.FilePolarity,Negative*%
%FSLAX46Y46*%
G04 Gerber Fmt 4.6, Leading zero omitted, Abs format (unit mm)*
G04 Created by KiCad (PCBNEW (6.0.2)) date 2022-03-22 07:27:24*
%MOMM*%
%LPD*%
G01*
G04 APERTURE LIST*
G04 Aperture macros list*
%AMRotRect*
0 Rectangle, with rotation*
0 The origin of the aperture is its center*
0 $1 length*
0 $2 width*
0 $3 Rotation angle, in degrees counterclockwise*
0 Add horizontal line*
21,1,$1,$2,0,0,$3*%
G04 Aperture macros list end*
%ADD10C,0.500000*%
%ADD11R,1.700000X1.700000*%
%ADD12O,1.700000X1.700000*%
%ADD13R,2.000000X2.000000*%
%ADD14C,2.000000*%
%ADD15R,2.500000X3.000000*%
%ADD16R,1.000000X0.700000*%
%ADD17R,0.600000X0.700000*%
%ADD18RotRect,0.600000X1.475000X135.000000*%
%ADD19RotRect,0.600000X1.475000X45.000000*%
%ADD20R,1.000000X0.300000*%
%ADD21R,1.300000X2.000000*%
%ADD22RotRect,0.200000X0.850000X135.000000*%
%ADD23RotRect,0.200000X0.850000X45.000000*%
%ADD24RotRect,5.550000X5.550000X45.000000*%
G04 APERTURE END LIST*
D10*
%TO.C,mouse-bite-2mm-slot*%
X96244996Y-57629999D03*
X97744996Y-57629999D03*
X100744996Y-56129999D03*
X97744996Y-56129999D03*
X96244996Y-56129999D03*
X96994996Y-57629999D03*
X99244996Y-57629999D03*
X99994996Y-57629999D03*
X98494996Y-57629999D03*
X99994996Y-56129999D03*
X99244996Y-56129999D03*
X98494996Y-56129999D03*
X96994996Y-56129999D03*
X100744996Y-57629999D03*
%TD*%
D11*
%TO.C,J11*%
X107234996Y-22859999D03*
D12*
X104694996Y-22859999D03*
X102154996Y-22859999D03*
X99614996Y-22859999D03*
X97074996Y-22859999D03*
X94534996Y-22859999D03*
X91994996Y-22859999D03*
X89454996Y-22859999D03*
X86914996Y-22859999D03*
X84374996Y-22859999D03*
X81834996Y-22859999D03*
X79294996Y-22859999D03*
X76754996Y-22859999D03*
X74214996Y-22859999D03*
X71674996Y-22859999D03*
X69134996Y-22859999D03*
X66594996Y-22859999D03*
X64054996Y-22859999D03*
X61514996Y-22859999D03*
X58974996Y-22859999D03*
X56434996Y-22859999D03*
X53894996Y-22859999D03*
X51354996Y-22859999D03*
X48814996Y-22859999D03*
X46274996Y-22859999D03*
X43734996Y-22859999D03*
X41194996Y-22859999D03*
X38654996Y-22859999D03*
X36114996Y-22859999D03*
X33574996Y-22859999D03*
X31034996Y-22859999D03*
X28494996Y-22859999D03*
%TD*%
D11*
%TO.C,J19*%
X141714999Y-77769999D03*
D12*
X144254999Y-77769999D03*
%TD*%
D10*
%TO.C,mouse-bite-2mm-slot*%
X137424998Y-73669998D03*
X138924998Y-69919998D03*
X137424998Y-69919998D03*
X137424998Y-70669998D03*
X138924998Y-69169998D03*
X138924998Y-72919998D03*
X137424998Y-72919998D03*
X137424998Y-71419998D03*
X138924998Y-73669998D03*
X137424998Y-72169998D03*
X138924998Y-72169998D03*
X137424998Y-69169998D03*
X138924998Y-70669998D03*
X138924998Y-71419998D03*
%TD*%
%TO.C,mouse-bite-2mm-slot*%
X106444996Y-70419999D03*
X106444996Y-68169999D03*
X106444996Y-72669999D03*
X104944996Y-72669999D03*
X104944996Y-68919999D03*
X106444996Y-68919999D03*
X104944996Y-69669999D03*
X106444996Y-69669999D03*
X104944996Y-70419999D03*
X104944996Y-71919999D03*
X106444996Y-71919999D03*
X106444996Y-71169999D03*
X104944996Y-71169999D03*
X104944996Y-68169999D03*
%TD*%
D11*
%TO.C,J8*%
X116854997Y-83279999D03*
D12*
X119394997Y-83279999D03*
X121934997Y-83279999D03*
X124474997Y-83279999D03*
X127014997Y-83279999D03*
X129554997Y-83279999D03*
%TD*%
D11*
%TO.C,J1*%
X28494996Y-80739999D03*
D12*
X31034996Y-80739999D03*
X33574996Y-80739999D03*
X36114996Y-80739999D03*
X38654996Y-80739999D03*
X41194996Y-80739999D03*
X43734996Y-80739999D03*
X46274996Y-80739999D03*
X48814996Y-80739999D03*
X51354996Y-80739999D03*
X53894996Y-80739999D03*
X56434996Y-80739999D03*
X58974996Y-80739999D03*
X61514996Y-80739999D03*
X64054996Y-80739999D03*
X66594996Y-80739999D03*
X69134996Y-80739999D03*
X71674996Y-80739999D03*
X74214996Y-80739999D03*
X76754996Y-80739999D03*
X79294996Y-80739999D03*
X81834996Y-80739999D03*
X84374996Y-80739999D03*
X86914996Y-80739999D03*
X89454996Y-80739999D03*
X91994996Y-80739999D03*
X94534996Y-80739999D03*
X97074996Y-80739999D03*
X99614996Y-80739999D03*
X102154996Y-80739999D03*
%TD*%
D11*
%TO.C,J12*%
X116854997Y-60419999D03*
D12*
X119394997Y-60419999D03*
X121934997Y-60419999D03*
X124474997Y-60419999D03*
X127014997Y-60419999D03*
X129554997Y-60419999D03*
%TD*%
D10*
%TO.C,mouse-bite-2mm-slot*%
X111524996Y-48859999D03*
X110024996Y-49609999D03*
X111524996Y-45859999D03*
X111524996Y-48109999D03*
X110024996Y-46609999D03*
X110024996Y-48109999D03*
X110024996Y-45109999D03*
X111524996Y-49609999D03*
X110024996Y-48859999D03*
X110024996Y-47359999D03*
X111524996Y-46609999D03*
X111524996Y-45109999D03*
X110024996Y-45859999D03*
X111524996Y-47359999D03*
%TD*%
%TO.C,mouse-bite-2mm-slot*%
X126444996Y-56129999D03*
X122694996Y-57629999D03*
X126444996Y-57629999D03*
X124944996Y-57629999D03*
X124944996Y-56129999D03*
X124194996Y-57629999D03*
X122694996Y-56129999D03*
X121944996Y-57629999D03*
X125694996Y-57629999D03*
X124194996Y-56129999D03*
X123444996Y-57629999D03*
X123444996Y-56129999D03*
X125694996Y-56129999D03*
X121944996Y-56129999D03*
%TD*%
%TO.C,mouse-bite-2mm-slot*%
X111524996Y-29609999D03*
X111524996Y-28859999D03*
X111524996Y-26609999D03*
X110024996Y-28859999D03*
X111524996Y-31109999D03*
X111524996Y-27359999D03*
X110024996Y-30359999D03*
X111524996Y-28109999D03*
X110024996Y-27359999D03*
X111524996Y-30359999D03*
X110024996Y-26609999D03*
X110024996Y-31109999D03*
X110024996Y-28109999D03*
X110024996Y-29609999D03*
%TD*%
D13*
%TO.C,SW1*%
X112154997Y-78979999D03*
D14*
X117154997Y-78979999D03*
X114654997Y-78979999D03*
D15*
X120254997Y-71479999D03*
X109054997Y-71479999D03*
D14*
X112154997Y-64479999D03*
X117154997Y-64479999D03*
%TD*%
D16*
%TO.C,U3*%
X141714999Y-72549999D03*
D17*
X143414999Y-72549999D03*
X143414999Y-70549999D03*
X141514999Y-70549999D03*
%TD*%
D18*
%TO.C,IC1*%
X59420763Y-39328951D03*
X59986448Y-39894636D03*
X60552134Y-40460321D03*
X61117819Y-41026007D03*
X61683505Y-41591692D03*
X62249190Y-42157378D03*
X62814876Y-42723063D03*
X63380561Y-43288749D03*
X63946246Y-43854434D03*
X64511932Y-44420119D03*
X65077617Y-44985805D03*
X65643303Y-45551490D03*
X66208988Y-46117176D03*
X66774674Y-46682861D03*
X67340359Y-47248547D03*
X67906044Y-47814232D03*
D19*
X70363948Y-47814232D03*
X70929633Y-47248547D03*
X71495318Y-46682861D03*
X72061004Y-46117176D03*
X72626689Y-45551490D03*
X73192375Y-44985805D03*
X73758060Y-44420119D03*
X74323746Y-43854434D03*
X74889431Y-43288749D03*
X75455116Y-42723063D03*
X76020802Y-42157378D03*
X76586487Y-41591692D03*
X77152173Y-41026007D03*
X77717858Y-40460321D03*
X78283544Y-39894636D03*
X78849229Y-39328951D03*
D18*
X78849229Y-36871047D03*
X78283544Y-36305362D03*
X77717858Y-35739677D03*
X77152173Y-35173991D03*
X76586487Y-34608306D03*
X76020802Y-34042620D03*
X75455116Y-33476935D03*
X74889431Y-32911249D03*
X74323746Y-32345564D03*
X73758060Y-31779879D03*
X73192375Y-31214193D03*
X72626689Y-30648508D03*
X72061004Y-30082822D03*
X71495318Y-29517137D03*
X70929633Y-28951451D03*
X70363948Y-28385766D03*
D19*
X67906044Y-28385766D03*
X67340359Y-28951451D03*
X66774674Y-29517137D03*
X66208988Y-30082822D03*
X65643303Y-30648508D03*
X65077617Y-31214193D03*
X64511932Y-31779879D03*
X63946246Y-32345564D03*
X63380561Y-32911249D03*
X62814876Y-33476935D03*
X62249190Y-34042620D03*
X61683505Y-34608306D03*
X61117819Y-35173991D03*
X60552134Y-35739677D03*
X59986448Y-36305362D03*
X59420763Y-36871047D03*
%TD*%
D11*
%TO.C,J5*%
X102154996Y-60419999D03*
D12*
X99614996Y-60419999D03*
X97074996Y-60419999D03*
X94534996Y-60419999D03*
X91994996Y-60419999D03*
X89454996Y-60419999D03*
X86914996Y-60419999D03*
X84374996Y-60419999D03*
X81834996Y-60419999D03*
X79294996Y-60419999D03*
X76754996Y-60419999D03*
X74214996Y-60419999D03*
X71674996Y-60419999D03*
X69134996Y-60419999D03*
X66594996Y-60419999D03*
X64054996Y-60419999D03*
X61514996Y-60419999D03*
X58974996Y-60419999D03*
X56434996Y-60419999D03*
X53894996Y-60419999D03*
X51354996Y-60419999D03*
X48814996Y-60419999D03*
X46274996Y-60419999D03*
X43734996Y-60419999D03*
X41194996Y-60419999D03*
X38654996Y-60419999D03*
X36114996Y-60419999D03*
X33574996Y-60419999D03*
X31034996Y-60419999D03*
X28494996Y-60419999D03*
%TD*%
D11*
%TO.C,JOLED2*%
X114319996Y-22859999D03*
D12*
X116859996Y-22859999D03*
X119399996Y-22859999D03*
X121939996Y-22859999D03*
X124479996Y-22859999D03*
X127019996Y-22859999D03*
X129559996Y-22859999D03*
X132099996Y-22859999D03*
X134639996Y-22859999D03*
X137179996Y-22859999D03*
X139719996Y-22859999D03*
X142259996Y-22859999D03*
X144799996Y-22859999D03*
X147339996Y-22859999D03*
X149879996Y-22859999D03*
%TD*%
D13*
%TO.C,SW2*%
X127054997Y-78989999D03*
D14*
X132054997Y-78989999D03*
X129554997Y-78989999D03*
D15*
X123954997Y-71489999D03*
X135154997Y-71489999D03*
D14*
X127054997Y-64489999D03*
X132054997Y-64489999D03*
%TD*%
D20*
%TO.C,UOLED1*%
X117369996Y-45349999D03*
X117369996Y-44849999D03*
X117369996Y-44349999D03*
X117369996Y-43849999D03*
X117369996Y-43349999D03*
X117369996Y-42849999D03*
X117369996Y-42349999D03*
X117369996Y-41849999D03*
X117369996Y-41349999D03*
X117369996Y-40849999D03*
X117369996Y-40349999D03*
X117369996Y-39849999D03*
X117369996Y-39349999D03*
X117369996Y-38849999D03*
X117369996Y-38349999D03*
X117369996Y-37849999D03*
X117369996Y-37349999D03*
X117369996Y-36849999D03*
X117369996Y-36349999D03*
X117369996Y-35849999D03*
X117369996Y-35349999D03*
X117369996Y-34849999D03*
X117369996Y-34349999D03*
X117369996Y-33849999D03*
X117369996Y-33349999D03*
X117369996Y-32849999D03*
X117369996Y-32349999D03*
X117369996Y-31849999D03*
X117369996Y-31349999D03*
X117369996Y-30849999D03*
D21*
X120069996Y-47649999D03*
X120069996Y-28549999D03*
%TD*%
D10*
%TO.C,mouse-bite-2mm-slot*%
X35994996Y-57629999D03*
X36744996Y-57629999D03*
X39744996Y-57629999D03*
X38994996Y-57629999D03*
X35244996Y-56129999D03*
X37494996Y-57629999D03*
X35244996Y-57629999D03*
X35994996Y-56129999D03*
X39744996Y-56129999D03*
X38244996Y-57629999D03*
X38994996Y-56129999D03*
X36744996Y-56129999D03*
X37494996Y-56129999D03*
X38244996Y-56129999D03*
%TD*%
%TO.C,mouse-bite-2mm-slot*%
X67244996Y-56129999D03*
X68744996Y-56129999D03*
X67244996Y-57629999D03*
X68744996Y-57629999D03*
X70244996Y-56129999D03*
X65744996Y-57629999D03*
X69494996Y-57629999D03*
X69494996Y-56129999D03*
X67994996Y-56129999D03*
X70244996Y-57629999D03*
X67994996Y-57629999D03*
X65744996Y-56129999D03*
X66494996Y-57629999D03*
X66494996Y-56129999D03*
%TD*%
D11*
%TO.C,J3*%
X28494996Y-53339999D03*
D12*
X31034996Y-53339999D03*
X33574996Y-53339999D03*
X36114996Y-53339999D03*
X38654996Y-53339999D03*
X41194996Y-53339999D03*
X43734996Y-53339999D03*
X46274996Y-53339999D03*
X48814996Y-53339999D03*
X51354996Y-53339999D03*
X53894996Y-53339999D03*
X56434996Y-53339999D03*
X58974996Y-53339999D03*
X61514996Y-53339999D03*
X64054996Y-53339999D03*
X66594996Y-53339999D03*
X69134996Y-53339999D03*
X71674996Y-53339999D03*
X74214996Y-53339999D03*
X76754996Y-53339999D03*
X79294996Y-53339999D03*
X81834996Y-53339999D03*
X84374996Y-53339999D03*
X86914996Y-53339999D03*
X89454996Y-53339999D03*
X91994996Y-53339999D03*
X94534996Y-53339999D03*
X97074996Y-53339999D03*
X99614996Y-53339999D03*
X102154996Y-53339999D03*
X104694996Y-53339999D03*
X107234996Y-53339999D03*
%TD*%
D11*
%TO.C,J23*%
X144254999Y-65069999D03*
D12*
X141714999Y-65069999D03*
%TD*%
D11*
%TO.C,JOLED1*%
X114314996Y-53339999D03*
D12*
X116854996Y-53339999D03*
X119394996Y-53339999D03*
X121934996Y-53339999D03*
X124474996Y-53339999D03*
X127014996Y-53339999D03*
X129554996Y-53339999D03*
X132094996Y-53339999D03*
X134634996Y-53339999D03*
X137174996Y-53339999D03*
X139714996Y-53339999D03*
X142254996Y-53339999D03*
X144794996Y-53339999D03*
X147334996Y-53339999D03*
X149874996Y-53339999D03*
%TD*%
D22*
%TO.C,U1*%
X62175579Y-71039618D03*
X62458421Y-71322461D03*
X62741264Y-71605304D03*
X63024107Y-71888147D03*
X63306949Y-72170989D03*
X63589792Y-72453832D03*
X63872635Y-72736675D03*
X64155478Y-73019517D03*
X64438320Y-73302360D03*
X64721163Y-73585203D03*
X65004006Y-73868046D03*
X65286848Y-74150888D03*
X65569691Y-74433731D03*
X65852534Y-74716574D03*
X66135377Y-74999416D03*
D23*
X67054615Y-74999416D03*
X67337458Y-74716574D03*
X67620301Y-74433731D03*
X67903144Y-74150888D03*
X68185986Y-73868046D03*
X68468829Y-73585203D03*
X68751672Y-73302360D03*
X69034514Y-73019517D03*
X69317357Y-72736675D03*
X69600200Y-72453832D03*
X69883043Y-72170989D03*
X70165885Y-71888147D03*
X70448728Y-71605304D03*
X70731571Y-71322461D03*
X71014413Y-71039618D03*
D22*
X71014413Y-70120380D03*
X70731571Y-69837537D03*
X70448728Y-69554694D03*
X70165885Y-69271851D03*
X69883043Y-68989009D03*
X69600200Y-68706166D03*
X69317357Y-68423323D03*
X69034514Y-68140481D03*
X68751672Y-67857638D03*
X68468829Y-67574795D03*
X68185986Y-67291952D03*
X67903144Y-67009110D03*
X67620301Y-66726267D03*
X67337458Y-66443424D03*
X67054615Y-66160582D03*
D23*
X66135377Y-66160582D03*
X65852534Y-66443424D03*
X65569691Y-66726267D03*
X65286848Y-67009110D03*
X65004006Y-67291952D03*
X64721163Y-67574795D03*
X64438320Y-67857638D03*
X64155478Y-68140481D03*
X63872635Y-68423323D03*
X63589792Y-68706166D03*
X63306949Y-68989009D03*
X63024107Y-69271851D03*
X62741264Y-69554694D03*
X62458421Y-69837537D03*
X62175579Y-70120380D03*
D24*
X66594996Y-70579999D03*
%TD*%
M02*
