M48
INCH,TZ
T1C0.0197
%
G90
G05
T1
X13807Y-22327
X13807Y-22917
X14102Y-22327
X14102Y-22917
X14398Y-22327
X14398Y-22917
X14693Y-22327
X14693Y-22917
X14988Y-22327
X14988Y-22917
X15283Y-22327
X15283Y-22917
X15579Y-22327
X15579Y-22917
X25815Y-22327
X25815Y-22917
X26110Y-22327
X26110Y-22917
X26406Y-22327
X26406Y-22917
X26701Y-22327
X26701Y-22917
X26996Y-22327
X26996Y-22917
X27291Y-22327
X27291Y-22917
X27587Y-22327
X27587Y-22917
X37823Y-22327
X37823Y-22917
X38118Y-22327
X38118Y-22917
X38413Y-22327
X38413Y-22917
X38709Y-22327
X38709Y-22917
X39004Y-22327
X39004Y-22917
X39299Y-22327
X39299Y-22917
X39594Y-22327
X39594Y-22917
X41248Y-27067
X41248Y-27362
X41248Y-27657
X41248Y-27953
X41248Y-28248
X41248Y-28543
X41248Y-28839
X41839Y-27067
X41839Y-27362
X41839Y-27657
X41839Y-27953
X41839Y-28248
X41839Y-28543
X41839Y-28839
X43248Y-10705
X43248Y-11000
X43248Y-11295
X43248Y-11591
X43248Y-11886
X43248Y-12181
X43248Y-12476
X43248Y-17988
X43248Y-18283
X43248Y-18579
X43248Y-18874
X43248Y-19169
X43248Y-19465
X43248Y-19760
X43839Y-10705
X43839Y-11000
X43839Y-11295
X43839Y-11591
X43839Y-11886
X43839Y-12181
X43839Y-12476
X43839Y-17988
X43839Y-18283
X43839Y-18579
X43839Y-18874
X43839Y-19169
X43839Y-19465
X43839Y-19760
X47941Y-22327
X47941Y-22917
X48236Y-22327
X48236Y-22917
X48531Y-22327
X48531Y-22917
X48827Y-22327
X48827Y-22917
X49122Y-22327
X49122Y-22917
X49417Y-22327
X49417Y-22917
X49713Y-22327
X49713Y-22917
X54035Y-27461
X54035Y-27756
X54035Y-28051
X54035Y-28346
X54035Y-28642
X54035Y-28937
X54035Y-29232
X54626Y-27461
X54626Y-27756
X54626Y-28051
X54626Y-28346
X54626Y-28642
X54626Y-28937
X54626Y-29232
T0
M30
