%TF.GenerationSoftware,KiCad,Pcbnew,(6.0.2)*%
%TF.CreationDate,2022-03-21T20:11:02-04:00*%
%TF.ProjectId,Panel_Design_2,50616e65-6c5f-4446-9573-69676e5f322e,rev?*%
%TF.SameCoordinates,Original*%
%TF.FileFunction,Profile,NP*%
%FSLAX46Y46*%
G04 Gerber Fmt 4.6, Leading zero omitted, Abs format (unit mm)*
G04 Created by KiCad (PCBNEW (6.0.2)) date 2022-03-21 20:11:02*
%MOMM*%
%LPD*%
G01*
G04 APERTURE LIST*
%TA.AperFunction,Profile*%
%ADD10C,0.100000*%
%TD*%
G04 APERTURE END LIST*
D10*
X137000000Y-68500000D02*
G75*
G03*
X139000000Y-68500000I1000000J0D01*
G01*
X33819998Y-58460001D02*
X28319998Y-58460001D01*
X136999999Y-83860001D02*
X137000000Y-75500000D01*
X104519998Y-67500001D02*
X104519998Y-61000001D01*
X109599998Y-23440001D02*
X109599998Y-25940001D01*
X109599998Y-44440001D02*
X109599998Y-32940001D01*
X139000000Y-68500000D02*
X139000000Y-65650000D01*
X104519998Y-74500001D02*
X104519998Y-81320001D01*
X28319998Y-20900001D02*
X107059998Y-20900001D01*
X152239998Y-23440001D02*
G75*
G03*
X149699998Y-20900001I-2540001J-1D01*
G01*
X94819998Y-56460001D02*
X71319998Y-56460001D01*
X141540000Y-63110000D02*
G75*
G03*
X139000000Y-65650000I1J-2540001D01*
G01*
X104519998Y-61000001D02*
G75*
G03*
X101979998Y-58460001I-2540001J-1D01*
G01*
X146620001Y-78350001D02*
X146620001Y-65650001D01*
X111599998Y-51440001D02*
G75*
G03*
X109599998Y-51440001I-1000000J0D01*
G01*
X28319998Y-83860001D02*
X101979998Y-83860001D01*
X134459999Y-86400001D02*
G75*
G03*
X136999999Y-83860001I-1J2540001D01*
G01*
X139000000Y-75500000D02*
X139000001Y-78350001D01*
X139000000Y-75500000D02*
G75*
G03*
X137000000Y-75500000I-1000000J0D01*
G01*
X141540001Y-80890001D02*
X144080001Y-80890001D01*
X28319998Y-58460001D02*
G75*
G03*
X25779998Y-61000001I1J-2540001D01*
G01*
X111599998Y-32940001D02*
G75*
G03*
X109599998Y-32940001I-1000000J0D01*
G01*
X120519998Y-58460001D02*
X109059998Y-58460001D01*
X114139998Y-20900001D02*
G75*
G03*
X111599998Y-23440001I1J-2540001D01*
G01*
X25779998Y-81320001D02*
G75*
G03*
X28319998Y-83860001I2540001J1D01*
G01*
X111599998Y-25940001D02*
X111599998Y-23440001D01*
X107059998Y-56460001D02*
G75*
G03*
X109599998Y-53920001I-1J2540001D01*
G01*
X146620001Y-65650001D02*
G75*
G03*
X144080001Y-63110001I-2540001J-1D01*
G01*
X109059998Y-58460001D02*
G75*
G03*
X106519998Y-61000001I1J-2540001D01*
G01*
X114139998Y-56460001D02*
X120519998Y-56460001D01*
X106519998Y-74500001D02*
G75*
G03*
X104519998Y-74500001I-1000000J0D01*
G01*
X144080001Y-63110001D02*
X141540000Y-63110000D01*
X28319998Y-20900001D02*
G75*
G03*
X25779998Y-23440001I1J-2540001D01*
G01*
X109599998Y-51440001D02*
X109599998Y-53920001D01*
X107059998Y-56460001D02*
X101819998Y-56460001D01*
X25779998Y-53920001D02*
G75*
G03*
X28319998Y-56460001I2540001J1D01*
G01*
X137000000Y-61000000D02*
G75*
G03*
X134460000Y-58460000I-2540001J-1D01*
G01*
X109059999Y-86400001D02*
X134459999Y-86400001D01*
X64319998Y-58460001D02*
G75*
G03*
X64319998Y-56460001I0J1000000D01*
G01*
X149699998Y-20900001D02*
X114139998Y-20900001D01*
X40819998Y-58460001D02*
X64319998Y-58460001D01*
X111599998Y-53920001D02*
X111599998Y-51440001D01*
X109599998Y-23440001D02*
G75*
G03*
X107059998Y-20900001I-2540001J-1D01*
G01*
X139000001Y-78350001D02*
G75*
G03*
X141540001Y-80890001I2540001J1D01*
G01*
X127519998Y-58460001D02*
X134460000Y-58460000D01*
X33819998Y-58460001D02*
G75*
G03*
X33819998Y-56460001I0J1000000D01*
G01*
X144080001Y-80890001D02*
G75*
G03*
X146620001Y-78350001I-1J2540001D01*
G01*
X106519999Y-83860001D02*
G75*
G03*
X109059999Y-86400001I2540001J1D01*
G01*
X94819998Y-58460001D02*
G75*
G03*
X94819998Y-56460001I0J1000000D01*
G01*
X101979998Y-58460001D02*
X101819998Y-58460001D01*
X106519998Y-67500001D02*
X106519998Y-61000001D01*
X33819998Y-56460001D02*
X28319998Y-56460001D01*
X104519998Y-67500001D02*
G75*
G03*
X106519998Y-67500001I1000000J0D01*
G01*
X111599998Y-32940001D02*
X111599998Y-44440001D01*
X101819998Y-56460001D02*
G75*
G03*
X101819998Y-58460001I0J-1000000D01*
G01*
X137000000Y-68500000D02*
X137000000Y-61000000D01*
X106519998Y-74500001D02*
X106519999Y-83860001D01*
X109599998Y-44440001D02*
G75*
G03*
X111599998Y-44440001I1000000J0D01*
G01*
X64319998Y-56460001D02*
X40819998Y-56460001D01*
X152239998Y-53920001D02*
X152239998Y-23440001D01*
X127519998Y-56460001D02*
X149699998Y-56460001D01*
X127519998Y-56460001D02*
G75*
G03*
X127519998Y-58460001I0J-1000000D01*
G01*
X149699998Y-56460001D02*
G75*
G03*
X152239998Y-53920001I-1J2540001D01*
G01*
X40819998Y-56460001D02*
G75*
G03*
X40819998Y-58460001I0J-1000000D01*
G01*
X25779998Y-61000001D02*
X25779998Y-81320001D01*
X71319998Y-56460001D02*
G75*
G03*
X71319998Y-58460001I0J-1000000D01*
G01*
X109599998Y-25940001D02*
G75*
G03*
X111599998Y-25940001I1000000J0D01*
G01*
X94819998Y-58460001D02*
X71319998Y-58460001D01*
X111599998Y-53920001D02*
G75*
G03*
X114139998Y-56460001I2540001J1D01*
G01*
X101979998Y-83860001D02*
G75*
G03*
X104519998Y-81320001I-1J2540001D01*
G01*
X25779998Y-53920001D02*
X25779998Y-23440001D01*
X120519998Y-58460001D02*
G75*
G03*
X120519998Y-56460001I0J1000000D01*
G01*
M02*
