%TF.GenerationSoftware,KiCad,Pcbnew,(6.0.2)*%
%TF.CreationDate,2022-03-21T20:11:02-04:00*%
%TF.ProjectId,Panel_Design_2,50616e65-6c5f-4446-9573-69676e5f322e,rev?*%
%TF.SameCoordinates,Original*%
%TF.FileFunction,Legend,Top*%
%TF.FilePolarity,Positive*%
%FSLAX46Y46*%
G04 Gerber Fmt 4.6, Leading zero omitted, Abs format (unit mm)*
G04 Created by KiCad (PCBNEW (6.0.2)) date 2022-03-21 20:11:02*
%MOMM*%
%LPD*%
G01*
G04 APERTURE LIST*
%ADD10C,0.150000*%
%ADD11C,0.254000*%
%ADD12C,0.100000*%
%ADD13C,0.120000*%
%ADD14C,0.200000*%
%ADD15C,0.400000*%
G04 APERTURE END LIST*
D10*
X139992378Y-51570477D02*
X139992378Y-52141905D01*
X139992378Y-51856191D02*
X138992378Y-51856191D01*
X139135236Y-51951429D01*
X139230474Y-52046667D01*
X139278093Y-52141905D01*
X139992378Y-50618096D02*
X139992378Y-51189524D01*
X139992378Y-50903810D02*
X138992378Y-50903810D01*
X139135236Y-50999048D01*
X139230474Y-51094286D01*
X139278093Y-51189524D01*
X117162379Y-63254286D02*
X117162379Y-63825715D01*
X117162379Y-63540001D02*
X116162379Y-63540001D01*
X116305237Y-63635239D01*
X116400475Y-63730477D01*
X116448094Y-63825715D01*
X131467617Y-26741905D02*
X131419998Y-26694286D01*
X131372378Y-26599048D01*
X131372378Y-26360953D01*
X131419998Y-26265715D01*
X131467617Y-26218096D01*
X131562855Y-26170477D01*
X131658093Y-26170477D01*
X131800950Y-26218096D01*
X132372378Y-26789524D01*
X132372378Y-26170477D01*
X131372378Y-25837143D02*
X131372378Y-25218096D01*
X131753331Y-25551429D01*
X131753331Y-25408572D01*
X131800950Y-25313334D01*
X131848569Y-25265715D01*
X131943807Y-25218096D01*
X132181902Y-25218096D01*
X132277140Y-25265715D01*
X132324759Y-25313334D01*
X132372378Y-25408572D01*
X132372378Y-25694286D01*
X132324759Y-25789524D01*
X132277140Y-25837143D01*
X93907617Y-52141905D02*
X93859998Y-52094286D01*
X93812378Y-51999048D01*
X93812378Y-51760953D01*
X93859998Y-51665715D01*
X93907617Y-51618096D01*
X94002855Y-51570477D01*
X94098093Y-51570477D01*
X94240950Y-51618096D01*
X94812378Y-52189524D01*
X94812378Y-51570477D01*
X93812378Y-51237143D02*
X93812378Y-50570477D01*
X94812378Y-50999048D01*
X30312378Y-26765715D02*
X30312378Y-26956191D01*
X30359998Y-27051429D01*
X30407617Y-27099048D01*
X30550474Y-27194286D01*
X30740950Y-27241905D01*
X31121902Y-27241905D01*
X31217140Y-27194286D01*
X31264759Y-27146667D01*
X31312378Y-27051429D01*
X31312378Y-26860953D01*
X31264759Y-26765715D01*
X31217140Y-26718096D01*
X31121902Y-26670477D01*
X30883807Y-26670477D01*
X30788569Y-26718096D01*
X30740950Y-26765715D01*
X30693331Y-26860953D01*
X30693331Y-27051429D01*
X30740950Y-27146667D01*
X30788569Y-27194286D01*
X30883807Y-27241905D01*
X30312378Y-26337143D02*
X30312378Y-25718096D01*
X30693331Y-26051429D01*
X30693331Y-25908572D01*
X30740950Y-25813334D01*
X30788569Y-25765715D01*
X30883807Y-25718096D01*
X31121902Y-25718096D01*
X31217140Y-25765715D01*
X31264759Y-25813334D01*
X31312378Y-25908572D01*
X31312378Y-26194286D01*
X31264759Y-26289524D01*
X31217140Y-26337143D01*
X30359998Y-24765715D02*
X30312378Y-24860953D01*
X30312378Y-25003810D01*
X30359998Y-25146667D01*
X30455236Y-25241905D01*
X30550474Y-25289524D01*
X30740950Y-25337143D01*
X30883807Y-25337143D01*
X31074283Y-25289524D01*
X31169521Y-25241905D01*
X31264759Y-25146667D01*
X31312378Y-25003810D01*
X31312378Y-24908572D01*
X31264759Y-24765715D01*
X31217140Y-24718096D01*
X30883807Y-24718096D01*
X30883807Y-24908572D01*
X96447617Y-79541905D02*
X96399998Y-79494286D01*
X96352378Y-79399048D01*
X96352378Y-79160953D01*
X96399998Y-79065715D01*
X96447617Y-79018096D01*
X96542855Y-78970477D01*
X96638093Y-78970477D01*
X96780950Y-79018096D01*
X97352378Y-79589524D01*
X97352378Y-78970477D01*
X96780950Y-78399048D02*
X96733331Y-78494286D01*
X96685712Y-78541905D01*
X96590474Y-78589524D01*
X96542855Y-78589524D01*
X96447617Y-78541905D01*
X96399998Y-78494286D01*
X96352378Y-78399048D01*
X96352378Y-78208572D01*
X96399998Y-78113334D01*
X96447617Y-78065715D01*
X96542855Y-78018096D01*
X96590474Y-78018096D01*
X96685712Y-78065715D01*
X96733331Y-78113334D01*
X96780950Y-78208572D01*
X96780950Y-78399048D01*
X96828569Y-78494286D01*
X96876188Y-78541905D01*
X96971426Y-78589524D01*
X97161902Y-78589524D01*
X97257140Y-78541905D01*
X97304759Y-78494286D01*
X97352378Y-78399048D01*
X97352378Y-78208572D01*
X97304759Y-78113334D01*
X97257140Y-78065715D01*
X97161902Y-78018096D01*
X96971426Y-78018096D01*
X96876188Y-78065715D01*
X96828569Y-78113334D01*
X96780950Y-78208572D01*
X56712378Y-51570477D02*
X56712378Y-52141905D01*
X56712378Y-51856191D02*
X55712378Y-51856191D01*
X55855236Y-51951429D01*
X55950474Y-52046667D01*
X55998093Y-52141905D01*
X55807617Y-51189524D02*
X55759998Y-51141905D01*
X55712378Y-51046667D01*
X55712378Y-50808572D01*
X55759998Y-50713334D01*
X55807617Y-50665715D01*
X55902855Y-50618096D01*
X55998093Y-50618096D01*
X56140950Y-50665715D01*
X56712378Y-51237143D01*
X56712378Y-50618096D01*
X68745712Y-63825715D02*
X69412378Y-63825715D01*
X68364759Y-64063810D02*
X69079045Y-64301905D01*
X69079045Y-63682858D01*
X68745712Y-62873334D02*
X69412378Y-62873334D01*
X68364759Y-63111429D02*
X69079045Y-63349524D01*
X69079045Y-62730477D01*
X27772378Y-26265715D02*
X27772378Y-26456191D01*
X27819998Y-26551429D01*
X27867617Y-26599048D01*
X28010474Y-26694286D01*
X28200950Y-26741905D01*
X28581902Y-26741905D01*
X28677140Y-26694286D01*
X28724759Y-26646667D01*
X28772378Y-26551429D01*
X28772378Y-26360953D01*
X28724759Y-26265715D01*
X28677140Y-26218096D01*
X28581902Y-26170477D01*
X28343807Y-26170477D01*
X28248569Y-26218096D01*
X28200950Y-26265715D01*
X28153331Y-26360953D01*
X28153331Y-26551429D01*
X28200950Y-26646667D01*
X28248569Y-26694286D01*
X28343807Y-26741905D01*
X28105712Y-25313334D02*
X28772378Y-25313334D01*
X27724759Y-25551429D02*
X28439045Y-25789524D01*
X28439045Y-25170477D01*
X40472378Y-78589524D02*
X40472378Y-78780001D01*
X40519998Y-78875239D01*
X40567617Y-78922858D01*
X40710474Y-79018096D01*
X40900950Y-79065715D01*
X41281902Y-79065715D01*
X41377140Y-79018096D01*
X41424759Y-78970477D01*
X41472378Y-78875239D01*
X41472378Y-78684762D01*
X41424759Y-78589524D01*
X41377140Y-78541905D01*
X41281902Y-78494286D01*
X41043807Y-78494286D01*
X40948569Y-78541905D01*
X40900950Y-78589524D01*
X40853331Y-78684762D01*
X40853331Y-78875239D01*
X40900950Y-78970477D01*
X40948569Y-79018096D01*
X41043807Y-79065715D01*
X51632378Y-51570477D02*
X51632378Y-52141905D01*
X51632378Y-51856191D02*
X50632378Y-51856191D01*
X50775236Y-51951429D01*
X50870474Y-52046667D01*
X50918093Y-52141905D01*
X50632378Y-50951429D02*
X50632378Y-50856191D01*
X50679998Y-50760953D01*
X50727617Y-50713334D01*
X50822855Y-50665715D01*
X51013331Y-50618096D01*
X51251426Y-50618096D01*
X51441902Y-50665715D01*
X51537140Y-50713334D01*
X51584759Y-50760953D01*
X51632378Y-50856191D01*
X51632378Y-50951429D01*
X51584759Y-51046667D01*
X51537140Y-51094286D01*
X51441902Y-51141905D01*
X51251426Y-51189524D01*
X51013331Y-51189524D01*
X50822855Y-51141905D01*
X50727617Y-51094286D01*
X50679998Y-51046667D01*
X50632378Y-50951429D01*
X54172378Y-78970477D02*
X54172378Y-79541905D01*
X54172378Y-79256191D02*
X53172378Y-79256191D01*
X53315236Y-79351429D01*
X53410474Y-79446667D01*
X53458093Y-79541905D01*
X54172378Y-78018096D02*
X54172378Y-78589524D01*
X54172378Y-78303810D02*
X53172378Y-78303810D01*
X53315236Y-78399048D01*
X53410474Y-78494286D01*
X53458093Y-78589524D01*
X63332378Y-26218096D02*
X63332378Y-26694286D01*
X63808569Y-26741905D01*
X63760950Y-26694286D01*
X63713331Y-26599048D01*
X63713331Y-26360953D01*
X63760950Y-26265715D01*
X63808569Y-26218096D01*
X63903807Y-26170477D01*
X64141902Y-26170477D01*
X64237140Y-26218096D01*
X64284759Y-26265715D01*
X64332378Y-26360953D01*
X64332378Y-26599048D01*
X64284759Y-26694286D01*
X64237140Y-26741905D01*
X63332378Y-25551429D02*
X63332378Y-25456191D01*
X63379998Y-25360953D01*
X63427617Y-25313334D01*
X63522855Y-25265715D01*
X63713331Y-25218096D01*
X63951426Y-25218096D01*
X64141902Y-25265715D01*
X64237140Y-25313334D01*
X64284759Y-25360953D01*
X64332378Y-25456191D01*
X64332378Y-25551429D01*
X64284759Y-25646667D01*
X64237140Y-25694286D01*
X64141902Y-25741905D01*
X63951426Y-25789524D01*
X63713331Y-25789524D01*
X63522855Y-25741905D01*
X63427617Y-25694286D01*
X63379998Y-25646667D01*
X63332378Y-25551429D01*
X150152378Y-51570477D02*
X150152378Y-52141905D01*
X150152378Y-51856191D02*
X149152378Y-51856191D01*
X149295236Y-51951429D01*
X149390474Y-52046667D01*
X149438093Y-52141905D01*
X149152378Y-50665715D02*
X149152378Y-51141905D01*
X149628569Y-51189524D01*
X149580950Y-51141905D01*
X149533331Y-51046667D01*
X149533331Y-50808572D01*
X149580950Y-50713334D01*
X149628569Y-50665715D01*
X149723807Y-50618096D01*
X149961902Y-50618096D01*
X150057140Y-50665715D01*
X150104759Y-50713334D01*
X150152378Y-50808572D01*
X150152378Y-51046667D01*
X150104759Y-51141905D01*
X150057140Y-51189524D01*
X58585712Y-63825715D02*
X59252378Y-63825715D01*
X58204759Y-64063810D02*
X58919045Y-64301905D01*
X58919045Y-63682858D01*
X58680950Y-63159048D02*
X58633331Y-63254286D01*
X58585712Y-63301905D01*
X58490474Y-63349524D01*
X58442855Y-63349524D01*
X58347617Y-63301905D01*
X58299998Y-63254286D01*
X58252378Y-63159048D01*
X58252378Y-62968572D01*
X58299998Y-62873334D01*
X58347617Y-62825715D01*
X58442855Y-62778096D01*
X58490474Y-62778096D01*
X58585712Y-62825715D01*
X58633331Y-62873334D01*
X58680950Y-62968572D01*
X58680950Y-63159048D01*
X58728569Y-63254286D01*
X58776188Y-63301905D01*
X58871426Y-63349524D01*
X59061902Y-63349524D01*
X59157140Y-63301905D01*
X59204759Y-63254286D01*
X59252378Y-63159048D01*
X59252378Y-62968572D01*
X59204759Y-62873334D01*
X59157140Y-62825715D01*
X59061902Y-62778096D01*
X58871426Y-62778096D01*
X58776188Y-62825715D01*
X58728569Y-62873334D01*
X58680950Y-62968572D01*
X98892378Y-26789524D02*
X98892378Y-26170477D01*
X99273331Y-26503810D01*
X99273331Y-26360953D01*
X99320950Y-26265715D01*
X99368569Y-26218096D01*
X99463807Y-26170477D01*
X99701902Y-26170477D01*
X99797140Y-26218096D01*
X99844759Y-26265715D01*
X99892378Y-26360953D01*
X99892378Y-26646667D01*
X99844759Y-26741905D01*
X99797140Y-26789524D01*
X98892378Y-25313334D02*
X98892378Y-25503810D01*
X98939998Y-25599048D01*
X98987617Y-25646667D01*
X99130474Y-25741905D01*
X99320950Y-25789524D01*
X99701902Y-25789524D01*
X99797140Y-25741905D01*
X99844759Y-25694286D01*
X99892378Y-25599048D01*
X99892378Y-25408572D01*
X99844759Y-25313334D01*
X99797140Y-25265715D01*
X99701902Y-25218096D01*
X99463807Y-25218096D01*
X99368569Y-25265715D01*
X99320950Y-25313334D01*
X99273331Y-25408572D01*
X99273331Y-25599048D01*
X99320950Y-25694286D01*
X99368569Y-25741905D01*
X99463807Y-25789524D01*
X37932378Y-63778096D02*
X37932378Y-64254286D01*
X38408569Y-64301905D01*
X38360950Y-64254286D01*
X38313331Y-64159048D01*
X38313331Y-63920953D01*
X38360950Y-63825715D01*
X38408569Y-63778096D01*
X38503807Y-63730477D01*
X38741902Y-63730477D01*
X38837140Y-63778096D01*
X38884759Y-63825715D01*
X38932378Y-63920953D01*
X38932378Y-64159048D01*
X38884759Y-64254286D01*
X38837140Y-64301905D01*
X37932378Y-62873334D02*
X37932378Y-63063810D01*
X37979998Y-63159048D01*
X38027617Y-63206667D01*
X38170474Y-63301905D01*
X38360950Y-63349524D01*
X38741902Y-63349524D01*
X38837140Y-63301905D01*
X38884759Y-63254286D01*
X38932378Y-63159048D01*
X38932378Y-62968572D01*
X38884759Y-62873334D01*
X38837140Y-62825715D01*
X38741902Y-62778096D01*
X38503807Y-62778096D01*
X38408569Y-62825715D01*
X38360950Y-62873334D01*
X38313331Y-62968572D01*
X38313331Y-63159048D01*
X38360950Y-63254286D01*
X38408569Y-63301905D01*
X38503807Y-63349524D01*
X30407617Y-79065715D02*
X30359998Y-79018096D01*
X30312378Y-78922858D01*
X30312378Y-78684762D01*
X30359998Y-78589524D01*
X30407617Y-78541905D01*
X30502855Y-78494286D01*
X30598093Y-78494286D01*
X30740950Y-78541905D01*
X31312378Y-79113334D01*
X31312378Y-78494286D01*
X83985712Y-26265715D02*
X84652378Y-26265715D01*
X83604759Y-26503810D02*
X84319045Y-26741905D01*
X84319045Y-26122858D01*
X83747617Y-25789524D02*
X83699998Y-25741905D01*
X83652378Y-25646667D01*
X83652378Y-25408572D01*
X83699998Y-25313334D01*
X83747617Y-25265715D01*
X83842855Y-25218096D01*
X83938093Y-25218096D01*
X84080950Y-25265715D01*
X84652378Y-25837143D01*
X84652378Y-25218096D01*
X127227141Y-81010477D02*
X127274760Y-81058096D01*
X127322379Y-81200953D01*
X127322379Y-81296191D01*
X127274760Y-81439048D01*
X127179522Y-81534286D01*
X127084284Y-81581905D01*
X126893808Y-81629524D01*
X126750951Y-81629524D01*
X126560475Y-81581905D01*
X126465237Y-81534286D01*
X126369999Y-81439048D01*
X126322379Y-81296191D01*
X126322379Y-81200953D01*
X126369999Y-81058096D01*
X126417618Y-81010477D01*
X83747617Y-79541905D02*
X83699998Y-79494286D01*
X83652378Y-79399048D01*
X83652378Y-79160953D01*
X83699998Y-79065715D01*
X83747617Y-79018096D01*
X83842855Y-78970477D01*
X83938093Y-78970477D01*
X84080950Y-79018096D01*
X84652378Y-79589524D01*
X84652378Y-78970477D01*
X83652378Y-78637143D02*
X83652378Y-78018096D01*
X84033331Y-78351429D01*
X84033331Y-78208572D01*
X84080950Y-78113334D01*
X84128569Y-78065715D01*
X84223807Y-78018096D01*
X84461902Y-78018096D01*
X84557140Y-78065715D01*
X84604759Y-78113334D01*
X84652378Y-78208572D01*
X84652378Y-78494286D01*
X84604759Y-78589524D01*
X84557140Y-78637143D01*
X114592378Y-26170477D02*
X114592378Y-26741905D01*
X114592378Y-26456191D02*
X113592378Y-26456191D01*
X113735236Y-26551429D01*
X113830474Y-26646667D01*
X113878093Y-26741905D01*
X113592378Y-25313334D02*
X113592378Y-25503810D01*
X113639998Y-25599048D01*
X113687617Y-25646667D01*
X113830474Y-25741905D01*
X114020950Y-25789524D01*
X114401902Y-25789524D01*
X114497140Y-25741905D01*
X114544759Y-25694286D01*
X114592378Y-25599048D01*
X114592378Y-25408572D01*
X114544759Y-25313334D01*
X114497140Y-25265715D01*
X114401902Y-25218096D01*
X114163807Y-25218096D01*
X114068569Y-25265715D01*
X114020950Y-25313334D01*
X113973331Y-25408572D01*
X113973331Y-25599048D01*
X114020950Y-25694286D01*
X114068569Y-25741905D01*
X114163807Y-25789524D01*
X43012378Y-51713334D02*
X43012378Y-51046667D01*
X44012378Y-51475239D01*
X76127617Y-52141905D02*
X76079998Y-52094286D01*
X76032378Y-51999048D01*
X76032378Y-51760953D01*
X76079998Y-51665715D01*
X76127617Y-51618096D01*
X76222855Y-51570477D01*
X76318093Y-51570477D01*
X76460950Y-51618096D01*
X77032378Y-52189524D01*
X77032378Y-51570477D01*
X76032378Y-50951429D02*
X76032378Y-50856191D01*
X76079998Y-50760953D01*
X76127617Y-50713334D01*
X76222855Y-50665715D01*
X76413331Y-50618096D01*
X76651426Y-50618096D01*
X76841902Y-50665715D01*
X76937140Y-50713334D01*
X76984759Y-50760953D01*
X77032378Y-50856191D01*
X77032378Y-50951429D01*
X76984759Y-51046667D01*
X76937140Y-51094286D01*
X76841902Y-51141905D01*
X76651426Y-51189524D01*
X76413331Y-51189524D01*
X76222855Y-51141905D01*
X76127617Y-51094286D01*
X76079998Y-51046667D01*
X76032378Y-50951429D01*
X86287617Y-52141905D02*
X86239998Y-52094286D01*
X86192378Y-51999048D01*
X86192378Y-51760953D01*
X86239998Y-51665715D01*
X86287617Y-51618096D01*
X86382855Y-51570477D01*
X86478093Y-51570477D01*
X86620950Y-51618096D01*
X87192378Y-52189524D01*
X87192378Y-51570477D01*
X86525712Y-50713334D02*
X87192378Y-50713334D01*
X86144759Y-50951429D02*
X86859045Y-51189524D01*
X86859045Y-50570477D01*
X64332378Y-51570477D02*
X64332378Y-52141905D01*
X64332378Y-51856191D02*
X63332378Y-51856191D01*
X63475236Y-51951429D01*
X63570474Y-52046667D01*
X63618093Y-52141905D01*
X63332378Y-50665715D02*
X63332378Y-51141905D01*
X63808569Y-51189524D01*
X63760950Y-51141905D01*
X63713331Y-51046667D01*
X63713331Y-50808572D01*
X63760950Y-50713334D01*
X63808569Y-50665715D01*
X63903807Y-50618096D01*
X64141902Y-50618096D01*
X64237140Y-50665715D01*
X64284759Y-50713334D01*
X64332378Y-50808572D01*
X64332378Y-51046667D01*
X64284759Y-51141905D01*
X64237140Y-51189524D01*
X45552378Y-26218096D02*
X45552378Y-26694286D01*
X46028569Y-26741905D01*
X45980950Y-26694286D01*
X45933331Y-26599048D01*
X45933331Y-26360953D01*
X45980950Y-26265715D01*
X46028569Y-26218096D01*
X46123807Y-26170477D01*
X46361902Y-26170477D01*
X46457140Y-26218096D01*
X46504759Y-26265715D01*
X46552378Y-26360953D01*
X46552378Y-26599048D01*
X46504759Y-26694286D01*
X46457140Y-26741905D01*
X45552378Y-25837143D02*
X45552378Y-25170477D01*
X46552378Y-25599048D01*
X50632378Y-26218096D02*
X50632378Y-26694286D01*
X51108569Y-26741905D01*
X51060950Y-26694286D01*
X51013331Y-26599048D01*
X51013331Y-26360953D01*
X51060950Y-26265715D01*
X51108569Y-26218096D01*
X51203807Y-26170477D01*
X51441902Y-26170477D01*
X51537140Y-26218096D01*
X51584759Y-26265715D01*
X51632378Y-26360953D01*
X51632378Y-26599048D01*
X51584759Y-26694286D01*
X51537140Y-26741905D01*
X50632378Y-25265715D02*
X50632378Y-25741905D01*
X51108569Y-25789524D01*
X51060950Y-25741905D01*
X51013331Y-25646667D01*
X51013331Y-25408572D01*
X51060950Y-25313334D01*
X51108569Y-25265715D01*
X51203807Y-25218096D01*
X51441902Y-25218096D01*
X51537140Y-25265715D01*
X51584759Y-25313334D01*
X51632378Y-25408572D01*
X51632378Y-25646667D01*
X51584759Y-25741905D01*
X51537140Y-25789524D01*
X76127617Y-79541905D02*
X76079998Y-79494286D01*
X76032378Y-79399048D01*
X76032378Y-79160953D01*
X76079998Y-79065715D01*
X76127617Y-79018096D01*
X76222855Y-78970477D01*
X76318093Y-78970477D01*
X76460950Y-79018096D01*
X77032378Y-79589524D01*
X77032378Y-78970477D01*
X76032378Y-78351429D02*
X76032378Y-78256191D01*
X76079998Y-78160953D01*
X76127617Y-78113334D01*
X76222855Y-78065715D01*
X76413331Y-78018096D01*
X76651426Y-78018096D01*
X76841902Y-78065715D01*
X76937140Y-78113334D01*
X76984759Y-78160953D01*
X77032378Y-78256191D01*
X77032378Y-78351429D01*
X76984759Y-78446667D01*
X76937140Y-78494286D01*
X76841902Y-78541905D01*
X76651426Y-78589524D01*
X76413331Y-78589524D01*
X76222855Y-78541905D01*
X76127617Y-78494286D01*
X76079998Y-78446667D01*
X76032378Y-78351429D01*
X101432378Y-52189524D02*
X101432378Y-51570477D01*
X101813331Y-51903810D01*
X101813331Y-51760953D01*
X101860950Y-51665715D01*
X101908569Y-51618096D01*
X102003807Y-51570477D01*
X102241902Y-51570477D01*
X102337140Y-51618096D01*
X102384759Y-51665715D01*
X102432378Y-51760953D01*
X102432378Y-52046667D01*
X102384759Y-52141905D01*
X102337140Y-52189524D01*
X101432378Y-50951429D02*
X101432378Y-50856191D01*
X101479998Y-50760953D01*
X101527617Y-50713334D01*
X101622855Y-50665715D01*
X101813331Y-50618096D01*
X102051426Y-50618096D01*
X102241902Y-50665715D01*
X102337140Y-50713334D01*
X102384759Y-50760953D01*
X102432378Y-50856191D01*
X102432378Y-50951429D01*
X102384759Y-51046667D01*
X102337140Y-51094286D01*
X102241902Y-51141905D01*
X102051426Y-51189524D01*
X101813331Y-51189524D01*
X101622855Y-51141905D01*
X101527617Y-51094286D01*
X101479998Y-51046667D01*
X101432378Y-50951429D01*
X129338570Y-81248572D02*
X129386189Y-81105715D01*
X129433808Y-81058096D01*
X129529046Y-81010477D01*
X129671903Y-81010477D01*
X129767141Y-81058096D01*
X129814760Y-81105715D01*
X129862379Y-81200953D01*
X129862379Y-81581905D01*
X128862379Y-81581905D01*
X128862379Y-81248572D01*
X128909999Y-81153334D01*
X128957618Y-81105715D01*
X129052856Y-81058096D01*
X129148094Y-81058096D01*
X129243332Y-81105715D01*
X129290951Y-81153334D01*
X129338570Y-81248572D01*
X129338570Y-81581905D01*
X32852378Y-79113334D02*
X32852378Y-78494286D01*
X33233331Y-78827620D01*
X33233331Y-78684762D01*
X33280950Y-78589524D01*
X33328569Y-78541905D01*
X33423807Y-78494286D01*
X33661902Y-78494286D01*
X33757140Y-78541905D01*
X33804759Y-78589524D01*
X33852378Y-78684762D01*
X33852378Y-78970477D01*
X33804759Y-79065715D01*
X33757140Y-79113334D01*
X88827617Y-52141905D02*
X88779998Y-52094286D01*
X88732378Y-51999048D01*
X88732378Y-51760953D01*
X88779998Y-51665715D01*
X88827617Y-51618096D01*
X88922855Y-51570477D01*
X89018093Y-51570477D01*
X89160950Y-51618096D01*
X89732378Y-52189524D01*
X89732378Y-51570477D01*
X88732378Y-50665715D02*
X88732378Y-51141905D01*
X89208569Y-51189524D01*
X89160950Y-51141905D01*
X89113331Y-51046667D01*
X89113331Y-50808572D01*
X89160950Y-50713334D01*
X89208569Y-50665715D01*
X89303807Y-50618096D01*
X89541902Y-50618096D01*
X89637140Y-50665715D01*
X89684759Y-50713334D01*
X89732378Y-50808572D01*
X89732378Y-51046667D01*
X89684759Y-51141905D01*
X89637140Y-51189524D01*
X45980950Y-51475239D02*
X45933331Y-51570477D01*
X45885712Y-51618096D01*
X45790474Y-51665715D01*
X45742855Y-51665715D01*
X45647617Y-51618096D01*
X45599998Y-51570477D01*
X45552378Y-51475239D01*
X45552378Y-51284762D01*
X45599998Y-51189524D01*
X45647617Y-51141905D01*
X45742855Y-51094286D01*
X45790474Y-51094286D01*
X45885712Y-51141905D01*
X45933331Y-51189524D01*
X45980950Y-51284762D01*
X45980950Y-51475239D01*
X46028569Y-51570477D01*
X46076188Y-51618096D01*
X46171426Y-51665715D01*
X46361902Y-51665715D01*
X46457140Y-51618096D01*
X46504759Y-51570477D01*
X46552378Y-51475239D01*
X46552378Y-51284762D01*
X46504759Y-51189524D01*
X46457140Y-51141905D01*
X46361902Y-51094286D01*
X46171426Y-51094286D01*
X46076188Y-51141905D01*
X46028569Y-51189524D01*
X45980950Y-51284762D01*
X101432378Y-79589524D02*
X101432378Y-78970477D01*
X101813331Y-79303810D01*
X101813331Y-79160953D01*
X101860950Y-79065715D01*
X101908569Y-79018096D01*
X102003807Y-78970477D01*
X102241902Y-78970477D01*
X102337140Y-79018096D01*
X102384759Y-79065715D01*
X102432378Y-79160953D01*
X102432378Y-79446667D01*
X102384759Y-79541905D01*
X102337140Y-79589524D01*
X101432378Y-78351429D02*
X101432378Y-78256191D01*
X101479998Y-78160953D01*
X101527617Y-78113334D01*
X101622855Y-78065715D01*
X101813331Y-78018096D01*
X102051426Y-78018096D01*
X102241902Y-78065715D01*
X102337140Y-78113334D01*
X102384759Y-78160953D01*
X102432378Y-78256191D01*
X102432378Y-78351429D01*
X102384759Y-78446667D01*
X102337140Y-78494286D01*
X102241902Y-78541905D01*
X102051426Y-78589524D01*
X101813331Y-78589524D01*
X101622855Y-78541905D01*
X101527617Y-78494286D01*
X101479998Y-78446667D01*
X101432378Y-78351429D01*
X98987617Y-79541905D02*
X98939998Y-79494286D01*
X98892378Y-79399048D01*
X98892378Y-79160953D01*
X98939998Y-79065715D01*
X98987617Y-79018096D01*
X99082855Y-78970477D01*
X99178093Y-78970477D01*
X99320950Y-79018096D01*
X99892378Y-79589524D01*
X99892378Y-78970477D01*
X99892378Y-78494286D02*
X99892378Y-78303810D01*
X99844759Y-78208572D01*
X99797140Y-78160953D01*
X99654283Y-78065715D01*
X99463807Y-78018096D01*
X99082855Y-78018096D01*
X98987617Y-78065715D01*
X98939998Y-78113334D01*
X98892378Y-78208572D01*
X98892378Y-78399048D01*
X98939998Y-78494286D01*
X98987617Y-78541905D01*
X99082855Y-78589524D01*
X99320950Y-78589524D01*
X99416188Y-78541905D01*
X99463807Y-78494286D01*
X99511426Y-78399048D01*
X99511426Y-78208572D01*
X99463807Y-78113334D01*
X99416188Y-78065715D01*
X99320950Y-78018096D01*
X40472378Y-26218096D02*
X40472378Y-26694286D01*
X40948569Y-26741905D01*
X40900950Y-26694286D01*
X40853331Y-26599048D01*
X40853331Y-26360953D01*
X40900950Y-26265715D01*
X40948569Y-26218096D01*
X41043807Y-26170477D01*
X41281902Y-26170477D01*
X41377140Y-26218096D01*
X41424759Y-26265715D01*
X41472378Y-26360953D01*
X41472378Y-26599048D01*
X41424759Y-26694286D01*
X41377140Y-26741905D01*
X41472378Y-25694286D02*
X41472378Y-25503810D01*
X41424759Y-25408572D01*
X41377140Y-25360953D01*
X41234283Y-25265715D01*
X41043807Y-25218096D01*
X40662855Y-25218096D01*
X40567617Y-25265715D01*
X40519998Y-25313334D01*
X40472378Y-25408572D01*
X40472378Y-25599048D01*
X40519998Y-25694286D01*
X40567617Y-25741905D01*
X40662855Y-25789524D01*
X40900950Y-25789524D01*
X40996188Y-25741905D01*
X41043807Y-25694286D01*
X41091426Y-25599048D01*
X41091426Y-25408572D01*
X41043807Y-25313334D01*
X40996188Y-25265715D01*
X40900950Y-25218096D01*
X71952378Y-51570477D02*
X71952378Y-52141905D01*
X71952378Y-51856191D02*
X70952378Y-51856191D01*
X71095236Y-51951429D01*
X71190474Y-52046667D01*
X71238093Y-52141905D01*
X71380950Y-50999048D02*
X71333331Y-51094286D01*
X71285712Y-51141905D01*
X71190474Y-51189524D01*
X71142855Y-51189524D01*
X71047617Y-51141905D01*
X70999998Y-51094286D01*
X70952378Y-50999048D01*
X70952378Y-50808572D01*
X70999998Y-50713334D01*
X71047617Y-50665715D01*
X71142855Y-50618096D01*
X71190474Y-50618096D01*
X71285712Y-50665715D01*
X71333331Y-50713334D01*
X71380950Y-50808572D01*
X71380950Y-50999048D01*
X71428569Y-51094286D01*
X71476188Y-51141905D01*
X71571426Y-51189524D01*
X71761902Y-51189524D01*
X71857140Y-51141905D01*
X71904759Y-51094286D01*
X71952378Y-50999048D01*
X71952378Y-50808572D01*
X71904759Y-50713334D01*
X71857140Y-50665715D01*
X71761902Y-50618096D01*
X71571426Y-50618096D01*
X71476188Y-50665715D01*
X71428569Y-50713334D01*
X71380950Y-50808572D01*
X147612378Y-51570477D02*
X147612378Y-52141905D01*
X147612378Y-51856191D02*
X146612378Y-51856191D01*
X146755236Y-51951429D01*
X146850474Y-52046667D01*
X146898093Y-52141905D01*
X146945712Y-50713334D02*
X147612378Y-50713334D01*
X146564759Y-50951429D02*
X147279045Y-51189524D01*
X147279045Y-50570477D01*
X145072378Y-51570477D02*
X145072378Y-52141905D01*
X145072378Y-51856191D02*
X144072378Y-51856191D01*
X144215236Y-51951429D01*
X144310474Y-52046667D01*
X144358093Y-52141905D01*
X144072378Y-51237143D02*
X144072378Y-50618096D01*
X144453331Y-50951429D01*
X144453331Y-50808572D01*
X144500950Y-50713334D01*
X144548569Y-50665715D01*
X144643807Y-50618096D01*
X144881902Y-50618096D01*
X144977140Y-50665715D01*
X145024759Y-50713334D01*
X145072378Y-50808572D01*
X145072378Y-51094286D01*
X145024759Y-51189524D01*
X144977140Y-51237143D01*
X74492378Y-51570477D02*
X74492378Y-52141905D01*
X74492378Y-51856191D02*
X73492378Y-51856191D01*
X73635236Y-51951429D01*
X73730474Y-52046667D01*
X73778093Y-52141905D01*
X74492378Y-51094286D02*
X74492378Y-50903810D01*
X74444759Y-50808572D01*
X74397140Y-50760953D01*
X74254283Y-50665715D01*
X74063807Y-50618096D01*
X73682855Y-50618096D01*
X73587617Y-50665715D01*
X73539998Y-50713334D01*
X73492378Y-50808572D01*
X73492378Y-50999048D01*
X73539998Y-51094286D01*
X73587617Y-51141905D01*
X73682855Y-51189524D01*
X73920950Y-51189524D01*
X74016188Y-51141905D01*
X74063807Y-51094286D01*
X74111426Y-50999048D01*
X74111426Y-50808572D01*
X74063807Y-50713334D01*
X74016188Y-50665715D01*
X73920950Y-50618096D01*
X78905712Y-63825715D02*
X79572378Y-63825715D01*
X78524759Y-64063810D02*
X79239045Y-64301905D01*
X79239045Y-63682858D01*
X78572378Y-63111429D02*
X78572378Y-63016191D01*
X78619998Y-62920953D01*
X78667617Y-62873334D01*
X78762855Y-62825715D01*
X78953331Y-62778096D01*
X79191426Y-62778096D01*
X79381902Y-62825715D01*
X79477140Y-62873334D01*
X79524759Y-62920953D01*
X79572378Y-63016191D01*
X79572378Y-63111429D01*
X79524759Y-63206667D01*
X79477140Y-63254286D01*
X79381902Y-63301905D01*
X79191426Y-63349524D01*
X78953331Y-63349524D01*
X78762855Y-63301905D01*
X78667617Y-63254286D01*
X78619998Y-63206667D01*
X78572378Y-63111429D01*
X61792378Y-51570477D02*
X61792378Y-52141905D01*
X61792378Y-51856191D02*
X60792378Y-51856191D01*
X60935236Y-51951429D01*
X61030474Y-52046667D01*
X61078093Y-52141905D01*
X61125712Y-50713334D02*
X61792378Y-50713334D01*
X60744759Y-50951429D02*
X61459045Y-51189524D01*
X61459045Y-50570477D01*
X69412378Y-78970477D02*
X69412378Y-79541905D01*
X69412378Y-79256191D02*
X68412378Y-79256191D01*
X68555236Y-79351429D01*
X68650474Y-79446667D01*
X68698093Y-79541905D01*
X68412378Y-78637143D02*
X68412378Y-77970477D01*
X69412378Y-78399048D01*
X141992381Y-76024286D02*
X141992381Y-76595715D01*
X141992381Y-76310001D02*
X140992381Y-76310001D01*
X141135239Y-76405239D01*
X141230477Y-76500477D01*
X141278096Y-76595715D01*
X141040001Y-75071905D02*
X140992381Y-75167143D01*
X140992381Y-75310001D01*
X141040001Y-75452858D01*
X141135239Y-75548096D01*
X141230477Y-75595715D01*
X141420953Y-75643334D01*
X141563810Y-75643334D01*
X141754286Y-75595715D01*
X141849524Y-75548096D01*
X141944762Y-75452858D01*
X141992381Y-75310001D01*
X141992381Y-75214762D01*
X141944762Y-75071905D01*
X141897143Y-75024286D01*
X141563810Y-75024286D01*
X141563810Y-75214762D01*
X127322379Y-63254286D02*
X127322379Y-63825715D01*
X127322379Y-63540001D02*
X126322379Y-63540001D01*
X126465237Y-63635239D01*
X126560475Y-63730477D01*
X126608094Y-63825715D01*
X139087617Y-26741905D02*
X139039998Y-26694286D01*
X138992378Y-26599048D01*
X138992378Y-26360953D01*
X139039998Y-26265715D01*
X139087617Y-26218096D01*
X139182855Y-26170477D01*
X139278093Y-26170477D01*
X139420950Y-26218096D01*
X139992378Y-26789524D01*
X139992378Y-26170477D01*
X138992378Y-25313334D02*
X138992378Y-25503810D01*
X139039998Y-25599048D01*
X139087617Y-25646667D01*
X139230474Y-25741905D01*
X139420950Y-25789524D01*
X139801902Y-25789524D01*
X139897140Y-25741905D01*
X139944759Y-25694286D01*
X139992378Y-25599048D01*
X139992378Y-25408572D01*
X139944759Y-25313334D01*
X139897140Y-25265715D01*
X139801902Y-25218096D01*
X139563807Y-25218096D01*
X139468569Y-25265715D01*
X139420950Y-25313334D01*
X139373331Y-25408572D01*
X139373331Y-25599048D01*
X139420950Y-25694286D01*
X139468569Y-25741905D01*
X139563807Y-25789524D01*
X30407617Y-51665715D02*
X30359998Y-51618096D01*
X30312378Y-51522858D01*
X30312378Y-51284762D01*
X30359998Y-51189524D01*
X30407617Y-51141905D01*
X30502855Y-51094286D01*
X30598093Y-51094286D01*
X30740950Y-51141905D01*
X31312378Y-51713334D01*
X31312378Y-51094286D01*
X106542378Y-26789524D02*
X106542378Y-26170477D01*
X106923331Y-26503810D01*
X106923331Y-26360953D01*
X106970950Y-26265715D01*
X107018569Y-26218096D01*
X107113807Y-26170477D01*
X107351902Y-26170477D01*
X107447140Y-26218096D01*
X107494759Y-26265715D01*
X107542378Y-26360953D01*
X107542378Y-26646667D01*
X107494759Y-26741905D01*
X107447140Y-26789524D01*
X106542378Y-25837143D02*
X106542378Y-25218096D01*
X106923331Y-25551429D01*
X106923331Y-25408572D01*
X106970950Y-25313334D01*
X107018569Y-25265715D01*
X107113807Y-25218096D01*
X107351902Y-25218096D01*
X107447140Y-25265715D01*
X107494759Y-25313334D01*
X107542378Y-25408572D01*
X107542378Y-25694286D01*
X107494759Y-25789524D01*
X107447140Y-25837143D01*
X137452378Y-51570477D02*
X137452378Y-52141905D01*
X137452378Y-51856191D02*
X136452378Y-51856191D01*
X136595236Y-51951429D01*
X136690474Y-52046667D01*
X136738093Y-52141905D01*
X136452378Y-50951429D02*
X136452378Y-50856191D01*
X136499998Y-50760953D01*
X136547617Y-50713334D01*
X136642855Y-50665715D01*
X136833331Y-50618096D01*
X137071426Y-50618096D01*
X137261902Y-50665715D01*
X137357140Y-50713334D01*
X137404759Y-50760953D01*
X137452378Y-50856191D01*
X137452378Y-50951429D01*
X137404759Y-51046667D01*
X137357140Y-51094286D01*
X137261902Y-51141905D01*
X137071426Y-51189524D01*
X136833331Y-51189524D01*
X136642855Y-51141905D01*
X136547617Y-51094286D01*
X136499998Y-51046667D01*
X136452378Y-50951429D01*
X76365712Y-63825715D02*
X77032378Y-63825715D01*
X75984759Y-64063810D02*
X76699045Y-64301905D01*
X76699045Y-63682858D01*
X77032378Y-62778096D02*
X77032378Y-63349524D01*
X77032378Y-63063810D02*
X76032378Y-63063810D01*
X76175236Y-63159048D01*
X76270474Y-63254286D01*
X76318093Y-63349524D01*
X45980950Y-78875239D02*
X45933331Y-78970477D01*
X45885712Y-79018096D01*
X45790474Y-79065715D01*
X45742855Y-79065715D01*
X45647617Y-79018096D01*
X45599998Y-78970477D01*
X45552378Y-78875239D01*
X45552378Y-78684762D01*
X45599998Y-78589524D01*
X45647617Y-78541905D01*
X45742855Y-78494286D01*
X45790474Y-78494286D01*
X45885712Y-78541905D01*
X45933331Y-78589524D01*
X45980950Y-78684762D01*
X45980950Y-78875239D01*
X46028569Y-78970477D01*
X46076188Y-79018096D01*
X46171426Y-79065715D01*
X46361902Y-79065715D01*
X46457140Y-79018096D01*
X46504759Y-78970477D01*
X46552378Y-78875239D01*
X46552378Y-78684762D01*
X46504759Y-78589524D01*
X46457140Y-78541905D01*
X46361902Y-78494286D01*
X46171426Y-78494286D01*
X46076188Y-78541905D01*
X46028569Y-78589524D01*
X45980950Y-78684762D01*
X96447617Y-52141905D02*
X96399998Y-52094286D01*
X96352378Y-51999048D01*
X96352378Y-51760953D01*
X96399998Y-51665715D01*
X96447617Y-51618096D01*
X96542855Y-51570477D01*
X96638093Y-51570477D01*
X96780950Y-51618096D01*
X97352378Y-52189524D01*
X97352378Y-51570477D01*
X96780950Y-50999048D02*
X96733331Y-51094286D01*
X96685712Y-51141905D01*
X96590474Y-51189524D01*
X96542855Y-51189524D01*
X96447617Y-51141905D01*
X96399998Y-51094286D01*
X96352378Y-50999048D01*
X96352378Y-50808572D01*
X96399998Y-50713334D01*
X96447617Y-50665715D01*
X96542855Y-50618096D01*
X96590474Y-50618096D01*
X96685712Y-50665715D01*
X96733331Y-50713334D01*
X96780950Y-50808572D01*
X96780950Y-50999048D01*
X96828569Y-51094286D01*
X96876188Y-51141905D01*
X96971426Y-51189524D01*
X97161902Y-51189524D01*
X97257140Y-51141905D01*
X97304759Y-51094286D01*
X97352378Y-50999048D01*
X97352378Y-50808572D01*
X97304759Y-50713334D01*
X97257140Y-50665715D01*
X97161902Y-50618096D01*
X96971426Y-50618096D01*
X96876188Y-50665715D01*
X96828569Y-50713334D01*
X96780950Y-50808572D01*
X96352378Y-26789524D02*
X96352378Y-26170477D01*
X96733331Y-26503810D01*
X96733331Y-26360953D01*
X96780950Y-26265715D01*
X96828569Y-26218096D01*
X96923807Y-26170477D01*
X97161902Y-26170477D01*
X97257140Y-26218096D01*
X97304759Y-26265715D01*
X97352378Y-26360953D01*
X97352378Y-26646667D01*
X97304759Y-26741905D01*
X97257140Y-26789524D01*
X96352378Y-25837143D02*
X96352378Y-25170477D01*
X97352378Y-25599048D01*
X59252378Y-78970477D02*
X59252378Y-79541905D01*
X59252378Y-79256191D02*
X58252378Y-79256191D01*
X58395236Y-79351429D01*
X58490474Y-79446667D01*
X58538093Y-79541905D01*
X58252378Y-78637143D02*
X58252378Y-78018096D01*
X58633331Y-78351429D01*
X58633331Y-78208572D01*
X58680950Y-78113334D01*
X58728569Y-78065715D01*
X58823807Y-78018096D01*
X59061902Y-78018096D01*
X59157140Y-78065715D01*
X59204759Y-78113334D01*
X59252378Y-78208572D01*
X59252378Y-78494286D01*
X59204759Y-78589524D01*
X59157140Y-78637143D01*
X66205712Y-63825715D02*
X66872378Y-63825715D01*
X65824759Y-64063810D02*
X66539045Y-64301905D01*
X66539045Y-63682858D01*
X65872378Y-62825715D02*
X65872378Y-63301905D01*
X66348569Y-63349524D01*
X66300950Y-63301905D01*
X66253331Y-63206667D01*
X66253331Y-62968572D01*
X66300950Y-62873334D01*
X66348569Y-62825715D01*
X66443807Y-62778096D01*
X66681902Y-62778096D01*
X66777140Y-62825715D01*
X66824759Y-62873334D01*
X66872378Y-62968572D01*
X66872378Y-63206667D01*
X66824759Y-63301905D01*
X66777140Y-63349524D01*
X35392378Y-63778096D02*
X35392378Y-64254286D01*
X35868569Y-64301905D01*
X35820950Y-64254286D01*
X35773331Y-64159048D01*
X35773331Y-63920953D01*
X35820950Y-63825715D01*
X35868569Y-63778096D01*
X35963807Y-63730477D01*
X36201902Y-63730477D01*
X36297140Y-63778096D01*
X36344759Y-63825715D01*
X36392378Y-63920953D01*
X36392378Y-64159048D01*
X36344759Y-64254286D01*
X36297140Y-64301905D01*
X35392378Y-63397143D02*
X35392378Y-62730477D01*
X36392378Y-63159048D01*
X121718570Y-81248572D02*
X121766189Y-81105715D01*
X121813808Y-81058096D01*
X121909046Y-81010477D01*
X122051903Y-81010477D01*
X122147141Y-81058096D01*
X122194760Y-81105715D01*
X122242379Y-81200953D01*
X122242379Y-81581905D01*
X121242379Y-81581905D01*
X121242379Y-81248572D01*
X121289999Y-81153334D01*
X121337618Y-81105715D01*
X121432856Y-81058096D01*
X121528094Y-81058096D01*
X121623332Y-81105715D01*
X121670951Y-81153334D01*
X121718570Y-81248572D01*
X121718570Y-81581905D01*
X40472378Y-51189524D02*
X40472378Y-51380001D01*
X40519998Y-51475239D01*
X40567617Y-51522858D01*
X40710474Y-51618096D01*
X40900950Y-51665715D01*
X41281902Y-51665715D01*
X41377140Y-51618096D01*
X41424759Y-51570477D01*
X41472378Y-51475239D01*
X41472378Y-51284762D01*
X41424759Y-51189524D01*
X41377140Y-51141905D01*
X41281902Y-51094286D01*
X41043807Y-51094286D01*
X40948569Y-51141905D01*
X40900950Y-51189524D01*
X40853331Y-51284762D01*
X40853331Y-51475239D01*
X40900950Y-51570477D01*
X40948569Y-51618096D01*
X41043807Y-51665715D01*
X48092378Y-26218096D02*
X48092378Y-26694286D01*
X48568569Y-26741905D01*
X48520950Y-26694286D01*
X48473331Y-26599048D01*
X48473331Y-26360953D01*
X48520950Y-26265715D01*
X48568569Y-26218096D01*
X48663807Y-26170477D01*
X48901902Y-26170477D01*
X48997140Y-26218096D01*
X49044759Y-26265715D01*
X49092378Y-26360953D01*
X49092378Y-26599048D01*
X49044759Y-26694286D01*
X48997140Y-26741905D01*
X48092378Y-25313334D02*
X48092378Y-25503810D01*
X48139998Y-25599048D01*
X48187617Y-25646667D01*
X48330474Y-25741905D01*
X48520950Y-25789524D01*
X48901902Y-25789524D01*
X48997140Y-25741905D01*
X49044759Y-25694286D01*
X49092378Y-25599048D01*
X49092378Y-25408572D01*
X49044759Y-25313334D01*
X48997140Y-25265715D01*
X48901902Y-25218096D01*
X48663807Y-25218096D01*
X48568569Y-25265715D01*
X48520950Y-25313334D01*
X48473331Y-25408572D01*
X48473331Y-25599048D01*
X48520950Y-25694286D01*
X48568569Y-25741905D01*
X48663807Y-25789524D01*
X143627620Y-76095715D02*
X143580001Y-76048096D01*
X143532381Y-75952858D01*
X143532381Y-75714762D01*
X143580001Y-75619524D01*
X143627620Y-75571905D01*
X143722858Y-75524286D01*
X143818096Y-75524286D01*
X143960953Y-75571905D01*
X144532381Y-76143334D01*
X144532381Y-75524286D01*
X74492378Y-78970477D02*
X74492378Y-79541905D01*
X74492378Y-79256191D02*
X73492378Y-79256191D01*
X73635236Y-79351429D01*
X73730474Y-79446667D01*
X73778093Y-79541905D01*
X74492378Y-78494286D02*
X74492378Y-78303810D01*
X74444759Y-78208572D01*
X74397140Y-78160953D01*
X74254283Y-78065715D01*
X74063807Y-78018096D01*
X73682855Y-78018096D01*
X73587617Y-78065715D01*
X73539998Y-78113334D01*
X73492378Y-78208572D01*
X73492378Y-78399048D01*
X73539998Y-78494286D01*
X73587617Y-78541905D01*
X73682855Y-78589524D01*
X73920950Y-78589524D01*
X74016188Y-78541905D01*
X74063807Y-78494286D01*
X74111426Y-78399048D01*
X74111426Y-78208572D01*
X74063807Y-78113334D01*
X74016188Y-78065715D01*
X73920950Y-78018096D01*
X93907617Y-79541905D02*
X93859998Y-79494286D01*
X93812378Y-79399048D01*
X93812378Y-79160953D01*
X93859998Y-79065715D01*
X93907617Y-79018096D01*
X94002855Y-78970477D01*
X94098093Y-78970477D01*
X94240950Y-79018096D01*
X94812378Y-79589524D01*
X94812378Y-78970477D01*
X93812378Y-78637143D02*
X93812378Y-77970477D01*
X94812378Y-78399048D01*
X119672378Y-26170477D02*
X119672378Y-26741905D01*
X119672378Y-26456191D02*
X118672378Y-26456191D01*
X118815236Y-26551429D01*
X118910474Y-26646667D01*
X118958093Y-26741905D01*
X119100950Y-25599048D02*
X119053331Y-25694286D01*
X119005712Y-25741905D01*
X118910474Y-25789524D01*
X118862855Y-25789524D01*
X118767617Y-25741905D01*
X118719998Y-25694286D01*
X118672378Y-25599048D01*
X118672378Y-25408572D01*
X118719998Y-25313334D01*
X118767617Y-25265715D01*
X118862855Y-25218096D01*
X118910474Y-25218096D01*
X119005712Y-25265715D01*
X119053331Y-25313334D01*
X119100950Y-25408572D01*
X119100950Y-25599048D01*
X119148569Y-25694286D01*
X119196188Y-25741905D01*
X119291426Y-25789524D01*
X119481902Y-25789524D01*
X119577140Y-25741905D01*
X119624759Y-25694286D01*
X119672378Y-25599048D01*
X119672378Y-25408572D01*
X119624759Y-25313334D01*
X119577140Y-25265715D01*
X119481902Y-25218096D01*
X119291426Y-25218096D01*
X119196188Y-25265715D01*
X119148569Y-25313334D01*
X119100950Y-25408572D01*
X93812378Y-26789524D02*
X93812378Y-26170477D01*
X94193331Y-26503810D01*
X94193331Y-26360953D01*
X94240950Y-26265715D01*
X94288569Y-26218096D01*
X94383807Y-26170477D01*
X94621902Y-26170477D01*
X94717140Y-26218096D01*
X94764759Y-26265715D01*
X94812378Y-26360953D01*
X94812378Y-26646667D01*
X94764759Y-26741905D01*
X94717140Y-26789524D01*
X94240950Y-25599048D02*
X94193331Y-25694286D01*
X94145712Y-25741905D01*
X94050474Y-25789524D01*
X94002855Y-25789524D01*
X93907617Y-25741905D01*
X93859998Y-25694286D01*
X93812378Y-25599048D01*
X93812378Y-25408572D01*
X93859998Y-25313334D01*
X93907617Y-25265715D01*
X94002855Y-25218096D01*
X94050474Y-25218096D01*
X94145712Y-25265715D01*
X94193331Y-25313334D01*
X94240950Y-25408572D01*
X94240950Y-25599048D01*
X94288569Y-25694286D01*
X94336188Y-25741905D01*
X94431426Y-25789524D01*
X94621902Y-25789524D01*
X94717140Y-25741905D01*
X94764759Y-25694286D01*
X94812378Y-25599048D01*
X94812378Y-25408572D01*
X94764759Y-25313334D01*
X94717140Y-25265715D01*
X94621902Y-25218096D01*
X94431426Y-25218096D01*
X94336188Y-25265715D01*
X94288569Y-25313334D01*
X94240950Y-25408572D01*
X88827617Y-79541905D02*
X88779998Y-79494286D01*
X88732378Y-79399048D01*
X88732378Y-79160953D01*
X88779998Y-79065715D01*
X88827617Y-79018096D01*
X88922855Y-78970477D01*
X89018093Y-78970477D01*
X89160950Y-79018096D01*
X89732378Y-79589524D01*
X89732378Y-78970477D01*
X88732378Y-78065715D02*
X88732378Y-78541905D01*
X89208569Y-78589524D01*
X89160950Y-78541905D01*
X89113331Y-78446667D01*
X89113331Y-78208572D01*
X89160950Y-78113334D01*
X89208569Y-78065715D01*
X89303807Y-78018096D01*
X89541902Y-78018096D01*
X89637140Y-78065715D01*
X89684759Y-78113334D01*
X89732378Y-78208572D01*
X89732378Y-78446667D01*
X89684759Y-78541905D01*
X89637140Y-78589524D01*
X116876665Y-81558096D02*
X116876665Y-81081905D01*
X117162379Y-81653334D02*
X116162379Y-81320001D01*
X117162379Y-80986667D01*
X49092378Y-51570477D02*
X49092378Y-51380001D01*
X49044759Y-51284762D01*
X48997140Y-51237143D01*
X48854283Y-51141905D01*
X48663807Y-51094286D01*
X48282855Y-51094286D01*
X48187617Y-51141905D01*
X48139998Y-51189524D01*
X48092378Y-51284762D01*
X48092378Y-51475239D01*
X48139998Y-51570477D01*
X48187617Y-51618096D01*
X48282855Y-51665715D01*
X48520950Y-51665715D01*
X48616188Y-51618096D01*
X48663807Y-51570477D01*
X48711426Y-51475239D01*
X48711426Y-51284762D01*
X48663807Y-51189524D01*
X48616188Y-51141905D01*
X48520950Y-51094286D01*
X68745712Y-26265715D02*
X69412378Y-26265715D01*
X68364759Y-26503810D02*
X69079045Y-26741905D01*
X69079045Y-26122858D01*
X68840950Y-25599048D02*
X68793331Y-25694286D01*
X68745712Y-25741905D01*
X68650474Y-25789524D01*
X68602855Y-25789524D01*
X68507617Y-25741905D01*
X68459998Y-25694286D01*
X68412378Y-25599048D01*
X68412378Y-25408572D01*
X68459998Y-25313334D01*
X68507617Y-25265715D01*
X68602855Y-25218096D01*
X68650474Y-25218096D01*
X68745712Y-25265715D01*
X68793331Y-25313334D01*
X68840950Y-25408572D01*
X68840950Y-25599048D01*
X68888569Y-25694286D01*
X68936188Y-25741905D01*
X69031426Y-25789524D01*
X69221902Y-25789524D01*
X69317140Y-25741905D01*
X69364759Y-25694286D01*
X69412378Y-25599048D01*
X69412378Y-25408572D01*
X69364759Y-25313334D01*
X69317140Y-25265715D01*
X69221902Y-25218096D01*
X69031426Y-25218096D01*
X68936188Y-25265715D01*
X68888569Y-25313334D01*
X68840950Y-25408572D01*
X71285712Y-26265715D02*
X71952378Y-26265715D01*
X70904759Y-26503810D02*
X71619045Y-26741905D01*
X71619045Y-26122858D01*
X70952378Y-25837143D02*
X70952378Y-25170477D01*
X71952378Y-25599048D01*
X146707617Y-26741905D02*
X146659998Y-26694286D01*
X146612378Y-26599048D01*
X146612378Y-26360953D01*
X146659998Y-26265715D01*
X146707617Y-26218096D01*
X146802855Y-26170477D01*
X146898093Y-26170477D01*
X147040950Y-26218096D01*
X147612378Y-26789524D01*
X147612378Y-26170477D01*
X147612378Y-25694286D02*
X147612378Y-25503810D01*
X147564759Y-25408572D01*
X147517140Y-25360953D01*
X147374283Y-25265715D01*
X147183807Y-25218096D01*
X146802855Y-25218096D01*
X146707617Y-25265715D01*
X146659998Y-25313334D01*
X146612378Y-25408572D01*
X146612378Y-25599048D01*
X146659998Y-25694286D01*
X146707617Y-25741905D01*
X146802855Y-25789524D01*
X147040950Y-25789524D01*
X147136188Y-25741905D01*
X147183807Y-25694286D01*
X147231426Y-25599048D01*
X147231426Y-25408572D01*
X147183807Y-25313334D01*
X147136188Y-25265715D01*
X147040950Y-25218096D01*
X54172378Y-51570477D02*
X54172378Y-52141905D01*
X54172378Y-51856191D02*
X53172378Y-51856191D01*
X53315236Y-51951429D01*
X53410474Y-52046667D01*
X53458093Y-52141905D01*
X54172378Y-50618096D02*
X54172378Y-51189524D01*
X54172378Y-50903810D02*
X53172378Y-50903810D01*
X53315236Y-50999048D01*
X53410474Y-51094286D01*
X53458093Y-51189524D01*
X71952378Y-78970477D02*
X71952378Y-79541905D01*
X71952378Y-79256191D02*
X70952378Y-79256191D01*
X71095236Y-79351429D01*
X71190474Y-79446667D01*
X71238093Y-79541905D01*
X71380950Y-78399048D02*
X71333331Y-78494286D01*
X71285712Y-78541905D01*
X71190474Y-78589524D01*
X71142855Y-78589524D01*
X71047617Y-78541905D01*
X70999998Y-78494286D01*
X70952378Y-78399048D01*
X70952378Y-78208572D01*
X70999998Y-78113334D01*
X71047617Y-78065715D01*
X71142855Y-78018096D01*
X71190474Y-78018096D01*
X71285712Y-78065715D01*
X71333331Y-78113334D01*
X71380950Y-78208572D01*
X71380950Y-78399048D01*
X71428569Y-78494286D01*
X71476188Y-78541905D01*
X71571426Y-78589524D01*
X71761902Y-78589524D01*
X71857140Y-78541905D01*
X71904759Y-78494286D01*
X71952378Y-78399048D01*
X71952378Y-78208572D01*
X71904759Y-78113334D01*
X71857140Y-78065715D01*
X71761902Y-78018096D01*
X71571426Y-78018096D01*
X71476188Y-78065715D01*
X71428569Y-78113334D01*
X71380950Y-78208572D01*
X73825712Y-63825715D02*
X74492378Y-63825715D01*
X73444759Y-64063810D02*
X74159045Y-64301905D01*
X74159045Y-63682858D01*
X73587617Y-63349524D02*
X73539998Y-63301905D01*
X73492378Y-63206667D01*
X73492378Y-62968572D01*
X73539998Y-62873334D01*
X73587617Y-62825715D01*
X73682855Y-62778096D01*
X73778093Y-62778096D01*
X73920950Y-62825715D01*
X74492378Y-63397143D01*
X74492378Y-62778096D01*
X58252378Y-26218096D02*
X58252378Y-26694286D01*
X58728569Y-26741905D01*
X58680950Y-26694286D01*
X58633331Y-26599048D01*
X58633331Y-26360953D01*
X58680950Y-26265715D01*
X58728569Y-26218096D01*
X58823807Y-26170477D01*
X59061902Y-26170477D01*
X59157140Y-26218096D01*
X59204759Y-26265715D01*
X59252378Y-26360953D01*
X59252378Y-26599048D01*
X59204759Y-26694286D01*
X59157140Y-26741905D01*
X58347617Y-25789524D02*
X58299998Y-25741905D01*
X58252378Y-25646667D01*
X58252378Y-25408572D01*
X58299998Y-25313334D01*
X58347617Y-25265715D01*
X58442855Y-25218096D01*
X58538093Y-25218096D01*
X58680950Y-25265715D01*
X59252378Y-25837143D01*
X59252378Y-25218096D01*
X144167617Y-26741905D02*
X144119998Y-26694286D01*
X144072378Y-26599048D01*
X144072378Y-26360953D01*
X144119998Y-26265715D01*
X144167617Y-26218096D01*
X144262855Y-26170477D01*
X144358093Y-26170477D01*
X144500950Y-26218096D01*
X145072378Y-26789524D01*
X145072378Y-26170477D01*
X144500950Y-25599048D02*
X144453331Y-25694286D01*
X144405712Y-25741905D01*
X144310474Y-25789524D01*
X144262855Y-25789524D01*
X144167617Y-25741905D01*
X144119998Y-25694286D01*
X144072378Y-25599048D01*
X144072378Y-25408572D01*
X144119998Y-25313334D01*
X144167617Y-25265715D01*
X144262855Y-25218096D01*
X144310474Y-25218096D01*
X144405712Y-25265715D01*
X144453331Y-25313334D01*
X144500950Y-25408572D01*
X144500950Y-25599048D01*
X144548569Y-25694286D01*
X144596188Y-25741905D01*
X144691426Y-25789524D01*
X144881902Y-25789524D01*
X144977140Y-25741905D01*
X145024759Y-25694286D01*
X145072378Y-25599048D01*
X145072378Y-25408572D01*
X145024759Y-25313334D01*
X144977140Y-25265715D01*
X144881902Y-25218096D01*
X144691426Y-25218096D01*
X144596188Y-25265715D01*
X144548569Y-25313334D01*
X144500950Y-25408572D01*
X123752378Y-51141905D02*
X123752378Y-51618096D01*
X124228569Y-51665715D01*
X124180950Y-51618096D01*
X124133331Y-51522858D01*
X124133331Y-51284762D01*
X124180950Y-51189524D01*
X124228569Y-51141905D01*
X124323807Y-51094286D01*
X124561902Y-51094286D01*
X124657140Y-51141905D01*
X124704759Y-51189524D01*
X124752378Y-51284762D01*
X124752378Y-51522858D01*
X124704759Y-51618096D01*
X124657140Y-51665715D01*
X142532378Y-51570477D02*
X142532378Y-52141905D01*
X142532378Y-51856191D02*
X141532378Y-51856191D01*
X141675236Y-51951429D01*
X141770474Y-52046667D01*
X141818093Y-52141905D01*
X141627617Y-51189524D02*
X141579998Y-51141905D01*
X141532378Y-51046667D01*
X141532378Y-50808572D01*
X141579998Y-50713334D01*
X141627617Y-50665715D01*
X141722855Y-50618096D01*
X141818093Y-50618096D01*
X141960950Y-50665715D01*
X142532378Y-51237143D01*
X142532378Y-50618096D01*
X96352378Y-64349524D02*
X96352378Y-63730477D01*
X96733331Y-64063810D01*
X96733331Y-63920953D01*
X96780950Y-63825715D01*
X96828569Y-63778096D01*
X96923807Y-63730477D01*
X97161902Y-63730477D01*
X97257140Y-63778096D01*
X97304759Y-63825715D01*
X97352378Y-63920953D01*
X97352378Y-64206667D01*
X97304759Y-64301905D01*
X97257140Y-64349524D01*
X96352378Y-63397143D02*
X96352378Y-62778096D01*
X96733331Y-63111429D01*
X96733331Y-62968572D01*
X96780950Y-62873334D01*
X96828569Y-62825715D01*
X96923807Y-62778096D01*
X97161902Y-62778096D01*
X97257140Y-62825715D01*
X97304759Y-62873334D01*
X97352378Y-62968572D01*
X97352378Y-63254286D01*
X97304759Y-63349524D01*
X97257140Y-63397143D01*
X73825712Y-26265715D02*
X74492378Y-26265715D01*
X73444759Y-26503810D02*
X74159045Y-26741905D01*
X74159045Y-26122858D01*
X73492378Y-25313334D02*
X73492378Y-25503810D01*
X73539998Y-25599048D01*
X73587617Y-25646667D01*
X73730474Y-25741905D01*
X73920950Y-25789524D01*
X74301902Y-25789524D01*
X74397140Y-25741905D01*
X74444759Y-25694286D01*
X74492378Y-25599048D01*
X74492378Y-25408572D01*
X74444759Y-25313334D01*
X74397140Y-25265715D01*
X74301902Y-25218096D01*
X74063807Y-25218096D01*
X73968569Y-25265715D01*
X73920950Y-25313334D01*
X73873331Y-25408572D01*
X73873331Y-25599048D01*
X73920950Y-25694286D01*
X73968569Y-25741905D01*
X74063807Y-25789524D01*
X149152378Y-27289524D02*
X149152378Y-26670477D01*
X149533331Y-27003810D01*
X149533331Y-26860953D01*
X149580950Y-26765715D01*
X149628569Y-26718096D01*
X149723807Y-26670477D01*
X149961902Y-26670477D01*
X150057140Y-26718096D01*
X150104759Y-26765715D01*
X150152378Y-26860953D01*
X150152378Y-27146667D01*
X150104759Y-27241905D01*
X150057140Y-27289524D01*
X149152378Y-26051429D02*
X149152378Y-25956191D01*
X149199998Y-25860953D01*
X149247617Y-25813334D01*
X149342855Y-25765715D01*
X149533331Y-25718096D01*
X149771426Y-25718096D01*
X149961902Y-25765715D01*
X150057140Y-25813334D01*
X150104759Y-25860953D01*
X150152378Y-25956191D01*
X150152378Y-26051429D01*
X150104759Y-26146667D01*
X150057140Y-26194286D01*
X149961902Y-26241905D01*
X149771426Y-26289524D01*
X149533331Y-26289524D01*
X149342855Y-26241905D01*
X149247617Y-26194286D01*
X149199998Y-26146667D01*
X149152378Y-26051429D01*
X149199998Y-24765715D02*
X149152378Y-24860953D01*
X149152378Y-25003810D01*
X149199998Y-25146667D01*
X149295236Y-25241905D01*
X149390474Y-25289524D01*
X149580950Y-25337143D01*
X149723807Y-25337143D01*
X149914283Y-25289524D01*
X150009521Y-25241905D01*
X150104759Y-25146667D01*
X150152378Y-25003810D01*
X150152378Y-24908572D01*
X150104759Y-24765715D01*
X150057140Y-24718096D01*
X149723807Y-24718096D01*
X149723807Y-24908572D01*
X81445712Y-26265715D02*
X82112378Y-26265715D01*
X81064759Y-26503810D02*
X81779045Y-26741905D01*
X81779045Y-26122858D01*
X81112378Y-25837143D02*
X81112378Y-25218096D01*
X81493331Y-25551429D01*
X81493331Y-25408572D01*
X81540950Y-25313334D01*
X81588569Y-25265715D01*
X81683807Y-25218096D01*
X81921902Y-25218096D01*
X82017140Y-25265715D01*
X82064759Y-25313334D01*
X82112378Y-25408572D01*
X82112378Y-25694286D01*
X82064759Y-25789524D01*
X82017140Y-25837143D01*
X35725712Y-51189524D02*
X36392378Y-51189524D01*
X35344759Y-51427620D02*
X36059045Y-51665715D01*
X36059045Y-51046667D01*
X118797618Y-63825715D02*
X118749999Y-63778096D01*
X118702379Y-63682858D01*
X118702379Y-63444762D01*
X118749999Y-63349524D01*
X118797618Y-63301905D01*
X118892856Y-63254286D01*
X118988094Y-63254286D01*
X119130951Y-63301905D01*
X119702379Y-63873334D01*
X119702379Y-63254286D01*
X78905712Y-26265715D02*
X79572378Y-26265715D01*
X78524759Y-26503810D02*
X79239045Y-26741905D01*
X79239045Y-26122858D01*
X78905712Y-25313334D02*
X79572378Y-25313334D01*
X78524759Y-25551429D02*
X79239045Y-25789524D01*
X79239045Y-25170477D01*
X43012378Y-79113334D02*
X43012378Y-78446667D01*
X44012378Y-78875239D01*
X32852378Y-26265715D02*
X32852378Y-26456191D01*
X32899998Y-26551429D01*
X32947617Y-26599048D01*
X33090474Y-26694286D01*
X33280950Y-26741905D01*
X33661902Y-26741905D01*
X33757140Y-26694286D01*
X33804759Y-26646667D01*
X33852378Y-26551429D01*
X33852378Y-26360953D01*
X33804759Y-26265715D01*
X33757140Y-26218096D01*
X33661902Y-26170477D01*
X33423807Y-26170477D01*
X33328569Y-26218096D01*
X33280950Y-26265715D01*
X33233331Y-26360953D01*
X33233331Y-26551429D01*
X33280950Y-26646667D01*
X33328569Y-26694286D01*
X33423807Y-26741905D01*
X32947617Y-25789524D02*
X32899998Y-25741905D01*
X32852378Y-25646667D01*
X32852378Y-25408572D01*
X32899998Y-25313334D01*
X32947617Y-25265715D01*
X33042855Y-25218096D01*
X33138093Y-25218096D01*
X33280950Y-25265715D01*
X33852378Y-25837143D01*
X33852378Y-25218096D01*
X141627617Y-26741905D02*
X141579998Y-26694286D01*
X141532378Y-26599048D01*
X141532378Y-26360953D01*
X141579998Y-26265715D01*
X141627617Y-26218096D01*
X141722855Y-26170477D01*
X141818093Y-26170477D01*
X141960950Y-26218096D01*
X142532378Y-26789524D01*
X142532378Y-26170477D01*
X141532378Y-25837143D02*
X141532378Y-25170477D01*
X142532378Y-25599048D01*
X30312378Y-63778096D02*
X30312378Y-64254286D01*
X30788569Y-64301905D01*
X30740950Y-64254286D01*
X30693331Y-64159048D01*
X30693331Y-63920953D01*
X30740950Y-63825715D01*
X30788569Y-63778096D01*
X30883807Y-63730477D01*
X31121902Y-63730477D01*
X31217140Y-63778096D01*
X31264759Y-63825715D01*
X31312378Y-63920953D01*
X31312378Y-64159048D01*
X31264759Y-64254286D01*
X31217140Y-64301905D01*
X31312378Y-63254286D02*
X31312378Y-63063810D01*
X31264759Y-62968572D01*
X31217140Y-62920953D01*
X31074283Y-62825715D01*
X30883807Y-62778096D01*
X30502855Y-62778096D01*
X30407617Y-62825715D01*
X30359998Y-62873334D01*
X30312378Y-62968572D01*
X30312378Y-63159048D01*
X30359998Y-63254286D01*
X30407617Y-63301905D01*
X30502855Y-63349524D01*
X30740950Y-63349524D01*
X30836188Y-63301905D01*
X30883807Y-63254286D01*
X30931426Y-63159048D01*
X30931426Y-62968572D01*
X30883807Y-62873334D01*
X30836188Y-62825715D01*
X30740950Y-62778096D01*
X101432378Y-64349524D02*
X101432378Y-63730477D01*
X101813331Y-64063810D01*
X101813331Y-63920953D01*
X101860950Y-63825715D01*
X101908569Y-63778096D01*
X102003807Y-63730477D01*
X102241902Y-63730477D01*
X102337140Y-63778096D01*
X102384759Y-63825715D01*
X102432378Y-63920953D01*
X102432378Y-64206667D01*
X102384759Y-64301905D01*
X102337140Y-64349524D01*
X102432378Y-62778096D02*
X102432378Y-63349524D01*
X102432378Y-63063810D02*
X101432378Y-63063810D01*
X101575236Y-63159048D01*
X101670474Y-63254286D01*
X101718093Y-63349524D01*
X59252378Y-51570477D02*
X59252378Y-52141905D01*
X59252378Y-51856191D02*
X58252378Y-51856191D01*
X58395236Y-51951429D01*
X58490474Y-52046667D01*
X58538093Y-52141905D01*
X58252378Y-51237143D02*
X58252378Y-50618096D01*
X58633331Y-50951429D01*
X58633331Y-50808572D01*
X58680950Y-50713334D01*
X58728569Y-50665715D01*
X58823807Y-50618096D01*
X59061902Y-50618096D01*
X59157140Y-50665715D01*
X59204759Y-50713334D01*
X59252378Y-50808572D01*
X59252378Y-51094286D01*
X59204759Y-51189524D01*
X59157140Y-51237143D01*
X69412378Y-51570477D02*
X69412378Y-52141905D01*
X69412378Y-51856191D02*
X68412378Y-51856191D01*
X68555236Y-51951429D01*
X68650474Y-52046667D01*
X68698093Y-52141905D01*
X68412378Y-51237143D02*
X68412378Y-50570477D01*
X69412378Y-50999048D01*
X45552378Y-63778096D02*
X45552378Y-64254286D01*
X46028569Y-64301905D01*
X45980950Y-64254286D01*
X45933331Y-64159048D01*
X45933331Y-63920953D01*
X45980950Y-63825715D01*
X46028569Y-63778096D01*
X46123807Y-63730477D01*
X46361902Y-63730477D01*
X46457140Y-63778096D01*
X46504759Y-63825715D01*
X46552378Y-63920953D01*
X46552378Y-64159048D01*
X46504759Y-64254286D01*
X46457140Y-64301905D01*
X45552378Y-63397143D02*
X45552378Y-62778096D01*
X45933331Y-63111429D01*
X45933331Y-62968572D01*
X45980950Y-62873334D01*
X46028569Y-62825715D01*
X46123807Y-62778096D01*
X46361902Y-62778096D01*
X46457140Y-62825715D01*
X46504759Y-62873334D01*
X46552378Y-62968572D01*
X46552378Y-63254286D01*
X46504759Y-63349524D01*
X46457140Y-63397143D01*
X63665712Y-63825715D02*
X64332378Y-63825715D01*
X63284759Y-64063810D02*
X63999045Y-64301905D01*
X63999045Y-63682858D01*
X63332378Y-62873334D02*
X63332378Y-63063810D01*
X63379998Y-63159048D01*
X63427617Y-63206667D01*
X63570474Y-63301905D01*
X63760950Y-63349524D01*
X64141902Y-63349524D01*
X64237140Y-63301905D01*
X64284759Y-63254286D01*
X64332378Y-63159048D01*
X64332378Y-62968572D01*
X64284759Y-62873334D01*
X64237140Y-62825715D01*
X64141902Y-62778096D01*
X63903807Y-62778096D01*
X63808569Y-62825715D01*
X63760950Y-62873334D01*
X63713331Y-62968572D01*
X63713331Y-63159048D01*
X63760950Y-63254286D01*
X63808569Y-63301905D01*
X63903807Y-63349524D01*
X51632378Y-78970477D02*
X51632378Y-79541905D01*
X51632378Y-79256191D02*
X50632378Y-79256191D01*
X50775236Y-79351429D01*
X50870474Y-79446667D01*
X50918093Y-79541905D01*
X50632378Y-78351429D02*
X50632378Y-78256191D01*
X50679998Y-78160953D01*
X50727617Y-78113334D01*
X50822855Y-78065715D01*
X51013331Y-78018096D01*
X51251426Y-78018096D01*
X51441902Y-78065715D01*
X51537140Y-78113334D01*
X51584759Y-78160953D01*
X51632378Y-78256191D01*
X51632378Y-78351429D01*
X51584759Y-78446667D01*
X51537140Y-78494286D01*
X51441902Y-78541905D01*
X51251426Y-78589524D01*
X51013331Y-78589524D01*
X50822855Y-78541905D01*
X50727617Y-78494286D01*
X50679998Y-78446667D01*
X50632378Y-78351429D01*
X78667617Y-79541905D02*
X78619998Y-79494286D01*
X78572378Y-79399048D01*
X78572378Y-79160953D01*
X78619998Y-79065715D01*
X78667617Y-79018096D01*
X78762855Y-78970477D01*
X78858093Y-78970477D01*
X79000950Y-79018096D01*
X79572378Y-79589524D01*
X79572378Y-78970477D01*
X79572378Y-78018096D02*
X79572378Y-78589524D01*
X79572378Y-78303810D02*
X78572378Y-78303810D01*
X78715236Y-78399048D01*
X78810474Y-78494286D01*
X78858093Y-78589524D01*
X35392378Y-26265715D02*
X35392378Y-26456191D01*
X35439998Y-26551429D01*
X35487617Y-26599048D01*
X35630474Y-26694286D01*
X35820950Y-26741905D01*
X36201902Y-26741905D01*
X36297140Y-26694286D01*
X36344759Y-26646667D01*
X36392378Y-26551429D01*
X36392378Y-26360953D01*
X36344759Y-26265715D01*
X36297140Y-26218096D01*
X36201902Y-26170477D01*
X35963807Y-26170477D01*
X35868569Y-26218096D01*
X35820950Y-26265715D01*
X35773331Y-26360953D01*
X35773331Y-26551429D01*
X35820950Y-26646667D01*
X35868569Y-26694286D01*
X35963807Y-26741905D01*
X36392378Y-25218096D02*
X36392378Y-25789524D01*
X36392378Y-25503810D02*
X35392378Y-25503810D01*
X35535236Y-25599048D01*
X35630474Y-25694286D01*
X35678093Y-25789524D01*
X49092378Y-78970477D02*
X49092378Y-78780001D01*
X49044759Y-78684762D01*
X48997140Y-78637143D01*
X48854283Y-78541905D01*
X48663807Y-78494286D01*
X48282855Y-78494286D01*
X48187617Y-78541905D01*
X48139998Y-78589524D01*
X48092378Y-78684762D01*
X48092378Y-78875239D01*
X48139998Y-78970477D01*
X48187617Y-79018096D01*
X48282855Y-79065715D01*
X48520950Y-79065715D01*
X48616188Y-79018096D01*
X48663807Y-78970477D01*
X48711426Y-78875239D01*
X48711426Y-78684762D01*
X48663807Y-78589524D01*
X48616188Y-78541905D01*
X48520950Y-78494286D01*
X88732378Y-64849524D02*
X88732378Y-64230477D01*
X89113331Y-64563810D01*
X89113331Y-64420953D01*
X89160950Y-64325715D01*
X89208569Y-64278096D01*
X89303807Y-64230477D01*
X89541902Y-64230477D01*
X89637140Y-64278096D01*
X89684759Y-64325715D01*
X89732378Y-64420953D01*
X89732378Y-64706667D01*
X89684759Y-64801905D01*
X89637140Y-64849524D01*
X88732378Y-63373334D02*
X88732378Y-63563810D01*
X88779998Y-63659048D01*
X88827617Y-63706667D01*
X88970474Y-63801905D01*
X89160950Y-63849524D01*
X89541902Y-63849524D01*
X89637140Y-63801905D01*
X89684759Y-63754286D01*
X89732378Y-63659048D01*
X89732378Y-63468572D01*
X89684759Y-63373334D01*
X89637140Y-63325715D01*
X89541902Y-63278096D01*
X89303807Y-63278096D01*
X89208569Y-63325715D01*
X89160950Y-63373334D01*
X89113331Y-63468572D01*
X89113331Y-63659048D01*
X89160950Y-63754286D01*
X89208569Y-63801905D01*
X89303807Y-63849524D01*
X88779998Y-62325715D02*
X88732378Y-62420953D01*
X88732378Y-62563810D01*
X88779998Y-62706667D01*
X88875236Y-62801905D01*
X88970474Y-62849524D01*
X89160950Y-62897143D01*
X89303807Y-62897143D01*
X89494283Y-62849524D01*
X89589521Y-62801905D01*
X89684759Y-62706667D01*
X89732378Y-62563810D01*
X89732378Y-62468572D01*
X89684759Y-62325715D01*
X89637140Y-62278096D01*
X89303807Y-62278096D01*
X89303807Y-62468572D01*
X91272378Y-64349524D02*
X91272378Y-63730477D01*
X91653331Y-64063810D01*
X91653331Y-63920953D01*
X91700950Y-63825715D01*
X91748569Y-63778096D01*
X91843807Y-63730477D01*
X92081902Y-63730477D01*
X92177140Y-63778096D01*
X92224759Y-63825715D01*
X92272378Y-63920953D01*
X92272378Y-64206667D01*
X92224759Y-64301905D01*
X92177140Y-64349524D01*
X91272378Y-62825715D02*
X91272378Y-63301905D01*
X91748569Y-63349524D01*
X91700950Y-63301905D01*
X91653331Y-63206667D01*
X91653331Y-62968572D01*
X91700950Y-62873334D01*
X91748569Y-62825715D01*
X91843807Y-62778096D01*
X92081902Y-62778096D01*
X92177140Y-62825715D01*
X92224759Y-62873334D01*
X92272378Y-62968572D01*
X92272378Y-63206667D01*
X92224759Y-63301905D01*
X92177140Y-63349524D01*
X128927617Y-26741905D02*
X128879998Y-26694286D01*
X128832378Y-26599048D01*
X128832378Y-26360953D01*
X128879998Y-26265715D01*
X128927617Y-26218096D01*
X129022855Y-26170477D01*
X129118093Y-26170477D01*
X129260950Y-26218096D01*
X129832378Y-26789524D01*
X129832378Y-26170477D01*
X128927617Y-25789524D02*
X128879998Y-25741905D01*
X128832378Y-25646667D01*
X128832378Y-25408572D01*
X128879998Y-25313334D01*
X128927617Y-25265715D01*
X129022855Y-25218096D01*
X129118093Y-25218096D01*
X129260950Y-25265715D01*
X129832378Y-25837143D01*
X129832378Y-25218096D01*
X91367617Y-79541905D02*
X91319998Y-79494286D01*
X91272378Y-79399048D01*
X91272378Y-79160953D01*
X91319998Y-79065715D01*
X91367617Y-79018096D01*
X91462855Y-78970477D01*
X91558093Y-78970477D01*
X91700950Y-79018096D01*
X92272378Y-79589524D01*
X92272378Y-78970477D01*
X91272378Y-78113334D02*
X91272378Y-78303810D01*
X91319998Y-78399048D01*
X91367617Y-78446667D01*
X91510474Y-78541905D01*
X91700950Y-78589524D01*
X92081902Y-78589524D01*
X92177140Y-78541905D01*
X92224759Y-78494286D01*
X92272378Y-78399048D01*
X92272378Y-78208572D01*
X92224759Y-78113334D01*
X92177140Y-78065715D01*
X92081902Y-78018096D01*
X91843807Y-78018096D01*
X91748569Y-78065715D01*
X91700950Y-78113334D01*
X91653331Y-78208572D01*
X91653331Y-78399048D01*
X91700950Y-78494286D01*
X91748569Y-78541905D01*
X91843807Y-78589524D01*
X32852378Y-63778096D02*
X32852378Y-64254286D01*
X33328569Y-64301905D01*
X33280950Y-64254286D01*
X33233331Y-64159048D01*
X33233331Y-63920953D01*
X33280950Y-63825715D01*
X33328569Y-63778096D01*
X33423807Y-63730477D01*
X33661902Y-63730477D01*
X33757140Y-63778096D01*
X33804759Y-63825715D01*
X33852378Y-63920953D01*
X33852378Y-64159048D01*
X33804759Y-64254286D01*
X33757140Y-64301905D01*
X33280950Y-63159048D02*
X33233331Y-63254286D01*
X33185712Y-63301905D01*
X33090474Y-63349524D01*
X33042855Y-63349524D01*
X32947617Y-63301905D01*
X32899998Y-63254286D01*
X32852378Y-63159048D01*
X32852378Y-62968572D01*
X32899998Y-62873334D01*
X32947617Y-62825715D01*
X33042855Y-62778096D01*
X33090474Y-62778096D01*
X33185712Y-62825715D01*
X33233331Y-62873334D01*
X33280950Y-62968572D01*
X33280950Y-63159048D01*
X33328569Y-63254286D01*
X33376188Y-63301905D01*
X33471426Y-63349524D01*
X33661902Y-63349524D01*
X33757140Y-63301905D01*
X33804759Y-63254286D01*
X33852378Y-63159048D01*
X33852378Y-62968572D01*
X33804759Y-62873334D01*
X33757140Y-62825715D01*
X33661902Y-62778096D01*
X33471426Y-62778096D01*
X33376188Y-62825715D01*
X33328569Y-62873334D01*
X33280950Y-62968572D01*
X83652378Y-64349524D02*
X83652378Y-63730477D01*
X84033331Y-64063810D01*
X84033331Y-63920953D01*
X84080950Y-63825715D01*
X84128569Y-63778096D01*
X84223807Y-63730477D01*
X84461902Y-63730477D01*
X84557140Y-63778096D01*
X84604759Y-63825715D01*
X84652378Y-63920953D01*
X84652378Y-64206667D01*
X84604759Y-64301905D01*
X84557140Y-64349524D01*
X84080950Y-63159048D02*
X84033331Y-63254286D01*
X83985712Y-63301905D01*
X83890474Y-63349524D01*
X83842855Y-63349524D01*
X83747617Y-63301905D01*
X83699998Y-63254286D01*
X83652378Y-63159048D01*
X83652378Y-62968572D01*
X83699998Y-62873334D01*
X83747617Y-62825715D01*
X83842855Y-62778096D01*
X83890474Y-62778096D01*
X83985712Y-62825715D01*
X84033331Y-62873334D01*
X84080950Y-62968572D01*
X84080950Y-63159048D01*
X84128569Y-63254286D01*
X84176188Y-63301905D01*
X84271426Y-63349524D01*
X84461902Y-63349524D01*
X84557140Y-63301905D01*
X84604759Y-63254286D01*
X84652378Y-63159048D01*
X84652378Y-62968572D01*
X84604759Y-62873334D01*
X84557140Y-62825715D01*
X84461902Y-62778096D01*
X84271426Y-62778096D01*
X84176188Y-62825715D01*
X84128569Y-62873334D01*
X84080950Y-62968572D01*
X104002378Y-26789524D02*
X104002378Y-26170477D01*
X104383331Y-26503810D01*
X104383331Y-26360953D01*
X104430950Y-26265715D01*
X104478569Y-26218096D01*
X104573807Y-26170477D01*
X104811902Y-26170477D01*
X104907140Y-26218096D01*
X104954759Y-26265715D01*
X105002378Y-26360953D01*
X105002378Y-26646667D01*
X104954759Y-26741905D01*
X104907140Y-26789524D01*
X104335712Y-25313334D02*
X105002378Y-25313334D01*
X103954759Y-25551429D02*
X104669045Y-25789524D01*
X104669045Y-25170477D01*
X28772378Y-78494286D02*
X28772378Y-79065715D01*
X28772378Y-78780001D02*
X27772378Y-78780001D01*
X27915236Y-78875239D01*
X28010474Y-78970477D01*
X28058093Y-79065715D01*
X28772378Y-51094286D02*
X28772378Y-51665715D01*
X28772378Y-51380001D02*
X27772378Y-51380001D01*
X27915236Y-51475239D01*
X28010474Y-51570477D01*
X28058093Y-51665715D01*
X61792378Y-78970477D02*
X61792378Y-79541905D01*
X61792378Y-79256191D02*
X60792378Y-79256191D01*
X60935236Y-79351429D01*
X61030474Y-79446667D01*
X61078093Y-79541905D01*
X61125712Y-78113334D02*
X61792378Y-78113334D01*
X60744759Y-78351429D02*
X61459045Y-78589524D01*
X61459045Y-77970477D01*
X126292378Y-51189524D02*
X126292378Y-51380001D01*
X126339998Y-51475239D01*
X126387617Y-51522858D01*
X126530474Y-51618096D01*
X126720950Y-51665715D01*
X127101902Y-51665715D01*
X127197140Y-51618096D01*
X127244759Y-51570477D01*
X127292378Y-51475239D01*
X127292378Y-51284762D01*
X127244759Y-51189524D01*
X127197140Y-51141905D01*
X127101902Y-51094286D01*
X126863807Y-51094286D01*
X126768569Y-51141905D01*
X126720950Y-51189524D01*
X126673331Y-51284762D01*
X126673331Y-51475239D01*
X126720950Y-51570477D01*
X126768569Y-51618096D01*
X126863807Y-51665715D01*
X56712378Y-79470477D02*
X56712378Y-80041905D01*
X56712378Y-79756191D02*
X55712378Y-79756191D01*
X55855236Y-79851429D01*
X55950474Y-79946667D01*
X55998093Y-80041905D01*
X55807617Y-79089524D02*
X55759998Y-79041905D01*
X55712378Y-78946667D01*
X55712378Y-78708572D01*
X55759998Y-78613334D01*
X55807617Y-78565715D01*
X55902855Y-78518096D01*
X55998093Y-78518096D01*
X56140950Y-78565715D01*
X56712378Y-79137143D01*
X56712378Y-78518096D01*
X55759998Y-77565715D02*
X55712378Y-77660953D01*
X55712378Y-77803810D01*
X55759998Y-77946667D01*
X55855236Y-78041905D01*
X55950474Y-78089524D01*
X56140950Y-78137143D01*
X56283807Y-78137143D01*
X56474283Y-78089524D01*
X56569521Y-78041905D01*
X56664759Y-77946667D01*
X56712378Y-77803810D01*
X56712378Y-77708572D01*
X56664759Y-77565715D01*
X56617140Y-77518096D01*
X56283807Y-77518096D01*
X56283807Y-77708572D01*
X91367617Y-52141905D02*
X91319998Y-52094286D01*
X91272378Y-51999048D01*
X91272378Y-51760953D01*
X91319998Y-51665715D01*
X91367617Y-51618096D01*
X91462855Y-51570477D01*
X91558093Y-51570477D01*
X91700950Y-51618096D01*
X92272378Y-52189524D01*
X92272378Y-51570477D01*
X91272378Y-50713334D02*
X91272378Y-50903810D01*
X91319998Y-50999048D01*
X91367617Y-51046667D01*
X91510474Y-51141905D01*
X91700950Y-51189524D01*
X92081902Y-51189524D01*
X92177140Y-51141905D01*
X92224759Y-51094286D01*
X92272378Y-50999048D01*
X92272378Y-50808572D01*
X92224759Y-50713334D01*
X92177140Y-50665715D01*
X92081902Y-50618096D01*
X91843807Y-50618096D01*
X91748569Y-50665715D01*
X91700950Y-50713334D01*
X91653331Y-50808572D01*
X91653331Y-50999048D01*
X91700950Y-51094286D01*
X91748569Y-51141905D01*
X91843807Y-51189524D01*
X126387617Y-26741905D02*
X126339998Y-26694286D01*
X126292378Y-26599048D01*
X126292378Y-26360953D01*
X126339998Y-26265715D01*
X126387617Y-26218096D01*
X126482855Y-26170477D01*
X126578093Y-26170477D01*
X126720950Y-26218096D01*
X127292378Y-26789524D01*
X127292378Y-26170477D01*
X127292378Y-25218096D02*
X127292378Y-25789524D01*
X127292378Y-25503810D02*
X126292378Y-25503810D01*
X126435236Y-25599048D01*
X126530474Y-25694286D01*
X126578093Y-25789524D01*
X104002378Y-52189524D02*
X104002378Y-51570477D01*
X104383331Y-51903810D01*
X104383331Y-51760953D01*
X104430950Y-51665715D01*
X104478569Y-51618096D01*
X104573807Y-51570477D01*
X104811902Y-51570477D01*
X104907140Y-51618096D01*
X104954759Y-51665715D01*
X105002378Y-51760953D01*
X105002378Y-52046667D01*
X104954759Y-52141905D01*
X104907140Y-52189524D01*
X105002378Y-50618096D02*
X105002378Y-51189524D01*
X105002378Y-50903810D02*
X104002378Y-50903810D01*
X104145236Y-50999048D01*
X104240474Y-51094286D01*
X104288093Y-51189524D01*
X116227617Y-51665715D02*
X116179998Y-51618096D01*
X116132378Y-51522858D01*
X116132378Y-51284762D01*
X116179998Y-51189524D01*
X116227617Y-51141905D01*
X116322855Y-51094286D01*
X116418093Y-51094286D01*
X116560950Y-51141905D01*
X117132378Y-51713334D01*
X117132378Y-51094286D01*
X86287617Y-79541905D02*
X86239998Y-79494286D01*
X86192378Y-79399048D01*
X86192378Y-79160953D01*
X86239998Y-79065715D01*
X86287617Y-79018096D01*
X86382855Y-78970477D01*
X86478093Y-78970477D01*
X86620950Y-79018096D01*
X87192378Y-79589524D01*
X87192378Y-78970477D01*
X86525712Y-78113334D02*
X87192378Y-78113334D01*
X86144759Y-78351429D02*
X86859045Y-78589524D01*
X86859045Y-77970477D01*
X93812378Y-64349524D02*
X93812378Y-63730477D01*
X94193331Y-64063810D01*
X94193331Y-63920953D01*
X94240950Y-63825715D01*
X94288569Y-63778096D01*
X94383807Y-63730477D01*
X94621902Y-63730477D01*
X94717140Y-63778096D01*
X94764759Y-63825715D01*
X94812378Y-63920953D01*
X94812378Y-64206667D01*
X94764759Y-64301905D01*
X94717140Y-64349524D01*
X94145712Y-62873334D02*
X94812378Y-62873334D01*
X93764759Y-63111429D02*
X94479045Y-63349524D01*
X94479045Y-62730477D01*
X48092378Y-63778096D02*
X48092378Y-64254286D01*
X48568569Y-64301905D01*
X48520950Y-64254286D01*
X48473331Y-64159048D01*
X48473331Y-63920953D01*
X48520950Y-63825715D01*
X48568569Y-63778096D01*
X48663807Y-63730477D01*
X48901902Y-63730477D01*
X48997140Y-63778096D01*
X49044759Y-63825715D01*
X49092378Y-63920953D01*
X49092378Y-64159048D01*
X49044759Y-64254286D01*
X48997140Y-64301905D01*
X48187617Y-63349524D02*
X48139998Y-63301905D01*
X48092378Y-63206667D01*
X48092378Y-62968572D01*
X48139998Y-62873334D01*
X48187617Y-62825715D01*
X48282855Y-62778096D01*
X48378093Y-62778096D01*
X48520950Y-62825715D01*
X49092378Y-63397143D01*
X49092378Y-62778096D01*
X81207617Y-52641905D02*
X81159998Y-52594286D01*
X81112378Y-52499048D01*
X81112378Y-52260953D01*
X81159998Y-52165715D01*
X81207617Y-52118096D01*
X81302855Y-52070477D01*
X81398093Y-52070477D01*
X81540950Y-52118096D01*
X82112378Y-52689524D01*
X82112378Y-52070477D01*
X81207617Y-51689524D02*
X81159998Y-51641905D01*
X81112378Y-51546667D01*
X81112378Y-51308572D01*
X81159998Y-51213334D01*
X81207617Y-51165715D01*
X81302855Y-51118096D01*
X81398093Y-51118096D01*
X81540950Y-51165715D01*
X82112378Y-51737143D01*
X82112378Y-51118096D01*
X81159998Y-50165715D02*
X81112378Y-50260953D01*
X81112378Y-50403810D01*
X81159998Y-50546667D01*
X81255236Y-50641905D01*
X81350474Y-50689524D01*
X81540950Y-50737143D01*
X81683807Y-50737143D01*
X81874283Y-50689524D01*
X81969521Y-50641905D01*
X82064759Y-50546667D01*
X82112378Y-50403810D01*
X82112378Y-50308572D01*
X82064759Y-50165715D01*
X82017140Y-50118096D01*
X81683807Y-50118096D01*
X81683807Y-50308572D01*
X98987617Y-52141905D02*
X98939998Y-52094286D01*
X98892378Y-51999048D01*
X98892378Y-51760953D01*
X98939998Y-51665715D01*
X98987617Y-51618096D01*
X99082855Y-51570477D01*
X99178093Y-51570477D01*
X99320950Y-51618096D01*
X99892378Y-52189524D01*
X99892378Y-51570477D01*
X99892378Y-51094286D02*
X99892378Y-50903810D01*
X99844759Y-50808572D01*
X99797140Y-50760953D01*
X99654283Y-50665715D01*
X99463807Y-50618096D01*
X99082855Y-50618096D01*
X98987617Y-50665715D01*
X98939998Y-50713334D01*
X98892378Y-50808572D01*
X98892378Y-50999048D01*
X98939998Y-51094286D01*
X98987617Y-51141905D01*
X99082855Y-51189524D01*
X99320950Y-51189524D01*
X99416188Y-51141905D01*
X99463807Y-51094286D01*
X99511426Y-50999048D01*
X99511426Y-50808572D01*
X99463807Y-50713334D01*
X99416188Y-50665715D01*
X99320950Y-50618096D01*
X37932378Y-26265715D02*
X37932378Y-26456191D01*
X37979998Y-26551429D01*
X38027617Y-26599048D01*
X38170474Y-26694286D01*
X38360950Y-26741905D01*
X38741902Y-26741905D01*
X38837140Y-26694286D01*
X38884759Y-26646667D01*
X38932378Y-26551429D01*
X38932378Y-26360953D01*
X38884759Y-26265715D01*
X38837140Y-26218096D01*
X38741902Y-26170477D01*
X38503807Y-26170477D01*
X38408569Y-26218096D01*
X38360950Y-26265715D01*
X38313331Y-26360953D01*
X38313331Y-26551429D01*
X38360950Y-26646667D01*
X38408569Y-26694286D01*
X38503807Y-26741905D01*
X37932378Y-25551429D02*
X37932378Y-25456191D01*
X37979998Y-25360953D01*
X38027617Y-25313334D01*
X38122855Y-25265715D01*
X38313331Y-25218096D01*
X38551426Y-25218096D01*
X38741902Y-25265715D01*
X38837140Y-25313334D01*
X38884759Y-25360953D01*
X38932378Y-25456191D01*
X38932378Y-25551429D01*
X38884759Y-25646667D01*
X38837140Y-25694286D01*
X38741902Y-25741905D01*
X38551426Y-25789524D01*
X38313331Y-25789524D01*
X38122855Y-25741905D01*
X38027617Y-25694286D01*
X37979998Y-25646667D01*
X37932378Y-25551429D01*
X53172378Y-63778096D02*
X53172378Y-64254286D01*
X53648569Y-64301905D01*
X53600950Y-64254286D01*
X53553331Y-64159048D01*
X53553331Y-63920953D01*
X53600950Y-63825715D01*
X53648569Y-63778096D01*
X53743807Y-63730477D01*
X53981902Y-63730477D01*
X54077140Y-63778096D01*
X54124759Y-63825715D01*
X54172378Y-63920953D01*
X54172378Y-64159048D01*
X54124759Y-64254286D01*
X54077140Y-64301905D01*
X53172378Y-63111429D02*
X53172378Y-63016191D01*
X53219998Y-62920953D01*
X53267617Y-62873334D01*
X53362855Y-62825715D01*
X53553331Y-62778096D01*
X53791426Y-62778096D01*
X53981902Y-62825715D01*
X54077140Y-62873334D01*
X54124759Y-62920953D01*
X54172378Y-63016191D01*
X54172378Y-63111429D01*
X54124759Y-63206667D01*
X54077140Y-63254286D01*
X53981902Y-63301905D01*
X53791426Y-63349524D01*
X53553331Y-63349524D01*
X53362855Y-63301905D01*
X53267617Y-63254286D01*
X53219998Y-63206667D01*
X53172378Y-63111429D01*
X141325715Y-67999524D02*
X141992381Y-67999524D01*
X140944762Y-68237620D02*
X141659048Y-68475715D01*
X141659048Y-67856667D01*
X66872378Y-51570477D02*
X66872378Y-52141905D01*
X66872378Y-51856191D02*
X65872378Y-51856191D01*
X66015236Y-51951429D01*
X66110474Y-52046667D01*
X66158093Y-52141905D01*
X65872378Y-50713334D02*
X65872378Y-50903810D01*
X65919998Y-50999048D01*
X65967617Y-51046667D01*
X66110474Y-51141905D01*
X66300950Y-51189524D01*
X66681902Y-51189524D01*
X66777140Y-51141905D01*
X66824759Y-51094286D01*
X66872378Y-50999048D01*
X66872378Y-50808572D01*
X66824759Y-50713334D01*
X66777140Y-50665715D01*
X66681902Y-50618096D01*
X66443807Y-50618096D01*
X66348569Y-50665715D01*
X66300950Y-50713334D01*
X66253331Y-50808572D01*
X66253331Y-50999048D01*
X66300950Y-51094286D01*
X66348569Y-51141905D01*
X66443807Y-51189524D01*
X118672378Y-51713334D02*
X118672378Y-51094286D01*
X119053331Y-51427620D01*
X119053331Y-51284762D01*
X119100950Y-51189524D01*
X119148569Y-51141905D01*
X119243807Y-51094286D01*
X119481902Y-51094286D01*
X119577140Y-51141905D01*
X119624759Y-51189524D01*
X119672378Y-51284762D01*
X119672378Y-51570477D01*
X119624759Y-51665715D01*
X119577140Y-51713334D01*
X121545712Y-51189524D02*
X122212378Y-51189524D01*
X121164759Y-51427620D02*
X121879045Y-51665715D01*
X121879045Y-51046667D01*
X43012378Y-26218096D02*
X43012378Y-26694286D01*
X43488569Y-26741905D01*
X43440950Y-26694286D01*
X43393331Y-26599048D01*
X43393331Y-26360953D01*
X43440950Y-26265715D01*
X43488569Y-26218096D01*
X43583807Y-26170477D01*
X43821902Y-26170477D01*
X43917140Y-26218096D01*
X43964759Y-26265715D01*
X44012378Y-26360953D01*
X44012378Y-26599048D01*
X43964759Y-26694286D01*
X43917140Y-26741905D01*
X43440950Y-25599048D02*
X43393331Y-25694286D01*
X43345712Y-25741905D01*
X43250474Y-25789524D01*
X43202855Y-25789524D01*
X43107617Y-25741905D01*
X43059998Y-25694286D01*
X43012378Y-25599048D01*
X43012378Y-25408572D01*
X43059998Y-25313334D01*
X43107617Y-25265715D01*
X43202855Y-25218096D01*
X43250474Y-25218096D01*
X43345712Y-25265715D01*
X43393331Y-25313334D01*
X43440950Y-25408572D01*
X43440950Y-25599048D01*
X43488569Y-25694286D01*
X43536188Y-25741905D01*
X43631426Y-25789524D01*
X43821902Y-25789524D01*
X43917140Y-25741905D01*
X43964759Y-25694286D01*
X44012378Y-25599048D01*
X44012378Y-25408572D01*
X43964759Y-25313334D01*
X43917140Y-25265715D01*
X43821902Y-25218096D01*
X43631426Y-25218096D01*
X43536188Y-25265715D01*
X43488569Y-25313334D01*
X43440950Y-25408572D01*
X134007617Y-26741905D02*
X133959998Y-26694286D01*
X133912378Y-26599048D01*
X133912378Y-26360953D01*
X133959998Y-26265715D01*
X134007617Y-26218096D01*
X134102855Y-26170477D01*
X134198093Y-26170477D01*
X134340950Y-26218096D01*
X134912378Y-26789524D01*
X134912378Y-26170477D01*
X134245712Y-25313334D02*
X134912378Y-25313334D01*
X133864759Y-25551429D02*
X134579045Y-25789524D01*
X134579045Y-25170477D01*
X43012378Y-63778096D02*
X43012378Y-64254286D01*
X43488569Y-64301905D01*
X43440950Y-64254286D01*
X43393331Y-64159048D01*
X43393331Y-63920953D01*
X43440950Y-63825715D01*
X43488569Y-63778096D01*
X43583807Y-63730477D01*
X43821902Y-63730477D01*
X43917140Y-63778096D01*
X43964759Y-63825715D01*
X44012378Y-63920953D01*
X44012378Y-64159048D01*
X43964759Y-64254286D01*
X43917140Y-64301905D01*
X43345712Y-62873334D02*
X44012378Y-62873334D01*
X42964759Y-63111429D02*
X43679045Y-63349524D01*
X43679045Y-62730477D01*
X122242379Y-64325715D02*
X121242379Y-64325715D01*
X122242379Y-63754286D01*
X121242379Y-63754286D01*
X122147141Y-62706667D02*
X122194760Y-62754286D01*
X122242379Y-62897143D01*
X122242379Y-62992381D01*
X122194760Y-63135239D01*
X122099522Y-63230477D01*
X122004284Y-63278096D01*
X121813808Y-63325715D01*
X121670951Y-63325715D01*
X121480475Y-63278096D01*
X121385237Y-63230477D01*
X121289999Y-63135239D01*
X121242379Y-62992381D01*
X121242379Y-62897143D01*
X121289999Y-62754286D01*
X121337618Y-62706667D01*
X131800950Y-51475239D02*
X131753331Y-51570477D01*
X131705712Y-51618096D01*
X131610474Y-51665715D01*
X131562855Y-51665715D01*
X131467617Y-51618096D01*
X131419998Y-51570477D01*
X131372378Y-51475239D01*
X131372378Y-51284762D01*
X131419998Y-51189524D01*
X131467617Y-51141905D01*
X131562855Y-51094286D01*
X131610474Y-51094286D01*
X131705712Y-51141905D01*
X131753331Y-51189524D01*
X131800950Y-51284762D01*
X131800950Y-51475239D01*
X131848569Y-51570477D01*
X131896188Y-51618096D01*
X131991426Y-51665715D01*
X132181902Y-51665715D01*
X132277140Y-51618096D01*
X132324759Y-51570477D01*
X132372378Y-51475239D01*
X132372378Y-51284762D01*
X132324759Y-51189524D01*
X132277140Y-51141905D01*
X132181902Y-51094286D01*
X131991426Y-51094286D01*
X131896188Y-51141905D01*
X131848569Y-51189524D01*
X131800950Y-51284762D01*
X37932378Y-51141905D02*
X37932378Y-51618096D01*
X38408569Y-51665715D01*
X38360950Y-51618096D01*
X38313331Y-51522858D01*
X38313331Y-51284762D01*
X38360950Y-51189524D01*
X38408569Y-51141905D01*
X38503807Y-51094286D01*
X38741902Y-51094286D01*
X38837140Y-51141905D01*
X38884759Y-51189524D01*
X38932378Y-51284762D01*
X38932378Y-51522858D01*
X38884759Y-51618096D01*
X38837140Y-51665715D01*
X119607141Y-81010477D02*
X119654760Y-81058096D01*
X119702379Y-81200953D01*
X119702379Y-81296191D01*
X119654760Y-81439048D01*
X119559522Y-81534286D01*
X119464284Y-81581905D01*
X119273808Y-81629524D01*
X119130951Y-81629524D01*
X118940475Y-81581905D01*
X118845237Y-81534286D01*
X118749999Y-81439048D01*
X118702379Y-81296191D01*
X118702379Y-81200953D01*
X118749999Y-81058096D01*
X118797618Y-81010477D01*
X136547617Y-26741905D02*
X136499998Y-26694286D01*
X136452378Y-26599048D01*
X136452378Y-26360953D01*
X136499998Y-26265715D01*
X136547617Y-26218096D01*
X136642855Y-26170477D01*
X136738093Y-26170477D01*
X136880950Y-26218096D01*
X137452378Y-26789524D01*
X137452378Y-26170477D01*
X136452378Y-25265715D02*
X136452378Y-25741905D01*
X136928569Y-25789524D01*
X136880950Y-25741905D01*
X136833331Y-25646667D01*
X136833331Y-25408572D01*
X136880950Y-25313334D01*
X136928569Y-25265715D01*
X137023807Y-25218096D01*
X137261902Y-25218096D01*
X137357140Y-25265715D01*
X137404759Y-25313334D01*
X137452378Y-25408572D01*
X137452378Y-25646667D01*
X137404759Y-25741905D01*
X137357140Y-25789524D01*
X124782379Y-64325715D02*
X123782379Y-64325715D01*
X124782379Y-63754286D01*
X123782379Y-63754286D01*
X124687141Y-62706667D02*
X124734760Y-62754286D01*
X124782379Y-62897143D01*
X124782379Y-62992381D01*
X124734760Y-63135239D01*
X124639522Y-63230477D01*
X124544284Y-63278096D01*
X124353808Y-63325715D01*
X124210951Y-63325715D01*
X124020475Y-63278096D01*
X123925237Y-63230477D01*
X123829999Y-63135239D01*
X123782379Y-62992381D01*
X123782379Y-62897143D01*
X123829999Y-62754286D01*
X123877618Y-62706667D01*
X89065712Y-26265715D02*
X89732378Y-26265715D01*
X88684759Y-26503810D02*
X89399045Y-26741905D01*
X89399045Y-26122858D01*
X88732378Y-25551429D02*
X88732378Y-25456191D01*
X88779998Y-25360953D01*
X88827617Y-25313334D01*
X88922855Y-25265715D01*
X89113331Y-25218096D01*
X89351426Y-25218096D01*
X89541902Y-25265715D01*
X89637140Y-25313334D01*
X89684759Y-25360953D01*
X89732378Y-25456191D01*
X89732378Y-25551429D01*
X89684759Y-25646667D01*
X89637140Y-25694286D01*
X89541902Y-25741905D01*
X89351426Y-25789524D01*
X89113331Y-25789524D01*
X88922855Y-25741905D01*
X88827617Y-25694286D01*
X88779998Y-25646667D01*
X88732378Y-25551429D01*
X66872378Y-78970477D02*
X66872378Y-79541905D01*
X66872378Y-79256191D02*
X65872378Y-79256191D01*
X66015236Y-79351429D01*
X66110474Y-79446667D01*
X66158093Y-79541905D01*
X65872378Y-78113334D02*
X65872378Y-78303810D01*
X65919998Y-78399048D01*
X65967617Y-78446667D01*
X66110474Y-78541905D01*
X66300950Y-78589524D01*
X66681902Y-78589524D01*
X66777140Y-78541905D01*
X66824759Y-78494286D01*
X66872378Y-78399048D01*
X66872378Y-78208572D01*
X66824759Y-78113334D01*
X66777140Y-78065715D01*
X66681902Y-78018096D01*
X66443807Y-78018096D01*
X66348569Y-78065715D01*
X66300950Y-78113334D01*
X66253331Y-78208572D01*
X66253331Y-78399048D01*
X66300950Y-78494286D01*
X66348569Y-78541905D01*
X66443807Y-78589524D01*
X50632378Y-63778096D02*
X50632378Y-64254286D01*
X51108569Y-64301905D01*
X51060950Y-64254286D01*
X51013331Y-64159048D01*
X51013331Y-63920953D01*
X51060950Y-63825715D01*
X51108569Y-63778096D01*
X51203807Y-63730477D01*
X51441902Y-63730477D01*
X51537140Y-63778096D01*
X51584759Y-63825715D01*
X51632378Y-63920953D01*
X51632378Y-64159048D01*
X51584759Y-64254286D01*
X51537140Y-64301905D01*
X51632378Y-62778096D02*
X51632378Y-63349524D01*
X51632378Y-63063810D02*
X50632378Y-63063810D01*
X50775236Y-63159048D01*
X50870474Y-63254286D01*
X50918093Y-63349524D01*
X98892378Y-64349524D02*
X98892378Y-63730477D01*
X99273331Y-64063810D01*
X99273331Y-63920953D01*
X99320950Y-63825715D01*
X99368569Y-63778096D01*
X99463807Y-63730477D01*
X99701902Y-63730477D01*
X99797140Y-63778096D01*
X99844759Y-63825715D01*
X99892378Y-63920953D01*
X99892378Y-64206667D01*
X99844759Y-64301905D01*
X99797140Y-64349524D01*
X98987617Y-63349524D02*
X98939998Y-63301905D01*
X98892378Y-63206667D01*
X98892378Y-62968572D01*
X98939998Y-62873334D01*
X98987617Y-62825715D01*
X99082855Y-62778096D01*
X99178093Y-62778096D01*
X99320950Y-62825715D01*
X99892378Y-63397143D01*
X99892378Y-62778096D01*
X129832378Y-52165715D02*
X128832378Y-52165715D01*
X129832378Y-51594286D01*
X128832378Y-51594286D01*
X129737140Y-50546667D02*
X129784759Y-50594286D01*
X129832378Y-50737143D01*
X129832378Y-50832381D01*
X129784759Y-50975239D01*
X129689521Y-51070477D01*
X129594283Y-51118096D01*
X129403807Y-51165715D01*
X129260950Y-51165715D01*
X129070474Y-51118096D01*
X128975236Y-51070477D01*
X128879998Y-50975239D01*
X128832378Y-50832381D01*
X128832378Y-50737143D01*
X128879998Y-50594286D01*
X128927617Y-50546667D01*
X81112378Y-64349524D02*
X81112378Y-63730477D01*
X81493331Y-64063810D01*
X81493331Y-63920953D01*
X81540950Y-63825715D01*
X81588569Y-63778096D01*
X81683807Y-63730477D01*
X81921902Y-63730477D01*
X82017140Y-63778096D01*
X82064759Y-63825715D01*
X82112378Y-63920953D01*
X82112378Y-64206667D01*
X82064759Y-64301905D01*
X82017140Y-64349524D01*
X82112378Y-63254286D02*
X82112378Y-63063810D01*
X82064759Y-62968572D01*
X82017140Y-62920953D01*
X81874283Y-62825715D01*
X81683807Y-62778096D01*
X81302855Y-62778096D01*
X81207617Y-62825715D01*
X81159998Y-62873334D01*
X81112378Y-62968572D01*
X81112378Y-63159048D01*
X81159998Y-63254286D01*
X81207617Y-63301905D01*
X81302855Y-63349524D01*
X81540950Y-63349524D01*
X81636188Y-63301905D01*
X81683807Y-63254286D01*
X81731426Y-63159048D01*
X81731426Y-62968572D01*
X81683807Y-62873334D01*
X81636188Y-62825715D01*
X81540950Y-62778096D01*
X106542378Y-52189524D02*
X106542378Y-51570477D01*
X106923331Y-51903810D01*
X106923331Y-51760953D01*
X106970950Y-51665715D01*
X107018569Y-51618096D01*
X107113807Y-51570477D01*
X107351902Y-51570477D01*
X107447140Y-51618096D01*
X107494759Y-51665715D01*
X107542378Y-51760953D01*
X107542378Y-52046667D01*
X107494759Y-52141905D01*
X107447140Y-52189524D01*
X106637617Y-51189524D02*
X106589998Y-51141905D01*
X106542378Y-51046667D01*
X106542378Y-50808572D01*
X106589998Y-50713334D01*
X106637617Y-50665715D01*
X106732855Y-50618096D01*
X106828093Y-50618096D01*
X106970950Y-50665715D01*
X107542378Y-51237143D01*
X107542378Y-50618096D01*
X86525712Y-26265715D02*
X87192378Y-26265715D01*
X86144759Y-26503810D02*
X86859045Y-26741905D01*
X86859045Y-26122858D01*
X87192378Y-25218096D02*
X87192378Y-25789524D01*
X87192378Y-25503810D02*
X86192378Y-25503810D01*
X86335236Y-25599048D01*
X86430474Y-25694286D01*
X86478093Y-25789524D01*
X114592378Y-51594286D02*
X114592378Y-52165715D01*
X114592378Y-51880001D02*
X113592378Y-51880001D01*
X113735236Y-51975239D01*
X113830474Y-52070477D01*
X113878093Y-52165715D01*
X113639998Y-50641905D02*
X113592378Y-50737143D01*
X113592378Y-50880001D01*
X113639998Y-51022858D01*
X113735236Y-51118096D01*
X113830474Y-51165715D01*
X114020950Y-51213334D01*
X114163807Y-51213334D01*
X114354283Y-51165715D01*
X114449521Y-51118096D01*
X114544759Y-51022858D01*
X114592378Y-50880001D01*
X114592378Y-50784762D01*
X114544759Y-50641905D01*
X114497140Y-50594286D01*
X114163807Y-50594286D01*
X114163807Y-50784762D01*
X83747617Y-52141905D02*
X83699998Y-52094286D01*
X83652378Y-51999048D01*
X83652378Y-51760953D01*
X83699998Y-51665715D01*
X83747617Y-51618096D01*
X83842855Y-51570477D01*
X83938093Y-51570477D01*
X84080950Y-51618096D01*
X84652378Y-52189524D01*
X84652378Y-51570477D01*
X83652378Y-51237143D02*
X83652378Y-50618096D01*
X84033331Y-50951429D01*
X84033331Y-50808572D01*
X84080950Y-50713334D01*
X84128569Y-50665715D01*
X84223807Y-50618096D01*
X84461902Y-50618096D01*
X84557140Y-50665715D01*
X84604759Y-50713334D01*
X84652378Y-50808572D01*
X84652378Y-51094286D01*
X84604759Y-51189524D01*
X84557140Y-51237143D01*
X76365712Y-26265715D02*
X77032378Y-26265715D01*
X75984759Y-26503810D02*
X76699045Y-26741905D01*
X76699045Y-26122858D01*
X76032378Y-25265715D02*
X76032378Y-25741905D01*
X76508569Y-25789524D01*
X76460950Y-25741905D01*
X76413331Y-25646667D01*
X76413331Y-25408572D01*
X76460950Y-25313334D01*
X76508569Y-25265715D01*
X76603807Y-25218096D01*
X76841902Y-25218096D01*
X76937140Y-25265715D01*
X76984759Y-25313334D01*
X77032378Y-25408572D01*
X77032378Y-25646667D01*
X76984759Y-25741905D01*
X76937140Y-25789524D01*
X86192378Y-64349524D02*
X86192378Y-63730477D01*
X86573331Y-64063810D01*
X86573331Y-63920953D01*
X86620950Y-63825715D01*
X86668569Y-63778096D01*
X86763807Y-63730477D01*
X87001902Y-63730477D01*
X87097140Y-63778096D01*
X87144759Y-63825715D01*
X87192378Y-63920953D01*
X87192378Y-64206667D01*
X87144759Y-64301905D01*
X87097140Y-64349524D01*
X86192378Y-63397143D02*
X86192378Y-62730477D01*
X87192378Y-63159048D01*
X123847617Y-26741905D02*
X123799998Y-26694286D01*
X123752378Y-26599048D01*
X123752378Y-26360953D01*
X123799998Y-26265715D01*
X123847617Y-26218096D01*
X123942855Y-26170477D01*
X124038093Y-26170477D01*
X124180950Y-26218096D01*
X124752378Y-26789524D01*
X124752378Y-26170477D01*
X123752378Y-25551429D02*
X123752378Y-25456191D01*
X123799998Y-25360953D01*
X123847617Y-25313334D01*
X123942855Y-25265715D01*
X124133331Y-25218096D01*
X124371426Y-25218096D01*
X124561902Y-25265715D01*
X124657140Y-25313334D01*
X124704759Y-25360953D01*
X124752378Y-25456191D01*
X124752378Y-25551429D01*
X124704759Y-25646667D01*
X124657140Y-25694286D01*
X124561902Y-25741905D01*
X124371426Y-25789524D01*
X124133331Y-25789524D01*
X123942855Y-25741905D01*
X123847617Y-25694286D01*
X123799998Y-25646667D01*
X123752378Y-25551429D01*
X40472378Y-64278096D02*
X40472378Y-64754286D01*
X40948569Y-64801905D01*
X40900950Y-64754286D01*
X40853331Y-64659048D01*
X40853331Y-64420953D01*
X40900950Y-64325715D01*
X40948569Y-64278096D01*
X41043807Y-64230477D01*
X41281902Y-64230477D01*
X41377140Y-64278096D01*
X41424759Y-64325715D01*
X41472378Y-64420953D01*
X41472378Y-64659048D01*
X41424759Y-64754286D01*
X41377140Y-64801905D01*
X40472378Y-63325715D02*
X40472378Y-63801905D01*
X40948569Y-63849524D01*
X40900950Y-63801905D01*
X40853331Y-63706667D01*
X40853331Y-63468572D01*
X40900950Y-63373334D01*
X40948569Y-63325715D01*
X41043807Y-63278096D01*
X41281902Y-63278096D01*
X41377140Y-63325715D01*
X41424759Y-63373334D01*
X41472378Y-63468572D01*
X41472378Y-63706667D01*
X41424759Y-63801905D01*
X41377140Y-63849524D01*
X40519998Y-62325715D02*
X40472378Y-62420953D01*
X40472378Y-62563810D01*
X40519998Y-62706667D01*
X40615236Y-62801905D01*
X40710474Y-62849524D01*
X40900950Y-62897143D01*
X41043807Y-62897143D01*
X41234283Y-62849524D01*
X41329521Y-62801905D01*
X41424759Y-62706667D01*
X41472378Y-62563810D01*
X41472378Y-62468572D01*
X41424759Y-62325715D01*
X41377140Y-62278096D01*
X41043807Y-62278096D01*
X41043807Y-62468572D01*
X64332378Y-78970477D02*
X64332378Y-79541905D01*
X64332378Y-79256191D02*
X63332378Y-79256191D01*
X63475236Y-79351429D01*
X63570474Y-79446667D01*
X63618093Y-79541905D01*
X63332378Y-78065715D02*
X63332378Y-78541905D01*
X63808569Y-78589524D01*
X63760950Y-78541905D01*
X63713331Y-78446667D01*
X63713331Y-78208572D01*
X63760950Y-78113334D01*
X63808569Y-78065715D01*
X63903807Y-78018096D01*
X64141902Y-78018096D01*
X64237140Y-78065715D01*
X64284759Y-78113334D01*
X64332378Y-78208572D01*
X64332378Y-78446667D01*
X64284759Y-78541905D01*
X64237140Y-78589524D01*
X101432378Y-26789524D02*
X101432378Y-26170477D01*
X101813331Y-26503810D01*
X101813331Y-26360953D01*
X101860950Y-26265715D01*
X101908569Y-26218096D01*
X102003807Y-26170477D01*
X102241902Y-26170477D01*
X102337140Y-26218096D01*
X102384759Y-26265715D01*
X102432378Y-26360953D01*
X102432378Y-26646667D01*
X102384759Y-26741905D01*
X102337140Y-26789524D01*
X101432378Y-25265715D02*
X101432378Y-25741905D01*
X101908569Y-25789524D01*
X101860950Y-25741905D01*
X101813331Y-25646667D01*
X101813331Y-25408572D01*
X101860950Y-25313334D01*
X101908569Y-25265715D01*
X102003807Y-25218096D01*
X102241902Y-25218096D01*
X102337140Y-25265715D01*
X102384759Y-25313334D01*
X102432378Y-25408572D01*
X102432378Y-25646667D01*
X102384759Y-25741905D01*
X102337140Y-25789524D01*
X35725712Y-78589524D02*
X36392378Y-78589524D01*
X35344759Y-78827620D02*
X36059045Y-79065715D01*
X36059045Y-78446667D01*
X124496665Y-81558096D02*
X124496665Y-81081905D01*
X124782379Y-81653334D02*
X123782379Y-81320001D01*
X124782379Y-80986667D01*
X27772378Y-63825715D02*
X27772378Y-64016191D01*
X27819998Y-64111429D01*
X27867617Y-64159048D01*
X28010474Y-64254286D01*
X28200950Y-64301905D01*
X28581902Y-64301905D01*
X28677140Y-64254286D01*
X28724759Y-64206667D01*
X28772378Y-64111429D01*
X28772378Y-63920953D01*
X28724759Y-63825715D01*
X28677140Y-63778096D01*
X28581902Y-63730477D01*
X28343807Y-63730477D01*
X28248569Y-63778096D01*
X28200950Y-63825715D01*
X28153331Y-63920953D01*
X28153331Y-64111429D01*
X28200950Y-64206667D01*
X28248569Y-64254286D01*
X28343807Y-64301905D01*
X27772378Y-63111429D02*
X27772378Y-63016191D01*
X27819998Y-62920953D01*
X27867617Y-62873334D01*
X27962855Y-62825715D01*
X28153331Y-62778096D01*
X28391426Y-62778096D01*
X28581902Y-62825715D01*
X28677140Y-62873334D01*
X28724759Y-62920953D01*
X28772378Y-63016191D01*
X28772378Y-63111429D01*
X28724759Y-63206667D01*
X28677140Y-63254286D01*
X28581902Y-63301905D01*
X28391426Y-63349524D01*
X28153331Y-63349524D01*
X27962855Y-63301905D01*
X27867617Y-63254286D01*
X27819998Y-63206667D01*
X27772378Y-63111429D01*
X128957618Y-63825715D02*
X128909999Y-63778096D01*
X128862379Y-63682858D01*
X128862379Y-63444762D01*
X128909999Y-63349524D01*
X128957618Y-63301905D01*
X129052856Y-63254286D01*
X129148094Y-63254286D01*
X129290951Y-63301905D01*
X129862379Y-63873334D01*
X129862379Y-63254286D01*
X66205712Y-26265715D02*
X66872378Y-26265715D01*
X65824759Y-26503810D02*
X66539045Y-26741905D01*
X66539045Y-26122858D01*
X66872378Y-25694286D02*
X66872378Y-25503810D01*
X66824759Y-25408572D01*
X66777140Y-25360953D01*
X66634283Y-25265715D01*
X66443807Y-25218096D01*
X66062855Y-25218096D01*
X65967617Y-25265715D01*
X65919998Y-25313334D01*
X65872378Y-25408572D01*
X65872378Y-25599048D01*
X65919998Y-25694286D01*
X65967617Y-25741905D01*
X66062855Y-25789524D01*
X66300950Y-25789524D01*
X66396188Y-25741905D01*
X66443807Y-25694286D01*
X66491426Y-25599048D01*
X66491426Y-25408572D01*
X66443807Y-25313334D01*
X66396188Y-25265715D01*
X66300950Y-25218096D01*
X55712378Y-26718096D02*
X55712378Y-27194286D01*
X56188569Y-27241905D01*
X56140950Y-27194286D01*
X56093331Y-27099048D01*
X56093331Y-26860953D01*
X56140950Y-26765715D01*
X56188569Y-26718096D01*
X56283807Y-26670477D01*
X56521902Y-26670477D01*
X56617140Y-26718096D01*
X56664759Y-26765715D01*
X56712378Y-26860953D01*
X56712378Y-27099048D01*
X56664759Y-27194286D01*
X56617140Y-27241905D01*
X55712378Y-26337143D02*
X55712378Y-25718096D01*
X56093331Y-26051429D01*
X56093331Y-25908572D01*
X56140950Y-25813334D01*
X56188569Y-25765715D01*
X56283807Y-25718096D01*
X56521902Y-25718096D01*
X56617140Y-25765715D01*
X56664759Y-25813334D01*
X56712378Y-25908572D01*
X56712378Y-26194286D01*
X56664759Y-26289524D01*
X56617140Y-26337143D01*
X55759998Y-24765715D02*
X55712378Y-24860953D01*
X55712378Y-25003810D01*
X55759998Y-25146667D01*
X55855236Y-25241905D01*
X55950474Y-25289524D01*
X56140950Y-25337143D01*
X56283807Y-25337143D01*
X56474283Y-25289524D01*
X56569521Y-25241905D01*
X56664759Y-25146667D01*
X56712378Y-25003810D01*
X56712378Y-24908572D01*
X56664759Y-24765715D01*
X56617140Y-24718096D01*
X56283807Y-24718096D01*
X56283807Y-24908572D01*
X91272378Y-26789524D02*
X91272378Y-26170477D01*
X91653331Y-26503810D01*
X91653331Y-26360953D01*
X91700950Y-26265715D01*
X91748569Y-26218096D01*
X91843807Y-26170477D01*
X92081902Y-26170477D01*
X92177140Y-26218096D01*
X92224759Y-26265715D01*
X92272378Y-26360953D01*
X92272378Y-26646667D01*
X92224759Y-26741905D01*
X92177140Y-26789524D01*
X92272378Y-25694286D02*
X92272378Y-25503810D01*
X92224759Y-25408572D01*
X92177140Y-25360953D01*
X92034283Y-25265715D01*
X91843807Y-25218096D01*
X91462855Y-25218096D01*
X91367617Y-25265715D01*
X91319998Y-25313334D01*
X91272378Y-25408572D01*
X91272378Y-25599048D01*
X91319998Y-25694286D01*
X91367617Y-25741905D01*
X91462855Y-25789524D01*
X91700950Y-25789524D01*
X91796188Y-25741905D01*
X91843807Y-25694286D01*
X91891426Y-25599048D01*
X91891426Y-25408572D01*
X91843807Y-25313334D01*
X91796188Y-25265715D01*
X91700950Y-25218096D01*
X143532381Y-68523334D02*
X143532381Y-67904286D01*
X143913334Y-68237620D01*
X143913334Y-68094762D01*
X143960953Y-67999524D01*
X144008572Y-67951905D01*
X144103810Y-67904286D01*
X144341905Y-67904286D01*
X144437143Y-67951905D01*
X144484762Y-67999524D01*
X144532381Y-68094762D01*
X144532381Y-68380477D01*
X144484762Y-68475715D01*
X144437143Y-68523334D01*
X56045712Y-63825715D02*
X56712378Y-63825715D01*
X55664759Y-64063810D02*
X56379045Y-64301905D01*
X56379045Y-63682858D01*
X56712378Y-63254286D02*
X56712378Y-63063810D01*
X56664759Y-62968572D01*
X56617140Y-62920953D01*
X56474283Y-62825715D01*
X56283807Y-62778096D01*
X55902855Y-62778096D01*
X55807617Y-62825715D01*
X55759998Y-62873334D01*
X55712378Y-62968572D01*
X55712378Y-63159048D01*
X55759998Y-63254286D01*
X55807617Y-63301905D01*
X55902855Y-63349524D01*
X56140950Y-63349524D01*
X56236188Y-63301905D01*
X56283807Y-63254286D01*
X56331426Y-63159048D01*
X56331426Y-62968572D01*
X56283807Y-62873334D01*
X56236188Y-62825715D01*
X56140950Y-62778096D01*
X61125712Y-63825715D02*
X61792378Y-63825715D01*
X60744759Y-64063810D02*
X61459045Y-64301905D01*
X61459045Y-63682858D01*
X60792378Y-63397143D02*
X60792378Y-62730477D01*
X61792378Y-63159048D01*
X81207617Y-79541905D02*
X81159998Y-79494286D01*
X81112378Y-79399048D01*
X81112378Y-79160953D01*
X81159998Y-79065715D01*
X81207617Y-79018096D01*
X81302855Y-78970477D01*
X81398093Y-78970477D01*
X81540950Y-79018096D01*
X82112378Y-79589524D01*
X82112378Y-78970477D01*
X81207617Y-78589524D02*
X81159998Y-78541905D01*
X81112378Y-78446667D01*
X81112378Y-78208572D01*
X81159998Y-78113334D01*
X81207617Y-78065715D01*
X81302855Y-78018096D01*
X81398093Y-78018096D01*
X81540950Y-78065715D01*
X82112378Y-78637143D01*
X82112378Y-78018096D01*
X134912378Y-51570477D02*
X134912378Y-51380001D01*
X134864759Y-51284762D01*
X134817140Y-51237143D01*
X134674283Y-51141905D01*
X134483807Y-51094286D01*
X134102855Y-51094286D01*
X134007617Y-51141905D01*
X133959998Y-51189524D01*
X133912378Y-51284762D01*
X133912378Y-51475239D01*
X133959998Y-51570477D01*
X134007617Y-51618096D01*
X134102855Y-51665715D01*
X134340950Y-51665715D01*
X134436188Y-51618096D01*
X134483807Y-51570477D01*
X134531426Y-51475239D01*
X134531426Y-51284762D01*
X134483807Y-51189524D01*
X134436188Y-51141905D01*
X134340950Y-51094286D01*
X71285712Y-63825715D02*
X71952378Y-63825715D01*
X70904759Y-64063810D02*
X71619045Y-64301905D01*
X71619045Y-63682858D01*
X70952378Y-63397143D02*
X70952378Y-62778096D01*
X71333331Y-63111429D01*
X71333331Y-62968572D01*
X71380950Y-62873334D01*
X71428569Y-62825715D01*
X71523807Y-62778096D01*
X71761902Y-62778096D01*
X71857140Y-62825715D01*
X71904759Y-62873334D01*
X71952378Y-62968572D01*
X71952378Y-63254286D01*
X71904759Y-63349524D01*
X71857140Y-63397143D01*
X117132378Y-26170477D02*
X117132378Y-26741905D01*
X117132378Y-26456191D02*
X116132378Y-26456191D01*
X116275236Y-26551429D01*
X116370474Y-26646667D01*
X116418093Y-26741905D01*
X116132378Y-25837143D02*
X116132378Y-25170477D01*
X117132378Y-25599048D01*
X32852378Y-51713334D02*
X32852378Y-51094286D01*
X33233331Y-51427620D01*
X33233331Y-51284762D01*
X33280950Y-51189524D01*
X33328569Y-51141905D01*
X33423807Y-51094286D01*
X33661902Y-51094286D01*
X33757140Y-51141905D01*
X33804759Y-51189524D01*
X33852378Y-51284762D01*
X33852378Y-51570477D01*
X33804759Y-51665715D01*
X33757140Y-51713334D01*
X37932378Y-78541905D02*
X37932378Y-79018096D01*
X38408569Y-79065715D01*
X38360950Y-79018096D01*
X38313331Y-78922858D01*
X38313331Y-78684762D01*
X38360950Y-78589524D01*
X38408569Y-78541905D01*
X38503807Y-78494286D01*
X38741902Y-78494286D01*
X38837140Y-78541905D01*
X38884759Y-78589524D01*
X38932378Y-78684762D01*
X38932378Y-78922858D01*
X38884759Y-79018096D01*
X38837140Y-79065715D01*
X78667617Y-52141905D02*
X78619998Y-52094286D01*
X78572378Y-51999048D01*
X78572378Y-51760953D01*
X78619998Y-51665715D01*
X78667617Y-51618096D01*
X78762855Y-51570477D01*
X78858093Y-51570477D01*
X79000950Y-51618096D01*
X79572378Y-52189524D01*
X79572378Y-51570477D01*
X79572378Y-50618096D02*
X79572378Y-51189524D01*
X79572378Y-50903810D02*
X78572378Y-50903810D01*
X78715236Y-50999048D01*
X78810474Y-51094286D01*
X78858093Y-51189524D01*
X60792378Y-26218096D02*
X60792378Y-26694286D01*
X61268569Y-26741905D01*
X61220950Y-26694286D01*
X61173331Y-26599048D01*
X61173331Y-26360953D01*
X61220950Y-26265715D01*
X61268569Y-26218096D01*
X61363807Y-26170477D01*
X61601902Y-26170477D01*
X61697140Y-26218096D01*
X61744759Y-26265715D01*
X61792378Y-26360953D01*
X61792378Y-26599048D01*
X61744759Y-26694286D01*
X61697140Y-26741905D01*
X61792378Y-25218096D02*
X61792378Y-25789524D01*
X61792378Y-25503810D02*
X60792378Y-25503810D01*
X60935236Y-25599048D01*
X61030474Y-25694286D01*
X61078093Y-25789524D01*
X53172378Y-26218096D02*
X53172378Y-26694286D01*
X53648569Y-26741905D01*
X53600950Y-26694286D01*
X53553331Y-26599048D01*
X53553331Y-26360953D01*
X53600950Y-26265715D01*
X53648569Y-26218096D01*
X53743807Y-26170477D01*
X53981902Y-26170477D01*
X54077140Y-26218096D01*
X54124759Y-26265715D01*
X54172378Y-26360953D01*
X54172378Y-26599048D01*
X54124759Y-26694286D01*
X54077140Y-26741905D01*
X53505712Y-25313334D02*
X54172378Y-25313334D01*
X53124759Y-25551429D02*
X53839045Y-25789524D01*
X53839045Y-25170477D01*
X122212378Y-26170477D02*
X122212378Y-26741905D01*
X122212378Y-26456191D02*
X121212378Y-26456191D01*
X121355236Y-26551429D01*
X121450474Y-26646667D01*
X121498093Y-26741905D01*
X122212378Y-25694286D02*
X122212378Y-25503810D01*
X122164759Y-25408572D01*
X122117140Y-25360953D01*
X121974283Y-25265715D01*
X121783807Y-25218096D01*
X121402855Y-25218096D01*
X121307617Y-25265715D01*
X121259998Y-25313334D01*
X121212378Y-25408572D01*
X121212378Y-25599048D01*
X121259998Y-25694286D01*
X121307617Y-25741905D01*
X121402855Y-25789524D01*
X121640950Y-25789524D01*
X121736188Y-25741905D01*
X121783807Y-25694286D01*
X121831426Y-25599048D01*
X121831426Y-25408572D01*
X121783807Y-25313334D01*
X121736188Y-25265715D01*
X121640950Y-25218096D01*
%TO.C,SW1*%
X107684760Y-78093334D02*
X107732379Y-77950477D01*
X107732379Y-77712381D01*
X107684760Y-77617143D01*
X107637141Y-77569524D01*
X107541903Y-77521905D01*
X107446665Y-77521905D01*
X107351427Y-77569524D01*
X107303808Y-77617143D01*
X107256189Y-77712381D01*
X107208570Y-77902858D01*
X107160951Y-77998096D01*
X107113332Y-78045715D01*
X107018094Y-78093334D01*
X106922856Y-78093334D01*
X106827618Y-78045715D01*
X106779999Y-77998096D01*
X106732379Y-77902858D01*
X106732379Y-77664762D01*
X106779999Y-77521905D01*
X106732379Y-77188572D02*
X107732379Y-76950477D01*
X107018094Y-76760001D01*
X107732379Y-76569524D01*
X106732379Y-76331429D01*
X107732379Y-75426667D02*
X107732379Y-75998096D01*
X107732379Y-75712381D02*
X106732379Y-75712381D01*
X106875237Y-75807620D01*
X106970475Y-75902858D01*
X107018094Y-75998096D01*
%TO.C,U3*%
X140442381Y-76630001D02*
X139442381Y-76630001D01*
X139442381Y-76249048D01*
X139490001Y-76153810D01*
X139537620Y-76106191D01*
X139632858Y-76058572D01*
X139775715Y-76058572D01*
X139870953Y-76106191D01*
X139918572Y-76153810D01*
X139966191Y-76249048D01*
X139966191Y-76630001D01*
X140442381Y-75058572D02*
X139966191Y-75391905D01*
X140442381Y-75630001D02*
X139442381Y-75630001D01*
X139442381Y-75249048D01*
X139490001Y-75153810D01*
X139537620Y-75106191D01*
X139632858Y-75058572D01*
X139775715Y-75058572D01*
X139870953Y-75106191D01*
X139918572Y-75153810D01*
X139966191Y-75249048D01*
X139966191Y-75630001D01*
X139442381Y-74772858D02*
X139442381Y-74201429D01*
X140442381Y-74487143D02*
X139442381Y-74487143D01*
X140442381Y-73296667D02*
X139966191Y-73630001D01*
X140442381Y-73868096D02*
X139442381Y-73868096D01*
X139442381Y-73487143D01*
X139490001Y-73391905D01*
X139537620Y-73344286D01*
X139632858Y-73296667D01*
X139775715Y-73296667D01*
X139870953Y-73344286D01*
X139918572Y-73391905D01*
X139966191Y-73487143D01*
X139966191Y-73868096D01*
X139442381Y-72391905D02*
X139442381Y-72868096D01*
X139918572Y-72915715D01*
X139870953Y-72868096D01*
X139823334Y-72772858D01*
X139823334Y-72534762D01*
X139870953Y-72439524D01*
X139918572Y-72391905D01*
X140013810Y-72344286D01*
X140251905Y-72344286D01*
X140347143Y-72391905D01*
X140394762Y-72439524D01*
X140442381Y-72534762D01*
X140442381Y-72772858D01*
X140394762Y-72868096D01*
X140347143Y-72915715D01*
X139442381Y-72058572D02*
X140442381Y-71725239D01*
X139442381Y-71391905D01*
X139442381Y-70868096D02*
X139442381Y-70772858D01*
X139490001Y-70677620D01*
X139537620Y-70630001D01*
X139632858Y-70582381D01*
X139823334Y-70534762D01*
X140061429Y-70534762D01*
X140251905Y-70582381D01*
X140347143Y-70630001D01*
X140394762Y-70677620D01*
X140442381Y-70772858D01*
X140442381Y-70868096D01*
X140394762Y-70963334D01*
X140347143Y-71010953D01*
X140251905Y-71058572D01*
X140061429Y-71106191D01*
X139823334Y-71106191D01*
X139632858Y-71058572D01*
X139537620Y-71010953D01*
X139490001Y-70963334D01*
X139442381Y-70868096D01*
X139442381Y-70106191D02*
X140251905Y-70106191D01*
X140347143Y-70058572D01*
X140394762Y-70010953D01*
X140442381Y-69915715D01*
X140442381Y-69725239D01*
X140394762Y-69630001D01*
X140347143Y-69582381D01*
X140251905Y-69534762D01*
X139442381Y-69534762D01*
X139537620Y-69106191D02*
X139490001Y-69058572D01*
X139442381Y-68963334D01*
X139442381Y-68725239D01*
X139490001Y-68630001D01*
X139537620Y-68582381D01*
X139632858Y-68534762D01*
X139728096Y-68534762D01*
X139870953Y-68582381D01*
X140442381Y-69153810D01*
X140442381Y-68534762D01*
X139442381Y-68201429D02*
X140442381Y-67534762D01*
X139442381Y-67534762D02*
X140442381Y-68201429D01*
D11*
%TO.C,IC1*%
X53931664Y-46995477D02*
X53931664Y-46390715D01*
X54294521Y-47116429D02*
X53024521Y-46693096D01*
X54294521Y-46269762D01*
X53024521Y-46027858D02*
X53024521Y-45302143D01*
X54294521Y-45665001D02*
X53024521Y-45665001D01*
X54294521Y-44818334D02*
X54294521Y-44576429D01*
X54234045Y-44455477D01*
X54173569Y-44395001D01*
X53992140Y-44274048D01*
X53750236Y-44213572D01*
X53266426Y-44213572D01*
X53145474Y-44274048D01*
X53084998Y-44334524D01*
X53024521Y-44455477D01*
X53024521Y-44697381D01*
X53084998Y-44818334D01*
X53145474Y-44878810D01*
X53266426Y-44939286D01*
X53568807Y-44939286D01*
X53689759Y-44878810D01*
X53750236Y-44818334D01*
X53810712Y-44697381D01*
X53810712Y-44455477D01*
X53750236Y-44334524D01*
X53689759Y-44274048D01*
X53568807Y-44213572D01*
X53024521Y-43427381D02*
X53024521Y-43306429D01*
X53084998Y-43185477D01*
X53145474Y-43125001D01*
X53266426Y-43064524D01*
X53508331Y-43004048D01*
X53810712Y-43004048D01*
X54052617Y-43064524D01*
X54173569Y-43125001D01*
X54234045Y-43185477D01*
X54294521Y-43306429D01*
X54294521Y-43427381D01*
X54234045Y-43548334D01*
X54173569Y-43608810D01*
X54052617Y-43669286D01*
X53810712Y-43729762D01*
X53508331Y-43729762D01*
X53266426Y-43669286D01*
X53145474Y-43608810D01*
X53084998Y-43548334D01*
X53024521Y-43427381D01*
X53024521Y-42459762D02*
X54052617Y-42459762D01*
X54173569Y-42399286D01*
X54234045Y-42338810D01*
X54294521Y-42217858D01*
X54294521Y-41975953D01*
X54234045Y-41855001D01*
X54173569Y-41794524D01*
X54052617Y-41734048D01*
X53024521Y-41734048D01*
X54234045Y-41189762D02*
X54294521Y-41008334D01*
X54294521Y-40705953D01*
X54234045Y-40585001D01*
X54173569Y-40524524D01*
X54052617Y-40464048D01*
X53931664Y-40464048D01*
X53810712Y-40524524D01*
X53750236Y-40585001D01*
X53689759Y-40705953D01*
X53629283Y-40947858D01*
X53568807Y-41068810D01*
X53508331Y-41129286D01*
X53387378Y-41189762D01*
X53266426Y-41189762D01*
X53145474Y-41129286D01*
X53084998Y-41068810D01*
X53024521Y-40947858D01*
X53024521Y-40645477D01*
X53084998Y-40464048D01*
X53629283Y-39496429D02*
X53689759Y-39315001D01*
X53750236Y-39254524D01*
X53871188Y-39194048D01*
X54052617Y-39194048D01*
X54173569Y-39254524D01*
X54234045Y-39315001D01*
X54294521Y-39435953D01*
X54294521Y-39919762D01*
X53024521Y-39919762D01*
X53024521Y-39496429D01*
X53084998Y-39375477D01*
X53145474Y-39315001D01*
X53266426Y-39254524D01*
X53387378Y-39254524D01*
X53508331Y-39315001D01*
X53568807Y-39375477D01*
X53629283Y-39496429D01*
X53629283Y-39919762D01*
X54294521Y-37984524D02*
X54294521Y-38710239D01*
X54294521Y-38347381D02*
X53024521Y-38347381D01*
X53205950Y-38468334D01*
X53326902Y-38589286D01*
X53387378Y-38710239D01*
X53145474Y-37500715D02*
X53084998Y-37440239D01*
X53024521Y-37319286D01*
X53024521Y-37016905D01*
X53084998Y-36895953D01*
X53145474Y-36835477D01*
X53266426Y-36775001D01*
X53387378Y-36775001D01*
X53568807Y-36835477D01*
X54294521Y-37561191D01*
X54294521Y-36775001D01*
X53568807Y-36049286D02*
X53508331Y-36170239D01*
X53447855Y-36230715D01*
X53326902Y-36291191D01*
X53266426Y-36291191D01*
X53145474Y-36230715D01*
X53084998Y-36170239D01*
X53024521Y-36049286D01*
X53024521Y-35807381D01*
X53084998Y-35686429D01*
X53145474Y-35625953D01*
X53266426Y-35565477D01*
X53326902Y-35565477D01*
X53447855Y-35625953D01*
X53508331Y-35686429D01*
X53568807Y-35807381D01*
X53568807Y-36049286D01*
X53629283Y-36170239D01*
X53689759Y-36230715D01*
X53810712Y-36291191D01*
X54052617Y-36291191D01*
X54173569Y-36230715D01*
X54234045Y-36170239D01*
X54294521Y-36049286D01*
X54294521Y-35807381D01*
X54234045Y-35686429D01*
X54173569Y-35625953D01*
X54052617Y-35565477D01*
X53810712Y-35565477D01*
X53689759Y-35625953D01*
X53629283Y-35686429D01*
X53568807Y-35807381D01*
X53024521Y-34476905D02*
X53024521Y-34718810D01*
X53084998Y-34839762D01*
X53145474Y-34900239D01*
X53326902Y-35021191D01*
X53568807Y-35081667D01*
X54052617Y-35081667D01*
X54173569Y-35021191D01*
X54234045Y-34960715D01*
X54294521Y-34839762D01*
X54294521Y-34597858D01*
X54234045Y-34476905D01*
X54173569Y-34416429D01*
X54052617Y-34355953D01*
X53750236Y-34355953D01*
X53629283Y-34416429D01*
X53568807Y-34476905D01*
X53508331Y-34597858D01*
X53508331Y-34839762D01*
X53568807Y-34960715D01*
X53629283Y-35021191D01*
X53750236Y-35081667D01*
X53810712Y-33811667D02*
X53810712Y-32844048D01*
X53931664Y-32299762D02*
X53931664Y-31695001D01*
X54294521Y-32420715D02*
X53024521Y-31997381D01*
X54294521Y-31574048D01*
X53024521Y-31150715D02*
X54052617Y-31150715D01*
X54173569Y-31090239D01*
X54234045Y-31029762D01*
X54294521Y-30908810D01*
X54294521Y-30666905D01*
X54234045Y-30545953D01*
X54173569Y-30485477D01*
X54052617Y-30425001D01*
X53024521Y-30425001D01*
D10*
%TO.C,SW2*%
X122584760Y-78103334D02*
X122632379Y-77960477D01*
X122632379Y-77722381D01*
X122584760Y-77627143D01*
X122537141Y-77579524D01*
X122441903Y-77531905D01*
X122346665Y-77531905D01*
X122251427Y-77579524D01*
X122203808Y-77627143D01*
X122156189Y-77722381D01*
X122108570Y-77912858D01*
X122060951Y-78008096D01*
X122013332Y-78055715D01*
X121918094Y-78103334D01*
X121822856Y-78103334D01*
X121727618Y-78055715D01*
X121679999Y-78008096D01*
X121632379Y-77912858D01*
X121632379Y-77674762D01*
X121679999Y-77531905D01*
X121632379Y-77198572D02*
X122632379Y-76960477D01*
X121918094Y-76770001D01*
X122632379Y-76579524D01*
X121632379Y-76341429D01*
X121727618Y-76008096D02*
X121679999Y-75960477D01*
X121632379Y-75865239D01*
X121632379Y-75627143D01*
X121679999Y-75531905D01*
X121727618Y-75484286D01*
X121822856Y-75436667D01*
X121918094Y-75436667D01*
X122060951Y-75484286D01*
X122632379Y-76055715D01*
X122632379Y-75436667D01*
D11*
%TO.C,UOLED1*%
X113444521Y-42036429D02*
X114472617Y-42036429D01*
X114593569Y-41975953D01*
X114654045Y-41915477D01*
X114714521Y-41794524D01*
X114714521Y-41552620D01*
X114654045Y-41431667D01*
X114593569Y-41371191D01*
X114472617Y-41310715D01*
X113444521Y-41310715D01*
X113444521Y-40464048D02*
X113444521Y-40222143D01*
X113504998Y-40101191D01*
X113625950Y-39980239D01*
X113867855Y-39919762D01*
X114291188Y-39919762D01*
X114533093Y-39980239D01*
X114654045Y-40101191D01*
X114714521Y-40222143D01*
X114714521Y-40464048D01*
X114654045Y-40585001D01*
X114533093Y-40705953D01*
X114291188Y-40766429D01*
X113867855Y-40766429D01*
X113625950Y-40705953D01*
X113504998Y-40585001D01*
X113444521Y-40464048D01*
X114714521Y-38770715D02*
X114714521Y-39375477D01*
X113444521Y-39375477D01*
X114049283Y-38347381D02*
X114049283Y-37924048D01*
X114714521Y-37742620D02*
X114714521Y-38347381D01*
X113444521Y-38347381D01*
X113444521Y-37742620D01*
X114714521Y-37198334D02*
X113444521Y-37198334D01*
X113444521Y-36895953D01*
X113504998Y-36714524D01*
X113625950Y-36593572D01*
X113746902Y-36533096D01*
X113988807Y-36472620D01*
X114170236Y-36472620D01*
X114412140Y-36533096D01*
X114533093Y-36593572D01*
X114654045Y-36714524D01*
X114714521Y-36895953D01*
X114714521Y-37198334D01*
X114714521Y-35263096D02*
X114714521Y-35988810D01*
X114714521Y-35625953D02*
X113444521Y-35625953D01*
X113625950Y-35746905D01*
X113746902Y-35867858D01*
X113807378Y-35988810D01*
%TO.C,U1*%
X59374521Y-76995953D02*
X58104521Y-76995953D01*
X59314045Y-76451667D02*
X59374521Y-76270239D01*
X59374521Y-75967858D01*
X59314045Y-75846905D01*
X59253569Y-75786429D01*
X59132617Y-75725953D01*
X59011664Y-75725953D01*
X58890712Y-75786429D01*
X58830236Y-75846905D01*
X58769759Y-75967858D01*
X58709283Y-76209762D01*
X58648807Y-76330715D01*
X58588331Y-76391191D01*
X58467378Y-76451667D01*
X58346426Y-76451667D01*
X58225474Y-76391191D01*
X58164998Y-76330715D01*
X58104521Y-76209762D01*
X58104521Y-75907381D01*
X58164998Y-75725953D01*
X58104521Y-75302620D02*
X58104521Y-74516429D01*
X58588331Y-74939762D01*
X58588331Y-74758334D01*
X58648807Y-74637381D01*
X58709283Y-74576905D01*
X58830236Y-74516429D01*
X59132617Y-74516429D01*
X59253569Y-74576905D01*
X59314045Y-74637381D01*
X59374521Y-74758334D01*
X59374521Y-75121191D01*
X59314045Y-75242143D01*
X59253569Y-75302620D01*
X59374521Y-73306905D02*
X59374521Y-74032620D01*
X59374521Y-73669762D02*
X58104521Y-73669762D01*
X58285950Y-73790715D01*
X58406902Y-73911667D01*
X58467378Y-74032620D01*
X58709283Y-72339286D02*
X58709283Y-72762620D01*
X59374521Y-72762620D02*
X58104521Y-72762620D01*
X58104521Y-72157858D01*
X59374521Y-71069286D02*
X59374521Y-71674048D01*
X58104521Y-71674048D01*
X58104521Y-70766905D02*
X58104521Y-69980715D01*
X58588331Y-70404048D01*
X58588331Y-70222620D01*
X58648807Y-70101667D01*
X58709283Y-70041191D01*
X58830236Y-69980715D01*
X59132617Y-69980715D01*
X59253569Y-70041191D01*
X59314045Y-70101667D01*
X59374521Y-70222620D01*
X59374521Y-70585477D01*
X59314045Y-70706429D01*
X59253569Y-70766905D01*
X58104521Y-69557381D02*
X58104521Y-68710715D01*
X59374521Y-69255001D01*
X58527855Y-67682620D02*
X59374521Y-67682620D01*
X58044045Y-67985001D02*
X58951188Y-68287381D01*
X58951188Y-67501191D01*
X59374521Y-66352143D02*
X59374521Y-67077858D01*
X59374521Y-66715001D02*
X58104521Y-66715001D01*
X58285950Y-66835953D01*
X58406902Y-66956905D01*
X58467378Y-67077858D01*
X59011664Y-65868334D02*
X59011664Y-65263572D01*
X59374521Y-65989286D02*
X58104521Y-65565953D01*
X59374521Y-65142620D01*
D12*
%TO.C,mouse-bite-2mm-slot*%
X94819998Y-58460001D02*
G75*
G03*
X94819998Y-56460001I0J1000000D01*
G01*
X101819998Y-56460001D02*
G75*
G03*
X101819998Y-58460001I0J-1000000D01*
G01*
D13*
%TO.C,J11*%
X105789998Y-22110001D02*
X26989998Y-22110001D01*
X105789998Y-24770001D02*
X26989998Y-24770001D01*
X108389998Y-22110001D02*
X108389998Y-23440001D01*
X107059998Y-22110001D02*
X108389998Y-22110001D01*
X105789998Y-22110001D02*
X105789998Y-24770001D01*
X26989998Y-22110001D02*
X26989998Y-24770001D01*
%TO.C,J19*%
X142810001Y-79680001D02*
X142810001Y-77020001D01*
X140210001Y-79680001D02*
X140210001Y-78350001D01*
X145410001Y-79680001D02*
X145410001Y-77020001D01*
X141540001Y-79680001D02*
X140210001Y-79680001D01*
X142810001Y-79680001D02*
X145410001Y-79680001D01*
X142810001Y-77020001D02*
X145410001Y-77020001D01*
D12*
%TO.C,mouse-bite-2mm-slot*%
X139000000Y-75500000D02*
G75*
G03*
X137000000Y-75500000I-1000000J0D01*
G01*
X137000000Y-68500000D02*
G75*
G03*
X139000000Y-68500000I1000000J0D01*
G01*
X106519998Y-74500001D02*
G75*
G03*
X104519998Y-74500001I-1000000J0D01*
G01*
X104519998Y-67500001D02*
G75*
G03*
X106519998Y-67500001I1000000J0D01*
G01*
D13*
%TO.C,J8*%
X116679999Y-85190001D02*
X115349999Y-85190001D01*
X117949999Y-85190001D02*
X117949999Y-82530001D01*
X130709999Y-85190001D02*
X130709999Y-82530001D01*
X117949999Y-85190001D02*
X130709999Y-85190001D01*
X117949999Y-82530001D02*
X130709999Y-82530001D01*
X115349999Y-85190001D02*
X115349999Y-83860001D01*
%TO.C,J1*%
X26989998Y-82650001D02*
X26989998Y-81320001D01*
X103309998Y-82650001D02*
X103309998Y-79990001D01*
X29589998Y-82650001D02*
X29589998Y-79990001D01*
X29589998Y-79990001D02*
X103309998Y-79990001D01*
X28319998Y-82650001D02*
X26989998Y-82650001D01*
X29589998Y-82650001D02*
X103309998Y-82650001D01*
%TO.C,J12*%
X117949999Y-59670001D02*
X130709999Y-59670001D01*
X117949999Y-62330001D02*
X130709999Y-62330001D01*
X117949999Y-62330001D02*
X117949999Y-59670001D01*
X115349999Y-62330001D02*
X115349999Y-61000001D01*
X116679999Y-62330001D02*
X115349999Y-62330001D01*
X130709999Y-62330001D02*
X130709999Y-59670001D01*
D12*
%TO.C,mouse-bite-2mm-slot*%
X111599998Y-51440001D02*
G75*
G03*
X109599998Y-51440001I-1000000J0D01*
G01*
X109599998Y-44440001D02*
G75*
G03*
X111599998Y-44440001I1000000J0D01*
G01*
X120519998Y-58460001D02*
G75*
G03*
X120519998Y-56460001I0J1000000D01*
G01*
X127519998Y-56460001D02*
G75*
G03*
X127519998Y-58460001I0J-1000000D01*
G01*
X111599998Y-32940001D02*
G75*
G03*
X109599998Y-32940001I-1000000J0D01*
G01*
X109599998Y-25940001D02*
G75*
G03*
X111599998Y-25940001I1000000J0D01*
G01*
D13*
%TO.C,SW1*%
X113179999Y-65360001D02*
X115779999Y-65360001D01*
X113979999Y-72060001D02*
X114979999Y-72060001D01*
X120779999Y-78760001D02*
X117979999Y-78760001D01*
X108179999Y-70260001D02*
X108179999Y-65360001D01*
X114479999Y-72560001D02*
X114479999Y-71560001D01*
X120779999Y-65360001D02*
X120779999Y-70260001D01*
X120779999Y-73860001D02*
X120779999Y-78760001D01*
X108179999Y-73960001D02*
X108179999Y-78760001D01*
X108179999Y-65360001D02*
X110779999Y-65360001D01*
X110379999Y-79860001D02*
X110379999Y-79260001D01*
X110379999Y-79260001D02*
X110679999Y-79560001D01*
X118179999Y-65360001D02*
X120779999Y-65360001D01*
X110679999Y-79560001D02*
X110379999Y-79860001D01*
X108179999Y-78760001D02*
X110679999Y-78760001D01*
X117479999Y-72060001D02*
G75*
G03*
X117479999Y-72060001I-3000000J0D01*
G01*
D10*
%TO.C,U3*%
X140840001Y-71480001D02*
X143740001Y-71480001D01*
X140840001Y-72780001D02*
X143740001Y-72780001D01*
X143740001Y-72780001D02*
X143740001Y-71480001D01*
X140840001Y-71480001D02*
X140840001Y-72780001D01*
D14*
%TO.C,IC1*%
X68959998Y-48084521D02*
X59555478Y-38680001D01*
X59555478Y-38680001D02*
X68959998Y-29275481D01*
X68959998Y-29275481D02*
X78364518Y-38680001D01*
X78364518Y-38680001D02*
X68959998Y-48084521D01*
D15*
X58358942Y-39298719D02*
G75*
G03*
X58358942Y-39298719I-200000J0D01*
G01*
D13*
%TO.C,J5*%
X100709998Y-62330001D02*
X26989998Y-62330001D01*
X100709998Y-59670001D02*
X100709998Y-62330001D01*
X101979998Y-59670001D02*
X103309998Y-59670001D01*
X103309998Y-59670001D02*
X103309998Y-61000001D01*
X26989998Y-59670001D02*
X26989998Y-62330001D01*
X100709998Y-59670001D02*
X26989998Y-59670001D01*
%TO.C,JOLED2*%
X115414998Y-24770001D02*
X151034998Y-24770001D01*
X151034998Y-24770001D02*
X151034998Y-22110001D01*
X115414998Y-24770001D02*
X115414998Y-22110001D01*
X115414998Y-22110001D02*
X151034998Y-22110001D01*
X114144998Y-24770001D02*
X112814998Y-24770001D01*
X112814998Y-24770001D02*
X112814998Y-23440001D01*
%TO.C,SW2*%
X128079999Y-65370001D02*
X130679999Y-65370001D01*
X135679999Y-73870001D02*
X135679999Y-78770001D01*
X123079999Y-70270001D02*
X123079999Y-65370001D01*
X123079999Y-73970001D02*
X123079999Y-78770001D01*
X125279999Y-79870001D02*
X125279999Y-79270001D01*
X128879999Y-72070001D02*
X129879999Y-72070001D01*
X133079999Y-65370001D02*
X135679999Y-65370001D01*
X125279999Y-79270001D02*
X125579999Y-79570001D01*
X125579999Y-79570001D02*
X125279999Y-79870001D01*
X129379999Y-72570001D02*
X129379999Y-71570001D01*
X123079999Y-78770001D02*
X125579999Y-78770001D01*
X123079999Y-65370001D02*
X125679999Y-65370001D01*
X135679999Y-78770001D02*
X132879999Y-78770001D01*
X135679999Y-65370001D02*
X135679999Y-70270001D01*
X132379999Y-72070001D02*
G75*
G03*
X132379999Y-72070001I-3000000J0D01*
G01*
D12*
%TO.C,UOLED1*%
X117694998Y-48180001D02*
X117694998Y-48230001D01*
X117694998Y-29130001D02*
X118694998Y-29130001D01*
X117694998Y-30680001D02*
X117694998Y-29130001D01*
X121194998Y-48230001D02*
X121694998Y-48230001D01*
X121694998Y-48230001D02*
X121744998Y-48230001D01*
X121744998Y-29130001D02*
X121194998Y-29130001D01*
X117694998Y-46680001D02*
X117694998Y-48180001D01*
X121744998Y-48230001D02*
X121744998Y-29130001D01*
X117694998Y-48230001D02*
X118694998Y-48230001D01*
%TO.C,mouse-bite-2mm-slot*%
X33819998Y-58460001D02*
G75*
G03*
X33819998Y-56460001I0J1000000D01*
G01*
X40819998Y-56460001D02*
G75*
G03*
X40819998Y-58460001I0J-1000000D01*
G01*
X71319998Y-56460001D02*
G75*
G03*
X71319998Y-58460001I0J-1000000D01*
G01*
X64319998Y-58460001D02*
G75*
G03*
X64319998Y-56460001I0J1000000D01*
G01*
D13*
%TO.C,J3*%
X28319998Y-55250001D02*
X26989998Y-55250001D01*
X108389998Y-55250001D02*
X108389998Y-52590001D01*
X29589998Y-52590001D02*
X108389998Y-52590001D01*
X26989998Y-55250001D02*
X26989998Y-53920001D01*
X29589998Y-55250001D02*
X108389998Y-55250001D01*
X29589998Y-55250001D02*
X29589998Y-52590001D01*
%TO.C,J23*%
X142810001Y-64320001D02*
X140210001Y-64320001D01*
X145410001Y-64320001D02*
X145410001Y-65650001D01*
X142810001Y-66980001D02*
X140210001Y-66980001D01*
X142810001Y-64320001D02*
X142810001Y-66980001D01*
X144080001Y-64320001D02*
X145410001Y-64320001D01*
X140210001Y-64320001D02*
X140210001Y-66980001D01*
%TO.C,JOLED1*%
X115409998Y-55250001D02*
X115409998Y-52590001D01*
X112809998Y-55250001D02*
X112809998Y-53920001D01*
X151029998Y-55250001D02*
X151029998Y-52590001D01*
X115409998Y-52590001D02*
X151029998Y-52590001D01*
X114139998Y-55250001D02*
X112809998Y-55250001D01*
X115409998Y-55250001D02*
X151029998Y-55250001D01*
D14*
%TO.C,U1*%
X61375796Y-71495877D02*
G75*
G03*
X61375796Y-71495877I-100000J0D01*
G01*
%TD*%
M02*
