M48
INCH,TZ
T1C0.0157
T2C0.0394
T3C0.0787
%
G90
G05
T1
X26094Y-28016
X45937Y-11228
X48520Y-14628
X48913Y-14431
X49937Y-14234
X50961Y-14037
X51945Y-13840
X52929Y-13644
X53953Y-13447
X54898Y-13250
X55959Y-12015
X56919Y-10651
T2
X11150Y-9228
X11150Y-21228
X11150Y-24016
X11150Y-32016
X12150Y-9228
X12150Y-21228
X12150Y-24016
X12150Y-32016
X13150Y-9228
X13150Y-21228
X13150Y-24016
X13150Y-32016
X14150Y-9228
X14150Y-21228
X14150Y-24016
X14150Y-32016
X15150Y-9228
X15150Y-21228
X15150Y-24016
X15150Y-32016
X16150Y-9228
X16150Y-21228
X16150Y-24016
X16150Y-32016
X17150Y-9228
X17150Y-21228
X17150Y-24016
X17150Y-32016
X18150Y-9228
X18150Y-21228
X18150Y-24016
X18150Y-32016
X19150Y-9228
X19150Y-21228
X19150Y-24016
X19150Y-32016
X20150Y-9228
X20150Y-21228
X20150Y-24016
X20150Y-32016
X21150Y-9228
X21150Y-21228
X21150Y-24016
X21150Y-32016
X22150Y-9228
X22150Y-21228
X22150Y-24016
X22150Y-32016
X23150Y-9228
X23150Y-21228
X23150Y-24016
X23150Y-32016
X24150Y-9228
X24150Y-21228
X24150Y-24016
X24150Y-32016
X25150Y-9228
X25150Y-21228
X25150Y-24016
X25150Y-32016
X26150Y-9228
X26150Y-21228
X26150Y-24016
X26150Y-32016
X27150Y-9228
X27150Y-21228
X27150Y-24016
X27150Y-32016
X28150Y-9228
X28150Y-21228
X28150Y-24016
X28150Y-32016
X29150Y-9228
X29150Y-21228
X29150Y-24016
X29150Y-32016
X30150Y-9228
X30150Y-21228
X30150Y-24016
X30150Y-32016
X31150Y-9228
X31150Y-21228
X31150Y-24016
X31150Y-32016
X32150Y-9228
X32150Y-21228
X32150Y-24016
X32150Y-32016
X33150Y-9228
X33150Y-21228
X33150Y-24016
X33150Y-32016
X34150Y-9228
X34150Y-21228
X34150Y-24016
X34150Y-32016
X35150Y-9228
X35150Y-21228
X35150Y-24016
X35150Y-32016
X36150Y-9228
X36150Y-21228
X36150Y-24016
X36150Y-32016
X37150Y-9228
X37150Y-21228
X37150Y-24016
X37150Y-32016
X38150Y-9228
X38150Y-21228
X38150Y-24016
X38150Y-32016
X39150Y-9228
X39150Y-21228
X39150Y-24016
X39150Y-32016
X40150Y-9228
X40150Y-21228
X40150Y-24016
X40150Y-32016
X41150Y-9228
X41150Y-21228
X42150Y-9228
X42150Y-21228
X44087Y-25614
X44087Y-31323
X44937Y-21228
X44939Y-9228
X45071Y-31323
X45937Y-21228
X45937Y-24016
X45937Y-33016
X45939Y-9228
X46055Y-25614
X46055Y-31323
X46937Y-21228
X46937Y-24016
X46937Y-33016
X46939Y-9228
X47937Y-21228
X47937Y-24016
X47937Y-33016
X47939Y-9228
X48937Y-21228
X48937Y-24016
X48937Y-33016
X48939Y-9228
X49937Y-21228
X49937Y-24016
X49937Y-33016
X49939Y-9228
X49953Y-25618
X49953Y-31327
X50937Y-21228
X50937Y-24016
X50937Y-31327
X50937Y-33016
X50939Y-9228
X51921Y-25618
X51921Y-31327
X51937Y-21228
X51939Y-9228
X52937Y-21228
X52939Y-9228
X53937Y-21228
X53939Y-9228
X54937Y-21228
X54939Y-9228
X55724Y-25846
X55724Y-30846
X55937Y-21228
X55939Y-9228
X56724Y-25846
X56724Y-30846
X56937Y-21228
X56939Y-9228
X57937Y-21228
X57939Y-9228
X58937Y-21228
X58939Y-9228
T3
G00X42866Y-28469
M15
G01X42866Y-28272
M16
G05
G00X47276Y-28469
M15
G01X47276Y-28272
M16
G05
G00X48732Y-28472
M15
G01X48732Y-28276
M16
G05
G00X53142Y-28472
M15
G01X53142Y-28276
M16
G05
T0
M30
