M48
INCH,TZ
T1C0.0157
T2C0.0394
T3C0.0787
%
G90
G05
T1
X26163Y-27787
X46006Y-11000
X48589Y-14399
X48982Y-14203
X50006Y-14006
X51030Y-13809
X52014Y-13612
X52998Y-13415
X54022Y-13218
X54967Y-13021
X56028Y-11786
X56988Y-10423
T2
X11219Y-9000
X11219Y-21000
X11219Y-23787
X11219Y-31787
X12219Y-9000
X12219Y-21000
X12219Y-23787
X12219Y-31787
X13219Y-9000
X13219Y-21000
X13219Y-23787
X13219Y-31787
X14219Y-9000
X14219Y-21000
X14219Y-23787
X14219Y-31787
X15219Y-9000
X15219Y-21000
X15219Y-23787
X15219Y-31787
X16219Y-9000
X16219Y-21000
X16219Y-23787
X16219Y-31787
X17219Y-9000
X17219Y-21000
X17219Y-23787
X17219Y-31787
X18219Y-9000
X18219Y-21000
X18219Y-23787
X18219Y-31787
X19219Y-9000
X19219Y-21000
X19219Y-23787
X19219Y-31787
X20219Y-9000
X20219Y-21000
X20219Y-23787
X20219Y-31787
X21219Y-9000
X21219Y-21000
X21219Y-23787
X21219Y-31787
X22219Y-9000
X22219Y-21000
X22219Y-23787
X22219Y-31787
X23219Y-9000
X23219Y-21000
X23219Y-23787
X23219Y-31787
X24219Y-9000
X24219Y-21000
X24219Y-23787
X24219Y-31787
X25219Y-9000
X25219Y-21000
X25219Y-23787
X25219Y-31787
X26219Y-9000
X26219Y-21000
X26219Y-23787
X26219Y-31787
X27219Y-9000
X27219Y-21000
X27219Y-23787
X27219Y-31787
X28219Y-9000
X28219Y-21000
X28219Y-23787
X28219Y-31787
X29219Y-9000
X29219Y-21000
X29219Y-23787
X29219Y-31787
X30219Y-9000
X30219Y-21000
X30219Y-23787
X30219Y-31787
X31219Y-9000
X31219Y-21000
X31219Y-23787
X31219Y-31787
X32219Y-9000
X32219Y-21000
X32219Y-23787
X32219Y-31787
X33219Y-9000
X33219Y-21000
X33219Y-23787
X33219Y-31787
X34219Y-9000
X34219Y-21000
X34219Y-23787
X34219Y-31787
X35219Y-9000
X35219Y-21000
X35219Y-23787
X35219Y-31787
X36219Y-9000
X36219Y-21000
X36219Y-23787
X36219Y-31787
X37219Y-9000
X37219Y-21000
X37219Y-23787
X37219Y-31787
X38219Y-9000
X38219Y-21000
X38219Y-23787
X38219Y-31787
X39219Y-9000
X39219Y-21000
X39219Y-23787
X39219Y-31787
X40219Y-9000
X40219Y-21000
X40219Y-23787
X40219Y-31787
X41219Y-9000
X41219Y-21000
X42219Y-9000
X42219Y-21000
X44156Y-25386
X44156Y-31094
X45006Y-21000
X45008Y-9000
X45140Y-31094
X46006Y-21000
X46006Y-23787
X46006Y-32787
X46008Y-9000
X46124Y-25386
X46124Y-31094
X47006Y-21000
X47006Y-23787
X47006Y-32787
X47008Y-9000
X48006Y-21000
X48006Y-23787
X48006Y-32787
X48008Y-9000
X49006Y-21000
X49006Y-23787
X49006Y-32787
X49008Y-9000
X50006Y-21000
X50006Y-23787
X50006Y-32787
X50008Y-9000
X50022Y-25390
X50022Y-31098
X51006Y-21000
X51006Y-23787
X51006Y-31098
X51006Y-32787
X51008Y-9000
X51990Y-25390
X51990Y-31098
X52006Y-21000
X52008Y-9000
X53006Y-21000
X53008Y-9000
X54006Y-21000
X54008Y-9000
X55006Y-21000
X55008Y-9000
X55793Y-25618
X55793Y-30618
X56006Y-21000
X56008Y-9000
X56793Y-25618
X56793Y-30618
X57006Y-21000
X57008Y-9000
X58006Y-21000
X58008Y-9000
X59006Y-21000
X59008Y-9000
T3
G00X42935Y-28240
M15
G01X42935Y-28043
M16
G05
G00X47344Y-28240
M15
G01X47344Y-28043
M16
G05
G00X48801Y-28244
M15
G01X48801Y-28047
M16
G05
G00X53211Y-28244
M15
G01X53211Y-28047
M16
G05
T0
M30
