M48
INCH,TZ
T1C0.0197
%
G90
G05
T1
X13876Y-22098
X13876Y-22689
X14171Y-22098
X14171Y-22689
X14467Y-22098
X14467Y-22689
X14762Y-22098
X14762Y-22689
X15057Y-22098
X15057Y-22689
X15352Y-22098
X15352Y-22689
X15648Y-22098
X15648Y-22689
X25884Y-22098
X25884Y-22689
X26179Y-22098
X26179Y-22689
X26474Y-22098
X26474Y-22689
X26770Y-22098
X26770Y-22689
X27065Y-22098
X27065Y-22689
X27360Y-22098
X27360Y-22689
X27656Y-22098
X27656Y-22689
X37892Y-22098
X37892Y-22689
X38187Y-22098
X38187Y-22689
X38482Y-22098
X38482Y-22689
X38778Y-22098
X38778Y-22689
X39073Y-22098
X39073Y-22689
X39368Y-22098
X39368Y-22689
X39663Y-22098
X39663Y-22689
X41317Y-26839
X41317Y-27134
X41317Y-27429
X41317Y-27724
X41317Y-28020
X41317Y-28315
X41317Y-28610
X41907Y-26839
X41907Y-27134
X41907Y-27429
X41907Y-27724
X41907Y-28020
X41907Y-28315
X41907Y-28610
X43317Y-10476
X43317Y-10772
X43317Y-11067
X43317Y-11362
X43317Y-11657
X43317Y-11953
X43317Y-12248
X43317Y-17760
X43317Y-18055
X43317Y-18350
X43317Y-18646
X43317Y-18941
X43317Y-19236
X43317Y-19531
X43907Y-10476
X43907Y-10772
X43907Y-11067
X43907Y-11362
X43907Y-11657
X43907Y-11953
X43907Y-12248
X43907Y-17760
X43907Y-18055
X43907Y-18350
X43907Y-18646
X43907Y-18941
X43907Y-19236
X43907Y-19531
X48010Y-22098
X48010Y-22689
X48305Y-22098
X48305Y-22689
X48600Y-22098
X48600Y-22689
X48896Y-22098
X48896Y-22689
X49191Y-22098
X49191Y-22689
X49486Y-22098
X49486Y-22689
X49781Y-22098
X49781Y-22689
X54104Y-27232
X54104Y-27528
X54104Y-27823
X54104Y-28118
X54104Y-28413
X54104Y-28709
X54104Y-29004
X54695Y-27232
X54695Y-27528
X54695Y-27823
X54695Y-28118
X54695Y-28413
X54695Y-28709
X54695Y-29004
T0
M30
