%TF.GenerationSoftware,KiCad,Pcbnew,(6.0.2)*%
%TF.CreationDate,2022-03-22T07:27:24-04:00*%
%TF.ProjectId,Panel_Design_2,50616e65-6c5f-4446-9573-69676e5f322e,rev?*%
%TF.SameCoordinates,Original*%
%TF.FileFunction,Legend,Top*%
%TF.FilePolarity,Positive*%
%FSLAX46Y46*%
G04 Gerber Fmt 4.6, Leading zero omitted, Abs format (unit mm)*
G04 Created by KiCad (PCBNEW (6.0.2)) date 2022-03-22 07:27:24*
%MOMM*%
%LPD*%
G01*
G04 APERTURE LIST*
%ADD10C,0.150000*%
%ADD11C,0.254000*%
%ADD12C,0.100000*%
%ADD13C,0.120000*%
%ADD14C,0.200000*%
%ADD15C,0.400000*%
G04 APERTURE END LIST*
D10*
X140167376Y-50990475D02*
X140167376Y-51561903D01*
X140167376Y-51276189D02*
X139167376Y-51276189D01*
X139310234Y-51371427D01*
X139405472Y-51466665D01*
X139453091Y-51561903D01*
X140167376Y-50038094D02*
X140167376Y-50609522D01*
X140167376Y-50323808D02*
X139167376Y-50323808D01*
X139310234Y-50419046D01*
X139405472Y-50514284D01*
X139453091Y-50609522D01*
X117337377Y-62674284D02*
X117337377Y-63245713D01*
X117337377Y-62959999D02*
X116337377Y-62959999D01*
X116480235Y-63055237D01*
X116575473Y-63150475D01*
X116623092Y-63245713D01*
X131642615Y-26161903D02*
X131594996Y-26114284D01*
X131547376Y-26019046D01*
X131547376Y-25780951D01*
X131594996Y-25685713D01*
X131642615Y-25638094D01*
X131737853Y-25590475D01*
X131833091Y-25590475D01*
X131975948Y-25638094D01*
X132547376Y-26209522D01*
X132547376Y-25590475D01*
X131547376Y-25257141D02*
X131547376Y-24638094D01*
X131928329Y-24971427D01*
X131928329Y-24828570D01*
X131975948Y-24733332D01*
X132023567Y-24685713D01*
X132118805Y-24638094D01*
X132356900Y-24638094D01*
X132452138Y-24685713D01*
X132499757Y-24733332D01*
X132547376Y-24828570D01*
X132547376Y-25114284D01*
X132499757Y-25209522D01*
X132452138Y-25257141D01*
X94082615Y-51561903D02*
X94034996Y-51514284D01*
X93987376Y-51419046D01*
X93987376Y-51180951D01*
X94034996Y-51085713D01*
X94082615Y-51038094D01*
X94177853Y-50990475D01*
X94273091Y-50990475D01*
X94415948Y-51038094D01*
X94987376Y-51609522D01*
X94987376Y-50990475D01*
X93987376Y-50657141D02*
X93987376Y-49990475D01*
X94987376Y-50419046D01*
X30487376Y-26185713D02*
X30487376Y-26376189D01*
X30534996Y-26471427D01*
X30582615Y-26519046D01*
X30725472Y-26614284D01*
X30915948Y-26661903D01*
X31296900Y-26661903D01*
X31392138Y-26614284D01*
X31439757Y-26566665D01*
X31487376Y-26471427D01*
X31487376Y-26280951D01*
X31439757Y-26185713D01*
X31392138Y-26138094D01*
X31296900Y-26090475D01*
X31058805Y-26090475D01*
X30963567Y-26138094D01*
X30915948Y-26185713D01*
X30868329Y-26280951D01*
X30868329Y-26471427D01*
X30915948Y-26566665D01*
X30963567Y-26614284D01*
X31058805Y-26661903D01*
X30487376Y-25757141D02*
X30487376Y-25138094D01*
X30868329Y-25471427D01*
X30868329Y-25328570D01*
X30915948Y-25233332D01*
X30963567Y-25185713D01*
X31058805Y-25138094D01*
X31296900Y-25138094D01*
X31392138Y-25185713D01*
X31439757Y-25233332D01*
X31487376Y-25328570D01*
X31487376Y-25614284D01*
X31439757Y-25709522D01*
X31392138Y-25757141D01*
X30534996Y-24185713D02*
X30487376Y-24280951D01*
X30487376Y-24423808D01*
X30534996Y-24566665D01*
X30630234Y-24661903D01*
X30725472Y-24709522D01*
X30915948Y-24757141D01*
X31058805Y-24757141D01*
X31249281Y-24709522D01*
X31344519Y-24661903D01*
X31439757Y-24566665D01*
X31487376Y-24423808D01*
X31487376Y-24328570D01*
X31439757Y-24185713D01*
X31392138Y-24138094D01*
X31058805Y-24138094D01*
X31058805Y-24328570D01*
X96622615Y-78961903D02*
X96574996Y-78914284D01*
X96527376Y-78819046D01*
X96527376Y-78580951D01*
X96574996Y-78485713D01*
X96622615Y-78438094D01*
X96717853Y-78390475D01*
X96813091Y-78390475D01*
X96955948Y-78438094D01*
X97527376Y-79009522D01*
X97527376Y-78390475D01*
X96955948Y-77819046D02*
X96908329Y-77914284D01*
X96860710Y-77961903D01*
X96765472Y-78009522D01*
X96717853Y-78009522D01*
X96622615Y-77961903D01*
X96574996Y-77914284D01*
X96527376Y-77819046D01*
X96527376Y-77628570D01*
X96574996Y-77533332D01*
X96622615Y-77485713D01*
X96717853Y-77438094D01*
X96765472Y-77438094D01*
X96860710Y-77485713D01*
X96908329Y-77533332D01*
X96955948Y-77628570D01*
X96955948Y-77819046D01*
X97003567Y-77914284D01*
X97051186Y-77961903D01*
X97146424Y-78009522D01*
X97336900Y-78009522D01*
X97432138Y-77961903D01*
X97479757Y-77914284D01*
X97527376Y-77819046D01*
X97527376Y-77628570D01*
X97479757Y-77533332D01*
X97432138Y-77485713D01*
X97336900Y-77438094D01*
X97146424Y-77438094D01*
X97051186Y-77485713D01*
X97003567Y-77533332D01*
X96955948Y-77628570D01*
X56887376Y-50990475D02*
X56887376Y-51561903D01*
X56887376Y-51276189D02*
X55887376Y-51276189D01*
X56030234Y-51371427D01*
X56125472Y-51466665D01*
X56173091Y-51561903D01*
X55982615Y-50609522D02*
X55934996Y-50561903D01*
X55887376Y-50466665D01*
X55887376Y-50228570D01*
X55934996Y-50133332D01*
X55982615Y-50085713D01*
X56077853Y-50038094D01*
X56173091Y-50038094D01*
X56315948Y-50085713D01*
X56887376Y-50657141D01*
X56887376Y-50038094D01*
X68920710Y-63245713D02*
X69587376Y-63245713D01*
X68539757Y-63483808D02*
X69254043Y-63721903D01*
X69254043Y-63102856D01*
X68920710Y-62293332D02*
X69587376Y-62293332D01*
X68539757Y-62531427D02*
X69254043Y-62769522D01*
X69254043Y-62150475D01*
X27947376Y-25685713D02*
X27947376Y-25876189D01*
X27994996Y-25971427D01*
X28042615Y-26019046D01*
X28185472Y-26114284D01*
X28375948Y-26161903D01*
X28756900Y-26161903D01*
X28852138Y-26114284D01*
X28899757Y-26066665D01*
X28947376Y-25971427D01*
X28947376Y-25780951D01*
X28899757Y-25685713D01*
X28852138Y-25638094D01*
X28756900Y-25590475D01*
X28518805Y-25590475D01*
X28423567Y-25638094D01*
X28375948Y-25685713D01*
X28328329Y-25780951D01*
X28328329Y-25971427D01*
X28375948Y-26066665D01*
X28423567Y-26114284D01*
X28518805Y-26161903D01*
X28280710Y-24733332D02*
X28947376Y-24733332D01*
X27899757Y-24971427D02*
X28614043Y-25209522D01*
X28614043Y-24590475D01*
X40647376Y-78009522D02*
X40647376Y-78199999D01*
X40694996Y-78295237D01*
X40742615Y-78342856D01*
X40885472Y-78438094D01*
X41075948Y-78485713D01*
X41456900Y-78485713D01*
X41552138Y-78438094D01*
X41599757Y-78390475D01*
X41647376Y-78295237D01*
X41647376Y-78104760D01*
X41599757Y-78009522D01*
X41552138Y-77961903D01*
X41456900Y-77914284D01*
X41218805Y-77914284D01*
X41123567Y-77961903D01*
X41075948Y-78009522D01*
X41028329Y-78104760D01*
X41028329Y-78295237D01*
X41075948Y-78390475D01*
X41123567Y-78438094D01*
X41218805Y-78485713D01*
X51807376Y-50990475D02*
X51807376Y-51561903D01*
X51807376Y-51276189D02*
X50807376Y-51276189D01*
X50950234Y-51371427D01*
X51045472Y-51466665D01*
X51093091Y-51561903D01*
X50807376Y-50371427D02*
X50807376Y-50276189D01*
X50854996Y-50180951D01*
X50902615Y-50133332D01*
X50997853Y-50085713D01*
X51188329Y-50038094D01*
X51426424Y-50038094D01*
X51616900Y-50085713D01*
X51712138Y-50133332D01*
X51759757Y-50180951D01*
X51807376Y-50276189D01*
X51807376Y-50371427D01*
X51759757Y-50466665D01*
X51712138Y-50514284D01*
X51616900Y-50561903D01*
X51426424Y-50609522D01*
X51188329Y-50609522D01*
X50997853Y-50561903D01*
X50902615Y-50514284D01*
X50854996Y-50466665D01*
X50807376Y-50371427D01*
X54347376Y-78390475D02*
X54347376Y-78961903D01*
X54347376Y-78676189D02*
X53347376Y-78676189D01*
X53490234Y-78771427D01*
X53585472Y-78866665D01*
X53633091Y-78961903D01*
X54347376Y-77438094D02*
X54347376Y-78009522D01*
X54347376Y-77723808D02*
X53347376Y-77723808D01*
X53490234Y-77819046D01*
X53585472Y-77914284D01*
X53633091Y-78009522D01*
X63507376Y-25638094D02*
X63507376Y-26114284D01*
X63983567Y-26161903D01*
X63935948Y-26114284D01*
X63888329Y-26019046D01*
X63888329Y-25780951D01*
X63935948Y-25685713D01*
X63983567Y-25638094D01*
X64078805Y-25590475D01*
X64316900Y-25590475D01*
X64412138Y-25638094D01*
X64459757Y-25685713D01*
X64507376Y-25780951D01*
X64507376Y-26019046D01*
X64459757Y-26114284D01*
X64412138Y-26161903D01*
X63507376Y-24971427D02*
X63507376Y-24876189D01*
X63554996Y-24780951D01*
X63602615Y-24733332D01*
X63697853Y-24685713D01*
X63888329Y-24638094D01*
X64126424Y-24638094D01*
X64316900Y-24685713D01*
X64412138Y-24733332D01*
X64459757Y-24780951D01*
X64507376Y-24876189D01*
X64507376Y-24971427D01*
X64459757Y-25066665D01*
X64412138Y-25114284D01*
X64316900Y-25161903D01*
X64126424Y-25209522D01*
X63888329Y-25209522D01*
X63697853Y-25161903D01*
X63602615Y-25114284D01*
X63554996Y-25066665D01*
X63507376Y-24971427D01*
X150327376Y-50990475D02*
X150327376Y-51561903D01*
X150327376Y-51276189D02*
X149327376Y-51276189D01*
X149470234Y-51371427D01*
X149565472Y-51466665D01*
X149613091Y-51561903D01*
X149327376Y-50085713D02*
X149327376Y-50561903D01*
X149803567Y-50609522D01*
X149755948Y-50561903D01*
X149708329Y-50466665D01*
X149708329Y-50228570D01*
X149755948Y-50133332D01*
X149803567Y-50085713D01*
X149898805Y-50038094D01*
X150136900Y-50038094D01*
X150232138Y-50085713D01*
X150279757Y-50133332D01*
X150327376Y-50228570D01*
X150327376Y-50466665D01*
X150279757Y-50561903D01*
X150232138Y-50609522D01*
X58760710Y-63245713D02*
X59427376Y-63245713D01*
X58379757Y-63483808D02*
X59094043Y-63721903D01*
X59094043Y-63102856D01*
X58855948Y-62579046D02*
X58808329Y-62674284D01*
X58760710Y-62721903D01*
X58665472Y-62769522D01*
X58617853Y-62769522D01*
X58522615Y-62721903D01*
X58474996Y-62674284D01*
X58427376Y-62579046D01*
X58427376Y-62388570D01*
X58474996Y-62293332D01*
X58522615Y-62245713D01*
X58617853Y-62198094D01*
X58665472Y-62198094D01*
X58760710Y-62245713D01*
X58808329Y-62293332D01*
X58855948Y-62388570D01*
X58855948Y-62579046D01*
X58903567Y-62674284D01*
X58951186Y-62721903D01*
X59046424Y-62769522D01*
X59236900Y-62769522D01*
X59332138Y-62721903D01*
X59379757Y-62674284D01*
X59427376Y-62579046D01*
X59427376Y-62388570D01*
X59379757Y-62293332D01*
X59332138Y-62245713D01*
X59236900Y-62198094D01*
X59046424Y-62198094D01*
X58951186Y-62245713D01*
X58903567Y-62293332D01*
X58855948Y-62388570D01*
X99067376Y-26209522D02*
X99067376Y-25590475D01*
X99448329Y-25923808D01*
X99448329Y-25780951D01*
X99495948Y-25685713D01*
X99543567Y-25638094D01*
X99638805Y-25590475D01*
X99876900Y-25590475D01*
X99972138Y-25638094D01*
X100019757Y-25685713D01*
X100067376Y-25780951D01*
X100067376Y-26066665D01*
X100019757Y-26161903D01*
X99972138Y-26209522D01*
X99067376Y-24733332D02*
X99067376Y-24923808D01*
X99114996Y-25019046D01*
X99162615Y-25066665D01*
X99305472Y-25161903D01*
X99495948Y-25209522D01*
X99876900Y-25209522D01*
X99972138Y-25161903D01*
X100019757Y-25114284D01*
X100067376Y-25019046D01*
X100067376Y-24828570D01*
X100019757Y-24733332D01*
X99972138Y-24685713D01*
X99876900Y-24638094D01*
X99638805Y-24638094D01*
X99543567Y-24685713D01*
X99495948Y-24733332D01*
X99448329Y-24828570D01*
X99448329Y-25019046D01*
X99495948Y-25114284D01*
X99543567Y-25161903D01*
X99638805Y-25209522D01*
X38107376Y-63198094D02*
X38107376Y-63674284D01*
X38583567Y-63721903D01*
X38535948Y-63674284D01*
X38488329Y-63579046D01*
X38488329Y-63340951D01*
X38535948Y-63245713D01*
X38583567Y-63198094D01*
X38678805Y-63150475D01*
X38916900Y-63150475D01*
X39012138Y-63198094D01*
X39059757Y-63245713D01*
X39107376Y-63340951D01*
X39107376Y-63579046D01*
X39059757Y-63674284D01*
X39012138Y-63721903D01*
X38107376Y-62293332D02*
X38107376Y-62483808D01*
X38154996Y-62579046D01*
X38202615Y-62626665D01*
X38345472Y-62721903D01*
X38535948Y-62769522D01*
X38916900Y-62769522D01*
X39012138Y-62721903D01*
X39059757Y-62674284D01*
X39107376Y-62579046D01*
X39107376Y-62388570D01*
X39059757Y-62293332D01*
X39012138Y-62245713D01*
X38916900Y-62198094D01*
X38678805Y-62198094D01*
X38583567Y-62245713D01*
X38535948Y-62293332D01*
X38488329Y-62388570D01*
X38488329Y-62579046D01*
X38535948Y-62674284D01*
X38583567Y-62721903D01*
X38678805Y-62769522D01*
X30582615Y-78485713D02*
X30534996Y-78438094D01*
X30487376Y-78342856D01*
X30487376Y-78104760D01*
X30534996Y-78009522D01*
X30582615Y-77961903D01*
X30677853Y-77914284D01*
X30773091Y-77914284D01*
X30915948Y-77961903D01*
X31487376Y-78533332D01*
X31487376Y-77914284D01*
X84160710Y-25685713D02*
X84827376Y-25685713D01*
X83779757Y-25923808D02*
X84494043Y-26161903D01*
X84494043Y-25542856D01*
X83922615Y-25209522D02*
X83874996Y-25161903D01*
X83827376Y-25066665D01*
X83827376Y-24828570D01*
X83874996Y-24733332D01*
X83922615Y-24685713D01*
X84017853Y-24638094D01*
X84113091Y-24638094D01*
X84255948Y-24685713D01*
X84827376Y-25257141D01*
X84827376Y-24638094D01*
X127402139Y-80430475D02*
X127449758Y-80478094D01*
X127497377Y-80620951D01*
X127497377Y-80716189D01*
X127449758Y-80859046D01*
X127354520Y-80954284D01*
X127259282Y-81001903D01*
X127068806Y-81049522D01*
X126925949Y-81049522D01*
X126735473Y-81001903D01*
X126640235Y-80954284D01*
X126544997Y-80859046D01*
X126497377Y-80716189D01*
X126497377Y-80620951D01*
X126544997Y-80478094D01*
X126592616Y-80430475D01*
X83922615Y-78961903D02*
X83874996Y-78914284D01*
X83827376Y-78819046D01*
X83827376Y-78580951D01*
X83874996Y-78485713D01*
X83922615Y-78438094D01*
X84017853Y-78390475D01*
X84113091Y-78390475D01*
X84255948Y-78438094D01*
X84827376Y-79009522D01*
X84827376Y-78390475D01*
X83827376Y-78057141D02*
X83827376Y-77438094D01*
X84208329Y-77771427D01*
X84208329Y-77628570D01*
X84255948Y-77533332D01*
X84303567Y-77485713D01*
X84398805Y-77438094D01*
X84636900Y-77438094D01*
X84732138Y-77485713D01*
X84779757Y-77533332D01*
X84827376Y-77628570D01*
X84827376Y-77914284D01*
X84779757Y-78009522D01*
X84732138Y-78057141D01*
X114767376Y-25590475D02*
X114767376Y-26161903D01*
X114767376Y-25876189D02*
X113767376Y-25876189D01*
X113910234Y-25971427D01*
X114005472Y-26066665D01*
X114053091Y-26161903D01*
X113767376Y-24733332D02*
X113767376Y-24923808D01*
X113814996Y-25019046D01*
X113862615Y-25066665D01*
X114005472Y-25161903D01*
X114195948Y-25209522D01*
X114576900Y-25209522D01*
X114672138Y-25161903D01*
X114719757Y-25114284D01*
X114767376Y-25019046D01*
X114767376Y-24828570D01*
X114719757Y-24733332D01*
X114672138Y-24685713D01*
X114576900Y-24638094D01*
X114338805Y-24638094D01*
X114243567Y-24685713D01*
X114195948Y-24733332D01*
X114148329Y-24828570D01*
X114148329Y-25019046D01*
X114195948Y-25114284D01*
X114243567Y-25161903D01*
X114338805Y-25209522D01*
X43187376Y-51133332D02*
X43187376Y-50466665D01*
X44187376Y-50895237D01*
X76302615Y-51561903D02*
X76254996Y-51514284D01*
X76207376Y-51419046D01*
X76207376Y-51180951D01*
X76254996Y-51085713D01*
X76302615Y-51038094D01*
X76397853Y-50990475D01*
X76493091Y-50990475D01*
X76635948Y-51038094D01*
X77207376Y-51609522D01*
X77207376Y-50990475D01*
X76207376Y-50371427D02*
X76207376Y-50276189D01*
X76254996Y-50180951D01*
X76302615Y-50133332D01*
X76397853Y-50085713D01*
X76588329Y-50038094D01*
X76826424Y-50038094D01*
X77016900Y-50085713D01*
X77112138Y-50133332D01*
X77159757Y-50180951D01*
X77207376Y-50276189D01*
X77207376Y-50371427D01*
X77159757Y-50466665D01*
X77112138Y-50514284D01*
X77016900Y-50561903D01*
X76826424Y-50609522D01*
X76588329Y-50609522D01*
X76397853Y-50561903D01*
X76302615Y-50514284D01*
X76254996Y-50466665D01*
X76207376Y-50371427D01*
X86462615Y-51561903D02*
X86414996Y-51514284D01*
X86367376Y-51419046D01*
X86367376Y-51180951D01*
X86414996Y-51085713D01*
X86462615Y-51038094D01*
X86557853Y-50990475D01*
X86653091Y-50990475D01*
X86795948Y-51038094D01*
X87367376Y-51609522D01*
X87367376Y-50990475D01*
X86700710Y-50133332D02*
X87367376Y-50133332D01*
X86319757Y-50371427D02*
X87034043Y-50609522D01*
X87034043Y-49990475D01*
X64507376Y-50990475D02*
X64507376Y-51561903D01*
X64507376Y-51276189D02*
X63507376Y-51276189D01*
X63650234Y-51371427D01*
X63745472Y-51466665D01*
X63793091Y-51561903D01*
X63507376Y-50085713D02*
X63507376Y-50561903D01*
X63983567Y-50609522D01*
X63935948Y-50561903D01*
X63888329Y-50466665D01*
X63888329Y-50228570D01*
X63935948Y-50133332D01*
X63983567Y-50085713D01*
X64078805Y-50038094D01*
X64316900Y-50038094D01*
X64412138Y-50085713D01*
X64459757Y-50133332D01*
X64507376Y-50228570D01*
X64507376Y-50466665D01*
X64459757Y-50561903D01*
X64412138Y-50609522D01*
X45727376Y-25638094D02*
X45727376Y-26114284D01*
X46203567Y-26161903D01*
X46155948Y-26114284D01*
X46108329Y-26019046D01*
X46108329Y-25780951D01*
X46155948Y-25685713D01*
X46203567Y-25638094D01*
X46298805Y-25590475D01*
X46536900Y-25590475D01*
X46632138Y-25638094D01*
X46679757Y-25685713D01*
X46727376Y-25780951D01*
X46727376Y-26019046D01*
X46679757Y-26114284D01*
X46632138Y-26161903D01*
X45727376Y-25257141D02*
X45727376Y-24590475D01*
X46727376Y-25019046D01*
X50807376Y-25638094D02*
X50807376Y-26114284D01*
X51283567Y-26161903D01*
X51235948Y-26114284D01*
X51188329Y-26019046D01*
X51188329Y-25780951D01*
X51235948Y-25685713D01*
X51283567Y-25638094D01*
X51378805Y-25590475D01*
X51616900Y-25590475D01*
X51712138Y-25638094D01*
X51759757Y-25685713D01*
X51807376Y-25780951D01*
X51807376Y-26019046D01*
X51759757Y-26114284D01*
X51712138Y-26161903D01*
X50807376Y-24685713D02*
X50807376Y-25161903D01*
X51283567Y-25209522D01*
X51235948Y-25161903D01*
X51188329Y-25066665D01*
X51188329Y-24828570D01*
X51235948Y-24733332D01*
X51283567Y-24685713D01*
X51378805Y-24638094D01*
X51616900Y-24638094D01*
X51712138Y-24685713D01*
X51759757Y-24733332D01*
X51807376Y-24828570D01*
X51807376Y-25066665D01*
X51759757Y-25161903D01*
X51712138Y-25209522D01*
X76302615Y-78961903D02*
X76254996Y-78914284D01*
X76207376Y-78819046D01*
X76207376Y-78580951D01*
X76254996Y-78485713D01*
X76302615Y-78438094D01*
X76397853Y-78390475D01*
X76493091Y-78390475D01*
X76635948Y-78438094D01*
X77207376Y-79009522D01*
X77207376Y-78390475D01*
X76207376Y-77771427D02*
X76207376Y-77676189D01*
X76254996Y-77580951D01*
X76302615Y-77533332D01*
X76397853Y-77485713D01*
X76588329Y-77438094D01*
X76826424Y-77438094D01*
X77016900Y-77485713D01*
X77112138Y-77533332D01*
X77159757Y-77580951D01*
X77207376Y-77676189D01*
X77207376Y-77771427D01*
X77159757Y-77866665D01*
X77112138Y-77914284D01*
X77016900Y-77961903D01*
X76826424Y-78009522D01*
X76588329Y-78009522D01*
X76397853Y-77961903D01*
X76302615Y-77914284D01*
X76254996Y-77866665D01*
X76207376Y-77771427D01*
X101607376Y-51609522D02*
X101607376Y-50990475D01*
X101988329Y-51323808D01*
X101988329Y-51180951D01*
X102035948Y-51085713D01*
X102083567Y-51038094D01*
X102178805Y-50990475D01*
X102416900Y-50990475D01*
X102512138Y-51038094D01*
X102559757Y-51085713D01*
X102607376Y-51180951D01*
X102607376Y-51466665D01*
X102559757Y-51561903D01*
X102512138Y-51609522D01*
X101607376Y-50371427D02*
X101607376Y-50276189D01*
X101654996Y-50180951D01*
X101702615Y-50133332D01*
X101797853Y-50085713D01*
X101988329Y-50038094D01*
X102226424Y-50038094D01*
X102416900Y-50085713D01*
X102512138Y-50133332D01*
X102559757Y-50180951D01*
X102607376Y-50276189D01*
X102607376Y-50371427D01*
X102559757Y-50466665D01*
X102512138Y-50514284D01*
X102416900Y-50561903D01*
X102226424Y-50609522D01*
X101988329Y-50609522D01*
X101797853Y-50561903D01*
X101702615Y-50514284D01*
X101654996Y-50466665D01*
X101607376Y-50371427D01*
X129513568Y-80668570D02*
X129561187Y-80525713D01*
X129608806Y-80478094D01*
X129704044Y-80430475D01*
X129846901Y-80430475D01*
X129942139Y-80478094D01*
X129989758Y-80525713D01*
X130037377Y-80620951D01*
X130037377Y-81001903D01*
X129037377Y-81001903D01*
X129037377Y-80668570D01*
X129084997Y-80573332D01*
X129132616Y-80525713D01*
X129227854Y-80478094D01*
X129323092Y-80478094D01*
X129418330Y-80525713D01*
X129465949Y-80573332D01*
X129513568Y-80668570D01*
X129513568Y-81001903D01*
X33027376Y-78533332D02*
X33027376Y-77914284D01*
X33408329Y-78247618D01*
X33408329Y-78104760D01*
X33455948Y-78009522D01*
X33503567Y-77961903D01*
X33598805Y-77914284D01*
X33836900Y-77914284D01*
X33932138Y-77961903D01*
X33979757Y-78009522D01*
X34027376Y-78104760D01*
X34027376Y-78390475D01*
X33979757Y-78485713D01*
X33932138Y-78533332D01*
X89002615Y-51561903D02*
X88954996Y-51514284D01*
X88907376Y-51419046D01*
X88907376Y-51180951D01*
X88954996Y-51085713D01*
X89002615Y-51038094D01*
X89097853Y-50990475D01*
X89193091Y-50990475D01*
X89335948Y-51038094D01*
X89907376Y-51609522D01*
X89907376Y-50990475D01*
X88907376Y-50085713D02*
X88907376Y-50561903D01*
X89383567Y-50609522D01*
X89335948Y-50561903D01*
X89288329Y-50466665D01*
X89288329Y-50228570D01*
X89335948Y-50133332D01*
X89383567Y-50085713D01*
X89478805Y-50038094D01*
X89716900Y-50038094D01*
X89812138Y-50085713D01*
X89859757Y-50133332D01*
X89907376Y-50228570D01*
X89907376Y-50466665D01*
X89859757Y-50561903D01*
X89812138Y-50609522D01*
X46155948Y-50895237D02*
X46108329Y-50990475D01*
X46060710Y-51038094D01*
X45965472Y-51085713D01*
X45917853Y-51085713D01*
X45822615Y-51038094D01*
X45774996Y-50990475D01*
X45727376Y-50895237D01*
X45727376Y-50704760D01*
X45774996Y-50609522D01*
X45822615Y-50561903D01*
X45917853Y-50514284D01*
X45965472Y-50514284D01*
X46060710Y-50561903D01*
X46108329Y-50609522D01*
X46155948Y-50704760D01*
X46155948Y-50895237D01*
X46203567Y-50990475D01*
X46251186Y-51038094D01*
X46346424Y-51085713D01*
X46536900Y-51085713D01*
X46632138Y-51038094D01*
X46679757Y-50990475D01*
X46727376Y-50895237D01*
X46727376Y-50704760D01*
X46679757Y-50609522D01*
X46632138Y-50561903D01*
X46536900Y-50514284D01*
X46346424Y-50514284D01*
X46251186Y-50561903D01*
X46203567Y-50609522D01*
X46155948Y-50704760D01*
X101607376Y-79009522D02*
X101607376Y-78390475D01*
X101988329Y-78723808D01*
X101988329Y-78580951D01*
X102035948Y-78485713D01*
X102083567Y-78438094D01*
X102178805Y-78390475D01*
X102416900Y-78390475D01*
X102512138Y-78438094D01*
X102559757Y-78485713D01*
X102607376Y-78580951D01*
X102607376Y-78866665D01*
X102559757Y-78961903D01*
X102512138Y-79009522D01*
X101607376Y-77771427D02*
X101607376Y-77676189D01*
X101654996Y-77580951D01*
X101702615Y-77533332D01*
X101797853Y-77485713D01*
X101988329Y-77438094D01*
X102226424Y-77438094D01*
X102416900Y-77485713D01*
X102512138Y-77533332D01*
X102559757Y-77580951D01*
X102607376Y-77676189D01*
X102607376Y-77771427D01*
X102559757Y-77866665D01*
X102512138Y-77914284D01*
X102416900Y-77961903D01*
X102226424Y-78009522D01*
X101988329Y-78009522D01*
X101797853Y-77961903D01*
X101702615Y-77914284D01*
X101654996Y-77866665D01*
X101607376Y-77771427D01*
X99162615Y-78961903D02*
X99114996Y-78914284D01*
X99067376Y-78819046D01*
X99067376Y-78580951D01*
X99114996Y-78485713D01*
X99162615Y-78438094D01*
X99257853Y-78390475D01*
X99353091Y-78390475D01*
X99495948Y-78438094D01*
X100067376Y-79009522D01*
X100067376Y-78390475D01*
X100067376Y-77914284D02*
X100067376Y-77723808D01*
X100019757Y-77628570D01*
X99972138Y-77580951D01*
X99829281Y-77485713D01*
X99638805Y-77438094D01*
X99257853Y-77438094D01*
X99162615Y-77485713D01*
X99114996Y-77533332D01*
X99067376Y-77628570D01*
X99067376Y-77819046D01*
X99114996Y-77914284D01*
X99162615Y-77961903D01*
X99257853Y-78009522D01*
X99495948Y-78009522D01*
X99591186Y-77961903D01*
X99638805Y-77914284D01*
X99686424Y-77819046D01*
X99686424Y-77628570D01*
X99638805Y-77533332D01*
X99591186Y-77485713D01*
X99495948Y-77438094D01*
X40647376Y-25638094D02*
X40647376Y-26114284D01*
X41123567Y-26161903D01*
X41075948Y-26114284D01*
X41028329Y-26019046D01*
X41028329Y-25780951D01*
X41075948Y-25685713D01*
X41123567Y-25638094D01*
X41218805Y-25590475D01*
X41456900Y-25590475D01*
X41552138Y-25638094D01*
X41599757Y-25685713D01*
X41647376Y-25780951D01*
X41647376Y-26019046D01*
X41599757Y-26114284D01*
X41552138Y-26161903D01*
X41647376Y-25114284D02*
X41647376Y-24923808D01*
X41599757Y-24828570D01*
X41552138Y-24780951D01*
X41409281Y-24685713D01*
X41218805Y-24638094D01*
X40837853Y-24638094D01*
X40742615Y-24685713D01*
X40694996Y-24733332D01*
X40647376Y-24828570D01*
X40647376Y-25019046D01*
X40694996Y-25114284D01*
X40742615Y-25161903D01*
X40837853Y-25209522D01*
X41075948Y-25209522D01*
X41171186Y-25161903D01*
X41218805Y-25114284D01*
X41266424Y-25019046D01*
X41266424Y-24828570D01*
X41218805Y-24733332D01*
X41171186Y-24685713D01*
X41075948Y-24638094D01*
X72127376Y-50990475D02*
X72127376Y-51561903D01*
X72127376Y-51276189D02*
X71127376Y-51276189D01*
X71270234Y-51371427D01*
X71365472Y-51466665D01*
X71413091Y-51561903D01*
X71555948Y-50419046D02*
X71508329Y-50514284D01*
X71460710Y-50561903D01*
X71365472Y-50609522D01*
X71317853Y-50609522D01*
X71222615Y-50561903D01*
X71174996Y-50514284D01*
X71127376Y-50419046D01*
X71127376Y-50228570D01*
X71174996Y-50133332D01*
X71222615Y-50085713D01*
X71317853Y-50038094D01*
X71365472Y-50038094D01*
X71460710Y-50085713D01*
X71508329Y-50133332D01*
X71555948Y-50228570D01*
X71555948Y-50419046D01*
X71603567Y-50514284D01*
X71651186Y-50561903D01*
X71746424Y-50609522D01*
X71936900Y-50609522D01*
X72032138Y-50561903D01*
X72079757Y-50514284D01*
X72127376Y-50419046D01*
X72127376Y-50228570D01*
X72079757Y-50133332D01*
X72032138Y-50085713D01*
X71936900Y-50038094D01*
X71746424Y-50038094D01*
X71651186Y-50085713D01*
X71603567Y-50133332D01*
X71555948Y-50228570D01*
X147787376Y-50990475D02*
X147787376Y-51561903D01*
X147787376Y-51276189D02*
X146787376Y-51276189D01*
X146930234Y-51371427D01*
X147025472Y-51466665D01*
X147073091Y-51561903D01*
X147120710Y-50133332D02*
X147787376Y-50133332D01*
X146739757Y-50371427D02*
X147454043Y-50609522D01*
X147454043Y-49990475D01*
X145247376Y-50990475D02*
X145247376Y-51561903D01*
X145247376Y-51276189D02*
X144247376Y-51276189D01*
X144390234Y-51371427D01*
X144485472Y-51466665D01*
X144533091Y-51561903D01*
X144247376Y-50657141D02*
X144247376Y-50038094D01*
X144628329Y-50371427D01*
X144628329Y-50228570D01*
X144675948Y-50133332D01*
X144723567Y-50085713D01*
X144818805Y-50038094D01*
X145056900Y-50038094D01*
X145152138Y-50085713D01*
X145199757Y-50133332D01*
X145247376Y-50228570D01*
X145247376Y-50514284D01*
X145199757Y-50609522D01*
X145152138Y-50657141D01*
X74667376Y-50990475D02*
X74667376Y-51561903D01*
X74667376Y-51276189D02*
X73667376Y-51276189D01*
X73810234Y-51371427D01*
X73905472Y-51466665D01*
X73953091Y-51561903D01*
X74667376Y-50514284D02*
X74667376Y-50323808D01*
X74619757Y-50228570D01*
X74572138Y-50180951D01*
X74429281Y-50085713D01*
X74238805Y-50038094D01*
X73857853Y-50038094D01*
X73762615Y-50085713D01*
X73714996Y-50133332D01*
X73667376Y-50228570D01*
X73667376Y-50419046D01*
X73714996Y-50514284D01*
X73762615Y-50561903D01*
X73857853Y-50609522D01*
X74095948Y-50609522D01*
X74191186Y-50561903D01*
X74238805Y-50514284D01*
X74286424Y-50419046D01*
X74286424Y-50228570D01*
X74238805Y-50133332D01*
X74191186Y-50085713D01*
X74095948Y-50038094D01*
X79080710Y-63245713D02*
X79747376Y-63245713D01*
X78699757Y-63483808D02*
X79414043Y-63721903D01*
X79414043Y-63102856D01*
X78747376Y-62531427D02*
X78747376Y-62436189D01*
X78794996Y-62340951D01*
X78842615Y-62293332D01*
X78937853Y-62245713D01*
X79128329Y-62198094D01*
X79366424Y-62198094D01*
X79556900Y-62245713D01*
X79652138Y-62293332D01*
X79699757Y-62340951D01*
X79747376Y-62436189D01*
X79747376Y-62531427D01*
X79699757Y-62626665D01*
X79652138Y-62674284D01*
X79556900Y-62721903D01*
X79366424Y-62769522D01*
X79128329Y-62769522D01*
X78937853Y-62721903D01*
X78842615Y-62674284D01*
X78794996Y-62626665D01*
X78747376Y-62531427D01*
X61967376Y-50990475D02*
X61967376Y-51561903D01*
X61967376Y-51276189D02*
X60967376Y-51276189D01*
X61110234Y-51371427D01*
X61205472Y-51466665D01*
X61253091Y-51561903D01*
X61300710Y-50133332D02*
X61967376Y-50133332D01*
X60919757Y-50371427D02*
X61634043Y-50609522D01*
X61634043Y-49990475D01*
X69587376Y-78390475D02*
X69587376Y-78961903D01*
X69587376Y-78676189D02*
X68587376Y-78676189D01*
X68730234Y-78771427D01*
X68825472Y-78866665D01*
X68873091Y-78961903D01*
X68587376Y-78057141D02*
X68587376Y-77390475D01*
X69587376Y-77819046D01*
X142167379Y-75444284D02*
X142167379Y-76015713D01*
X142167379Y-75729999D02*
X141167379Y-75729999D01*
X141310237Y-75825237D01*
X141405475Y-75920475D01*
X141453094Y-76015713D01*
X141214999Y-74491903D02*
X141167379Y-74587141D01*
X141167379Y-74729999D01*
X141214999Y-74872856D01*
X141310237Y-74968094D01*
X141405475Y-75015713D01*
X141595951Y-75063332D01*
X141738808Y-75063332D01*
X141929284Y-75015713D01*
X142024522Y-74968094D01*
X142119760Y-74872856D01*
X142167379Y-74729999D01*
X142167379Y-74634760D01*
X142119760Y-74491903D01*
X142072141Y-74444284D01*
X141738808Y-74444284D01*
X141738808Y-74634760D01*
X127497377Y-62674284D02*
X127497377Y-63245713D01*
X127497377Y-62959999D02*
X126497377Y-62959999D01*
X126640235Y-63055237D01*
X126735473Y-63150475D01*
X126783092Y-63245713D01*
X139262615Y-26161903D02*
X139214996Y-26114284D01*
X139167376Y-26019046D01*
X139167376Y-25780951D01*
X139214996Y-25685713D01*
X139262615Y-25638094D01*
X139357853Y-25590475D01*
X139453091Y-25590475D01*
X139595948Y-25638094D01*
X140167376Y-26209522D01*
X140167376Y-25590475D01*
X139167376Y-24733332D02*
X139167376Y-24923808D01*
X139214996Y-25019046D01*
X139262615Y-25066665D01*
X139405472Y-25161903D01*
X139595948Y-25209522D01*
X139976900Y-25209522D01*
X140072138Y-25161903D01*
X140119757Y-25114284D01*
X140167376Y-25019046D01*
X140167376Y-24828570D01*
X140119757Y-24733332D01*
X140072138Y-24685713D01*
X139976900Y-24638094D01*
X139738805Y-24638094D01*
X139643567Y-24685713D01*
X139595948Y-24733332D01*
X139548329Y-24828570D01*
X139548329Y-25019046D01*
X139595948Y-25114284D01*
X139643567Y-25161903D01*
X139738805Y-25209522D01*
X30582615Y-51085713D02*
X30534996Y-51038094D01*
X30487376Y-50942856D01*
X30487376Y-50704760D01*
X30534996Y-50609522D01*
X30582615Y-50561903D01*
X30677853Y-50514284D01*
X30773091Y-50514284D01*
X30915948Y-50561903D01*
X31487376Y-51133332D01*
X31487376Y-50514284D01*
X106717376Y-26209522D02*
X106717376Y-25590475D01*
X107098329Y-25923808D01*
X107098329Y-25780951D01*
X107145948Y-25685713D01*
X107193567Y-25638094D01*
X107288805Y-25590475D01*
X107526900Y-25590475D01*
X107622138Y-25638094D01*
X107669757Y-25685713D01*
X107717376Y-25780951D01*
X107717376Y-26066665D01*
X107669757Y-26161903D01*
X107622138Y-26209522D01*
X106717376Y-25257141D02*
X106717376Y-24638094D01*
X107098329Y-24971427D01*
X107098329Y-24828570D01*
X107145948Y-24733332D01*
X107193567Y-24685713D01*
X107288805Y-24638094D01*
X107526900Y-24638094D01*
X107622138Y-24685713D01*
X107669757Y-24733332D01*
X107717376Y-24828570D01*
X107717376Y-25114284D01*
X107669757Y-25209522D01*
X107622138Y-25257141D01*
X137627376Y-50990475D02*
X137627376Y-51561903D01*
X137627376Y-51276189D02*
X136627376Y-51276189D01*
X136770234Y-51371427D01*
X136865472Y-51466665D01*
X136913091Y-51561903D01*
X136627376Y-50371427D02*
X136627376Y-50276189D01*
X136674996Y-50180951D01*
X136722615Y-50133332D01*
X136817853Y-50085713D01*
X137008329Y-50038094D01*
X137246424Y-50038094D01*
X137436900Y-50085713D01*
X137532138Y-50133332D01*
X137579757Y-50180951D01*
X137627376Y-50276189D01*
X137627376Y-50371427D01*
X137579757Y-50466665D01*
X137532138Y-50514284D01*
X137436900Y-50561903D01*
X137246424Y-50609522D01*
X137008329Y-50609522D01*
X136817853Y-50561903D01*
X136722615Y-50514284D01*
X136674996Y-50466665D01*
X136627376Y-50371427D01*
X76540710Y-63245713D02*
X77207376Y-63245713D01*
X76159757Y-63483808D02*
X76874043Y-63721903D01*
X76874043Y-63102856D01*
X77207376Y-62198094D02*
X77207376Y-62769522D01*
X77207376Y-62483808D02*
X76207376Y-62483808D01*
X76350234Y-62579046D01*
X76445472Y-62674284D01*
X76493091Y-62769522D01*
X46155948Y-78295237D02*
X46108329Y-78390475D01*
X46060710Y-78438094D01*
X45965472Y-78485713D01*
X45917853Y-78485713D01*
X45822615Y-78438094D01*
X45774996Y-78390475D01*
X45727376Y-78295237D01*
X45727376Y-78104760D01*
X45774996Y-78009522D01*
X45822615Y-77961903D01*
X45917853Y-77914284D01*
X45965472Y-77914284D01*
X46060710Y-77961903D01*
X46108329Y-78009522D01*
X46155948Y-78104760D01*
X46155948Y-78295237D01*
X46203567Y-78390475D01*
X46251186Y-78438094D01*
X46346424Y-78485713D01*
X46536900Y-78485713D01*
X46632138Y-78438094D01*
X46679757Y-78390475D01*
X46727376Y-78295237D01*
X46727376Y-78104760D01*
X46679757Y-78009522D01*
X46632138Y-77961903D01*
X46536900Y-77914284D01*
X46346424Y-77914284D01*
X46251186Y-77961903D01*
X46203567Y-78009522D01*
X46155948Y-78104760D01*
X96622615Y-51561903D02*
X96574996Y-51514284D01*
X96527376Y-51419046D01*
X96527376Y-51180951D01*
X96574996Y-51085713D01*
X96622615Y-51038094D01*
X96717853Y-50990475D01*
X96813091Y-50990475D01*
X96955948Y-51038094D01*
X97527376Y-51609522D01*
X97527376Y-50990475D01*
X96955948Y-50419046D02*
X96908329Y-50514284D01*
X96860710Y-50561903D01*
X96765472Y-50609522D01*
X96717853Y-50609522D01*
X96622615Y-50561903D01*
X96574996Y-50514284D01*
X96527376Y-50419046D01*
X96527376Y-50228570D01*
X96574996Y-50133332D01*
X96622615Y-50085713D01*
X96717853Y-50038094D01*
X96765472Y-50038094D01*
X96860710Y-50085713D01*
X96908329Y-50133332D01*
X96955948Y-50228570D01*
X96955948Y-50419046D01*
X97003567Y-50514284D01*
X97051186Y-50561903D01*
X97146424Y-50609522D01*
X97336900Y-50609522D01*
X97432138Y-50561903D01*
X97479757Y-50514284D01*
X97527376Y-50419046D01*
X97527376Y-50228570D01*
X97479757Y-50133332D01*
X97432138Y-50085713D01*
X97336900Y-50038094D01*
X97146424Y-50038094D01*
X97051186Y-50085713D01*
X97003567Y-50133332D01*
X96955948Y-50228570D01*
X96527376Y-26209522D02*
X96527376Y-25590475D01*
X96908329Y-25923808D01*
X96908329Y-25780951D01*
X96955948Y-25685713D01*
X97003567Y-25638094D01*
X97098805Y-25590475D01*
X97336900Y-25590475D01*
X97432138Y-25638094D01*
X97479757Y-25685713D01*
X97527376Y-25780951D01*
X97527376Y-26066665D01*
X97479757Y-26161903D01*
X97432138Y-26209522D01*
X96527376Y-25257141D02*
X96527376Y-24590475D01*
X97527376Y-25019046D01*
X59427376Y-78390475D02*
X59427376Y-78961903D01*
X59427376Y-78676189D02*
X58427376Y-78676189D01*
X58570234Y-78771427D01*
X58665472Y-78866665D01*
X58713091Y-78961903D01*
X58427376Y-78057141D02*
X58427376Y-77438094D01*
X58808329Y-77771427D01*
X58808329Y-77628570D01*
X58855948Y-77533332D01*
X58903567Y-77485713D01*
X58998805Y-77438094D01*
X59236900Y-77438094D01*
X59332138Y-77485713D01*
X59379757Y-77533332D01*
X59427376Y-77628570D01*
X59427376Y-77914284D01*
X59379757Y-78009522D01*
X59332138Y-78057141D01*
X66380710Y-63245713D02*
X67047376Y-63245713D01*
X65999757Y-63483808D02*
X66714043Y-63721903D01*
X66714043Y-63102856D01*
X66047376Y-62245713D02*
X66047376Y-62721903D01*
X66523567Y-62769522D01*
X66475948Y-62721903D01*
X66428329Y-62626665D01*
X66428329Y-62388570D01*
X66475948Y-62293332D01*
X66523567Y-62245713D01*
X66618805Y-62198094D01*
X66856900Y-62198094D01*
X66952138Y-62245713D01*
X66999757Y-62293332D01*
X67047376Y-62388570D01*
X67047376Y-62626665D01*
X66999757Y-62721903D01*
X66952138Y-62769522D01*
X35567376Y-63198094D02*
X35567376Y-63674284D01*
X36043567Y-63721903D01*
X35995948Y-63674284D01*
X35948329Y-63579046D01*
X35948329Y-63340951D01*
X35995948Y-63245713D01*
X36043567Y-63198094D01*
X36138805Y-63150475D01*
X36376900Y-63150475D01*
X36472138Y-63198094D01*
X36519757Y-63245713D01*
X36567376Y-63340951D01*
X36567376Y-63579046D01*
X36519757Y-63674284D01*
X36472138Y-63721903D01*
X35567376Y-62817141D02*
X35567376Y-62150475D01*
X36567376Y-62579046D01*
X121893568Y-80668570D02*
X121941187Y-80525713D01*
X121988806Y-80478094D01*
X122084044Y-80430475D01*
X122226901Y-80430475D01*
X122322139Y-80478094D01*
X122369758Y-80525713D01*
X122417377Y-80620951D01*
X122417377Y-81001903D01*
X121417377Y-81001903D01*
X121417377Y-80668570D01*
X121464997Y-80573332D01*
X121512616Y-80525713D01*
X121607854Y-80478094D01*
X121703092Y-80478094D01*
X121798330Y-80525713D01*
X121845949Y-80573332D01*
X121893568Y-80668570D01*
X121893568Y-81001903D01*
X40647376Y-50609522D02*
X40647376Y-50799999D01*
X40694996Y-50895237D01*
X40742615Y-50942856D01*
X40885472Y-51038094D01*
X41075948Y-51085713D01*
X41456900Y-51085713D01*
X41552138Y-51038094D01*
X41599757Y-50990475D01*
X41647376Y-50895237D01*
X41647376Y-50704760D01*
X41599757Y-50609522D01*
X41552138Y-50561903D01*
X41456900Y-50514284D01*
X41218805Y-50514284D01*
X41123567Y-50561903D01*
X41075948Y-50609522D01*
X41028329Y-50704760D01*
X41028329Y-50895237D01*
X41075948Y-50990475D01*
X41123567Y-51038094D01*
X41218805Y-51085713D01*
X48267376Y-25638094D02*
X48267376Y-26114284D01*
X48743567Y-26161903D01*
X48695948Y-26114284D01*
X48648329Y-26019046D01*
X48648329Y-25780951D01*
X48695948Y-25685713D01*
X48743567Y-25638094D01*
X48838805Y-25590475D01*
X49076900Y-25590475D01*
X49172138Y-25638094D01*
X49219757Y-25685713D01*
X49267376Y-25780951D01*
X49267376Y-26019046D01*
X49219757Y-26114284D01*
X49172138Y-26161903D01*
X48267376Y-24733332D02*
X48267376Y-24923808D01*
X48314996Y-25019046D01*
X48362615Y-25066665D01*
X48505472Y-25161903D01*
X48695948Y-25209522D01*
X49076900Y-25209522D01*
X49172138Y-25161903D01*
X49219757Y-25114284D01*
X49267376Y-25019046D01*
X49267376Y-24828570D01*
X49219757Y-24733332D01*
X49172138Y-24685713D01*
X49076900Y-24638094D01*
X48838805Y-24638094D01*
X48743567Y-24685713D01*
X48695948Y-24733332D01*
X48648329Y-24828570D01*
X48648329Y-25019046D01*
X48695948Y-25114284D01*
X48743567Y-25161903D01*
X48838805Y-25209522D01*
X143802618Y-75515713D02*
X143754999Y-75468094D01*
X143707379Y-75372856D01*
X143707379Y-75134760D01*
X143754999Y-75039522D01*
X143802618Y-74991903D01*
X143897856Y-74944284D01*
X143993094Y-74944284D01*
X144135951Y-74991903D01*
X144707379Y-75563332D01*
X144707379Y-74944284D01*
X74667376Y-78390475D02*
X74667376Y-78961903D01*
X74667376Y-78676189D02*
X73667376Y-78676189D01*
X73810234Y-78771427D01*
X73905472Y-78866665D01*
X73953091Y-78961903D01*
X74667376Y-77914284D02*
X74667376Y-77723808D01*
X74619757Y-77628570D01*
X74572138Y-77580951D01*
X74429281Y-77485713D01*
X74238805Y-77438094D01*
X73857853Y-77438094D01*
X73762615Y-77485713D01*
X73714996Y-77533332D01*
X73667376Y-77628570D01*
X73667376Y-77819046D01*
X73714996Y-77914284D01*
X73762615Y-77961903D01*
X73857853Y-78009522D01*
X74095948Y-78009522D01*
X74191186Y-77961903D01*
X74238805Y-77914284D01*
X74286424Y-77819046D01*
X74286424Y-77628570D01*
X74238805Y-77533332D01*
X74191186Y-77485713D01*
X74095948Y-77438094D01*
X94082615Y-78961903D02*
X94034996Y-78914284D01*
X93987376Y-78819046D01*
X93987376Y-78580951D01*
X94034996Y-78485713D01*
X94082615Y-78438094D01*
X94177853Y-78390475D01*
X94273091Y-78390475D01*
X94415948Y-78438094D01*
X94987376Y-79009522D01*
X94987376Y-78390475D01*
X93987376Y-78057141D02*
X93987376Y-77390475D01*
X94987376Y-77819046D01*
X119847376Y-25590475D02*
X119847376Y-26161903D01*
X119847376Y-25876189D02*
X118847376Y-25876189D01*
X118990234Y-25971427D01*
X119085472Y-26066665D01*
X119133091Y-26161903D01*
X119275948Y-25019046D02*
X119228329Y-25114284D01*
X119180710Y-25161903D01*
X119085472Y-25209522D01*
X119037853Y-25209522D01*
X118942615Y-25161903D01*
X118894996Y-25114284D01*
X118847376Y-25019046D01*
X118847376Y-24828570D01*
X118894996Y-24733332D01*
X118942615Y-24685713D01*
X119037853Y-24638094D01*
X119085472Y-24638094D01*
X119180710Y-24685713D01*
X119228329Y-24733332D01*
X119275948Y-24828570D01*
X119275948Y-25019046D01*
X119323567Y-25114284D01*
X119371186Y-25161903D01*
X119466424Y-25209522D01*
X119656900Y-25209522D01*
X119752138Y-25161903D01*
X119799757Y-25114284D01*
X119847376Y-25019046D01*
X119847376Y-24828570D01*
X119799757Y-24733332D01*
X119752138Y-24685713D01*
X119656900Y-24638094D01*
X119466424Y-24638094D01*
X119371186Y-24685713D01*
X119323567Y-24733332D01*
X119275948Y-24828570D01*
X93987376Y-26209522D02*
X93987376Y-25590475D01*
X94368329Y-25923808D01*
X94368329Y-25780951D01*
X94415948Y-25685713D01*
X94463567Y-25638094D01*
X94558805Y-25590475D01*
X94796900Y-25590475D01*
X94892138Y-25638094D01*
X94939757Y-25685713D01*
X94987376Y-25780951D01*
X94987376Y-26066665D01*
X94939757Y-26161903D01*
X94892138Y-26209522D01*
X94415948Y-25019046D02*
X94368329Y-25114284D01*
X94320710Y-25161903D01*
X94225472Y-25209522D01*
X94177853Y-25209522D01*
X94082615Y-25161903D01*
X94034996Y-25114284D01*
X93987376Y-25019046D01*
X93987376Y-24828570D01*
X94034996Y-24733332D01*
X94082615Y-24685713D01*
X94177853Y-24638094D01*
X94225472Y-24638094D01*
X94320710Y-24685713D01*
X94368329Y-24733332D01*
X94415948Y-24828570D01*
X94415948Y-25019046D01*
X94463567Y-25114284D01*
X94511186Y-25161903D01*
X94606424Y-25209522D01*
X94796900Y-25209522D01*
X94892138Y-25161903D01*
X94939757Y-25114284D01*
X94987376Y-25019046D01*
X94987376Y-24828570D01*
X94939757Y-24733332D01*
X94892138Y-24685713D01*
X94796900Y-24638094D01*
X94606424Y-24638094D01*
X94511186Y-24685713D01*
X94463567Y-24733332D01*
X94415948Y-24828570D01*
X89002615Y-78961903D02*
X88954996Y-78914284D01*
X88907376Y-78819046D01*
X88907376Y-78580951D01*
X88954996Y-78485713D01*
X89002615Y-78438094D01*
X89097853Y-78390475D01*
X89193091Y-78390475D01*
X89335948Y-78438094D01*
X89907376Y-79009522D01*
X89907376Y-78390475D01*
X88907376Y-77485713D02*
X88907376Y-77961903D01*
X89383567Y-78009522D01*
X89335948Y-77961903D01*
X89288329Y-77866665D01*
X89288329Y-77628570D01*
X89335948Y-77533332D01*
X89383567Y-77485713D01*
X89478805Y-77438094D01*
X89716900Y-77438094D01*
X89812138Y-77485713D01*
X89859757Y-77533332D01*
X89907376Y-77628570D01*
X89907376Y-77866665D01*
X89859757Y-77961903D01*
X89812138Y-78009522D01*
X117051663Y-80978094D02*
X117051663Y-80501903D01*
X117337377Y-81073332D02*
X116337377Y-80739999D01*
X117337377Y-80406665D01*
X49267376Y-50990475D02*
X49267376Y-50799999D01*
X49219757Y-50704760D01*
X49172138Y-50657141D01*
X49029281Y-50561903D01*
X48838805Y-50514284D01*
X48457853Y-50514284D01*
X48362615Y-50561903D01*
X48314996Y-50609522D01*
X48267376Y-50704760D01*
X48267376Y-50895237D01*
X48314996Y-50990475D01*
X48362615Y-51038094D01*
X48457853Y-51085713D01*
X48695948Y-51085713D01*
X48791186Y-51038094D01*
X48838805Y-50990475D01*
X48886424Y-50895237D01*
X48886424Y-50704760D01*
X48838805Y-50609522D01*
X48791186Y-50561903D01*
X48695948Y-50514284D01*
X68920710Y-25685713D02*
X69587376Y-25685713D01*
X68539757Y-25923808D02*
X69254043Y-26161903D01*
X69254043Y-25542856D01*
X69015948Y-25019046D02*
X68968329Y-25114284D01*
X68920710Y-25161903D01*
X68825472Y-25209522D01*
X68777853Y-25209522D01*
X68682615Y-25161903D01*
X68634996Y-25114284D01*
X68587376Y-25019046D01*
X68587376Y-24828570D01*
X68634996Y-24733332D01*
X68682615Y-24685713D01*
X68777853Y-24638094D01*
X68825472Y-24638094D01*
X68920710Y-24685713D01*
X68968329Y-24733332D01*
X69015948Y-24828570D01*
X69015948Y-25019046D01*
X69063567Y-25114284D01*
X69111186Y-25161903D01*
X69206424Y-25209522D01*
X69396900Y-25209522D01*
X69492138Y-25161903D01*
X69539757Y-25114284D01*
X69587376Y-25019046D01*
X69587376Y-24828570D01*
X69539757Y-24733332D01*
X69492138Y-24685713D01*
X69396900Y-24638094D01*
X69206424Y-24638094D01*
X69111186Y-24685713D01*
X69063567Y-24733332D01*
X69015948Y-24828570D01*
X71460710Y-25685713D02*
X72127376Y-25685713D01*
X71079757Y-25923808D02*
X71794043Y-26161903D01*
X71794043Y-25542856D01*
X71127376Y-25257141D02*
X71127376Y-24590475D01*
X72127376Y-25019046D01*
X146882615Y-26161903D02*
X146834996Y-26114284D01*
X146787376Y-26019046D01*
X146787376Y-25780951D01*
X146834996Y-25685713D01*
X146882615Y-25638094D01*
X146977853Y-25590475D01*
X147073091Y-25590475D01*
X147215948Y-25638094D01*
X147787376Y-26209522D01*
X147787376Y-25590475D01*
X147787376Y-25114284D02*
X147787376Y-24923808D01*
X147739757Y-24828570D01*
X147692138Y-24780951D01*
X147549281Y-24685713D01*
X147358805Y-24638094D01*
X146977853Y-24638094D01*
X146882615Y-24685713D01*
X146834996Y-24733332D01*
X146787376Y-24828570D01*
X146787376Y-25019046D01*
X146834996Y-25114284D01*
X146882615Y-25161903D01*
X146977853Y-25209522D01*
X147215948Y-25209522D01*
X147311186Y-25161903D01*
X147358805Y-25114284D01*
X147406424Y-25019046D01*
X147406424Y-24828570D01*
X147358805Y-24733332D01*
X147311186Y-24685713D01*
X147215948Y-24638094D01*
X54347376Y-50990475D02*
X54347376Y-51561903D01*
X54347376Y-51276189D02*
X53347376Y-51276189D01*
X53490234Y-51371427D01*
X53585472Y-51466665D01*
X53633091Y-51561903D01*
X54347376Y-50038094D02*
X54347376Y-50609522D01*
X54347376Y-50323808D02*
X53347376Y-50323808D01*
X53490234Y-50419046D01*
X53585472Y-50514284D01*
X53633091Y-50609522D01*
X72127376Y-78390475D02*
X72127376Y-78961903D01*
X72127376Y-78676189D02*
X71127376Y-78676189D01*
X71270234Y-78771427D01*
X71365472Y-78866665D01*
X71413091Y-78961903D01*
X71555948Y-77819046D02*
X71508329Y-77914284D01*
X71460710Y-77961903D01*
X71365472Y-78009522D01*
X71317853Y-78009522D01*
X71222615Y-77961903D01*
X71174996Y-77914284D01*
X71127376Y-77819046D01*
X71127376Y-77628570D01*
X71174996Y-77533332D01*
X71222615Y-77485713D01*
X71317853Y-77438094D01*
X71365472Y-77438094D01*
X71460710Y-77485713D01*
X71508329Y-77533332D01*
X71555948Y-77628570D01*
X71555948Y-77819046D01*
X71603567Y-77914284D01*
X71651186Y-77961903D01*
X71746424Y-78009522D01*
X71936900Y-78009522D01*
X72032138Y-77961903D01*
X72079757Y-77914284D01*
X72127376Y-77819046D01*
X72127376Y-77628570D01*
X72079757Y-77533332D01*
X72032138Y-77485713D01*
X71936900Y-77438094D01*
X71746424Y-77438094D01*
X71651186Y-77485713D01*
X71603567Y-77533332D01*
X71555948Y-77628570D01*
X74000710Y-63245713D02*
X74667376Y-63245713D01*
X73619757Y-63483808D02*
X74334043Y-63721903D01*
X74334043Y-63102856D01*
X73762615Y-62769522D02*
X73714996Y-62721903D01*
X73667376Y-62626665D01*
X73667376Y-62388570D01*
X73714996Y-62293332D01*
X73762615Y-62245713D01*
X73857853Y-62198094D01*
X73953091Y-62198094D01*
X74095948Y-62245713D01*
X74667376Y-62817141D01*
X74667376Y-62198094D01*
X58427376Y-25638094D02*
X58427376Y-26114284D01*
X58903567Y-26161903D01*
X58855948Y-26114284D01*
X58808329Y-26019046D01*
X58808329Y-25780951D01*
X58855948Y-25685713D01*
X58903567Y-25638094D01*
X58998805Y-25590475D01*
X59236900Y-25590475D01*
X59332138Y-25638094D01*
X59379757Y-25685713D01*
X59427376Y-25780951D01*
X59427376Y-26019046D01*
X59379757Y-26114284D01*
X59332138Y-26161903D01*
X58522615Y-25209522D02*
X58474996Y-25161903D01*
X58427376Y-25066665D01*
X58427376Y-24828570D01*
X58474996Y-24733332D01*
X58522615Y-24685713D01*
X58617853Y-24638094D01*
X58713091Y-24638094D01*
X58855948Y-24685713D01*
X59427376Y-25257141D01*
X59427376Y-24638094D01*
X144342615Y-26161903D02*
X144294996Y-26114284D01*
X144247376Y-26019046D01*
X144247376Y-25780951D01*
X144294996Y-25685713D01*
X144342615Y-25638094D01*
X144437853Y-25590475D01*
X144533091Y-25590475D01*
X144675948Y-25638094D01*
X145247376Y-26209522D01*
X145247376Y-25590475D01*
X144675948Y-25019046D02*
X144628329Y-25114284D01*
X144580710Y-25161903D01*
X144485472Y-25209522D01*
X144437853Y-25209522D01*
X144342615Y-25161903D01*
X144294996Y-25114284D01*
X144247376Y-25019046D01*
X144247376Y-24828570D01*
X144294996Y-24733332D01*
X144342615Y-24685713D01*
X144437853Y-24638094D01*
X144485472Y-24638094D01*
X144580710Y-24685713D01*
X144628329Y-24733332D01*
X144675948Y-24828570D01*
X144675948Y-25019046D01*
X144723567Y-25114284D01*
X144771186Y-25161903D01*
X144866424Y-25209522D01*
X145056900Y-25209522D01*
X145152138Y-25161903D01*
X145199757Y-25114284D01*
X145247376Y-25019046D01*
X145247376Y-24828570D01*
X145199757Y-24733332D01*
X145152138Y-24685713D01*
X145056900Y-24638094D01*
X144866424Y-24638094D01*
X144771186Y-24685713D01*
X144723567Y-24733332D01*
X144675948Y-24828570D01*
X123927376Y-50561903D02*
X123927376Y-51038094D01*
X124403567Y-51085713D01*
X124355948Y-51038094D01*
X124308329Y-50942856D01*
X124308329Y-50704760D01*
X124355948Y-50609522D01*
X124403567Y-50561903D01*
X124498805Y-50514284D01*
X124736900Y-50514284D01*
X124832138Y-50561903D01*
X124879757Y-50609522D01*
X124927376Y-50704760D01*
X124927376Y-50942856D01*
X124879757Y-51038094D01*
X124832138Y-51085713D01*
X142707376Y-50990475D02*
X142707376Y-51561903D01*
X142707376Y-51276189D02*
X141707376Y-51276189D01*
X141850234Y-51371427D01*
X141945472Y-51466665D01*
X141993091Y-51561903D01*
X141802615Y-50609522D02*
X141754996Y-50561903D01*
X141707376Y-50466665D01*
X141707376Y-50228570D01*
X141754996Y-50133332D01*
X141802615Y-50085713D01*
X141897853Y-50038094D01*
X141993091Y-50038094D01*
X142135948Y-50085713D01*
X142707376Y-50657141D01*
X142707376Y-50038094D01*
X96527376Y-63769522D02*
X96527376Y-63150475D01*
X96908329Y-63483808D01*
X96908329Y-63340951D01*
X96955948Y-63245713D01*
X97003567Y-63198094D01*
X97098805Y-63150475D01*
X97336900Y-63150475D01*
X97432138Y-63198094D01*
X97479757Y-63245713D01*
X97527376Y-63340951D01*
X97527376Y-63626665D01*
X97479757Y-63721903D01*
X97432138Y-63769522D01*
X96527376Y-62817141D02*
X96527376Y-62198094D01*
X96908329Y-62531427D01*
X96908329Y-62388570D01*
X96955948Y-62293332D01*
X97003567Y-62245713D01*
X97098805Y-62198094D01*
X97336900Y-62198094D01*
X97432138Y-62245713D01*
X97479757Y-62293332D01*
X97527376Y-62388570D01*
X97527376Y-62674284D01*
X97479757Y-62769522D01*
X97432138Y-62817141D01*
X74000710Y-25685713D02*
X74667376Y-25685713D01*
X73619757Y-25923808D02*
X74334043Y-26161903D01*
X74334043Y-25542856D01*
X73667376Y-24733332D02*
X73667376Y-24923808D01*
X73714996Y-25019046D01*
X73762615Y-25066665D01*
X73905472Y-25161903D01*
X74095948Y-25209522D01*
X74476900Y-25209522D01*
X74572138Y-25161903D01*
X74619757Y-25114284D01*
X74667376Y-25019046D01*
X74667376Y-24828570D01*
X74619757Y-24733332D01*
X74572138Y-24685713D01*
X74476900Y-24638094D01*
X74238805Y-24638094D01*
X74143567Y-24685713D01*
X74095948Y-24733332D01*
X74048329Y-24828570D01*
X74048329Y-25019046D01*
X74095948Y-25114284D01*
X74143567Y-25161903D01*
X74238805Y-25209522D01*
X149327376Y-26709522D02*
X149327376Y-26090475D01*
X149708329Y-26423808D01*
X149708329Y-26280951D01*
X149755948Y-26185713D01*
X149803567Y-26138094D01*
X149898805Y-26090475D01*
X150136900Y-26090475D01*
X150232138Y-26138094D01*
X150279757Y-26185713D01*
X150327376Y-26280951D01*
X150327376Y-26566665D01*
X150279757Y-26661903D01*
X150232138Y-26709522D01*
X149327376Y-25471427D02*
X149327376Y-25376189D01*
X149374996Y-25280951D01*
X149422615Y-25233332D01*
X149517853Y-25185713D01*
X149708329Y-25138094D01*
X149946424Y-25138094D01*
X150136900Y-25185713D01*
X150232138Y-25233332D01*
X150279757Y-25280951D01*
X150327376Y-25376189D01*
X150327376Y-25471427D01*
X150279757Y-25566665D01*
X150232138Y-25614284D01*
X150136900Y-25661903D01*
X149946424Y-25709522D01*
X149708329Y-25709522D01*
X149517853Y-25661903D01*
X149422615Y-25614284D01*
X149374996Y-25566665D01*
X149327376Y-25471427D01*
X149374996Y-24185713D02*
X149327376Y-24280951D01*
X149327376Y-24423808D01*
X149374996Y-24566665D01*
X149470234Y-24661903D01*
X149565472Y-24709522D01*
X149755948Y-24757141D01*
X149898805Y-24757141D01*
X150089281Y-24709522D01*
X150184519Y-24661903D01*
X150279757Y-24566665D01*
X150327376Y-24423808D01*
X150327376Y-24328570D01*
X150279757Y-24185713D01*
X150232138Y-24138094D01*
X149898805Y-24138094D01*
X149898805Y-24328570D01*
X81620710Y-25685713D02*
X82287376Y-25685713D01*
X81239757Y-25923808D02*
X81954043Y-26161903D01*
X81954043Y-25542856D01*
X81287376Y-25257141D02*
X81287376Y-24638094D01*
X81668329Y-24971427D01*
X81668329Y-24828570D01*
X81715948Y-24733332D01*
X81763567Y-24685713D01*
X81858805Y-24638094D01*
X82096900Y-24638094D01*
X82192138Y-24685713D01*
X82239757Y-24733332D01*
X82287376Y-24828570D01*
X82287376Y-25114284D01*
X82239757Y-25209522D01*
X82192138Y-25257141D01*
X35900710Y-50609522D02*
X36567376Y-50609522D01*
X35519757Y-50847618D02*
X36234043Y-51085713D01*
X36234043Y-50466665D01*
X118972616Y-63245713D02*
X118924997Y-63198094D01*
X118877377Y-63102856D01*
X118877377Y-62864760D01*
X118924997Y-62769522D01*
X118972616Y-62721903D01*
X119067854Y-62674284D01*
X119163092Y-62674284D01*
X119305949Y-62721903D01*
X119877377Y-63293332D01*
X119877377Y-62674284D01*
X79080710Y-25685713D02*
X79747376Y-25685713D01*
X78699757Y-25923808D02*
X79414043Y-26161903D01*
X79414043Y-25542856D01*
X79080710Y-24733332D02*
X79747376Y-24733332D01*
X78699757Y-24971427D02*
X79414043Y-25209522D01*
X79414043Y-24590475D01*
X43187376Y-78533332D02*
X43187376Y-77866665D01*
X44187376Y-78295237D01*
X33027376Y-25685713D02*
X33027376Y-25876189D01*
X33074996Y-25971427D01*
X33122615Y-26019046D01*
X33265472Y-26114284D01*
X33455948Y-26161903D01*
X33836900Y-26161903D01*
X33932138Y-26114284D01*
X33979757Y-26066665D01*
X34027376Y-25971427D01*
X34027376Y-25780951D01*
X33979757Y-25685713D01*
X33932138Y-25638094D01*
X33836900Y-25590475D01*
X33598805Y-25590475D01*
X33503567Y-25638094D01*
X33455948Y-25685713D01*
X33408329Y-25780951D01*
X33408329Y-25971427D01*
X33455948Y-26066665D01*
X33503567Y-26114284D01*
X33598805Y-26161903D01*
X33122615Y-25209522D02*
X33074996Y-25161903D01*
X33027376Y-25066665D01*
X33027376Y-24828570D01*
X33074996Y-24733332D01*
X33122615Y-24685713D01*
X33217853Y-24638094D01*
X33313091Y-24638094D01*
X33455948Y-24685713D01*
X34027376Y-25257141D01*
X34027376Y-24638094D01*
X141802615Y-26161903D02*
X141754996Y-26114284D01*
X141707376Y-26019046D01*
X141707376Y-25780951D01*
X141754996Y-25685713D01*
X141802615Y-25638094D01*
X141897853Y-25590475D01*
X141993091Y-25590475D01*
X142135948Y-25638094D01*
X142707376Y-26209522D01*
X142707376Y-25590475D01*
X141707376Y-25257141D02*
X141707376Y-24590475D01*
X142707376Y-25019046D01*
X30487376Y-63198094D02*
X30487376Y-63674284D01*
X30963567Y-63721903D01*
X30915948Y-63674284D01*
X30868329Y-63579046D01*
X30868329Y-63340951D01*
X30915948Y-63245713D01*
X30963567Y-63198094D01*
X31058805Y-63150475D01*
X31296900Y-63150475D01*
X31392138Y-63198094D01*
X31439757Y-63245713D01*
X31487376Y-63340951D01*
X31487376Y-63579046D01*
X31439757Y-63674284D01*
X31392138Y-63721903D01*
X31487376Y-62674284D02*
X31487376Y-62483808D01*
X31439757Y-62388570D01*
X31392138Y-62340951D01*
X31249281Y-62245713D01*
X31058805Y-62198094D01*
X30677853Y-62198094D01*
X30582615Y-62245713D01*
X30534996Y-62293332D01*
X30487376Y-62388570D01*
X30487376Y-62579046D01*
X30534996Y-62674284D01*
X30582615Y-62721903D01*
X30677853Y-62769522D01*
X30915948Y-62769522D01*
X31011186Y-62721903D01*
X31058805Y-62674284D01*
X31106424Y-62579046D01*
X31106424Y-62388570D01*
X31058805Y-62293332D01*
X31011186Y-62245713D01*
X30915948Y-62198094D01*
X101607376Y-63769522D02*
X101607376Y-63150475D01*
X101988329Y-63483808D01*
X101988329Y-63340951D01*
X102035948Y-63245713D01*
X102083567Y-63198094D01*
X102178805Y-63150475D01*
X102416900Y-63150475D01*
X102512138Y-63198094D01*
X102559757Y-63245713D01*
X102607376Y-63340951D01*
X102607376Y-63626665D01*
X102559757Y-63721903D01*
X102512138Y-63769522D01*
X102607376Y-62198094D02*
X102607376Y-62769522D01*
X102607376Y-62483808D02*
X101607376Y-62483808D01*
X101750234Y-62579046D01*
X101845472Y-62674284D01*
X101893091Y-62769522D01*
X59427376Y-50990475D02*
X59427376Y-51561903D01*
X59427376Y-51276189D02*
X58427376Y-51276189D01*
X58570234Y-51371427D01*
X58665472Y-51466665D01*
X58713091Y-51561903D01*
X58427376Y-50657141D02*
X58427376Y-50038094D01*
X58808329Y-50371427D01*
X58808329Y-50228570D01*
X58855948Y-50133332D01*
X58903567Y-50085713D01*
X58998805Y-50038094D01*
X59236900Y-50038094D01*
X59332138Y-50085713D01*
X59379757Y-50133332D01*
X59427376Y-50228570D01*
X59427376Y-50514284D01*
X59379757Y-50609522D01*
X59332138Y-50657141D01*
X69587376Y-50990475D02*
X69587376Y-51561903D01*
X69587376Y-51276189D02*
X68587376Y-51276189D01*
X68730234Y-51371427D01*
X68825472Y-51466665D01*
X68873091Y-51561903D01*
X68587376Y-50657141D02*
X68587376Y-49990475D01*
X69587376Y-50419046D01*
X45727376Y-63198094D02*
X45727376Y-63674284D01*
X46203567Y-63721903D01*
X46155948Y-63674284D01*
X46108329Y-63579046D01*
X46108329Y-63340951D01*
X46155948Y-63245713D01*
X46203567Y-63198094D01*
X46298805Y-63150475D01*
X46536900Y-63150475D01*
X46632138Y-63198094D01*
X46679757Y-63245713D01*
X46727376Y-63340951D01*
X46727376Y-63579046D01*
X46679757Y-63674284D01*
X46632138Y-63721903D01*
X45727376Y-62817141D02*
X45727376Y-62198094D01*
X46108329Y-62531427D01*
X46108329Y-62388570D01*
X46155948Y-62293332D01*
X46203567Y-62245713D01*
X46298805Y-62198094D01*
X46536900Y-62198094D01*
X46632138Y-62245713D01*
X46679757Y-62293332D01*
X46727376Y-62388570D01*
X46727376Y-62674284D01*
X46679757Y-62769522D01*
X46632138Y-62817141D01*
X63840710Y-63245713D02*
X64507376Y-63245713D01*
X63459757Y-63483808D02*
X64174043Y-63721903D01*
X64174043Y-63102856D01*
X63507376Y-62293332D02*
X63507376Y-62483808D01*
X63554996Y-62579046D01*
X63602615Y-62626665D01*
X63745472Y-62721903D01*
X63935948Y-62769522D01*
X64316900Y-62769522D01*
X64412138Y-62721903D01*
X64459757Y-62674284D01*
X64507376Y-62579046D01*
X64507376Y-62388570D01*
X64459757Y-62293332D01*
X64412138Y-62245713D01*
X64316900Y-62198094D01*
X64078805Y-62198094D01*
X63983567Y-62245713D01*
X63935948Y-62293332D01*
X63888329Y-62388570D01*
X63888329Y-62579046D01*
X63935948Y-62674284D01*
X63983567Y-62721903D01*
X64078805Y-62769522D01*
X51807376Y-78390475D02*
X51807376Y-78961903D01*
X51807376Y-78676189D02*
X50807376Y-78676189D01*
X50950234Y-78771427D01*
X51045472Y-78866665D01*
X51093091Y-78961903D01*
X50807376Y-77771427D02*
X50807376Y-77676189D01*
X50854996Y-77580951D01*
X50902615Y-77533332D01*
X50997853Y-77485713D01*
X51188329Y-77438094D01*
X51426424Y-77438094D01*
X51616900Y-77485713D01*
X51712138Y-77533332D01*
X51759757Y-77580951D01*
X51807376Y-77676189D01*
X51807376Y-77771427D01*
X51759757Y-77866665D01*
X51712138Y-77914284D01*
X51616900Y-77961903D01*
X51426424Y-78009522D01*
X51188329Y-78009522D01*
X50997853Y-77961903D01*
X50902615Y-77914284D01*
X50854996Y-77866665D01*
X50807376Y-77771427D01*
X78842615Y-78961903D02*
X78794996Y-78914284D01*
X78747376Y-78819046D01*
X78747376Y-78580951D01*
X78794996Y-78485713D01*
X78842615Y-78438094D01*
X78937853Y-78390475D01*
X79033091Y-78390475D01*
X79175948Y-78438094D01*
X79747376Y-79009522D01*
X79747376Y-78390475D01*
X79747376Y-77438094D02*
X79747376Y-78009522D01*
X79747376Y-77723808D02*
X78747376Y-77723808D01*
X78890234Y-77819046D01*
X78985472Y-77914284D01*
X79033091Y-78009522D01*
X35567376Y-25685713D02*
X35567376Y-25876189D01*
X35614996Y-25971427D01*
X35662615Y-26019046D01*
X35805472Y-26114284D01*
X35995948Y-26161903D01*
X36376900Y-26161903D01*
X36472138Y-26114284D01*
X36519757Y-26066665D01*
X36567376Y-25971427D01*
X36567376Y-25780951D01*
X36519757Y-25685713D01*
X36472138Y-25638094D01*
X36376900Y-25590475D01*
X36138805Y-25590475D01*
X36043567Y-25638094D01*
X35995948Y-25685713D01*
X35948329Y-25780951D01*
X35948329Y-25971427D01*
X35995948Y-26066665D01*
X36043567Y-26114284D01*
X36138805Y-26161903D01*
X36567376Y-24638094D02*
X36567376Y-25209522D01*
X36567376Y-24923808D02*
X35567376Y-24923808D01*
X35710234Y-25019046D01*
X35805472Y-25114284D01*
X35853091Y-25209522D01*
X49267376Y-78390475D02*
X49267376Y-78199999D01*
X49219757Y-78104760D01*
X49172138Y-78057141D01*
X49029281Y-77961903D01*
X48838805Y-77914284D01*
X48457853Y-77914284D01*
X48362615Y-77961903D01*
X48314996Y-78009522D01*
X48267376Y-78104760D01*
X48267376Y-78295237D01*
X48314996Y-78390475D01*
X48362615Y-78438094D01*
X48457853Y-78485713D01*
X48695948Y-78485713D01*
X48791186Y-78438094D01*
X48838805Y-78390475D01*
X48886424Y-78295237D01*
X48886424Y-78104760D01*
X48838805Y-78009522D01*
X48791186Y-77961903D01*
X48695948Y-77914284D01*
X88907376Y-64269522D02*
X88907376Y-63650475D01*
X89288329Y-63983808D01*
X89288329Y-63840951D01*
X89335948Y-63745713D01*
X89383567Y-63698094D01*
X89478805Y-63650475D01*
X89716900Y-63650475D01*
X89812138Y-63698094D01*
X89859757Y-63745713D01*
X89907376Y-63840951D01*
X89907376Y-64126665D01*
X89859757Y-64221903D01*
X89812138Y-64269522D01*
X88907376Y-62793332D02*
X88907376Y-62983808D01*
X88954996Y-63079046D01*
X89002615Y-63126665D01*
X89145472Y-63221903D01*
X89335948Y-63269522D01*
X89716900Y-63269522D01*
X89812138Y-63221903D01*
X89859757Y-63174284D01*
X89907376Y-63079046D01*
X89907376Y-62888570D01*
X89859757Y-62793332D01*
X89812138Y-62745713D01*
X89716900Y-62698094D01*
X89478805Y-62698094D01*
X89383567Y-62745713D01*
X89335948Y-62793332D01*
X89288329Y-62888570D01*
X89288329Y-63079046D01*
X89335948Y-63174284D01*
X89383567Y-63221903D01*
X89478805Y-63269522D01*
X88954996Y-61745713D02*
X88907376Y-61840951D01*
X88907376Y-61983808D01*
X88954996Y-62126665D01*
X89050234Y-62221903D01*
X89145472Y-62269522D01*
X89335948Y-62317141D01*
X89478805Y-62317141D01*
X89669281Y-62269522D01*
X89764519Y-62221903D01*
X89859757Y-62126665D01*
X89907376Y-61983808D01*
X89907376Y-61888570D01*
X89859757Y-61745713D01*
X89812138Y-61698094D01*
X89478805Y-61698094D01*
X89478805Y-61888570D01*
X91447376Y-63769522D02*
X91447376Y-63150475D01*
X91828329Y-63483808D01*
X91828329Y-63340951D01*
X91875948Y-63245713D01*
X91923567Y-63198094D01*
X92018805Y-63150475D01*
X92256900Y-63150475D01*
X92352138Y-63198094D01*
X92399757Y-63245713D01*
X92447376Y-63340951D01*
X92447376Y-63626665D01*
X92399757Y-63721903D01*
X92352138Y-63769522D01*
X91447376Y-62245713D02*
X91447376Y-62721903D01*
X91923567Y-62769522D01*
X91875948Y-62721903D01*
X91828329Y-62626665D01*
X91828329Y-62388570D01*
X91875948Y-62293332D01*
X91923567Y-62245713D01*
X92018805Y-62198094D01*
X92256900Y-62198094D01*
X92352138Y-62245713D01*
X92399757Y-62293332D01*
X92447376Y-62388570D01*
X92447376Y-62626665D01*
X92399757Y-62721903D01*
X92352138Y-62769522D01*
X129102615Y-26161903D02*
X129054996Y-26114284D01*
X129007376Y-26019046D01*
X129007376Y-25780951D01*
X129054996Y-25685713D01*
X129102615Y-25638094D01*
X129197853Y-25590475D01*
X129293091Y-25590475D01*
X129435948Y-25638094D01*
X130007376Y-26209522D01*
X130007376Y-25590475D01*
X129102615Y-25209522D02*
X129054996Y-25161903D01*
X129007376Y-25066665D01*
X129007376Y-24828570D01*
X129054996Y-24733332D01*
X129102615Y-24685713D01*
X129197853Y-24638094D01*
X129293091Y-24638094D01*
X129435948Y-24685713D01*
X130007376Y-25257141D01*
X130007376Y-24638094D01*
X91542615Y-78961903D02*
X91494996Y-78914284D01*
X91447376Y-78819046D01*
X91447376Y-78580951D01*
X91494996Y-78485713D01*
X91542615Y-78438094D01*
X91637853Y-78390475D01*
X91733091Y-78390475D01*
X91875948Y-78438094D01*
X92447376Y-79009522D01*
X92447376Y-78390475D01*
X91447376Y-77533332D02*
X91447376Y-77723808D01*
X91494996Y-77819046D01*
X91542615Y-77866665D01*
X91685472Y-77961903D01*
X91875948Y-78009522D01*
X92256900Y-78009522D01*
X92352138Y-77961903D01*
X92399757Y-77914284D01*
X92447376Y-77819046D01*
X92447376Y-77628570D01*
X92399757Y-77533332D01*
X92352138Y-77485713D01*
X92256900Y-77438094D01*
X92018805Y-77438094D01*
X91923567Y-77485713D01*
X91875948Y-77533332D01*
X91828329Y-77628570D01*
X91828329Y-77819046D01*
X91875948Y-77914284D01*
X91923567Y-77961903D01*
X92018805Y-78009522D01*
X33027376Y-63198094D02*
X33027376Y-63674284D01*
X33503567Y-63721903D01*
X33455948Y-63674284D01*
X33408329Y-63579046D01*
X33408329Y-63340951D01*
X33455948Y-63245713D01*
X33503567Y-63198094D01*
X33598805Y-63150475D01*
X33836900Y-63150475D01*
X33932138Y-63198094D01*
X33979757Y-63245713D01*
X34027376Y-63340951D01*
X34027376Y-63579046D01*
X33979757Y-63674284D01*
X33932138Y-63721903D01*
X33455948Y-62579046D02*
X33408329Y-62674284D01*
X33360710Y-62721903D01*
X33265472Y-62769522D01*
X33217853Y-62769522D01*
X33122615Y-62721903D01*
X33074996Y-62674284D01*
X33027376Y-62579046D01*
X33027376Y-62388570D01*
X33074996Y-62293332D01*
X33122615Y-62245713D01*
X33217853Y-62198094D01*
X33265472Y-62198094D01*
X33360710Y-62245713D01*
X33408329Y-62293332D01*
X33455948Y-62388570D01*
X33455948Y-62579046D01*
X33503567Y-62674284D01*
X33551186Y-62721903D01*
X33646424Y-62769522D01*
X33836900Y-62769522D01*
X33932138Y-62721903D01*
X33979757Y-62674284D01*
X34027376Y-62579046D01*
X34027376Y-62388570D01*
X33979757Y-62293332D01*
X33932138Y-62245713D01*
X33836900Y-62198094D01*
X33646424Y-62198094D01*
X33551186Y-62245713D01*
X33503567Y-62293332D01*
X33455948Y-62388570D01*
X83827376Y-63769522D02*
X83827376Y-63150475D01*
X84208329Y-63483808D01*
X84208329Y-63340951D01*
X84255948Y-63245713D01*
X84303567Y-63198094D01*
X84398805Y-63150475D01*
X84636900Y-63150475D01*
X84732138Y-63198094D01*
X84779757Y-63245713D01*
X84827376Y-63340951D01*
X84827376Y-63626665D01*
X84779757Y-63721903D01*
X84732138Y-63769522D01*
X84255948Y-62579046D02*
X84208329Y-62674284D01*
X84160710Y-62721903D01*
X84065472Y-62769522D01*
X84017853Y-62769522D01*
X83922615Y-62721903D01*
X83874996Y-62674284D01*
X83827376Y-62579046D01*
X83827376Y-62388570D01*
X83874996Y-62293332D01*
X83922615Y-62245713D01*
X84017853Y-62198094D01*
X84065472Y-62198094D01*
X84160710Y-62245713D01*
X84208329Y-62293332D01*
X84255948Y-62388570D01*
X84255948Y-62579046D01*
X84303567Y-62674284D01*
X84351186Y-62721903D01*
X84446424Y-62769522D01*
X84636900Y-62769522D01*
X84732138Y-62721903D01*
X84779757Y-62674284D01*
X84827376Y-62579046D01*
X84827376Y-62388570D01*
X84779757Y-62293332D01*
X84732138Y-62245713D01*
X84636900Y-62198094D01*
X84446424Y-62198094D01*
X84351186Y-62245713D01*
X84303567Y-62293332D01*
X84255948Y-62388570D01*
X104177376Y-26209522D02*
X104177376Y-25590475D01*
X104558329Y-25923808D01*
X104558329Y-25780951D01*
X104605948Y-25685713D01*
X104653567Y-25638094D01*
X104748805Y-25590475D01*
X104986900Y-25590475D01*
X105082138Y-25638094D01*
X105129757Y-25685713D01*
X105177376Y-25780951D01*
X105177376Y-26066665D01*
X105129757Y-26161903D01*
X105082138Y-26209522D01*
X104510710Y-24733332D02*
X105177376Y-24733332D01*
X104129757Y-24971427D02*
X104844043Y-25209522D01*
X104844043Y-24590475D01*
X28947376Y-77914284D02*
X28947376Y-78485713D01*
X28947376Y-78199999D02*
X27947376Y-78199999D01*
X28090234Y-78295237D01*
X28185472Y-78390475D01*
X28233091Y-78485713D01*
X28947376Y-50514284D02*
X28947376Y-51085713D01*
X28947376Y-50799999D02*
X27947376Y-50799999D01*
X28090234Y-50895237D01*
X28185472Y-50990475D01*
X28233091Y-51085713D01*
X61967376Y-78390475D02*
X61967376Y-78961903D01*
X61967376Y-78676189D02*
X60967376Y-78676189D01*
X61110234Y-78771427D01*
X61205472Y-78866665D01*
X61253091Y-78961903D01*
X61300710Y-77533332D02*
X61967376Y-77533332D01*
X60919757Y-77771427D02*
X61634043Y-78009522D01*
X61634043Y-77390475D01*
X126467376Y-50609522D02*
X126467376Y-50799999D01*
X126514996Y-50895237D01*
X126562615Y-50942856D01*
X126705472Y-51038094D01*
X126895948Y-51085713D01*
X127276900Y-51085713D01*
X127372138Y-51038094D01*
X127419757Y-50990475D01*
X127467376Y-50895237D01*
X127467376Y-50704760D01*
X127419757Y-50609522D01*
X127372138Y-50561903D01*
X127276900Y-50514284D01*
X127038805Y-50514284D01*
X126943567Y-50561903D01*
X126895948Y-50609522D01*
X126848329Y-50704760D01*
X126848329Y-50895237D01*
X126895948Y-50990475D01*
X126943567Y-51038094D01*
X127038805Y-51085713D01*
X56887376Y-78890475D02*
X56887376Y-79461903D01*
X56887376Y-79176189D02*
X55887376Y-79176189D01*
X56030234Y-79271427D01*
X56125472Y-79366665D01*
X56173091Y-79461903D01*
X55982615Y-78509522D02*
X55934996Y-78461903D01*
X55887376Y-78366665D01*
X55887376Y-78128570D01*
X55934996Y-78033332D01*
X55982615Y-77985713D01*
X56077853Y-77938094D01*
X56173091Y-77938094D01*
X56315948Y-77985713D01*
X56887376Y-78557141D01*
X56887376Y-77938094D01*
X55934996Y-76985713D02*
X55887376Y-77080951D01*
X55887376Y-77223808D01*
X55934996Y-77366665D01*
X56030234Y-77461903D01*
X56125472Y-77509522D01*
X56315948Y-77557141D01*
X56458805Y-77557141D01*
X56649281Y-77509522D01*
X56744519Y-77461903D01*
X56839757Y-77366665D01*
X56887376Y-77223808D01*
X56887376Y-77128570D01*
X56839757Y-76985713D01*
X56792138Y-76938094D01*
X56458805Y-76938094D01*
X56458805Y-77128570D01*
X91542615Y-51561903D02*
X91494996Y-51514284D01*
X91447376Y-51419046D01*
X91447376Y-51180951D01*
X91494996Y-51085713D01*
X91542615Y-51038094D01*
X91637853Y-50990475D01*
X91733091Y-50990475D01*
X91875948Y-51038094D01*
X92447376Y-51609522D01*
X92447376Y-50990475D01*
X91447376Y-50133332D02*
X91447376Y-50323808D01*
X91494996Y-50419046D01*
X91542615Y-50466665D01*
X91685472Y-50561903D01*
X91875948Y-50609522D01*
X92256900Y-50609522D01*
X92352138Y-50561903D01*
X92399757Y-50514284D01*
X92447376Y-50419046D01*
X92447376Y-50228570D01*
X92399757Y-50133332D01*
X92352138Y-50085713D01*
X92256900Y-50038094D01*
X92018805Y-50038094D01*
X91923567Y-50085713D01*
X91875948Y-50133332D01*
X91828329Y-50228570D01*
X91828329Y-50419046D01*
X91875948Y-50514284D01*
X91923567Y-50561903D01*
X92018805Y-50609522D01*
X126562615Y-26161903D02*
X126514996Y-26114284D01*
X126467376Y-26019046D01*
X126467376Y-25780951D01*
X126514996Y-25685713D01*
X126562615Y-25638094D01*
X126657853Y-25590475D01*
X126753091Y-25590475D01*
X126895948Y-25638094D01*
X127467376Y-26209522D01*
X127467376Y-25590475D01*
X127467376Y-24638094D02*
X127467376Y-25209522D01*
X127467376Y-24923808D02*
X126467376Y-24923808D01*
X126610234Y-25019046D01*
X126705472Y-25114284D01*
X126753091Y-25209522D01*
X104177376Y-51609522D02*
X104177376Y-50990475D01*
X104558329Y-51323808D01*
X104558329Y-51180951D01*
X104605948Y-51085713D01*
X104653567Y-51038094D01*
X104748805Y-50990475D01*
X104986900Y-50990475D01*
X105082138Y-51038094D01*
X105129757Y-51085713D01*
X105177376Y-51180951D01*
X105177376Y-51466665D01*
X105129757Y-51561903D01*
X105082138Y-51609522D01*
X105177376Y-50038094D02*
X105177376Y-50609522D01*
X105177376Y-50323808D02*
X104177376Y-50323808D01*
X104320234Y-50419046D01*
X104415472Y-50514284D01*
X104463091Y-50609522D01*
X116402615Y-51085713D02*
X116354996Y-51038094D01*
X116307376Y-50942856D01*
X116307376Y-50704760D01*
X116354996Y-50609522D01*
X116402615Y-50561903D01*
X116497853Y-50514284D01*
X116593091Y-50514284D01*
X116735948Y-50561903D01*
X117307376Y-51133332D01*
X117307376Y-50514284D01*
X86462615Y-78961903D02*
X86414996Y-78914284D01*
X86367376Y-78819046D01*
X86367376Y-78580951D01*
X86414996Y-78485713D01*
X86462615Y-78438094D01*
X86557853Y-78390475D01*
X86653091Y-78390475D01*
X86795948Y-78438094D01*
X87367376Y-79009522D01*
X87367376Y-78390475D01*
X86700710Y-77533332D02*
X87367376Y-77533332D01*
X86319757Y-77771427D02*
X87034043Y-78009522D01*
X87034043Y-77390475D01*
X93987376Y-63769522D02*
X93987376Y-63150475D01*
X94368329Y-63483808D01*
X94368329Y-63340951D01*
X94415948Y-63245713D01*
X94463567Y-63198094D01*
X94558805Y-63150475D01*
X94796900Y-63150475D01*
X94892138Y-63198094D01*
X94939757Y-63245713D01*
X94987376Y-63340951D01*
X94987376Y-63626665D01*
X94939757Y-63721903D01*
X94892138Y-63769522D01*
X94320710Y-62293332D02*
X94987376Y-62293332D01*
X93939757Y-62531427D02*
X94654043Y-62769522D01*
X94654043Y-62150475D01*
X48267376Y-63198094D02*
X48267376Y-63674284D01*
X48743567Y-63721903D01*
X48695948Y-63674284D01*
X48648329Y-63579046D01*
X48648329Y-63340951D01*
X48695948Y-63245713D01*
X48743567Y-63198094D01*
X48838805Y-63150475D01*
X49076900Y-63150475D01*
X49172138Y-63198094D01*
X49219757Y-63245713D01*
X49267376Y-63340951D01*
X49267376Y-63579046D01*
X49219757Y-63674284D01*
X49172138Y-63721903D01*
X48362615Y-62769522D02*
X48314996Y-62721903D01*
X48267376Y-62626665D01*
X48267376Y-62388570D01*
X48314996Y-62293332D01*
X48362615Y-62245713D01*
X48457853Y-62198094D01*
X48553091Y-62198094D01*
X48695948Y-62245713D01*
X49267376Y-62817141D01*
X49267376Y-62198094D01*
X81382615Y-52061903D02*
X81334996Y-52014284D01*
X81287376Y-51919046D01*
X81287376Y-51680951D01*
X81334996Y-51585713D01*
X81382615Y-51538094D01*
X81477853Y-51490475D01*
X81573091Y-51490475D01*
X81715948Y-51538094D01*
X82287376Y-52109522D01*
X82287376Y-51490475D01*
X81382615Y-51109522D02*
X81334996Y-51061903D01*
X81287376Y-50966665D01*
X81287376Y-50728570D01*
X81334996Y-50633332D01*
X81382615Y-50585713D01*
X81477853Y-50538094D01*
X81573091Y-50538094D01*
X81715948Y-50585713D01*
X82287376Y-51157141D01*
X82287376Y-50538094D01*
X81334996Y-49585713D02*
X81287376Y-49680951D01*
X81287376Y-49823808D01*
X81334996Y-49966665D01*
X81430234Y-50061903D01*
X81525472Y-50109522D01*
X81715948Y-50157141D01*
X81858805Y-50157141D01*
X82049281Y-50109522D01*
X82144519Y-50061903D01*
X82239757Y-49966665D01*
X82287376Y-49823808D01*
X82287376Y-49728570D01*
X82239757Y-49585713D01*
X82192138Y-49538094D01*
X81858805Y-49538094D01*
X81858805Y-49728570D01*
X99162615Y-51561903D02*
X99114996Y-51514284D01*
X99067376Y-51419046D01*
X99067376Y-51180951D01*
X99114996Y-51085713D01*
X99162615Y-51038094D01*
X99257853Y-50990475D01*
X99353091Y-50990475D01*
X99495948Y-51038094D01*
X100067376Y-51609522D01*
X100067376Y-50990475D01*
X100067376Y-50514284D02*
X100067376Y-50323808D01*
X100019757Y-50228570D01*
X99972138Y-50180951D01*
X99829281Y-50085713D01*
X99638805Y-50038094D01*
X99257853Y-50038094D01*
X99162615Y-50085713D01*
X99114996Y-50133332D01*
X99067376Y-50228570D01*
X99067376Y-50419046D01*
X99114996Y-50514284D01*
X99162615Y-50561903D01*
X99257853Y-50609522D01*
X99495948Y-50609522D01*
X99591186Y-50561903D01*
X99638805Y-50514284D01*
X99686424Y-50419046D01*
X99686424Y-50228570D01*
X99638805Y-50133332D01*
X99591186Y-50085713D01*
X99495948Y-50038094D01*
X38107376Y-25685713D02*
X38107376Y-25876189D01*
X38154996Y-25971427D01*
X38202615Y-26019046D01*
X38345472Y-26114284D01*
X38535948Y-26161903D01*
X38916900Y-26161903D01*
X39012138Y-26114284D01*
X39059757Y-26066665D01*
X39107376Y-25971427D01*
X39107376Y-25780951D01*
X39059757Y-25685713D01*
X39012138Y-25638094D01*
X38916900Y-25590475D01*
X38678805Y-25590475D01*
X38583567Y-25638094D01*
X38535948Y-25685713D01*
X38488329Y-25780951D01*
X38488329Y-25971427D01*
X38535948Y-26066665D01*
X38583567Y-26114284D01*
X38678805Y-26161903D01*
X38107376Y-24971427D02*
X38107376Y-24876189D01*
X38154996Y-24780951D01*
X38202615Y-24733332D01*
X38297853Y-24685713D01*
X38488329Y-24638094D01*
X38726424Y-24638094D01*
X38916900Y-24685713D01*
X39012138Y-24733332D01*
X39059757Y-24780951D01*
X39107376Y-24876189D01*
X39107376Y-24971427D01*
X39059757Y-25066665D01*
X39012138Y-25114284D01*
X38916900Y-25161903D01*
X38726424Y-25209522D01*
X38488329Y-25209522D01*
X38297853Y-25161903D01*
X38202615Y-25114284D01*
X38154996Y-25066665D01*
X38107376Y-24971427D01*
X53347376Y-63198094D02*
X53347376Y-63674284D01*
X53823567Y-63721903D01*
X53775948Y-63674284D01*
X53728329Y-63579046D01*
X53728329Y-63340951D01*
X53775948Y-63245713D01*
X53823567Y-63198094D01*
X53918805Y-63150475D01*
X54156900Y-63150475D01*
X54252138Y-63198094D01*
X54299757Y-63245713D01*
X54347376Y-63340951D01*
X54347376Y-63579046D01*
X54299757Y-63674284D01*
X54252138Y-63721903D01*
X53347376Y-62531427D02*
X53347376Y-62436189D01*
X53394996Y-62340951D01*
X53442615Y-62293332D01*
X53537853Y-62245713D01*
X53728329Y-62198094D01*
X53966424Y-62198094D01*
X54156900Y-62245713D01*
X54252138Y-62293332D01*
X54299757Y-62340951D01*
X54347376Y-62436189D01*
X54347376Y-62531427D01*
X54299757Y-62626665D01*
X54252138Y-62674284D01*
X54156900Y-62721903D01*
X53966424Y-62769522D01*
X53728329Y-62769522D01*
X53537853Y-62721903D01*
X53442615Y-62674284D01*
X53394996Y-62626665D01*
X53347376Y-62531427D01*
X141500713Y-67419522D02*
X142167379Y-67419522D01*
X141119760Y-67657618D02*
X141834046Y-67895713D01*
X141834046Y-67276665D01*
X67047376Y-50990475D02*
X67047376Y-51561903D01*
X67047376Y-51276189D02*
X66047376Y-51276189D01*
X66190234Y-51371427D01*
X66285472Y-51466665D01*
X66333091Y-51561903D01*
X66047376Y-50133332D02*
X66047376Y-50323808D01*
X66094996Y-50419046D01*
X66142615Y-50466665D01*
X66285472Y-50561903D01*
X66475948Y-50609522D01*
X66856900Y-50609522D01*
X66952138Y-50561903D01*
X66999757Y-50514284D01*
X67047376Y-50419046D01*
X67047376Y-50228570D01*
X66999757Y-50133332D01*
X66952138Y-50085713D01*
X66856900Y-50038094D01*
X66618805Y-50038094D01*
X66523567Y-50085713D01*
X66475948Y-50133332D01*
X66428329Y-50228570D01*
X66428329Y-50419046D01*
X66475948Y-50514284D01*
X66523567Y-50561903D01*
X66618805Y-50609522D01*
X118847376Y-51133332D02*
X118847376Y-50514284D01*
X119228329Y-50847618D01*
X119228329Y-50704760D01*
X119275948Y-50609522D01*
X119323567Y-50561903D01*
X119418805Y-50514284D01*
X119656900Y-50514284D01*
X119752138Y-50561903D01*
X119799757Y-50609522D01*
X119847376Y-50704760D01*
X119847376Y-50990475D01*
X119799757Y-51085713D01*
X119752138Y-51133332D01*
X121720710Y-50609522D02*
X122387376Y-50609522D01*
X121339757Y-50847618D02*
X122054043Y-51085713D01*
X122054043Y-50466665D01*
X43187376Y-25638094D02*
X43187376Y-26114284D01*
X43663567Y-26161903D01*
X43615948Y-26114284D01*
X43568329Y-26019046D01*
X43568329Y-25780951D01*
X43615948Y-25685713D01*
X43663567Y-25638094D01*
X43758805Y-25590475D01*
X43996900Y-25590475D01*
X44092138Y-25638094D01*
X44139757Y-25685713D01*
X44187376Y-25780951D01*
X44187376Y-26019046D01*
X44139757Y-26114284D01*
X44092138Y-26161903D01*
X43615948Y-25019046D02*
X43568329Y-25114284D01*
X43520710Y-25161903D01*
X43425472Y-25209522D01*
X43377853Y-25209522D01*
X43282615Y-25161903D01*
X43234996Y-25114284D01*
X43187376Y-25019046D01*
X43187376Y-24828570D01*
X43234996Y-24733332D01*
X43282615Y-24685713D01*
X43377853Y-24638094D01*
X43425472Y-24638094D01*
X43520710Y-24685713D01*
X43568329Y-24733332D01*
X43615948Y-24828570D01*
X43615948Y-25019046D01*
X43663567Y-25114284D01*
X43711186Y-25161903D01*
X43806424Y-25209522D01*
X43996900Y-25209522D01*
X44092138Y-25161903D01*
X44139757Y-25114284D01*
X44187376Y-25019046D01*
X44187376Y-24828570D01*
X44139757Y-24733332D01*
X44092138Y-24685713D01*
X43996900Y-24638094D01*
X43806424Y-24638094D01*
X43711186Y-24685713D01*
X43663567Y-24733332D01*
X43615948Y-24828570D01*
X134182615Y-26161903D02*
X134134996Y-26114284D01*
X134087376Y-26019046D01*
X134087376Y-25780951D01*
X134134996Y-25685713D01*
X134182615Y-25638094D01*
X134277853Y-25590475D01*
X134373091Y-25590475D01*
X134515948Y-25638094D01*
X135087376Y-26209522D01*
X135087376Y-25590475D01*
X134420710Y-24733332D02*
X135087376Y-24733332D01*
X134039757Y-24971427D02*
X134754043Y-25209522D01*
X134754043Y-24590475D01*
X43187376Y-63198094D02*
X43187376Y-63674284D01*
X43663567Y-63721903D01*
X43615948Y-63674284D01*
X43568329Y-63579046D01*
X43568329Y-63340951D01*
X43615948Y-63245713D01*
X43663567Y-63198094D01*
X43758805Y-63150475D01*
X43996900Y-63150475D01*
X44092138Y-63198094D01*
X44139757Y-63245713D01*
X44187376Y-63340951D01*
X44187376Y-63579046D01*
X44139757Y-63674284D01*
X44092138Y-63721903D01*
X43520710Y-62293332D02*
X44187376Y-62293332D01*
X43139757Y-62531427D02*
X43854043Y-62769522D01*
X43854043Y-62150475D01*
X122417377Y-63745713D02*
X121417377Y-63745713D01*
X122417377Y-63174284D01*
X121417377Y-63174284D01*
X122322139Y-62126665D02*
X122369758Y-62174284D01*
X122417377Y-62317141D01*
X122417377Y-62412379D01*
X122369758Y-62555237D01*
X122274520Y-62650475D01*
X122179282Y-62698094D01*
X121988806Y-62745713D01*
X121845949Y-62745713D01*
X121655473Y-62698094D01*
X121560235Y-62650475D01*
X121464997Y-62555237D01*
X121417377Y-62412379D01*
X121417377Y-62317141D01*
X121464997Y-62174284D01*
X121512616Y-62126665D01*
X131975948Y-50895237D02*
X131928329Y-50990475D01*
X131880710Y-51038094D01*
X131785472Y-51085713D01*
X131737853Y-51085713D01*
X131642615Y-51038094D01*
X131594996Y-50990475D01*
X131547376Y-50895237D01*
X131547376Y-50704760D01*
X131594996Y-50609522D01*
X131642615Y-50561903D01*
X131737853Y-50514284D01*
X131785472Y-50514284D01*
X131880710Y-50561903D01*
X131928329Y-50609522D01*
X131975948Y-50704760D01*
X131975948Y-50895237D01*
X132023567Y-50990475D01*
X132071186Y-51038094D01*
X132166424Y-51085713D01*
X132356900Y-51085713D01*
X132452138Y-51038094D01*
X132499757Y-50990475D01*
X132547376Y-50895237D01*
X132547376Y-50704760D01*
X132499757Y-50609522D01*
X132452138Y-50561903D01*
X132356900Y-50514284D01*
X132166424Y-50514284D01*
X132071186Y-50561903D01*
X132023567Y-50609522D01*
X131975948Y-50704760D01*
X38107376Y-50561903D02*
X38107376Y-51038094D01*
X38583567Y-51085713D01*
X38535948Y-51038094D01*
X38488329Y-50942856D01*
X38488329Y-50704760D01*
X38535948Y-50609522D01*
X38583567Y-50561903D01*
X38678805Y-50514284D01*
X38916900Y-50514284D01*
X39012138Y-50561903D01*
X39059757Y-50609522D01*
X39107376Y-50704760D01*
X39107376Y-50942856D01*
X39059757Y-51038094D01*
X39012138Y-51085713D01*
X119782139Y-80430475D02*
X119829758Y-80478094D01*
X119877377Y-80620951D01*
X119877377Y-80716189D01*
X119829758Y-80859046D01*
X119734520Y-80954284D01*
X119639282Y-81001903D01*
X119448806Y-81049522D01*
X119305949Y-81049522D01*
X119115473Y-81001903D01*
X119020235Y-80954284D01*
X118924997Y-80859046D01*
X118877377Y-80716189D01*
X118877377Y-80620951D01*
X118924997Y-80478094D01*
X118972616Y-80430475D01*
X136722615Y-26161903D02*
X136674996Y-26114284D01*
X136627376Y-26019046D01*
X136627376Y-25780951D01*
X136674996Y-25685713D01*
X136722615Y-25638094D01*
X136817853Y-25590475D01*
X136913091Y-25590475D01*
X137055948Y-25638094D01*
X137627376Y-26209522D01*
X137627376Y-25590475D01*
X136627376Y-24685713D02*
X136627376Y-25161903D01*
X137103567Y-25209522D01*
X137055948Y-25161903D01*
X137008329Y-25066665D01*
X137008329Y-24828570D01*
X137055948Y-24733332D01*
X137103567Y-24685713D01*
X137198805Y-24638094D01*
X137436900Y-24638094D01*
X137532138Y-24685713D01*
X137579757Y-24733332D01*
X137627376Y-24828570D01*
X137627376Y-25066665D01*
X137579757Y-25161903D01*
X137532138Y-25209522D01*
X124957377Y-63745713D02*
X123957377Y-63745713D01*
X124957377Y-63174284D01*
X123957377Y-63174284D01*
X124862139Y-62126665D02*
X124909758Y-62174284D01*
X124957377Y-62317141D01*
X124957377Y-62412379D01*
X124909758Y-62555237D01*
X124814520Y-62650475D01*
X124719282Y-62698094D01*
X124528806Y-62745713D01*
X124385949Y-62745713D01*
X124195473Y-62698094D01*
X124100235Y-62650475D01*
X124004997Y-62555237D01*
X123957377Y-62412379D01*
X123957377Y-62317141D01*
X124004997Y-62174284D01*
X124052616Y-62126665D01*
X89240710Y-25685713D02*
X89907376Y-25685713D01*
X88859757Y-25923808D02*
X89574043Y-26161903D01*
X89574043Y-25542856D01*
X88907376Y-24971427D02*
X88907376Y-24876189D01*
X88954996Y-24780951D01*
X89002615Y-24733332D01*
X89097853Y-24685713D01*
X89288329Y-24638094D01*
X89526424Y-24638094D01*
X89716900Y-24685713D01*
X89812138Y-24733332D01*
X89859757Y-24780951D01*
X89907376Y-24876189D01*
X89907376Y-24971427D01*
X89859757Y-25066665D01*
X89812138Y-25114284D01*
X89716900Y-25161903D01*
X89526424Y-25209522D01*
X89288329Y-25209522D01*
X89097853Y-25161903D01*
X89002615Y-25114284D01*
X88954996Y-25066665D01*
X88907376Y-24971427D01*
X67047376Y-78390475D02*
X67047376Y-78961903D01*
X67047376Y-78676189D02*
X66047376Y-78676189D01*
X66190234Y-78771427D01*
X66285472Y-78866665D01*
X66333091Y-78961903D01*
X66047376Y-77533332D02*
X66047376Y-77723808D01*
X66094996Y-77819046D01*
X66142615Y-77866665D01*
X66285472Y-77961903D01*
X66475948Y-78009522D01*
X66856900Y-78009522D01*
X66952138Y-77961903D01*
X66999757Y-77914284D01*
X67047376Y-77819046D01*
X67047376Y-77628570D01*
X66999757Y-77533332D01*
X66952138Y-77485713D01*
X66856900Y-77438094D01*
X66618805Y-77438094D01*
X66523567Y-77485713D01*
X66475948Y-77533332D01*
X66428329Y-77628570D01*
X66428329Y-77819046D01*
X66475948Y-77914284D01*
X66523567Y-77961903D01*
X66618805Y-78009522D01*
X50807376Y-63198094D02*
X50807376Y-63674284D01*
X51283567Y-63721903D01*
X51235948Y-63674284D01*
X51188329Y-63579046D01*
X51188329Y-63340951D01*
X51235948Y-63245713D01*
X51283567Y-63198094D01*
X51378805Y-63150475D01*
X51616900Y-63150475D01*
X51712138Y-63198094D01*
X51759757Y-63245713D01*
X51807376Y-63340951D01*
X51807376Y-63579046D01*
X51759757Y-63674284D01*
X51712138Y-63721903D01*
X51807376Y-62198094D02*
X51807376Y-62769522D01*
X51807376Y-62483808D02*
X50807376Y-62483808D01*
X50950234Y-62579046D01*
X51045472Y-62674284D01*
X51093091Y-62769522D01*
X99067376Y-63769522D02*
X99067376Y-63150475D01*
X99448329Y-63483808D01*
X99448329Y-63340951D01*
X99495948Y-63245713D01*
X99543567Y-63198094D01*
X99638805Y-63150475D01*
X99876900Y-63150475D01*
X99972138Y-63198094D01*
X100019757Y-63245713D01*
X100067376Y-63340951D01*
X100067376Y-63626665D01*
X100019757Y-63721903D01*
X99972138Y-63769522D01*
X99162615Y-62769522D02*
X99114996Y-62721903D01*
X99067376Y-62626665D01*
X99067376Y-62388570D01*
X99114996Y-62293332D01*
X99162615Y-62245713D01*
X99257853Y-62198094D01*
X99353091Y-62198094D01*
X99495948Y-62245713D01*
X100067376Y-62817141D01*
X100067376Y-62198094D01*
X130007376Y-51585713D02*
X129007376Y-51585713D01*
X130007376Y-51014284D01*
X129007376Y-51014284D01*
X129912138Y-49966665D02*
X129959757Y-50014284D01*
X130007376Y-50157141D01*
X130007376Y-50252379D01*
X129959757Y-50395237D01*
X129864519Y-50490475D01*
X129769281Y-50538094D01*
X129578805Y-50585713D01*
X129435948Y-50585713D01*
X129245472Y-50538094D01*
X129150234Y-50490475D01*
X129054996Y-50395237D01*
X129007376Y-50252379D01*
X129007376Y-50157141D01*
X129054996Y-50014284D01*
X129102615Y-49966665D01*
X81287376Y-63769522D02*
X81287376Y-63150475D01*
X81668329Y-63483808D01*
X81668329Y-63340951D01*
X81715948Y-63245713D01*
X81763567Y-63198094D01*
X81858805Y-63150475D01*
X82096900Y-63150475D01*
X82192138Y-63198094D01*
X82239757Y-63245713D01*
X82287376Y-63340951D01*
X82287376Y-63626665D01*
X82239757Y-63721903D01*
X82192138Y-63769522D01*
X82287376Y-62674284D02*
X82287376Y-62483808D01*
X82239757Y-62388570D01*
X82192138Y-62340951D01*
X82049281Y-62245713D01*
X81858805Y-62198094D01*
X81477853Y-62198094D01*
X81382615Y-62245713D01*
X81334996Y-62293332D01*
X81287376Y-62388570D01*
X81287376Y-62579046D01*
X81334996Y-62674284D01*
X81382615Y-62721903D01*
X81477853Y-62769522D01*
X81715948Y-62769522D01*
X81811186Y-62721903D01*
X81858805Y-62674284D01*
X81906424Y-62579046D01*
X81906424Y-62388570D01*
X81858805Y-62293332D01*
X81811186Y-62245713D01*
X81715948Y-62198094D01*
X106717376Y-51609522D02*
X106717376Y-50990475D01*
X107098329Y-51323808D01*
X107098329Y-51180951D01*
X107145948Y-51085713D01*
X107193567Y-51038094D01*
X107288805Y-50990475D01*
X107526900Y-50990475D01*
X107622138Y-51038094D01*
X107669757Y-51085713D01*
X107717376Y-51180951D01*
X107717376Y-51466665D01*
X107669757Y-51561903D01*
X107622138Y-51609522D01*
X106812615Y-50609522D02*
X106764996Y-50561903D01*
X106717376Y-50466665D01*
X106717376Y-50228570D01*
X106764996Y-50133332D01*
X106812615Y-50085713D01*
X106907853Y-50038094D01*
X107003091Y-50038094D01*
X107145948Y-50085713D01*
X107717376Y-50657141D01*
X107717376Y-50038094D01*
X86700710Y-25685713D02*
X87367376Y-25685713D01*
X86319757Y-25923808D02*
X87034043Y-26161903D01*
X87034043Y-25542856D01*
X87367376Y-24638094D02*
X87367376Y-25209522D01*
X87367376Y-24923808D02*
X86367376Y-24923808D01*
X86510234Y-25019046D01*
X86605472Y-25114284D01*
X86653091Y-25209522D01*
X114767376Y-51014284D02*
X114767376Y-51585713D01*
X114767376Y-51299999D02*
X113767376Y-51299999D01*
X113910234Y-51395237D01*
X114005472Y-51490475D01*
X114053091Y-51585713D01*
X113814996Y-50061903D02*
X113767376Y-50157141D01*
X113767376Y-50299999D01*
X113814996Y-50442856D01*
X113910234Y-50538094D01*
X114005472Y-50585713D01*
X114195948Y-50633332D01*
X114338805Y-50633332D01*
X114529281Y-50585713D01*
X114624519Y-50538094D01*
X114719757Y-50442856D01*
X114767376Y-50299999D01*
X114767376Y-50204760D01*
X114719757Y-50061903D01*
X114672138Y-50014284D01*
X114338805Y-50014284D01*
X114338805Y-50204760D01*
X83922615Y-51561903D02*
X83874996Y-51514284D01*
X83827376Y-51419046D01*
X83827376Y-51180951D01*
X83874996Y-51085713D01*
X83922615Y-51038094D01*
X84017853Y-50990475D01*
X84113091Y-50990475D01*
X84255948Y-51038094D01*
X84827376Y-51609522D01*
X84827376Y-50990475D01*
X83827376Y-50657141D02*
X83827376Y-50038094D01*
X84208329Y-50371427D01*
X84208329Y-50228570D01*
X84255948Y-50133332D01*
X84303567Y-50085713D01*
X84398805Y-50038094D01*
X84636900Y-50038094D01*
X84732138Y-50085713D01*
X84779757Y-50133332D01*
X84827376Y-50228570D01*
X84827376Y-50514284D01*
X84779757Y-50609522D01*
X84732138Y-50657141D01*
X76540710Y-25685713D02*
X77207376Y-25685713D01*
X76159757Y-25923808D02*
X76874043Y-26161903D01*
X76874043Y-25542856D01*
X76207376Y-24685713D02*
X76207376Y-25161903D01*
X76683567Y-25209522D01*
X76635948Y-25161903D01*
X76588329Y-25066665D01*
X76588329Y-24828570D01*
X76635948Y-24733332D01*
X76683567Y-24685713D01*
X76778805Y-24638094D01*
X77016900Y-24638094D01*
X77112138Y-24685713D01*
X77159757Y-24733332D01*
X77207376Y-24828570D01*
X77207376Y-25066665D01*
X77159757Y-25161903D01*
X77112138Y-25209522D01*
X86367376Y-63769522D02*
X86367376Y-63150475D01*
X86748329Y-63483808D01*
X86748329Y-63340951D01*
X86795948Y-63245713D01*
X86843567Y-63198094D01*
X86938805Y-63150475D01*
X87176900Y-63150475D01*
X87272138Y-63198094D01*
X87319757Y-63245713D01*
X87367376Y-63340951D01*
X87367376Y-63626665D01*
X87319757Y-63721903D01*
X87272138Y-63769522D01*
X86367376Y-62817141D02*
X86367376Y-62150475D01*
X87367376Y-62579046D01*
X124022615Y-26161903D02*
X123974996Y-26114284D01*
X123927376Y-26019046D01*
X123927376Y-25780951D01*
X123974996Y-25685713D01*
X124022615Y-25638094D01*
X124117853Y-25590475D01*
X124213091Y-25590475D01*
X124355948Y-25638094D01*
X124927376Y-26209522D01*
X124927376Y-25590475D01*
X123927376Y-24971427D02*
X123927376Y-24876189D01*
X123974996Y-24780951D01*
X124022615Y-24733332D01*
X124117853Y-24685713D01*
X124308329Y-24638094D01*
X124546424Y-24638094D01*
X124736900Y-24685713D01*
X124832138Y-24733332D01*
X124879757Y-24780951D01*
X124927376Y-24876189D01*
X124927376Y-24971427D01*
X124879757Y-25066665D01*
X124832138Y-25114284D01*
X124736900Y-25161903D01*
X124546424Y-25209522D01*
X124308329Y-25209522D01*
X124117853Y-25161903D01*
X124022615Y-25114284D01*
X123974996Y-25066665D01*
X123927376Y-24971427D01*
X40647376Y-63698094D02*
X40647376Y-64174284D01*
X41123567Y-64221903D01*
X41075948Y-64174284D01*
X41028329Y-64079046D01*
X41028329Y-63840951D01*
X41075948Y-63745713D01*
X41123567Y-63698094D01*
X41218805Y-63650475D01*
X41456900Y-63650475D01*
X41552138Y-63698094D01*
X41599757Y-63745713D01*
X41647376Y-63840951D01*
X41647376Y-64079046D01*
X41599757Y-64174284D01*
X41552138Y-64221903D01*
X40647376Y-62745713D02*
X40647376Y-63221903D01*
X41123567Y-63269522D01*
X41075948Y-63221903D01*
X41028329Y-63126665D01*
X41028329Y-62888570D01*
X41075948Y-62793332D01*
X41123567Y-62745713D01*
X41218805Y-62698094D01*
X41456900Y-62698094D01*
X41552138Y-62745713D01*
X41599757Y-62793332D01*
X41647376Y-62888570D01*
X41647376Y-63126665D01*
X41599757Y-63221903D01*
X41552138Y-63269522D01*
X40694996Y-61745713D02*
X40647376Y-61840951D01*
X40647376Y-61983808D01*
X40694996Y-62126665D01*
X40790234Y-62221903D01*
X40885472Y-62269522D01*
X41075948Y-62317141D01*
X41218805Y-62317141D01*
X41409281Y-62269522D01*
X41504519Y-62221903D01*
X41599757Y-62126665D01*
X41647376Y-61983808D01*
X41647376Y-61888570D01*
X41599757Y-61745713D01*
X41552138Y-61698094D01*
X41218805Y-61698094D01*
X41218805Y-61888570D01*
X64507376Y-78390475D02*
X64507376Y-78961903D01*
X64507376Y-78676189D02*
X63507376Y-78676189D01*
X63650234Y-78771427D01*
X63745472Y-78866665D01*
X63793091Y-78961903D01*
X63507376Y-77485713D02*
X63507376Y-77961903D01*
X63983567Y-78009522D01*
X63935948Y-77961903D01*
X63888329Y-77866665D01*
X63888329Y-77628570D01*
X63935948Y-77533332D01*
X63983567Y-77485713D01*
X64078805Y-77438094D01*
X64316900Y-77438094D01*
X64412138Y-77485713D01*
X64459757Y-77533332D01*
X64507376Y-77628570D01*
X64507376Y-77866665D01*
X64459757Y-77961903D01*
X64412138Y-78009522D01*
X101607376Y-26209522D02*
X101607376Y-25590475D01*
X101988329Y-25923808D01*
X101988329Y-25780951D01*
X102035948Y-25685713D01*
X102083567Y-25638094D01*
X102178805Y-25590475D01*
X102416900Y-25590475D01*
X102512138Y-25638094D01*
X102559757Y-25685713D01*
X102607376Y-25780951D01*
X102607376Y-26066665D01*
X102559757Y-26161903D01*
X102512138Y-26209522D01*
X101607376Y-24685713D02*
X101607376Y-25161903D01*
X102083567Y-25209522D01*
X102035948Y-25161903D01*
X101988329Y-25066665D01*
X101988329Y-24828570D01*
X102035948Y-24733332D01*
X102083567Y-24685713D01*
X102178805Y-24638094D01*
X102416900Y-24638094D01*
X102512138Y-24685713D01*
X102559757Y-24733332D01*
X102607376Y-24828570D01*
X102607376Y-25066665D01*
X102559757Y-25161903D01*
X102512138Y-25209522D01*
X35900710Y-78009522D02*
X36567376Y-78009522D01*
X35519757Y-78247618D02*
X36234043Y-78485713D01*
X36234043Y-77866665D01*
X124671663Y-80978094D02*
X124671663Y-80501903D01*
X124957377Y-81073332D02*
X123957377Y-80739999D01*
X124957377Y-80406665D01*
X27947376Y-63245713D02*
X27947376Y-63436189D01*
X27994996Y-63531427D01*
X28042615Y-63579046D01*
X28185472Y-63674284D01*
X28375948Y-63721903D01*
X28756900Y-63721903D01*
X28852138Y-63674284D01*
X28899757Y-63626665D01*
X28947376Y-63531427D01*
X28947376Y-63340951D01*
X28899757Y-63245713D01*
X28852138Y-63198094D01*
X28756900Y-63150475D01*
X28518805Y-63150475D01*
X28423567Y-63198094D01*
X28375948Y-63245713D01*
X28328329Y-63340951D01*
X28328329Y-63531427D01*
X28375948Y-63626665D01*
X28423567Y-63674284D01*
X28518805Y-63721903D01*
X27947376Y-62531427D02*
X27947376Y-62436189D01*
X27994996Y-62340951D01*
X28042615Y-62293332D01*
X28137853Y-62245713D01*
X28328329Y-62198094D01*
X28566424Y-62198094D01*
X28756900Y-62245713D01*
X28852138Y-62293332D01*
X28899757Y-62340951D01*
X28947376Y-62436189D01*
X28947376Y-62531427D01*
X28899757Y-62626665D01*
X28852138Y-62674284D01*
X28756900Y-62721903D01*
X28566424Y-62769522D01*
X28328329Y-62769522D01*
X28137853Y-62721903D01*
X28042615Y-62674284D01*
X27994996Y-62626665D01*
X27947376Y-62531427D01*
X129132616Y-63245713D02*
X129084997Y-63198094D01*
X129037377Y-63102856D01*
X129037377Y-62864760D01*
X129084997Y-62769522D01*
X129132616Y-62721903D01*
X129227854Y-62674284D01*
X129323092Y-62674284D01*
X129465949Y-62721903D01*
X130037377Y-63293332D01*
X130037377Y-62674284D01*
X66380710Y-25685713D02*
X67047376Y-25685713D01*
X65999757Y-25923808D02*
X66714043Y-26161903D01*
X66714043Y-25542856D01*
X67047376Y-25114284D02*
X67047376Y-24923808D01*
X66999757Y-24828570D01*
X66952138Y-24780951D01*
X66809281Y-24685713D01*
X66618805Y-24638094D01*
X66237853Y-24638094D01*
X66142615Y-24685713D01*
X66094996Y-24733332D01*
X66047376Y-24828570D01*
X66047376Y-25019046D01*
X66094996Y-25114284D01*
X66142615Y-25161903D01*
X66237853Y-25209522D01*
X66475948Y-25209522D01*
X66571186Y-25161903D01*
X66618805Y-25114284D01*
X66666424Y-25019046D01*
X66666424Y-24828570D01*
X66618805Y-24733332D01*
X66571186Y-24685713D01*
X66475948Y-24638094D01*
X55887376Y-26138094D02*
X55887376Y-26614284D01*
X56363567Y-26661903D01*
X56315948Y-26614284D01*
X56268329Y-26519046D01*
X56268329Y-26280951D01*
X56315948Y-26185713D01*
X56363567Y-26138094D01*
X56458805Y-26090475D01*
X56696900Y-26090475D01*
X56792138Y-26138094D01*
X56839757Y-26185713D01*
X56887376Y-26280951D01*
X56887376Y-26519046D01*
X56839757Y-26614284D01*
X56792138Y-26661903D01*
X55887376Y-25757141D02*
X55887376Y-25138094D01*
X56268329Y-25471427D01*
X56268329Y-25328570D01*
X56315948Y-25233332D01*
X56363567Y-25185713D01*
X56458805Y-25138094D01*
X56696900Y-25138094D01*
X56792138Y-25185713D01*
X56839757Y-25233332D01*
X56887376Y-25328570D01*
X56887376Y-25614284D01*
X56839757Y-25709522D01*
X56792138Y-25757141D01*
X55934996Y-24185713D02*
X55887376Y-24280951D01*
X55887376Y-24423808D01*
X55934996Y-24566665D01*
X56030234Y-24661903D01*
X56125472Y-24709522D01*
X56315948Y-24757141D01*
X56458805Y-24757141D01*
X56649281Y-24709522D01*
X56744519Y-24661903D01*
X56839757Y-24566665D01*
X56887376Y-24423808D01*
X56887376Y-24328570D01*
X56839757Y-24185713D01*
X56792138Y-24138094D01*
X56458805Y-24138094D01*
X56458805Y-24328570D01*
X91447376Y-26209522D02*
X91447376Y-25590475D01*
X91828329Y-25923808D01*
X91828329Y-25780951D01*
X91875948Y-25685713D01*
X91923567Y-25638094D01*
X92018805Y-25590475D01*
X92256900Y-25590475D01*
X92352138Y-25638094D01*
X92399757Y-25685713D01*
X92447376Y-25780951D01*
X92447376Y-26066665D01*
X92399757Y-26161903D01*
X92352138Y-26209522D01*
X92447376Y-25114284D02*
X92447376Y-24923808D01*
X92399757Y-24828570D01*
X92352138Y-24780951D01*
X92209281Y-24685713D01*
X92018805Y-24638094D01*
X91637853Y-24638094D01*
X91542615Y-24685713D01*
X91494996Y-24733332D01*
X91447376Y-24828570D01*
X91447376Y-25019046D01*
X91494996Y-25114284D01*
X91542615Y-25161903D01*
X91637853Y-25209522D01*
X91875948Y-25209522D01*
X91971186Y-25161903D01*
X92018805Y-25114284D01*
X92066424Y-25019046D01*
X92066424Y-24828570D01*
X92018805Y-24733332D01*
X91971186Y-24685713D01*
X91875948Y-24638094D01*
X143707379Y-67943332D02*
X143707379Y-67324284D01*
X144088332Y-67657618D01*
X144088332Y-67514760D01*
X144135951Y-67419522D01*
X144183570Y-67371903D01*
X144278808Y-67324284D01*
X144516903Y-67324284D01*
X144612141Y-67371903D01*
X144659760Y-67419522D01*
X144707379Y-67514760D01*
X144707379Y-67800475D01*
X144659760Y-67895713D01*
X144612141Y-67943332D01*
X56220710Y-63245713D02*
X56887376Y-63245713D01*
X55839757Y-63483808D02*
X56554043Y-63721903D01*
X56554043Y-63102856D01*
X56887376Y-62674284D02*
X56887376Y-62483808D01*
X56839757Y-62388570D01*
X56792138Y-62340951D01*
X56649281Y-62245713D01*
X56458805Y-62198094D01*
X56077853Y-62198094D01*
X55982615Y-62245713D01*
X55934996Y-62293332D01*
X55887376Y-62388570D01*
X55887376Y-62579046D01*
X55934996Y-62674284D01*
X55982615Y-62721903D01*
X56077853Y-62769522D01*
X56315948Y-62769522D01*
X56411186Y-62721903D01*
X56458805Y-62674284D01*
X56506424Y-62579046D01*
X56506424Y-62388570D01*
X56458805Y-62293332D01*
X56411186Y-62245713D01*
X56315948Y-62198094D01*
X61300710Y-63245713D02*
X61967376Y-63245713D01*
X60919757Y-63483808D02*
X61634043Y-63721903D01*
X61634043Y-63102856D01*
X60967376Y-62817141D02*
X60967376Y-62150475D01*
X61967376Y-62579046D01*
X81382615Y-78961903D02*
X81334996Y-78914284D01*
X81287376Y-78819046D01*
X81287376Y-78580951D01*
X81334996Y-78485713D01*
X81382615Y-78438094D01*
X81477853Y-78390475D01*
X81573091Y-78390475D01*
X81715948Y-78438094D01*
X82287376Y-79009522D01*
X82287376Y-78390475D01*
X81382615Y-78009522D02*
X81334996Y-77961903D01*
X81287376Y-77866665D01*
X81287376Y-77628570D01*
X81334996Y-77533332D01*
X81382615Y-77485713D01*
X81477853Y-77438094D01*
X81573091Y-77438094D01*
X81715948Y-77485713D01*
X82287376Y-78057141D01*
X82287376Y-77438094D01*
X135087376Y-50990475D02*
X135087376Y-50799999D01*
X135039757Y-50704760D01*
X134992138Y-50657141D01*
X134849281Y-50561903D01*
X134658805Y-50514284D01*
X134277853Y-50514284D01*
X134182615Y-50561903D01*
X134134996Y-50609522D01*
X134087376Y-50704760D01*
X134087376Y-50895237D01*
X134134996Y-50990475D01*
X134182615Y-51038094D01*
X134277853Y-51085713D01*
X134515948Y-51085713D01*
X134611186Y-51038094D01*
X134658805Y-50990475D01*
X134706424Y-50895237D01*
X134706424Y-50704760D01*
X134658805Y-50609522D01*
X134611186Y-50561903D01*
X134515948Y-50514284D01*
X71460710Y-63245713D02*
X72127376Y-63245713D01*
X71079757Y-63483808D02*
X71794043Y-63721903D01*
X71794043Y-63102856D01*
X71127376Y-62817141D02*
X71127376Y-62198094D01*
X71508329Y-62531427D01*
X71508329Y-62388570D01*
X71555948Y-62293332D01*
X71603567Y-62245713D01*
X71698805Y-62198094D01*
X71936900Y-62198094D01*
X72032138Y-62245713D01*
X72079757Y-62293332D01*
X72127376Y-62388570D01*
X72127376Y-62674284D01*
X72079757Y-62769522D01*
X72032138Y-62817141D01*
X117307376Y-25590475D02*
X117307376Y-26161903D01*
X117307376Y-25876189D02*
X116307376Y-25876189D01*
X116450234Y-25971427D01*
X116545472Y-26066665D01*
X116593091Y-26161903D01*
X116307376Y-25257141D02*
X116307376Y-24590475D01*
X117307376Y-25019046D01*
X33027376Y-51133332D02*
X33027376Y-50514284D01*
X33408329Y-50847618D01*
X33408329Y-50704760D01*
X33455948Y-50609522D01*
X33503567Y-50561903D01*
X33598805Y-50514284D01*
X33836900Y-50514284D01*
X33932138Y-50561903D01*
X33979757Y-50609522D01*
X34027376Y-50704760D01*
X34027376Y-50990475D01*
X33979757Y-51085713D01*
X33932138Y-51133332D01*
X38107376Y-77961903D02*
X38107376Y-78438094D01*
X38583567Y-78485713D01*
X38535948Y-78438094D01*
X38488329Y-78342856D01*
X38488329Y-78104760D01*
X38535948Y-78009522D01*
X38583567Y-77961903D01*
X38678805Y-77914284D01*
X38916900Y-77914284D01*
X39012138Y-77961903D01*
X39059757Y-78009522D01*
X39107376Y-78104760D01*
X39107376Y-78342856D01*
X39059757Y-78438094D01*
X39012138Y-78485713D01*
X78842615Y-51561903D02*
X78794996Y-51514284D01*
X78747376Y-51419046D01*
X78747376Y-51180951D01*
X78794996Y-51085713D01*
X78842615Y-51038094D01*
X78937853Y-50990475D01*
X79033091Y-50990475D01*
X79175948Y-51038094D01*
X79747376Y-51609522D01*
X79747376Y-50990475D01*
X79747376Y-50038094D02*
X79747376Y-50609522D01*
X79747376Y-50323808D02*
X78747376Y-50323808D01*
X78890234Y-50419046D01*
X78985472Y-50514284D01*
X79033091Y-50609522D01*
X60967376Y-25638094D02*
X60967376Y-26114284D01*
X61443567Y-26161903D01*
X61395948Y-26114284D01*
X61348329Y-26019046D01*
X61348329Y-25780951D01*
X61395948Y-25685713D01*
X61443567Y-25638094D01*
X61538805Y-25590475D01*
X61776900Y-25590475D01*
X61872138Y-25638094D01*
X61919757Y-25685713D01*
X61967376Y-25780951D01*
X61967376Y-26019046D01*
X61919757Y-26114284D01*
X61872138Y-26161903D01*
X61967376Y-24638094D02*
X61967376Y-25209522D01*
X61967376Y-24923808D02*
X60967376Y-24923808D01*
X61110234Y-25019046D01*
X61205472Y-25114284D01*
X61253091Y-25209522D01*
X53347376Y-25638094D02*
X53347376Y-26114284D01*
X53823567Y-26161903D01*
X53775948Y-26114284D01*
X53728329Y-26019046D01*
X53728329Y-25780951D01*
X53775948Y-25685713D01*
X53823567Y-25638094D01*
X53918805Y-25590475D01*
X54156900Y-25590475D01*
X54252138Y-25638094D01*
X54299757Y-25685713D01*
X54347376Y-25780951D01*
X54347376Y-26019046D01*
X54299757Y-26114284D01*
X54252138Y-26161903D01*
X53680710Y-24733332D02*
X54347376Y-24733332D01*
X53299757Y-24971427D02*
X54014043Y-25209522D01*
X54014043Y-24590475D01*
X122387376Y-25590475D02*
X122387376Y-26161903D01*
X122387376Y-25876189D02*
X121387376Y-25876189D01*
X121530234Y-25971427D01*
X121625472Y-26066665D01*
X121673091Y-26161903D01*
X122387376Y-25114284D02*
X122387376Y-24923808D01*
X122339757Y-24828570D01*
X122292138Y-24780951D01*
X122149281Y-24685713D01*
X121958805Y-24638094D01*
X121577853Y-24638094D01*
X121482615Y-24685713D01*
X121434996Y-24733332D01*
X121387376Y-24828570D01*
X121387376Y-25019046D01*
X121434996Y-25114284D01*
X121482615Y-25161903D01*
X121577853Y-25209522D01*
X121815948Y-25209522D01*
X121911186Y-25161903D01*
X121958805Y-25114284D01*
X122006424Y-25019046D01*
X122006424Y-24828570D01*
X121958805Y-24733332D01*
X121911186Y-24685713D01*
X121815948Y-24638094D01*
%TO.C,SW1*%
X107859758Y-77513332D02*
X107907377Y-77370475D01*
X107907377Y-77132379D01*
X107859758Y-77037141D01*
X107812139Y-76989522D01*
X107716901Y-76941903D01*
X107621663Y-76941903D01*
X107526425Y-76989522D01*
X107478806Y-77037141D01*
X107431187Y-77132379D01*
X107383568Y-77322856D01*
X107335949Y-77418094D01*
X107288330Y-77465713D01*
X107193092Y-77513332D01*
X107097854Y-77513332D01*
X107002616Y-77465713D01*
X106954997Y-77418094D01*
X106907377Y-77322856D01*
X106907377Y-77084760D01*
X106954997Y-76941903D01*
X106907377Y-76608570D02*
X107907377Y-76370475D01*
X107193092Y-76179999D01*
X107907377Y-75989522D01*
X106907377Y-75751427D01*
X107907377Y-74846665D02*
X107907377Y-75418094D01*
X107907377Y-75132379D02*
X106907377Y-75132379D01*
X107050235Y-75227618D01*
X107145473Y-75322856D01*
X107193092Y-75418094D01*
%TO.C,U3*%
X140617379Y-76049999D02*
X139617379Y-76049999D01*
X139617379Y-75669046D01*
X139664999Y-75573808D01*
X139712618Y-75526189D01*
X139807856Y-75478570D01*
X139950713Y-75478570D01*
X140045951Y-75526189D01*
X140093570Y-75573808D01*
X140141189Y-75669046D01*
X140141189Y-76049999D01*
X140617379Y-74478570D02*
X140141189Y-74811903D01*
X140617379Y-75049999D02*
X139617379Y-75049999D01*
X139617379Y-74669046D01*
X139664999Y-74573808D01*
X139712618Y-74526189D01*
X139807856Y-74478570D01*
X139950713Y-74478570D01*
X140045951Y-74526189D01*
X140093570Y-74573808D01*
X140141189Y-74669046D01*
X140141189Y-75049999D01*
X139617379Y-74192856D02*
X139617379Y-73621427D01*
X140617379Y-73907141D02*
X139617379Y-73907141D01*
X140617379Y-72716665D02*
X140141189Y-73049999D01*
X140617379Y-73288094D02*
X139617379Y-73288094D01*
X139617379Y-72907141D01*
X139664999Y-72811903D01*
X139712618Y-72764284D01*
X139807856Y-72716665D01*
X139950713Y-72716665D01*
X140045951Y-72764284D01*
X140093570Y-72811903D01*
X140141189Y-72907141D01*
X140141189Y-73288094D01*
X139617379Y-71811903D02*
X139617379Y-72288094D01*
X140093570Y-72335713D01*
X140045951Y-72288094D01*
X139998332Y-72192856D01*
X139998332Y-71954760D01*
X140045951Y-71859522D01*
X140093570Y-71811903D01*
X140188808Y-71764284D01*
X140426903Y-71764284D01*
X140522141Y-71811903D01*
X140569760Y-71859522D01*
X140617379Y-71954760D01*
X140617379Y-72192856D01*
X140569760Y-72288094D01*
X140522141Y-72335713D01*
X139617379Y-71478570D02*
X140617379Y-71145237D01*
X139617379Y-70811903D01*
X139617379Y-70288094D02*
X139617379Y-70192856D01*
X139664999Y-70097618D01*
X139712618Y-70049999D01*
X139807856Y-70002379D01*
X139998332Y-69954760D01*
X140236427Y-69954760D01*
X140426903Y-70002379D01*
X140522141Y-70049999D01*
X140569760Y-70097618D01*
X140617379Y-70192856D01*
X140617379Y-70288094D01*
X140569760Y-70383332D01*
X140522141Y-70430951D01*
X140426903Y-70478570D01*
X140236427Y-70526189D01*
X139998332Y-70526189D01*
X139807856Y-70478570D01*
X139712618Y-70430951D01*
X139664999Y-70383332D01*
X139617379Y-70288094D01*
X139617379Y-69526189D02*
X140426903Y-69526189D01*
X140522141Y-69478570D01*
X140569760Y-69430951D01*
X140617379Y-69335713D01*
X140617379Y-69145237D01*
X140569760Y-69049999D01*
X140522141Y-69002379D01*
X140426903Y-68954760D01*
X139617379Y-68954760D01*
X139712618Y-68526189D02*
X139664999Y-68478570D01*
X139617379Y-68383332D01*
X139617379Y-68145237D01*
X139664999Y-68049999D01*
X139712618Y-68002379D01*
X139807856Y-67954760D01*
X139903094Y-67954760D01*
X140045951Y-68002379D01*
X140617379Y-68573808D01*
X140617379Y-67954760D01*
X139617379Y-67621427D02*
X140617379Y-66954760D01*
X139617379Y-66954760D02*
X140617379Y-67621427D01*
D11*
%TO.C,IC1*%
X54106662Y-46415475D02*
X54106662Y-45810713D01*
X54469519Y-46536427D02*
X53199519Y-46113094D01*
X54469519Y-45689760D01*
X53199519Y-45447856D02*
X53199519Y-44722141D01*
X54469519Y-45084999D02*
X53199519Y-45084999D01*
X54469519Y-44238332D02*
X54469519Y-43996427D01*
X54409043Y-43875475D01*
X54348567Y-43814999D01*
X54167138Y-43694046D01*
X53925234Y-43633570D01*
X53441424Y-43633570D01*
X53320472Y-43694046D01*
X53259996Y-43754522D01*
X53199519Y-43875475D01*
X53199519Y-44117379D01*
X53259996Y-44238332D01*
X53320472Y-44298808D01*
X53441424Y-44359284D01*
X53743805Y-44359284D01*
X53864757Y-44298808D01*
X53925234Y-44238332D01*
X53985710Y-44117379D01*
X53985710Y-43875475D01*
X53925234Y-43754522D01*
X53864757Y-43694046D01*
X53743805Y-43633570D01*
X53199519Y-42847379D02*
X53199519Y-42726427D01*
X53259996Y-42605475D01*
X53320472Y-42544999D01*
X53441424Y-42484522D01*
X53683329Y-42424046D01*
X53985710Y-42424046D01*
X54227615Y-42484522D01*
X54348567Y-42544999D01*
X54409043Y-42605475D01*
X54469519Y-42726427D01*
X54469519Y-42847379D01*
X54409043Y-42968332D01*
X54348567Y-43028808D01*
X54227615Y-43089284D01*
X53985710Y-43149760D01*
X53683329Y-43149760D01*
X53441424Y-43089284D01*
X53320472Y-43028808D01*
X53259996Y-42968332D01*
X53199519Y-42847379D01*
X53199519Y-41879760D02*
X54227615Y-41879760D01*
X54348567Y-41819284D01*
X54409043Y-41758808D01*
X54469519Y-41637856D01*
X54469519Y-41395951D01*
X54409043Y-41274999D01*
X54348567Y-41214522D01*
X54227615Y-41154046D01*
X53199519Y-41154046D01*
X54409043Y-40609760D02*
X54469519Y-40428332D01*
X54469519Y-40125951D01*
X54409043Y-40004999D01*
X54348567Y-39944522D01*
X54227615Y-39884046D01*
X54106662Y-39884046D01*
X53985710Y-39944522D01*
X53925234Y-40004999D01*
X53864757Y-40125951D01*
X53804281Y-40367856D01*
X53743805Y-40488808D01*
X53683329Y-40549284D01*
X53562376Y-40609760D01*
X53441424Y-40609760D01*
X53320472Y-40549284D01*
X53259996Y-40488808D01*
X53199519Y-40367856D01*
X53199519Y-40065475D01*
X53259996Y-39884046D01*
X53804281Y-38916427D02*
X53864757Y-38734999D01*
X53925234Y-38674522D01*
X54046186Y-38614046D01*
X54227615Y-38614046D01*
X54348567Y-38674522D01*
X54409043Y-38734999D01*
X54469519Y-38855951D01*
X54469519Y-39339760D01*
X53199519Y-39339760D01*
X53199519Y-38916427D01*
X53259996Y-38795475D01*
X53320472Y-38734999D01*
X53441424Y-38674522D01*
X53562376Y-38674522D01*
X53683329Y-38734999D01*
X53743805Y-38795475D01*
X53804281Y-38916427D01*
X53804281Y-39339760D01*
X54469519Y-37404522D02*
X54469519Y-38130237D01*
X54469519Y-37767379D02*
X53199519Y-37767379D01*
X53380948Y-37888332D01*
X53501900Y-38009284D01*
X53562376Y-38130237D01*
X53320472Y-36920713D02*
X53259996Y-36860237D01*
X53199519Y-36739284D01*
X53199519Y-36436903D01*
X53259996Y-36315951D01*
X53320472Y-36255475D01*
X53441424Y-36194999D01*
X53562376Y-36194999D01*
X53743805Y-36255475D01*
X54469519Y-36981189D01*
X54469519Y-36194999D01*
X53743805Y-35469284D02*
X53683329Y-35590237D01*
X53622853Y-35650713D01*
X53501900Y-35711189D01*
X53441424Y-35711189D01*
X53320472Y-35650713D01*
X53259996Y-35590237D01*
X53199519Y-35469284D01*
X53199519Y-35227379D01*
X53259996Y-35106427D01*
X53320472Y-35045951D01*
X53441424Y-34985475D01*
X53501900Y-34985475D01*
X53622853Y-35045951D01*
X53683329Y-35106427D01*
X53743805Y-35227379D01*
X53743805Y-35469284D01*
X53804281Y-35590237D01*
X53864757Y-35650713D01*
X53985710Y-35711189D01*
X54227615Y-35711189D01*
X54348567Y-35650713D01*
X54409043Y-35590237D01*
X54469519Y-35469284D01*
X54469519Y-35227379D01*
X54409043Y-35106427D01*
X54348567Y-35045951D01*
X54227615Y-34985475D01*
X53985710Y-34985475D01*
X53864757Y-35045951D01*
X53804281Y-35106427D01*
X53743805Y-35227379D01*
X53199519Y-33896903D02*
X53199519Y-34138808D01*
X53259996Y-34259760D01*
X53320472Y-34320237D01*
X53501900Y-34441189D01*
X53743805Y-34501665D01*
X54227615Y-34501665D01*
X54348567Y-34441189D01*
X54409043Y-34380713D01*
X54469519Y-34259760D01*
X54469519Y-34017856D01*
X54409043Y-33896903D01*
X54348567Y-33836427D01*
X54227615Y-33775951D01*
X53925234Y-33775951D01*
X53804281Y-33836427D01*
X53743805Y-33896903D01*
X53683329Y-34017856D01*
X53683329Y-34259760D01*
X53743805Y-34380713D01*
X53804281Y-34441189D01*
X53925234Y-34501665D01*
X53985710Y-33231665D02*
X53985710Y-32264046D01*
X54106662Y-31719760D02*
X54106662Y-31114999D01*
X54469519Y-31840713D02*
X53199519Y-31417379D01*
X54469519Y-30994046D01*
X53199519Y-30570713D02*
X54227615Y-30570713D01*
X54348567Y-30510237D01*
X54409043Y-30449760D01*
X54469519Y-30328808D01*
X54469519Y-30086903D01*
X54409043Y-29965951D01*
X54348567Y-29905475D01*
X54227615Y-29844999D01*
X53199519Y-29844999D01*
D10*
%TO.C,SW2*%
X122759758Y-77523332D02*
X122807377Y-77380475D01*
X122807377Y-77142379D01*
X122759758Y-77047141D01*
X122712139Y-76999522D01*
X122616901Y-76951903D01*
X122521663Y-76951903D01*
X122426425Y-76999522D01*
X122378806Y-77047141D01*
X122331187Y-77142379D01*
X122283568Y-77332856D01*
X122235949Y-77428094D01*
X122188330Y-77475713D01*
X122093092Y-77523332D01*
X121997854Y-77523332D01*
X121902616Y-77475713D01*
X121854997Y-77428094D01*
X121807377Y-77332856D01*
X121807377Y-77094760D01*
X121854997Y-76951903D01*
X121807377Y-76618570D02*
X122807377Y-76380475D01*
X122093092Y-76189999D01*
X122807377Y-75999522D01*
X121807377Y-75761427D01*
X121902616Y-75428094D02*
X121854997Y-75380475D01*
X121807377Y-75285237D01*
X121807377Y-75047141D01*
X121854997Y-74951903D01*
X121902616Y-74904284D01*
X121997854Y-74856665D01*
X122093092Y-74856665D01*
X122235949Y-74904284D01*
X122807377Y-75475713D01*
X122807377Y-74856665D01*
D11*
%TO.C,UOLED1*%
X113619519Y-41456427D02*
X114647615Y-41456427D01*
X114768567Y-41395951D01*
X114829043Y-41335475D01*
X114889519Y-41214522D01*
X114889519Y-40972618D01*
X114829043Y-40851665D01*
X114768567Y-40791189D01*
X114647615Y-40730713D01*
X113619519Y-40730713D01*
X113619519Y-39884046D02*
X113619519Y-39642141D01*
X113679996Y-39521189D01*
X113800948Y-39400237D01*
X114042853Y-39339760D01*
X114466186Y-39339760D01*
X114708091Y-39400237D01*
X114829043Y-39521189D01*
X114889519Y-39642141D01*
X114889519Y-39884046D01*
X114829043Y-40004999D01*
X114708091Y-40125951D01*
X114466186Y-40186427D01*
X114042853Y-40186427D01*
X113800948Y-40125951D01*
X113679996Y-40004999D01*
X113619519Y-39884046D01*
X114889519Y-38190713D02*
X114889519Y-38795475D01*
X113619519Y-38795475D01*
X114224281Y-37767379D02*
X114224281Y-37344046D01*
X114889519Y-37162618D02*
X114889519Y-37767379D01*
X113619519Y-37767379D01*
X113619519Y-37162618D01*
X114889519Y-36618332D02*
X113619519Y-36618332D01*
X113619519Y-36315951D01*
X113679996Y-36134522D01*
X113800948Y-36013570D01*
X113921900Y-35953094D01*
X114163805Y-35892618D01*
X114345234Y-35892618D01*
X114587138Y-35953094D01*
X114708091Y-36013570D01*
X114829043Y-36134522D01*
X114889519Y-36315951D01*
X114889519Y-36618332D01*
X114889519Y-34683094D02*
X114889519Y-35408808D01*
X114889519Y-35045951D02*
X113619519Y-35045951D01*
X113800948Y-35166903D01*
X113921900Y-35287856D01*
X113982376Y-35408808D01*
%TO.C,U1*%
X59549519Y-76415951D02*
X58279519Y-76415951D01*
X59489043Y-75871665D02*
X59549519Y-75690237D01*
X59549519Y-75387856D01*
X59489043Y-75266903D01*
X59428567Y-75206427D01*
X59307615Y-75145951D01*
X59186662Y-75145951D01*
X59065710Y-75206427D01*
X59005234Y-75266903D01*
X58944757Y-75387856D01*
X58884281Y-75629760D01*
X58823805Y-75750713D01*
X58763329Y-75811189D01*
X58642376Y-75871665D01*
X58521424Y-75871665D01*
X58400472Y-75811189D01*
X58339996Y-75750713D01*
X58279519Y-75629760D01*
X58279519Y-75327379D01*
X58339996Y-75145951D01*
X58279519Y-74722618D02*
X58279519Y-73936427D01*
X58763329Y-74359760D01*
X58763329Y-74178332D01*
X58823805Y-74057379D01*
X58884281Y-73996903D01*
X59005234Y-73936427D01*
X59307615Y-73936427D01*
X59428567Y-73996903D01*
X59489043Y-74057379D01*
X59549519Y-74178332D01*
X59549519Y-74541189D01*
X59489043Y-74662141D01*
X59428567Y-74722618D01*
X59549519Y-72726903D02*
X59549519Y-73452618D01*
X59549519Y-73089760D02*
X58279519Y-73089760D01*
X58460948Y-73210713D01*
X58581900Y-73331665D01*
X58642376Y-73452618D01*
X58884281Y-71759284D02*
X58884281Y-72182618D01*
X59549519Y-72182618D02*
X58279519Y-72182618D01*
X58279519Y-71577856D01*
X59549519Y-70489284D02*
X59549519Y-71094046D01*
X58279519Y-71094046D01*
X58279519Y-70186903D02*
X58279519Y-69400713D01*
X58763329Y-69824046D01*
X58763329Y-69642618D01*
X58823805Y-69521665D01*
X58884281Y-69461189D01*
X59005234Y-69400713D01*
X59307615Y-69400713D01*
X59428567Y-69461189D01*
X59489043Y-69521665D01*
X59549519Y-69642618D01*
X59549519Y-70005475D01*
X59489043Y-70126427D01*
X59428567Y-70186903D01*
X58279519Y-68977379D02*
X58279519Y-68130713D01*
X59549519Y-68674999D01*
X58702853Y-67102618D02*
X59549519Y-67102618D01*
X58219043Y-67404999D02*
X59126186Y-67707379D01*
X59126186Y-66921189D01*
X59549519Y-65772141D02*
X59549519Y-66497856D01*
X59549519Y-66134999D02*
X58279519Y-66134999D01*
X58460948Y-66255951D01*
X58581900Y-66376903D01*
X58642376Y-66497856D01*
X59186662Y-65288332D02*
X59186662Y-64683570D01*
X59549519Y-65409284D02*
X58279519Y-64985951D01*
X59549519Y-64562618D01*
D12*
%TO.C,mouse-bite-2mm-slot*%
X94994996Y-57879999D02*
G75*
G03*
X94994996Y-55879999I0J1000000D01*
G01*
X101994996Y-55879999D02*
G75*
G03*
X101994996Y-57879999I0J-1000000D01*
G01*
D13*
%TO.C,J11*%
X105964996Y-21529999D02*
X27164996Y-21529999D01*
X105964996Y-24189999D02*
X27164996Y-24189999D01*
X108564996Y-21529999D02*
X108564996Y-22859999D01*
X107234996Y-21529999D02*
X108564996Y-21529999D01*
X105964996Y-21529999D02*
X105964996Y-24189999D01*
X27164996Y-21529999D02*
X27164996Y-24189999D01*
%TO.C,J19*%
X142984999Y-79099999D02*
X142984999Y-76439999D01*
X140384999Y-79099999D02*
X140384999Y-77769999D01*
X145584999Y-79099999D02*
X145584999Y-76439999D01*
X141714999Y-79099999D02*
X140384999Y-79099999D01*
X142984999Y-79099999D02*
X145584999Y-79099999D01*
X142984999Y-76439999D02*
X145584999Y-76439999D01*
D12*
%TO.C,mouse-bite-2mm-slot*%
X137174998Y-67919998D02*
G75*
G03*
X139174998Y-67919998I1000000J0D01*
G01*
X139174998Y-74919998D02*
G75*
G03*
X137174998Y-74919998I-1000000J0D01*
G01*
X104694996Y-66919999D02*
G75*
G03*
X106694996Y-66919999I1000000J0D01*
G01*
X106694996Y-73919999D02*
G75*
G03*
X104694996Y-73919999I-1000000J0D01*
G01*
D13*
%TO.C,J8*%
X116854997Y-84609999D02*
X115524997Y-84609999D01*
X118124997Y-84609999D02*
X118124997Y-81949999D01*
X130884997Y-84609999D02*
X130884997Y-81949999D01*
X118124997Y-84609999D02*
X130884997Y-84609999D01*
X118124997Y-81949999D02*
X130884997Y-81949999D01*
X115524997Y-84609999D02*
X115524997Y-83279999D01*
%TO.C,J1*%
X27164996Y-82069999D02*
X27164996Y-80739999D01*
X103484996Y-82069999D02*
X103484996Y-79409999D01*
X29764996Y-82069999D02*
X29764996Y-79409999D01*
X29764996Y-79409999D02*
X103484996Y-79409999D01*
X28494996Y-82069999D02*
X27164996Y-82069999D01*
X29764996Y-82069999D02*
X103484996Y-82069999D01*
%TO.C,J12*%
X118124997Y-59089999D02*
X130884997Y-59089999D01*
X118124997Y-61749999D02*
X130884997Y-61749999D01*
X118124997Y-61749999D02*
X118124997Y-59089999D01*
X115524997Y-61749999D02*
X115524997Y-60419999D01*
X116854997Y-61749999D02*
X115524997Y-61749999D01*
X130884997Y-61749999D02*
X130884997Y-59089999D01*
D12*
%TO.C,mouse-bite-2mm-slot*%
X111774996Y-50859999D02*
G75*
G03*
X109774996Y-50859999I-1000000J0D01*
G01*
X109774996Y-43859999D02*
G75*
G03*
X111774996Y-43859999I1000000J0D01*
G01*
X127694996Y-55879999D02*
G75*
G03*
X127694996Y-57879999I0J-1000000D01*
G01*
X120694996Y-57879999D02*
G75*
G03*
X120694996Y-55879999I0J1000000D01*
G01*
X111774996Y-32359999D02*
G75*
G03*
X109774996Y-32359999I-1000000J0D01*
G01*
X109774996Y-25359999D02*
G75*
G03*
X111774996Y-25359999I1000000J0D01*
G01*
D13*
%TO.C,SW1*%
X113354997Y-64779999D02*
X115954997Y-64779999D01*
X114154997Y-71479999D02*
X115154997Y-71479999D01*
X120954997Y-78179999D02*
X118154997Y-78179999D01*
X108354997Y-69679999D02*
X108354997Y-64779999D01*
X114654997Y-71979999D02*
X114654997Y-70979999D01*
X120954997Y-64779999D02*
X120954997Y-69679999D01*
X120954997Y-73279999D02*
X120954997Y-78179999D01*
X108354997Y-73379999D02*
X108354997Y-78179999D01*
X108354997Y-64779999D02*
X110954997Y-64779999D01*
X110554997Y-79279999D02*
X110554997Y-78679999D01*
X110554997Y-78679999D02*
X110854997Y-78979999D01*
X118354997Y-64779999D02*
X120954997Y-64779999D01*
X110854997Y-78979999D02*
X110554997Y-79279999D01*
X108354997Y-78179999D02*
X110854997Y-78179999D01*
X117654997Y-71479999D02*
G75*
G03*
X117654997Y-71479999I-3000000J0D01*
G01*
D10*
%TO.C,U3*%
X141014999Y-70899999D02*
X143914999Y-70899999D01*
X141014999Y-72199999D02*
X143914999Y-72199999D01*
X143914999Y-72199999D02*
X143914999Y-70899999D01*
X141014999Y-70899999D02*
X141014999Y-72199999D01*
D14*
%TO.C,IC1*%
X69134996Y-47504519D02*
X59730476Y-38099999D01*
X59730476Y-38099999D02*
X69134996Y-28695479D01*
X69134996Y-28695479D02*
X78539516Y-38099999D01*
X78539516Y-38099999D02*
X69134996Y-47504519D01*
D15*
X58533940Y-38718717D02*
G75*
G03*
X58533940Y-38718717I-200000J0D01*
G01*
D13*
%TO.C,J5*%
X100884996Y-61749999D02*
X27164996Y-61749999D01*
X100884996Y-59089999D02*
X100884996Y-61749999D01*
X102154996Y-59089999D02*
X103484996Y-59089999D01*
X103484996Y-59089999D02*
X103484996Y-60419999D01*
X27164996Y-59089999D02*
X27164996Y-61749999D01*
X100884996Y-59089999D02*
X27164996Y-59089999D01*
%TO.C,JOLED2*%
X115589996Y-24189999D02*
X151209996Y-24189999D01*
X151209996Y-24189999D02*
X151209996Y-21529999D01*
X115589996Y-24189999D02*
X115589996Y-21529999D01*
X115589996Y-21529999D02*
X151209996Y-21529999D01*
X114319996Y-24189999D02*
X112989996Y-24189999D01*
X112989996Y-24189999D02*
X112989996Y-22859999D01*
%TO.C,SW2*%
X128254997Y-64789999D02*
X130854997Y-64789999D01*
X135854997Y-73289999D02*
X135854997Y-78189999D01*
X123254997Y-69689999D02*
X123254997Y-64789999D01*
X123254997Y-73389999D02*
X123254997Y-78189999D01*
X125454997Y-79289999D02*
X125454997Y-78689999D01*
X129054997Y-71489999D02*
X130054997Y-71489999D01*
X133254997Y-64789999D02*
X135854997Y-64789999D01*
X125454997Y-78689999D02*
X125754997Y-78989999D01*
X125754997Y-78989999D02*
X125454997Y-79289999D01*
X129554997Y-71989999D02*
X129554997Y-70989999D01*
X123254997Y-78189999D02*
X125754997Y-78189999D01*
X123254997Y-64789999D02*
X125854997Y-64789999D01*
X135854997Y-78189999D02*
X133054997Y-78189999D01*
X135854997Y-64789999D02*
X135854997Y-69689999D01*
X132554997Y-71489999D02*
G75*
G03*
X132554997Y-71489999I-3000000J0D01*
G01*
D12*
%TO.C,UOLED1*%
X117869996Y-47599999D02*
X117869996Y-47649999D01*
X117869996Y-28549999D02*
X118869996Y-28549999D01*
X117869996Y-30099999D02*
X117869996Y-28549999D01*
X121369996Y-47649999D02*
X121869996Y-47649999D01*
X121869996Y-47649999D02*
X121919996Y-47649999D01*
X121919996Y-28549999D02*
X121369996Y-28549999D01*
X117869996Y-46099999D02*
X117869996Y-47599999D01*
X121919996Y-47649999D02*
X121919996Y-28549999D01*
X117869996Y-47649999D02*
X118869996Y-47649999D01*
%TO.C,mouse-bite-2mm-slot*%
X40994996Y-55879999D02*
G75*
G03*
X40994996Y-57879999I0J-1000000D01*
G01*
X33994996Y-57879999D02*
G75*
G03*
X33994996Y-55879999I0J1000000D01*
G01*
X71494996Y-55879999D02*
G75*
G03*
X71494996Y-57879999I0J-1000000D01*
G01*
X64494996Y-57879999D02*
G75*
G03*
X64494996Y-55879999I0J1000000D01*
G01*
D13*
%TO.C,J3*%
X28494996Y-54669999D02*
X27164996Y-54669999D01*
X108564996Y-54669999D02*
X108564996Y-52009999D01*
X29764996Y-52009999D02*
X108564996Y-52009999D01*
X27164996Y-54669999D02*
X27164996Y-53339999D01*
X29764996Y-54669999D02*
X108564996Y-54669999D01*
X29764996Y-54669999D02*
X29764996Y-52009999D01*
%TO.C,J23*%
X142984999Y-63739999D02*
X140384999Y-63739999D01*
X145584999Y-63739999D02*
X145584999Y-65069999D01*
X142984999Y-66399999D02*
X140384999Y-66399999D01*
X142984999Y-63739999D02*
X142984999Y-66399999D01*
X144254999Y-63739999D02*
X145584999Y-63739999D01*
X140384999Y-63739999D02*
X140384999Y-66399999D01*
%TO.C,JOLED1*%
X115584996Y-54669999D02*
X115584996Y-52009999D01*
X112984996Y-54669999D02*
X112984996Y-53339999D01*
X151204996Y-54669999D02*
X151204996Y-52009999D01*
X115584996Y-52009999D02*
X151204996Y-52009999D01*
X114314996Y-54669999D02*
X112984996Y-54669999D01*
X115584996Y-54669999D02*
X151204996Y-54669999D01*
D14*
%TO.C,U1*%
X61550794Y-70915875D02*
G75*
G03*
X61550794Y-70915875I-100000J0D01*
G01*
%TD*%
M02*
