%TF.GenerationSoftware,KiCad,Pcbnew,(6.0.2)*%
%TF.CreationDate,2022-03-22T07:27:24-04:00*%
%TF.ProjectId,Panel_Design_2,50616e65-6c5f-4446-9573-69676e5f322e,rev?*%
%TF.SameCoordinates,Original*%
%TF.FileFunction,Soldermask,Bot*%
%TF.FilePolarity,Negative*%
%FSLAX46Y46*%
G04 Gerber Fmt 4.6, Leading zero omitted, Abs format (unit mm)*
G04 Created by KiCad (PCBNEW (6.0.2)) date 2022-03-22 07:27:24*
%MOMM*%
%LPD*%
G01*
G04 APERTURE LIST*
%ADD10C,0.500000*%
%ADD11R,1.700000X1.700000*%
%ADD12O,1.700000X1.700000*%
%ADD13R,2.000000X2.000000*%
%ADD14C,2.000000*%
%ADD15R,2.500000X3.000000*%
G04 APERTURE END LIST*
D10*
%TO.C,mouse-bite-2mm-slot*%
X96244996Y-57629999D03*
X97744996Y-57629999D03*
X100744996Y-56129999D03*
X97744996Y-56129999D03*
X96244996Y-56129999D03*
X96994996Y-57629999D03*
X99244996Y-57629999D03*
X99994996Y-57629999D03*
X98494996Y-57629999D03*
X99994996Y-56129999D03*
X99244996Y-56129999D03*
X98494996Y-56129999D03*
X96994996Y-56129999D03*
X100744996Y-57629999D03*
%TD*%
D11*
%TO.C,J11*%
X107234996Y-22859999D03*
D12*
X104694996Y-22859999D03*
X102154996Y-22859999D03*
X99614996Y-22859999D03*
X97074996Y-22859999D03*
X94534996Y-22859999D03*
X91994996Y-22859999D03*
X89454996Y-22859999D03*
X86914996Y-22859999D03*
X84374996Y-22859999D03*
X81834996Y-22859999D03*
X79294996Y-22859999D03*
X76754996Y-22859999D03*
X74214996Y-22859999D03*
X71674996Y-22859999D03*
X69134996Y-22859999D03*
X66594996Y-22859999D03*
X64054996Y-22859999D03*
X61514996Y-22859999D03*
X58974996Y-22859999D03*
X56434996Y-22859999D03*
X53894996Y-22859999D03*
X51354996Y-22859999D03*
X48814996Y-22859999D03*
X46274996Y-22859999D03*
X43734996Y-22859999D03*
X41194996Y-22859999D03*
X38654996Y-22859999D03*
X36114996Y-22859999D03*
X33574996Y-22859999D03*
X31034996Y-22859999D03*
X28494996Y-22859999D03*
%TD*%
D11*
%TO.C,J19*%
X141714999Y-77769999D03*
D12*
X144254999Y-77769999D03*
%TD*%
D10*
%TO.C,mouse-bite-2mm-slot*%
X137424998Y-73669998D03*
X138924998Y-69919998D03*
X137424998Y-69919998D03*
X137424998Y-70669998D03*
X138924998Y-69169998D03*
X138924998Y-72919998D03*
X137424998Y-72919998D03*
X137424998Y-71419998D03*
X138924998Y-73669998D03*
X137424998Y-72169998D03*
X138924998Y-72169998D03*
X137424998Y-69169998D03*
X138924998Y-70669998D03*
X138924998Y-71419998D03*
%TD*%
%TO.C,mouse-bite-2mm-slot*%
X106444996Y-70419999D03*
X106444996Y-68169999D03*
X106444996Y-72669999D03*
X104944996Y-72669999D03*
X104944996Y-68919999D03*
X106444996Y-68919999D03*
X104944996Y-69669999D03*
X106444996Y-69669999D03*
X104944996Y-70419999D03*
X104944996Y-71919999D03*
X106444996Y-71919999D03*
X106444996Y-71169999D03*
X104944996Y-71169999D03*
X104944996Y-68169999D03*
%TD*%
D11*
%TO.C,J8*%
X116854997Y-83279999D03*
D12*
X119394997Y-83279999D03*
X121934997Y-83279999D03*
X124474997Y-83279999D03*
X127014997Y-83279999D03*
X129554997Y-83279999D03*
%TD*%
D11*
%TO.C,J1*%
X28494996Y-80739999D03*
D12*
X31034996Y-80739999D03*
X33574996Y-80739999D03*
X36114996Y-80739999D03*
X38654996Y-80739999D03*
X41194996Y-80739999D03*
X43734996Y-80739999D03*
X46274996Y-80739999D03*
X48814996Y-80739999D03*
X51354996Y-80739999D03*
X53894996Y-80739999D03*
X56434996Y-80739999D03*
X58974996Y-80739999D03*
X61514996Y-80739999D03*
X64054996Y-80739999D03*
X66594996Y-80739999D03*
X69134996Y-80739999D03*
X71674996Y-80739999D03*
X74214996Y-80739999D03*
X76754996Y-80739999D03*
X79294996Y-80739999D03*
X81834996Y-80739999D03*
X84374996Y-80739999D03*
X86914996Y-80739999D03*
X89454996Y-80739999D03*
X91994996Y-80739999D03*
X94534996Y-80739999D03*
X97074996Y-80739999D03*
X99614996Y-80739999D03*
X102154996Y-80739999D03*
%TD*%
D11*
%TO.C,J12*%
X116854997Y-60419999D03*
D12*
X119394997Y-60419999D03*
X121934997Y-60419999D03*
X124474997Y-60419999D03*
X127014997Y-60419999D03*
X129554997Y-60419999D03*
%TD*%
D10*
%TO.C,mouse-bite-2mm-slot*%
X111524996Y-48859999D03*
X110024996Y-49609999D03*
X111524996Y-45859999D03*
X111524996Y-48109999D03*
X110024996Y-46609999D03*
X110024996Y-48109999D03*
X110024996Y-45109999D03*
X111524996Y-49609999D03*
X110024996Y-48859999D03*
X110024996Y-47359999D03*
X111524996Y-46609999D03*
X111524996Y-45109999D03*
X110024996Y-45859999D03*
X111524996Y-47359999D03*
%TD*%
%TO.C,mouse-bite-2mm-slot*%
X126444996Y-56129999D03*
X122694996Y-57629999D03*
X126444996Y-57629999D03*
X124944996Y-57629999D03*
X124944996Y-56129999D03*
X124194996Y-57629999D03*
X122694996Y-56129999D03*
X121944996Y-57629999D03*
X125694996Y-57629999D03*
X124194996Y-56129999D03*
X123444996Y-57629999D03*
X123444996Y-56129999D03*
X125694996Y-56129999D03*
X121944996Y-56129999D03*
%TD*%
%TO.C,mouse-bite-2mm-slot*%
X111524996Y-29609999D03*
X111524996Y-28859999D03*
X111524996Y-26609999D03*
X110024996Y-28859999D03*
X111524996Y-31109999D03*
X111524996Y-27359999D03*
X110024996Y-30359999D03*
X111524996Y-28109999D03*
X110024996Y-27359999D03*
X111524996Y-30359999D03*
X110024996Y-26609999D03*
X110024996Y-31109999D03*
X110024996Y-28109999D03*
X110024996Y-29609999D03*
%TD*%
D13*
%TO.C,SW1*%
X112154997Y-78979999D03*
D14*
X117154997Y-78979999D03*
X114654997Y-78979999D03*
D15*
X120254997Y-71479999D03*
X109054997Y-71479999D03*
D14*
X112154997Y-64479999D03*
X117154997Y-64479999D03*
%TD*%
D11*
%TO.C,J5*%
X102154996Y-60419999D03*
D12*
X99614996Y-60419999D03*
X97074996Y-60419999D03*
X94534996Y-60419999D03*
X91994996Y-60419999D03*
X89454996Y-60419999D03*
X86914996Y-60419999D03*
X84374996Y-60419999D03*
X81834996Y-60419999D03*
X79294996Y-60419999D03*
X76754996Y-60419999D03*
X74214996Y-60419999D03*
X71674996Y-60419999D03*
X69134996Y-60419999D03*
X66594996Y-60419999D03*
X64054996Y-60419999D03*
X61514996Y-60419999D03*
X58974996Y-60419999D03*
X56434996Y-60419999D03*
X53894996Y-60419999D03*
X51354996Y-60419999D03*
X48814996Y-60419999D03*
X46274996Y-60419999D03*
X43734996Y-60419999D03*
X41194996Y-60419999D03*
X38654996Y-60419999D03*
X36114996Y-60419999D03*
X33574996Y-60419999D03*
X31034996Y-60419999D03*
X28494996Y-60419999D03*
%TD*%
D11*
%TO.C,JOLED2*%
X114319996Y-22859999D03*
D12*
X116859996Y-22859999D03*
X119399996Y-22859999D03*
X121939996Y-22859999D03*
X124479996Y-22859999D03*
X127019996Y-22859999D03*
X129559996Y-22859999D03*
X132099996Y-22859999D03*
X134639996Y-22859999D03*
X137179996Y-22859999D03*
X139719996Y-22859999D03*
X142259996Y-22859999D03*
X144799996Y-22859999D03*
X147339996Y-22859999D03*
X149879996Y-22859999D03*
%TD*%
D13*
%TO.C,SW2*%
X127054997Y-78989999D03*
D14*
X132054997Y-78989999D03*
X129554997Y-78989999D03*
D15*
X123954997Y-71489999D03*
X135154997Y-71489999D03*
D14*
X127054997Y-64489999D03*
X132054997Y-64489999D03*
%TD*%
D10*
%TO.C,mouse-bite-2mm-slot*%
X35994996Y-57629999D03*
X36744996Y-57629999D03*
X39744996Y-57629999D03*
X38994996Y-57629999D03*
X35244996Y-56129999D03*
X37494996Y-57629999D03*
X35244996Y-57629999D03*
X35994996Y-56129999D03*
X39744996Y-56129999D03*
X38244996Y-57629999D03*
X38994996Y-56129999D03*
X36744996Y-56129999D03*
X37494996Y-56129999D03*
X38244996Y-56129999D03*
%TD*%
%TO.C,mouse-bite-2mm-slot*%
X67244996Y-56129999D03*
X68744996Y-56129999D03*
X67244996Y-57629999D03*
X68744996Y-57629999D03*
X70244996Y-56129999D03*
X65744996Y-57629999D03*
X69494996Y-57629999D03*
X69494996Y-56129999D03*
X67994996Y-56129999D03*
X70244996Y-57629999D03*
X67994996Y-57629999D03*
X65744996Y-56129999D03*
X66494996Y-57629999D03*
X66494996Y-56129999D03*
%TD*%
D11*
%TO.C,J3*%
X28494996Y-53339999D03*
D12*
X31034996Y-53339999D03*
X33574996Y-53339999D03*
X36114996Y-53339999D03*
X38654996Y-53339999D03*
X41194996Y-53339999D03*
X43734996Y-53339999D03*
X46274996Y-53339999D03*
X48814996Y-53339999D03*
X51354996Y-53339999D03*
X53894996Y-53339999D03*
X56434996Y-53339999D03*
X58974996Y-53339999D03*
X61514996Y-53339999D03*
X64054996Y-53339999D03*
X66594996Y-53339999D03*
X69134996Y-53339999D03*
X71674996Y-53339999D03*
X74214996Y-53339999D03*
X76754996Y-53339999D03*
X79294996Y-53339999D03*
X81834996Y-53339999D03*
X84374996Y-53339999D03*
X86914996Y-53339999D03*
X89454996Y-53339999D03*
X91994996Y-53339999D03*
X94534996Y-53339999D03*
X97074996Y-53339999D03*
X99614996Y-53339999D03*
X102154996Y-53339999D03*
X104694996Y-53339999D03*
X107234996Y-53339999D03*
%TD*%
D11*
%TO.C,J23*%
X144254999Y-65069999D03*
D12*
X141714999Y-65069999D03*
%TD*%
D11*
%TO.C,JOLED1*%
X114314996Y-53339999D03*
D12*
X116854996Y-53339999D03*
X119394996Y-53339999D03*
X121934996Y-53339999D03*
X124474996Y-53339999D03*
X127014996Y-53339999D03*
X129554996Y-53339999D03*
X132094996Y-53339999D03*
X134634996Y-53339999D03*
X137174996Y-53339999D03*
X139714996Y-53339999D03*
X142254996Y-53339999D03*
X144794996Y-53339999D03*
X147334996Y-53339999D03*
X149874996Y-53339999D03*
%TD*%
M02*
